<?xml version="1.0" encoding="UTF-8" standalone="no"?>
<!DOCTYPE svg PUBLIC "-//W3C//DTD SVG 1.1//EN" "http://www.w3.org/Graphics/SVG/1.1/DTD/svg11.dtd">
<svg xmlns="http://www.w3.org/2000/svg"  version="1.1" width="705.0" height="380.0" viewBox="-6.0 -12.0 699.0 368.0">
	<desc>LSD Plot - Sim_10c</desc>
	<polyline points="217.0,6.0 217.0,304.0" fill="none" stroke="#f0f0f0" />
	<polyline points="367.0,6.0 367.0,304.0" fill="none" stroke="#f0f0f0" />
	<polyline points="517.0,6.0 517.0,304.0" fill="none" stroke="#f0f0f0" />
	<polyline points="68.0,80.0 666.0,80.0" fill="none" stroke="#f0f0f0" />
	<polyline points="68.0,155.0 666.0,155.0" fill="none" stroke="#f0f0f0" />
	<polyline points="68.0,230.0 666.0,230.0" fill="none" stroke="#f0f0f0" />
	<text x="5.0" y="345.0" font-family="Arial" font-size="9pt">EXP_1</text>
	<text x="47.0" y="345.0" fill="#ff0000" font-family="Arial" font-size="9pt">EXP_2</text>
	<text x="89.0" y="345.0" fill="#008000" font-family="Arial" font-size="9pt">EXP_3</text>
	<text x="131.0" y="345.0" fill="#d0d000" font-family="Arial" font-size="9pt">EXP_4</text>
	<text x="173.0" y="345.0" fill="#fb46bc" font-family="Arial" font-size="9pt">EXP_5</text>
	<text x="215.0" y="345.0" fill="#0000ff" font-family="Arial" font-size="9pt">EXP_6</text>
	<text x="257.0" y="345.0" fill="#00bfff" font-family="Arial" font-size="9pt">EXP_7</text>
	<text x="299.0" y="345.0" fill="#4876ff" font-family="Arial" font-size="9pt">EXP_8</text>
	<text x="341.0" y="345.0" fill="#aeeeee" font-family="Arial" font-size="9pt">EXP_9</text>
	<text x="383.0" y="345.0" fill="#00ffff" font-family="Arial" font-size="9pt">EXP_10</text>
	<polyline points="67.0,305.0 68.0,305.0 69.0,305.0 70.0,305.0 71.0,305.0 72.0,305.0 73.0,305.0 74.0,305.0 75.0,305.0 76.0,305.0 77.0,305.0 78.0,305.0 79.0,305.0 80.0,305.0 81.0,305.0 82.0,305.0 83.0,305.0 84.0,305.0 85.0,305.0 86.0,305.0 87.0,305.0 88.0,305.0 89.0,305.0 90.0,305.0 91.0,305.0 92.0,305.0 93.0,305.0 94.0,305.0 95.0,305.0 96.0,305.0 97.0,305.0 98.0,305.0 99.0,305.0 100.0,305.0 101.0,305.0 102.0,305.0 103.0,305.0 104.0,305.0 105.0,305.0 106.0,305.0 107.0,305.0 108.0,305.0 109.0,305.0 110.0,305.0 111.0,305.0 112.0,305.0 113.0,305.0 114.0,305.0 115.0,305.0 116.0,305.0 117.0,305.0 118.0,305.0 119.0,305.0 120.0,305.0 121.0,305.0 122.0,305.0 123.0,305.0 124.0,305.0 125.0,305.0 126.0,305.0 127.0,305.0 128.0,305.0 129.0,305.0 130.0,305.0 131.0,305.0 132.0,305.0 133.0,305.0 134.0,305.0 135.0,305.0 136.0,305.0 137.0,305.0 138.0,305.0 139.0,305.0 140.0,305.0 141.0,305.0 142.0,305.0 143.0,305.0 144.0,305.0 145.0,305.0 146.0,305.0 147.0,305.0 148.0,305.0 149.0,305.0 150.0,305.0 151.0,305.0 152.0,305.0 153.0,305.0 154.0,305.0 155.0,305.0 156.0,305.0 157.0,305.0 158.0,305.0 159.0,305.0 160.0,305.0 161.0,305.0 162.0,305.0 163.0,305.0 164.0,305.0 165.0,305.0 166.0,305.0 167.0,305.0 168.0,305.0 169.0,305.0 170.0,305.0 171.0,305.0 172.0,305.0 173.0,305.0 174.0,305.0 175.0,305.0 176.0,305.0 177.0,305.0 178.0,305.0 179.0,305.0 180.0,305.0 181.0,305.0 182.0,305.0 183.0,305.0 184.0,305.0 185.0,305.0 186.0,305.0 187.0,305.0 188.0,305.0 189.0,305.0 190.0,305.0 191.0,305.0 192.0,305.0 193.0,305.0 194.0,305.0 195.0,305.0 196.0,305.0 197.0,305.0 198.0,305.0 199.0,305.0 200.0,305.0 201.0,305.0 202.0,305.0 203.0,305.0 204.0,305.0 205.0,305.0 206.0,305.0 207.0,305.0 208.0,305.0 209.0,305.0 210.0,305.0 211.0,305.0 212.0,305.0 213.0,305.0 214.0,305.0 215.0,305.0 216.0,305.0 217.0,305.0 218.0,305.0 219.0,305.0 220.0,305.0 221.0,305.0 222.0,305.0 223.0,305.0 224.0,305.0 225.0,305.0 226.0,305.0 227.0,305.0 228.0,305.0 229.0,305.0 230.0,305.0 231.0,305.0 232.0,305.0 233.0,305.0 234.0,305.0 235.0,305.0 236.0,305.0 237.0,305.0 238.0,305.0 239.0,305.0 240.0,305.0 241.0,305.0 242.0,305.0 243.0,305.0 244.0,305.0 245.0,305.0 246.0,305.0 247.0,305.0 248.0,305.0 249.0,305.0 250.0,305.0 251.0,305.0 252.0,305.0 253.0,305.0 254.0,305.0 255.0,305.0 256.0,305.0 257.0,305.0 258.0,305.0 259.0,305.0 260.0,305.0 261.0,305.0 262.0,305.0 263.0,305.0 264.0,305.0 265.0,305.0 266.0,305.0 267.0,305.0 268.0,305.0 269.0,305.0 270.0,305.0 271.0,305.0 272.0,305.0 273.0,305.0 274.0,305.0 275.0,305.0 276.0,305.0 277.0,305.0 278.0,305.0 279.0,305.0 280.0,305.0 281.0,305.0 282.0,305.0 283.0,305.0 284.0,305.0 285.0,305.0 286.0,305.0 287.0,305.0 288.0,305.0 289.0,305.0 290.0,305.0 291.0,305.0 292.0,305.0 293.0,305.0 294.0,305.0 295.0,305.0 296.0,305.0 297.0,305.0 298.0,305.0 299.0,305.0 300.0,305.0 301.0,305.0 302.0,305.0 303.0,305.0 304.0,305.0 305.0,305.0 306.0,305.0 307.0,305.0 308.0,305.0 309.0,305.0 310.0,305.0 311.0,305.0 312.0,305.0 313.0,305.0 314.0,305.0 315.0,305.0 316.0,305.0 317.0,305.0 318.0,305.0 319.0,305.0 320.0,305.0 321.0,305.0 322.0,305.0 323.0,305.0 324.0,305.0 325.0,305.0 326.0,305.0 327.0,305.0 328.0,305.0 329.0,305.0 330.0,305.0 331.0,305.0 332.0,305.0 333.0,305.0 334.0,305.0 335.0,305.0 336.0,305.0 337.0,305.0 338.0,305.0 339.0,305.0 340.0,305.0 341.0,305.0 342.0,305.0 343.0,305.0 344.0,305.0 345.0,305.0 346.0,305.0 347.0,305.0 348.0,305.0 349.0,305.0 350.0,305.0 351.0,305.0 352.0,305.0 353.0,305.0 354.0,305.0 355.0,305.0 356.0,305.0 357.0,305.0 358.0,305.0 359.0,305.0 360.0,305.0 361.0,305.0 362.0,305.0 363.0,305.0 364.0,305.0 365.0,305.0 366.0,305.0 367.0,305.0 368.0,305.0 369.0,305.0 370.0,305.0 371.0,305.0 372.0,305.0 373.0,305.0 374.0,305.0 375.0,305.0 376.0,305.0 377.0,305.0 378.0,305.0 379.0,305.0 380.0,305.0 381.0,305.0 382.0,305.0 383.0,305.0 384.0,305.0 385.0,305.0 386.0,305.0 387.0,305.0 388.0,305.0 389.0,305.0 390.0,305.0 391.0,305.0 392.0,305.0 393.0,305.0 394.0,305.0 395.0,305.0 396.0,305.0 397.0,305.0 398.0,305.0 399.0,305.0 400.0,305.0 401.0,305.0 402.0,305.0 403.0,305.0 404.0,305.0 405.0,305.0 406.0,305.0 407.0,305.0 408.0,305.0 409.0,305.0 410.0,305.0 411.0,305.0 412.0,305.0 413.0,305.0 414.0,305.0 415.0,305.0 416.0,305.0 417.0,305.0 418.0,305.0 419.0,305.0 420.0,305.0 421.0,305.0 422.0,305.0 423.0,305.0 424.0,305.0 425.0,305.0 426.0,305.0 427.0,305.0 428.0,305.0 429.0,305.0 430.0,305.0 431.0,305.0 432.0,305.0 433.0,305.0 434.0,305.0 435.0,305.0 436.0,305.0 437.0,305.0 438.0,305.0 439.0,305.0 440.0,305.0 441.0,305.0 442.0,305.0 443.0,305.0 444.0,305.0 445.0,305.0 446.0,305.0 447.0,305.0 448.0,305.0 449.0,305.0 450.0,305.0 451.0,305.0 452.0,305.0 453.0,305.0 454.0,305.0 455.0,305.0 456.0,305.0 457.0,305.0 458.0,305.0 459.0,305.0 460.0,305.0 461.0,305.0 462.0,305.0 463.0,305.0 464.0,305.0 465.0,305.0 466.0,305.0 467.0,305.0 468.0,305.0 469.0,305.0 470.0,305.0 471.0,305.0 472.0,305.0 473.0,305.0 474.0,305.0 475.0,305.0 476.0,305.0 477.0,305.0 478.0,305.0 479.0,305.0 480.0,305.0 481.0,305.0 482.0,305.0 483.0,305.0 484.0,305.0 485.0,305.0 486.0,305.0 487.0,305.0 488.0,305.0 489.0,305.0 490.0,305.0 491.0,305.0 492.0,305.0 493.0,305.0 494.0,305.0 495.0,305.0 496.0,305.0 497.0,305.0 498.0,305.0 499.0,305.0 500.0,305.0 501.0,305.0 502.0,305.0 503.0,305.0 504.0,305.0 505.0,305.0 506.0,305.0 507.0,305.0 508.0,305.0 509.0,305.0 510.0,305.0 511.0,305.0 512.0,305.0 513.0,305.0 514.0,305.0 515.0,305.0 516.0,305.0 517.0,305.0 518.0,305.0 519.0,305.0 520.0,305.0 521.0,305.0 522.0,305.0 523.0,305.0 524.0,305.0 525.0,305.0 526.0,305.0 527.0,305.0 528.0,305.0 529.0,305.0 530.0,305.0 531.0,305.0 532.0,305.0 533.0,305.0 534.0,305.0 535.0,305.0 536.0,305.0 537.0,305.0 538.0,305.0 539.0,305.0 540.0,305.0 541.0,305.0 542.0,305.0 543.0,305.0 544.0,305.0 545.0,305.0 546.0,305.0 547.0,305.0 548.0,305.0 549.0,305.0 550.0,305.0 551.0,305.0 552.0,305.0 553.0,305.0 554.0,305.0 555.0,305.0 556.0,305.0 557.0,305.0 558.0,305.0 559.0,305.0 560.0,305.0 561.0,305.0 562.0,305.0 563.0,305.0 564.0,305.0 565.0,305.0 566.0,305.0 567.0,304.0 568.0,304.0 569.0,304.0 570.0,304.0 571.0,304.0 572.0,304.0 573.0,304.0 574.0,304.0 575.0,304.0 576.0,304.0 577.0,304.0 578.0,304.0 579.0,304.0 580.0,304.0 581.0,304.0 582.0,304.0 583.0,304.0 584.0,304.0 585.0,304.0 586.0,304.0 587.0,304.0 588.0,303.0 589.0,303.0 590.0,303.0 591.0,303.0 592.0,303.0 593.0,303.0 594.0,303.0 595.0,302.0 596.0,302.0 597.0,301.0 598.0,302.0 599.0,301.0 600.0,302.0 601.0,301.0 602.0,301.0 603.0,300.0 604.0,300.0 605.0,300.0 606.0,299.0 607.0,299.0 608.0,299.0 609.0,299.0 610.0,298.0 611.0,298.0 612.0,298.0 613.0,298.0 614.0,297.0 615.0,296.0 616.0,296.0 617.0,296.0 618.0,296.0 619.0,296.0 620.0,295.0 621.0,294.0 622.0,294.0 623.0,293.0 624.0,294.0 625.0,293.0 626.0,293.0 627.0,292.0 628.0,292.0 629.0,290.0 630.0,291.0 631.0,290.0 632.0,291.0 633.0,289.0 634.0,289.0 635.0,288.0 636.0,289.0 637.0,286.0 638.0,287.0 639.0,286.0 640.0,286.0 641.0,284.0 642.0,286.0 643.0,284.0 644.0,282.0 645.0,283.0 646.0,281.0 647.0,280.0 648.0,279.0 649.0,278.0 650.0,278.0 651.0,278.0 652.0,273.0 653.0,274.0 654.0,269.0 655.0,271.0 656.0,265.0 657.0,268.0 658.0,257.0 659.0,258.0 660.0,250.0 661.0,254.0 662.0,239.0 663.0,242.0 664.0,229.0 665.0,223.0 666.0,217.0" fill="none" stroke="#000000" />
	<polyline points="67.0,305.0 68.0,305.0 69.0,305.0 70.0,305.0 71.0,305.0 72.0,305.0 73.0,305.0 74.0,305.0 75.0,305.0 76.0,305.0 77.0,305.0 78.0,305.0 79.0,305.0 80.0,305.0 81.0,305.0 82.0,305.0 83.0,305.0 84.0,305.0 85.0,305.0 86.0,305.0 87.0,305.0 88.0,305.0 89.0,305.0 90.0,305.0 91.0,305.0 92.0,305.0 93.0,305.0 94.0,305.0 95.0,305.0 96.0,305.0 97.0,305.0 98.0,305.0 99.0,305.0 100.0,305.0 101.0,305.0 102.0,305.0 103.0,305.0 104.0,305.0 105.0,305.0 106.0,305.0 107.0,305.0 108.0,305.0 109.0,305.0 110.0,305.0 111.0,305.0 112.0,305.0 113.0,305.0 114.0,305.0 115.0,305.0 116.0,305.0 117.0,305.0 118.0,305.0 119.0,305.0 120.0,305.0 121.0,305.0 122.0,305.0 123.0,305.0 124.0,305.0 125.0,305.0 126.0,305.0 127.0,305.0 128.0,305.0 129.0,305.0 130.0,305.0 131.0,305.0 132.0,305.0 133.0,305.0 134.0,305.0 135.0,305.0 136.0,305.0 137.0,305.0 138.0,305.0 139.0,305.0 140.0,305.0 141.0,305.0 142.0,305.0 143.0,305.0 144.0,305.0 145.0,305.0 146.0,305.0 147.0,305.0 148.0,305.0 149.0,305.0 150.0,305.0 151.0,305.0 152.0,305.0 153.0,305.0 154.0,305.0 155.0,305.0 156.0,305.0 157.0,305.0 158.0,305.0 159.0,305.0 160.0,305.0 161.0,305.0 162.0,305.0 163.0,305.0 164.0,305.0 165.0,305.0 166.0,305.0 167.0,305.0 168.0,305.0 169.0,305.0 170.0,305.0 171.0,305.0 172.0,305.0 173.0,305.0 174.0,305.0 175.0,305.0 176.0,305.0 177.0,305.0 178.0,305.0 179.0,305.0 180.0,305.0 181.0,305.0 182.0,305.0 183.0,305.0 184.0,305.0 185.0,305.0 186.0,305.0 187.0,305.0 188.0,305.0 189.0,305.0 190.0,305.0 191.0,305.0 192.0,305.0 193.0,305.0 194.0,305.0 195.0,305.0 196.0,305.0 197.0,305.0 198.0,305.0 199.0,305.0 200.0,305.0 201.0,305.0 202.0,305.0 203.0,305.0 204.0,305.0 205.0,305.0 206.0,305.0 207.0,305.0 208.0,305.0 209.0,305.0 210.0,305.0 211.0,305.0 212.0,305.0 213.0,305.0 214.0,305.0 215.0,305.0 216.0,305.0 217.0,305.0 218.0,305.0 219.0,305.0 220.0,305.0 221.0,305.0 222.0,305.0 223.0,305.0 224.0,305.0 225.0,305.0 226.0,305.0 227.0,305.0 228.0,305.0 229.0,305.0 230.0,305.0 231.0,305.0 232.0,305.0 233.0,305.0 234.0,305.0 235.0,305.0 236.0,305.0 237.0,305.0 238.0,305.0 239.0,305.0 240.0,305.0 241.0,305.0 242.0,305.0 243.0,305.0 244.0,305.0 245.0,305.0 246.0,305.0 247.0,305.0 248.0,305.0 249.0,305.0 250.0,305.0 251.0,305.0 252.0,305.0 253.0,305.0 254.0,305.0 255.0,305.0 256.0,305.0 257.0,305.0 258.0,305.0 259.0,305.0 260.0,305.0 261.0,305.0 262.0,305.0 263.0,305.0 264.0,305.0 265.0,305.0 266.0,305.0 267.0,305.0 268.0,305.0 269.0,305.0 270.0,305.0 271.0,305.0 272.0,305.0 273.0,305.0 274.0,305.0 275.0,305.0 276.0,305.0 277.0,305.0 278.0,305.0 279.0,305.0 280.0,305.0 281.0,305.0 282.0,305.0 283.0,305.0 284.0,305.0 285.0,305.0 286.0,305.0 287.0,305.0 288.0,305.0 289.0,305.0 290.0,305.0 291.0,305.0 292.0,305.0 293.0,305.0 294.0,305.0 295.0,305.0 296.0,305.0 297.0,305.0 298.0,305.0 299.0,305.0 300.0,305.0 301.0,305.0 302.0,305.0 303.0,305.0 304.0,305.0 305.0,305.0 306.0,305.0 307.0,305.0 308.0,305.0 309.0,305.0 310.0,305.0 311.0,305.0 312.0,305.0 313.0,305.0 314.0,305.0 315.0,305.0 316.0,305.0 317.0,305.0 318.0,305.0 319.0,305.0 320.0,305.0 321.0,305.0 322.0,305.0 323.0,305.0 324.0,305.0 325.0,305.0 326.0,305.0 327.0,305.0 328.0,305.0 329.0,305.0 330.0,305.0 331.0,305.0 332.0,305.0 333.0,305.0 334.0,305.0 335.0,305.0 336.0,305.0 337.0,305.0 338.0,305.0 339.0,305.0 340.0,305.0 341.0,305.0 342.0,305.0 343.0,305.0 344.0,305.0 345.0,305.0 346.0,305.0 347.0,305.0 348.0,305.0 349.0,305.0 350.0,305.0 351.0,305.0 352.0,305.0 353.0,305.0 354.0,305.0 355.0,305.0 356.0,305.0 357.0,305.0 358.0,305.0 359.0,305.0 360.0,305.0 361.0,305.0 362.0,305.0 363.0,305.0 364.0,305.0 365.0,305.0 366.0,305.0 367.0,305.0 368.0,305.0 369.0,305.0 370.0,305.0 371.0,305.0 372.0,305.0 373.0,305.0 374.0,305.0 375.0,305.0 376.0,305.0 377.0,305.0 378.0,305.0 379.0,305.0 380.0,305.0 381.0,305.0 382.0,305.0 383.0,305.0 384.0,305.0 385.0,305.0 386.0,305.0 387.0,305.0 388.0,305.0 389.0,305.0 390.0,305.0 391.0,305.0 392.0,305.0 393.0,305.0 394.0,305.0 395.0,305.0 396.0,305.0 397.0,305.0 398.0,305.0 399.0,305.0 400.0,305.0 401.0,305.0 402.0,305.0 403.0,305.0 404.0,305.0 405.0,305.0 406.0,305.0 407.0,305.0 408.0,305.0 409.0,305.0 410.0,305.0 411.0,305.0 412.0,305.0 413.0,305.0 414.0,305.0 415.0,305.0 416.0,305.0 417.0,305.0 418.0,305.0 419.0,305.0 420.0,305.0 421.0,305.0 422.0,305.0 423.0,305.0 424.0,305.0 425.0,305.0 426.0,305.0 427.0,305.0 428.0,305.0 429.0,305.0 430.0,305.0 431.0,305.0 432.0,305.0 433.0,305.0 434.0,305.0 435.0,305.0 436.0,305.0 437.0,305.0 438.0,305.0 439.0,305.0 440.0,305.0 441.0,305.0 442.0,305.0 443.0,305.0 444.0,305.0 445.0,305.0 446.0,305.0 447.0,305.0 448.0,305.0 449.0,305.0 450.0,305.0 451.0,305.0 452.0,305.0 453.0,305.0 454.0,305.0 455.0,305.0 456.0,305.0 457.0,305.0 458.0,305.0 459.0,305.0 460.0,305.0 461.0,305.0 462.0,305.0 463.0,305.0 464.0,305.0 465.0,305.0 466.0,305.0 467.0,305.0 468.0,305.0 469.0,305.0 470.0,305.0 471.0,305.0 472.0,305.0 473.0,305.0 474.0,305.0 475.0,305.0 476.0,305.0 477.0,305.0 478.0,305.0 479.0,305.0 480.0,305.0 481.0,305.0 482.0,305.0 483.0,305.0 484.0,305.0 485.0,305.0 486.0,305.0 487.0,305.0 488.0,305.0 489.0,305.0 490.0,305.0 491.0,305.0 492.0,305.0 493.0,305.0 494.0,305.0 495.0,305.0 496.0,305.0 497.0,305.0 498.0,305.0 499.0,305.0 500.0,305.0 501.0,305.0 502.0,305.0 503.0,305.0 504.0,305.0 505.0,305.0 506.0,305.0 507.0,305.0 508.0,305.0 509.0,305.0 510.0,305.0 511.0,305.0 512.0,305.0 513.0,305.0 514.0,305.0 515.0,305.0 516.0,305.0 517.0,305.0 518.0,305.0 519.0,305.0 520.0,305.0 521.0,305.0 522.0,305.0 523.0,305.0 524.0,305.0 525.0,305.0 526.0,305.0 527.0,305.0 528.0,305.0 529.0,305.0 530.0,305.0 531.0,305.0 532.0,305.0 533.0,305.0 534.0,305.0 535.0,305.0 536.0,305.0 537.0,305.0 538.0,305.0 539.0,305.0 540.0,305.0 541.0,305.0 542.0,305.0 543.0,305.0 544.0,305.0 545.0,305.0 546.0,305.0 547.0,305.0 548.0,305.0 549.0,305.0 550.0,305.0 551.0,305.0 552.0,305.0 553.0,305.0 554.0,305.0 555.0,305.0 556.0,305.0 557.0,305.0 558.0,305.0 559.0,305.0 560.0,305.0 561.0,305.0 562.0,305.0 563.0,305.0 564.0,304.0 565.0,304.0 566.0,304.0 567.0,304.0 568.0,304.0 569.0,304.0 570.0,304.0 571.0,304.0 572.0,304.0 573.0,304.0 574.0,304.0 575.0,304.0 576.0,304.0 577.0,304.0 578.0,304.0 579.0,304.0 580.0,304.0 581.0,304.0 582.0,304.0 583.0,304.0 584.0,304.0 585.0,304.0 586.0,304.0 587.0,304.0 588.0,304.0 589.0,304.0 590.0,304.0 591.0,304.0 592.0,304.0 593.0,304.0 594.0,304.0 595.0,303.0 596.0,304.0 597.0,303.0 598.0,304.0 599.0,303.0 600.0,303.0 601.0,303.0 602.0,303.0 603.0,303.0 604.0,303.0 605.0,302.0 606.0,303.0 607.0,302.0 608.0,302.0 609.0,302.0 610.0,303.0 611.0,302.0 612.0,302.0 613.0,302.0 614.0,302.0 615.0,302.0 616.0,302.0 617.0,302.0 618.0,301.0 619.0,301.0 620.0,301.0 621.0,301.0 622.0,300.0 623.0,300.0 624.0,300.0 625.0,299.0 626.0,300.0 627.0,299.0 628.0,300.0 629.0,298.0 630.0,299.0 631.0,298.0 632.0,299.0 633.0,297.0 634.0,297.0 635.0,297.0 636.0,297.0 637.0,296.0 638.0,296.0 639.0,295.0 640.0,289.0 641.0,294.0 642.0,292.0 643.0,292.0 644.0,290.0 645.0,291.0 646.0,289.0 647.0,290.0 648.0,286.0 649.0,289.0 650.0,284.0 651.0,288.0 652.0,283.0 653.0,284.0 654.0,280.0 655.0,279.0 656.0,279.0 657.0,278.0 658.0,275.0 659.0,279.0 660.0,270.0 661.0,276.0 662.0,267.0 663.0,267.0 664.0,257.0 665.0,262.0 666.0,247.0" fill="none" stroke="#ff0000" />
	<polyline points="67.0,305.0 68.0,305.0 69.0,305.0 70.0,305.0 71.0,305.0 72.0,305.0 73.0,305.0 74.0,305.0 75.0,305.0 76.0,305.0 77.0,305.0 78.0,305.0 79.0,305.0 80.0,305.0 81.0,305.0 82.0,305.0 83.0,305.0 84.0,305.0 85.0,305.0 86.0,305.0 87.0,305.0 88.0,305.0 89.0,305.0 90.0,305.0 91.0,305.0 92.0,305.0 93.0,305.0 94.0,305.0 95.0,305.0 96.0,305.0 97.0,305.0 98.0,305.0 99.0,305.0 100.0,305.0 101.0,305.0 102.0,305.0 103.0,305.0 104.0,305.0 105.0,305.0 106.0,305.0 107.0,305.0 108.0,305.0 109.0,305.0 110.0,305.0 111.0,305.0 112.0,305.0 113.0,305.0 114.0,305.0 115.0,305.0 116.0,305.0 117.0,305.0 118.0,305.0 119.0,305.0 120.0,305.0 121.0,305.0 122.0,305.0 123.0,305.0 124.0,305.0 125.0,305.0 126.0,305.0 127.0,305.0 128.0,305.0 129.0,305.0 130.0,305.0 131.0,305.0 132.0,305.0 133.0,305.0 134.0,305.0 135.0,305.0 136.0,305.0 137.0,305.0 138.0,305.0 139.0,305.0 140.0,305.0 141.0,305.0 142.0,305.0 143.0,305.0 144.0,305.0 145.0,305.0 146.0,305.0 147.0,305.0 148.0,305.0 149.0,305.0 150.0,305.0 151.0,305.0 152.0,305.0 153.0,305.0 154.0,305.0 155.0,305.0 156.0,305.0 157.0,305.0 158.0,305.0 159.0,305.0 160.0,305.0 161.0,305.0 162.0,305.0 163.0,305.0 164.0,305.0 165.0,305.0 166.0,305.0 167.0,305.0 168.0,305.0 169.0,305.0 170.0,305.0 171.0,305.0 172.0,305.0 173.0,305.0 174.0,305.0 175.0,305.0 176.0,305.0 177.0,305.0 178.0,305.0 179.0,305.0 180.0,305.0 181.0,305.0 182.0,305.0 183.0,305.0 184.0,305.0 185.0,305.0 186.0,305.0 187.0,305.0 188.0,305.0 189.0,305.0 190.0,305.0 191.0,305.0 192.0,305.0 193.0,305.0 194.0,305.0 195.0,305.0 196.0,305.0 197.0,305.0 198.0,305.0 199.0,305.0 200.0,305.0 201.0,305.0 202.0,305.0 203.0,305.0 204.0,305.0 205.0,305.0 206.0,305.0 207.0,305.0 208.0,305.0 209.0,305.0 210.0,305.0 211.0,305.0 212.0,305.0 213.0,305.0 214.0,305.0 215.0,305.0 216.0,305.0 217.0,305.0 218.0,305.0 219.0,305.0 220.0,305.0 221.0,305.0 222.0,305.0 223.0,305.0 224.0,305.0 225.0,305.0 226.0,305.0 227.0,305.0 228.0,305.0 229.0,305.0 230.0,305.0 231.0,305.0 232.0,305.0 233.0,305.0 234.0,305.0 235.0,305.0 236.0,305.0 237.0,305.0 238.0,305.0 239.0,305.0 240.0,305.0 241.0,305.0 242.0,305.0 243.0,305.0 244.0,305.0 245.0,305.0 246.0,305.0 247.0,305.0 248.0,305.0 249.0,305.0 250.0,305.0 251.0,305.0 252.0,305.0 253.0,305.0 254.0,305.0 255.0,305.0 256.0,305.0 257.0,305.0 258.0,305.0 259.0,305.0 260.0,305.0 261.0,305.0 262.0,305.0 263.0,305.0 264.0,305.0 265.0,305.0 266.0,305.0 267.0,305.0 268.0,305.0 269.0,305.0 270.0,305.0 271.0,305.0 272.0,305.0 273.0,305.0 274.0,305.0 275.0,305.0 276.0,305.0 277.0,305.0 278.0,305.0 279.0,305.0 280.0,305.0 281.0,305.0 282.0,305.0 283.0,305.0 284.0,305.0 285.0,305.0 286.0,305.0 287.0,305.0 288.0,305.0 289.0,305.0 290.0,305.0 291.0,305.0 292.0,305.0 293.0,305.0 294.0,305.0 295.0,305.0 296.0,305.0 297.0,305.0 298.0,305.0 299.0,305.0 300.0,305.0 301.0,305.0 302.0,305.0 303.0,305.0 304.0,305.0 305.0,305.0 306.0,305.0 307.0,305.0 308.0,305.0 309.0,305.0 310.0,305.0 311.0,305.0 312.0,305.0 313.0,305.0 314.0,305.0 315.0,305.0 316.0,305.0 317.0,305.0 318.0,305.0 319.0,305.0 320.0,305.0 321.0,305.0 322.0,305.0 323.0,305.0 324.0,305.0 325.0,305.0 326.0,305.0 327.0,305.0 328.0,305.0 329.0,305.0 330.0,305.0 331.0,305.0 332.0,305.0 333.0,305.0 334.0,305.0 335.0,305.0 336.0,305.0 337.0,305.0 338.0,305.0 339.0,305.0 340.0,305.0 341.0,305.0 342.0,305.0 343.0,305.0 344.0,305.0 345.0,305.0 346.0,305.0 347.0,305.0 348.0,305.0 349.0,305.0 350.0,305.0 351.0,305.0 352.0,305.0 353.0,305.0 354.0,305.0 355.0,305.0 356.0,305.0 357.0,305.0 358.0,305.0 359.0,305.0 360.0,305.0 361.0,305.0 362.0,305.0 363.0,305.0 364.0,305.0 365.0,305.0 366.0,305.0 367.0,305.0 368.0,305.0 369.0,305.0 370.0,305.0 371.0,305.0 372.0,305.0 373.0,305.0 374.0,305.0 375.0,305.0 376.0,305.0 377.0,305.0 378.0,305.0 379.0,305.0 380.0,305.0 381.0,305.0 382.0,305.0 383.0,305.0 384.0,305.0 385.0,305.0 386.0,305.0 387.0,305.0 388.0,305.0 389.0,305.0 390.0,305.0 391.0,305.0 392.0,305.0 393.0,305.0 394.0,305.0 395.0,305.0 396.0,305.0 397.0,305.0 398.0,305.0 399.0,305.0 400.0,305.0 401.0,305.0 402.0,305.0 403.0,305.0 404.0,305.0 405.0,305.0 406.0,305.0 407.0,305.0 408.0,305.0 409.0,305.0 410.0,305.0 411.0,305.0 412.0,305.0 413.0,305.0 414.0,305.0 415.0,305.0 416.0,305.0 417.0,305.0 418.0,305.0 419.0,305.0 420.0,305.0 421.0,305.0 422.0,305.0 423.0,305.0 424.0,305.0 425.0,305.0 426.0,305.0 427.0,305.0 428.0,305.0 429.0,305.0 430.0,305.0 431.0,305.0 432.0,305.0 433.0,305.0 434.0,305.0 435.0,305.0 436.0,305.0 437.0,305.0 438.0,305.0 439.0,305.0 440.0,305.0 441.0,305.0 442.0,305.0 443.0,305.0 444.0,305.0 445.0,305.0 446.0,305.0 447.0,305.0 448.0,305.0 449.0,305.0 450.0,305.0 451.0,305.0 452.0,305.0 453.0,305.0 454.0,305.0 455.0,305.0 456.0,305.0 457.0,305.0 458.0,305.0 459.0,305.0 460.0,305.0 461.0,305.0 462.0,305.0 463.0,305.0 464.0,305.0 465.0,305.0 466.0,305.0 467.0,305.0 468.0,305.0 469.0,305.0 470.0,305.0 471.0,305.0 472.0,305.0 473.0,305.0 474.0,305.0 475.0,305.0 476.0,305.0 477.0,305.0 478.0,305.0 479.0,305.0 480.0,305.0 481.0,305.0 482.0,305.0 483.0,305.0 484.0,305.0 485.0,305.0 486.0,305.0 487.0,305.0 488.0,305.0 489.0,305.0 490.0,305.0 491.0,305.0 492.0,305.0 493.0,305.0 494.0,305.0 495.0,305.0 496.0,305.0 497.0,305.0 498.0,305.0 499.0,305.0 500.0,305.0 501.0,305.0 502.0,305.0 503.0,305.0 504.0,305.0 505.0,305.0 506.0,305.0 507.0,305.0 508.0,305.0 509.0,305.0 510.0,305.0 511.0,305.0 512.0,305.0 513.0,305.0 514.0,305.0 515.0,305.0 516.0,305.0 517.0,305.0 518.0,305.0 519.0,305.0 520.0,305.0 521.0,305.0 522.0,305.0 523.0,305.0 524.0,305.0 525.0,305.0 526.0,305.0 527.0,305.0 528.0,305.0 529.0,305.0 530.0,305.0 531.0,305.0 532.0,305.0 533.0,305.0 534.0,305.0 535.0,305.0 536.0,305.0 537.0,305.0 538.0,305.0 539.0,305.0 540.0,305.0 541.0,305.0 542.0,305.0 543.0,305.0 544.0,305.0 545.0,305.0 546.0,305.0 547.0,305.0 548.0,305.0 549.0,305.0 550.0,305.0 551.0,305.0 552.0,305.0 553.0,305.0 554.0,305.0 555.0,305.0 556.0,305.0 557.0,305.0 558.0,305.0 559.0,305.0 560.0,305.0 561.0,305.0 562.0,305.0 563.0,305.0 564.0,305.0 565.0,305.0 566.0,305.0 567.0,305.0 568.0,305.0 569.0,305.0 570.0,305.0 571.0,305.0 572.0,305.0 573.0,305.0 574.0,305.0 575.0,305.0 576.0,305.0 577.0,305.0 578.0,304.0 579.0,304.0 580.0,304.0 581.0,304.0 582.0,304.0 583.0,304.0 584.0,304.0 585.0,304.0 586.0,304.0 587.0,304.0 588.0,304.0 589.0,304.0 590.0,304.0 591.0,304.0 592.0,304.0 593.0,304.0 594.0,304.0 595.0,304.0 596.0,304.0 597.0,303.0 598.0,304.0 599.0,303.0 600.0,303.0 601.0,303.0 602.0,303.0 603.0,303.0 604.0,303.0 605.0,303.0 606.0,303.0 607.0,303.0 608.0,303.0 609.0,303.0 610.0,303.0 611.0,303.0 612.0,303.0 613.0,303.0 614.0,303.0 615.0,303.0 616.0,303.0 617.0,302.0 618.0,302.0 619.0,302.0 620.0,302.0 621.0,302.0 622.0,302.0 623.0,302.0 624.0,302.0 625.0,302.0 626.0,302.0 627.0,301.0 628.0,301.0 629.0,300.0 630.0,301.0 631.0,300.0 632.0,300.0 633.0,300.0 634.0,300.0 635.0,299.0 636.0,300.0 637.0,299.0 638.0,299.0 639.0,298.0 640.0,298.0 641.0,298.0 642.0,297.0 643.0,296.0 644.0,296.0 645.0,296.0 646.0,290.0 647.0,293.0 648.0,292.0 649.0,292.0 650.0,291.0 651.0,291.0 652.0,290.0 653.0,289.0 654.0,288.0 655.0,288.0 656.0,285.0 657.0,287.0 658.0,282.0 659.0,285.0 660.0,282.0 661.0,283.0 662.0,279.0 663.0,281.0 664.0,275.0 665.0,275.0 666.0,268.0" fill="none" stroke="#008000" />
	<polyline points="67.0,305.0 68.0,305.0 69.0,305.0 70.0,305.0 71.0,305.0 72.0,305.0 73.0,305.0 74.0,305.0 75.0,305.0 76.0,305.0 77.0,305.0 78.0,305.0 79.0,305.0 80.0,305.0 81.0,305.0 82.0,305.0 83.0,305.0 84.0,305.0 85.0,305.0 86.0,305.0 87.0,305.0 88.0,305.0 89.0,305.0 90.0,305.0 91.0,305.0 92.0,305.0 93.0,305.0 94.0,305.0 95.0,305.0 96.0,305.0 97.0,305.0 98.0,305.0 99.0,305.0 100.0,305.0 101.0,305.0 102.0,305.0 103.0,305.0 104.0,305.0 105.0,305.0 106.0,305.0 107.0,305.0 108.0,305.0 109.0,305.0 110.0,305.0 111.0,305.0 112.0,305.0 113.0,305.0 114.0,305.0 115.0,305.0 116.0,305.0 117.0,305.0 118.0,305.0 119.0,305.0 120.0,305.0 121.0,305.0 122.0,305.0 123.0,305.0 124.0,305.0 125.0,305.0 126.0,305.0 127.0,305.0 128.0,305.0 129.0,305.0 130.0,305.0 131.0,305.0 132.0,305.0 133.0,305.0 134.0,305.0 135.0,305.0 136.0,305.0 137.0,305.0 138.0,305.0 139.0,305.0 140.0,305.0 141.0,305.0 142.0,305.0 143.0,305.0 144.0,305.0 145.0,305.0 146.0,305.0 147.0,305.0 148.0,305.0 149.0,305.0 150.0,305.0 151.0,305.0 152.0,305.0 153.0,305.0 154.0,305.0 155.0,305.0 156.0,305.0 157.0,305.0 158.0,305.0 159.0,305.0 160.0,305.0 161.0,305.0 162.0,305.0 163.0,305.0 164.0,305.0 165.0,305.0 166.0,305.0 167.0,305.0 168.0,305.0 169.0,305.0 170.0,305.0 171.0,305.0 172.0,305.0 173.0,305.0 174.0,305.0 175.0,305.0 176.0,305.0 177.0,305.0 178.0,305.0 179.0,305.0 180.0,305.0 181.0,305.0 182.0,305.0 183.0,305.0 184.0,305.0 185.0,305.0 186.0,305.0 187.0,305.0 188.0,305.0 189.0,305.0 190.0,305.0 191.0,305.0 192.0,305.0 193.0,305.0 194.0,305.0 195.0,305.0 196.0,305.0 197.0,305.0 198.0,305.0 199.0,305.0 200.0,305.0 201.0,305.0 202.0,305.0 203.0,305.0 204.0,305.0 205.0,305.0 206.0,305.0 207.0,305.0 208.0,305.0 209.0,305.0 210.0,305.0 211.0,305.0 212.0,305.0 213.0,305.0 214.0,305.0 215.0,305.0 216.0,305.0 217.0,305.0 218.0,305.0 219.0,305.0 220.0,305.0 221.0,305.0 222.0,305.0 223.0,305.0 224.0,305.0 225.0,305.0 226.0,305.0 227.0,305.0 228.0,305.0 229.0,305.0 230.0,305.0 231.0,305.0 232.0,305.0 233.0,305.0 234.0,305.0 235.0,305.0 236.0,305.0 237.0,305.0 238.0,305.0 239.0,305.0 240.0,305.0 241.0,305.0 242.0,305.0 243.0,305.0 244.0,305.0 245.0,305.0 246.0,305.0 247.0,305.0 248.0,305.0 249.0,305.0 250.0,305.0 251.0,305.0 252.0,305.0 253.0,305.0 254.0,305.0 255.0,305.0 256.0,305.0 257.0,305.0 258.0,305.0 259.0,305.0 260.0,305.0 261.0,305.0 262.0,305.0 263.0,305.0 264.0,305.0 265.0,305.0 266.0,305.0 267.0,305.0 268.0,305.0 269.0,305.0 270.0,305.0 271.0,305.0 272.0,305.0 273.0,305.0 274.0,305.0 275.0,305.0 276.0,305.0 277.0,305.0 278.0,305.0 279.0,305.0 280.0,305.0 281.0,305.0 282.0,305.0 283.0,305.0 284.0,305.0 285.0,305.0 286.0,305.0 287.0,305.0 288.0,305.0 289.0,305.0 290.0,305.0 291.0,305.0 292.0,305.0 293.0,305.0 294.0,305.0 295.0,305.0 296.0,305.0 297.0,305.0 298.0,305.0 299.0,305.0 300.0,305.0 301.0,305.0 302.0,305.0 303.0,305.0 304.0,305.0 305.0,305.0 306.0,305.0 307.0,305.0 308.0,305.0 309.0,305.0 310.0,305.0 311.0,305.0 312.0,305.0 313.0,305.0 314.0,305.0 315.0,305.0 316.0,305.0 317.0,305.0 318.0,305.0 319.0,305.0 320.0,305.0 321.0,305.0 322.0,305.0 323.0,305.0 324.0,305.0 325.0,305.0 326.0,305.0 327.0,305.0 328.0,305.0 329.0,305.0 330.0,305.0 331.0,305.0 332.0,305.0 333.0,305.0 334.0,305.0 335.0,305.0 336.0,305.0 337.0,305.0 338.0,305.0 339.0,305.0 340.0,305.0 341.0,305.0 342.0,305.0 343.0,305.0 344.0,305.0 345.0,305.0 346.0,305.0 347.0,305.0 348.0,305.0 349.0,305.0 350.0,305.0 351.0,305.0 352.0,305.0 353.0,305.0 354.0,305.0 355.0,305.0 356.0,305.0 357.0,305.0 358.0,305.0 359.0,305.0 360.0,305.0 361.0,305.0 362.0,305.0 363.0,305.0 364.0,305.0 365.0,305.0 366.0,305.0 367.0,305.0 368.0,305.0 369.0,305.0 370.0,305.0 371.0,305.0 372.0,305.0 373.0,305.0 374.0,305.0 375.0,305.0 376.0,305.0 377.0,305.0 378.0,305.0 379.0,305.0 380.0,305.0 381.0,305.0 382.0,305.0 383.0,305.0 384.0,305.0 385.0,305.0 386.0,305.0 387.0,305.0 388.0,305.0 389.0,305.0 390.0,305.0 391.0,305.0 392.0,305.0 393.0,305.0 394.0,305.0 395.0,305.0 396.0,305.0 397.0,305.0 398.0,305.0 399.0,305.0 400.0,305.0 401.0,305.0 402.0,305.0 403.0,305.0 404.0,305.0 405.0,305.0 406.0,305.0 407.0,305.0 408.0,305.0 409.0,305.0 410.0,305.0 411.0,305.0 412.0,305.0 413.0,305.0 414.0,305.0 415.0,305.0 416.0,305.0 417.0,305.0 418.0,305.0 419.0,305.0 420.0,305.0 421.0,305.0 422.0,305.0 423.0,305.0 424.0,305.0 425.0,305.0 426.0,305.0 427.0,305.0 428.0,305.0 429.0,305.0 430.0,305.0 431.0,305.0 432.0,305.0 433.0,305.0 434.0,305.0 435.0,305.0 436.0,305.0 437.0,305.0 438.0,305.0 439.0,305.0 440.0,305.0 441.0,305.0 442.0,305.0 443.0,305.0 444.0,305.0 445.0,305.0 446.0,305.0 447.0,305.0 448.0,305.0 449.0,305.0 450.0,305.0 451.0,305.0 452.0,305.0 453.0,305.0 454.0,305.0 455.0,305.0 456.0,305.0 457.0,305.0 458.0,305.0 459.0,305.0 460.0,305.0 461.0,305.0 462.0,305.0 463.0,305.0 464.0,305.0 465.0,305.0 466.0,305.0 467.0,305.0 468.0,305.0 469.0,305.0 470.0,305.0 471.0,305.0 472.0,305.0 473.0,305.0 474.0,305.0 475.0,305.0 476.0,305.0 477.0,305.0 478.0,305.0 479.0,305.0 480.0,305.0 481.0,305.0 482.0,305.0 483.0,305.0 484.0,305.0 485.0,305.0 486.0,305.0 487.0,305.0 488.0,305.0 489.0,305.0 490.0,305.0 491.0,305.0 492.0,305.0 493.0,305.0 494.0,305.0 495.0,305.0 496.0,305.0 497.0,305.0 498.0,305.0 499.0,305.0 500.0,305.0 501.0,305.0 502.0,305.0 503.0,305.0 504.0,305.0 505.0,305.0 506.0,305.0 507.0,305.0 508.0,305.0 509.0,305.0 510.0,305.0 511.0,305.0 512.0,305.0 513.0,305.0 514.0,305.0 515.0,305.0 516.0,305.0 517.0,305.0 518.0,305.0 519.0,305.0 520.0,305.0 521.0,305.0 522.0,305.0 523.0,305.0 524.0,305.0 525.0,305.0 526.0,305.0 527.0,305.0 528.0,305.0 529.0,305.0 530.0,305.0 531.0,305.0 532.0,305.0 533.0,305.0 534.0,305.0 535.0,305.0 536.0,305.0 537.0,304.0 538.0,304.0 539.0,304.0 540.0,304.0 541.0,304.0 542.0,304.0 543.0,304.0 544.0,304.0 545.0,304.0 546.0,304.0 547.0,304.0 548.0,304.0 549.0,304.0 550.0,304.0 551.0,304.0 552.0,304.0 553.0,304.0 554.0,304.0 555.0,304.0 556.0,304.0 557.0,304.0 558.0,304.0 559.0,304.0 560.0,304.0 561.0,303.0 562.0,303.0 563.0,303.0 564.0,303.0 565.0,303.0 566.0,303.0 567.0,303.0 568.0,303.0 569.0,302.0 570.0,302.0 571.0,302.0 572.0,302.0 573.0,302.0 574.0,301.0 575.0,302.0 576.0,301.0 577.0,301.0 578.0,301.0 579.0,301.0 580.0,301.0 581.0,301.0 582.0,300.0 583.0,300.0 584.0,300.0 585.0,299.0 586.0,300.0 587.0,298.0 588.0,299.0 589.0,298.0 590.0,299.0 591.0,297.0 592.0,298.0 593.0,297.0 594.0,297.0 595.0,295.0 596.0,297.0 597.0,295.0 598.0,296.0 599.0,294.0 600.0,294.0 601.0,291.0 602.0,294.0 603.0,292.0 604.0,291.0 605.0,290.0 606.0,290.0 607.0,290.0 608.0,289.0 609.0,287.0 610.0,288.0 611.0,285.0 612.0,284.0 613.0,282.0 614.0,283.0 615.0,283.0 616.0,279.0 617.0,281.0 618.0,276.0 619.0,276.0 620.0,275.0 621.0,274.0 622.0,273.0 623.0,271.0 624.0,273.0 625.0,263.0 626.0,269.0 627.0,262.0 628.0,267.0 629.0,255.0 630.0,265.0 631.0,251.0 632.0,255.0 633.0,250.0 634.0,246.0 635.0,245.0 636.0,241.0 637.0,242.0 638.0,232.0 639.0,241.0 640.0,216.0 641.0,230.0 642.0,203.0 643.0,226.0 644.0,198.0 645.0,216.0 646.0,196.0 647.0,210.0 648.0,179.0 649.0,200.0 650.0,159.0 651.0,188.0 652.0,150.0 653.0,172.0 654.0,81.0 655.0,170.0 656.0,97.0 657.0,168.0 658.0,93.0 659.0,134.0 660.0,63.0 661.0,102.0 662.0,60.0 663.0,87.0 664.0,48.0 665.0,47.0 666.0,43.0" fill="none" stroke="#d0d000" />
	<polyline points="67.0,305.0 68.0,305.0 69.0,305.0 70.0,305.0 71.0,305.0 72.0,305.0 73.0,305.0 74.0,305.0 75.0,305.0 76.0,305.0 77.0,305.0 78.0,305.0 79.0,305.0 80.0,305.0 81.0,305.0 82.0,305.0 83.0,305.0 84.0,305.0 85.0,305.0 86.0,305.0 87.0,305.0 88.0,305.0 89.0,305.0 90.0,305.0 91.0,305.0 92.0,305.0 93.0,305.0 94.0,305.0 95.0,305.0 96.0,305.0 97.0,305.0 98.0,305.0 99.0,305.0 100.0,305.0 101.0,305.0 102.0,305.0 103.0,305.0 104.0,305.0 105.0,305.0 106.0,305.0 107.0,305.0 108.0,305.0 109.0,305.0 110.0,305.0 111.0,305.0 112.0,305.0 113.0,305.0 114.0,305.0 115.0,305.0 116.0,305.0 117.0,305.0 118.0,305.0 119.0,305.0 120.0,305.0 121.0,305.0 122.0,305.0 123.0,305.0 124.0,305.0 125.0,305.0 126.0,305.0 127.0,305.0 128.0,305.0 129.0,305.0 130.0,305.0 131.0,305.0 132.0,305.0 133.0,305.0 134.0,305.0 135.0,305.0 136.0,305.0 137.0,305.0 138.0,305.0 139.0,305.0 140.0,305.0 141.0,305.0 142.0,305.0 143.0,305.0 144.0,305.0 145.0,305.0 146.0,305.0 147.0,305.0 148.0,305.0 149.0,305.0 150.0,305.0 151.0,305.0 152.0,305.0 153.0,305.0 154.0,305.0 155.0,305.0 156.0,305.0 157.0,305.0 158.0,305.0 159.0,305.0 160.0,305.0 161.0,305.0 162.0,305.0 163.0,305.0 164.0,305.0 165.0,305.0 166.0,305.0 167.0,305.0 168.0,305.0 169.0,305.0 170.0,305.0 171.0,305.0 172.0,305.0 173.0,305.0 174.0,305.0 175.0,305.0 176.0,305.0 177.0,305.0 178.0,305.0 179.0,305.0 180.0,305.0 181.0,305.0 182.0,305.0 183.0,305.0 184.0,305.0 185.0,305.0 186.0,305.0 187.0,305.0 188.0,305.0 189.0,305.0 190.0,305.0 191.0,305.0 192.0,305.0 193.0,305.0 194.0,305.0 195.0,305.0 196.0,305.0 197.0,305.0 198.0,305.0 199.0,305.0 200.0,305.0 201.0,305.0 202.0,305.0 203.0,305.0 204.0,305.0 205.0,305.0 206.0,305.0 207.0,305.0 208.0,305.0 209.0,305.0 210.0,305.0 211.0,305.0 212.0,305.0 213.0,305.0 214.0,305.0 215.0,305.0 216.0,305.0 217.0,305.0 218.0,305.0 219.0,305.0 220.0,305.0 221.0,305.0 222.0,305.0 223.0,305.0 224.0,305.0 225.0,305.0 226.0,305.0 227.0,305.0 228.0,305.0 229.0,305.0 230.0,305.0 231.0,305.0 232.0,305.0 233.0,305.0 234.0,305.0 235.0,305.0 236.0,305.0 237.0,305.0 238.0,305.0 239.0,305.0 240.0,305.0 241.0,305.0 242.0,305.0 243.0,305.0 244.0,305.0 245.0,305.0 246.0,305.0 247.0,305.0 248.0,305.0 249.0,305.0 250.0,305.0 251.0,305.0 252.0,305.0 253.0,305.0 254.0,305.0 255.0,305.0 256.0,305.0 257.0,305.0 258.0,305.0 259.0,305.0 260.0,305.0 261.0,305.0 262.0,305.0 263.0,305.0 264.0,305.0 265.0,305.0 266.0,305.0 267.0,305.0 268.0,305.0 269.0,305.0 270.0,305.0 271.0,305.0 272.0,305.0 273.0,305.0 274.0,305.0 275.0,305.0 276.0,305.0 277.0,305.0 278.0,305.0 279.0,305.0 280.0,305.0 281.0,305.0 282.0,305.0 283.0,305.0 284.0,305.0 285.0,305.0 286.0,305.0 287.0,305.0 288.0,305.0 289.0,305.0 290.0,305.0 291.0,305.0 292.0,305.0 293.0,305.0 294.0,305.0 295.0,305.0 296.0,305.0 297.0,305.0 298.0,305.0 299.0,305.0 300.0,305.0 301.0,305.0 302.0,305.0 303.0,305.0 304.0,305.0 305.0,305.0 306.0,305.0 307.0,305.0 308.0,305.0 309.0,305.0 310.0,305.0 311.0,305.0 312.0,305.0 313.0,305.0 314.0,305.0 315.0,305.0 316.0,305.0 317.0,305.0 318.0,305.0 319.0,305.0 320.0,305.0 321.0,305.0 322.0,305.0 323.0,305.0 324.0,305.0 325.0,305.0 326.0,305.0 327.0,305.0 328.0,305.0 329.0,305.0 330.0,305.0 331.0,305.0 332.0,305.0 333.0,305.0 334.0,305.0 335.0,305.0 336.0,305.0 337.0,305.0 338.0,305.0 339.0,305.0 340.0,305.0 341.0,305.0 342.0,305.0 343.0,305.0 344.0,305.0 345.0,305.0 346.0,305.0 347.0,305.0 348.0,305.0 349.0,305.0 350.0,305.0 351.0,305.0 352.0,305.0 353.0,305.0 354.0,305.0 355.0,305.0 356.0,305.0 357.0,305.0 358.0,305.0 359.0,305.0 360.0,305.0 361.0,305.0 362.0,305.0 363.0,305.0 364.0,305.0 365.0,305.0 366.0,305.0 367.0,305.0 368.0,305.0 369.0,305.0 370.0,305.0 371.0,305.0 372.0,305.0 373.0,305.0 374.0,305.0 375.0,305.0 376.0,305.0 377.0,305.0 378.0,305.0 379.0,305.0 380.0,305.0 381.0,305.0 382.0,305.0 383.0,305.0 384.0,305.0 385.0,305.0 386.0,305.0 387.0,305.0 388.0,305.0 389.0,305.0 390.0,305.0 391.0,305.0 392.0,305.0 393.0,305.0 394.0,305.0 395.0,305.0 396.0,305.0 397.0,305.0 398.0,305.0 399.0,305.0 400.0,305.0 401.0,305.0 402.0,305.0 403.0,305.0 404.0,305.0 405.0,305.0 406.0,305.0 407.0,305.0 408.0,305.0 409.0,305.0 410.0,305.0 411.0,305.0 412.0,305.0 413.0,305.0 414.0,305.0 415.0,305.0 416.0,305.0 417.0,305.0 418.0,305.0 419.0,305.0 420.0,305.0 421.0,305.0 422.0,305.0 423.0,305.0 424.0,305.0 425.0,305.0 426.0,305.0 427.0,305.0 428.0,305.0 429.0,305.0 430.0,305.0 431.0,305.0 432.0,305.0 433.0,305.0 434.0,305.0 435.0,305.0 436.0,305.0 437.0,305.0 438.0,305.0 439.0,305.0 440.0,305.0 441.0,305.0 442.0,305.0 443.0,305.0 444.0,305.0 445.0,305.0 446.0,305.0 447.0,305.0 448.0,305.0 449.0,305.0 450.0,305.0 451.0,305.0 452.0,305.0 453.0,305.0 454.0,305.0 455.0,305.0 456.0,305.0 457.0,305.0 458.0,305.0 459.0,305.0 460.0,305.0 461.0,305.0 462.0,305.0 463.0,305.0 464.0,305.0 465.0,305.0 466.0,305.0 467.0,305.0 468.0,305.0 469.0,305.0 470.0,305.0 471.0,305.0 472.0,305.0 473.0,305.0 474.0,305.0 475.0,305.0 476.0,305.0 477.0,305.0 478.0,305.0 479.0,305.0 480.0,305.0 481.0,305.0 482.0,305.0 483.0,305.0 484.0,305.0 485.0,305.0 486.0,305.0 487.0,305.0 488.0,305.0 489.0,305.0 490.0,305.0 491.0,305.0 492.0,305.0 493.0,305.0 494.0,305.0 495.0,305.0 496.0,305.0 497.0,305.0 498.0,305.0 499.0,305.0 500.0,305.0 501.0,305.0 502.0,305.0 503.0,305.0 504.0,305.0 505.0,305.0 506.0,305.0 507.0,305.0 508.0,305.0 509.0,305.0 510.0,305.0 511.0,305.0 512.0,305.0 513.0,305.0 514.0,305.0 515.0,305.0 516.0,305.0 517.0,305.0 518.0,305.0 519.0,305.0 520.0,305.0 521.0,305.0 522.0,305.0 523.0,305.0 524.0,305.0 525.0,305.0 526.0,305.0 527.0,305.0 528.0,305.0 529.0,305.0 530.0,305.0 531.0,305.0 532.0,305.0 533.0,305.0 534.0,305.0 535.0,305.0 536.0,305.0 537.0,305.0 538.0,305.0 539.0,305.0 540.0,305.0 541.0,305.0 542.0,305.0 543.0,305.0 544.0,305.0 545.0,305.0 546.0,305.0 547.0,305.0 548.0,305.0 549.0,305.0 550.0,305.0 551.0,305.0 552.0,305.0 553.0,305.0 554.0,305.0 555.0,305.0 556.0,304.0 557.0,305.0 558.0,304.0 559.0,304.0 560.0,304.0 561.0,304.0 562.0,304.0 563.0,304.0 564.0,304.0 565.0,304.0 566.0,304.0 567.0,304.0 568.0,304.0 569.0,304.0 570.0,304.0 571.0,304.0 572.0,304.0 573.0,304.0 574.0,304.0 575.0,304.0 576.0,304.0 577.0,304.0 578.0,304.0 579.0,304.0 580.0,304.0 581.0,304.0 582.0,304.0 583.0,304.0 584.0,304.0 585.0,304.0 586.0,304.0 587.0,304.0 588.0,304.0 589.0,304.0 590.0,304.0 591.0,304.0 592.0,304.0 593.0,304.0 594.0,304.0 595.0,303.0 596.0,304.0 597.0,303.0 598.0,303.0 599.0,303.0 600.0,303.0 601.0,303.0 602.0,303.0 603.0,303.0 604.0,303.0 605.0,303.0 606.0,303.0 607.0,303.0 608.0,303.0 609.0,302.0 610.0,303.0 611.0,302.0 612.0,303.0 613.0,303.0 614.0,302.0 615.0,302.0 616.0,302.0 617.0,302.0 618.0,302.0 619.0,301.0 620.0,301.0 621.0,301.0 622.0,301.0 623.0,301.0 624.0,301.0 625.0,301.0 626.0,301.0 627.0,301.0 628.0,300.0 629.0,299.0 630.0,300.0 631.0,298.0 632.0,298.0 633.0,297.0 634.0,297.0 635.0,296.0 636.0,295.0 637.0,294.0 638.0,294.0 639.0,294.0 640.0,293.0 641.0,291.0 642.0,291.0 643.0,291.0 644.0,291.0 645.0,291.0 646.0,289.0 647.0,291.0 648.0,288.0 649.0,288.0 650.0,284.0 651.0,287.0 652.0,283.0 653.0,285.0 654.0,283.0 655.0,284.0 656.0,281.0 657.0,279.0 658.0,272.0 659.0,277.0 660.0,272.0 661.0,273.0 662.0,268.0 663.0,270.0 664.0,262.0 665.0,251.0 666.0,254.0" fill="none" stroke="#fb46bc" />
	<polyline points="67.0,305.0 68.0,305.0 69.0,305.0 70.0,305.0 71.0,305.0 72.0,305.0 73.0,305.0 74.0,305.0 75.0,305.0 76.0,305.0 77.0,305.0 78.0,305.0 79.0,305.0 80.0,305.0 81.0,305.0 82.0,305.0 83.0,305.0 84.0,305.0 85.0,305.0 86.0,305.0 87.0,305.0 88.0,305.0 89.0,305.0 90.0,305.0 91.0,305.0 92.0,305.0 93.0,305.0 94.0,305.0 95.0,305.0 96.0,305.0 97.0,305.0 98.0,305.0 99.0,305.0 100.0,305.0 101.0,305.0 102.0,305.0 103.0,305.0 104.0,305.0 105.0,305.0 106.0,305.0 107.0,305.0 108.0,305.0 109.0,305.0 110.0,305.0 111.0,305.0 112.0,305.0 113.0,305.0 114.0,305.0 115.0,305.0 116.0,305.0 117.0,305.0 118.0,305.0 119.0,305.0 120.0,305.0 121.0,305.0 122.0,305.0 123.0,305.0 124.0,305.0 125.0,305.0 126.0,305.0 127.0,305.0 128.0,305.0 129.0,305.0 130.0,305.0 131.0,305.0 132.0,305.0 133.0,305.0 134.0,305.0 135.0,305.0 136.0,305.0 137.0,305.0 138.0,305.0 139.0,305.0 140.0,305.0 141.0,305.0 142.0,305.0 143.0,305.0 144.0,305.0 145.0,305.0 146.0,305.0 147.0,305.0 148.0,305.0 149.0,305.0 150.0,305.0 151.0,305.0 152.0,305.0 153.0,305.0 154.0,305.0 155.0,305.0 156.0,305.0 157.0,305.0 158.0,305.0 159.0,305.0 160.0,305.0 161.0,305.0 162.0,305.0 163.0,305.0 164.0,305.0 165.0,305.0 166.0,305.0 167.0,305.0 168.0,305.0 169.0,305.0 170.0,305.0 171.0,305.0 172.0,305.0 173.0,305.0 174.0,305.0 175.0,305.0 176.0,305.0 177.0,305.0 178.0,305.0 179.0,305.0 180.0,305.0 181.0,305.0 182.0,305.0 183.0,305.0 184.0,305.0 185.0,305.0 186.0,305.0 187.0,305.0 188.0,305.0 189.0,305.0 190.0,305.0 191.0,305.0 192.0,305.0 193.0,305.0 194.0,305.0 195.0,305.0 196.0,305.0 197.0,305.0 198.0,305.0 199.0,305.0 200.0,305.0 201.0,305.0 202.0,305.0 203.0,305.0 204.0,305.0 205.0,305.0 206.0,305.0 207.0,305.0 208.0,305.0 209.0,305.0 210.0,305.0 211.0,305.0 212.0,305.0 213.0,305.0 214.0,305.0 215.0,305.0 216.0,305.0 217.0,305.0 218.0,305.0 219.0,305.0 220.0,305.0 221.0,305.0 222.0,305.0 223.0,305.0 224.0,305.0 225.0,305.0 226.0,305.0 227.0,305.0 228.0,305.0 229.0,305.0 230.0,305.0 231.0,305.0 232.0,305.0 233.0,305.0 234.0,305.0 235.0,305.0 236.0,305.0 237.0,305.0 238.0,305.0 239.0,305.0 240.0,305.0 241.0,305.0 242.0,305.0 243.0,305.0 244.0,305.0 245.0,305.0 246.0,305.0 247.0,305.0 248.0,305.0 249.0,305.0 250.0,305.0 251.0,305.0 252.0,305.0 253.0,305.0 254.0,305.0 255.0,305.0 256.0,305.0 257.0,305.0 258.0,305.0 259.0,305.0 260.0,305.0 261.0,305.0 262.0,305.0 263.0,305.0 264.0,305.0 265.0,305.0 266.0,305.0 267.0,305.0 268.0,305.0 269.0,305.0 270.0,305.0 271.0,305.0 272.0,305.0 273.0,305.0 274.0,305.0 275.0,305.0 276.0,305.0 277.0,305.0 278.0,305.0 279.0,305.0 280.0,305.0 281.0,305.0 282.0,305.0 283.0,305.0 284.0,305.0 285.0,305.0 286.0,305.0 287.0,305.0 288.0,305.0 289.0,305.0 290.0,305.0 291.0,305.0 292.0,305.0 293.0,305.0 294.0,305.0 295.0,305.0 296.0,305.0 297.0,305.0 298.0,305.0 299.0,305.0 300.0,305.0 301.0,305.0 302.0,305.0 303.0,305.0 304.0,305.0 305.0,305.0 306.0,305.0 307.0,305.0 308.0,305.0 309.0,305.0 310.0,305.0 311.0,305.0 312.0,305.0 313.0,305.0 314.0,305.0 315.0,305.0 316.0,305.0 317.0,305.0 318.0,305.0 319.0,305.0 320.0,305.0 321.0,305.0 322.0,305.0 323.0,305.0 324.0,305.0 325.0,305.0 326.0,305.0 327.0,305.0 328.0,305.0 329.0,305.0 330.0,305.0 331.0,305.0 332.0,305.0 333.0,305.0 334.0,305.0 335.0,305.0 336.0,305.0 337.0,305.0 338.0,305.0 339.0,305.0 340.0,305.0 341.0,305.0 342.0,305.0 343.0,305.0 344.0,305.0 345.0,305.0 346.0,305.0 347.0,305.0 348.0,305.0 349.0,305.0 350.0,305.0 351.0,305.0 352.0,305.0 353.0,305.0 354.0,305.0 355.0,305.0 356.0,305.0 357.0,305.0 358.0,305.0 359.0,305.0 360.0,305.0 361.0,305.0 362.0,305.0 363.0,305.0 364.0,305.0 365.0,305.0 366.0,305.0 367.0,305.0 368.0,305.0 369.0,305.0 370.0,305.0 371.0,305.0 372.0,305.0 373.0,305.0 374.0,305.0 375.0,305.0 376.0,305.0 377.0,305.0 378.0,305.0 379.0,305.0 380.0,305.0 381.0,305.0 382.0,305.0 383.0,305.0 384.0,305.0 385.0,305.0 386.0,305.0 387.0,305.0 388.0,305.0 389.0,305.0 390.0,305.0 391.0,305.0 392.0,305.0 393.0,305.0 394.0,305.0 395.0,305.0 396.0,305.0 397.0,305.0 398.0,305.0 399.0,305.0 400.0,305.0 401.0,305.0 402.0,305.0 403.0,305.0 404.0,305.0 405.0,305.0 406.0,305.0 407.0,305.0 408.0,305.0 409.0,305.0 410.0,305.0 411.0,305.0 412.0,305.0 413.0,305.0 414.0,305.0 415.0,305.0 416.0,305.0 417.0,305.0 418.0,305.0 419.0,305.0 420.0,305.0 421.0,305.0 422.0,305.0 423.0,305.0 424.0,305.0 425.0,305.0 426.0,305.0 427.0,305.0 428.0,305.0 429.0,305.0 430.0,305.0 431.0,305.0 432.0,305.0 433.0,305.0 434.0,305.0 435.0,305.0 436.0,305.0 437.0,305.0 438.0,305.0 439.0,305.0 440.0,305.0 441.0,305.0 442.0,305.0 443.0,305.0 444.0,305.0 445.0,305.0 446.0,305.0 447.0,305.0 448.0,305.0 449.0,305.0 450.0,305.0 451.0,305.0 452.0,305.0 453.0,305.0 454.0,305.0 455.0,305.0 456.0,305.0 457.0,305.0 458.0,305.0 459.0,305.0 460.0,305.0 461.0,305.0 462.0,305.0 463.0,305.0 464.0,305.0 465.0,305.0 466.0,305.0 467.0,305.0 468.0,305.0 469.0,305.0 470.0,305.0 471.0,305.0 472.0,305.0 473.0,305.0 474.0,305.0 475.0,305.0 476.0,305.0 477.0,305.0 478.0,305.0 479.0,305.0 480.0,305.0 481.0,305.0 482.0,305.0 483.0,305.0 484.0,305.0 485.0,305.0 486.0,305.0 487.0,305.0 488.0,305.0 489.0,305.0 490.0,305.0 491.0,305.0 492.0,305.0 493.0,305.0 494.0,305.0 495.0,305.0 496.0,305.0 497.0,305.0 498.0,305.0 499.0,305.0 500.0,305.0 501.0,305.0 502.0,305.0 503.0,305.0 504.0,305.0 505.0,305.0 506.0,305.0 507.0,305.0 508.0,305.0 509.0,305.0 510.0,305.0 511.0,305.0 512.0,305.0 513.0,305.0 514.0,305.0 515.0,305.0 516.0,305.0 517.0,305.0 518.0,305.0 519.0,305.0 520.0,305.0 521.0,305.0 522.0,305.0 523.0,305.0 524.0,305.0 525.0,305.0 526.0,305.0 527.0,305.0 528.0,305.0 529.0,305.0 530.0,305.0 531.0,305.0 532.0,305.0 533.0,305.0 534.0,305.0 535.0,305.0 536.0,305.0 537.0,304.0 538.0,304.0 539.0,304.0 540.0,304.0 541.0,304.0 542.0,304.0 543.0,304.0 544.0,304.0 545.0,304.0 546.0,304.0 547.0,304.0 548.0,304.0 549.0,304.0 550.0,304.0 551.0,304.0 552.0,304.0 553.0,304.0 554.0,304.0 555.0,304.0 556.0,304.0 557.0,304.0 558.0,304.0 559.0,304.0 560.0,303.0 561.0,303.0 562.0,303.0 563.0,303.0 564.0,303.0 565.0,303.0 566.0,303.0 567.0,303.0 568.0,303.0 569.0,303.0 570.0,302.0 571.0,302.0 572.0,302.0 573.0,302.0 574.0,302.0 575.0,302.0 576.0,302.0 577.0,301.0 578.0,301.0 579.0,301.0 580.0,301.0 581.0,301.0 582.0,300.0 583.0,301.0 584.0,299.0 585.0,300.0 586.0,299.0 587.0,300.0 588.0,299.0 589.0,299.0 590.0,298.0 591.0,298.0 592.0,297.0 593.0,297.0 594.0,297.0 595.0,296.0 596.0,296.0 597.0,295.0 598.0,295.0 599.0,294.0 600.0,295.0 601.0,293.0 602.0,293.0 603.0,291.0 604.0,293.0 605.0,290.0 606.0,290.0 607.0,290.0 608.0,288.0 609.0,288.0 610.0,287.0 611.0,286.0 612.0,286.0 613.0,284.0 614.0,284.0 615.0,281.0 616.0,280.0 617.0,278.0 618.0,279.0 619.0,277.0 620.0,275.0 621.0,273.0 622.0,273.0 623.0,271.0 624.0,269.0 625.0,265.0 626.0,268.0 627.0,258.0 628.0,263.0 629.0,258.0 630.0,259.0 631.0,256.0 632.0,254.0 633.0,249.0 634.0,251.0 635.0,244.0 636.0,243.0 637.0,238.0 638.0,239.0 639.0,227.0 640.0,233.0 641.0,218.0 642.0,222.0 643.0,213.0 644.0,205.0 645.0,205.0 646.0,192.0 647.0,196.0 648.0,181.0 649.0,195.0 650.0,160.0 651.0,180.0 652.0,153.0 653.0,164.0 654.0,141.0 655.0,150.0 656.0,115.0 657.0,134.0 658.0,89.0 659.0,124.0 660.0,89.0 661.0,93.0 662.0,49.0 663.0,77.0 664.0,57.0 665.0,50.0 666.0,8.0" fill="none" stroke="#0000ff" />
	<polyline points="67.0,305.0 68.0,305.0 69.0,305.0 70.0,305.0 71.0,305.0 72.0,305.0 73.0,305.0 74.0,305.0 75.0,305.0 76.0,305.0 77.0,305.0 78.0,305.0 79.0,305.0 80.0,305.0 81.0,305.0 82.0,305.0 83.0,305.0 84.0,305.0 85.0,305.0 86.0,305.0 87.0,305.0 88.0,305.0 89.0,305.0 90.0,305.0 91.0,305.0 92.0,305.0 93.0,305.0 94.0,305.0 95.0,305.0 96.0,305.0 97.0,305.0 98.0,305.0 99.0,305.0 100.0,305.0 101.0,305.0 102.0,305.0 103.0,305.0 104.0,305.0 105.0,305.0 106.0,305.0 107.0,305.0 108.0,305.0 109.0,305.0 110.0,305.0 111.0,305.0 112.0,305.0 113.0,305.0 114.0,305.0 115.0,305.0 116.0,305.0 117.0,305.0 118.0,305.0 119.0,305.0 120.0,305.0 121.0,305.0 122.0,305.0 123.0,305.0 124.0,305.0 125.0,305.0 126.0,305.0 127.0,305.0 128.0,305.0 129.0,305.0 130.0,305.0 131.0,305.0 132.0,305.0 133.0,305.0 134.0,305.0 135.0,305.0 136.0,305.0 137.0,305.0 138.0,305.0 139.0,305.0 140.0,305.0 141.0,305.0 142.0,305.0 143.0,305.0 144.0,305.0 145.0,305.0 146.0,305.0 147.0,305.0 148.0,305.0 149.0,305.0 150.0,305.0 151.0,305.0 152.0,305.0 153.0,305.0 154.0,305.0 155.0,305.0 156.0,305.0 157.0,305.0 158.0,305.0 159.0,305.0 160.0,305.0 161.0,305.0 162.0,305.0 163.0,305.0 164.0,305.0 165.0,305.0 166.0,305.0 167.0,305.0 168.0,305.0 169.0,305.0 170.0,305.0 171.0,305.0 172.0,305.0 173.0,305.0 174.0,305.0 175.0,305.0 176.0,305.0 177.0,305.0 178.0,305.0 179.0,305.0 180.0,305.0 181.0,305.0 182.0,305.0 183.0,305.0 184.0,305.0 185.0,305.0 186.0,305.0 187.0,305.0 188.0,305.0 189.0,305.0 190.0,305.0 191.0,305.0 192.0,305.0 193.0,305.0 194.0,305.0 195.0,305.0 196.0,305.0 197.0,305.0 198.0,305.0 199.0,305.0 200.0,305.0 201.0,305.0 202.0,305.0 203.0,305.0 204.0,305.0 205.0,305.0 206.0,305.0 207.0,305.0 208.0,305.0 209.0,305.0 210.0,305.0 211.0,305.0 212.0,305.0 213.0,305.0 214.0,305.0 215.0,305.0 216.0,305.0 217.0,305.0 218.0,305.0 219.0,305.0 220.0,305.0 221.0,305.0 222.0,305.0 223.0,305.0 224.0,305.0 225.0,305.0 226.0,305.0 227.0,305.0 228.0,305.0 229.0,305.0 230.0,305.0 231.0,305.0 232.0,305.0 233.0,305.0 234.0,305.0 235.0,305.0 236.0,305.0 237.0,305.0 238.0,305.0 239.0,305.0 240.0,305.0 241.0,305.0 242.0,305.0 243.0,305.0 244.0,305.0 245.0,305.0 246.0,305.0 247.0,305.0 248.0,305.0 249.0,305.0 250.0,305.0 251.0,305.0 252.0,305.0 253.0,305.0 254.0,305.0 255.0,305.0 256.0,305.0 257.0,305.0 258.0,305.0 259.0,305.0 260.0,305.0 261.0,305.0 262.0,305.0 263.0,305.0 264.0,305.0 265.0,305.0 266.0,305.0 267.0,305.0 268.0,305.0 269.0,305.0 270.0,305.0 271.0,305.0 272.0,305.0 273.0,305.0 274.0,305.0 275.0,305.0 276.0,305.0 277.0,305.0 278.0,305.0 279.0,305.0 280.0,305.0 281.0,305.0 282.0,305.0 283.0,305.0 284.0,305.0 285.0,305.0 286.0,305.0 287.0,305.0 288.0,305.0 289.0,305.0 290.0,305.0 291.0,305.0 292.0,305.0 293.0,305.0 294.0,305.0 295.0,305.0 296.0,305.0 297.0,305.0 298.0,305.0 299.0,305.0 300.0,305.0 301.0,305.0 302.0,305.0 303.0,305.0 304.0,305.0 305.0,305.0 306.0,305.0 307.0,305.0 308.0,305.0 309.0,305.0 310.0,305.0 311.0,305.0 312.0,305.0 313.0,305.0 314.0,305.0 315.0,305.0 316.0,305.0 317.0,305.0 318.0,305.0 319.0,305.0 320.0,305.0 321.0,305.0 322.0,305.0 323.0,305.0 324.0,305.0 325.0,305.0 326.0,305.0 327.0,305.0 328.0,305.0 329.0,305.0 330.0,305.0 331.0,305.0 332.0,305.0 333.0,305.0 334.0,305.0 335.0,305.0 336.0,305.0 337.0,305.0 338.0,305.0 339.0,305.0 340.0,305.0 341.0,305.0 342.0,305.0 343.0,305.0 344.0,305.0 345.0,305.0 346.0,305.0 347.0,305.0 348.0,305.0 349.0,305.0 350.0,305.0 351.0,305.0 352.0,305.0 353.0,305.0 354.0,305.0 355.0,305.0 356.0,305.0 357.0,305.0 358.0,305.0 359.0,305.0 360.0,305.0 361.0,305.0 362.0,305.0 363.0,305.0 364.0,305.0 365.0,305.0 366.0,305.0 367.0,305.0 368.0,305.0 369.0,305.0 370.0,305.0 371.0,305.0 372.0,305.0 373.0,305.0 374.0,305.0 375.0,305.0 376.0,305.0 377.0,305.0 378.0,305.0 379.0,305.0 380.0,305.0 381.0,305.0 382.0,305.0 383.0,305.0 384.0,305.0 385.0,305.0 386.0,305.0 387.0,305.0 388.0,305.0 389.0,305.0 390.0,305.0 391.0,305.0 392.0,305.0 393.0,305.0 394.0,305.0 395.0,305.0 396.0,305.0 397.0,305.0 398.0,305.0 399.0,305.0 400.0,305.0 401.0,305.0 402.0,305.0 403.0,305.0 404.0,305.0 405.0,305.0 406.0,305.0 407.0,305.0 408.0,305.0 409.0,305.0 410.0,305.0 411.0,305.0 412.0,305.0 413.0,305.0 414.0,305.0 415.0,305.0 416.0,305.0 417.0,305.0 418.0,305.0 419.0,305.0 420.0,305.0 421.0,305.0 422.0,305.0 423.0,305.0 424.0,305.0 425.0,305.0 426.0,305.0 427.0,305.0 428.0,305.0 429.0,305.0 430.0,305.0 431.0,305.0 432.0,305.0 433.0,305.0 434.0,305.0 435.0,305.0 436.0,305.0 437.0,305.0 438.0,305.0 439.0,305.0 440.0,305.0 441.0,305.0 442.0,305.0 443.0,305.0 444.0,305.0 445.0,305.0 446.0,305.0 447.0,305.0 448.0,305.0 449.0,305.0 450.0,305.0 451.0,305.0 452.0,305.0 453.0,305.0 454.0,305.0 455.0,305.0 456.0,305.0 457.0,305.0 458.0,305.0 459.0,305.0 460.0,305.0 461.0,305.0 462.0,305.0 463.0,305.0 464.0,305.0 465.0,305.0 466.0,305.0 467.0,305.0 468.0,305.0 469.0,305.0 470.0,305.0 471.0,305.0 472.0,305.0 473.0,305.0 474.0,305.0 475.0,305.0 476.0,305.0 477.0,305.0 478.0,305.0 479.0,305.0 480.0,305.0 481.0,305.0 482.0,305.0 483.0,305.0 484.0,305.0 485.0,305.0 486.0,305.0 487.0,305.0 488.0,305.0 489.0,305.0 490.0,305.0 491.0,305.0 492.0,305.0 493.0,305.0 494.0,305.0 495.0,305.0 496.0,305.0 497.0,305.0 498.0,305.0 499.0,305.0 500.0,305.0 501.0,305.0 502.0,305.0 503.0,305.0 504.0,305.0 505.0,305.0 506.0,305.0 507.0,305.0 508.0,305.0 509.0,305.0 510.0,305.0 511.0,305.0 512.0,305.0 513.0,305.0 514.0,305.0 515.0,305.0 516.0,305.0 517.0,305.0 518.0,305.0 519.0,305.0 520.0,305.0 521.0,305.0 522.0,305.0 523.0,305.0 524.0,305.0 525.0,305.0 526.0,305.0 527.0,305.0 528.0,305.0 529.0,305.0 530.0,305.0 531.0,305.0 532.0,305.0 533.0,305.0 534.0,305.0 535.0,305.0 536.0,305.0 537.0,305.0 538.0,305.0 539.0,305.0 540.0,305.0 541.0,305.0 542.0,305.0 543.0,305.0 544.0,305.0 545.0,305.0 546.0,305.0 547.0,305.0 548.0,305.0 549.0,305.0 550.0,305.0 551.0,305.0 552.0,305.0 553.0,305.0 554.0,305.0 555.0,305.0 556.0,305.0 557.0,305.0 558.0,305.0 559.0,305.0 560.0,305.0 561.0,305.0 562.0,305.0 563.0,305.0 564.0,305.0 565.0,304.0 566.0,304.0 567.0,304.0 568.0,304.0 569.0,304.0 570.0,304.0 571.0,304.0 572.0,304.0 573.0,304.0 574.0,304.0 575.0,304.0 576.0,304.0 577.0,304.0 578.0,304.0 579.0,304.0 580.0,304.0 581.0,304.0 582.0,303.0 583.0,303.0 584.0,303.0 585.0,303.0 586.0,303.0 587.0,303.0 588.0,303.0 589.0,303.0 590.0,303.0 591.0,302.0 592.0,302.0 593.0,302.0 594.0,302.0 595.0,302.0 596.0,301.0 597.0,302.0 598.0,302.0 599.0,302.0 600.0,301.0 601.0,301.0 602.0,302.0 603.0,301.0 604.0,301.0 605.0,301.0 606.0,301.0 607.0,301.0 608.0,301.0 609.0,301.0 610.0,301.0 611.0,301.0 612.0,301.0 613.0,301.0 614.0,301.0 615.0,301.0 616.0,301.0 617.0,301.0 618.0,301.0 619.0,301.0 620.0,301.0 621.0,300.0 622.0,300.0 623.0,300.0 624.0,299.0 625.0,299.0 626.0,298.0 627.0,298.0 628.0,298.0 629.0,297.0 630.0,297.0 631.0,296.0 632.0,296.0 633.0,295.0 634.0,295.0 635.0,293.0 636.0,291.0 637.0,291.0 638.0,290.0 639.0,287.0 640.0,289.0 641.0,287.0 642.0,284.0 643.0,283.0 644.0,283.0 645.0,280.0 646.0,277.0 647.0,278.0 648.0,272.0 649.0,276.0 650.0,269.0 651.0,268.0 652.0,263.0 653.0,269.0 654.0,261.0 655.0,266.0 656.0,259.0 657.0,259.0 658.0,260.0 659.0,257.0 660.0,249.0 661.0,256.0 662.0,255.0 663.0,248.0 664.0,250.0 665.0,255.0 666.0,253.0" fill="none" stroke="#00bfff" />
	<polyline points="67.0,305.0 68.0,305.0 69.0,305.0 70.0,305.0 71.0,305.0 72.0,305.0 73.0,305.0 74.0,305.0 75.0,305.0 76.0,305.0 77.0,305.0 78.0,305.0 79.0,305.0 80.0,305.0 81.0,305.0 82.0,305.0 83.0,305.0 84.0,305.0 85.0,305.0 86.0,305.0 87.0,305.0 88.0,305.0 89.0,305.0 90.0,305.0 91.0,305.0 92.0,305.0 93.0,305.0 94.0,305.0 95.0,305.0 96.0,305.0 97.0,305.0 98.0,305.0 99.0,305.0 100.0,305.0 101.0,305.0 102.0,305.0 103.0,305.0 104.0,305.0 105.0,305.0 106.0,305.0 107.0,305.0 108.0,305.0 109.0,305.0 110.0,305.0 111.0,305.0 112.0,305.0 113.0,305.0 114.0,305.0 115.0,305.0 116.0,305.0 117.0,305.0 118.0,305.0 119.0,305.0 120.0,305.0 121.0,305.0 122.0,305.0 123.0,305.0 124.0,305.0 125.0,305.0 126.0,305.0 127.0,305.0 128.0,305.0 129.0,305.0 130.0,305.0 131.0,305.0 132.0,305.0 133.0,305.0 134.0,305.0 135.0,305.0 136.0,305.0 137.0,305.0 138.0,305.0 139.0,305.0 140.0,305.0 141.0,305.0 142.0,305.0 143.0,305.0 144.0,305.0 145.0,305.0 146.0,305.0 147.0,305.0 148.0,305.0 149.0,305.0 150.0,305.0 151.0,305.0 152.0,305.0 153.0,305.0 154.0,305.0 155.0,305.0 156.0,305.0 157.0,305.0 158.0,305.0 159.0,305.0 160.0,305.0 161.0,305.0 162.0,305.0 163.0,305.0 164.0,305.0 165.0,305.0 166.0,305.0 167.0,305.0 168.0,305.0 169.0,305.0 170.0,305.0 171.0,305.0 172.0,305.0 173.0,305.0 174.0,305.0 175.0,305.0 176.0,305.0 177.0,305.0 178.0,305.0 179.0,305.0 180.0,305.0 181.0,305.0 182.0,305.0 183.0,305.0 184.0,305.0 185.0,305.0 186.0,305.0 187.0,305.0 188.0,305.0 189.0,305.0 190.0,305.0 191.0,305.0 192.0,305.0 193.0,305.0 194.0,305.0 195.0,305.0 196.0,305.0 197.0,305.0 198.0,305.0 199.0,305.0 200.0,305.0 201.0,305.0 202.0,305.0 203.0,305.0 204.0,305.0 205.0,305.0 206.0,305.0 207.0,305.0 208.0,305.0 209.0,305.0 210.0,305.0 211.0,305.0 212.0,305.0 213.0,305.0 214.0,305.0 215.0,305.0 216.0,305.0 217.0,305.0 218.0,305.0 219.0,305.0 220.0,305.0 221.0,305.0 222.0,305.0 223.0,305.0 224.0,305.0 225.0,305.0 226.0,305.0 227.0,305.0 228.0,305.0 229.0,305.0 230.0,305.0 231.0,305.0 232.0,305.0 233.0,305.0 234.0,305.0 235.0,305.0 236.0,305.0 237.0,305.0 238.0,305.0 239.0,305.0 240.0,305.0 241.0,305.0 242.0,305.0 243.0,305.0 244.0,305.0 245.0,305.0 246.0,305.0 247.0,305.0 248.0,305.0 249.0,305.0 250.0,305.0 251.0,305.0 252.0,305.0 253.0,305.0 254.0,305.0 255.0,305.0 256.0,305.0 257.0,305.0 258.0,305.0 259.0,305.0 260.0,305.0 261.0,305.0 262.0,305.0 263.0,305.0 264.0,305.0 265.0,305.0 266.0,305.0 267.0,305.0 268.0,305.0 269.0,305.0 270.0,305.0 271.0,305.0 272.0,305.0 273.0,305.0 274.0,305.0 275.0,305.0 276.0,305.0 277.0,305.0 278.0,305.0 279.0,305.0 280.0,305.0 281.0,305.0 282.0,305.0 283.0,305.0 284.0,305.0 285.0,305.0 286.0,305.0 287.0,305.0 288.0,305.0 289.0,305.0 290.0,305.0 291.0,305.0 292.0,305.0 293.0,305.0 294.0,305.0 295.0,305.0 296.0,305.0 297.0,305.0 298.0,305.0 299.0,305.0 300.0,305.0 301.0,305.0 302.0,305.0 303.0,305.0 304.0,305.0 305.0,305.0 306.0,305.0 307.0,305.0 308.0,305.0 309.0,305.0 310.0,305.0 311.0,305.0 312.0,305.0 313.0,305.0 314.0,305.0 315.0,305.0 316.0,305.0 317.0,305.0 318.0,305.0 319.0,305.0 320.0,305.0 321.0,305.0 322.0,305.0 323.0,305.0 324.0,305.0 325.0,305.0 326.0,305.0 327.0,305.0 328.0,305.0 329.0,305.0 330.0,305.0 331.0,305.0 332.0,305.0 333.0,305.0 334.0,305.0 335.0,305.0 336.0,305.0 337.0,305.0 338.0,305.0 339.0,305.0 340.0,305.0 341.0,305.0 342.0,305.0 343.0,305.0 344.0,305.0 345.0,305.0 346.0,305.0 347.0,305.0 348.0,305.0 349.0,305.0 350.0,305.0 351.0,305.0 352.0,305.0 353.0,305.0 354.0,305.0 355.0,305.0 356.0,305.0 357.0,305.0 358.0,305.0 359.0,305.0 360.0,305.0 361.0,305.0 362.0,305.0 363.0,305.0 364.0,305.0 365.0,305.0 366.0,305.0 367.0,305.0 368.0,305.0 369.0,305.0 370.0,305.0 371.0,305.0 372.0,305.0 373.0,305.0 374.0,305.0 375.0,305.0 376.0,305.0 377.0,305.0 378.0,305.0 379.0,305.0 380.0,305.0 381.0,305.0 382.0,305.0 383.0,305.0 384.0,305.0 385.0,305.0 386.0,305.0 387.0,305.0 388.0,305.0 389.0,305.0 390.0,305.0 391.0,305.0 392.0,305.0 393.0,305.0 394.0,305.0 395.0,305.0 396.0,305.0 397.0,305.0 398.0,305.0 399.0,305.0 400.0,305.0 401.0,305.0 402.0,305.0 403.0,305.0 404.0,305.0 405.0,305.0 406.0,305.0 407.0,305.0 408.0,305.0 409.0,305.0 410.0,305.0 411.0,305.0 412.0,305.0 413.0,305.0 414.0,305.0 415.0,305.0 416.0,305.0 417.0,305.0 418.0,305.0 419.0,305.0 420.0,305.0 421.0,305.0 422.0,305.0 423.0,305.0 424.0,305.0 425.0,305.0 426.0,305.0 427.0,305.0 428.0,305.0 429.0,305.0 430.0,305.0 431.0,305.0 432.0,305.0 433.0,305.0 434.0,305.0 435.0,305.0 436.0,305.0 437.0,305.0 438.0,305.0 439.0,305.0 440.0,305.0 441.0,305.0 442.0,305.0 443.0,305.0 444.0,305.0 445.0,305.0 446.0,305.0 447.0,305.0 448.0,305.0 449.0,305.0 450.0,305.0 451.0,305.0 452.0,305.0 453.0,305.0 454.0,305.0 455.0,305.0 456.0,305.0 457.0,305.0 458.0,305.0 459.0,305.0 460.0,305.0 461.0,305.0 462.0,305.0 463.0,305.0 464.0,305.0 465.0,305.0 466.0,305.0 467.0,305.0 468.0,305.0 469.0,305.0 470.0,305.0 471.0,305.0 472.0,305.0 473.0,305.0 474.0,305.0 475.0,305.0 476.0,305.0 477.0,305.0 478.0,305.0 479.0,305.0 480.0,305.0 481.0,305.0 482.0,305.0 483.0,305.0 484.0,305.0 485.0,305.0 486.0,305.0 487.0,305.0 488.0,305.0 489.0,305.0 490.0,305.0 491.0,305.0 492.0,305.0 493.0,305.0 494.0,305.0 495.0,305.0 496.0,305.0 497.0,305.0 498.0,305.0 499.0,305.0 500.0,305.0 501.0,305.0 502.0,305.0 503.0,305.0 504.0,305.0 505.0,305.0 506.0,305.0 507.0,305.0 508.0,305.0 509.0,305.0 510.0,305.0 511.0,305.0 512.0,305.0 513.0,305.0 514.0,305.0 515.0,305.0 516.0,305.0 517.0,305.0 518.0,305.0 519.0,305.0 520.0,305.0 521.0,305.0 522.0,305.0 523.0,305.0 524.0,305.0 525.0,305.0 526.0,305.0 527.0,305.0 528.0,305.0 529.0,305.0 530.0,305.0 531.0,305.0 532.0,305.0 533.0,305.0 534.0,305.0 535.0,305.0 536.0,305.0 537.0,305.0 538.0,305.0 539.0,305.0 540.0,305.0 541.0,305.0 542.0,305.0 543.0,305.0 544.0,305.0 545.0,305.0 546.0,305.0 547.0,305.0 548.0,305.0 549.0,305.0 550.0,305.0 551.0,305.0 552.0,305.0 553.0,305.0 554.0,305.0 555.0,305.0 556.0,305.0 557.0,305.0 558.0,305.0 559.0,305.0 560.0,305.0 561.0,305.0 562.0,305.0 563.0,305.0 564.0,305.0 565.0,305.0 566.0,305.0 567.0,305.0 568.0,305.0 569.0,305.0 570.0,305.0 571.0,304.0 572.0,305.0 573.0,304.0 574.0,304.0 575.0,304.0 576.0,304.0 577.0,304.0 578.0,304.0 579.0,304.0 580.0,304.0 581.0,304.0 582.0,304.0 583.0,304.0 584.0,304.0 585.0,304.0 586.0,304.0 587.0,304.0 588.0,304.0 589.0,304.0 590.0,304.0 591.0,304.0 592.0,304.0 593.0,304.0 594.0,304.0 595.0,304.0 596.0,304.0 597.0,304.0 598.0,304.0 599.0,304.0 600.0,304.0 601.0,303.0 602.0,304.0 603.0,303.0 604.0,303.0 605.0,303.0 606.0,303.0 607.0,303.0 608.0,303.0 609.0,303.0 610.0,303.0 611.0,303.0 612.0,303.0 613.0,303.0 614.0,303.0 615.0,302.0 616.0,302.0 617.0,302.0 618.0,302.0 619.0,302.0 620.0,302.0 621.0,302.0 622.0,302.0 623.0,301.0 624.0,301.0 625.0,301.0 626.0,301.0 627.0,301.0 628.0,301.0 629.0,300.0 630.0,300.0 631.0,299.0 632.0,299.0 633.0,299.0 634.0,298.0 635.0,298.0 636.0,297.0 637.0,298.0 638.0,297.0 639.0,298.0 640.0,296.0 641.0,297.0 642.0,296.0 643.0,296.0 644.0,296.0 645.0,295.0 646.0,294.0 647.0,295.0 648.0,294.0 649.0,294.0 650.0,293.0 651.0,293.0 652.0,291.0 653.0,292.0 654.0,290.0 655.0,288.0 656.0,285.0 657.0,285.0 658.0,278.0 659.0,278.0 660.0,276.0 661.0,277.0 662.0,273.0 663.0,273.0 664.0,265.0 665.0,271.0 666.0,264.0" fill="none" stroke="#4876ff" />
	<polyline points="67.0,305.0 68.0,305.0 69.0,305.0 70.0,305.0 71.0,305.0 72.0,305.0 73.0,305.0 74.0,305.0 75.0,305.0 76.0,305.0 77.0,305.0 78.0,305.0 79.0,305.0 80.0,305.0 81.0,305.0 82.0,305.0 83.0,305.0 84.0,305.0 85.0,305.0 86.0,305.0 87.0,305.0 88.0,305.0 89.0,305.0 90.0,305.0 91.0,305.0 92.0,305.0 93.0,305.0 94.0,305.0 95.0,305.0 96.0,305.0 97.0,305.0 98.0,305.0 99.0,305.0 100.0,305.0 101.0,305.0 102.0,305.0 103.0,305.0 104.0,305.0 105.0,305.0 106.0,305.0 107.0,305.0 108.0,305.0 109.0,305.0 110.0,305.0 111.0,305.0 112.0,305.0 113.0,305.0 114.0,305.0 115.0,305.0 116.0,305.0 117.0,305.0 118.0,305.0 119.0,305.0 120.0,305.0 121.0,305.0 122.0,305.0 123.0,305.0 124.0,305.0 125.0,305.0 126.0,305.0 127.0,305.0 128.0,305.0 129.0,305.0 130.0,305.0 131.0,305.0 132.0,305.0 133.0,305.0 134.0,305.0 135.0,305.0 136.0,305.0 137.0,305.0 138.0,305.0 139.0,305.0 140.0,305.0 141.0,305.0 142.0,305.0 143.0,305.0 144.0,305.0 145.0,305.0 146.0,305.0 147.0,305.0 148.0,305.0 149.0,305.0 150.0,305.0 151.0,305.0 152.0,305.0 153.0,305.0 154.0,305.0 155.0,305.0 156.0,305.0 157.0,305.0 158.0,305.0 159.0,305.0 160.0,305.0 161.0,305.0 162.0,305.0 163.0,305.0 164.0,305.0 165.0,305.0 166.0,305.0 167.0,305.0 168.0,305.0 169.0,305.0 170.0,305.0 171.0,305.0 172.0,305.0 173.0,305.0 174.0,305.0 175.0,305.0 176.0,305.0 177.0,305.0 178.0,305.0 179.0,305.0 180.0,305.0 181.0,305.0 182.0,305.0 183.0,305.0 184.0,305.0 185.0,305.0 186.0,305.0 187.0,305.0 188.0,305.0 189.0,305.0 190.0,305.0 191.0,305.0 192.0,305.0 193.0,305.0 194.0,305.0 195.0,305.0 196.0,305.0 197.0,305.0 198.0,305.0 199.0,305.0 200.0,305.0 201.0,305.0 202.0,305.0 203.0,305.0 204.0,305.0 205.0,305.0 206.0,305.0 207.0,305.0 208.0,305.0 209.0,305.0 210.0,305.0 211.0,305.0 212.0,305.0 213.0,305.0 214.0,305.0 215.0,305.0 216.0,305.0 217.0,305.0 218.0,305.0 219.0,305.0 220.0,305.0 221.0,305.0 222.0,305.0 223.0,305.0 224.0,305.0 225.0,305.0 226.0,305.0 227.0,305.0 228.0,305.0 229.0,305.0 230.0,305.0 231.0,305.0 232.0,305.0 233.0,305.0 234.0,305.0 235.0,305.0 236.0,305.0 237.0,305.0 238.0,305.0 239.0,305.0 240.0,305.0 241.0,305.0 242.0,305.0 243.0,305.0 244.0,305.0 245.0,305.0 246.0,305.0 247.0,305.0 248.0,305.0 249.0,305.0 250.0,305.0 251.0,305.0 252.0,305.0 253.0,305.0 254.0,305.0 255.0,305.0 256.0,305.0 257.0,305.0 258.0,305.0 259.0,305.0 260.0,305.0 261.0,305.0 262.0,305.0 263.0,305.0 264.0,305.0 265.0,305.0 266.0,305.0 267.0,305.0 268.0,305.0 269.0,305.0 270.0,305.0 271.0,305.0 272.0,305.0 273.0,305.0 274.0,305.0 275.0,305.0 276.0,305.0 277.0,305.0 278.0,305.0 279.0,305.0 280.0,305.0 281.0,305.0 282.0,305.0 283.0,305.0 284.0,305.0 285.0,305.0 286.0,305.0 287.0,305.0 288.0,305.0 289.0,305.0 290.0,305.0 291.0,305.0 292.0,305.0 293.0,305.0 294.0,305.0 295.0,305.0 296.0,305.0 297.0,305.0 298.0,305.0 299.0,305.0 300.0,305.0 301.0,305.0 302.0,305.0 303.0,305.0 304.0,305.0 305.0,305.0 306.0,305.0 307.0,305.0 308.0,305.0 309.0,305.0 310.0,305.0 311.0,305.0 312.0,305.0 313.0,305.0 314.0,305.0 315.0,305.0 316.0,305.0 317.0,305.0 318.0,305.0 319.0,305.0 320.0,305.0 321.0,305.0 322.0,305.0 323.0,305.0 324.0,305.0 325.0,305.0 326.0,305.0 327.0,305.0 328.0,305.0 329.0,305.0 330.0,305.0 331.0,305.0 332.0,305.0 333.0,305.0 334.0,305.0 335.0,305.0 336.0,305.0 337.0,305.0 338.0,305.0 339.0,305.0 340.0,305.0 341.0,305.0 342.0,305.0 343.0,305.0 344.0,305.0 345.0,305.0 346.0,305.0 347.0,305.0 348.0,305.0 349.0,305.0 350.0,305.0 351.0,305.0 352.0,305.0 353.0,305.0 354.0,305.0 355.0,305.0 356.0,305.0 357.0,305.0 358.0,305.0 359.0,305.0 360.0,305.0 361.0,305.0 362.0,305.0 363.0,305.0 364.0,305.0 365.0,305.0 366.0,305.0 367.0,305.0 368.0,305.0 369.0,305.0 370.0,305.0 371.0,305.0 372.0,305.0 373.0,305.0 374.0,305.0 375.0,305.0 376.0,305.0 377.0,305.0 378.0,305.0 379.0,305.0 380.0,305.0 381.0,305.0 382.0,305.0 383.0,305.0 384.0,305.0 385.0,305.0 386.0,305.0 387.0,305.0 388.0,305.0 389.0,305.0 390.0,305.0 391.0,305.0 392.0,305.0 393.0,305.0 394.0,305.0 395.0,305.0 396.0,305.0 397.0,305.0 398.0,305.0 399.0,305.0 400.0,305.0 401.0,305.0 402.0,305.0 403.0,305.0 404.0,305.0 405.0,305.0 406.0,305.0 407.0,305.0 408.0,305.0 409.0,305.0 410.0,305.0 411.0,305.0 412.0,305.0 413.0,305.0 414.0,305.0 415.0,305.0 416.0,305.0 417.0,305.0 418.0,305.0 419.0,305.0 420.0,305.0 421.0,305.0 422.0,305.0 423.0,305.0 424.0,305.0 425.0,305.0 426.0,305.0 427.0,305.0 428.0,305.0 429.0,305.0 430.0,305.0 431.0,305.0 432.0,305.0 433.0,305.0 434.0,305.0 435.0,305.0 436.0,305.0 437.0,305.0 438.0,305.0 439.0,305.0 440.0,305.0 441.0,305.0 442.0,305.0 443.0,305.0 444.0,305.0 445.0,305.0 446.0,305.0 447.0,305.0 448.0,305.0 449.0,305.0 450.0,305.0 451.0,305.0 452.0,305.0 453.0,305.0 454.0,305.0 455.0,305.0 456.0,305.0 457.0,305.0 458.0,305.0 459.0,305.0 460.0,305.0 461.0,305.0 462.0,305.0 463.0,305.0 464.0,305.0 465.0,305.0 466.0,305.0 467.0,305.0 468.0,305.0 469.0,305.0 470.0,305.0 471.0,305.0 472.0,305.0 473.0,305.0 474.0,305.0 475.0,305.0 476.0,305.0 477.0,305.0 478.0,305.0 479.0,305.0 480.0,305.0 481.0,305.0 482.0,305.0 483.0,305.0 484.0,305.0 485.0,305.0 486.0,305.0 487.0,305.0 488.0,305.0 489.0,305.0 490.0,305.0 491.0,305.0 492.0,305.0 493.0,305.0 494.0,305.0 495.0,305.0 496.0,305.0 497.0,305.0 498.0,305.0 499.0,305.0 500.0,305.0 501.0,305.0 502.0,305.0 503.0,305.0 504.0,305.0 505.0,305.0 506.0,305.0 507.0,305.0 508.0,305.0 509.0,305.0 510.0,305.0 511.0,305.0 512.0,305.0 513.0,305.0 514.0,305.0 515.0,305.0 516.0,305.0 517.0,305.0 518.0,305.0 519.0,305.0 520.0,305.0 521.0,305.0 522.0,305.0 523.0,305.0 524.0,305.0 525.0,305.0 526.0,305.0 527.0,305.0 528.0,305.0 529.0,305.0 530.0,305.0 531.0,305.0 532.0,305.0 533.0,305.0 534.0,305.0 535.0,305.0 536.0,305.0 537.0,304.0 538.0,305.0 539.0,304.0 540.0,304.0 541.0,304.0 542.0,304.0 543.0,304.0 544.0,304.0 545.0,304.0 546.0,304.0 547.0,304.0 548.0,304.0 549.0,304.0 550.0,304.0 551.0,304.0 552.0,304.0 553.0,304.0 554.0,304.0 555.0,304.0 556.0,304.0 557.0,304.0 558.0,304.0 559.0,304.0 560.0,304.0 561.0,303.0 562.0,303.0 563.0,303.0 564.0,303.0 565.0,303.0 566.0,303.0 567.0,303.0 568.0,303.0 569.0,303.0 570.0,302.0 571.0,302.0 572.0,302.0 573.0,302.0 574.0,302.0 575.0,302.0 576.0,301.0 577.0,302.0 578.0,301.0 579.0,301.0 580.0,301.0 581.0,301.0 582.0,300.0 583.0,300.0 584.0,300.0 585.0,300.0 586.0,300.0 587.0,299.0 588.0,299.0 589.0,298.0 590.0,299.0 591.0,298.0 592.0,298.0 593.0,297.0 594.0,297.0 595.0,296.0 596.0,297.0 597.0,295.0 598.0,296.0 599.0,294.0 600.0,295.0 601.0,292.0 602.0,294.0 603.0,292.0 604.0,292.0 605.0,290.0 606.0,292.0 607.0,289.0 608.0,290.0 609.0,288.0 610.0,289.0 611.0,285.0 612.0,287.0 613.0,284.0 614.0,283.0 615.0,283.0 616.0,283.0 617.0,279.0 618.0,280.0 619.0,277.0 620.0,278.0 621.0,275.0 622.0,275.0 623.0,272.0 624.0,271.0 625.0,268.0 626.0,270.0 627.0,262.0 628.0,265.0 629.0,261.0 630.0,260.0 631.0,254.0 632.0,259.0 633.0,248.0 634.0,253.0 635.0,243.0 636.0,247.0 637.0,239.0 638.0,236.0 639.0,230.0 640.0,233.0 641.0,219.0 642.0,224.0 643.0,210.0 644.0,218.0 645.0,207.0 646.0,203.0 647.0,192.0 648.0,192.0 649.0,188.0 650.0,173.0 651.0,187.0 652.0,158.0 653.0,159.0 654.0,138.0 655.0,155.0 656.0,119.0 657.0,118.0 658.0,96.0 659.0,118.0 660.0,76.0 661.0,94.0 662.0,51.0 663.0,67.0 664.0,50.0 665.0,43.0 666.0,13.0" fill="none" stroke="#aeeeee" />
	<polyline points="67.0,305.0 68.0,305.0 69.0,305.0 70.0,305.0 71.0,305.0 72.0,305.0 73.0,305.0 74.0,305.0 75.0,305.0 76.0,305.0 77.0,305.0 78.0,305.0 79.0,305.0 80.0,305.0 81.0,305.0 82.0,305.0 83.0,305.0 84.0,305.0 85.0,305.0 86.0,305.0 87.0,305.0 88.0,305.0 89.0,305.0 90.0,305.0 91.0,305.0 92.0,305.0 93.0,305.0 94.0,305.0 95.0,305.0 96.0,305.0 97.0,305.0 98.0,305.0 99.0,305.0 100.0,305.0 101.0,305.0 102.0,305.0 103.0,305.0 104.0,305.0 105.0,305.0 106.0,305.0 107.0,305.0 108.0,305.0 109.0,305.0 110.0,305.0 111.0,305.0 112.0,305.0 113.0,305.0 114.0,305.0 115.0,305.0 116.0,305.0 117.0,305.0 118.0,305.0 119.0,305.0 120.0,305.0 121.0,305.0 122.0,305.0 123.0,305.0 124.0,305.0 125.0,305.0 126.0,305.0 127.0,305.0 128.0,305.0 129.0,305.0 130.0,305.0 131.0,305.0 132.0,305.0 133.0,305.0 134.0,305.0 135.0,305.0 136.0,305.0 137.0,305.0 138.0,305.0 139.0,305.0 140.0,305.0 141.0,305.0 142.0,305.0 143.0,305.0 144.0,305.0 145.0,305.0 146.0,305.0 147.0,305.0 148.0,305.0 149.0,305.0 150.0,305.0 151.0,305.0 152.0,305.0 153.0,305.0 154.0,305.0 155.0,305.0 156.0,305.0 157.0,305.0 158.0,305.0 159.0,305.0 160.0,305.0 161.0,305.0 162.0,305.0 163.0,305.0 164.0,305.0 165.0,305.0 166.0,305.0 167.0,305.0 168.0,305.0 169.0,305.0 170.0,305.0 171.0,305.0 172.0,305.0 173.0,305.0 174.0,305.0 175.0,305.0 176.0,305.0 177.0,305.0 178.0,305.0 179.0,305.0 180.0,305.0 181.0,305.0 182.0,305.0 183.0,305.0 184.0,305.0 185.0,305.0 186.0,305.0 187.0,305.0 188.0,305.0 189.0,305.0 190.0,305.0 191.0,305.0 192.0,305.0 193.0,305.0 194.0,305.0 195.0,305.0 196.0,305.0 197.0,305.0 198.0,305.0 199.0,305.0 200.0,305.0 201.0,305.0 202.0,305.0 203.0,305.0 204.0,305.0 205.0,305.0 206.0,305.0 207.0,305.0 208.0,305.0 209.0,305.0 210.0,305.0 211.0,305.0 212.0,305.0 213.0,305.0 214.0,305.0 215.0,305.0 216.0,305.0 217.0,305.0 218.0,305.0 219.0,305.0 220.0,305.0 221.0,305.0 222.0,305.0 223.0,305.0 224.0,305.0 225.0,305.0 226.0,305.0 227.0,305.0 228.0,305.0 229.0,305.0 230.0,305.0 231.0,305.0 232.0,305.0 233.0,305.0 234.0,305.0 235.0,305.0 236.0,305.0 237.0,305.0 238.0,305.0 239.0,305.0 240.0,305.0 241.0,305.0 242.0,305.0 243.0,305.0 244.0,305.0 245.0,305.0 246.0,305.0 247.0,305.0 248.0,305.0 249.0,305.0 250.0,305.0 251.0,305.0 252.0,305.0 253.0,305.0 254.0,305.0 255.0,305.0 256.0,305.0 257.0,305.0 258.0,305.0 259.0,305.0 260.0,305.0 261.0,305.0 262.0,305.0 263.0,305.0 264.0,305.0 265.0,305.0 266.0,305.0 267.0,305.0 268.0,305.0 269.0,305.0 270.0,305.0 271.0,305.0 272.0,305.0 273.0,305.0 274.0,305.0 275.0,305.0 276.0,305.0 277.0,305.0 278.0,305.0 279.0,305.0 280.0,305.0 281.0,305.0 282.0,305.0 283.0,305.0 284.0,305.0 285.0,305.0 286.0,305.0 287.0,305.0 288.0,305.0 289.0,305.0 290.0,305.0 291.0,305.0 292.0,305.0 293.0,305.0 294.0,305.0 295.0,305.0 296.0,305.0 297.0,305.0 298.0,305.0 299.0,305.0 300.0,305.0 301.0,305.0 302.0,305.0 303.0,305.0 304.0,305.0 305.0,305.0 306.0,305.0 307.0,305.0 308.0,305.0 309.0,305.0 310.0,305.0 311.0,305.0 312.0,305.0 313.0,305.0 314.0,305.0 315.0,305.0 316.0,305.0 317.0,305.0 318.0,305.0 319.0,305.0 320.0,305.0 321.0,305.0 322.0,305.0 323.0,305.0 324.0,305.0 325.0,305.0 326.0,305.0 327.0,305.0 328.0,305.0 329.0,305.0 330.0,305.0 331.0,305.0 332.0,305.0 333.0,305.0 334.0,305.0 335.0,305.0 336.0,305.0 337.0,305.0 338.0,305.0 339.0,305.0 340.0,305.0 341.0,305.0 342.0,305.0 343.0,305.0 344.0,305.0 345.0,305.0 346.0,305.0 347.0,305.0 348.0,305.0 349.0,305.0 350.0,305.0 351.0,305.0 352.0,305.0 353.0,305.0 354.0,305.0 355.0,305.0 356.0,305.0 357.0,305.0 358.0,305.0 359.0,305.0 360.0,305.0 361.0,305.0 362.0,305.0 363.0,305.0 364.0,305.0 365.0,305.0 366.0,305.0 367.0,305.0 368.0,305.0 369.0,305.0 370.0,305.0 371.0,305.0 372.0,305.0 373.0,305.0 374.0,305.0 375.0,305.0 376.0,305.0 377.0,305.0 378.0,305.0 379.0,305.0 380.0,305.0 381.0,305.0 382.0,305.0 383.0,305.0 384.0,305.0 385.0,305.0 386.0,305.0 387.0,305.0 388.0,305.0 389.0,305.0 390.0,305.0 391.0,305.0 392.0,305.0 393.0,305.0 394.0,305.0 395.0,305.0 396.0,305.0 397.0,305.0 398.0,305.0 399.0,305.0 400.0,305.0 401.0,305.0 402.0,305.0 403.0,305.0 404.0,305.0 405.0,305.0 406.0,305.0 407.0,305.0 408.0,305.0 409.0,305.0 410.0,305.0 411.0,305.0 412.0,305.0 413.0,305.0 414.0,305.0 415.0,305.0 416.0,305.0 417.0,305.0 418.0,305.0 419.0,305.0 420.0,305.0 421.0,305.0 422.0,305.0 423.0,305.0 424.0,305.0 425.0,305.0 426.0,305.0 427.0,305.0 428.0,305.0 429.0,305.0 430.0,305.0 431.0,305.0 432.0,305.0 433.0,305.0 434.0,305.0 435.0,305.0 436.0,305.0 437.0,305.0 438.0,305.0 439.0,305.0 440.0,305.0 441.0,305.0 442.0,305.0 443.0,305.0 444.0,305.0 445.0,305.0 446.0,305.0 447.0,305.0 448.0,305.0 449.0,305.0 450.0,305.0 451.0,305.0 452.0,305.0 453.0,305.0 454.0,305.0 455.0,305.0 456.0,305.0 457.0,305.0 458.0,305.0 459.0,305.0 460.0,305.0 461.0,305.0 462.0,305.0 463.0,305.0 464.0,305.0 465.0,305.0 466.0,305.0 467.0,305.0 468.0,305.0 469.0,305.0 470.0,305.0 471.0,305.0 472.0,305.0 473.0,305.0 474.0,305.0 475.0,305.0 476.0,305.0 477.0,305.0 478.0,305.0 479.0,305.0 480.0,305.0 481.0,305.0 482.0,305.0 483.0,305.0 484.0,305.0 485.0,305.0 486.0,305.0 487.0,305.0 488.0,305.0 489.0,305.0 490.0,305.0 491.0,305.0 492.0,305.0 493.0,305.0 494.0,305.0 495.0,305.0 496.0,305.0 497.0,305.0 498.0,305.0 499.0,305.0 500.0,305.0 501.0,305.0 502.0,305.0 503.0,305.0 504.0,305.0 505.0,305.0 506.0,305.0 507.0,305.0 508.0,305.0 509.0,305.0 510.0,305.0 511.0,305.0 512.0,305.0 513.0,305.0 514.0,305.0 515.0,305.0 516.0,305.0 517.0,305.0 518.0,305.0 519.0,305.0 520.0,305.0 521.0,305.0 522.0,305.0 523.0,305.0 524.0,305.0 525.0,305.0 526.0,305.0 527.0,305.0 528.0,305.0 529.0,305.0 530.0,305.0 531.0,305.0 532.0,305.0 533.0,305.0 534.0,305.0 535.0,305.0 536.0,305.0 537.0,305.0 538.0,305.0 539.0,305.0 540.0,305.0 541.0,305.0 542.0,305.0 543.0,305.0 544.0,305.0 545.0,305.0 546.0,305.0 547.0,305.0 548.0,305.0 549.0,305.0 550.0,305.0 551.0,305.0 552.0,305.0 553.0,305.0 554.0,305.0 555.0,305.0 556.0,305.0 557.0,305.0 558.0,305.0 559.0,305.0 560.0,304.0 561.0,305.0 562.0,304.0 563.0,304.0 564.0,304.0 565.0,304.0 566.0,304.0 567.0,304.0 568.0,304.0 569.0,304.0 570.0,304.0 571.0,304.0 572.0,304.0 573.0,304.0 574.0,304.0 575.0,304.0 576.0,304.0 577.0,304.0 578.0,304.0 579.0,304.0 580.0,303.0 581.0,303.0 582.0,303.0 583.0,303.0 584.0,303.0 585.0,303.0 586.0,303.0 587.0,303.0 588.0,303.0 589.0,302.0 590.0,302.0 591.0,302.0 592.0,302.0 593.0,302.0 594.0,302.0 595.0,301.0 596.0,302.0 597.0,301.0 598.0,301.0 599.0,300.0 600.0,300.0 601.0,299.0 602.0,299.0 603.0,298.0 604.0,298.0 605.0,298.0 606.0,298.0 607.0,296.0 608.0,296.0 609.0,295.0 610.0,294.0 611.0,293.0 612.0,293.0 613.0,291.0 614.0,291.0 615.0,289.0 616.0,289.0 617.0,288.0 618.0,285.0 619.0,286.0 620.0,283.0 621.0,283.0 622.0,280.0 623.0,280.0 624.0,278.0 625.0,277.0 626.0,275.0 627.0,272.0 628.0,273.0 629.0,270.0 630.0,268.0 631.0,262.0 632.0,264.0 633.0,263.0 634.0,259.0 635.0,255.0 636.0,259.0 637.0,249.0 638.0,248.0 639.0,245.0 640.0,242.0 641.0,243.0 642.0,226.0 643.0,237.0 644.0,215.0 645.0,230.0 646.0,207.0 647.0,223.0 648.0,192.0 649.0,207.0 650.0,184.0 651.0,188.0 652.0,174.0 653.0,181.0 654.0,155.0 655.0,170.0 656.0,114.0 657.0,153.0 658.0,122.0 659.0,135.0 660.0,119.0 661.0,116.0 662.0,95.0 663.0,118.0 664.0,69.0 665.0,100.0 666.0,78.0" fill="none" stroke="#00ffff" />
	<polyline points="67.0,5.0 667.0,5.0" fill="none" stroke="#6d6d6d" />
	<polyline points="67.0,305.0 667.0,305.0" fill="none" stroke="#6d6d6d" />
	<polyline points="67.0,305.0 67.0,310.0" fill="none" stroke="#6d6d6d" />
	<polyline points="217.0,305.0 217.0,310.0" fill="none" stroke="#6d6d6d" />
	<polyline points="367.0,305.0 367.0,310.0" fill="none" stroke="#6d6d6d" />
	<polyline points="517.0,305.0 517.0,310.0" fill="none" stroke="#6d6d6d" />
	<polyline points="667.0,305.0 667.0,310.0" fill="none" stroke="#6d6d6d" />
	<polyline points="67.0,5.0 67.0,305.0" fill="none" stroke="#6d6d6d" />
	<polyline points="667.0,5.0 667.0,305.0" fill="none" stroke="#6d6d6d" />
	<polyline points="62.0,5.0 67.0,5.0" fill="none" stroke="#6d6d6d" />
	<polyline points="62.0,80.0 67.0,80.0" fill="none" stroke="#6d6d6d" />
	<polyline points="62.0,155.0 67.0,155.0" fill="none" stroke="#6d6d6d" />
	<polyline points="62.0,230.0 67.0,230.0" fill="none" stroke="#6d6d6d" />
	<polyline points="62.0,305.0 67.0,305.0" fill="none" stroke="#6d6d6d" />
	<text x="67.0" y="323.0" fill="#6d6d6d" font-family="Arial" font-size="9pt" text-anchor="middle">1</text>
	<text x="217.0" y="323.0" fill="#6d6d6d" font-family="Arial" font-size="9pt" text-anchor="middle">150</text>
	<text x="367.0" y="323.0" fill="#6d6d6d" font-family="Arial" font-size="9pt" text-anchor="middle">300</text>
	<text x="517.0" y="323.0" fill="#6d6d6d" font-family="Arial" font-size="9pt" text-anchor="middle">450</text>
	<text x="667.0" y="323.0" fill="#6d6d6d" font-family="Arial" font-size="9pt" text-anchor="middle">600</text>
	<text x="57.0" y="9.0" fill="#6d6d6d" font-family="Arial" font-size="9pt" text-anchor="end">1.82e+16</text>
	<text x="57.0" y="84.0" fill="#6d6d6d" font-family="Arial" font-size="9pt" text-anchor="end">1.37e+16</text>
	<text x="57.0" y="159.0" fill="#6d6d6d" font-family="Arial" font-size="9pt" text-anchor="end">9.1e+15</text>
	<text x="57.0" y="234.0" fill="#6d6d6d" font-family="Arial" font-size="9pt" text-anchor="end">4.55e+15</text>
	<text x="57.0" y="309.0" fill="#6d6d6d" font-family="Arial" font-size="9pt" text-anchor="end">0</text>
</svg>
