<?xml version="1.0" encoding="UTF-8" standalone="no"?>
<!DOCTYPE svg PUBLIC "-//W3C//DTD SVG 1.1//EN" "http://www.w3.org/Graphics/SVG/1.1/DTD/svg11.dtd">
<svg xmlns="http://www.w3.org/2000/svg"  version="1.1" width="695.0" height="380.0" viewBox="-6.0 -12.0 689.0 368.0">
	<desc>LSD Plot - Sim_10c</desc>
	<polyline points="207.0,6.0 207.0,304.0" fill="none" stroke="#f0f0f0" />
	<polyline points="357.0,6.0 357.0,304.0" fill="none" stroke="#f0f0f0" />
	<polyline points="507.0,6.0 507.0,304.0" fill="none" stroke="#f0f0f0" />
	<polyline points="58.0,80.0 656.0,80.0" fill="none" stroke="#f0f0f0" />
	<polyline points="58.0,155.0 656.0,155.0" fill="none" stroke="#f0f0f0" />
	<polyline points="58.0,230.0 656.0,230.0" fill="none" stroke="#f0f0f0" />
	<text x="5.0" y="345.0" font-family="Arial" font-size="9pt">L_1</text>
	<text x="31.0" y="345.0" fill="#ff0000" font-family="Arial" font-size="9pt">L_2</text>
	<text x="57.0" y="345.0" fill="#008000" font-family="Arial" font-size="9pt">L_3</text>
	<text x="83.0" y="345.0" fill="#d0d000" font-family="Arial" font-size="9pt">L_4</text>
	<text x="109.0" y="345.0" fill="#fb46bc" font-family="Arial" font-size="9pt">L_5</text>
	<text x="135.0" y="345.0" fill="#0000ff" font-family="Arial" font-size="9pt">L_6</text>
	<text x="161.0" y="345.0" fill="#00bfff" font-family="Arial" font-size="9pt">L_7</text>
	<text x="187.0" y="345.0" fill="#4876ff" font-family="Arial" font-size="9pt">L_8</text>
	<text x="213.0" y="345.0" fill="#aeeeee" font-family="Arial" font-size="9pt">L_9</text>
	<text x="239.0" y="345.0" fill="#00ffff" font-family="Arial" font-size="9pt">L_10</text>
	<polyline points="57.0,41.0 58.0,12.0 59.0,37.0 60.0,15.0 61.0,33.0 62.0,16.0 63.0,29.0 64.0,16.0 65.0,25.0 66.0,16.0 67.0,22.0 68.0,15.0 69.0,19.0 70.0,14.0 71.0,18.0 72.0,15.0 73.0,18.0 74.0,18.0 75.0,21.0 76.0,20.0 77.0,24.0 78.0,23.0 79.0,24.0 80.0,26.0 81.0,26.0 82.0,29.0 83.0,28.0 84.0,31.0 85.0,31.0 86.0,31.0 87.0,33.0 88.0,35.0 89.0,33.0 90.0,34.0 91.0,37.0 92.0,39.0 93.0,36.0 94.0,40.0 95.0,40.0 96.0,43.0 97.0,43.0 98.0,44.0 99.0,44.0 100.0,47.0 101.0,45.0 102.0,47.0 103.0,46.0 104.0,49.0 105.0,47.0 106.0,49.0 107.0,48.0 108.0,47.0 109.0,47.0 110.0,48.0 111.0,45.0 112.0,48.0 113.0,44.0 114.0,47.0 115.0,46.0 116.0,46.0 117.0,46.0 118.0,48.0 119.0,49.0 120.0,48.0 121.0,48.0 122.0,48.0 123.0,46.0 124.0,47.0 125.0,48.0 126.0,46.0 127.0,47.0 128.0,44.0 129.0,47.0 130.0,42.0 131.0,47.0 132.0,45.0 133.0,46.0 134.0,46.0 135.0,48.0 136.0,47.0 137.0,49.0 138.0,51.0 139.0,53.0 140.0,55.0 141.0,57.0 142.0,60.0 143.0,61.0 144.0,65.0 145.0,67.0 146.0,69.0 147.0,71.0 148.0,71.0 149.0,71.0 150.0,77.0 151.0,75.0 152.0,78.0 153.0,77.0 154.0,81.0 155.0,80.0 156.0,79.0 157.0,81.0 158.0,80.0 159.0,85.0 160.0,80.0 161.0,81.0 162.0,82.0 163.0,80.0 164.0,81.0 165.0,80.0 166.0,80.0 167.0,82.0 168.0,82.0 169.0,82.0 170.0,83.0 171.0,87.0 172.0,84.0 173.0,88.0 174.0,87.0 175.0,90.0 176.0,86.0 177.0,89.0 178.0,90.0 179.0,85.0 180.0,88.0 181.0,85.0 182.0,84.0 183.0,83.0 184.0,78.0 185.0,81.0 186.0,75.0 187.0,77.0 188.0,72.0 189.0,73.0 190.0,70.0 191.0,73.0 192.0,70.0 193.0,70.0 194.0,68.0 195.0,67.0 196.0,67.0 197.0,63.0 198.0,66.0 199.0,60.0 200.0,63.0 201.0,59.0 202.0,61.0 203.0,61.0 204.0,59.0 205.0,60.0 206.0,63.0 207.0,61.0 208.0,66.0 209.0,64.0 210.0,66.0 211.0,66.0 212.0,67.0 213.0,67.0 214.0,69.0 215.0,69.0 216.0,72.0 217.0,72.0 218.0,76.0 219.0,78.0 220.0,77.0 221.0,82.0 222.0,79.0 223.0,81.0 224.0,84.0 225.0,84.0 226.0,85.0 227.0,86.0 228.0,87.0 229.0,87.0 230.0,87.0 231.0,91.0 232.0,87.0 233.0,92.0 234.0,90.0 235.0,92.0 236.0,92.0 237.0,93.0 238.0,95.0 239.0,95.0 240.0,95.0 241.0,97.0 242.0,96.0 243.0,97.0 244.0,97.0 245.0,98.0 246.0,98.0 247.0,97.0 248.0,99.0 249.0,99.0 250.0,100.0 251.0,101.0 252.0,102.0 253.0,104.0 254.0,104.0 255.0,107.0 256.0,109.0 257.0,109.0 258.0,113.0 259.0,111.0 260.0,115.0 261.0,112.0 262.0,115.0 263.0,114.0 264.0,112.0 265.0,114.0 266.0,112.0 267.0,111.0 268.0,111.0 269.0,112.0 270.0,111.0 271.0,112.0 272.0,113.0 273.0,115.0 274.0,115.0 275.0,115.0 276.0,118.0 277.0,116.0 278.0,116.0 279.0,119.0 280.0,114.0 281.0,118.0 282.0,119.0 283.0,119.0 284.0,119.0 285.0,120.0 286.0,122.0 287.0,123.0 288.0,123.0 289.0,129.0 290.0,124.0 291.0,128.0 292.0,129.0 293.0,131.0 294.0,130.0 295.0,132.0 296.0,129.0 297.0,135.0 298.0,133.0 299.0,135.0 300.0,135.0 301.0,137.0 302.0,141.0 303.0,139.0 304.0,138.0 305.0,144.0 306.0,144.0 307.0,144.0 308.0,148.0 309.0,150.0 310.0,145.0 311.0,155.0 312.0,148.0 313.0,155.0 314.0,152.0 315.0,153.0 316.0,155.0 317.0,154.0 318.0,158.0 319.0,155.0 320.0,160.0 321.0,160.0 322.0,162.0 323.0,162.0 324.0,166.0 325.0,165.0 326.0,170.0 327.0,169.0 328.0,168.0 329.0,170.0 330.0,173.0 331.0,170.0 332.0,175.0 333.0,171.0 334.0,171.0 335.0,172.0 336.0,168.0 337.0,165.0 338.0,166.0 339.0,162.0 340.0,159.0 341.0,162.0 342.0,156.0 343.0,158.0 344.0,161.0 345.0,159.0 346.0,162.0 347.0,162.0 348.0,163.0 349.0,164.0 350.0,168.0 351.0,168.0 352.0,170.0 353.0,176.0 354.0,173.0 355.0,181.0 356.0,180.0 357.0,182.0 358.0,185.0 359.0,192.0 360.0,187.0 361.0,193.0 362.0,195.0 363.0,197.0 364.0,199.0 365.0,198.0 366.0,202.0 367.0,199.0 368.0,203.0 369.0,204.0 370.0,203.0 371.0,205.0 372.0,207.0 373.0,205.0 374.0,208.0 375.0,204.0 376.0,207.0 377.0,205.0 378.0,205.0 379.0,204.0 380.0,205.0 381.0,208.0 382.0,207.0 383.0,207.0 384.0,208.0 385.0,208.0 386.0,208.0 387.0,207.0 388.0,208.0 389.0,205.0 390.0,210.0 391.0,206.0 392.0,210.0 393.0,203.0 394.0,209.0 395.0,203.0 396.0,203.0 397.0,206.0 398.0,200.0 399.0,203.0 400.0,200.0 401.0,199.0 402.0,200.0 403.0,195.0 404.0,199.0 405.0,192.0 406.0,199.0 407.0,191.0 408.0,196.0 409.0,194.0 410.0,192.0 411.0,193.0 412.0,193.0 413.0,190.0 414.0,188.0 415.0,190.0 416.0,188.0 417.0,187.0 418.0,186.0 419.0,185.0 420.0,186.0 421.0,185.0 422.0,185.0 423.0,183.0 424.0,188.0 425.0,183.0 426.0,191.0 427.0,182.0 428.0,189.0 429.0,185.0 430.0,190.0 431.0,189.0 432.0,191.0 433.0,188.0 434.0,190.0 435.0,187.0 436.0,188.0 437.0,189.0 438.0,184.0 439.0,189.0 440.0,188.0 441.0,186.0 442.0,186.0 443.0,186.0 444.0,186.0 445.0,183.0 446.0,185.0 447.0,184.0 448.0,183.0 449.0,184.0 450.0,181.0 451.0,183.0 452.0,181.0 453.0,179.0 454.0,180.0 455.0,174.0 456.0,178.0 457.0,175.0 458.0,172.0 459.0,172.0 460.0,170.0 461.0,170.0 462.0,167.0 463.0,171.0 464.0,166.0 465.0,168.0 466.0,169.0 467.0,169.0 468.0,166.0 469.0,172.0 470.0,166.0 471.0,170.0 472.0,170.0 473.0,166.0 474.0,171.0 475.0,167.0 476.0,169.0 477.0,170.0 478.0,168.0 479.0,173.0 480.0,175.0 481.0,174.0 482.0,177.0 483.0,180.0 484.0,184.0 485.0,183.0 486.0,189.0 487.0,191.0 488.0,195.0 489.0,194.0 490.0,198.0 491.0,196.0 492.0,202.0 493.0,202.0 494.0,203.0 495.0,206.0 496.0,209.0 497.0,208.0 498.0,213.0 499.0,210.0 500.0,212.0 501.0,210.0 502.0,212.0 503.0,216.0 504.0,215.0 505.0,216.0 506.0,221.0 507.0,222.0 508.0,225.0 509.0,227.0 510.0,230.0 511.0,226.0 512.0,229.0 513.0,226.0 514.0,229.0 515.0,224.0 516.0,225.0 517.0,226.0 518.0,222.0 519.0,225.0 520.0,217.0 521.0,224.0 522.0,225.0 523.0,220.0 524.0,226.0 525.0,221.0 526.0,223.0 527.0,223.0 528.0,225.0 529.0,224.0 530.0,221.0 531.0,227.0 532.0,223.0 533.0,225.0 534.0,229.0 535.0,225.0 536.0,229.0 537.0,229.0 538.0,228.0 539.0,225.0 540.0,231.0 541.0,230.0 542.0,230.0 543.0,231.0 544.0,229.0 545.0,233.0 546.0,228.0 547.0,232.0 548.0,229.0 549.0,228.0 550.0,228.0 551.0,229.0 552.0,227.0 553.0,224.0 554.0,228.0 555.0,226.0 556.0,226.0 557.0,223.0 558.0,224.0 559.0,221.0 560.0,220.0 561.0,222.0 562.0,218.0 563.0,224.0 564.0,215.0 565.0,221.0 566.0,221.0 567.0,217.0 568.0,219.0 569.0,220.0 570.0,217.0 571.0,219.0 572.0,218.0 573.0,215.0 574.0,216.0 575.0,215.0 576.0,214.0 577.0,221.0 578.0,208.0 579.0,220.0 580.0,215.0 581.0,215.0 582.0,215.0 583.0,216.0 584.0,216.0 585.0,212.0 586.0,216.0 587.0,208.0 588.0,215.0 589.0,209.0 590.0,213.0 591.0,209.0 592.0,212.0 593.0,210.0 594.0,211.0 595.0,212.0 596.0,210.0 597.0,210.0 598.0,210.0 599.0,212.0 600.0,212.0 601.0,213.0 602.0,213.0 603.0,216.0 604.0,217.0 605.0,218.0 606.0,219.0 607.0,220.0 608.0,221.0 609.0,224.0 610.0,223.0 611.0,226.0 612.0,228.0 613.0,227.0 614.0,231.0 615.0,230.0 616.0,234.0 617.0,234.0 618.0,237.0 619.0,235.0 620.0,240.0 621.0,239.0 622.0,243.0 623.0,241.0 624.0,244.0 625.0,244.0 626.0,249.0 627.0,246.0 628.0,251.0 629.0,250.0 630.0,255.0 631.0,253.0 632.0,258.0 633.0,256.0 634.0,256.0 635.0,258.0 636.0,258.0 637.0,260.0 638.0,260.0 639.0,262.0 640.0,261.0 641.0,265.0 642.0,259.0 643.0,264.0 644.0,258.0 645.0,263.0 646.0,257.0 647.0,263.0 648.0,255.0 649.0,259.0 650.0,253.0 651.0,259.0 652.0,251.0 653.0,254.0 654.0,249.0 655.0,249.0 656.0,247.0" fill="none" stroke="#000000" />
	<polyline points="57.0,41.0 58.0,13.0 59.0,38.0 60.0,17.0 61.0,36.0 62.0,19.0 63.0,33.0 64.0,21.0 65.0,30.0 66.0,21.0 67.0,27.0 68.0,21.0 69.0,26.0 70.0,22.0 71.0,26.0 72.0,23.0 73.0,30.0 74.0,28.0 75.0,34.0 76.0,35.0 77.0,38.0 78.0,40.0 79.0,42.0 80.0,43.0 81.0,45.0 82.0,45.0 83.0,45.0 84.0,46.0 85.0,45.0 86.0,48.0 87.0,46.0 88.0,47.0 89.0,46.0 90.0,46.0 91.0,46.0 92.0,45.0 93.0,42.0 94.0,44.0 95.0,41.0 96.0,43.0 97.0,42.0 98.0,42.0 99.0,39.0 100.0,41.0 101.0,39.0 102.0,42.0 103.0,40.0 104.0,40.0 105.0,38.0 106.0,42.0 107.0,39.0 108.0,42.0 109.0,41.0 110.0,41.0 111.0,41.0 112.0,42.0 113.0,43.0 114.0,41.0 115.0,43.0 116.0,42.0 117.0,44.0 118.0,41.0 119.0,44.0 120.0,41.0 121.0,41.0 122.0,42.0 123.0,39.0 124.0,42.0 125.0,41.0 126.0,44.0 127.0,41.0 128.0,45.0 129.0,45.0 130.0,43.0 131.0,55.0 132.0,41.0 133.0,57.0 134.0,52.0 135.0,61.0 136.0,57.0 137.0,66.0 138.0,64.0 139.0,69.0 140.0,71.0 141.0,74.0 142.0,74.0 143.0,81.0 144.0,77.0 145.0,82.0 146.0,80.0 147.0,84.0 148.0,85.0 149.0,89.0 150.0,88.0 151.0,93.0 152.0,93.0 153.0,95.0 154.0,92.0 155.0,98.0 156.0,90.0 157.0,97.0 158.0,95.0 159.0,94.0 160.0,93.0 161.0,99.0 162.0,93.0 163.0,96.0 164.0,94.0 165.0,95.0 166.0,92.0 167.0,95.0 168.0,91.0 169.0,93.0 170.0,93.0 171.0,90.0 172.0,91.0 173.0,88.0 174.0,86.0 175.0,86.0 176.0,86.0 177.0,79.0 178.0,81.0 179.0,79.0 180.0,76.0 181.0,79.0 182.0,76.0 183.0,75.0 184.0,76.0 185.0,75.0 186.0,74.0 187.0,73.0 188.0,73.0 189.0,76.0 190.0,71.0 191.0,74.0 192.0,72.0 193.0,73.0 194.0,69.0 195.0,71.0 196.0,72.0 197.0,68.0 198.0,74.0 199.0,71.0 200.0,73.0 201.0,74.0 202.0,75.0 203.0,79.0 204.0,77.0 205.0,86.0 206.0,83.0 207.0,88.0 208.0,88.0 209.0,91.0 210.0,90.0 211.0,94.0 212.0,91.0 213.0,94.0 214.0,94.0 215.0,91.0 216.0,96.0 217.0,97.0 218.0,96.0 219.0,98.0 220.0,99.0 221.0,98.0 222.0,98.0 223.0,99.0 224.0,95.0 225.0,100.0 226.0,92.0 227.0,96.0 228.0,95.0 229.0,93.0 230.0,95.0 231.0,92.0 232.0,92.0 233.0,93.0 234.0,91.0 235.0,92.0 236.0,90.0 237.0,91.0 238.0,89.0 239.0,90.0 240.0,88.0 241.0,92.0 242.0,87.0 243.0,88.0 244.0,90.0 245.0,85.0 246.0,89.0 247.0,87.0 248.0,90.0 249.0,89.0 250.0,89.0 251.0,89.0 252.0,91.0 253.0,90.0 254.0,93.0 255.0,93.0 256.0,90.0 257.0,94.0 258.0,91.0 259.0,94.0 260.0,92.0 261.0,96.0 262.0,91.0 263.0,95.0 264.0,94.0 265.0,92.0 266.0,93.0 267.0,95.0 268.0,91.0 269.0,94.0 270.0,95.0 271.0,93.0 272.0,91.0 273.0,93.0 274.0,91.0 275.0,91.0 276.0,86.0 277.0,91.0 278.0,84.0 279.0,85.0 280.0,84.0 281.0,83.0 282.0,79.0 283.0,82.0 284.0,78.0 285.0,80.0 286.0,78.0 287.0,83.0 288.0,76.0 289.0,81.0 290.0,80.0 291.0,78.0 292.0,81.0 293.0,81.0 294.0,79.0 295.0,83.0 296.0,81.0 297.0,85.0 298.0,82.0 299.0,83.0 300.0,84.0 301.0,85.0 302.0,80.0 303.0,83.0 304.0,80.0 305.0,82.0 306.0,78.0 307.0,81.0 308.0,80.0 309.0,83.0 310.0,78.0 311.0,87.0 312.0,84.0 313.0,81.0 314.0,89.0 315.0,81.0 316.0,88.0 317.0,83.0 318.0,86.0 319.0,83.0 320.0,85.0 321.0,82.0 322.0,85.0 323.0,82.0 324.0,87.0 325.0,83.0 326.0,87.0 327.0,86.0 328.0,88.0 329.0,88.0 330.0,93.0 331.0,94.0 332.0,103.0 333.0,106.0 334.0,116.0 335.0,124.0 336.0,133.0 337.0,141.0 338.0,151.0 339.0,159.0 340.0,169.0 341.0,178.0 342.0,186.0 343.0,194.0 344.0,200.0 345.0,205.0 346.0,211.0 347.0,214.0 348.0,218.0 349.0,222.0 350.0,222.0 351.0,224.0 352.0,224.0 353.0,227.0 354.0,229.0 355.0,231.0 356.0,231.0 357.0,233.0 358.0,231.0 359.0,233.0 360.0,231.0 361.0,234.0 362.0,232.0 363.0,233.0 364.0,230.0 365.0,229.0 366.0,231.0 367.0,231.0 368.0,232.0 369.0,232.0 370.0,231.0 371.0,230.0 372.0,230.0 373.0,229.0 374.0,230.0 375.0,229.0 376.0,229.0 377.0,228.0 378.0,229.0 379.0,231.0 380.0,228.0 381.0,229.0 382.0,228.0 383.0,226.0 384.0,227.0 385.0,226.0 386.0,225.0 387.0,226.0 388.0,225.0 389.0,224.0 390.0,225.0 391.0,224.0 392.0,227.0 393.0,221.0 394.0,230.0 395.0,229.0 396.0,230.0 397.0,231.0 398.0,233.0 399.0,232.0 400.0,232.0 401.0,232.0 402.0,233.0 403.0,233.0 404.0,231.0 405.0,232.0 406.0,232.0 407.0,233.0 408.0,231.0 409.0,232.0 410.0,233.0 411.0,230.0 412.0,231.0 413.0,232.0 414.0,233.0 415.0,232.0 416.0,237.0 417.0,233.0 418.0,237.0 419.0,234.0 420.0,236.0 421.0,233.0 422.0,235.0 423.0,232.0 424.0,234.0 425.0,233.0 426.0,232.0 427.0,231.0 428.0,232.0 429.0,228.0 430.0,231.0 431.0,229.0 432.0,230.0 433.0,228.0 434.0,229.0 435.0,230.0 436.0,227.0 437.0,232.0 438.0,228.0 439.0,230.0 440.0,230.0 441.0,229.0 442.0,230.0 443.0,230.0 444.0,232.0 445.0,233.0 446.0,232.0 447.0,233.0 448.0,233.0 449.0,231.0 450.0,233.0 451.0,232.0 452.0,233.0 453.0,233.0 454.0,231.0 455.0,230.0 456.0,231.0 457.0,229.0 458.0,227.0 459.0,228.0 460.0,226.0 461.0,227.0 462.0,226.0 463.0,228.0 464.0,225.0 465.0,226.0 466.0,223.0 467.0,224.0 468.0,221.0 469.0,219.0 470.0,220.0 471.0,219.0 472.0,219.0 473.0,217.0 474.0,220.0 475.0,217.0 476.0,217.0 477.0,221.0 478.0,216.0 479.0,219.0 480.0,219.0 481.0,217.0 482.0,219.0 483.0,215.0 484.0,216.0 485.0,216.0 486.0,215.0 487.0,217.0 488.0,213.0 489.0,215.0 490.0,212.0 491.0,214.0 492.0,214.0 493.0,213.0 494.0,213.0 495.0,212.0 496.0,211.0 497.0,213.0 498.0,209.0 499.0,210.0 500.0,214.0 501.0,209.0 502.0,207.0 503.0,212.0 504.0,211.0 505.0,212.0 506.0,209.0 507.0,207.0 508.0,219.0 509.0,205.0 510.0,218.0 511.0,211.0 512.0,221.0 513.0,219.0 514.0,221.0 515.0,225.0 516.0,227.0 517.0,226.0 518.0,227.0 519.0,227.0 520.0,231.0 521.0,226.0 522.0,232.0 523.0,231.0 524.0,234.0 525.0,232.0 526.0,234.0 527.0,239.0 528.0,239.0 529.0,239.0 530.0,237.0 531.0,239.0 532.0,238.0 533.0,238.0 534.0,235.0 535.0,237.0 536.0,236.0 537.0,238.0 538.0,234.0 539.0,239.0 540.0,237.0 541.0,239.0 542.0,235.0 543.0,241.0 544.0,234.0 545.0,241.0 546.0,233.0 547.0,241.0 548.0,234.0 549.0,236.0 550.0,236.0 551.0,237.0 552.0,235.0 553.0,238.0 554.0,235.0 555.0,238.0 556.0,234.0 557.0,238.0 558.0,237.0 559.0,236.0 560.0,236.0 561.0,242.0 562.0,237.0 563.0,244.0 564.0,241.0 565.0,242.0 566.0,241.0 567.0,244.0 568.0,240.0 569.0,248.0 570.0,248.0 571.0,243.0 572.0,251.0 573.0,252.0 574.0,254.0 575.0,253.0 576.0,253.0 577.0,255.0 578.0,253.0 579.0,254.0 580.0,252.0 581.0,254.0 582.0,255.0 583.0,253.0 584.0,255.0 585.0,251.0 586.0,258.0 587.0,252.0 588.0,258.0 589.0,254.0 590.0,256.0 591.0,255.0 592.0,255.0 593.0,257.0 594.0,264.0 595.0,252.0 596.0,265.0 597.0,263.0 598.0,264.0 599.0,266.0 600.0,271.0 601.0,267.0 602.0,270.0 603.0,272.0 604.0,270.0 605.0,274.0 606.0,272.0 607.0,275.0 608.0,276.0 609.0,276.0 610.0,277.0 611.0,281.0 612.0,280.0 613.0,278.0 614.0,284.0 615.0,280.0 616.0,285.0 617.0,278.0 618.0,285.0 619.0,278.0 620.0,282.0 621.0,279.0 622.0,281.0 623.0,275.0 624.0,278.0 625.0,277.0 626.0,280.0 627.0,275.0 628.0,281.0 629.0,284.0 630.0,274.0 631.0,288.0 632.0,285.0 633.0,287.0 634.0,283.0 635.0,287.0 636.0,283.0 637.0,288.0 638.0,281.0 639.0,290.0 640.0,281.0 641.0,291.0 642.0,282.0 643.0,289.0 644.0,284.0 645.0,286.0 646.0,284.0 647.0,287.0 648.0,281.0 649.0,287.0 650.0,277.0 651.0,287.0 652.0,279.0 653.0,284.0 654.0,278.0 655.0,288.0 656.0,280.0" fill="none" stroke="#ff0000" />
	<polyline points="57.0,41.0 58.0,12.0 59.0,37.0 60.0,15.0 61.0,34.0 62.0,17.0 63.0,30.0 64.0,18.0 65.0,27.0 66.0,18.0 67.0,24.0 68.0,17.0 69.0,22.0 70.0,16.0 71.0,21.0 72.0,17.0 73.0,21.0 74.0,18.0 75.0,21.0 76.0,20.0 77.0,22.0 78.0,21.0 79.0,22.0 80.0,22.0 81.0,22.0 82.0,21.0 83.0,23.0 84.0,22.0 85.0,23.0 86.0,24.0 87.0,24.0 88.0,24.0 89.0,23.0 90.0,24.0 91.0,23.0 92.0,23.0 93.0,23.0 94.0,25.0 95.0,24.0 96.0,25.0 97.0,25.0 98.0,26.0 99.0,26.0 100.0,27.0 101.0,26.0 102.0,29.0 103.0,27.0 104.0,29.0 105.0,30.0 106.0,32.0 107.0,32.0 108.0,35.0 109.0,36.0 110.0,38.0 111.0,39.0 112.0,42.0 113.0,41.0 114.0,45.0 115.0,44.0 116.0,47.0 117.0,49.0 118.0,47.0 119.0,49.0 120.0,51.0 121.0,51.0 122.0,51.0 123.0,52.0 124.0,51.0 125.0,54.0 126.0,52.0 127.0,53.0 128.0,53.0 129.0,54.0 130.0,52.0 131.0,56.0 132.0,53.0 133.0,52.0 134.0,50.0 135.0,49.0 136.0,46.0 137.0,48.0 138.0,44.0 139.0,44.0 140.0,43.0 141.0,42.0 142.0,39.0 143.0,38.0 144.0,35.0 145.0,33.0 146.0,31.0 147.0,30.0 148.0,29.0 149.0,28.0 150.0,24.0 151.0,27.0 152.0,23.0 153.0,23.0 154.0,20.0 155.0,22.0 156.0,16.0 157.0,21.0 158.0,15.0 159.0,18.0 160.0,18.0 161.0,15.0 162.0,18.0 163.0,14.0 164.0,17.0 165.0,13.0 166.0,16.0 167.0,13.0 168.0,15.0 169.0,13.0 170.0,16.0 171.0,11.0 172.0,16.0 173.0,12.0 174.0,15.0 175.0,13.0 176.0,16.0 177.0,14.0 178.0,18.0 179.0,16.0 180.0,19.0 181.0,20.0 182.0,19.0 183.0,23.0 184.0,21.0 185.0,22.0 186.0,23.0 187.0,22.0 188.0,23.0 189.0,23.0 190.0,25.0 191.0,24.0 192.0,27.0 193.0,25.0 194.0,27.0 195.0,26.0 196.0,30.0 197.0,28.0 198.0,30.0 199.0,32.0 200.0,31.0 201.0,35.0 202.0,35.0 203.0,35.0 204.0,38.0 205.0,36.0 206.0,37.0 207.0,34.0 208.0,35.0 209.0,35.0 210.0,33.0 211.0,36.0 212.0,36.0 213.0,36.0 214.0,39.0 215.0,38.0 216.0,42.0 217.0,43.0 218.0,48.0 219.0,51.0 220.0,53.0 221.0,60.0 222.0,67.0 223.0,74.0 224.0,90.0 225.0,103.0 226.0,118.0 227.0,137.0 228.0,149.0 229.0,163.0 230.0,167.0 231.0,178.0 232.0,179.0 233.0,184.0 234.0,185.0 235.0,186.0 236.0,189.0 237.0,188.0 238.0,194.0 239.0,193.0 240.0,193.0 241.0,194.0 242.0,194.0 243.0,196.0 244.0,194.0 245.0,194.0 246.0,193.0 247.0,193.0 248.0,193.0 249.0,193.0 250.0,193.0 251.0,191.0 252.0,190.0 253.0,190.0 254.0,191.0 255.0,191.0 256.0,191.0 257.0,191.0 258.0,190.0 259.0,188.0 260.0,187.0 261.0,190.0 262.0,188.0 263.0,188.0 264.0,186.0 265.0,184.0 266.0,184.0 267.0,184.0 268.0,185.0 269.0,186.0 270.0,188.0 271.0,192.0 272.0,192.0 273.0,194.0 274.0,192.0 275.0,197.0 276.0,196.0 277.0,197.0 278.0,197.0 279.0,200.0 280.0,199.0 281.0,205.0 282.0,201.0 283.0,204.0 284.0,201.0 285.0,203.0 286.0,200.0 287.0,200.0 288.0,197.0 289.0,200.0 290.0,197.0 291.0,201.0 292.0,197.0 293.0,196.0 294.0,197.0 295.0,196.0 296.0,197.0 297.0,195.0 298.0,195.0 299.0,197.0 300.0,194.0 301.0,196.0 302.0,196.0 303.0,192.0 304.0,198.0 305.0,197.0 306.0,201.0 307.0,203.0 308.0,203.0 309.0,204.0 310.0,203.0 311.0,207.0 312.0,205.0 313.0,207.0 314.0,205.0 315.0,206.0 316.0,207.0 317.0,208.0 318.0,211.0 319.0,212.0 320.0,215.0 321.0,215.0 322.0,218.0 323.0,216.0 324.0,219.0 325.0,218.0 326.0,220.0 327.0,216.0 328.0,216.0 329.0,218.0 330.0,218.0 331.0,218.0 332.0,219.0 333.0,215.0 334.0,217.0 335.0,215.0 336.0,216.0 337.0,214.0 338.0,214.0 339.0,212.0 340.0,213.0 341.0,211.0 342.0,211.0 343.0,211.0 344.0,209.0 345.0,209.0 346.0,208.0 347.0,209.0 348.0,208.0 349.0,211.0 350.0,208.0 351.0,209.0 352.0,210.0 353.0,208.0 354.0,210.0 355.0,211.0 356.0,212.0 357.0,214.0 358.0,213.0 359.0,216.0 360.0,211.0 361.0,218.0 362.0,215.0 363.0,219.0 364.0,221.0 365.0,222.0 366.0,224.0 367.0,223.0 368.0,225.0 369.0,228.0 370.0,226.0 371.0,230.0 372.0,229.0 373.0,231.0 374.0,232.0 375.0,230.0 376.0,229.0 377.0,227.0 378.0,225.0 379.0,229.0 380.0,225.0 381.0,228.0 382.0,228.0 383.0,228.0 384.0,229.0 385.0,225.0 386.0,225.0 387.0,224.0 388.0,223.0 389.0,218.0 390.0,222.0 391.0,215.0 392.0,220.0 393.0,216.0 394.0,220.0 395.0,218.0 396.0,221.0 397.0,220.0 398.0,219.0 399.0,220.0 400.0,218.0 401.0,220.0 402.0,219.0 403.0,221.0 404.0,225.0 405.0,220.0 406.0,221.0 407.0,221.0 408.0,221.0 409.0,220.0 410.0,222.0 411.0,216.0 412.0,218.0 413.0,215.0 414.0,216.0 415.0,214.0 416.0,217.0 417.0,209.0 418.0,214.0 419.0,211.0 420.0,211.0 421.0,208.0 422.0,213.0 423.0,212.0 424.0,211.0 425.0,209.0 426.0,212.0 427.0,208.0 428.0,211.0 429.0,212.0 430.0,206.0 431.0,215.0 432.0,213.0 433.0,218.0 434.0,214.0 435.0,216.0 436.0,214.0 437.0,216.0 438.0,212.0 439.0,214.0 440.0,213.0 441.0,212.0 442.0,213.0 443.0,214.0 444.0,210.0 445.0,213.0 446.0,210.0 447.0,212.0 448.0,212.0 449.0,211.0 450.0,210.0 451.0,209.0 452.0,212.0 453.0,207.0 454.0,211.0 455.0,208.0 456.0,208.0 457.0,207.0 458.0,205.0 459.0,204.0 460.0,204.0 461.0,202.0 462.0,200.0 463.0,201.0 464.0,199.0 465.0,197.0 466.0,198.0 467.0,192.0 468.0,195.0 469.0,188.0 470.0,193.0 471.0,188.0 472.0,189.0 473.0,189.0 474.0,188.0 475.0,189.0 476.0,189.0 477.0,188.0 478.0,191.0 479.0,189.0 480.0,189.0 481.0,186.0 482.0,188.0 483.0,185.0 484.0,186.0 485.0,182.0 486.0,183.0 487.0,183.0 488.0,180.0 489.0,183.0 490.0,184.0 491.0,179.0 492.0,185.0 493.0,181.0 494.0,185.0 495.0,179.0 496.0,189.0 497.0,182.0 498.0,184.0 499.0,187.0 500.0,186.0 501.0,190.0 502.0,189.0 503.0,194.0 504.0,189.0 505.0,196.0 506.0,192.0 507.0,194.0 508.0,192.0 509.0,193.0 510.0,191.0 511.0,193.0 512.0,192.0 513.0,196.0 514.0,195.0 515.0,199.0 516.0,200.0 517.0,198.0 518.0,203.0 519.0,202.0 520.0,207.0 521.0,201.0 522.0,207.0 523.0,211.0 524.0,206.0 525.0,212.0 526.0,209.0 527.0,213.0 528.0,219.0 529.0,214.0 530.0,219.0 531.0,217.0 532.0,219.0 533.0,218.0 534.0,221.0 535.0,219.0 536.0,218.0 537.0,224.0 538.0,221.0 539.0,224.0 540.0,223.0 541.0,227.0 542.0,226.0 543.0,226.0 544.0,231.0 545.0,227.0 546.0,231.0 547.0,229.0 548.0,232.0 549.0,229.0 550.0,233.0 551.0,231.0 552.0,236.0 553.0,232.0 554.0,239.0 555.0,232.0 556.0,239.0 557.0,236.0 558.0,240.0 559.0,237.0 560.0,240.0 561.0,243.0 562.0,240.0 563.0,246.0 564.0,243.0 565.0,246.0 566.0,245.0 567.0,246.0 568.0,247.0 569.0,250.0 570.0,250.0 571.0,254.0 572.0,254.0 573.0,256.0 574.0,254.0 575.0,257.0 576.0,255.0 577.0,257.0 578.0,258.0 579.0,257.0 580.0,255.0 581.0,263.0 582.0,267.0 583.0,262.0 584.0,268.0 585.0,265.0 586.0,272.0 587.0,266.0 588.0,272.0 589.0,272.0 590.0,271.0 591.0,275.0 592.0,276.0 593.0,272.0 594.0,282.0 595.0,277.0 596.0,282.0 597.0,281.0 598.0,285.0 599.0,282.0 600.0,288.0 601.0,288.0 602.0,289.0 603.0,289.0 604.0,290.0 605.0,293.0 606.0,291.0 607.0,292.0 608.0,293.0 609.0,293.0 610.0,297.0 611.0,292.0 612.0,296.0 613.0,293.0 614.0,295.0 615.0,293.0 616.0,294.0 617.0,290.0 618.0,293.0 619.0,288.0 620.0,295.0 621.0,291.0 622.0,292.0 623.0,292.0 624.0,293.0 625.0,290.0 626.0,295.0 627.0,290.0 628.0,294.0 629.0,291.0 630.0,291.0 631.0,291.0 632.0,293.0 633.0,289.0 634.0,290.0 635.0,296.0 636.0,285.0 637.0,299.0 638.0,296.0 639.0,300.0 640.0,299.0 641.0,302.0 642.0,300.0 643.0,303.0 644.0,300.0 645.0,303.0 646.0,298.0 647.0,305.0 648.0,295.0 649.0,303.0 650.0,296.0 651.0,300.0 652.0,294.0 653.0,298.0 654.0,291.0 655.0,296.0 656.0,292.0" fill="none" stroke="#008000" />
	<polyline points="57.0,41.0 58.0,12.0 59.0,37.0 60.0,16.0 61.0,34.0 62.0,18.0 63.0,31.0 64.0,18.0 65.0,27.0 66.0,18.0 67.0,24.0 68.0,16.0 69.0,21.0 70.0,16.0 71.0,19.0 72.0,18.0 73.0,23.0 74.0,23.0 75.0,28.0 76.0,30.0 77.0,34.0 78.0,37.0 79.0,42.0 80.0,42.0 81.0,43.0 82.0,44.0 83.0,47.0 84.0,46.0 85.0,46.0 86.0,51.0 87.0,47.0 88.0,52.0 89.0,52.0 90.0,48.0 91.0,50.0 92.0,50.0 93.0,50.0 94.0,50.0 95.0,46.0 96.0,51.0 97.0,44.0 98.0,49.0 99.0,46.0 100.0,47.0 101.0,45.0 102.0,44.0 103.0,46.0 104.0,42.0 105.0,44.0 106.0,43.0 107.0,43.0 108.0,45.0 109.0,43.0 110.0,45.0 111.0,45.0 112.0,45.0 113.0,49.0 114.0,47.0 115.0,55.0 116.0,54.0 117.0,59.0 118.0,63.0 119.0,64.0 120.0,67.0 121.0,72.0 122.0,68.0 123.0,75.0 124.0,71.0 125.0,75.0 126.0,73.0 127.0,76.0 128.0,74.0 129.0,76.0 130.0,74.0 131.0,71.0 132.0,72.0 133.0,75.0 134.0,67.0 135.0,74.0 136.0,64.0 137.0,73.0 138.0,65.0 139.0,65.0 140.0,65.0 141.0,66.0 142.0,61.0 143.0,65.0 144.0,58.0 145.0,65.0 146.0,59.0 147.0,65.0 148.0,56.0 149.0,67.0 150.0,60.0 151.0,67.0 152.0,65.0 153.0,69.0 154.0,66.0 155.0,70.0 156.0,64.0 157.0,70.0 158.0,68.0 159.0,68.0 160.0,67.0 161.0,67.0 162.0,68.0 163.0,67.0 164.0,64.0 165.0,71.0 166.0,68.0 167.0,72.0 168.0,70.0 169.0,74.0 170.0,73.0 171.0,73.0 172.0,77.0 173.0,71.0 174.0,74.0 175.0,72.0 176.0,76.0 177.0,74.0 178.0,72.0 179.0,79.0 180.0,72.0 181.0,78.0 182.0,73.0 183.0,76.0 184.0,74.0 185.0,73.0 186.0,73.0 187.0,73.0 188.0,69.0 189.0,74.0 190.0,72.0 191.0,69.0 192.0,75.0 193.0,66.0 194.0,71.0 195.0,68.0 196.0,70.0 197.0,67.0 198.0,65.0 199.0,65.0 200.0,69.0 201.0,61.0 202.0,67.0 203.0,60.0 204.0,65.0 205.0,63.0 206.0,60.0 207.0,64.0 208.0,58.0 209.0,64.0 210.0,59.0 211.0,64.0 212.0,56.0 213.0,59.0 214.0,59.0 215.0,53.0 216.0,52.0 217.0,57.0 218.0,41.0 219.0,47.0 220.0,37.0 221.0,34.0 222.0,26.0 223.0,26.0 224.0,14.0 225.0,19.0 226.0,12.0 227.0,13.0 228.0,9.0 229.0,10.0 230.0,8.0 231.0,12.0 232.0,10.0 233.0,14.0 234.0,14.0 235.0,15.0 236.0,17.0 237.0,18.0 238.0,18.0 239.0,21.0 240.0,19.0 241.0,23.0 242.0,20.0 243.0,24.0 244.0,21.0 245.0,23.0 246.0,22.0 247.0,22.0 248.0,23.0 249.0,22.0 250.0,25.0 251.0,23.0 252.0,26.0 253.0,25.0 254.0,27.0 255.0,29.0 256.0,29.0 257.0,32.0 258.0,31.0 259.0,37.0 260.0,33.0 261.0,40.0 262.0,38.0 263.0,41.0 264.0,42.0 265.0,45.0 266.0,45.0 267.0,47.0 268.0,48.0 269.0,50.0 270.0,51.0 271.0,52.0 272.0,54.0 273.0,55.0 274.0,55.0 275.0,57.0 276.0,55.0 277.0,58.0 278.0,54.0 279.0,59.0 280.0,53.0 281.0,60.0 282.0,53.0 283.0,62.0 284.0,54.0 285.0,61.0 286.0,55.0 287.0,61.0 288.0,57.0 289.0,63.0 290.0,58.0 291.0,62.0 292.0,61.0 293.0,64.0 294.0,63.0 295.0,65.0 296.0,63.0 297.0,65.0 298.0,65.0 299.0,66.0 300.0,65.0 301.0,66.0 302.0,68.0 303.0,67.0 304.0,70.0 305.0,70.0 306.0,70.0 307.0,72.0 308.0,73.0 309.0,74.0 310.0,73.0 311.0,74.0 312.0,75.0 313.0,75.0 314.0,76.0 315.0,77.0 316.0,80.0 317.0,80.0 318.0,82.0 319.0,84.0 320.0,86.0 321.0,86.0 322.0,86.0 323.0,87.0 324.0,88.0 325.0,86.0 326.0,87.0 327.0,85.0 328.0,87.0 329.0,83.0 330.0,87.0 331.0,84.0 332.0,82.0 333.0,86.0 334.0,81.0 335.0,85.0 336.0,86.0 337.0,87.0 338.0,87.0 339.0,91.0 340.0,92.0 341.0,93.0 342.0,91.0 343.0,91.0 344.0,92.0 345.0,94.0 346.0,91.0 347.0,95.0 348.0,94.0 349.0,96.0 350.0,95.0 351.0,96.0 352.0,94.0 353.0,93.0 354.0,96.0 355.0,94.0 356.0,96.0 357.0,95.0 358.0,94.0 359.0,97.0 360.0,94.0 361.0,93.0 362.0,93.0 363.0,97.0 364.0,96.0 365.0,96.0 366.0,98.0 367.0,95.0 368.0,98.0 369.0,98.0 370.0,98.0 371.0,101.0 372.0,101.0 373.0,101.0 374.0,99.0 375.0,101.0 376.0,98.0 377.0,100.0 378.0,100.0 379.0,98.0 380.0,97.0 381.0,95.0 382.0,99.0 383.0,97.0 384.0,98.0 385.0,98.0 386.0,102.0 387.0,101.0 388.0,102.0 389.0,103.0 390.0,105.0 391.0,103.0 392.0,106.0 393.0,106.0 394.0,107.0 395.0,107.0 396.0,109.0 397.0,107.0 398.0,108.0 399.0,105.0 400.0,108.0 401.0,104.0 402.0,108.0 403.0,104.0 404.0,109.0 405.0,105.0 406.0,109.0 407.0,105.0 408.0,111.0 409.0,107.0 410.0,112.0 411.0,107.0 412.0,111.0 413.0,108.0 414.0,113.0 415.0,108.0 416.0,113.0 417.0,110.0 418.0,111.0 419.0,109.0 420.0,113.0 421.0,110.0 422.0,113.0 423.0,112.0 424.0,114.0 425.0,115.0 426.0,114.0 427.0,117.0 428.0,117.0 429.0,116.0 430.0,115.0 431.0,115.0 432.0,114.0 433.0,115.0 434.0,113.0 435.0,115.0 436.0,113.0 437.0,117.0 438.0,116.0 439.0,119.0 440.0,117.0 441.0,116.0 442.0,117.0 443.0,117.0 444.0,115.0 445.0,114.0 446.0,114.0 447.0,111.0 448.0,113.0 449.0,111.0 450.0,114.0 451.0,111.0 452.0,111.0 453.0,110.0 454.0,110.0 455.0,108.0 456.0,108.0 457.0,109.0 458.0,106.0 459.0,107.0 460.0,105.0 461.0,105.0 462.0,105.0 463.0,108.0 464.0,110.0 465.0,112.0 466.0,110.0 467.0,113.0 468.0,111.0 469.0,110.0 470.0,113.0 471.0,111.0 472.0,115.0 473.0,116.0 474.0,115.0 475.0,115.0 476.0,116.0 477.0,114.0 478.0,114.0 479.0,114.0 480.0,114.0 481.0,115.0 482.0,115.0 483.0,114.0 484.0,116.0 485.0,115.0 486.0,118.0 487.0,114.0 488.0,115.0 489.0,115.0 490.0,117.0 491.0,115.0 492.0,121.0 493.0,120.0 494.0,126.0 495.0,129.0 496.0,133.0 497.0,134.0 498.0,135.0 499.0,135.0 500.0,134.0 501.0,136.0 502.0,137.0 503.0,135.0 504.0,134.0 505.0,132.0 506.0,135.0 507.0,132.0 508.0,135.0 509.0,140.0 510.0,143.0 511.0,144.0 512.0,144.0 513.0,148.0 514.0,145.0 515.0,147.0 516.0,146.0 517.0,151.0 518.0,151.0 519.0,150.0 520.0,153.0 521.0,148.0 522.0,154.0 523.0,149.0 524.0,151.0 525.0,148.0 526.0,151.0 527.0,147.0 528.0,149.0 529.0,147.0 530.0,149.0 531.0,145.0 532.0,144.0 533.0,144.0 534.0,143.0 535.0,145.0 536.0,146.0 537.0,145.0 538.0,145.0 539.0,145.0 540.0,145.0 541.0,148.0 542.0,145.0 543.0,150.0 544.0,144.0 545.0,150.0 546.0,144.0 547.0,152.0 548.0,149.0 549.0,152.0 550.0,150.0 551.0,148.0 552.0,147.0 553.0,149.0 554.0,150.0 555.0,154.0 556.0,155.0 557.0,157.0 558.0,160.0 559.0,161.0 560.0,162.0 561.0,167.0 562.0,163.0 563.0,167.0 564.0,166.0 565.0,170.0 566.0,168.0 567.0,167.0 568.0,170.0 569.0,175.0 570.0,175.0 571.0,177.0 572.0,173.0 573.0,176.0 574.0,178.0 575.0,177.0 576.0,181.0 577.0,174.0 578.0,180.0 579.0,174.0 580.0,177.0 581.0,170.0 582.0,177.0 583.0,172.0 584.0,176.0 585.0,169.0 586.0,175.0 587.0,168.0 588.0,173.0 589.0,167.0 590.0,172.0 591.0,166.0 592.0,176.0 593.0,172.0 594.0,174.0 595.0,171.0 596.0,173.0 597.0,171.0 598.0,171.0 599.0,167.0 600.0,171.0 601.0,169.0 602.0,172.0 603.0,174.0 604.0,179.0 605.0,181.0 606.0,178.0 607.0,181.0 608.0,180.0 609.0,181.0 610.0,183.0 611.0,184.0 612.0,183.0 613.0,183.0 614.0,186.0 615.0,180.0 616.0,185.0 617.0,180.0 618.0,186.0 619.0,177.0 620.0,185.0 621.0,177.0 622.0,180.0 623.0,177.0 624.0,178.0 625.0,178.0 626.0,178.0 627.0,178.0 628.0,176.0 629.0,180.0 630.0,174.0 631.0,183.0 632.0,179.0 633.0,188.0 634.0,182.0 635.0,188.0 636.0,183.0 637.0,188.0 638.0,180.0 639.0,187.0 640.0,178.0 641.0,187.0 642.0,178.0 643.0,186.0 644.0,176.0 645.0,196.0 646.0,185.0 647.0,200.0 648.0,186.0 649.0,196.0 650.0,186.0 651.0,196.0 652.0,191.0 653.0,198.0 654.0,192.0 655.0,195.0 656.0,194.0" fill="none" stroke="#d0d000" />
	<polyline points="57.0,41.0 58.0,12.0 59.0,37.0 60.0,15.0 61.0,33.0 62.0,17.0 63.0,30.0 64.0,17.0 65.0,26.0 66.0,17.0 67.0,22.0 68.0,15.0 69.0,19.0 70.0,14.0 71.0,17.0 72.0,14.0 73.0,17.0 74.0,16.0 75.0,19.0 76.0,19.0 77.0,22.0 78.0,23.0 79.0,23.0 80.0,24.0 81.0,24.0 82.0,26.0 83.0,25.0 84.0,27.0 85.0,26.0 86.0,27.0 87.0,25.0 88.0,26.0 89.0,29.0 90.0,29.0 91.0,28.0 92.0,34.0 93.0,32.0 94.0,37.0 95.0,37.0 96.0,43.0 97.0,38.0 98.0,43.0 99.0,43.0 100.0,44.0 101.0,46.0 102.0,45.0 103.0,46.0 104.0,46.0 105.0,48.0 106.0,49.0 107.0,49.0 108.0,50.0 109.0,52.0 110.0,53.0 111.0,52.0 112.0,54.0 113.0,53.0 114.0,55.0 115.0,54.0 116.0,56.0 117.0,55.0 118.0,57.0 119.0,59.0 120.0,61.0 121.0,61.0 122.0,60.0 123.0,64.0 124.0,64.0 125.0,62.0 126.0,63.0 127.0,67.0 128.0,59.0 129.0,67.0 130.0,63.0 131.0,64.0 132.0,65.0 133.0,65.0 134.0,62.0 135.0,67.0 136.0,64.0 137.0,66.0 138.0,64.0 139.0,68.0 140.0,68.0 141.0,68.0 142.0,72.0 143.0,70.0 144.0,75.0 145.0,75.0 146.0,74.0 147.0,77.0 148.0,80.0 149.0,78.0 150.0,80.0 151.0,80.0 152.0,82.0 153.0,83.0 154.0,83.0 155.0,86.0 156.0,82.0 157.0,87.0 158.0,82.0 159.0,89.0 160.0,81.0 161.0,87.0 162.0,83.0 163.0,83.0 164.0,83.0 165.0,85.0 166.0,79.0 167.0,83.0 168.0,79.0 169.0,84.0 170.0,79.0 171.0,83.0 172.0,83.0 173.0,85.0 174.0,84.0 175.0,85.0 176.0,84.0 177.0,85.0 178.0,84.0 179.0,82.0 180.0,84.0 181.0,85.0 182.0,79.0 183.0,83.0 184.0,83.0 185.0,82.0 186.0,81.0 187.0,83.0 188.0,81.0 189.0,83.0 190.0,81.0 191.0,84.0 192.0,84.0 193.0,85.0 194.0,83.0 195.0,87.0 196.0,89.0 197.0,88.0 198.0,95.0 199.0,91.0 200.0,101.0 201.0,94.0 202.0,104.0 203.0,103.0 204.0,108.0 205.0,105.0 206.0,111.0 207.0,108.0 208.0,109.0 209.0,108.0 210.0,110.0 211.0,109.0 212.0,108.0 213.0,109.0 214.0,107.0 215.0,110.0 216.0,106.0 217.0,108.0 218.0,109.0 219.0,106.0 220.0,107.0 221.0,109.0 222.0,103.0 223.0,107.0 224.0,104.0 225.0,104.0 226.0,101.0 227.0,103.0 228.0,98.0 229.0,101.0 230.0,97.0 231.0,100.0 232.0,95.0 233.0,97.0 234.0,95.0 235.0,91.0 236.0,93.0 237.0,89.0 238.0,90.0 239.0,89.0 240.0,87.0 241.0,92.0 242.0,85.0 243.0,91.0 244.0,87.0 245.0,88.0 246.0,88.0 247.0,88.0 248.0,87.0 249.0,89.0 250.0,88.0 251.0,89.0 252.0,92.0 253.0,90.0 254.0,93.0 255.0,94.0 256.0,95.0 257.0,98.0 258.0,99.0 259.0,101.0 260.0,104.0 261.0,106.0 262.0,106.0 263.0,110.0 264.0,110.0 265.0,114.0 266.0,112.0 267.0,118.0 268.0,116.0 269.0,119.0 270.0,121.0 271.0,125.0 272.0,123.0 273.0,131.0 274.0,131.0 275.0,136.0 276.0,139.0 277.0,142.0 278.0,146.0 279.0,150.0 280.0,152.0 281.0,154.0 282.0,155.0 283.0,157.0 284.0,158.0 285.0,155.0 286.0,160.0 287.0,159.0 288.0,163.0 289.0,161.0 290.0,162.0 291.0,166.0 292.0,158.0 293.0,163.0 294.0,159.0 295.0,161.0 296.0,156.0 297.0,158.0 298.0,157.0 299.0,158.0 300.0,155.0 301.0,156.0 302.0,155.0 303.0,156.0 304.0,156.0 305.0,154.0 306.0,152.0 307.0,155.0 308.0,150.0 309.0,154.0 310.0,148.0 311.0,151.0 312.0,145.0 313.0,151.0 314.0,143.0 315.0,145.0 316.0,147.0 317.0,143.0 318.0,146.0 319.0,142.0 320.0,144.0 321.0,143.0 322.0,146.0 323.0,146.0 324.0,148.0 325.0,151.0 326.0,155.0 327.0,151.0 328.0,157.0 329.0,157.0 330.0,157.0 331.0,161.0 332.0,162.0 333.0,159.0 334.0,164.0 335.0,163.0 336.0,166.0 337.0,164.0 338.0,169.0 339.0,165.0 340.0,168.0 341.0,165.0 342.0,164.0 343.0,165.0 344.0,162.0 345.0,161.0 346.0,160.0 347.0,160.0 348.0,160.0 349.0,159.0 350.0,159.0 351.0,160.0 352.0,160.0 353.0,160.0 354.0,162.0 355.0,164.0 356.0,164.0 357.0,166.0 358.0,170.0 359.0,166.0 360.0,173.0 361.0,173.0 362.0,178.0 363.0,181.0 364.0,182.0 365.0,184.0 366.0,188.0 367.0,189.0 368.0,192.0 369.0,191.0 370.0,195.0 371.0,193.0 372.0,194.0 373.0,194.0 374.0,194.0 375.0,193.0 376.0,192.0 377.0,192.0 378.0,190.0 379.0,192.0 380.0,188.0 381.0,189.0 382.0,189.0 383.0,188.0 384.0,188.0 385.0,186.0 386.0,188.0 387.0,185.0 388.0,187.0 389.0,184.0 390.0,186.0 391.0,184.0 392.0,186.0 393.0,184.0 394.0,185.0 395.0,184.0 396.0,184.0 397.0,185.0 398.0,182.0 399.0,184.0 400.0,182.0 401.0,182.0 402.0,183.0 403.0,181.0 404.0,180.0 405.0,181.0 406.0,181.0 407.0,182.0 408.0,181.0 409.0,180.0 410.0,183.0 411.0,181.0 412.0,183.0 413.0,179.0 414.0,180.0 415.0,178.0 416.0,177.0 417.0,176.0 418.0,175.0 419.0,172.0 420.0,175.0 421.0,171.0 422.0,175.0 423.0,169.0 424.0,175.0 425.0,170.0 426.0,170.0 427.0,171.0 428.0,170.0 429.0,170.0 430.0,172.0 431.0,170.0 432.0,174.0 433.0,174.0 434.0,175.0 435.0,175.0 436.0,177.0 437.0,177.0 438.0,176.0 439.0,177.0 440.0,176.0 441.0,177.0 442.0,177.0 443.0,175.0 444.0,177.0 445.0,178.0 446.0,179.0 447.0,180.0 448.0,179.0 449.0,182.0 450.0,178.0 451.0,183.0 452.0,180.0 453.0,182.0 454.0,181.0 455.0,181.0 456.0,183.0 457.0,181.0 458.0,183.0 459.0,184.0 460.0,185.0 461.0,186.0 462.0,186.0 463.0,186.0 464.0,186.0 465.0,187.0 466.0,187.0 467.0,186.0 468.0,187.0 469.0,188.0 470.0,187.0 471.0,188.0 472.0,189.0 473.0,188.0 474.0,187.0 475.0,189.0 476.0,185.0 477.0,189.0 478.0,184.0 479.0,189.0 480.0,185.0 481.0,190.0 482.0,188.0 483.0,188.0 484.0,187.0 485.0,187.0 486.0,191.0 487.0,188.0 488.0,189.0 489.0,191.0 490.0,190.0 491.0,189.0 492.0,194.0 493.0,192.0 494.0,195.0 495.0,192.0 496.0,197.0 497.0,192.0 498.0,194.0 499.0,195.0 500.0,194.0 501.0,195.0 502.0,195.0 503.0,197.0 504.0,196.0 505.0,196.0 506.0,198.0 507.0,196.0 508.0,197.0 509.0,195.0 510.0,200.0 511.0,185.0 512.0,200.0 513.0,194.0 514.0,195.0 515.0,199.0 516.0,195.0 517.0,200.0 518.0,194.0 519.0,200.0 520.0,193.0 521.0,202.0 522.0,199.0 523.0,195.0 524.0,200.0 525.0,198.0 526.0,202.0 527.0,198.0 528.0,200.0 529.0,201.0 530.0,202.0 531.0,199.0 532.0,200.0 533.0,197.0 534.0,200.0 535.0,200.0 536.0,196.0 537.0,199.0 538.0,201.0 539.0,199.0 540.0,201.0 541.0,199.0 542.0,203.0 543.0,202.0 544.0,206.0 545.0,202.0 546.0,202.0 547.0,206.0 548.0,204.0 549.0,206.0 550.0,207.0 551.0,205.0 552.0,207.0 553.0,213.0 554.0,206.0 555.0,211.0 556.0,212.0 557.0,217.0 558.0,210.0 559.0,216.0 560.0,215.0 561.0,222.0 562.0,217.0 563.0,224.0 564.0,220.0 565.0,229.0 566.0,225.0 567.0,232.0 568.0,228.0 569.0,235.0 570.0,240.0 571.0,240.0 572.0,242.0 573.0,247.0 574.0,245.0 575.0,249.0 576.0,249.0 577.0,250.0 578.0,251.0 579.0,251.0 580.0,254.0 581.0,253.0 582.0,253.0 583.0,254.0 584.0,256.0 585.0,254.0 586.0,260.0 587.0,257.0 588.0,259.0 589.0,258.0 590.0,263.0 591.0,261.0 592.0,266.0 593.0,264.0 594.0,269.0 595.0,269.0 596.0,274.0 597.0,271.0 598.0,278.0 599.0,273.0 600.0,281.0 601.0,276.0 602.0,280.0 603.0,282.0 604.0,283.0 605.0,282.0 606.0,283.0 607.0,284.0 608.0,286.0 609.0,286.0 610.0,286.0 611.0,290.0 612.0,288.0 613.0,289.0 614.0,287.0 615.0,288.0 616.0,285.0 617.0,285.0 618.0,286.0 619.0,281.0 620.0,286.0 621.0,281.0 622.0,285.0 623.0,282.0 624.0,286.0 625.0,286.0 626.0,289.0 627.0,287.0 628.0,290.0 629.0,293.0 630.0,293.0 631.0,292.0 632.0,293.0 633.0,295.0 634.0,293.0 635.0,295.0 636.0,290.0 637.0,295.0 638.0,290.0 639.0,294.0 640.0,288.0 641.0,295.0 642.0,287.0 643.0,291.0 644.0,286.0 645.0,289.0 646.0,284.0 647.0,286.0 648.0,277.0 649.0,284.0 650.0,277.0 651.0,280.0 652.0,274.0 653.0,278.0 654.0,273.0 655.0,270.0 656.0,273.0" fill="none" stroke="#fb46bc" />
	<polyline points="57.0,41.0 58.0,12.0 59.0,37.0 60.0,14.0 61.0,32.0 62.0,15.0 63.0,29.0 64.0,15.0 65.0,25.0 66.0,15.0 67.0,21.0 68.0,14.0 69.0,18.0 70.0,12.0 71.0,16.0 72.0,11.0 73.0,15.0 74.0,14.0 75.0,15.0 76.0,16.0 77.0,18.0 78.0,20.0 79.0,21.0 80.0,23.0 81.0,24.0 82.0,24.0 83.0,24.0 84.0,26.0 85.0,27.0 86.0,26.0 87.0,29.0 88.0,31.0 89.0,30.0 90.0,33.0 91.0,34.0 92.0,34.0 93.0,37.0 94.0,37.0 95.0,37.0 96.0,39.0 97.0,38.0 98.0,40.0 99.0,39.0 100.0,42.0 101.0,41.0 102.0,43.0 103.0,44.0 104.0,45.0 105.0,45.0 106.0,47.0 107.0,44.0 108.0,49.0 109.0,44.0 110.0,50.0 111.0,46.0 112.0,49.0 113.0,48.0 114.0,47.0 115.0,50.0 116.0,48.0 117.0,49.0 118.0,47.0 119.0,49.0 120.0,52.0 121.0,49.0 122.0,50.0 123.0,52.0 124.0,50.0 125.0,51.0 126.0,47.0 127.0,52.0 128.0,48.0 129.0,52.0 130.0,53.0 131.0,54.0 132.0,59.0 133.0,58.0 134.0,59.0 135.0,60.0 136.0,61.0 137.0,63.0 138.0,61.0 139.0,63.0 140.0,60.0 141.0,61.0 142.0,59.0 143.0,59.0 144.0,57.0 145.0,57.0 146.0,53.0 147.0,50.0 148.0,48.0 149.0,48.0 150.0,44.0 151.0,46.0 152.0,40.0 153.0,42.0 154.0,41.0 155.0,40.0 156.0,40.0 157.0,41.0 158.0,38.0 159.0,43.0 160.0,40.0 161.0,40.0 162.0,40.0 163.0,39.0 164.0,39.0 165.0,38.0 166.0,38.0 167.0,38.0 168.0,39.0 169.0,40.0 170.0,39.0 171.0,43.0 172.0,40.0 173.0,43.0 174.0,45.0 175.0,43.0 176.0,46.0 177.0,45.0 178.0,46.0 179.0,49.0 180.0,47.0 181.0,49.0 182.0,49.0 183.0,53.0 184.0,52.0 185.0,56.0 186.0,57.0 187.0,60.0 188.0,60.0 189.0,63.0 190.0,66.0 191.0,66.0 192.0,69.0 193.0,69.0 194.0,74.0 195.0,70.0 196.0,74.0 197.0,72.0 198.0,78.0 199.0,71.0 200.0,76.0 201.0,75.0 202.0,72.0 203.0,75.0 204.0,72.0 205.0,73.0 206.0,70.0 207.0,72.0 208.0,70.0 209.0,73.0 210.0,68.0 211.0,72.0 212.0,71.0 213.0,71.0 214.0,68.0 215.0,72.0 216.0,67.0 217.0,68.0 218.0,68.0 219.0,65.0 220.0,63.0 221.0,64.0 222.0,60.0 223.0,61.0 224.0,60.0 225.0,62.0 226.0,59.0 227.0,61.0 228.0,56.0 229.0,60.0 230.0,59.0 231.0,57.0 232.0,56.0 233.0,56.0 234.0,53.0 235.0,54.0 236.0,55.0 237.0,52.0 238.0,53.0 239.0,54.0 240.0,53.0 241.0,55.0 242.0,55.0 243.0,54.0 244.0,56.0 245.0,55.0 246.0,56.0 247.0,56.0 248.0,57.0 249.0,57.0 250.0,60.0 251.0,58.0 252.0,60.0 253.0,59.0 254.0,60.0 255.0,57.0 256.0,59.0 257.0,58.0 258.0,56.0 259.0,58.0 260.0,57.0 261.0,59.0 262.0,58.0 263.0,61.0 264.0,59.0 265.0,61.0 266.0,59.0 267.0,60.0 268.0,61.0 269.0,61.0 270.0,59.0 271.0,63.0 272.0,62.0 273.0,63.0 274.0,64.0 275.0,65.0 276.0,65.0 277.0,67.0 278.0,64.0 279.0,69.0 280.0,64.0 281.0,68.0 282.0,65.0 283.0,70.0 284.0,67.0 285.0,71.0 286.0,71.0 287.0,73.0 288.0,72.0 289.0,74.0 290.0,73.0 291.0,78.0 292.0,73.0 293.0,77.0 294.0,76.0 295.0,77.0 296.0,79.0 297.0,79.0 298.0,77.0 299.0,81.0 300.0,76.0 301.0,79.0 302.0,77.0 303.0,76.0 304.0,76.0 305.0,74.0 306.0,75.0 307.0,80.0 308.0,72.0 309.0,83.0 310.0,79.0 311.0,81.0 312.0,80.0 313.0,81.0 314.0,79.0 315.0,80.0 316.0,80.0 317.0,79.0 318.0,81.0 319.0,80.0 320.0,81.0 321.0,83.0 322.0,85.0 323.0,82.0 324.0,86.0 325.0,83.0 326.0,85.0 327.0,82.0 328.0,83.0 329.0,82.0 330.0,84.0 331.0,82.0 332.0,83.0 333.0,84.0 334.0,84.0 335.0,85.0 336.0,85.0 337.0,86.0 338.0,85.0 339.0,85.0 340.0,86.0 341.0,84.0 342.0,86.0 343.0,86.0 344.0,85.0 345.0,84.0 346.0,85.0 347.0,85.0 348.0,85.0 349.0,87.0 350.0,87.0 351.0,90.0 352.0,91.0 353.0,92.0 354.0,92.0 355.0,93.0 356.0,92.0 357.0,96.0 358.0,92.0 359.0,96.0 360.0,95.0 361.0,99.0 362.0,96.0 363.0,99.0 364.0,98.0 365.0,97.0 366.0,97.0 367.0,98.0 368.0,97.0 369.0,97.0 370.0,98.0 371.0,97.0 372.0,98.0 373.0,97.0 374.0,99.0 375.0,98.0 376.0,97.0 377.0,100.0 378.0,98.0 379.0,99.0 380.0,98.0 381.0,100.0 382.0,98.0 383.0,98.0 384.0,99.0 385.0,99.0 386.0,99.0 387.0,98.0 388.0,102.0 389.0,97.0 390.0,101.0 391.0,98.0 392.0,100.0 393.0,99.0 394.0,101.0 395.0,101.0 396.0,101.0 397.0,101.0 398.0,102.0 399.0,102.0 400.0,103.0 401.0,100.0 402.0,104.0 403.0,101.0 404.0,103.0 405.0,103.0 406.0,103.0 407.0,106.0 408.0,104.0 409.0,106.0 410.0,107.0 411.0,105.0 412.0,106.0 413.0,104.0 414.0,107.0 415.0,106.0 416.0,106.0 417.0,107.0 418.0,107.0 419.0,107.0 420.0,107.0 421.0,107.0 422.0,109.0 423.0,107.0 424.0,110.0 425.0,109.0 426.0,109.0 427.0,109.0 428.0,109.0 429.0,109.0 430.0,109.0 431.0,108.0 432.0,108.0 433.0,108.0 434.0,105.0 435.0,109.0 436.0,104.0 437.0,107.0 438.0,108.0 439.0,105.0 440.0,113.0 441.0,109.0 442.0,116.0 443.0,110.0 444.0,117.0 445.0,112.0 446.0,115.0 447.0,117.0 448.0,115.0 449.0,119.0 450.0,116.0 451.0,117.0 452.0,116.0 453.0,115.0 454.0,118.0 455.0,118.0 456.0,120.0 457.0,119.0 458.0,122.0 459.0,121.0 460.0,122.0 461.0,121.0 462.0,122.0 463.0,121.0 464.0,120.0 465.0,121.0 466.0,118.0 467.0,121.0 468.0,120.0 469.0,118.0 470.0,120.0 471.0,120.0 472.0,119.0 473.0,121.0 474.0,121.0 475.0,122.0 476.0,123.0 477.0,121.0 478.0,125.0 479.0,122.0 480.0,124.0 481.0,123.0 482.0,123.0 483.0,123.0 484.0,122.0 485.0,123.0 486.0,121.0 487.0,124.0 488.0,121.0 489.0,122.0 490.0,123.0 491.0,122.0 492.0,124.0 493.0,121.0 494.0,126.0 495.0,120.0 496.0,125.0 497.0,122.0 498.0,122.0 499.0,123.0 500.0,119.0 501.0,124.0 502.0,122.0 503.0,124.0 504.0,124.0 505.0,125.0 506.0,126.0 507.0,124.0 508.0,129.0 509.0,124.0 510.0,127.0 511.0,126.0 512.0,131.0 513.0,128.0 514.0,132.0 515.0,134.0 516.0,132.0 517.0,134.0 518.0,132.0 519.0,133.0 520.0,133.0 521.0,135.0 522.0,136.0 523.0,138.0 524.0,140.0 525.0,137.0 526.0,143.0 527.0,143.0 528.0,145.0 529.0,150.0 530.0,151.0 531.0,154.0 532.0,156.0 533.0,156.0 534.0,157.0 535.0,157.0 536.0,162.0 537.0,163.0 538.0,164.0 539.0,162.0 540.0,164.0 541.0,164.0 542.0,164.0 543.0,163.0 544.0,163.0 545.0,163.0 546.0,163.0 547.0,163.0 548.0,160.0 549.0,162.0 550.0,161.0 551.0,161.0 552.0,163.0 553.0,161.0 554.0,161.0 555.0,161.0 556.0,161.0 557.0,160.0 558.0,160.0 559.0,162.0 560.0,162.0 561.0,163.0 562.0,161.0 563.0,167.0 564.0,161.0 565.0,164.0 566.0,161.0 567.0,162.0 568.0,161.0 569.0,162.0 570.0,161.0 571.0,164.0 572.0,161.0 573.0,168.0 574.0,162.0 575.0,168.0 576.0,165.0 577.0,167.0 578.0,166.0 579.0,166.0 580.0,165.0 581.0,167.0 582.0,165.0 583.0,164.0 584.0,167.0 585.0,163.0 586.0,168.0 587.0,166.0 588.0,171.0 589.0,171.0 590.0,177.0 591.0,175.0 592.0,179.0 593.0,175.0 594.0,181.0 595.0,175.0 596.0,177.0 597.0,177.0 598.0,176.0 599.0,176.0 600.0,175.0 601.0,173.0 602.0,175.0 603.0,174.0 604.0,178.0 605.0,177.0 606.0,180.0 607.0,180.0 608.0,181.0 609.0,181.0 610.0,180.0 611.0,180.0 612.0,181.0 613.0,181.0 614.0,182.0 615.0,181.0 616.0,187.0 617.0,182.0 618.0,187.0 619.0,184.0 620.0,188.0 621.0,187.0 622.0,190.0 623.0,187.0 624.0,191.0 625.0,188.0 626.0,190.0 627.0,189.0 628.0,192.0 629.0,188.0 630.0,193.0 631.0,189.0 632.0,191.0 633.0,190.0 634.0,189.0 635.0,192.0 636.0,190.0 637.0,194.0 638.0,191.0 639.0,199.0 640.0,191.0 641.0,199.0 642.0,193.0 643.0,198.0 644.0,193.0 645.0,200.0 646.0,193.0 647.0,202.0 648.0,194.0 649.0,204.0 650.0,198.0 651.0,203.0 652.0,197.0 653.0,203.0 654.0,200.0 655.0,203.0 656.0,199.0" fill="none" stroke="#0000ff" />
	<polyline points="57.0,41.0 58.0,12.0 59.0,37.0 60.0,15.0 61.0,33.0 62.0,16.0 63.0,29.0 64.0,17.0 65.0,26.0 66.0,16.0 67.0,23.0 68.0,16.0 69.0,21.0 70.0,17.0 71.0,21.0 72.0,19.0 73.0,22.0 74.0,21.0 75.0,27.0 76.0,28.0 77.0,31.0 78.0,31.0 79.0,32.0 80.0,34.0 81.0,34.0 82.0,35.0 83.0,37.0 84.0,36.0 85.0,38.0 86.0,39.0 87.0,43.0 88.0,39.0 89.0,44.0 90.0,41.0 91.0,44.0 92.0,44.0 93.0,44.0 94.0,45.0 95.0,41.0 96.0,46.0 97.0,40.0 98.0,43.0 99.0,40.0 100.0,41.0 101.0,40.0 102.0,40.0 103.0,39.0 104.0,40.0 105.0,40.0 106.0,40.0 107.0,40.0 108.0,40.0 109.0,39.0 110.0,39.0 111.0,39.0 112.0,39.0 113.0,41.0 114.0,38.0 115.0,41.0 116.0,38.0 117.0,42.0 118.0,43.0 119.0,44.0 120.0,42.0 121.0,46.0 122.0,47.0 123.0,46.0 124.0,46.0 125.0,46.0 126.0,46.0 127.0,48.0 128.0,47.0 129.0,46.0 130.0,48.0 131.0,50.0 132.0,47.0 133.0,51.0 134.0,46.0 135.0,51.0 136.0,48.0 137.0,50.0 138.0,51.0 139.0,51.0 140.0,53.0 141.0,52.0 142.0,53.0 143.0,55.0 144.0,56.0 145.0,59.0 146.0,59.0 147.0,65.0 148.0,65.0 149.0,69.0 150.0,70.0 151.0,75.0 152.0,72.0 153.0,80.0 154.0,79.0 155.0,82.0 156.0,84.0 157.0,87.0 158.0,87.0 159.0,89.0 160.0,89.0 161.0,94.0 162.0,92.0 163.0,95.0 164.0,93.0 165.0,92.0 166.0,97.0 167.0,95.0 168.0,98.0 169.0,99.0 170.0,99.0 171.0,101.0 172.0,101.0 173.0,104.0 174.0,103.0 175.0,102.0 176.0,107.0 177.0,104.0 178.0,105.0 179.0,106.0 180.0,105.0 181.0,108.0 182.0,106.0 183.0,112.0 184.0,106.0 185.0,113.0 186.0,111.0 187.0,112.0 188.0,113.0 189.0,112.0 190.0,115.0 191.0,115.0 192.0,114.0 193.0,118.0 194.0,117.0 195.0,119.0 196.0,120.0 197.0,122.0 198.0,125.0 199.0,124.0 200.0,128.0 201.0,131.0 202.0,130.0 203.0,131.0 204.0,133.0 205.0,131.0 206.0,132.0 207.0,132.0 208.0,126.0 209.0,131.0 210.0,128.0 211.0,127.0 212.0,129.0 213.0,126.0 214.0,128.0 215.0,127.0 216.0,126.0 217.0,124.0 218.0,127.0 219.0,123.0 220.0,125.0 221.0,123.0 222.0,118.0 223.0,122.0 224.0,120.0 225.0,117.0 226.0,113.0 227.0,117.0 228.0,112.0 229.0,111.0 230.0,111.0 231.0,112.0 232.0,114.0 233.0,113.0 234.0,114.0 235.0,115.0 236.0,116.0 237.0,113.0 238.0,117.0 239.0,118.0 240.0,113.0 241.0,116.0 242.0,117.0 243.0,116.0 244.0,116.0 245.0,116.0 246.0,117.0 247.0,117.0 248.0,119.0 249.0,116.0 250.0,120.0 251.0,119.0 252.0,120.0 253.0,124.0 254.0,123.0 255.0,122.0 256.0,130.0 257.0,128.0 258.0,127.0 259.0,131.0 260.0,132.0 261.0,132.0 262.0,133.0 263.0,133.0 264.0,134.0 265.0,133.0 266.0,132.0 267.0,135.0 268.0,131.0 269.0,132.0 270.0,131.0 271.0,134.0 272.0,129.0 273.0,131.0 274.0,129.0 275.0,133.0 276.0,129.0 277.0,132.0 278.0,135.0 279.0,134.0 280.0,139.0 281.0,138.0 282.0,142.0 283.0,146.0 284.0,148.0 285.0,153.0 286.0,153.0 287.0,156.0 288.0,158.0 289.0,154.0 290.0,158.0 291.0,155.0 292.0,153.0 293.0,157.0 294.0,149.0 295.0,153.0 296.0,149.0 297.0,151.0 298.0,144.0 299.0,149.0 300.0,146.0 301.0,144.0 302.0,145.0 303.0,143.0 304.0,141.0 305.0,139.0 306.0,140.0 307.0,139.0 308.0,135.0 309.0,139.0 310.0,131.0 311.0,134.0 312.0,132.0 313.0,128.0 314.0,132.0 315.0,128.0 316.0,128.0 317.0,126.0 318.0,131.0 319.0,124.0 320.0,130.0 321.0,128.0 322.0,127.0 323.0,131.0 324.0,129.0 325.0,132.0 326.0,132.0 327.0,133.0 328.0,135.0 329.0,135.0 330.0,138.0 331.0,138.0 332.0,142.0 333.0,140.0 334.0,141.0 335.0,144.0 336.0,141.0 337.0,144.0 338.0,145.0 339.0,148.0 340.0,144.0 341.0,149.0 342.0,149.0 343.0,147.0 344.0,145.0 345.0,144.0 346.0,143.0 347.0,146.0 348.0,141.0 349.0,142.0 350.0,142.0 351.0,141.0 352.0,142.0 353.0,139.0 354.0,140.0 355.0,143.0 356.0,142.0 357.0,139.0 358.0,141.0 359.0,137.0 360.0,136.0 361.0,133.0 362.0,135.0 363.0,128.0 364.0,131.0 365.0,130.0 366.0,130.0 367.0,129.0 368.0,129.0 369.0,129.0 370.0,136.0 371.0,123.0 372.0,131.0 373.0,127.0 374.0,128.0 375.0,124.0 376.0,127.0 377.0,128.0 378.0,127.0 379.0,129.0 380.0,133.0 381.0,130.0 382.0,135.0 383.0,129.0 384.0,136.0 385.0,132.0 386.0,137.0 387.0,136.0 388.0,141.0 389.0,138.0 390.0,145.0 391.0,141.0 392.0,148.0 393.0,143.0 394.0,148.0 395.0,145.0 396.0,150.0 397.0,148.0 398.0,151.0 399.0,152.0 400.0,150.0 401.0,154.0 402.0,151.0 403.0,153.0 404.0,154.0 405.0,151.0 406.0,153.0 407.0,153.0 408.0,153.0 409.0,156.0 410.0,153.0 411.0,155.0 412.0,155.0 413.0,155.0 414.0,156.0 415.0,155.0 416.0,160.0 417.0,160.0 418.0,159.0 419.0,163.0 420.0,166.0 421.0,166.0 422.0,168.0 423.0,168.0 424.0,173.0 425.0,169.0 426.0,173.0 427.0,170.0 428.0,172.0 429.0,170.0 430.0,172.0 431.0,173.0 432.0,172.0 433.0,175.0 434.0,175.0 435.0,180.0 436.0,178.0 437.0,182.0 438.0,179.0 439.0,179.0 440.0,180.0 441.0,178.0 442.0,181.0 443.0,179.0 444.0,183.0 445.0,178.0 446.0,185.0 447.0,180.0 448.0,185.0 449.0,183.0 450.0,185.0 451.0,189.0 452.0,186.0 453.0,187.0 454.0,193.0 455.0,193.0 456.0,196.0 457.0,199.0 458.0,201.0 459.0,201.0 460.0,204.0 461.0,208.0 462.0,207.0 463.0,210.0 464.0,215.0 465.0,212.0 466.0,214.0 467.0,217.0 468.0,219.0 469.0,221.0 470.0,222.0 471.0,226.0 472.0,226.0 473.0,224.0 474.0,227.0 475.0,229.0 476.0,227.0 477.0,229.0 478.0,229.0 479.0,230.0 480.0,230.0 481.0,233.0 482.0,231.0 483.0,236.0 484.0,235.0 485.0,235.0 486.0,241.0 487.0,240.0 488.0,243.0 489.0,242.0 490.0,239.0 491.0,243.0 492.0,244.0 493.0,242.0 494.0,244.0 495.0,245.0 496.0,247.0 497.0,248.0 498.0,248.0 499.0,247.0 500.0,248.0 501.0,248.0 502.0,251.0 503.0,253.0 504.0,253.0 505.0,258.0 506.0,256.0 507.0,258.0 508.0,261.0 509.0,257.0 510.0,260.0 511.0,257.0 512.0,256.0 513.0,256.0 514.0,254.0 515.0,256.0 516.0,252.0 517.0,250.0 518.0,247.0 519.0,247.0 520.0,241.0 521.0,242.0 522.0,241.0 523.0,238.0 524.0,238.0 525.0,235.0 526.0,236.0 527.0,234.0 528.0,236.0 529.0,230.0 530.0,234.0 531.0,230.0 532.0,232.0 533.0,229.0 534.0,233.0 535.0,229.0 536.0,230.0 537.0,227.0 538.0,228.0 539.0,228.0 540.0,227.0 541.0,228.0 542.0,225.0 543.0,227.0 544.0,224.0 545.0,226.0 546.0,224.0 547.0,224.0 548.0,223.0 549.0,223.0 550.0,222.0 551.0,222.0 552.0,221.0 553.0,220.0 554.0,221.0 555.0,217.0 556.0,220.0 557.0,215.0 558.0,216.0 559.0,216.0 560.0,213.0 561.0,213.0 562.0,210.0 563.0,213.0 564.0,210.0 565.0,210.0 566.0,209.0 567.0,210.0 568.0,210.0 569.0,209.0 570.0,210.0 571.0,213.0 572.0,209.0 573.0,215.0 574.0,209.0 575.0,217.0 576.0,211.0 577.0,214.0 578.0,218.0 579.0,214.0 580.0,219.0 581.0,217.0 582.0,218.0 583.0,216.0 584.0,220.0 585.0,222.0 586.0,217.0 587.0,223.0 588.0,223.0 589.0,224.0 590.0,224.0 591.0,225.0 592.0,231.0 593.0,225.0 594.0,233.0 595.0,231.0 596.0,235.0 597.0,235.0 598.0,240.0 599.0,237.0 600.0,245.0 601.0,240.0 602.0,246.0 603.0,246.0 604.0,249.0 605.0,248.0 606.0,252.0 607.0,252.0 608.0,254.0 609.0,255.0 610.0,256.0 611.0,256.0 612.0,260.0 613.0,262.0 614.0,258.0 615.0,265.0 616.0,262.0 617.0,263.0 618.0,265.0 619.0,262.0 620.0,264.0 621.0,264.0 622.0,265.0 623.0,263.0 624.0,266.0 625.0,265.0 626.0,264.0 627.0,267.0 628.0,266.0 629.0,262.0 630.0,267.0 631.0,265.0 632.0,263.0 633.0,262.0 634.0,263.0 635.0,260.0 636.0,260.0 637.0,263.0 638.0,258.0 639.0,265.0 640.0,261.0 641.0,265.0 642.0,262.0 643.0,271.0 644.0,266.0 645.0,274.0 646.0,270.0 647.0,275.0 648.0,276.0 649.0,279.0 650.0,275.0 651.0,282.0 652.0,283.0 653.0,281.0 654.0,282.0 655.0,287.0 656.0,286.0" fill="none" stroke="#00bfff" />
	<polyline points="57.0,41.0 58.0,12.0 59.0,37.0 60.0,15.0 61.0,33.0 62.0,16.0 63.0,29.0 64.0,16.0 65.0,25.0 66.0,16.0 67.0,22.0 68.0,15.0 69.0,20.0 70.0,15.0 71.0,18.0 72.0,16.0 73.0,19.0 74.0,18.0 75.0,22.0 76.0,22.0 77.0,27.0 78.0,26.0 79.0,30.0 80.0,28.0 81.0,33.0 82.0,35.0 83.0,36.0 84.0,39.0 85.0,39.0 86.0,43.0 87.0,43.0 88.0,44.0 89.0,47.0 90.0,47.0 91.0,47.0 92.0,48.0 93.0,51.0 94.0,49.0 95.0,52.0 96.0,50.0 97.0,50.0 98.0,52.0 99.0,50.0 100.0,53.0 101.0,50.0 102.0,53.0 103.0,51.0 104.0,54.0 105.0,50.0 106.0,53.0 107.0,51.0 108.0,52.0 109.0,50.0 110.0,52.0 111.0,48.0 112.0,53.0 113.0,47.0 114.0,49.0 115.0,46.0 116.0,47.0 117.0,46.0 118.0,46.0 119.0,45.0 120.0,47.0 121.0,45.0 122.0,47.0 123.0,48.0 124.0,48.0 125.0,48.0 126.0,51.0 127.0,50.0 128.0,52.0 129.0,54.0 130.0,54.0 131.0,59.0 132.0,57.0 133.0,60.0 134.0,61.0 135.0,62.0 136.0,67.0 137.0,65.0 138.0,69.0 139.0,74.0 140.0,70.0 141.0,76.0 142.0,74.0 143.0,77.0 144.0,80.0 145.0,77.0 146.0,81.0 147.0,82.0 148.0,86.0 149.0,85.0 150.0,91.0 151.0,91.0 152.0,89.0 153.0,95.0 154.0,89.0 155.0,92.0 156.0,92.0 157.0,92.0 158.0,88.0 159.0,91.0 160.0,87.0 161.0,89.0 162.0,83.0 163.0,85.0 164.0,83.0 165.0,83.0 166.0,81.0 167.0,84.0 168.0,79.0 169.0,81.0 170.0,81.0 171.0,79.0 172.0,77.0 173.0,79.0 174.0,74.0 175.0,79.0 176.0,74.0 177.0,78.0 178.0,76.0 179.0,79.0 180.0,73.0 181.0,78.0 182.0,72.0 183.0,74.0 184.0,69.0 185.0,67.0 186.0,66.0 187.0,62.0 188.0,61.0 189.0,58.0 190.0,57.0 191.0,55.0 192.0,54.0 193.0,51.0 194.0,51.0 195.0,49.0 196.0,46.0 197.0,47.0 198.0,44.0 199.0,45.0 200.0,42.0 201.0,45.0 202.0,42.0 203.0,44.0 204.0,43.0 205.0,44.0 206.0,46.0 207.0,46.0 208.0,48.0 209.0,49.0 210.0,51.0 211.0,52.0 212.0,51.0 213.0,57.0 214.0,53.0 215.0,58.0 216.0,58.0 217.0,59.0 218.0,65.0 219.0,63.0 220.0,68.0 221.0,70.0 222.0,73.0 223.0,78.0 224.0,78.0 225.0,84.0 226.0,84.0 227.0,91.0 228.0,89.0 229.0,98.0 230.0,98.0 231.0,106.0 232.0,108.0 233.0,117.0 234.0,119.0 235.0,125.0 236.0,128.0 237.0,134.0 238.0,137.0 239.0,141.0 240.0,142.0 241.0,149.0 242.0,148.0 243.0,154.0 244.0,154.0 245.0,158.0 246.0,158.0 247.0,158.0 248.0,159.0 249.0,161.0 250.0,164.0 251.0,165.0 252.0,165.0 253.0,168.0 254.0,170.0 255.0,172.0 256.0,171.0 257.0,173.0 258.0,171.0 259.0,173.0 260.0,172.0 261.0,172.0 262.0,174.0 263.0,174.0 264.0,174.0 265.0,175.0 266.0,172.0 267.0,173.0 268.0,170.0 269.0,168.0 270.0,167.0 271.0,164.0 272.0,162.0 273.0,157.0 274.0,155.0 275.0,151.0 276.0,146.0 277.0,147.0 278.0,142.0 279.0,142.0 280.0,140.0 281.0,140.0 282.0,137.0 283.0,140.0 284.0,134.0 285.0,139.0 286.0,133.0 287.0,139.0 288.0,132.0 289.0,133.0 290.0,134.0 291.0,133.0 292.0,131.0 293.0,133.0 294.0,133.0 295.0,133.0 296.0,130.0 297.0,128.0 298.0,132.0 299.0,131.0 300.0,131.0 301.0,134.0 302.0,130.0 303.0,135.0 304.0,136.0 305.0,136.0 306.0,136.0 307.0,137.0 308.0,141.0 309.0,141.0 310.0,142.0 311.0,142.0 312.0,144.0 313.0,145.0 314.0,144.0 315.0,149.0 316.0,145.0 317.0,149.0 318.0,152.0 319.0,151.0 320.0,154.0 321.0,153.0 322.0,164.0 323.0,160.0 324.0,170.0 325.0,171.0 326.0,174.0 327.0,177.0 328.0,181.0 329.0,184.0 330.0,187.0 331.0,188.0 332.0,189.0 333.0,192.0 334.0,191.0 335.0,193.0 336.0,187.0 337.0,189.0 338.0,185.0 339.0,184.0 340.0,180.0 341.0,179.0 342.0,179.0 343.0,182.0 344.0,178.0 345.0,183.0 346.0,176.0 347.0,182.0 348.0,183.0 349.0,181.0 350.0,187.0 351.0,180.0 352.0,187.0 353.0,187.0 354.0,191.0 355.0,188.0 356.0,191.0 357.0,190.0 358.0,192.0 359.0,194.0 360.0,188.0 361.0,197.0 362.0,194.0 363.0,197.0 364.0,198.0 365.0,201.0 366.0,202.0 367.0,199.0 368.0,202.0 369.0,202.0 370.0,201.0 371.0,203.0 372.0,205.0 373.0,203.0 374.0,208.0 375.0,203.0 376.0,203.0 377.0,201.0 378.0,200.0 379.0,196.0 380.0,194.0 381.0,194.0 382.0,191.0 383.0,190.0 384.0,188.0 385.0,185.0 386.0,188.0 387.0,182.0 388.0,183.0 389.0,182.0 390.0,180.0 391.0,177.0 392.0,179.0 393.0,176.0 394.0,180.0 395.0,174.0 396.0,178.0 397.0,171.0 398.0,174.0 399.0,173.0 400.0,170.0 401.0,170.0 402.0,167.0 403.0,170.0 404.0,167.0 405.0,169.0 406.0,166.0 407.0,171.0 408.0,165.0 409.0,177.0 410.0,162.0 411.0,174.0 412.0,174.0 413.0,175.0 414.0,176.0 415.0,177.0 416.0,173.0 417.0,175.0 418.0,176.0 419.0,173.0 420.0,178.0 421.0,175.0 422.0,179.0 423.0,180.0 424.0,181.0 425.0,179.0 426.0,184.0 427.0,180.0 428.0,182.0 429.0,185.0 430.0,185.0 431.0,185.0 432.0,187.0 433.0,184.0 434.0,186.0 435.0,187.0 436.0,185.0 437.0,187.0 438.0,184.0 439.0,188.0 440.0,185.0 441.0,187.0 442.0,182.0 443.0,184.0 444.0,183.0 445.0,180.0 446.0,183.0 447.0,180.0 448.0,183.0 449.0,180.0 450.0,186.0 451.0,180.0 452.0,185.0 453.0,186.0 454.0,183.0 455.0,184.0 456.0,186.0 457.0,182.0 458.0,184.0 459.0,181.0 460.0,182.0 461.0,181.0 462.0,183.0 463.0,180.0 464.0,179.0 465.0,179.0 466.0,178.0 467.0,179.0 468.0,174.0 469.0,178.0 470.0,176.0 471.0,175.0 472.0,178.0 473.0,176.0 474.0,180.0 475.0,177.0 476.0,181.0 477.0,179.0 478.0,181.0 479.0,180.0 480.0,182.0 481.0,184.0 482.0,182.0 483.0,182.0 484.0,186.0 485.0,188.0 486.0,192.0 487.0,191.0 488.0,192.0 489.0,194.0 490.0,194.0 491.0,195.0 492.0,196.0 493.0,197.0 494.0,201.0 495.0,195.0 496.0,203.0 497.0,200.0 498.0,202.0 499.0,203.0 500.0,202.0 501.0,202.0 502.0,205.0 503.0,205.0 504.0,206.0 505.0,204.0 506.0,208.0 507.0,207.0 508.0,210.0 509.0,211.0 510.0,209.0 511.0,209.0 512.0,210.0 513.0,209.0 514.0,214.0 515.0,208.0 516.0,211.0 517.0,212.0 518.0,208.0 519.0,210.0 520.0,209.0 521.0,208.0 522.0,211.0 523.0,208.0 524.0,209.0 525.0,210.0 526.0,214.0 527.0,205.0 528.0,216.0 529.0,213.0 530.0,216.0 531.0,215.0 532.0,219.0 533.0,219.0 534.0,222.0 535.0,226.0 536.0,223.0 537.0,228.0 538.0,227.0 539.0,231.0 540.0,233.0 541.0,232.0 542.0,235.0 543.0,236.0 544.0,237.0 545.0,236.0 546.0,240.0 547.0,237.0 548.0,238.0 549.0,239.0 550.0,240.0 551.0,241.0 552.0,242.0 553.0,243.0 554.0,243.0 555.0,244.0 556.0,245.0 557.0,245.0 558.0,245.0 559.0,248.0 560.0,247.0 561.0,245.0 562.0,254.0 563.0,253.0 564.0,254.0 565.0,259.0 566.0,255.0 567.0,259.0 568.0,261.0 569.0,261.0 570.0,262.0 571.0,264.0 572.0,262.0 573.0,266.0 574.0,264.0 575.0,266.0 576.0,265.0 577.0,266.0 578.0,265.0 579.0,264.0 580.0,266.0 581.0,269.0 582.0,268.0 583.0,267.0 584.0,270.0 585.0,271.0 586.0,271.0 587.0,270.0 588.0,272.0 589.0,270.0 590.0,273.0 591.0,266.0 592.0,275.0 593.0,269.0 594.0,275.0 595.0,269.0 596.0,278.0 597.0,273.0 598.0,277.0 599.0,279.0 600.0,282.0 601.0,280.0 602.0,284.0 603.0,282.0 604.0,289.0 605.0,284.0 606.0,287.0 607.0,286.0 608.0,289.0 609.0,289.0 610.0,291.0 611.0,288.0 612.0,291.0 613.0,290.0 614.0,290.0 615.0,294.0 616.0,290.0 617.0,291.0 618.0,295.0 619.0,291.0 620.0,296.0 621.0,292.0 622.0,294.0 623.0,296.0 624.0,296.0 625.0,298.0 626.0,296.0 627.0,299.0 628.0,299.0 629.0,302.0 630.0,297.0 631.0,302.0 632.0,299.0 633.0,300.0 634.0,298.0 635.0,297.0 636.0,295.0 637.0,297.0 638.0,293.0 639.0,295.0 640.0,291.0 641.0,292.0 642.0,287.0 643.0,289.0 644.0,286.0 645.0,284.0 646.0,282.0 647.0,286.0 648.0,281.0 649.0,284.0 650.0,283.0 651.0,286.0 652.0,282.0 653.0,287.0 654.0,280.0 655.0,289.0 656.0,284.0" fill="none" stroke="#4876ff" />
	<polyline points="57.0,41.0 58.0,12.0 59.0,37.0 60.0,15.0 61.0,34.0 62.0,18.0 63.0,31.0 64.0,18.0 65.0,28.0 66.0,18.0 67.0,25.0 68.0,19.0 69.0,24.0 70.0,19.0 71.0,23.0 72.0,21.0 73.0,25.0 74.0,27.0 75.0,29.0 76.0,31.0 77.0,36.0 78.0,35.0 79.0,39.0 80.0,40.0 81.0,41.0 82.0,42.0 83.0,43.0 84.0,42.0 85.0,46.0 86.0,45.0 87.0,47.0 88.0,45.0 89.0,48.0 90.0,46.0 91.0,47.0 92.0,47.0 93.0,46.0 94.0,45.0 95.0,48.0 96.0,44.0 97.0,45.0 98.0,48.0 99.0,44.0 100.0,48.0 101.0,44.0 102.0,46.0 103.0,44.0 104.0,45.0 105.0,48.0 106.0,44.0 107.0,49.0 108.0,45.0 109.0,46.0 110.0,46.0 111.0,46.0 112.0,44.0 113.0,45.0 114.0,42.0 115.0,40.0 116.0,41.0 117.0,37.0 118.0,40.0 119.0,36.0 120.0,33.0 121.0,35.0 122.0,36.0 123.0,34.0 124.0,32.0 125.0,34.0 126.0,32.0 127.0,35.0 128.0,31.0 129.0,37.0 130.0,33.0 131.0,33.0 132.0,32.0 133.0,34.0 134.0,30.0 135.0,32.0 136.0,32.0 137.0,31.0 138.0,33.0 139.0,31.0 140.0,34.0 141.0,32.0 142.0,35.0 143.0,35.0 144.0,34.0 145.0,39.0 146.0,40.0 147.0,40.0 148.0,44.0 149.0,44.0 150.0,49.0 151.0,47.0 152.0,54.0 153.0,52.0 154.0,55.0 155.0,56.0 156.0,60.0 157.0,59.0 158.0,62.0 159.0,64.0 160.0,67.0 161.0,67.0 162.0,70.0 163.0,72.0 164.0,74.0 165.0,74.0 166.0,78.0 167.0,79.0 168.0,79.0 169.0,84.0 170.0,83.0 171.0,90.0 172.0,88.0 173.0,92.0 174.0,94.0 175.0,96.0 176.0,98.0 177.0,99.0 178.0,101.0 179.0,102.0 180.0,102.0 181.0,103.0 182.0,104.0 183.0,108.0 184.0,105.0 185.0,106.0 186.0,106.0 187.0,107.0 188.0,108.0 189.0,107.0 190.0,110.0 191.0,107.0 192.0,109.0 193.0,109.0 194.0,111.0 195.0,107.0 196.0,108.0 197.0,113.0 198.0,111.0 199.0,111.0 200.0,114.0 201.0,114.0 202.0,112.0 203.0,117.0 204.0,114.0 205.0,118.0 206.0,118.0 207.0,120.0 208.0,117.0 209.0,118.0 210.0,115.0 211.0,118.0 212.0,116.0 213.0,116.0 214.0,112.0 215.0,113.0 216.0,120.0 217.0,103.0 218.0,117.0 219.0,115.0 220.0,116.0 221.0,113.0 222.0,112.0 223.0,114.0 224.0,107.0 225.0,113.0 226.0,103.0 227.0,113.0 228.0,103.0 229.0,108.0 230.0,105.0 231.0,104.0 232.0,105.0 233.0,103.0 234.0,101.0 235.0,103.0 236.0,101.0 237.0,99.0 238.0,104.0 239.0,99.0 240.0,103.0 241.0,99.0 242.0,100.0 243.0,101.0 244.0,98.0 245.0,103.0 246.0,96.0 247.0,98.0 248.0,100.0 249.0,94.0 250.0,98.0 251.0,97.0 252.0,95.0 253.0,94.0 254.0,94.0 255.0,93.0 256.0,94.0 257.0,91.0 258.0,91.0 259.0,90.0 260.0,87.0 261.0,87.0 262.0,86.0 263.0,87.0 264.0,84.0 265.0,86.0 266.0,81.0 267.0,83.0 268.0,84.0 269.0,80.0 270.0,81.0 271.0,82.0 272.0,78.0 273.0,79.0 274.0,75.0 275.0,79.0 276.0,77.0 277.0,81.0 278.0,82.0 279.0,85.0 280.0,86.0 281.0,93.0 282.0,91.0 283.0,94.0 284.0,95.0 285.0,98.0 286.0,99.0 287.0,102.0 288.0,102.0 289.0,106.0 290.0,105.0 291.0,108.0 292.0,108.0 293.0,109.0 294.0,112.0 295.0,113.0 296.0,115.0 297.0,116.0 298.0,117.0 299.0,118.0 300.0,119.0 301.0,119.0 302.0,120.0 303.0,119.0 304.0,121.0 305.0,117.0 306.0,119.0 307.0,118.0 308.0,119.0 309.0,117.0 310.0,120.0 311.0,118.0 312.0,117.0 313.0,117.0 314.0,118.0 315.0,117.0 316.0,119.0 317.0,117.0 318.0,118.0 319.0,116.0 320.0,118.0 321.0,116.0 322.0,118.0 323.0,117.0 324.0,118.0 325.0,116.0 326.0,117.0 327.0,114.0 328.0,109.0 329.0,107.0 330.0,101.0 331.0,99.0 332.0,90.0 333.0,88.0 334.0,82.0 335.0,79.0 336.0,76.0 337.0,75.0 338.0,74.0 339.0,74.0 340.0,72.0 341.0,74.0 342.0,72.0 343.0,72.0 344.0,72.0 345.0,72.0 346.0,70.0 347.0,73.0 348.0,70.0 349.0,72.0 350.0,72.0 351.0,71.0 352.0,72.0 353.0,72.0 354.0,71.0 355.0,72.0 356.0,71.0 357.0,73.0 358.0,72.0 359.0,74.0 360.0,73.0 361.0,74.0 362.0,75.0 363.0,75.0 364.0,78.0 365.0,77.0 366.0,77.0 367.0,80.0 368.0,79.0 369.0,83.0 370.0,83.0 371.0,86.0 372.0,88.0 373.0,87.0 374.0,92.0 375.0,93.0 376.0,95.0 377.0,95.0 378.0,97.0 379.0,97.0 380.0,99.0 381.0,96.0 382.0,100.0 383.0,99.0 384.0,102.0 385.0,100.0 386.0,103.0 387.0,99.0 388.0,105.0 389.0,98.0 390.0,106.0 391.0,102.0 392.0,107.0 393.0,105.0 394.0,108.0 395.0,111.0 396.0,109.0 397.0,114.0 398.0,110.0 399.0,114.0 400.0,112.0 401.0,111.0 402.0,110.0 403.0,108.0 404.0,108.0 405.0,106.0 406.0,106.0 407.0,107.0 408.0,107.0 409.0,105.0 410.0,108.0 411.0,105.0 412.0,108.0 413.0,106.0 414.0,108.0 415.0,107.0 416.0,109.0 417.0,109.0 418.0,109.0 419.0,110.0 420.0,111.0 421.0,110.0 422.0,113.0 423.0,111.0 424.0,114.0 425.0,113.0 426.0,116.0 427.0,114.0 428.0,117.0 429.0,116.0 430.0,116.0 431.0,116.0 432.0,115.0 433.0,115.0 434.0,116.0 435.0,117.0 436.0,116.0 437.0,119.0 438.0,117.0 439.0,118.0 440.0,117.0 441.0,118.0 442.0,117.0 443.0,119.0 444.0,120.0 445.0,121.0 446.0,123.0 447.0,122.0 448.0,125.0 449.0,125.0 450.0,128.0 451.0,127.0 452.0,128.0 453.0,129.0 454.0,129.0 455.0,128.0 456.0,130.0 457.0,128.0 458.0,129.0 459.0,127.0 460.0,128.0 461.0,125.0 462.0,129.0 463.0,126.0 464.0,128.0 465.0,129.0 466.0,131.0 467.0,131.0 468.0,134.0 469.0,133.0 470.0,137.0 471.0,137.0 472.0,139.0 473.0,142.0 474.0,141.0 475.0,142.0 476.0,142.0 477.0,142.0 478.0,142.0 479.0,141.0 480.0,142.0 481.0,142.0 482.0,142.0 483.0,140.0 484.0,141.0 485.0,140.0 486.0,141.0 487.0,144.0 488.0,145.0 489.0,147.0 490.0,145.0 491.0,146.0 492.0,146.0 493.0,145.0 494.0,146.0 495.0,146.0 496.0,142.0 497.0,148.0 498.0,145.0 499.0,148.0 500.0,146.0 501.0,148.0 502.0,146.0 503.0,145.0 504.0,147.0 505.0,145.0 506.0,147.0 507.0,149.0 508.0,148.0 509.0,147.0 510.0,147.0 511.0,146.0 512.0,144.0 513.0,143.0 514.0,145.0 515.0,146.0 516.0,145.0 517.0,145.0 518.0,141.0 519.0,142.0 520.0,140.0 521.0,141.0 522.0,139.0 523.0,139.0 524.0,140.0 525.0,141.0 526.0,142.0 527.0,141.0 528.0,145.0 529.0,143.0 530.0,145.0 531.0,144.0 532.0,147.0 533.0,146.0 534.0,146.0 535.0,147.0 536.0,146.0 537.0,144.0 538.0,147.0 539.0,148.0 540.0,147.0 541.0,152.0 542.0,151.0 543.0,152.0 544.0,156.0 545.0,154.0 546.0,155.0 547.0,155.0 548.0,154.0 549.0,153.0 550.0,151.0 551.0,151.0 552.0,149.0 553.0,150.0 554.0,149.0 555.0,149.0 556.0,150.0 557.0,151.0 558.0,154.0 559.0,161.0 560.0,160.0 561.0,162.0 562.0,163.0 563.0,164.0 564.0,162.0 565.0,164.0 566.0,161.0 567.0,164.0 568.0,162.0 569.0,163.0 570.0,160.0 571.0,162.0 572.0,161.0 573.0,163.0 574.0,161.0 575.0,163.0 576.0,164.0 577.0,164.0 578.0,168.0 579.0,165.0 580.0,169.0 581.0,166.0 582.0,171.0 583.0,167.0 584.0,172.0 585.0,171.0 586.0,175.0 587.0,170.0 588.0,178.0 589.0,172.0 590.0,180.0 591.0,173.0 592.0,181.0 593.0,176.0 594.0,182.0 595.0,178.0 596.0,183.0 597.0,177.0 598.0,181.0 599.0,177.0 600.0,180.0 601.0,175.0 602.0,179.0 603.0,176.0 604.0,178.0 605.0,178.0 606.0,180.0 607.0,177.0 608.0,180.0 609.0,177.0 610.0,180.0 611.0,178.0 612.0,180.0 613.0,179.0 614.0,180.0 615.0,179.0 616.0,181.0 617.0,175.0 618.0,179.0 619.0,176.0 620.0,179.0 621.0,175.0 622.0,181.0 623.0,176.0 624.0,182.0 625.0,179.0 626.0,184.0 627.0,182.0 628.0,184.0 629.0,183.0 630.0,186.0 631.0,182.0 632.0,185.0 633.0,182.0 634.0,184.0 635.0,184.0 636.0,185.0 637.0,186.0 638.0,186.0 639.0,187.0 640.0,181.0 641.0,188.0 642.0,182.0 643.0,186.0 644.0,182.0 645.0,189.0 646.0,182.0 647.0,187.0 648.0,182.0 649.0,189.0 650.0,183.0 651.0,190.0 652.0,184.0 653.0,189.0 654.0,188.0 655.0,192.0 656.0,191.0" fill="none" stroke="#aeeeee" />
	<polyline points="57.0,41.0 58.0,12.0 59.0,37.0 60.0,15.0 61.0,33.0 62.0,17.0 63.0,30.0 64.0,17.0 65.0,26.0 66.0,17.0 67.0,23.0 68.0,16.0 69.0,20.0 70.0,15.0 71.0,18.0 72.0,15.0 73.0,17.0 74.0,14.0 75.0,17.0 76.0,16.0 77.0,17.0 78.0,19.0 79.0,19.0 80.0,23.0 81.0,22.0 82.0,26.0 83.0,26.0 84.0,26.0 85.0,33.0 86.0,30.0 87.0,33.0 88.0,33.0 89.0,35.0 90.0,35.0 91.0,33.0 92.0,37.0 93.0,33.0 94.0,39.0 95.0,33.0 96.0,36.0 97.0,35.0 98.0,38.0 99.0,32.0 100.0,36.0 101.0,34.0 102.0,33.0 103.0,32.0 104.0,34.0 105.0,31.0 106.0,35.0 107.0,35.0 108.0,38.0 109.0,36.0 110.0,44.0 111.0,40.0 112.0,43.0 113.0,45.0 114.0,46.0 115.0,48.0 116.0,49.0 117.0,51.0 118.0,55.0 119.0,55.0 120.0,61.0 121.0,61.0 122.0,62.0 123.0,66.0 124.0,67.0 125.0,69.0 126.0,68.0 127.0,69.0 128.0,72.0 129.0,71.0 130.0,72.0 131.0,73.0 132.0,71.0 133.0,76.0 134.0,70.0 135.0,72.0 136.0,71.0 137.0,73.0 138.0,74.0 139.0,73.0 140.0,73.0 141.0,74.0 142.0,76.0 143.0,78.0 144.0,76.0 145.0,80.0 146.0,82.0 147.0,85.0 148.0,82.0 149.0,84.0 150.0,85.0 151.0,84.0 152.0,87.0 153.0,84.0 154.0,88.0 155.0,86.0 156.0,84.0 157.0,86.0 158.0,83.0 159.0,85.0 160.0,84.0 161.0,82.0 162.0,84.0 163.0,82.0 164.0,83.0 165.0,84.0 166.0,80.0 167.0,84.0 168.0,80.0 169.0,81.0 170.0,82.0 171.0,83.0 172.0,81.0 173.0,83.0 174.0,83.0 175.0,82.0 176.0,82.0 177.0,86.0 178.0,84.0 179.0,84.0 180.0,87.0 181.0,87.0 182.0,88.0 183.0,89.0 184.0,92.0 185.0,94.0 186.0,91.0 187.0,97.0 188.0,94.0 189.0,99.0 190.0,100.0 191.0,102.0 192.0,102.0 193.0,107.0 194.0,108.0 195.0,109.0 196.0,111.0 197.0,116.0 198.0,115.0 199.0,119.0 200.0,122.0 201.0,121.0 202.0,128.0 203.0,129.0 204.0,127.0 205.0,132.0 206.0,129.0 207.0,132.0 208.0,130.0 209.0,126.0 210.0,130.0 211.0,126.0 212.0,126.0 213.0,127.0 214.0,125.0 215.0,124.0 216.0,124.0 217.0,126.0 218.0,125.0 219.0,128.0 220.0,125.0 221.0,132.0 222.0,128.0 223.0,129.0 224.0,130.0 225.0,130.0 226.0,126.0 227.0,129.0 228.0,124.0 229.0,131.0 230.0,119.0 231.0,128.0 232.0,125.0 233.0,130.0 234.0,123.0 235.0,126.0 236.0,124.0 237.0,125.0 238.0,120.0 239.0,122.0 240.0,120.0 241.0,120.0 242.0,120.0 243.0,118.0 244.0,119.0 245.0,121.0 246.0,118.0 247.0,118.0 248.0,120.0 249.0,121.0 250.0,120.0 251.0,120.0 252.0,120.0 253.0,120.0 254.0,120.0 255.0,119.0 256.0,118.0 257.0,123.0 258.0,118.0 259.0,123.0 260.0,118.0 261.0,123.0 262.0,117.0 263.0,125.0 264.0,118.0 265.0,120.0 266.0,118.0 267.0,121.0 268.0,117.0 269.0,119.0 270.0,120.0 271.0,114.0 272.0,119.0 273.0,115.0 274.0,119.0 275.0,115.0 276.0,118.0 277.0,119.0 278.0,120.0 279.0,120.0 280.0,122.0 281.0,125.0 282.0,119.0 283.0,127.0 284.0,119.0 285.0,129.0 286.0,123.0 287.0,116.0 288.0,126.0 289.0,129.0 290.0,124.0 291.0,123.0 292.0,124.0 293.0,120.0 294.0,123.0 295.0,121.0 296.0,117.0 297.0,123.0 298.0,120.0 299.0,124.0 300.0,120.0 301.0,129.0 302.0,121.0 303.0,129.0 304.0,123.0 305.0,127.0 306.0,126.0 307.0,129.0 308.0,122.0 309.0,128.0 310.0,122.0 311.0,126.0 312.0,121.0 313.0,122.0 314.0,123.0 315.0,124.0 316.0,125.0 317.0,124.0 318.0,124.0 319.0,127.0 320.0,128.0 321.0,128.0 322.0,130.0 323.0,131.0 324.0,134.0 325.0,135.0 326.0,134.0 327.0,139.0 328.0,141.0 329.0,139.0 330.0,146.0 331.0,144.0 332.0,145.0 333.0,148.0 334.0,144.0 335.0,148.0 336.0,149.0 337.0,147.0 338.0,151.0 339.0,149.0 340.0,154.0 341.0,151.0 342.0,152.0 343.0,154.0 344.0,151.0 345.0,153.0 346.0,152.0 347.0,155.0 348.0,154.0 349.0,156.0 350.0,153.0 351.0,159.0 352.0,158.0 353.0,161.0 354.0,160.0 355.0,166.0 356.0,162.0 357.0,167.0 358.0,167.0 359.0,165.0 360.0,164.0 361.0,165.0 362.0,161.0 363.0,161.0 364.0,162.0 365.0,161.0 366.0,160.0 367.0,164.0 368.0,163.0 369.0,160.0 370.0,165.0 371.0,162.0 372.0,163.0 373.0,162.0 374.0,158.0 375.0,158.0 376.0,156.0 377.0,158.0 378.0,153.0 379.0,155.0 380.0,157.0 381.0,153.0 382.0,152.0 383.0,158.0 384.0,152.0 385.0,154.0 386.0,155.0 387.0,152.0 388.0,156.0 389.0,153.0 390.0,154.0 391.0,155.0 392.0,154.0 393.0,155.0 394.0,151.0 395.0,156.0 396.0,153.0 397.0,154.0 398.0,156.0 399.0,154.0 400.0,159.0 401.0,155.0 402.0,157.0 403.0,155.0 404.0,159.0 405.0,156.0 406.0,160.0 407.0,158.0 408.0,163.0 409.0,157.0 410.0,163.0 411.0,161.0 412.0,161.0 413.0,159.0 414.0,164.0 415.0,157.0 416.0,163.0 417.0,158.0 418.0,166.0 419.0,160.0 420.0,163.0 421.0,161.0 422.0,164.0 423.0,165.0 424.0,161.0 425.0,163.0 426.0,162.0 427.0,163.0 428.0,160.0 429.0,164.0 430.0,161.0 431.0,164.0 432.0,163.0 433.0,168.0 434.0,167.0 435.0,172.0 436.0,168.0 437.0,173.0 438.0,171.0 439.0,172.0 440.0,174.0 441.0,170.0 442.0,171.0 443.0,170.0 444.0,173.0 445.0,172.0 446.0,173.0 447.0,173.0 448.0,176.0 449.0,173.0 450.0,179.0 451.0,173.0 452.0,183.0 453.0,177.0 454.0,186.0 455.0,187.0 456.0,191.0 457.0,189.0 458.0,198.0 459.0,199.0 460.0,202.0 461.0,204.0 462.0,208.0 463.0,210.0 464.0,215.0 465.0,213.0 466.0,216.0 467.0,221.0 468.0,217.0 469.0,223.0 470.0,222.0 471.0,222.0 472.0,224.0 473.0,224.0 474.0,224.0 475.0,223.0 476.0,224.0 477.0,222.0 478.0,221.0 479.0,222.0 480.0,220.0 481.0,222.0 482.0,220.0 483.0,221.0 484.0,223.0 485.0,226.0 486.0,227.0 487.0,226.0 488.0,230.0 489.0,230.0 490.0,228.0 491.0,231.0 492.0,229.0 493.0,229.0 494.0,232.0 495.0,229.0 496.0,233.0 497.0,230.0 498.0,232.0 499.0,229.0 500.0,229.0 501.0,231.0 502.0,227.0 503.0,230.0 504.0,228.0 505.0,227.0 506.0,230.0 507.0,225.0 508.0,230.0 509.0,229.0 510.0,228.0 511.0,224.0 512.0,228.0 513.0,223.0 514.0,224.0 515.0,223.0 516.0,220.0 517.0,222.0 518.0,219.0 519.0,218.0 520.0,217.0 521.0,215.0 522.0,214.0 523.0,212.0 524.0,211.0 525.0,209.0 526.0,207.0 527.0,205.0 528.0,207.0 529.0,203.0 530.0,205.0 531.0,204.0 532.0,204.0 533.0,206.0 534.0,206.0 535.0,209.0 536.0,207.0 537.0,209.0 538.0,208.0 539.0,210.0 540.0,210.0 541.0,210.0 542.0,215.0 543.0,209.0 544.0,214.0 545.0,210.0 546.0,214.0 547.0,212.0 548.0,211.0 549.0,213.0 550.0,207.0 551.0,212.0 552.0,208.0 553.0,211.0 554.0,208.0 555.0,208.0 556.0,207.0 557.0,209.0 558.0,205.0 559.0,206.0 560.0,203.0 561.0,206.0 562.0,204.0 563.0,204.0 564.0,206.0 565.0,208.0 566.0,202.0 567.0,208.0 568.0,207.0 569.0,209.0 570.0,204.0 571.0,208.0 572.0,205.0 573.0,204.0 574.0,203.0 575.0,203.0 576.0,202.0 577.0,203.0 578.0,205.0 579.0,201.0 580.0,204.0 581.0,203.0 582.0,202.0 583.0,204.0 584.0,203.0 585.0,201.0 586.0,207.0 587.0,202.0 588.0,209.0 589.0,206.0 590.0,213.0 591.0,211.0 592.0,216.0 593.0,214.0 594.0,219.0 595.0,217.0 596.0,219.0 597.0,213.0 598.0,216.0 599.0,214.0 600.0,212.0 601.0,211.0 602.0,211.0 603.0,206.0 604.0,208.0 605.0,205.0 606.0,206.0 607.0,206.0 608.0,201.0 609.0,205.0 610.0,202.0 611.0,204.0 612.0,202.0 613.0,204.0 614.0,203.0 615.0,203.0 616.0,203.0 617.0,200.0 618.0,204.0 619.0,203.0 620.0,207.0 621.0,205.0 622.0,211.0 623.0,212.0 624.0,212.0 625.0,211.0 626.0,216.0 627.0,212.0 628.0,214.0 629.0,215.0 630.0,215.0 631.0,219.0 632.0,213.0 633.0,221.0 634.0,213.0 635.0,221.0 636.0,213.0 637.0,221.0 638.0,212.0 639.0,219.0 640.0,213.0 641.0,217.0 642.0,212.0 643.0,216.0 644.0,211.0 645.0,219.0 646.0,207.0 647.0,219.0 648.0,211.0 649.0,218.0 650.0,214.0 651.0,218.0 652.0,215.0 653.0,222.0 654.0,215.0 655.0,222.0 656.0,219.0" fill="none" stroke="#00ffff" />
	<polyline points="57.0,5.0 657.0,5.0" fill="none" stroke="#6d6d6d" />
	<polyline points="57.0,305.0 657.0,305.0" fill="none" stroke="#6d6d6d" />
	<polyline points="57.0,305.0 57.0,310.0" fill="none" stroke="#6d6d6d" />
	<polyline points="207.0,305.0 207.0,310.0" fill="none" stroke="#6d6d6d" />
	<polyline points="357.0,305.0 357.0,310.0" fill="none" stroke="#6d6d6d" />
	<polyline points="507.0,305.0 507.0,310.0" fill="none" stroke="#6d6d6d" />
	<polyline points="657.0,305.0 657.0,310.0" fill="none" stroke="#6d6d6d" />
	<polyline points="57.0,5.0 57.0,305.0" fill="none" stroke="#6d6d6d" />
	<polyline points="657.0,5.0 657.0,305.0" fill="none" stroke="#6d6d6d" />
	<polyline points="52.0,5.0 57.0,5.0" fill="none" stroke="#6d6d6d" />
	<polyline points="52.0,80.0 57.0,80.0" fill="none" stroke="#6d6d6d" />
	<polyline points="52.0,155.0 57.0,155.0" fill="none" stroke="#6d6d6d" />
	<polyline points="52.0,230.0 57.0,230.0" fill="none" stroke="#6d6d6d" />
	<polyline points="52.0,305.0 57.0,305.0" fill="none" stroke="#6d6d6d" />
	<text x="57.0" y="323.0" fill="#6d6d6d" font-family="Arial" font-size="9pt" text-anchor="middle">1</text>
	<text x="207.0" y="323.0" fill="#6d6d6d" font-family="Arial" font-size="9pt" text-anchor="middle">150</text>
	<text x="357.0" y="323.0" fill="#6d6d6d" font-family="Arial" font-size="9pt" text-anchor="middle">300</text>
	<text x="507.0" y="323.0" fill="#6d6d6d" font-family="Arial" font-size="9pt" text-anchor="middle">450</text>
	<text x="657.0" y="323.0" fill="#6d6d6d" font-family="Arial" font-size="9pt" text-anchor="middle">600</text>
	<text x="47.0" y="9.0" fill="#6d6d6d" font-family="Arial" font-size="9pt" text-anchor="end">6.28</text>
	<text x="47.0" y="84.0" fill="#6d6d6d" font-family="Arial" font-size="9pt" text-anchor="end">4.69</text>
	<text x="47.0" y="159.0" fill="#6d6d6d" font-family="Arial" font-size="9pt" text-anchor="end">3.09</text>
	<text x="47.0" y="234.0" fill="#6d6d6d" font-family="Arial" font-size="9pt" text-anchor="end">1.5</text>
	<text x="47.0" y="309.0" fill="#6d6d6d" font-family="Arial" font-size="9pt" text-anchor="end">-0.0957</text>
</svg>
