<?xml version="1.0" encoding="UTF-8" standalone="no"?>
<!DOCTYPE svg PUBLIC "-//W3C//DTD SVG 1.1//EN" "http://www.w3.org/Graphics/SVG/1.1/DTD/svg11.dtd">
<svg xmlns="http://www.w3.org/2000/svg"  version="1.1" width="693.0" height="380.0" viewBox="-6.0 -12.0 687.0 368.0">
	<desc>LSD Plot - Sim_10c</desc>
	<polyline points="205.0,6.0 205.0,304.0" fill="none" stroke="#f0f0f0" />
	<polyline points="355.0,6.0 355.0,304.0" fill="none" stroke="#f0f0f0" />
	<polyline points="505.0,6.0 505.0,304.0" fill="none" stroke="#f0f0f0" />
	<polyline points="56.0,80.0 654.0,80.0" fill="none" stroke="#f0f0f0" />
	<polyline points="56.0,155.0 654.0,155.0" fill="none" stroke="#f0f0f0" />
	<polyline points="56.0,230.0 654.0,230.0" fill="none" stroke="#f0f0f0" />
	<text x="5.0" y="345.0" font-family="Arial" font-size="9pt">Y_1</text>
	<text x="31.0" y="345.0" fill="#ff0000" font-family="Arial" font-size="9pt">Y_2</text>
	<text x="57.0" y="345.0" fill="#008000" font-family="Arial" font-size="9pt">Y_3</text>
	<text x="83.0" y="345.0" fill="#d0d000" font-family="Arial" font-size="9pt">Y_4</text>
	<text x="109.0" y="345.0" fill="#fb46bc" font-family="Arial" font-size="9pt">Y_5</text>
	<text x="135.0" y="345.0" fill="#0000ff" font-family="Arial" font-size="9pt">Y_6</text>
	<text x="161.0" y="345.0" fill="#00bfff" font-family="Arial" font-size="9pt">Y_7</text>
	<text x="187.0" y="345.0" fill="#4876ff" font-family="Arial" font-size="9pt">Y_8</text>
	<text x="213.0" y="345.0" fill="#aeeeee" font-family="Arial" font-size="9pt">Y_9</text>
	<text x="239.0" y="345.0" fill="#00ffff" font-family="Arial" font-size="9pt">Y_10</text>
	<polyline points="55.0,304.0 56.0,298.0 57.0,303.0 58.0,299.0 59.0,302.0 60.0,299.0 61.0,301.0 62.0,299.0 63.0,300.0 64.0,298.0 65.0,299.0 66.0,298.0 67.0,298.0 68.0,297.0 69.0,297.0 70.0,296.0 71.0,295.0 72.0,294.0 73.0,294.0 74.0,293.0 75.0,293.0 76.0,292.0 77.0,292.0 78.0,292.0 79.0,291.0 80.0,291.0 81.0,290.0 82.0,291.0 83.0,290.0 84.0,289.0 85.0,289.0 86.0,289.0 87.0,287.0 88.0,287.0 89.0,287.0 90.0,287.0 91.0,286.0 92.0,286.0 93.0,286.0 94.0,286.0 95.0,285.0 96.0,285.0 97.0,285.0 98.0,285.0 99.0,284.0 100.0,283.0 101.0,282.0 102.0,283.0 103.0,282.0 104.0,282.0 105.0,281.0 106.0,280.0 107.0,280.0 108.0,280.0 109.0,279.0 110.0,279.0 111.0,278.0 112.0,278.0 113.0,277.0 114.0,276.0 115.0,275.0 116.0,275.0 117.0,275.0 118.0,275.0 119.0,274.0 120.0,274.0 121.0,273.0 122.0,272.0 123.0,272.0 124.0,271.0 125.0,271.0 126.0,270.0 127.0,270.0 128.0,268.0 129.0,269.0 130.0,268.0 131.0,267.0 132.0,267.0 133.0,266.0 134.0,266.0 135.0,265.0 136.0,265.0 137.0,265.0 138.0,264.0 139.0,264.0 140.0,263.0 141.0,262.0 142.0,263.0 143.0,263.0 144.0,263.0 145.0,263.0 146.0,263.0 147.0,262.0 148.0,263.0 149.0,262.0 150.0,261.0 151.0,260.0 152.0,261.0 153.0,260.0 154.0,259.0 155.0,260.0 156.0,259.0 157.0,260.0 158.0,258.0 159.0,258.0 160.0,258.0 161.0,257.0 162.0,257.0 163.0,257.0 164.0,257.0 165.0,257.0 166.0,256.0 167.0,256.0 168.0,255.0 169.0,256.0 170.0,254.0 171.0,255.0 172.0,254.0 173.0,253.0 174.0,251.0 175.0,251.0 176.0,251.0 177.0,250.0 178.0,250.0 179.0,249.0 180.0,248.0 181.0,247.0 182.0,246.0 183.0,246.0 184.0,244.0 185.0,245.0 186.0,243.0 187.0,243.0 188.0,242.0 189.0,242.0 190.0,241.0 191.0,240.0 192.0,239.0 193.0,239.0 194.0,239.0 195.0,237.0 196.0,237.0 197.0,235.0 198.0,236.0 199.0,234.0 200.0,234.0 201.0,234.0 202.0,232.0 203.0,231.0 204.0,231.0 205.0,230.0 206.0,230.0 207.0,229.0 208.0,229.0 209.0,228.0 210.0,228.0 211.0,227.0 212.0,227.0 213.0,227.0 214.0,227.0 215.0,226.0 216.0,227.0 217.0,226.0 218.0,225.0 219.0,226.0 220.0,225.0 221.0,225.0 222.0,225.0 223.0,225.0 224.0,224.0 225.0,224.0 226.0,224.0 227.0,224.0 228.0,223.0 229.0,224.0 230.0,222.0 231.0,223.0 232.0,221.0 233.0,221.0 234.0,221.0 235.0,221.0 236.0,220.0 237.0,220.0 238.0,219.0 239.0,219.0 240.0,218.0 241.0,218.0 242.0,217.0 243.0,217.0 244.0,217.0 245.0,216.0 246.0,216.0 247.0,215.0 248.0,214.0 249.0,213.0 250.0,213.0 251.0,213.0 252.0,212.0 253.0,212.0 254.0,212.0 255.0,211.0 256.0,211.0 257.0,210.0 258.0,211.0 259.0,209.0 260.0,209.0 261.0,209.0 262.0,208.0 263.0,208.0 264.0,207.0 265.0,206.0 266.0,205.0 267.0,204.0 268.0,203.0 269.0,202.0 270.0,201.0 271.0,202.0 272.0,201.0 273.0,200.0 274.0,200.0 275.0,199.0 276.0,199.0 277.0,199.0 278.0,198.0 279.0,198.0 280.0,198.0 281.0,197.0 282.0,197.0 283.0,196.0 284.0,196.0 285.0,195.0 286.0,194.0 287.0,195.0 288.0,193.0 289.0,194.0 290.0,194.0 291.0,194.0 292.0,193.0 293.0,193.0 294.0,192.0 295.0,192.0 296.0,191.0 297.0,191.0 298.0,191.0 299.0,190.0 300.0,191.0 301.0,189.0 302.0,188.0 303.0,189.0 304.0,189.0 305.0,188.0 306.0,189.0 307.0,189.0 308.0,187.0 309.0,188.0 310.0,187.0 311.0,188.0 312.0,187.0 313.0,186.0 314.0,186.0 315.0,185.0 316.0,186.0 317.0,185.0 318.0,186.0 319.0,186.0 320.0,186.0 321.0,186.0 322.0,186.0 323.0,186.0 324.0,187.0 325.0,186.0 326.0,185.0 327.0,185.0 328.0,185.0 329.0,184.0 330.0,184.0 331.0,183.0 332.0,183.0 333.0,183.0 334.0,181.0 335.0,180.0 336.0,180.0 337.0,178.0 338.0,177.0 339.0,176.0 340.0,173.0 341.0,173.0 342.0,173.0 343.0,172.0 344.0,172.0 345.0,171.0 346.0,171.0 347.0,170.0 348.0,170.0 349.0,169.0 350.0,169.0 351.0,169.0 352.0,168.0 353.0,169.0 354.0,168.0 355.0,168.0 356.0,168.0 357.0,169.0 358.0,167.0 359.0,168.0 360.0,168.0 361.0,169.0 362.0,169.0 363.0,168.0 364.0,169.0 365.0,167.0 366.0,168.0 367.0,167.0 368.0,166.0 369.0,166.0 370.0,166.0 371.0,165.0 372.0,165.0 373.0,164.0 374.0,164.0 375.0,163.0 376.0,162.0 377.0,161.0 378.0,160.0 379.0,160.0 380.0,159.0 381.0,159.0 382.0,159.0 383.0,158.0 384.0,158.0 385.0,157.0 386.0,156.0 387.0,154.0 388.0,154.0 389.0,153.0 390.0,154.0 391.0,152.0 392.0,153.0 393.0,151.0 394.0,150.0 395.0,150.0 396.0,148.0 397.0,148.0 398.0,148.0 399.0,147.0 400.0,148.0 401.0,146.0 402.0,147.0 403.0,144.0 404.0,146.0 405.0,143.0 406.0,144.0 407.0,144.0 408.0,143.0 409.0,143.0 410.0,142.0 411.0,141.0 412.0,140.0 413.0,140.0 414.0,139.0 415.0,139.0 416.0,139.0 417.0,138.0 418.0,138.0 419.0,137.0 420.0,136.0 421.0,135.0 422.0,136.0 423.0,134.0 424.0,136.0 425.0,132.0 426.0,133.0 427.0,131.0 428.0,131.0 429.0,131.0 430.0,131.0 431.0,130.0 432.0,130.0 433.0,129.0 434.0,129.0 435.0,128.0 436.0,126.0 437.0,126.0 438.0,126.0 439.0,125.0 440.0,125.0 441.0,125.0 442.0,124.0 443.0,123.0 444.0,123.0 445.0,123.0 446.0,122.0 447.0,121.0 448.0,119.0 449.0,119.0 450.0,118.0 451.0,117.0 452.0,117.0 453.0,114.0 454.0,115.0 455.0,113.0 456.0,112.0 457.0,112.0 458.0,111.0 459.0,110.0 460.0,108.0 461.0,109.0 462.0,107.0 463.0,107.0 464.0,107.0 465.0,106.0 466.0,104.0 467.0,105.0 468.0,103.0 469.0,104.0 470.0,103.0 471.0,102.0 472.0,103.0 473.0,101.0 474.0,101.0 475.0,101.0 476.0,99.0 477.0,100.0 478.0,100.0 479.0,99.0 480.0,99.0 481.0,99.0 482.0,99.0 483.0,97.0 484.0,98.0 485.0,98.0 486.0,98.0 487.0,98.0 488.0,98.0 489.0,97.0 490.0,98.0 491.0,98.0 492.0,97.0 493.0,98.0 494.0,97.0 495.0,97.0 496.0,98.0 497.0,97.0 498.0,97.0 499.0,96.0 500.0,96.0 501.0,96.0 502.0,95.0 503.0,94.0 504.0,94.0 505.0,93.0 506.0,92.0 507.0,92.0 508.0,92.0 509.0,91.0 510.0,91.0 511.0,90.0 512.0,91.0 513.0,89.0 514.0,89.0 515.0,89.0 516.0,87.0 517.0,87.0 518.0,84.0 519.0,85.0 520.0,85.0 521.0,83.0 522.0,84.0 523.0,82.0 524.0,83.0 525.0,82.0 526.0,83.0 527.0,82.0 528.0,81.0 529.0,82.0 530.0,81.0 531.0,81.0 532.0,81.0 533.0,79.0 534.0,80.0 535.0,80.0 536.0,79.0 537.0,77.0 538.0,78.0 539.0,78.0 540.0,77.0 541.0,76.0 542.0,75.0 543.0,75.0 544.0,74.0 545.0,75.0 546.0,73.0 547.0,72.0 548.0,72.0 549.0,72.0 550.0,70.0 551.0,69.0 552.0,69.0 553.0,69.0 554.0,68.0 555.0,67.0 556.0,67.0 557.0,65.0 558.0,64.0 559.0,64.0 560.0,62.0 561.0,63.0 562.0,61.0 563.0,62.0 564.0,62.0 565.0,60.0 566.0,60.0 567.0,59.0 568.0,58.0 569.0,58.0 570.0,58.0 571.0,57.0 572.0,57.0 573.0,57.0 574.0,56.0 575.0,58.0 576.0,53.0 577.0,56.0 578.0,53.0 579.0,53.0 580.0,52.0 581.0,52.0 582.0,52.0 583.0,50.0 584.0,50.0 585.0,48.0 586.0,49.0 587.0,48.0 588.0,48.0 589.0,47.0 590.0,47.0 591.0,45.0 592.0,44.0 593.0,44.0 594.0,43.0 595.0,42.0 596.0,42.0 597.0,42.0 598.0,41.0 599.0,40.0 600.0,39.0 601.0,39.0 602.0,39.0 603.0,38.0 604.0,38.0 605.0,38.0 606.0,37.0 607.0,38.0 608.0,36.0 609.0,36.0 610.0,36.0 611.0,35.0 612.0,35.0 613.0,34.0 614.0,35.0 615.0,34.0 616.0,34.0 617.0,32.0 618.0,33.0 619.0,32.0 620.0,33.0 621.0,32.0 622.0,32.0 623.0,31.0 624.0,32.0 625.0,30.0 626.0,31.0 627.0,30.0 628.0,30.0 629.0,29.0 630.0,30.0 631.0,29.0 632.0,29.0 633.0,29.0 634.0,28.0 635.0,28.0 636.0,27.0 637.0,27.0 638.0,27.0 639.0,27.0 640.0,25.0 641.0,26.0 642.0,24.0 643.0,24.0 644.0,22.0 645.0,23.0 646.0,21.0 647.0,21.0 648.0,19.0 649.0,20.0 650.0,18.0 651.0,18.0 652.0,16.0 653.0,16.0 654.0,15.0" fill="none" stroke="#000000" />
	<polyline points="55.0,304.0 56.0,299.0 57.0,304.0 58.0,299.0 59.0,303.0 60.0,299.0 61.0,302.0 62.0,300.0 63.0,301.0 64.0,299.0 65.0,301.0 66.0,299.0 67.0,300.0 68.0,298.0 69.0,299.0 70.0,297.0 71.0,298.0 72.0,297.0 73.0,297.0 74.0,297.0 75.0,297.0 76.0,296.0 77.0,296.0 78.0,296.0 79.0,296.0 80.0,296.0 81.0,295.0 82.0,295.0 83.0,294.0 84.0,294.0 85.0,293.0 86.0,293.0 87.0,292.0 88.0,292.0 89.0,291.0 90.0,290.0 91.0,288.0 92.0,288.0 93.0,287.0 94.0,287.0 95.0,286.0 96.0,285.0 97.0,284.0 98.0,284.0 99.0,283.0 100.0,283.0 101.0,283.0 102.0,282.0 103.0,281.0 104.0,281.0 105.0,280.0 106.0,280.0 107.0,280.0 108.0,279.0 109.0,278.0 110.0,278.0 111.0,278.0 112.0,277.0 113.0,277.0 114.0,277.0 115.0,277.0 116.0,276.0 117.0,276.0 118.0,274.0 119.0,274.0 120.0,274.0 121.0,272.0 122.0,273.0 123.0,272.0 124.0,273.0 125.0,271.0 126.0,272.0 127.0,272.0 128.0,270.0 129.0,273.0 130.0,267.0 131.0,270.0 132.0,269.0 133.0,270.0 134.0,268.0 135.0,270.0 136.0,268.0 137.0,268.0 138.0,268.0 139.0,268.0 140.0,267.0 141.0,268.0 142.0,266.0 143.0,267.0 144.0,266.0 145.0,266.0 146.0,266.0 147.0,266.0 148.0,265.0 149.0,266.0 150.0,265.0 151.0,265.0 152.0,264.0 153.0,265.0 154.0,262.0 155.0,263.0 156.0,262.0 157.0,261.0 158.0,260.0 159.0,261.0 160.0,259.0 161.0,260.0 162.0,259.0 163.0,258.0 164.0,257.0 165.0,258.0 166.0,257.0 167.0,257.0 168.0,256.0 169.0,255.0 170.0,254.0 171.0,253.0 172.0,252.0 173.0,252.0 174.0,251.0 175.0,249.0 176.0,249.0 177.0,248.0 178.0,247.0 179.0,247.0 180.0,246.0 181.0,245.0 182.0,245.0 183.0,244.0 184.0,243.0 185.0,242.0 186.0,241.0 187.0,242.0 188.0,240.0 189.0,240.0 190.0,239.0 191.0,239.0 192.0,238.0 193.0,238.0 194.0,238.0 195.0,236.0 196.0,238.0 197.0,236.0 198.0,236.0 199.0,236.0 200.0,235.0 201.0,235.0 202.0,234.0 203.0,235.0 204.0,233.0 205.0,234.0 206.0,233.0 207.0,233.0 208.0,233.0 209.0,233.0 210.0,232.0 211.0,232.0 212.0,231.0 213.0,230.0 214.0,230.0 215.0,230.0 216.0,229.0 217.0,228.0 218.0,227.0 219.0,227.0 220.0,227.0 221.0,227.0 222.0,225.0 223.0,227.0 224.0,224.0 225.0,224.0 226.0,224.0 227.0,223.0 228.0,223.0 229.0,222.0 230.0,221.0 231.0,221.0 232.0,221.0 233.0,221.0 234.0,220.0 235.0,220.0 236.0,219.0 237.0,219.0 238.0,219.0 239.0,219.0 240.0,217.0 241.0,217.0 242.0,217.0 243.0,215.0 244.0,215.0 245.0,214.0 246.0,214.0 247.0,213.0 248.0,212.0 249.0,212.0 250.0,211.0 251.0,210.0 252.0,210.0 253.0,209.0 254.0,207.0 255.0,208.0 256.0,207.0 257.0,207.0 258.0,206.0 259.0,207.0 260.0,204.0 261.0,205.0 262.0,204.0 263.0,203.0 264.0,203.0 265.0,203.0 266.0,201.0 267.0,202.0 268.0,202.0 269.0,201.0 270.0,200.0 271.0,200.0 272.0,199.0 273.0,199.0 274.0,197.0 275.0,198.0 276.0,195.0 277.0,195.0 278.0,195.0 279.0,194.0 280.0,192.0 281.0,192.0 282.0,191.0 283.0,190.0 284.0,190.0 285.0,190.0 286.0,188.0 287.0,189.0 288.0,188.0 289.0,187.0 290.0,187.0 291.0,186.0 292.0,185.0 293.0,186.0 294.0,185.0 295.0,185.0 296.0,184.0 297.0,183.0 298.0,183.0 299.0,183.0 300.0,181.0 301.0,182.0 302.0,181.0 303.0,182.0 304.0,180.0 305.0,180.0 306.0,179.0 307.0,179.0 308.0,177.0 309.0,178.0 310.0,177.0 311.0,176.0 312.0,177.0 313.0,174.0 314.0,176.0 315.0,174.0 316.0,174.0 317.0,173.0 318.0,173.0 319.0,172.0 320.0,171.0 321.0,170.0 322.0,170.0 323.0,168.0 324.0,168.0 325.0,168.0 326.0,168.0 327.0,167.0 328.0,167.0 329.0,167.0 330.0,168.0 331.0,167.0 332.0,168.0 333.0,169.0 334.0,170.0 335.0,171.0 336.0,172.0 337.0,172.0 338.0,174.0 339.0,175.0 340.0,177.0 341.0,178.0 342.0,178.0 343.0,179.0 344.0,180.0 345.0,180.0 346.0,181.0 347.0,182.0 348.0,182.0 349.0,182.0 350.0,181.0 351.0,181.0 352.0,181.0 353.0,181.0 354.0,180.0 355.0,181.0 356.0,180.0 357.0,179.0 358.0,179.0 359.0,179.0 360.0,178.0 361.0,178.0 362.0,177.0 363.0,176.0 364.0,176.0 365.0,176.0 366.0,175.0 367.0,175.0 368.0,175.0 369.0,174.0 370.0,173.0 371.0,172.0 372.0,172.0 373.0,171.0 374.0,171.0 375.0,170.0 376.0,169.0 377.0,169.0 378.0,168.0 379.0,168.0 380.0,168.0 381.0,167.0 382.0,166.0 383.0,166.0 384.0,165.0 385.0,164.0 386.0,164.0 387.0,163.0 388.0,163.0 389.0,162.0 390.0,162.0 391.0,159.0 392.0,160.0 393.0,159.0 394.0,158.0 395.0,158.0 396.0,158.0 397.0,157.0 398.0,157.0 399.0,156.0 400.0,156.0 401.0,156.0 402.0,155.0 403.0,154.0 404.0,154.0 405.0,154.0 406.0,153.0 407.0,152.0 408.0,153.0 409.0,151.0 410.0,151.0 411.0,150.0 412.0,150.0 413.0,148.0 414.0,149.0 415.0,148.0 416.0,148.0 417.0,147.0 418.0,147.0 419.0,146.0 420.0,146.0 421.0,145.0 422.0,145.0 423.0,144.0 424.0,144.0 425.0,143.0 426.0,143.0 427.0,142.0 428.0,142.0 429.0,141.0 430.0,141.0 431.0,140.0 432.0,139.0 433.0,139.0 434.0,137.0 435.0,138.0 436.0,137.0 437.0,137.0 438.0,136.0 439.0,135.0 440.0,135.0 441.0,134.0 442.0,133.0 443.0,133.0 444.0,132.0 445.0,132.0 446.0,132.0 447.0,131.0 448.0,130.0 449.0,129.0 450.0,130.0 451.0,129.0 452.0,128.0 453.0,127.0 454.0,128.0 455.0,127.0 456.0,126.0 457.0,126.0 458.0,125.0 459.0,124.0 460.0,123.0 461.0,123.0 462.0,122.0 463.0,122.0 464.0,121.0 465.0,121.0 466.0,120.0 467.0,119.0 468.0,119.0 469.0,118.0 470.0,118.0 471.0,117.0 472.0,117.0 473.0,115.0 474.0,114.0 475.0,115.0 476.0,113.0 477.0,113.0 478.0,112.0 479.0,111.0 480.0,111.0 481.0,109.0 482.0,109.0 483.0,108.0 484.0,108.0 485.0,108.0 486.0,106.0 487.0,106.0 488.0,104.0 489.0,103.0 490.0,102.0 491.0,101.0 492.0,100.0 493.0,99.0 494.0,98.0 495.0,98.0 496.0,96.0 497.0,96.0 498.0,96.0 499.0,94.0 500.0,92.0 501.0,93.0 502.0,93.0 503.0,93.0 504.0,91.0 505.0,90.0 506.0,92.0 507.0,87.0 508.0,90.0 509.0,87.0 510.0,89.0 511.0,87.0 512.0,87.0 513.0,87.0 514.0,87.0 515.0,86.0 516.0,86.0 517.0,86.0 518.0,86.0 519.0,84.0 520.0,85.0 521.0,85.0 522.0,85.0 523.0,83.0 524.0,82.0 525.0,83.0 526.0,82.0 527.0,82.0 528.0,81.0 529.0,81.0 530.0,81.0 531.0,80.0 532.0,79.0 533.0,79.0 534.0,77.0 535.0,77.0 536.0,76.0 537.0,76.0 538.0,75.0 539.0,75.0 540.0,73.0 541.0,74.0 542.0,71.0 543.0,73.0 544.0,70.0 545.0,71.0 546.0,69.0 547.0,69.0 548.0,69.0 549.0,69.0 550.0,68.0 551.0,68.0 552.0,67.0 553.0,67.0 554.0,65.0 555.0,66.0 556.0,65.0 557.0,64.0 558.0,63.0 559.0,64.0 560.0,62.0 561.0,63.0 562.0,62.0 563.0,62.0 564.0,62.0 565.0,62.0 566.0,61.0 567.0,63.0 568.0,62.0 569.0,59.0 570.0,60.0 571.0,60.0 572.0,60.0 573.0,59.0 574.0,59.0 575.0,60.0 576.0,59.0 577.0,59.0 578.0,58.0 579.0,58.0 580.0,58.0 581.0,57.0 582.0,57.0 583.0,56.0 584.0,57.0 585.0,55.0 586.0,57.0 587.0,55.0 588.0,55.0 589.0,55.0 590.0,54.0 591.0,54.0 592.0,55.0 593.0,50.0 594.0,52.0 595.0,51.0 596.0,50.0 597.0,50.0 598.0,51.0 599.0,50.0 600.0,50.0 601.0,50.0 602.0,49.0 603.0,50.0 604.0,48.0 605.0,48.0 606.0,47.0 607.0,46.0 608.0,46.0 609.0,46.0 610.0,45.0 611.0,43.0 612.0,44.0 613.0,43.0 614.0,44.0 615.0,41.0 616.0,43.0 617.0,41.0 618.0,42.0 619.0,41.0 620.0,41.0 621.0,39.0 622.0,39.0 623.0,39.0 624.0,39.0 625.0,37.0 626.0,38.0 627.0,38.0 628.0,33.0 629.0,35.0 630.0,34.0 631.0,34.0 632.0,33.0 633.0,34.0 634.0,32.0 635.0,33.0 636.0,31.0 637.0,32.0 638.0,30.0 639.0,32.0 640.0,29.0 641.0,30.0 642.0,28.0 643.0,27.0 644.0,27.0 645.0,27.0 646.0,26.0 647.0,27.0 648.0,24.0 649.0,26.0 650.0,24.0 651.0,24.0 652.0,21.0 653.0,23.0 654.0,20.0" fill="none" stroke="#ff0000" />
	<polyline points="55.0,304.0 56.0,298.0 57.0,304.0 58.0,299.0 59.0,303.0 60.0,299.0 61.0,302.0 62.0,299.0 63.0,301.0 64.0,299.0 65.0,300.0 66.0,298.0 67.0,299.0 68.0,298.0 69.0,298.0 70.0,297.0 71.0,297.0 72.0,296.0 73.0,296.0 74.0,295.0 75.0,295.0 76.0,294.0 77.0,294.0 78.0,293.0 79.0,292.0 80.0,291.0 81.0,291.0 82.0,290.0 83.0,290.0 84.0,289.0 85.0,289.0 86.0,288.0 87.0,288.0 88.0,287.0 89.0,286.0 90.0,286.0 91.0,285.0 92.0,285.0 93.0,284.0 94.0,283.0 95.0,283.0 96.0,283.0 97.0,282.0 98.0,282.0 99.0,281.0 100.0,281.0 101.0,280.0 102.0,280.0 103.0,280.0 104.0,279.0 105.0,279.0 106.0,279.0 107.0,278.0 108.0,278.0 109.0,277.0 110.0,277.0 111.0,277.0 112.0,277.0 113.0,276.0 114.0,277.0 115.0,277.0 116.0,275.0 117.0,275.0 118.0,275.0 119.0,275.0 120.0,274.0 121.0,274.0 122.0,273.0 123.0,274.0 124.0,272.0 125.0,272.0 126.0,271.0 127.0,271.0 128.0,271.0 129.0,271.0 130.0,270.0 131.0,269.0 132.0,268.0 133.0,268.0 134.0,267.0 135.0,267.0 136.0,265.0 137.0,264.0 138.0,264.0 139.0,263.0 140.0,262.0 141.0,261.0 142.0,260.0 143.0,259.0 144.0,258.0 145.0,257.0 146.0,257.0 147.0,255.0 148.0,254.0 149.0,254.0 150.0,253.0 151.0,252.0 152.0,251.0 153.0,251.0 154.0,249.0 155.0,250.0 156.0,248.0 157.0,248.0 158.0,248.0 159.0,246.0 160.0,246.0 161.0,245.0 162.0,245.0 163.0,244.0 164.0,244.0 165.0,243.0 166.0,243.0 167.0,242.0 168.0,242.0 169.0,240.0 170.0,241.0 171.0,239.0 172.0,239.0 173.0,238.0 174.0,238.0 175.0,237.0 176.0,238.0 177.0,237.0 178.0,237.0 179.0,236.0 180.0,236.0 181.0,236.0 182.0,235.0 183.0,235.0 184.0,235.0 185.0,234.0 186.0,234.0 187.0,234.0 188.0,234.0 189.0,233.0 190.0,233.0 191.0,232.0 192.0,232.0 193.0,231.0 194.0,232.0 195.0,230.0 196.0,230.0 197.0,230.0 198.0,229.0 199.0,229.0 200.0,228.0 201.0,227.0 202.0,228.0 203.0,227.0 204.0,227.0 205.0,226.0 206.0,226.0 207.0,225.0 208.0,224.0 209.0,225.0 210.0,224.0 211.0,223.0 212.0,224.0 213.0,223.0 214.0,223.0 215.0,223.0 216.0,223.0 217.0,223.0 218.0,223.0 219.0,224.0 220.0,225.0 221.0,225.0 222.0,228.0 223.0,229.0 224.0,230.0 225.0,234.0 226.0,236.0 227.0,238.0 228.0,238.0 229.0,240.0 230.0,239.0 231.0,240.0 232.0,241.0 233.0,240.0 234.0,241.0 235.0,240.0 236.0,242.0 237.0,241.0 238.0,241.0 239.0,241.0 240.0,240.0 241.0,240.0 242.0,240.0 243.0,239.0 244.0,238.0 245.0,238.0 246.0,238.0 247.0,237.0 248.0,237.0 249.0,236.0 250.0,235.0 251.0,234.0 252.0,234.0 253.0,233.0 254.0,233.0 255.0,232.0 256.0,232.0 257.0,231.0 258.0,230.0 259.0,230.0 260.0,229.0 261.0,229.0 262.0,228.0 263.0,227.0 264.0,227.0 265.0,226.0 266.0,225.0 267.0,224.0 268.0,223.0 269.0,223.0 270.0,223.0 271.0,222.0 272.0,221.0 273.0,221.0 274.0,221.0 275.0,220.0 276.0,219.0 277.0,219.0 278.0,218.0 279.0,219.0 280.0,218.0 281.0,218.0 282.0,217.0 283.0,217.0 284.0,216.0 285.0,216.0 286.0,214.0 287.0,214.0 288.0,213.0 289.0,214.0 290.0,213.0 291.0,212.0 292.0,212.0 293.0,211.0 294.0,211.0 295.0,210.0 296.0,209.0 297.0,209.0 298.0,208.0 299.0,208.0 300.0,208.0 301.0,205.0 302.0,206.0 303.0,204.0 304.0,204.0 305.0,204.0 306.0,204.0 307.0,203.0 308.0,202.0 309.0,202.0 310.0,202.0 311.0,202.0 312.0,201.0 313.0,200.0 314.0,200.0 315.0,199.0 316.0,198.0 317.0,198.0 318.0,197.0 319.0,197.0 320.0,197.0 321.0,195.0 322.0,195.0 323.0,195.0 324.0,195.0 325.0,194.0 326.0,193.0 327.0,193.0 328.0,192.0 329.0,192.0 330.0,192.0 331.0,191.0 332.0,191.0 333.0,190.0 334.0,190.0 335.0,189.0 336.0,189.0 337.0,188.0 338.0,188.0 339.0,187.0 340.0,186.0 341.0,186.0 342.0,185.0 343.0,185.0 344.0,184.0 345.0,184.0 346.0,183.0 347.0,183.0 348.0,182.0 349.0,182.0 350.0,181.0 351.0,180.0 352.0,180.0 353.0,179.0 354.0,179.0 355.0,179.0 356.0,178.0 357.0,178.0 358.0,176.0 359.0,177.0 360.0,176.0 361.0,176.0 362.0,175.0 363.0,175.0 364.0,175.0 365.0,174.0 366.0,174.0 367.0,174.0 368.0,172.0 369.0,172.0 370.0,172.0 371.0,171.0 372.0,171.0 373.0,171.0 374.0,170.0 375.0,169.0 376.0,168.0 377.0,168.0 378.0,166.0 379.0,167.0 380.0,166.0 381.0,165.0 382.0,166.0 383.0,164.0 384.0,163.0 385.0,163.0 386.0,163.0 387.0,161.0 388.0,162.0 389.0,159.0 390.0,160.0 391.0,158.0 392.0,157.0 393.0,156.0 394.0,156.0 395.0,156.0 396.0,155.0 397.0,155.0 398.0,153.0 399.0,153.0 400.0,152.0 401.0,152.0 402.0,153.0 403.0,151.0 404.0,150.0 405.0,150.0 406.0,150.0 407.0,149.0 408.0,150.0 409.0,148.0 410.0,148.0 411.0,147.0 412.0,147.0 413.0,146.0 414.0,147.0 415.0,144.0 416.0,145.0 417.0,144.0 418.0,143.0 419.0,142.0 420.0,142.0 421.0,142.0 422.0,141.0 423.0,140.0 424.0,140.0 425.0,139.0 426.0,139.0 427.0,139.0 428.0,135.0 429.0,136.0 430.0,135.0 431.0,136.0 432.0,134.0 433.0,134.0 434.0,134.0 435.0,134.0 436.0,133.0 437.0,132.0 438.0,131.0 439.0,130.0 440.0,130.0 441.0,130.0 442.0,128.0 443.0,128.0 444.0,127.0 445.0,127.0 446.0,127.0 447.0,126.0 448.0,125.0 449.0,124.0 450.0,124.0 451.0,122.0 452.0,122.0 453.0,121.0 454.0,120.0 455.0,120.0 456.0,118.0 457.0,117.0 458.0,117.0 459.0,115.0 460.0,114.0 461.0,113.0 462.0,112.0 463.0,112.0 464.0,112.0 465.0,110.0 466.0,110.0 467.0,108.0 468.0,109.0 469.0,107.0 470.0,106.0 471.0,105.0 472.0,104.0 473.0,103.0 474.0,102.0 475.0,101.0 476.0,101.0 477.0,100.0 478.0,99.0 479.0,98.0 480.0,98.0 481.0,97.0 482.0,98.0 483.0,96.0 484.0,96.0 485.0,95.0 486.0,93.0 487.0,94.0 488.0,94.0 489.0,92.0 490.0,93.0 491.0,91.0 492.0,91.0 493.0,89.0 494.0,91.0 495.0,89.0 496.0,88.0 497.0,88.0 498.0,87.0 499.0,88.0 500.0,87.0 501.0,87.0 502.0,84.0 503.0,86.0 504.0,84.0 505.0,84.0 506.0,83.0 507.0,83.0 508.0,83.0 509.0,83.0 510.0,83.0 511.0,83.0 512.0,82.0 513.0,82.0 514.0,82.0 515.0,81.0 516.0,82.0 517.0,81.0 518.0,82.0 519.0,79.0 520.0,80.0 521.0,81.0 522.0,79.0 523.0,80.0 524.0,79.0 525.0,79.0 526.0,80.0 527.0,79.0 528.0,79.0 529.0,79.0 530.0,79.0 531.0,79.0 532.0,79.0 533.0,78.0 534.0,77.0 535.0,78.0 536.0,77.0 537.0,76.0 538.0,75.0 539.0,76.0 540.0,75.0 541.0,74.0 542.0,75.0 543.0,73.0 544.0,73.0 545.0,72.0 546.0,73.0 547.0,71.0 548.0,72.0 549.0,71.0 550.0,72.0 551.0,70.0 552.0,72.0 553.0,69.0 554.0,71.0 555.0,70.0 556.0,70.0 557.0,69.0 558.0,70.0 559.0,71.0 560.0,69.0 561.0,70.0 562.0,69.0 563.0,69.0 564.0,69.0 565.0,68.0 566.0,67.0 567.0,67.0 568.0,66.0 569.0,66.0 570.0,66.0 571.0,66.0 572.0,65.0 573.0,65.0 574.0,64.0 575.0,64.0 576.0,63.0 577.0,61.0 578.0,59.0 579.0,60.0 580.0,60.0 581.0,58.0 582.0,59.0 583.0,58.0 584.0,59.0 585.0,56.0 586.0,57.0 587.0,57.0 588.0,55.0 589.0,56.0 590.0,56.0 591.0,54.0 592.0,56.0 593.0,54.0 594.0,55.0 595.0,54.0 596.0,54.0 597.0,53.0 598.0,54.0 599.0,54.0 600.0,54.0 601.0,53.0 602.0,53.0 603.0,53.0 604.0,52.0 605.0,51.0 606.0,51.0 607.0,50.0 608.0,51.0 609.0,49.0 610.0,50.0 611.0,49.0 612.0,49.0 613.0,49.0 614.0,49.0 615.0,47.0 616.0,47.0 617.0,45.0 618.0,46.0 619.0,45.0 620.0,44.0 621.0,44.0 622.0,44.0 623.0,42.0 624.0,43.0 625.0,42.0 626.0,43.0 627.0,41.0 628.0,41.0 629.0,40.0 630.0,40.0 631.0,38.0 632.0,38.0 633.0,39.0 634.0,34.0 635.0,36.0 636.0,34.0 637.0,34.0 638.0,34.0 639.0,33.0 640.0,33.0 641.0,33.0 642.0,31.0 643.0,32.0 644.0,30.0 645.0,31.0 646.0,29.0 647.0,30.0 648.0,29.0 649.0,29.0 650.0,27.0 651.0,28.0 652.0,26.0 653.0,26.0 654.0,24.0" fill="none" stroke="#008000" />
	<polyline points="55.0,304.0 56.0,298.0 57.0,304.0 58.0,299.0 59.0,303.0 60.0,299.0 61.0,302.0 62.0,299.0 63.0,301.0 64.0,299.0 65.0,300.0 66.0,298.0 67.0,298.0 68.0,297.0 69.0,297.0 70.0,296.0 71.0,296.0 72.0,295.0 73.0,295.0 74.0,294.0 75.0,294.0 76.0,293.0 77.0,294.0 78.0,294.0 79.0,294.0 80.0,294.0 81.0,294.0 82.0,293.0 83.0,293.0 84.0,293.0 85.0,291.0 86.0,292.0 87.0,292.0 88.0,290.0 89.0,290.0 90.0,290.0 91.0,290.0 92.0,289.0 93.0,287.0 94.0,288.0 95.0,286.0 96.0,287.0 97.0,286.0 98.0,286.0 99.0,285.0 100.0,285.0 101.0,285.0 102.0,283.0 103.0,284.0 104.0,283.0 105.0,282.0 106.0,282.0 107.0,280.0 108.0,280.0 109.0,279.0 110.0,278.0 111.0,279.0 112.0,277.0 113.0,278.0 114.0,277.0 115.0,277.0 116.0,277.0 117.0,276.0 118.0,276.0 119.0,277.0 120.0,275.0 121.0,276.0 122.0,274.0 123.0,274.0 124.0,273.0 125.0,273.0 126.0,273.0 127.0,273.0 128.0,272.0 129.0,271.0 130.0,271.0 131.0,272.0 132.0,269.0 133.0,270.0 134.0,267.0 135.0,269.0 136.0,266.0 137.0,266.0 138.0,265.0 139.0,265.0 140.0,264.0 141.0,264.0 142.0,262.0 143.0,263.0 144.0,261.0 145.0,262.0 146.0,259.0 147.0,260.0 148.0,258.0 149.0,258.0 150.0,257.0 151.0,258.0 152.0,257.0 153.0,258.0 154.0,256.0 155.0,257.0 156.0,256.0 157.0,256.0 158.0,255.0 159.0,255.0 160.0,255.0 161.0,254.0 162.0,252.0 163.0,254.0 164.0,252.0 165.0,252.0 166.0,251.0 167.0,251.0 168.0,251.0 169.0,250.0 170.0,251.0 171.0,249.0 172.0,249.0 173.0,249.0 174.0,250.0 175.0,249.0 176.0,247.0 177.0,248.0 178.0,246.0 179.0,246.0 180.0,245.0 181.0,245.0 182.0,245.0 183.0,244.0 184.0,244.0 185.0,244.0 186.0,242.0 187.0,244.0 188.0,242.0 189.0,241.0 190.0,242.0 191.0,239.0 192.0,241.0 193.0,240.0 194.0,240.0 195.0,239.0 196.0,238.0 197.0,238.0 198.0,238.0 199.0,236.0 200.0,237.0 201.0,235.0 202.0,236.0 203.0,235.0 204.0,233.0 205.0,234.0 206.0,232.0 207.0,233.0 208.0,231.0 209.0,232.0 210.0,229.0 211.0,229.0 212.0,229.0 213.0,227.0 214.0,226.0 215.0,226.0 216.0,221.0 217.0,222.0 218.0,219.0 219.0,219.0 220.0,217.0 221.0,217.0 222.0,213.0 223.0,213.0 224.0,211.0 225.0,211.0 226.0,210.0 227.0,210.0 228.0,209.0 229.0,209.0 230.0,208.0 231.0,209.0 232.0,208.0 233.0,207.0 234.0,207.0 235.0,207.0 236.0,206.0 237.0,206.0 238.0,205.0 239.0,206.0 240.0,204.0 241.0,205.0 242.0,204.0 243.0,204.0 244.0,203.0 245.0,203.0 246.0,203.0 247.0,202.0 248.0,202.0 249.0,201.0 250.0,201.0 251.0,200.0 252.0,200.0 253.0,200.0 254.0,199.0 255.0,199.0 256.0,198.0 257.0,199.0 258.0,197.0 259.0,198.0 260.0,196.0 261.0,196.0 262.0,195.0 263.0,196.0 264.0,195.0 265.0,195.0 266.0,195.0 267.0,194.0 268.0,194.0 269.0,194.0 270.0,193.0 271.0,193.0 272.0,192.0 273.0,192.0 274.0,192.0 275.0,192.0 276.0,191.0 277.0,192.0 278.0,190.0 279.0,191.0 280.0,189.0 281.0,191.0 282.0,188.0 283.0,190.0 284.0,188.0 285.0,189.0 286.0,187.0 287.0,188.0 288.0,187.0 289.0,187.0 290.0,186.0 291.0,186.0 292.0,185.0 293.0,186.0 294.0,185.0 295.0,185.0 296.0,184.0 297.0,184.0 298.0,183.0 299.0,183.0 300.0,183.0 301.0,182.0 302.0,182.0 303.0,181.0 304.0,180.0 305.0,180.0 306.0,180.0 307.0,180.0 308.0,179.0 309.0,178.0 310.0,178.0 311.0,178.0 312.0,178.0 313.0,177.0 314.0,177.0 315.0,176.0 316.0,175.0 317.0,175.0 318.0,175.0 319.0,174.0 320.0,174.0 321.0,173.0 322.0,173.0 323.0,173.0 324.0,172.0 325.0,171.0 326.0,172.0 327.0,170.0 328.0,171.0 329.0,170.0 330.0,169.0 331.0,170.0 332.0,168.0 333.0,168.0 334.0,167.0 335.0,167.0 336.0,165.0 337.0,166.0 338.0,165.0 339.0,165.0 340.0,164.0 341.0,163.0 342.0,163.0 343.0,164.0 344.0,162.0 345.0,163.0 346.0,162.0 347.0,161.0 348.0,161.0 349.0,161.0 350.0,161.0 351.0,160.0 352.0,160.0 353.0,159.0 354.0,159.0 355.0,158.0 356.0,158.0 357.0,159.0 358.0,158.0 359.0,157.0 360.0,156.0 361.0,157.0 362.0,155.0 363.0,155.0 364.0,156.0 365.0,154.0 366.0,155.0 367.0,154.0 368.0,153.0 369.0,153.0 370.0,152.0 371.0,152.0 372.0,151.0 373.0,151.0 374.0,150.0 375.0,150.0 376.0,150.0 377.0,149.0 378.0,149.0 379.0,148.0 380.0,148.0 381.0,147.0 382.0,147.0 383.0,146.0 384.0,146.0 385.0,145.0 386.0,145.0 387.0,145.0 388.0,144.0 389.0,143.0 390.0,143.0 391.0,142.0 392.0,142.0 393.0,141.0 394.0,141.0 395.0,141.0 396.0,141.0 397.0,139.0 398.0,140.0 399.0,139.0 400.0,139.0 401.0,138.0 402.0,138.0 403.0,137.0 404.0,137.0 405.0,136.0 406.0,137.0 407.0,135.0 408.0,136.0 409.0,134.0 410.0,134.0 411.0,133.0 412.0,134.0 413.0,132.0 414.0,132.0 415.0,131.0 416.0,131.0 417.0,130.0 418.0,131.0 419.0,129.0 420.0,130.0 421.0,129.0 422.0,128.0 423.0,128.0 424.0,126.0 425.0,127.0 426.0,127.0 427.0,126.0 428.0,125.0 429.0,125.0 430.0,124.0 431.0,125.0 432.0,123.0 433.0,124.0 434.0,122.0 435.0,122.0 436.0,121.0 437.0,121.0 438.0,120.0 439.0,120.0 440.0,120.0 441.0,120.0 442.0,119.0 443.0,119.0 444.0,118.0 445.0,117.0 446.0,117.0 447.0,116.0 448.0,116.0 449.0,115.0 450.0,115.0 451.0,115.0 452.0,114.0 453.0,114.0 454.0,113.0 455.0,113.0 456.0,112.0 457.0,112.0 458.0,111.0 459.0,111.0 460.0,110.0 461.0,109.0 462.0,109.0 463.0,109.0 464.0,108.0 465.0,108.0 466.0,107.0 467.0,107.0 468.0,107.0 469.0,106.0 470.0,106.0 471.0,106.0 472.0,105.0 473.0,104.0 474.0,104.0 475.0,103.0 476.0,103.0 477.0,103.0 478.0,102.0 479.0,102.0 480.0,101.0 481.0,100.0 482.0,101.0 483.0,100.0 484.0,100.0 485.0,98.0 486.0,98.0 487.0,98.0 488.0,98.0 489.0,96.0 490.0,96.0 491.0,95.0 492.0,95.0 493.0,94.0 494.0,94.0 495.0,94.0 496.0,93.0 497.0,93.0 498.0,92.0 499.0,92.0 500.0,92.0 501.0,91.0 502.0,91.0 503.0,90.0 504.0,91.0 505.0,89.0 506.0,87.0 507.0,87.0 508.0,87.0 509.0,87.0 510.0,86.0 511.0,87.0 512.0,85.0 513.0,85.0 514.0,83.0 515.0,84.0 516.0,83.0 517.0,82.0 518.0,83.0 519.0,81.0 520.0,83.0 521.0,81.0 522.0,81.0 523.0,80.0 524.0,80.0 525.0,79.0 526.0,79.0 527.0,78.0 528.0,78.0 529.0,78.0 530.0,77.0 531.0,77.0 532.0,75.0 533.0,75.0 534.0,76.0 535.0,75.0 536.0,74.0 537.0,74.0 538.0,73.0 539.0,73.0 540.0,72.0 541.0,73.0 542.0,71.0 543.0,72.0 544.0,70.0 545.0,71.0 546.0,69.0 547.0,70.0 548.0,69.0 549.0,68.0 550.0,68.0 551.0,67.0 552.0,66.0 553.0,66.0 554.0,65.0 555.0,64.0 556.0,64.0 557.0,63.0 558.0,63.0 559.0,64.0 560.0,62.0 561.0,62.0 562.0,61.0 563.0,61.0 564.0,61.0 565.0,60.0 566.0,60.0 567.0,59.0 568.0,59.0 569.0,59.0 570.0,57.0 571.0,57.0 572.0,58.0 573.0,57.0 574.0,57.0 575.0,55.0 576.0,56.0 577.0,55.0 578.0,56.0 579.0,53.0 580.0,55.0 581.0,53.0 582.0,53.0 583.0,51.0 584.0,53.0 585.0,51.0 586.0,52.0 587.0,50.0 588.0,50.0 589.0,48.0 590.0,50.0 591.0,48.0 592.0,48.0 593.0,47.0 594.0,47.0 595.0,47.0 596.0,47.0 597.0,45.0 598.0,46.0 599.0,44.0 600.0,44.0 601.0,43.0 602.0,43.0 603.0,43.0 604.0,41.0 605.0,42.0 606.0,40.0 607.0,40.0 608.0,40.0 609.0,40.0 610.0,39.0 611.0,39.0 612.0,39.0 613.0,37.0 614.0,38.0 615.0,36.0 616.0,38.0 617.0,35.0 618.0,37.0 619.0,35.0 620.0,35.0 621.0,34.0 622.0,34.0 623.0,33.0 624.0,33.0 625.0,33.0 626.0,32.0 627.0,33.0 628.0,30.0 629.0,31.0 630.0,28.0 631.0,30.0 632.0,28.0 633.0,29.0 634.0,27.0 635.0,29.0 636.0,26.0 637.0,28.0 638.0,25.0 639.0,27.0 640.0,24.0 641.0,26.0 642.0,21.0 643.0,25.0 644.0,21.0 645.0,25.0 646.0,21.0 647.0,23.0 648.0,20.0 649.0,21.0 650.0,19.0 651.0,21.0 652.0,19.0 653.0,19.0 654.0,19.0" fill="none" stroke="#d0d000" />
	<polyline points="55.0,304.0 56.0,298.0 57.0,304.0 58.0,299.0 59.0,303.0 60.0,299.0 61.0,302.0 62.0,299.0 63.0,301.0 64.0,299.0 65.0,300.0 66.0,298.0 67.0,299.0 68.0,297.0 69.0,297.0 70.0,296.0 71.0,296.0 72.0,295.0 73.0,295.0 74.0,294.0 75.0,294.0 76.0,293.0 77.0,292.0 78.0,291.0 79.0,290.0 80.0,290.0 81.0,290.0 82.0,290.0 83.0,289.0 84.0,289.0 85.0,287.0 86.0,287.0 87.0,287.0 88.0,287.0 89.0,286.0 90.0,287.0 91.0,286.0 92.0,286.0 93.0,286.0 94.0,287.0 95.0,285.0 96.0,285.0 97.0,285.0 98.0,285.0 99.0,285.0 100.0,284.0 101.0,284.0 102.0,283.0 103.0,282.0 104.0,281.0 105.0,281.0 106.0,280.0 107.0,280.0 108.0,280.0 109.0,279.0 110.0,279.0 111.0,278.0 112.0,278.0 113.0,277.0 114.0,277.0 115.0,276.0 116.0,275.0 117.0,275.0 118.0,275.0 119.0,274.0 120.0,273.0 121.0,274.0 122.0,274.0 123.0,273.0 124.0,273.0 125.0,274.0 126.0,271.0 127.0,273.0 128.0,271.0 129.0,270.0 130.0,270.0 131.0,269.0 132.0,269.0 133.0,269.0 134.0,268.0 135.0,268.0 136.0,267.0 137.0,268.0 138.0,268.0 139.0,267.0 140.0,267.0 141.0,266.0 142.0,267.0 143.0,266.0 144.0,265.0 145.0,265.0 146.0,266.0 147.0,265.0 148.0,264.0 149.0,264.0 150.0,263.0 151.0,263.0 152.0,262.0 153.0,262.0 154.0,260.0 155.0,261.0 156.0,260.0 157.0,261.0 158.0,259.0 159.0,260.0 160.0,259.0 161.0,259.0 162.0,258.0 163.0,259.0 164.0,256.0 165.0,257.0 166.0,256.0 167.0,256.0 168.0,254.0 169.0,255.0 170.0,254.0 171.0,254.0 172.0,254.0 173.0,253.0 174.0,253.0 175.0,253.0 176.0,252.0 177.0,251.0 178.0,251.0 179.0,250.0 180.0,247.0 181.0,247.0 182.0,247.0 183.0,246.0 184.0,245.0 185.0,245.0 186.0,243.0 187.0,243.0 188.0,242.0 189.0,242.0 190.0,241.0 191.0,241.0 192.0,240.0 193.0,240.0 194.0,240.0 195.0,239.0 196.0,241.0 197.0,239.0 198.0,241.0 199.0,238.0 200.0,239.0 201.0,239.0 202.0,240.0 203.0,239.0 204.0,240.0 205.0,238.0 206.0,238.0 207.0,238.0 208.0,238.0 209.0,237.0 210.0,236.0 211.0,236.0 212.0,235.0 213.0,236.0 214.0,234.0 215.0,234.0 216.0,234.0 217.0,233.0 218.0,232.0 219.0,233.0 220.0,231.0 221.0,231.0 222.0,230.0 223.0,230.0 224.0,229.0 225.0,228.0 226.0,227.0 227.0,227.0 228.0,226.0 229.0,225.0 230.0,224.0 231.0,223.0 232.0,223.0 233.0,221.0 234.0,221.0 235.0,220.0 236.0,219.0 237.0,218.0 238.0,217.0 239.0,218.0 240.0,215.0 241.0,216.0 242.0,214.0 243.0,214.0 244.0,214.0 245.0,213.0 246.0,213.0 247.0,212.0 248.0,212.0 249.0,211.0 250.0,211.0 251.0,210.0 252.0,210.0 253.0,210.0 254.0,209.0 255.0,209.0 256.0,208.0 257.0,208.0 258.0,208.0 259.0,208.0 260.0,207.0 261.0,208.0 262.0,207.0 263.0,208.0 264.0,207.0 265.0,208.0 266.0,207.0 267.0,207.0 268.0,207.0 269.0,207.0 270.0,205.0 271.0,206.0 272.0,205.0 273.0,205.0 274.0,205.0 275.0,205.0 276.0,205.0 277.0,205.0 278.0,205.0 279.0,205.0 280.0,205.0 281.0,205.0 282.0,205.0 283.0,203.0 284.0,204.0 285.0,203.0 286.0,203.0 287.0,202.0 288.0,202.0 289.0,202.0 290.0,200.0 291.0,201.0 292.0,200.0 293.0,200.0 294.0,198.0 295.0,199.0 296.0,198.0 297.0,198.0 298.0,196.0 299.0,196.0 300.0,195.0 301.0,195.0 302.0,195.0 303.0,194.0 304.0,192.0 305.0,193.0 306.0,191.0 307.0,192.0 308.0,190.0 309.0,190.0 310.0,189.0 311.0,190.0 312.0,187.0 313.0,187.0 314.0,187.0 315.0,186.0 316.0,186.0 317.0,185.0 318.0,185.0 319.0,184.0 320.0,183.0 321.0,182.0 322.0,181.0 323.0,181.0 324.0,181.0 325.0,179.0 326.0,180.0 327.0,179.0 328.0,179.0 329.0,180.0 330.0,179.0 331.0,177.0 332.0,178.0 333.0,177.0 334.0,178.0 335.0,177.0 336.0,178.0 337.0,176.0 338.0,177.0 339.0,175.0 340.0,174.0 341.0,174.0 342.0,173.0 343.0,172.0 344.0,171.0 345.0,171.0 346.0,170.0 347.0,170.0 348.0,169.0 349.0,169.0 350.0,168.0 351.0,167.0 352.0,167.0 353.0,167.0 354.0,167.0 355.0,166.0 356.0,167.0 357.0,164.0 358.0,165.0 359.0,164.0 360.0,165.0 361.0,165.0 362.0,164.0 363.0,164.0 364.0,164.0 365.0,164.0 366.0,164.0 367.0,164.0 368.0,164.0 369.0,163.0 370.0,163.0 371.0,163.0 372.0,162.0 373.0,161.0 374.0,161.0 375.0,160.0 376.0,159.0 377.0,159.0 378.0,158.0 379.0,158.0 380.0,157.0 381.0,156.0 382.0,156.0 383.0,154.0 384.0,155.0 385.0,153.0 386.0,153.0 387.0,152.0 388.0,152.0 389.0,151.0 390.0,151.0 391.0,150.0 392.0,149.0 393.0,149.0 394.0,148.0 395.0,148.0 396.0,147.0 397.0,147.0 398.0,146.0 399.0,145.0 400.0,145.0 401.0,144.0 402.0,143.0 403.0,143.0 404.0,142.0 405.0,142.0 406.0,142.0 407.0,141.0 408.0,141.0 409.0,140.0 410.0,140.0 411.0,139.0 412.0,138.0 413.0,137.0 414.0,137.0 415.0,136.0 416.0,136.0 417.0,134.0 418.0,134.0 419.0,133.0 420.0,133.0 421.0,131.0 422.0,132.0 423.0,131.0 424.0,130.0 425.0,130.0 426.0,129.0 427.0,129.0 428.0,128.0 429.0,127.0 430.0,127.0 431.0,126.0 432.0,126.0 433.0,125.0 434.0,125.0 435.0,124.0 436.0,124.0 437.0,123.0 438.0,123.0 439.0,123.0 440.0,122.0 441.0,121.0 442.0,121.0 443.0,121.0 444.0,121.0 445.0,120.0 446.0,120.0 447.0,120.0 448.0,118.0 449.0,119.0 450.0,117.0 451.0,117.0 452.0,117.0 453.0,116.0 454.0,116.0 455.0,115.0 456.0,114.0 457.0,114.0 458.0,113.0 459.0,113.0 460.0,112.0 461.0,112.0 462.0,111.0 463.0,111.0 464.0,111.0 465.0,110.0 466.0,110.0 467.0,109.0 468.0,108.0 469.0,108.0 470.0,108.0 471.0,108.0 472.0,107.0 473.0,107.0 474.0,106.0 475.0,107.0 476.0,105.0 477.0,105.0 478.0,104.0 479.0,105.0 480.0,103.0 481.0,102.0 482.0,102.0 483.0,101.0 484.0,101.0 485.0,100.0 486.0,99.0 487.0,99.0 488.0,98.0 489.0,96.0 490.0,97.0 491.0,96.0 492.0,96.0 493.0,95.0 494.0,96.0 495.0,94.0 496.0,94.0 497.0,94.0 498.0,94.0 499.0,93.0 500.0,92.0 501.0,92.0 502.0,91.0 503.0,90.0 504.0,90.0 505.0,89.0 506.0,89.0 507.0,88.0 508.0,89.0 509.0,83.0 510.0,86.0 511.0,84.0 512.0,83.0 513.0,83.0 514.0,82.0 515.0,82.0 516.0,80.0 517.0,81.0 518.0,79.0 519.0,81.0 520.0,79.0 521.0,77.0 522.0,78.0 523.0,77.0 524.0,78.0 525.0,76.0 526.0,76.0 527.0,76.0 528.0,76.0 529.0,74.0 530.0,74.0 531.0,73.0 532.0,74.0 533.0,73.0 534.0,72.0 535.0,72.0 536.0,73.0 537.0,71.0 538.0,71.0 539.0,69.0 540.0,70.0 541.0,70.0 542.0,70.0 543.0,68.0 544.0,68.0 545.0,68.0 546.0,68.0 547.0,67.0 548.0,67.0 549.0,66.0 550.0,66.0 551.0,67.0 552.0,65.0 553.0,65.0 554.0,65.0 555.0,66.0 556.0,64.0 557.0,65.0 558.0,65.0 559.0,66.0 560.0,64.0 561.0,64.0 562.0,63.0 563.0,64.0 564.0,62.0 565.0,63.0 566.0,60.0 567.0,61.0 568.0,61.0 569.0,60.0 570.0,60.0 571.0,60.0 572.0,59.0 573.0,59.0 574.0,59.0 575.0,58.0 576.0,58.0 577.0,58.0 578.0,58.0 579.0,58.0 580.0,57.0 581.0,57.0 582.0,57.0 583.0,56.0 584.0,57.0 585.0,56.0 586.0,56.0 587.0,55.0 588.0,55.0 589.0,55.0 590.0,55.0 591.0,54.0 592.0,54.0 593.0,53.0 594.0,53.0 595.0,52.0 596.0,54.0 597.0,52.0 598.0,53.0 599.0,52.0 600.0,52.0 601.0,52.0 602.0,51.0 603.0,51.0 604.0,50.0 605.0,49.0 606.0,49.0 607.0,48.0 608.0,47.0 609.0,47.0 610.0,47.0 611.0,47.0 612.0,46.0 613.0,46.0 614.0,45.0 615.0,45.0 616.0,45.0 617.0,43.0 618.0,44.0 619.0,42.0 620.0,42.0 621.0,40.0 622.0,39.0 623.0,38.0 624.0,38.0 625.0,36.0 626.0,36.0 627.0,37.0 628.0,36.0 629.0,34.0 630.0,33.0 631.0,34.0 632.0,33.0 633.0,34.0 634.0,32.0 635.0,33.0 636.0,32.0 637.0,32.0 638.0,30.0 639.0,31.0 640.0,29.0 641.0,30.0 642.0,29.0 643.0,29.0 644.0,28.0 645.0,28.0 646.0,25.0 647.0,26.0 648.0,25.0 649.0,25.0 650.0,24.0 651.0,25.0 652.0,23.0 653.0,20.0 654.0,21.0" fill="none" stroke="#fb46bc" />
	<polyline points="55.0,304.0 56.0,298.0 57.0,303.0 58.0,299.0 59.0,302.0 60.0,299.0 61.0,301.0 62.0,299.0 63.0,300.0 64.0,298.0 65.0,299.0 66.0,298.0 67.0,298.0 68.0,297.0 69.0,297.0 70.0,295.0 71.0,295.0 72.0,294.0 73.0,293.0 74.0,293.0 75.0,292.0 76.0,292.0 77.0,292.0 78.0,292.0 79.0,291.0 80.0,291.0 81.0,290.0 82.0,290.0 83.0,289.0 84.0,288.0 85.0,288.0 86.0,288.0 87.0,287.0 88.0,288.0 89.0,287.0 90.0,286.0 91.0,287.0 92.0,286.0 93.0,286.0 94.0,286.0 95.0,285.0 96.0,285.0 97.0,284.0 98.0,284.0 99.0,283.0 100.0,283.0 101.0,283.0 102.0,282.0 103.0,282.0 104.0,281.0 105.0,280.0 106.0,281.0 107.0,279.0 108.0,280.0 109.0,278.0 110.0,279.0 111.0,278.0 112.0,277.0 113.0,277.0 114.0,277.0 115.0,276.0 116.0,275.0 117.0,274.0 118.0,274.0 119.0,273.0 120.0,272.0 121.0,273.0 122.0,272.0 123.0,272.0 124.0,270.0 125.0,271.0 126.0,270.0 127.0,270.0 128.0,268.0 129.0,267.0 130.0,268.0 131.0,267.0 132.0,267.0 133.0,267.0 134.0,266.0 135.0,266.0 136.0,265.0 137.0,265.0 138.0,264.0 139.0,264.0 140.0,263.0 141.0,262.0 142.0,261.0 143.0,261.0 144.0,260.0 145.0,258.0 146.0,258.0 147.0,257.0 148.0,256.0 149.0,256.0 150.0,254.0 151.0,254.0 152.0,253.0 153.0,252.0 154.0,252.0 155.0,251.0 156.0,250.0 157.0,251.0 158.0,250.0 159.0,249.0 160.0,249.0 161.0,248.0 162.0,248.0 163.0,248.0 164.0,247.0 165.0,247.0 166.0,246.0 167.0,246.0 168.0,245.0 169.0,245.0 170.0,244.0 171.0,244.0 172.0,245.0 173.0,243.0 174.0,243.0 175.0,242.0 176.0,242.0 177.0,243.0 178.0,242.0 179.0,242.0 180.0,241.0 181.0,242.0 182.0,241.0 183.0,241.0 184.0,241.0 185.0,241.0 186.0,241.0 187.0,241.0 188.0,241.0 189.0,240.0 190.0,240.0 191.0,239.0 192.0,240.0 193.0,238.0 194.0,239.0 195.0,238.0 196.0,238.0 197.0,236.0 198.0,237.0 199.0,237.0 200.0,235.0 201.0,236.0 202.0,235.0 203.0,234.0 204.0,233.0 205.0,233.0 206.0,232.0 207.0,232.0 208.0,230.0 209.0,231.0 210.0,231.0 211.0,230.0 212.0,228.0 213.0,229.0 214.0,227.0 215.0,227.0 216.0,227.0 217.0,225.0 218.0,225.0 219.0,224.0 220.0,223.0 221.0,222.0 222.0,221.0 223.0,221.0 224.0,220.0 225.0,220.0 226.0,218.0 227.0,218.0 228.0,218.0 229.0,217.0 230.0,217.0 231.0,216.0 232.0,215.0 233.0,215.0 234.0,215.0 235.0,214.0 236.0,213.0 237.0,213.0 238.0,212.0 239.0,212.0 240.0,212.0 241.0,211.0 242.0,211.0 243.0,210.0 244.0,210.0 245.0,209.0 246.0,209.0 247.0,208.0 248.0,208.0 249.0,207.0 250.0,207.0 251.0,206.0 252.0,206.0 253.0,205.0 254.0,205.0 255.0,204.0 256.0,203.0 257.0,203.0 258.0,202.0 259.0,202.0 260.0,201.0 261.0,201.0 262.0,200.0 263.0,200.0 264.0,199.0 265.0,199.0 266.0,199.0 267.0,198.0 268.0,197.0 269.0,198.0 270.0,197.0 271.0,196.0 272.0,196.0 273.0,195.0 274.0,195.0 275.0,195.0 276.0,194.0 277.0,194.0 278.0,193.0 279.0,193.0 280.0,192.0 281.0,192.0 282.0,191.0 283.0,191.0 284.0,191.0 285.0,190.0 286.0,189.0 287.0,189.0 288.0,188.0 289.0,189.0 290.0,187.0 291.0,188.0 292.0,187.0 293.0,186.0 294.0,186.0 295.0,185.0 296.0,185.0 297.0,185.0 298.0,183.0 299.0,184.0 300.0,183.0 301.0,183.0 302.0,182.0 303.0,181.0 304.0,181.0 305.0,182.0 306.0,179.0 307.0,181.0 308.0,179.0 309.0,179.0 310.0,178.0 311.0,178.0 312.0,177.0 313.0,177.0 314.0,176.0 315.0,176.0 316.0,176.0 317.0,175.0 318.0,174.0 319.0,174.0 320.0,174.0 321.0,172.0 322.0,173.0 323.0,172.0 324.0,172.0 325.0,171.0 326.0,171.0 327.0,170.0 328.0,170.0 329.0,169.0 330.0,169.0 331.0,169.0 332.0,168.0 333.0,167.0 334.0,167.0 335.0,167.0 336.0,166.0 337.0,166.0 338.0,165.0 339.0,164.0 340.0,164.0 341.0,164.0 342.0,163.0 343.0,163.0 344.0,162.0 345.0,162.0 346.0,161.0 347.0,161.0 348.0,160.0 349.0,160.0 350.0,159.0 351.0,159.0 352.0,158.0 353.0,158.0 354.0,157.0 355.0,157.0 356.0,155.0 357.0,156.0 358.0,155.0 359.0,155.0 360.0,154.0 361.0,154.0 362.0,153.0 363.0,153.0 364.0,152.0 365.0,152.0 366.0,152.0 367.0,151.0 368.0,151.0 369.0,150.0 370.0,150.0 371.0,149.0 372.0,149.0 373.0,148.0 374.0,148.0 375.0,148.0 376.0,147.0 377.0,146.0 378.0,146.0 379.0,146.0 380.0,145.0 381.0,144.0 382.0,144.0 383.0,144.0 384.0,143.0 385.0,142.0 386.0,143.0 387.0,141.0 388.0,141.0 389.0,140.0 390.0,140.0 391.0,139.0 392.0,139.0 393.0,139.0 394.0,138.0 395.0,138.0 396.0,138.0 397.0,137.0 398.0,137.0 399.0,136.0 400.0,136.0 401.0,135.0 402.0,135.0 403.0,135.0 404.0,134.0 405.0,134.0 406.0,133.0 407.0,133.0 408.0,133.0 409.0,132.0 410.0,131.0 411.0,130.0 412.0,131.0 413.0,130.0 414.0,129.0 415.0,129.0 416.0,129.0 417.0,128.0 418.0,128.0 419.0,127.0 420.0,127.0 421.0,126.0 422.0,126.0 423.0,125.0 424.0,125.0 425.0,124.0 426.0,124.0 427.0,123.0 428.0,123.0 429.0,123.0 430.0,122.0 431.0,122.0 432.0,121.0 433.0,122.0 434.0,120.0 435.0,120.0 436.0,120.0 437.0,118.0 438.0,119.0 439.0,117.0 440.0,118.0 441.0,116.0 442.0,117.0 443.0,115.0 444.0,116.0 445.0,116.0 446.0,114.0 447.0,115.0 448.0,113.0 449.0,114.0 450.0,113.0 451.0,113.0 452.0,112.0 453.0,111.0 454.0,111.0 455.0,110.0 456.0,110.0 457.0,109.0 458.0,109.0 459.0,109.0 460.0,109.0 461.0,108.0 462.0,108.0 463.0,108.0 464.0,106.0 465.0,107.0 466.0,106.0 467.0,105.0 468.0,106.0 469.0,105.0 470.0,104.0 471.0,104.0 472.0,104.0 473.0,103.0 474.0,103.0 475.0,102.0 476.0,103.0 477.0,101.0 478.0,101.0 479.0,100.0 480.0,100.0 481.0,100.0 482.0,99.0 483.0,99.0 484.0,98.0 485.0,98.0 486.0,97.0 487.0,96.0 488.0,96.0 489.0,96.0 490.0,95.0 491.0,94.0 492.0,95.0 493.0,93.0 494.0,94.0 495.0,93.0 496.0,92.0 497.0,92.0 498.0,91.0 499.0,92.0 500.0,91.0 501.0,90.0 502.0,89.0 503.0,89.0 504.0,89.0 505.0,88.0 506.0,89.0 507.0,87.0 508.0,87.0 509.0,86.0 510.0,87.0 511.0,85.0 512.0,85.0 513.0,84.0 514.0,83.0 515.0,83.0 516.0,83.0 517.0,83.0 518.0,82.0 519.0,82.0 520.0,81.0 521.0,80.0 522.0,80.0 523.0,79.0 524.0,79.0 525.0,78.0 526.0,77.0 527.0,77.0 528.0,76.0 529.0,76.0 530.0,76.0 531.0,75.0 532.0,74.0 533.0,73.0 534.0,73.0 535.0,73.0 536.0,73.0 537.0,72.0 538.0,72.0 539.0,72.0 540.0,71.0 541.0,70.0 542.0,70.0 543.0,70.0 544.0,70.0 545.0,69.0 546.0,68.0 547.0,68.0 548.0,67.0 549.0,67.0 550.0,67.0 551.0,66.0 552.0,65.0 553.0,65.0 554.0,65.0 555.0,64.0 556.0,64.0 557.0,64.0 558.0,63.0 559.0,62.0 560.0,61.0 561.0,63.0 562.0,61.0 563.0,61.0 564.0,60.0 565.0,60.0 566.0,59.0 567.0,59.0 568.0,58.0 569.0,58.0 570.0,57.0 571.0,58.0 572.0,56.0 573.0,56.0 574.0,55.0 575.0,56.0 576.0,55.0 577.0,54.0 578.0,53.0 579.0,54.0 580.0,52.0 581.0,52.0 582.0,53.0 583.0,51.0 584.0,51.0 585.0,50.0 586.0,50.0 587.0,49.0 588.0,49.0 589.0,48.0 590.0,48.0 591.0,47.0 592.0,48.0 593.0,46.0 594.0,46.0 595.0,46.0 596.0,45.0 597.0,44.0 598.0,44.0 599.0,43.0 600.0,43.0 601.0,43.0 602.0,42.0 603.0,41.0 604.0,41.0 605.0,40.0 606.0,40.0 607.0,40.0 608.0,39.0 609.0,38.0 610.0,38.0 611.0,38.0 612.0,37.0 613.0,36.0 614.0,37.0 615.0,35.0 616.0,35.0 617.0,34.0 618.0,35.0 619.0,34.0 620.0,34.0 621.0,33.0 622.0,33.0 623.0,32.0 624.0,32.0 625.0,31.0 626.0,32.0 627.0,30.0 628.0,31.0 629.0,29.0 630.0,29.0 631.0,29.0 632.0,28.0 633.0,28.0 634.0,27.0 635.0,27.0 636.0,26.0 637.0,27.0 638.0,24.0 639.0,25.0 640.0,24.0 641.0,24.0 642.0,23.0 643.0,23.0 644.0,21.0 645.0,22.0 646.0,20.0 647.0,22.0 648.0,20.0 649.0,20.0 650.0,18.0 651.0,20.0 652.0,19.0 653.0,19.0 654.0,17.0" fill="none" stroke="#0000ff" />
	<polyline points="55.0,304.0 56.0,298.0 57.0,303.0 58.0,299.0 59.0,302.0 60.0,299.0 61.0,301.0 62.0,299.0 63.0,300.0 64.0,298.0 65.0,299.0 66.0,298.0 67.0,298.0 68.0,297.0 69.0,297.0 70.0,296.0 71.0,296.0 72.0,295.0 73.0,295.0 74.0,294.0 75.0,294.0 76.0,294.0 77.0,294.0 78.0,294.0 79.0,293.0 80.0,293.0 81.0,293.0 82.0,292.0 83.0,292.0 84.0,291.0 85.0,292.0 86.0,290.0 87.0,291.0 88.0,290.0 89.0,290.0 90.0,289.0 91.0,289.0 92.0,288.0 93.0,287.0 94.0,288.0 95.0,286.0 96.0,286.0 97.0,284.0 98.0,284.0 99.0,283.0 100.0,282.0 101.0,282.0 102.0,282.0 103.0,282.0 104.0,281.0 105.0,281.0 106.0,280.0 107.0,279.0 108.0,279.0 109.0,278.0 110.0,278.0 111.0,278.0 112.0,276.0 113.0,276.0 114.0,275.0 115.0,275.0 116.0,275.0 117.0,274.0 118.0,273.0 119.0,273.0 120.0,274.0 121.0,273.0 122.0,272.0 123.0,271.0 124.0,271.0 125.0,271.0 126.0,270.0 127.0,269.0 128.0,269.0 129.0,269.0 130.0,268.0 131.0,269.0 132.0,267.0 133.0,267.0 134.0,266.0 135.0,265.0 136.0,264.0 137.0,264.0 138.0,263.0 139.0,262.0 140.0,261.0 141.0,261.0 142.0,260.0 143.0,260.0 144.0,259.0 145.0,260.0 146.0,259.0 147.0,260.0 148.0,260.0 149.0,260.0 150.0,258.0 151.0,259.0 152.0,258.0 153.0,259.0 154.0,259.0 155.0,259.0 156.0,259.0 157.0,259.0 158.0,259.0 159.0,260.0 160.0,259.0 161.0,259.0 162.0,257.0 163.0,256.0 164.0,257.0 165.0,256.0 166.0,256.0 167.0,256.0 168.0,255.0 169.0,255.0 170.0,254.0 171.0,255.0 172.0,254.0 173.0,253.0 174.0,254.0 175.0,252.0 176.0,252.0 177.0,252.0 178.0,251.0 179.0,252.0 180.0,251.0 181.0,252.0 182.0,249.0 183.0,250.0 184.0,250.0 185.0,249.0 186.0,249.0 187.0,248.0 188.0,249.0 189.0,249.0 190.0,248.0 191.0,248.0 192.0,247.0 193.0,247.0 194.0,246.0 195.0,246.0 196.0,246.0 197.0,245.0 198.0,246.0 199.0,246.0 200.0,245.0 201.0,245.0 202.0,245.0 203.0,244.0 204.0,244.0 205.0,244.0 206.0,242.0 207.0,243.0 208.0,241.0 209.0,240.0 210.0,241.0 211.0,240.0 212.0,240.0 213.0,239.0 214.0,238.0 215.0,237.0 216.0,237.0 217.0,236.0 218.0,236.0 219.0,235.0 220.0,233.0 221.0,233.0 222.0,233.0 223.0,231.0 224.0,230.0 225.0,230.0 226.0,229.0 227.0,227.0 228.0,226.0 229.0,225.0 230.0,224.0 231.0,223.0 232.0,222.0 233.0,222.0 234.0,221.0 235.0,220.0 236.0,220.0 237.0,221.0 238.0,219.0 239.0,219.0 240.0,220.0 241.0,219.0 242.0,218.0 243.0,218.0 244.0,218.0 245.0,218.0 246.0,218.0 247.0,216.0 248.0,216.0 249.0,215.0 250.0,214.0 251.0,215.0 252.0,214.0 253.0,212.0 254.0,214.0 255.0,213.0 256.0,212.0 257.0,212.0 258.0,212.0 259.0,211.0 260.0,211.0 261.0,211.0 262.0,211.0 263.0,210.0 264.0,210.0 265.0,211.0 266.0,209.0 267.0,209.0 268.0,209.0 269.0,209.0 270.0,207.0 271.0,207.0 272.0,206.0 273.0,207.0 274.0,206.0 275.0,206.0 276.0,206.0 277.0,205.0 278.0,206.0 279.0,204.0 280.0,204.0 281.0,203.0 282.0,203.0 283.0,203.0 284.0,203.0 285.0,202.0 286.0,202.0 287.0,199.0 288.0,200.0 289.0,198.0 290.0,197.0 291.0,198.0 292.0,196.0 293.0,196.0 294.0,195.0 295.0,196.0 296.0,193.0 297.0,194.0 298.0,193.0 299.0,192.0 300.0,192.0 301.0,192.0 302.0,190.0 303.0,189.0 304.0,189.0 305.0,189.0 306.0,187.0 307.0,188.0 308.0,186.0 309.0,187.0 310.0,186.0 311.0,184.0 312.0,185.0 313.0,184.0 314.0,183.0 315.0,181.0 316.0,182.0 317.0,180.0 318.0,181.0 319.0,180.0 320.0,179.0 321.0,180.0 322.0,179.0 323.0,179.0 324.0,178.0 325.0,177.0 326.0,177.0 327.0,176.0 328.0,176.0 329.0,175.0 330.0,176.0 331.0,175.0 332.0,175.0 333.0,175.0 334.0,174.0 335.0,174.0 336.0,173.0 337.0,173.0 338.0,171.0 339.0,172.0 340.0,172.0 341.0,171.0 342.0,170.0 343.0,169.0 344.0,168.0 345.0,169.0 346.0,167.0 347.0,166.0 348.0,166.0 349.0,166.0 350.0,166.0 351.0,165.0 352.0,164.0 353.0,165.0 354.0,164.0 355.0,162.0 356.0,162.0 357.0,161.0 358.0,161.0 359.0,160.0 360.0,160.0 361.0,157.0 362.0,158.0 363.0,157.0 364.0,156.0 365.0,155.0 366.0,154.0 367.0,154.0 368.0,155.0 369.0,150.0 370.0,152.0 371.0,151.0 372.0,150.0 373.0,149.0 374.0,148.0 375.0,147.0 376.0,145.0 377.0,145.0 378.0,146.0 379.0,144.0 380.0,145.0 381.0,143.0 382.0,144.0 383.0,142.0 384.0,143.0 385.0,142.0 386.0,143.0 387.0,141.0 388.0,142.0 389.0,141.0 390.0,142.0 391.0,140.0 392.0,141.0 393.0,140.0 394.0,140.0 395.0,140.0 396.0,140.0 397.0,139.0 398.0,138.0 399.0,139.0 400.0,138.0 401.0,138.0 402.0,138.0 403.0,137.0 404.0,136.0 405.0,136.0 406.0,136.0 407.0,136.0 408.0,134.0 409.0,134.0 410.0,133.0 411.0,133.0 412.0,133.0 413.0,132.0 414.0,133.0 415.0,132.0 416.0,131.0 417.0,132.0 418.0,132.0 419.0,132.0 420.0,131.0 421.0,130.0 422.0,131.0 423.0,129.0 424.0,129.0 425.0,128.0 426.0,128.0 427.0,127.0 428.0,126.0 429.0,126.0 430.0,125.0 431.0,125.0 432.0,124.0 433.0,124.0 434.0,123.0 435.0,123.0 436.0,122.0 437.0,121.0 438.0,120.0 439.0,120.0 440.0,120.0 441.0,119.0 442.0,120.0 443.0,118.0 444.0,119.0 445.0,117.0 446.0,117.0 447.0,117.0 448.0,117.0 449.0,117.0 450.0,116.0 451.0,115.0 452.0,116.0 453.0,115.0 454.0,115.0 455.0,116.0 456.0,116.0 457.0,116.0 458.0,116.0 459.0,117.0 460.0,116.0 461.0,117.0 462.0,117.0 463.0,116.0 464.0,115.0 465.0,115.0 466.0,114.0 467.0,114.0 468.0,114.0 469.0,114.0 470.0,114.0 471.0,112.0 472.0,113.0 473.0,113.0 474.0,112.0 475.0,112.0 476.0,111.0 477.0,111.0 478.0,110.0 479.0,110.0 480.0,109.0 481.0,110.0 482.0,109.0 483.0,107.0 484.0,109.0 485.0,108.0 486.0,108.0 487.0,108.0 488.0,106.0 489.0,107.0 490.0,107.0 491.0,105.0 492.0,105.0 493.0,105.0 494.0,105.0 495.0,105.0 496.0,104.0 497.0,104.0 498.0,103.0 499.0,102.0 500.0,102.0 501.0,101.0 502.0,101.0 503.0,101.0 504.0,100.0 505.0,100.0 506.0,100.0 507.0,99.0 508.0,99.0 509.0,98.0 510.0,97.0 511.0,97.0 512.0,95.0 513.0,96.0 514.0,95.0 515.0,94.0 516.0,93.0 517.0,93.0 518.0,92.0 519.0,91.0 520.0,91.0 521.0,90.0 522.0,89.0 523.0,87.0 524.0,87.0 525.0,86.0 526.0,86.0 527.0,84.0 528.0,84.0 529.0,83.0 530.0,83.0 531.0,82.0 532.0,82.0 533.0,81.0 534.0,80.0 535.0,79.0 536.0,79.0 537.0,78.0 538.0,78.0 539.0,78.0 540.0,76.0 541.0,76.0 542.0,75.0 543.0,75.0 544.0,74.0 545.0,74.0 546.0,72.0 547.0,71.0 548.0,71.0 549.0,70.0 550.0,69.0 551.0,68.0 552.0,68.0 553.0,66.0 554.0,67.0 555.0,65.0 556.0,65.0 557.0,64.0 558.0,63.0 559.0,62.0 560.0,61.0 561.0,61.0 562.0,60.0 563.0,60.0 564.0,59.0 565.0,58.0 566.0,58.0 567.0,57.0 568.0,57.0 569.0,57.0 570.0,55.0 571.0,56.0 572.0,53.0 573.0,54.0 574.0,52.0 575.0,52.0 576.0,53.0 577.0,51.0 578.0,52.0 579.0,50.0 580.0,50.0 581.0,49.0 582.0,50.0 583.0,50.0 584.0,47.0 585.0,48.0 586.0,47.0 587.0,48.0 588.0,47.0 589.0,46.0 590.0,47.0 591.0,45.0 592.0,46.0 593.0,45.0 594.0,46.0 595.0,45.0 596.0,46.0 597.0,45.0 598.0,46.0 599.0,45.0 600.0,45.0 601.0,45.0 602.0,45.0 603.0,44.0 604.0,45.0 605.0,44.0 606.0,44.0 607.0,44.0 608.0,44.0 609.0,43.0 610.0,43.0 611.0,43.0 612.0,40.0 613.0,41.0 614.0,40.0 615.0,39.0 616.0,39.0 617.0,37.0 618.0,37.0 619.0,37.0 620.0,36.0 621.0,35.0 622.0,35.0 623.0,34.0 624.0,32.0 625.0,32.0 626.0,31.0 627.0,30.0 628.0,31.0 629.0,30.0 630.0,29.0 631.0,28.0 632.0,28.0 633.0,27.0 634.0,26.0 635.0,26.0 636.0,24.0 637.0,26.0 638.0,24.0 639.0,24.0 640.0,23.0 641.0,24.0 642.0,23.0 643.0,24.0 644.0,22.0 645.0,22.0 646.0,23.0 647.0,22.0 648.0,21.0 649.0,22.0 650.0,22.0 651.0,20.0 652.0,20.0 653.0,21.0 654.0,21.0" fill="none" stroke="#00bfff" />
	<polyline points="55.0,304.0 56.0,298.0 57.0,304.0 58.0,299.0 59.0,303.0 60.0,299.0 61.0,302.0 62.0,299.0 63.0,301.0 64.0,299.0 65.0,300.0 66.0,298.0 67.0,299.0 68.0,298.0 69.0,298.0 70.0,297.0 71.0,297.0 72.0,296.0 73.0,296.0 74.0,295.0 75.0,295.0 76.0,294.0 77.0,293.0 78.0,292.0 79.0,292.0 80.0,292.0 81.0,292.0 82.0,292.0 83.0,292.0 84.0,292.0 85.0,291.0 86.0,291.0 87.0,292.0 88.0,291.0 89.0,290.0 90.0,290.0 91.0,291.0 92.0,289.0 93.0,290.0 94.0,288.0 95.0,288.0 96.0,288.0 97.0,287.0 98.0,288.0 99.0,286.0 100.0,287.0 101.0,285.0 102.0,286.0 103.0,284.0 104.0,284.0 105.0,283.0 106.0,283.0 107.0,282.0 108.0,282.0 109.0,281.0 110.0,282.0 111.0,279.0 112.0,279.0 113.0,278.0 114.0,277.0 115.0,277.0 116.0,276.0 117.0,275.0 118.0,274.0 119.0,273.0 120.0,273.0 121.0,272.0 122.0,272.0 123.0,271.0 124.0,271.0 125.0,270.0 126.0,270.0 127.0,269.0 128.0,269.0 129.0,269.0 130.0,268.0 131.0,268.0 132.0,267.0 133.0,267.0 134.0,268.0 135.0,266.0 136.0,267.0 137.0,267.0 138.0,265.0 139.0,266.0 140.0,264.0 141.0,264.0 142.0,264.0 143.0,263.0 144.0,264.0 145.0,264.0 146.0,264.0 147.0,264.0 148.0,265.0 149.0,264.0 150.0,263.0 151.0,264.0 152.0,262.0 153.0,263.0 154.0,263.0 155.0,262.0 156.0,261.0 157.0,261.0 158.0,261.0 159.0,261.0 160.0,259.0 161.0,260.0 162.0,259.0 163.0,259.0 164.0,258.0 165.0,258.0 166.0,257.0 167.0,257.0 168.0,256.0 169.0,255.0 170.0,254.0 171.0,254.0 172.0,252.0 173.0,253.0 174.0,251.0 175.0,252.0 176.0,250.0 177.0,251.0 178.0,248.0 179.0,249.0 180.0,247.0 181.0,247.0 182.0,245.0 183.0,243.0 184.0,243.0 185.0,242.0 186.0,241.0 187.0,240.0 188.0,239.0 189.0,238.0 190.0,237.0 191.0,236.0 192.0,236.0 193.0,235.0 194.0,234.0 195.0,234.0 196.0,233.0 197.0,232.0 198.0,231.0 199.0,231.0 200.0,229.0 201.0,230.0 202.0,229.0 203.0,228.0 204.0,228.0 205.0,227.0 206.0,227.0 207.0,226.0 208.0,226.0 209.0,226.0 210.0,225.0 211.0,225.0 212.0,224.0 213.0,224.0 214.0,224.0 215.0,223.0 216.0,224.0 217.0,223.0 218.0,223.0 219.0,223.0 220.0,223.0 221.0,223.0 222.0,222.0 223.0,223.0 224.0,223.0 225.0,223.0 226.0,222.0 227.0,224.0 228.0,223.0 229.0,224.0 230.0,223.0 231.0,225.0 232.0,225.0 233.0,225.0 234.0,226.0 235.0,227.0 236.0,227.0 237.0,227.0 238.0,226.0 239.0,228.0 240.0,227.0 241.0,228.0 242.0,228.0 243.0,228.0 244.0,228.0 245.0,227.0 246.0,227.0 247.0,227.0 248.0,227.0 249.0,226.0 250.0,225.0 251.0,225.0 252.0,225.0 253.0,225.0 254.0,224.0 255.0,224.0 256.0,223.0 257.0,223.0 258.0,222.0 259.0,221.0 260.0,221.0 261.0,220.0 262.0,219.0 263.0,219.0 264.0,218.0 265.0,218.0 266.0,217.0 267.0,216.0 268.0,215.0 269.0,215.0 270.0,214.0 271.0,213.0 272.0,212.0 273.0,211.0 274.0,209.0 275.0,209.0 276.0,207.0 277.0,206.0 278.0,204.0 279.0,203.0 280.0,202.0 281.0,202.0 282.0,200.0 283.0,201.0 284.0,199.0 285.0,200.0 286.0,198.0 287.0,197.0 288.0,196.0 289.0,195.0 290.0,193.0 291.0,193.0 292.0,193.0 293.0,193.0 294.0,191.0 295.0,190.0 296.0,191.0 297.0,190.0 298.0,189.0 299.0,188.0 300.0,187.0 301.0,187.0 302.0,188.0 303.0,187.0 304.0,185.0 305.0,185.0 306.0,185.0 307.0,185.0 308.0,184.0 309.0,183.0 310.0,184.0 311.0,183.0 312.0,183.0 313.0,183.0 314.0,181.0 315.0,182.0 316.0,183.0 317.0,182.0 318.0,181.0 319.0,180.0 320.0,182.0 321.0,180.0 322.0,182.0 323.0,181.0 324.0,181.0 325.0,181.0 326.0,182.0 327.0,183.0 328.0,183.0 329.0,182.0 330.0,182.0 331.0,182.0 332.0,182.0 333.0,182.0 334.0,180.0 335.0,181.0 336.0,179.0 337.0,178.0 338.0,177.0 339.0,175.0 340.0,175.0 341.0,175.0 342.0,173.0 343.0,174.0 344.0,172.0 345.0,173.0 346.0,173.0 347.0,172.0 348.0,173.0 349.0,170.0 350.0,172.0 351.0,171.0 352.0,172.0 353.0,171.0 354.0,172.0 355.0,171.0 356.0,172.0 357.0,172.0 358.0,170.0 359.0,171.0 360.0,170.0 361.0,169.0 362.0,169.0 363.0,169.0 364.0,169.0 365.0,169.0 366.0,169.0 367.0,169.0 368.0,167.0 369.0,167.0 370.0,166.0 371.0,165.0 372.0,166.0 373.0,164.0 374.0,164.0 375.0,163.0 376.0,163.0 377.0,161.0 378.0,161.0 379.0,160.0 380.0,159.0 381.0,159.0 382.0,158.0 383.0,157.0 384.0,157.0 385.0,155.0 386.0,155.0 387.0,154.0 388.0,153.0 389.0,151.0 390.0,150.0 391.0,149.0 392.0,150.0 393.0,148.0 394.0,149.0 395.0,147.0 396.0,147.0 397.0,147.0 398.0,146.0 399.0,145.0 400.0,144.0 401.0,144.0 402.0,143.0 403.0,143.0 404.0,142.0 405.0,142.0 406.0,140.0 407.0,142.0 408.0,136.0 409.0,138.0 410.0,138.0 411.0,137.0 412.0,138.0 413.0,138.0 414.0,136.0 415.0,136.0 416.0,135.0 417.0,133.0 418.0,134.0 419.0,132.0 420.0,133.0 421.0,132.0 422.0,132.0 423.0,131.0 424.0,132.0 425.0,130.0 426.0,130.0 427.0,130.0 428.0,130.0 429.0,129.0 430.0,129.0 431.0,127.0 432.0,127.0 433.0,127.0 434.0,126.0 435.0,126.0 436.0,125.0 437.0,126.0 438.0,125.0 439.0,125.0 440.0,123.0 441.0,124.0 442.0,123.0 443.0,122.0 444.0,122.0 445.0,120.0 446.0,121.0 447.0,119.0 448.0,120.0 449.0,118.0 450.0,118.0 451.0,118.0 452.0,116.0 453.0,116.0 454.0,116.0 455.0,115.0 456.0,115.0 457.0,114.0 458.0,114.0 459.0,113.0 460.0,114.0 461.0,112.0 462.0,111.0 463.0,111.0 464.0,110.0 465.0,109.0 466.0,108.0 467.0,108.0 468.0,107.0 469.0,106.0 470.0,105.0 471.0,105.0 472.0,105.0 473.0,104.0 474.0,104.0 475.0,103.0 476.0,103.0 477.0,102.0 478.0,102.0 479.0,102.0 480.0,100.0 481.0,99.0 482.0,100.0 483.0,99.0 484.0,99.0 485.0,98.0 486.0,97.0 487.0,97.0 488.0,97.0 489.0,96.0 490.0,96.0 491.0,95.0 492.0,96.0 493.0,94.0 494.0,95.0 495.0,94.0 496.0,94.0 497.0,95.0 498.0,94.0 499.0,93.0 500.0,94.0 501.0,93.0 502.0,93.0 503.0,92.0 504.0,92.0 505.0,91.0 506.0,92.0 507.0,92.0 508.0,90.0 509.0,89.0 510.0,89.0 511.0,88.0 512.0,89.0 513.0,87.0 514.0,87.0 515.0,87.0 516.0,86.0 517.0,86.0 518.0,86.0 519.0,85.0 520.0,86.0 521.0,84.0 522.0,84.0 523.0,84.0 524.0,84.0 525.0,80.0 526.0,82.0 527.0,80.0 528.0,80.0 529.0,79.0 530.0,79.0 531.0,78.0 532.0,78.0 533.0,79.0 534.0,77.0 535.0,78.0 536.0,77.0 537.0,77.0 538.0,77.0 539.0,76.0 540.0,77.0 541.0,76.0 542.0,76.0 543.0,76.0 544.0,76.0 545.0,75.0 546.0,74.0 547.0,74.0 548.0,74.0 549.0,73.0 550.0,73.0 551.0,72.0 552.0,72.0 553.0,71.0 554.0,71.0 555.0,70.0 556.0,70.0 557.0,70.0 558.0,69.0 559.0,66.0 560.0,67.0 561.0,66.0 562.0,65.0 563.0,66.0 564.0,64.0 565.0,64.0 566.0,65.0 567.0,64.0 568.0,63.0 569.0,63.0 570.0,62.0 571.0,63.0 572.0,62.0 573.0,63.0 574.0,62.0 575.0,62.0 576.0,61.0 577.0,59.0 578.0,59.0 579.0,60.0 580.0,59.0 581.0,58.0 582.0,58.0 583.0,57.0 584.0,57.0 585.0,57.0 586.0,57.0 587.0,57.0 588.0,57.0 589.0,55.0 590.0,57.0 591.0,55.0 592.0,56.0 593.0,53.0 594.0,55.0 595.0,53.0 596.0,53.0 597.0,53.0 598.0,53.0 599.0,52.0 600.0,52.0 601.0,51.0 602.0,53.0 603.0,51.0 604.0,50.0 605.0,49.0 606.0,49.0 607.0,49.0 608.0,49.0 609.0,48.0 610.0,48.0 611.0,47.0 612.0,46.0 613.0,47.0 614.0,45.0 615.0,45.0 616.0,45.0 617.0,44.0 618.0,44.0 619.0,43.0 620.0,42.0 621.0,42.0 622.0,41.0 623.0,41.0 624.0,39.0 625.0,40.0 626.0,39.0 627.0,40.0 628.0,38.0 629.0,39.0 630.0,38.0 631.0,38.0 632.0,37.0 633.0,37.0 634.0,36.0 635.0,36.0 636.0,35.0 637.0,36.0 638.0,35.0 639.0,34.0 640.0,33.0 641.0,33.0 642.0,33.0 643.0,31.0 644.0,30.0 645.0,30.0 646.0,28.0 647.0,27.0 648.0,27.0 649.0,27.0 650.0,25.0 651.0,26.0 652.0,23.0 653.0,25.0 654.0,23.0" fill="none" stroke="#4876ff" />
	<polyline points="55.0,304.0 56.0,298.0 57.0,303.0 58.0,299.0 59.0,303.0 60.0,299.0 61.0,302.0 62.0,299.0 63.0,301.0 64.0,299.0 65.0,300.0 66.0,298.0 67.0,299.0 68.0,298.0 69.0,298.0 70.0,297.0 71.0,297.0 72.0,297.0 73.0,296.0 74.0,296.0 75.0,296.0 76.0,296.0 77.0,296.0 78.0,296.0 79.0,295.0 80.0,295.0 81.0,294.0 82.0,294.0 83.0,294.0 84.0,293.0 85.0,293.0 86.0,292.0 87.0,292.0 88.0,291.0 89.0,291.0 90.0,290.0 91.0,289.0 92.0,289.0 93.0,289.0 94.0,287.0 95.0,287.0 96.0,287.0 97.0,285.0 98.0,285.0 99.0,284.0 100.0,284.0 101.0,283.0 102.0,282.0 103.0,282.0 104.0,281.0 105.0,281.0 106.0,279.0 107.0,279.0 108.0,279.0 109.0,278.0 110.0,278.0 111.0,278.0 112.0,276.0 113.0,275.0 114.0,275.0 115.0,274.0 116.0,275.0 117.0,273.0 118.0,271.0 119.0,272.0 120.0,272.0 121.0,271.0 122.0,269.0 123.0,269.0 124.0,268.0 125.0,268.0 126.0,266.0 127.0,267.0 128.0,266.0 129.0,265.0 130.0,264.0 131.0,265.0 132.0,264.0 133.0,264.0 134.0,264.0 135.0,262.0 136.0,262.0 137.0,261.0 138.0,261.0 139.0,261.0 140.0,261.0 141.0,261.0 142.0,259.0 143.0,260.0 144.0,259.0 145.0,258.0 146.0,258.0 147.0,257.0 148.0,258.0 149.0,257.0 150.0,258.0 151.0,257.0 152.0,257.0 153.0,257.0 154.0,257.0 155.0,256.0 156.0,256.0 157.0,256.0 158.0,256.0 159.0,255.0 160.0,255.0 161.0,255.0 162.0,255.0 163.0,254.0 164.0,254.0 165.0,254.0 166.0,253.0 167.0,254.0 168.0,253.0 169.0,254.0 170.0,252.0 171.0,252.0 172.0,253.0 173.0,253.0 174.0,253.0 175.0,253.0 176.0,253.0 177.0,253.0 178.0,252.0 179.0,252.0 180.0,252.0 181.0,253.0 182.0,251.0 183.0,251.0 184.0,250.0 185.0,250.0 186.0,250.0 187.0,249.0 188.0,249.0 189.0,247.0 190.0,247.0 191.0,246.0 192.0,246.0 193.0,244.0 194.0,244.0 195.0,244.0 196.0,243.0 197.0,243.0 198.0,243.0 199.0,242.0 200.0,241.0 201.0,242.0 202.0,240.0 203.0,241.0 204.0,241.0 205.0,242.0 206.0,240.0 207.0,240.0 208.0,238.0 209.0,239.0 210.0,238.0 211.0,239.0 212.0,238.0 213.0,238.0 214.0,239.0 215.0,232.0 216.0,234.0 217.0,234.0 218.0,234.0 219.0,233.0 220.0,232.0 221.0,233.0 222.0,230.0 223.0,231.0 224.0,228.0 225.0,230.0 226.0,226.0 227.0,227.0 228.0,226.0 229.0,225.0 230.0,225.0 231.0,224.0 232.0,223.0 233.0,223.0 234.0,221.0 235.0,220.0 236.0,220.0 237.0,218.0 238.0,218.0 239.0,217.0 240.0,217.0 241.0,217.0 242.0,216.0 243.0,217.0 244.0,215.0 245.0,215.0 246.0,215.0 247.0,213.0 248.0,214.0 249.0,214.0 250.0,212.0 251.0,212.0 252.0,211.0 253.0,211.0 254.0,211.0 255.0,210.0 256.0,209.0 257.0,209.0 258.0,208.0 259.0,207.0 260.0,206.0 261.0,207.0 262.0,206.0 263.0,206.0 264.0,205.0 265.0,204.0 266.0,204.0 267.0,202.0 268.0,202.0 269.0,202.0 270.0,201.0 271.0,200.0 272.0,199.0 273.0,199.0 274.0,197.0 275.0,197.0 276.0,195.0 277.0,195.0 278.0,195.0 279.0,196.0 280.0,195.0 281.0,194.0 282.0,194.0 283.0,194.0 284.0,194.0 285.0,194.0 286.0,193.0 287.0,193.0 288.0,193.0 289.0,193.0 290.0,193.0 291.0,192.0 292.0,192.0 293.0,192.0 294.0,191.0 295.0,191.0 296.0,191.0 297.0,190.0 298.0,190.0 299.0,190.0 300.0,190.0 301.0,189.0 302.0,189.0 303.0,187.0 304.0,187.0 305.0,186.0 306.0,185.0 307.0,185.0 308.0,185.0 309.0,184.0 310.0,183.0 311.0,183.0 312.0,183.0 313.0,182.0 314.0,182.0 315.0,181.0 316.0,181.0 317.0,179.0 318.0,179.0 319.0,178.0 320.0,177.0 321.0,176.0 322.0,176.0 323.0,175.0 324.0,174.0 325.0,174.0 326.0,172.0 327.0,171.0 328.0,169.0 329.0,169.0 330.0,166.0 331.0,166.0 332.0,164.0 333.0,162.0 334.0,161.0 335.0,160.0 336.0,160.0 337.0,159.0 338.0,158.0 339.0,158.0 340.0,158.0 341.0,157.0 342.0,157.0 343.0,157.0 344.0,156.0 345.0,156.0 346.0,155.0 347.0,155.0 348.0,154.0 349.0,154.0 350.0,153.0 351.0,153.0 352.0,152.0 353.0,152.0 354.0,151.0 355.0,151.0 356.0,150.0 357.0,150.0 358.0,149.0 359.0,149.0 360.0,148.0 361.0,147.0 362.0,148.0 363.0,147.0 364.0,146.0 365.0,146.0 366.0,146.0 367.0,146.0 368.0,144.0 369.0,145.0 370.0,145.0 371.0,143.0 372.0,144.0 373.0,143.0 374.0,143.0 375.0,143.0 376.0,143.0 377.0,143.0 378.0,143.0 379.0,141.0 380.0,142.0 381.0,141.0 382.0,141.0 383.0,140.0 384.0,141.0 385.0,140.0 386.0,141.0 387.0,139.0 388.0,140.0 389.0,139.0 390.0,139.0 391.0,138.0 392.0,138.0 393.0,138.0 394.0,137.0 395.0,137.0 396.0,135.0 397.0,136.0 398.0,135.0 399.0,135.0 400.0,135.0 401.0,134.0 402.0,134.0 403.0,133.0 404.0,133.0 405.0,133.0 406.0,132.0 407.0,131.0 408.0,131.0 409.0,130.0 410.0,130.0 411.0,129.0 412.0,129.0 413.0,128.0 414.0,128.0 415.0,127.0 416.0,126.0 417.0,126.0 418.0,126.0 419.0,125.0 420.0,125.0 421.0,124.0 422.0,124.0 423.0,123.0 424.0,123.0 425.0,122.0 426.0,122.0 427.0,121.0 428.0,121.0 429.0,121.0 430.0,120.0 431.0,119.0 432.0,119.0 433.0,119.0 434.0,118.0 435.0,118.0 436.0,117.0 437.0,117.0 438.0,116.0 439.0,116.0 440.0,115.0 441.0,115.0 442.0,114.0 443.0,114.0 444.0,114.0 445.0,113.0 446.0,113.0 447.0,112.0 448.0,112.0 449.0,111.0 450.0,111.0 451.0,110.0 452.0,110.0 453.0,109.0 454.0,109.0 455.0,108.0 456.0,108.0 457.0,107.0 458.0,108.0 459.0,106.0 460.0,107.0 461.0,105.0 462.0,105.0 463.0,105.0 464.0,105.0 465.0,104.0 466.0,104.0 467.0,103.0 468.0,103.0 469.0,102.0 470.0,101.0 471.0,101.0 472.0,101.0 473.0,101.0 474.0,100.0 475.0,100.0 476.0,99.0 477.0,98.0 478.0,98.0 479.0,97.0 480.0,97.0 481.0,97.0 482.0,96.0 483.0,95.0 484.0,95.0 485.0,95.0 486.0,94.0 487.0,94.0 488.0,93.0 489.0,93.0 490.0,92.0 491.0,91.0 492.0,92.0 493.0,91.0 494.0,89.0 495.0,90.0 496.0,88.0 497.0,89.0 498.0,88.0 499.0,89.0 500.0,88.0 501.0,87.0 502.0,88.0 503.0,87.0 504.0,86.0 505.0,86.0 506.0,85.0 507.0,85.0 508.0,85.0 509.0,84.0 510.0,84.0 511.0,83.0 512.0,83.0 513.0,83.0 514.0,82.0 515.0,82.0 516.0,81.0 517.0,81.0 518.0,81.0 519.0,81.0 520.0,80.0 521.0,79.0 522.0,79.0 523.0,79.0 524.0,78.0 525.0,77.0 526.0,78.0 527.0,77.0 528.0,76.0 529.0,75.0 530.0,76.0 531.0,75.0 532.0,74.0 533.0,74.0 534.0,74.0 535.0,73.0 536.0,73.0 537.0,72.0 538.0,71.0 539.0,72.0 540.0,70.0 541.0,70.0 542.0,70.0 543.0,69.0 544.0,69.0 545.0,68.0 546.0,68.0 547.0,68.0 548.0,68.0 549.0,67.0 550.0,66.0 551.0,66.0 552.0,65.0 553.0,65.0 554.0,64.0 555.0,63.0 556.0,63.0 557.0,63.0 558.0,62.0 559.0,61.0 560.0,61.0 561.0,61.0 562.0,60.0 563.0,60.0 564.0,59.0 565.0,59.0 566.0,58.0 567.0,58.0 568.0,57.0 569.0,57.0 570.0,56.0 571.0,56.0 572.0,55.0 573.0,55.0 574.0,55.0 575.0,53.0 576.0,54.0 577.0,53.0 578.0,53.0 579.0,51.0 580.0,52.0 581.0,50.0 582.0,51.0 583.0,50.0 584.0,50.0 585.0,48.0 586.0,49.0 587.0,47.0 588.0,48.0 589.0,46.0 590.0,47.0 591.0,45.0 592.0,46.0 593.0,45.0 594.0,45.0 595.0,44.0 596.0,45.0 597.0,43.0 598.0,44.0 599.0,42.0 600.0,43.0 601.0,41.0 602.0,41.0 603.0,41.0 604.0,41.0 605.0,39.0 606.0,40.0 607.0,38.0 608.0,39.0 609.0,38.0 610.0,38.0 611.0,37.0 612.0,37.0 613.0,36.0 614.0,37.0 615.0,35.0 616.0,35.0 617.0,35.0 618.0,34.0 619.0,33.0 620.0,34.0 621.0,32.0 622.0,33.0 623.0,31.0 624.0,32.0 625.0,31.0 626.0,31.0 627.0,30.0 628.0,30.0 629.0,29.0 630.0,29.0 631.0,28.0 632.0,28.0 633.0,27.0 634.0,27.0 635.0,26.0 636.0,26.0 637.0,26.0 638.0,25.0 639.0,26.0 640.0,24.0 641.0,24.0 642.0,23.0 643.0,24.0 644.0,22.0 645.0,22.0 646.0,21.0 647.0,22.0 648.0,20.0 649.0,21.0 650.0,19.0 651.0,20.0 652.0,19.0 653.0,19.0 654.0,18.0" fill="none" stroke="#aeeeee" />
	<polyline points="55.0,304.0 56.0,298.0 57.0,303.0 58.0,299.0 59.0,303.0 60.0,299.0 61.0,302.0 62.0,299.0 63.0,301.0 64.0,299.0 65.0,300.0 66.0,298.0 67.0,299.0 68.0,297.0 69.0,298.0 70.0,297.0 71.0,297.0 72.0,295.0 73.0,295.0 74.0,294.0 75.0,293.0 76.0,293.0 77.0,291.0 78.0,292.0 79.0,290.0 80.0,291.0 81.0,290.0 82.0,289.0 83.0,291.0 84.0,289.0 85.0,289.0 86.0,289.0 87.0,289.0 88.0,288.0 89.0,287.0 90.0,288.0 91.0,286.0 92.0,287.0 93.0,285.0 94.0,285.0 95.0,285.0 96.0,285.0 97.0,284.0 98.0,284.0 99.0,284.0 100.0,283.0 101.0,282.0 102.0,282.0 103.0,281.0 104.0,281.0 105.0,280.0 106.0,280.0 107.0,279.0 108.0,280.0 109.0,278.0 110.0,277.0 111.0,278.0 112.0,277.0 113.0,277.0 114.0,277.0 115.0,277.0 116.0,277.0 117.0,276.0 118.0,277.0 119.0,276.0 120.0,275.0 121.0,275.0 122.0,275.0 123.0,274.0 124.0,273.0 125.0,273.0 126.0,273.0 127.0,272.0 128.0,272.0 129.0,272.0 130.0,271.0 131.0,272.0 132.0,270.0 133.0,269.0 134.0,269.0 135.0,269.0 136.0,269.0 137.0,269.0 138.0,268.0 139.0,267.0 140.0,267.0 141.0,268.0 142.0,267.0 143.0,267.0 144.0,267.0 145.0,268.0 146.0,266.0 147.0,266.0 148.0,266.0 149.0,265.0 150.0,266.0 151.0,264.0 152.0,265.0 153.0,263.0 154.0,262.0 155.0,261.0 156.0,260.0 157.0,260.0 158.0,258.0 159.0,257.0 160.0,257.0 161.0,256.0 162.0,256.0 163.0,256.0 164.0,255.0 165.0,256.0 166.0,254.0 167.0,254.0 168.0,254.0 169.0,253.0 170.0,252.0 171.0,252.0 172.0,251.0 173.0,250.0 174.0,249.0 175.0,250.0 176.0,249.0 177.0,248.0 178.0,248.0 179.0,247.0 180.0,247.0 181.0,246.0 182.0,247.0 183.0,247.0 184.0,245.0 185.0,247.0 186.0,245.0 187.0,246.0 188.0,246.0 189.0,245.0 190.0,245.0 191.0,245.0 192.0,245.0 193.0,245.0 194.0,245.0 195.0,246.0 196.0,245.0 197.0,245.0 198.0,245.0 199.0,243.0 200.0,245.0 201.0,244.0 202.0,243.0 203.0,243.0 204.0,242.0 205.0,243.0 206.0,242.0 207.0,240.0 208.0,241.0 209.0,240.0 210.0,239.0 211.0,239.0 212.0,239.0 213.0,238.0 214.0,238.0 215.0,238.0 216.0,236.0 217.0,236.0 218.0,234.0 219.0,235.0 220.0,233.0 221.0,232.0 222.0,232.0 223.0,231.0 224.0,229.0 225.0,229.0 226.0,227.0 227.0,228.0 228.0,224.0 229.0,226.0 230.0,225.0 231.0,226.0 232.0,224.0 233.0,224.0 234.0,223.0 235.0,223.0 236.0,221.0 237.0,222.0 238.0,221.0 239.0,221.0 240.0,220.0 241.0,219.0 242.0,219.0 243.0,219.0 244.0,217.0 245.0,216.0 246.0,216.0 247.0,216.0 248.0,216.0 249.0,215.0 250.0,215.0 251.0,216.0 252.0,215.0 253.0,214.0 254.0,213.0 255.0,214.0 256.0,212.0 257.0,212.0 258.0,210.0 259.0,211.0 260.0,209.0 261.0,210.0 262.0,208.0 263.0,208.0 264.0,207.0 265.0,207.0 266.0,206.0 267.0,207.0 268.0,207.0 269.0,205.0 270.0,205.0 271.0,204.0 272.0,205.0 273.0,203.0 274.0,204.0 275.0,204.0 276.0,204.0 277.0,203.0 278.0,203.0 279.0,203.0 280.0,201.0 281.0,203.0 282.0,201.0 283.0,203.0 284.0,200.0 285.0,195.0 286.0,197.0 287.0,197.0 288.0,195.0 289.0,195.0 290.0,195.0 291.0,193.0 292.0,194.0 293.0,192.0 294.0,190.0 295.0,191.0 296.0,190.0 297.0,190.0 298.0,188.0 299.0,189.0 300.0,186.0 301.0,188.0 302.0,186.0 303.0,187.0 304.0,187.0 305.0,187.0 306.0,185.0 307.0,186.0 308.0,184.0 309.0,185.0 310.0,184.0 311.0,183.0 312.0,183.0 313.0,183.0 314.0,182.0 315.0,181.0 316.0,180.0 317.0,181.0 318.0,180.0 319.0,180.0 320.0,180.0 321.0,179.0 322.0,179.0 323.0,179.0 324.0,178.0 325.0,179.0 326.0,179.0 327.0,177.0 328.0,179.0 329.0,178.0 330.0,177.0 331.0,177.0 332.0,176.0 333.0,176.0 334.0,176.0 335.0,175.0 336.0,175.0 337.0,174.0 338.0,175.0 339.0,173.0 340.0,173.0 341.0,172.0 342.0,171.0 343.0,170.0 344.0,169.0 345.0,170.0 346.0,168.0 347.0,168.0 348.0,166.0 349.0,167.0 350.0,166.0 351.0,166.0 352.0,164.0 353.0,165.0 354.0,162.0 355.0,163.0 356.0,163.0 357.0,162.0 358.0,162.0 359.0,162.0 360.0,160.0 361.0,159.0 362.0,159.0 363.0,158.0 364.0,157.0 365.0,157.0 366.0,156.0 367.0,155.0 368.0,155.0 369.0,154.0 370.0,154.0 371.0,154.0 372.0,152.0 373.0,152.0 374.0,152.0 375.0,152.0 376.0,150.0 377.0,150.0 378.0,151.0 379.0,149.0 380.0,148.0 381.0,149.0 382.0,147.0 383.0,147.0 384.0,147.0 385.0,145.0 386.0,145.0 387.0,144.0 388.0,143.0 389.0,143.0 390.0,142.0 391.0,142.0 392.0,140.0 393.0,141.0 394.0,139.0 395.0,139.0 396.0,138.0 397.0,137.0 398.0,138.0 399.0,136.0 400.0,136.0 401.0,135.0 402.0,136.0 403.0,134.0 404.0,134.0 405.0,133.0 406.0,133.0 407.0,131.0 408.0,132.0 409.0,132.0 410.0,131.0 411.0,130.0 412.0,131.0 413.0,129.0 414.0,130.0 415.0,128.0 416.0,130.0 417.0,127.0 418.0,127.0 419.0,126.0 420.0,127.0 421.0,127.0 422.0,125.0 423.0,126.0 424.0,125.0 425.0,126.0 426.0,125.0 427.0,125.0 428.0,124.0 429.0,124.0 430.0,123.0 431.0,123.0 432.0,122.0 433.0,123.0 434.0,121.0 435.0,122.0 436.0,121.0 437.0,121.0 438.0,122.0 439.0,120.0 440.0,120.0 441.0,119.0 442.0,120.0 443.0,119.0 444.0,119.0 445.0,118.0 446.0,118.0 447.0,117.0 448.0,118.0 449.0,116.0 450.0,118.0 451.0,115.0 452.0,117.0 453.0,116.0 454.0,116.0 455.0,114.0 456.0,116.0 457.0,116.0 458.0,115.0 459.0,115.0 460.0,115.0 461.0,115.0 462.0,116.0 463.0,115.0 464.0,116.0 465.0,117.0 466.0,115.0 467.0,116.0 468.0,115.0 469.0,114.0 470.0,114.0 471.0,114.0 472.0,113.0 473.0,113.0 474.0,113.0 475.0,112.0 476.0,111.0 477.0,111.0 478.0,110.0 479.0,110.0 480.0,109.0 481.0,109.0 482.0,108.0 483.0,109.0 484.0,108.0 485.0,107.0 486.0,107.0 487.0,106.0 488.0,106.0 489.0,106.0 490.0,106.0 491.0,105.0 492.0,105.0 493.0,104.0 494.0,104.0 495.0,103.0 496.0,103.0 497.0,102.0 498.0,101.0 499.0,101.0 500.0,100.0 501.0,100.0 502.0,99.0 503.0,98.0 504.0,98.0 505.0,96.0 506.0,96.0 507.0,96.0 508.0,95.0 509.0,94.0 510.0,94.0 511.0,93.0 512.0,92.0 513.0,91.0 514.0,90.0 515.0,90.0 516.0,89.0 517.0,88.0 518.0,87.0 519.0,86.0 520.0,85.0 521.0,85.0 522.0,84.0 523.0,84.0 524.0,83.0 525.0,82.0 526.0,82.0 527.0,80.0 528.0,80.0 529.0,79.0 530.0,78.0 531.0,77.0 532.0,77.0 533.0,77.0 534.0,75.0 535.0,76.0 536.0,75.0 537.0,74.0 538.0,73.0 539.0,73.0 540.0,73.0 541.0,71.0 542.0,71.0 543.0,69.0 544.0,70.0 545.0,69.0 546.0,69.0 547.0,69.0 548.0,67.0 549.0,68.0 550.0,66.0 551.0,67.0 552.0,65.0 553.0,65.0 554.0,64.0 555.0,64.0 556.0,63.0 557.0,63.0 558.0,62.0 559.0,62.0 560.0,60.0 561.0,59.0 562.0,59.0 563.0,59.0 564.0,57.0 565.0,58.0 566.0,57.0 567.0,57.0 568.0,56.0 569.0,56.0 570.0,55.0 571.0,54.0 572.0,54.0 573.0,53.0 574.0,52.0 575.0,52.0 576.0,52.0 577.0,51.0 578.0,51.0 579.0,51.0 580.0,50.0 581.0,50.0 582.0,49.0 583.0,48.0 584.0,49.0 585.0,46.0 586.0,47.0 587.0,45.0 588.0,45.0 589.0,44.0 590.0,44.0 591.0,42.0 592.0,42.0 593.0,41.0 594.0,41.0 595.0,40.0 596.0,40.0 597.0,38.0 598.0,37.0 599.0,37.0 600.0,37.0 601.0,35.0 602.0,35.0 603.0,34.0 604.0,34.0 605.0,34.0 606.0,32.0 607.0,32.0 608.0,31.0 609.0,31.0 610.0,30.0 611.0,30.0 612.0,29.0 613.0,29.0 614.0,28.0 615.0,27.0 616.0,27.0 617.0,27.0 618.0,26.0 619.0,25.0 620.0,25.0 621.0,25.0 622.0,24.0 623.0,23.0 624.0,24.0 625.0,22.0 626.0,22.0 627.0,22.0 628.0,21.0 629.0,21.0 630.0,19.0 631.0,21.0 632.0,18.0 633.0,20.0 634.0,17.0 635.0,19.0 636.0,16.0 637.0,17.0 638.0,15.0 639.0,16.0 640.0,14.0 641.0,15.0 642.0,13.0 643.0,14.0 644.0,11.0 645.0,13.0 646.0,11.0 647.0,12.0 648.0,11.0 649.0,11.0 650.0,10.0 651.0,11.0 652.0,9.0 653.0,10.0 654.0,9.0" fill="none" stroke="#00ffff" />
	<polyline points="55.0,5.0 655.0,5.0" fill="none" stroke="#6d6d6d" />
	<polyline points="55.0,305.0 655.0,305.0" fill="none" stroke="#6d6d6d" />
	<polyline points="55.0,305.0 55.0,310.0" fill="none" stroke="#6d6d6d" />
	<polyline points="205.0,305.0 205.0,310.0" fill="none" stroke="#6d6d6d" />
	<polyline points="355.0,305.0 355.0,310.0" fill="none" stroke="#6d6d6d" />
	<polyline points="505.0,305.0 505.0,310.0" fill="none" stroke="#6d6d6d" />
	<polyline points="655.0,305.0 655.0,310.0" fill="none" stroke="#6d6d6d" />
	<polyline points="55.0,5.0 55.0,305.0" fill="none" stroke="#6d6d6d" />
	<polyline points="655.0,5.0 655.0,305.0" fill="none" stroke="#6d6d6d" />
	<polyline points="50.0,5.0 55.0,5.0" fill="none" stroke="#6d6d6d" />
	<polyline points="50.0,80.0 55.0,80.0" fill="none" stroke="#6d6d6d" />
	<polyline points="50.0,155.0 55.0,155.0" fill="none" stroke="#6d6d6d" />
	<polyline points="50.0,230.0 55.0,230.0" fill="none" stroke="#6d6d6d" />
	<polyline points="50.0,305.0 55.0,305.0" fill="none" stroke="#6d6d6d" />
	<text x="55.0" y="323.0" fill="#6d6d6d" font-family="Arial" font-size="9pt" text-anchor="middle">1</text>
	<text x="205.0" y="323.0" fill="#6d6d6d" font-family="Arial" font-size="9pt" text-anchor="middle">150</text>
	<text x="355.0" y="323.0" fill="#6d6d6d" font-family="Arial" font-size="9pt" text-anchor="middle">300</text>
	<text x="505.0" y="323.0" fill="#6d6d6d" font-family="Arial" font-size="9pt" text-anchor="middle">450</text>
	<text x="655.0" y="323.0" fill="#6d6d6d" font-family="Arial" font-size="9pt" text-anchor="middle">600</text>
	<text x="45.0" y="9.0" fill="#6d6d6d" font-family="Arial" font-size="9pt" text-anchor="end">36.4</text>
	<text x="45.0" y="84.0" fill="#6d6d6d" font-family="Arial" font-size="9pt" text-anchor="end">28.7</text>
	<text x="45.0" y="159.0" fill="#6d6d6d" font-family="Arial" font-size="9pt" text-anchor="end">21.1</text>
	<text x="45.0" y="234.0" fill="#6d6d6d" font-family="Arial" font-size="9pt" text-anchor="end">13.4</text>
	<text x="45.0" y="309.0" fill="#6d6d6d" font-family="Arial" font-size="9pt" text-anchor="end">5.72</text>
</svg>
