<?xml version="1.0" encoding="UTF-8" standalone="no"?>
<!DOCTYPE svg PUBLIC "-//W3C//DTD SVG 1.1//EN" "http://www.w3.org/Graphics/SVG/1.1/DTD/svg11.dtd">
<svg xmlns="http://www.w3.org/2000/svg"  version="1.1" width="693.0" height="380.0" viewBox="-6.0 -12.0 687.0 368.0">
	<desc>LSD Plot - Sim_10c</desc>
	<polyline points="205.0,6.0 205.0,304.0" fill="none" stroke="#f0f0f0" />
	<polyline points="355.0,6.0 355.0,304.0" fill="none" stroke="#f0f0f0" />
	<polyline points="505.0,6.0 505.0,304.0" fill="none" stroke="#f0f0f0" />
	<polyline points="56.0,80.0 654.0,80.0" fill="none" stroke="#f0f0f0" />
	<polyline points="56.0,155.0 654.0,155.0" fill="none" stroke="#f0f0f0" />
	<polyline points="56.0,230.0 654.0,230.0" fill="none" stroke="#f0f0f0" />
	<text x="5.0" y="345.0" font-family="Arial" font-size="9pt">IMP_1</text>
	<text x="44.0" y="345.0" fill="#ff0000" font-family="Arial" font-size="9pt">IMP_2</text>
	<text x="83.0" y="345.0" fill="#008000" font-family="Arial" font-size="9pt">IMP_3</text>
	<text x="122.0" y="345.0" fill="#d0d000" font-family="Arial" font-size="9pt">IMP_4</text>
	<text x="161.0" y="345.0" fill="#fb46bc" font-family="Arial" font-size="9pt">IMP_5</text>
	<text x="200.0" y="345.0" fill="#0000ff" font-family="Arial" font-size="9pt">IMP_6</text>
	<text x="239.0" y="345.0" fill="#00bfff" font-family="Arial" font-size="9pt">IMP_7</text>
	<text x="278.0" y="345.0" fill="#4876ff" font-family="Arial" font-size="9pt">IMP_8</text>
	<text x="317.0" y="345.0" fill="#aeeeee" font-family="Arial" font-size="9pt">IMP_9</text>
	<text x="356.0" y="345.0" fill="#00ffff" font-family="Arial" font-size="9pt">IMP_10</text>
	<polyline points="55.0,298.0 56.0,304.0 57.0,298.0 58.0,303.0 59.0,299.0 60.0,302.0 61.0,299.0 62.0,301.0 63.0,298.0 64.0,300.0 65.0,298.0 66.0,299.0 67.0,298.0 68.0,298.0 69.0,297.0 70.0,297.0 71.0,296.0 72.0,296.0 73.0,295.0 74.0,295.0 75.0,294.0 76.0,295.0 77.0,294.0 78.0,293.0 79.0,293.0 80.0,292.0 81.0,292.0 82.0,292.0 83.0,292.0 84.0,291.0 85.0,291.0 86.0,290.0 87.0,290.0 88.0,289.0 89.0,289.0 90.0,289.0 91.0,289.0 92.0,288.0 93.0,288.0 94.0,287.0 95.0,287.0 96.0,287.0 97.0,287.0 98.0,286.0 99.0,286.0 100.0,285.0 101.0,285.0 102.0,284.0 103.0,284.0 104.0,283.0 105.0,283.0 106.0,283.0 107.0,282.0 108.0,282.0 109.0,282.0 110.0,280.0 111.0,281.0 112.0,280.0 113.0,280.0 114.0,279.0 115.0,278.0 116.0,278.0 117.0,277.0 118.0,277.0 119.0,277.0 120.0,276.0 121.0,276.0 122.0,275.0 123.0,274.0 124.0,275.0 125.0,274.0 126.0,274.0 127.0,272.0 128.0,273.0 129.0,271.0 130.0,272.0 131.0,270.0 132.0,270.0 133.0,269.0 134.0,269.0 135.0,268.0 136.0,268.0 137.0,267.0 138.0,267.0 139.0,267.0 140.0,266.0 141.0,265.0 142.0,264.0 143.0,265.0 144.0,264.0 145.0,264.0 146.0,264.0 147.0,264.0 148.0,263.0 149.0,263.0 150.0,262.0 151.0,262.0 152.0,261.0 153.0,261.0 154.0,260.0 155.0,260.0 156.0,260.0 157.0,259.0 158.0,260.0 159.0,259.0 160.0,258.0 161.0,258.0 162.0,258.0 163.0,258.0 164.0,258.0 165.0,257.0 166.0,258.0 167.0,257.0 168.0,257.0 169.0,256.0 170.0,257.0 171.0,255.0 172.0,256.0 173.0,254.0 174.0,255.0 175.0,253.0 176.0,252.0 177.0,253.0 178.0,251.0 179.0,251.0 180.0,250.0 181.0,249.0 182.0,250.0 183.0,248.0 184.0,248.0 185.0,246.0 186.0,247.0 187.0,245.0 188.0,246.0 189.0,244.0 190.0,245.0 191.0,244.0 192.0,243.0 193.0,242.0 194.0,242.0 195.0,242.0 196.0,240.0 197.0,241.0 198.0,238.0 199.0,239.0 200.0,238.0 201.0,237.0 202.0,237.0 203.0,236.0 204.0,235.0 205.0,235.0 206.0,233.0 207.0,234.0 208.0,233.0 209.0,232.0 210.0,232.0 211.0,231.0 212.0,231.0 213.0,231.0 214.0,230.0 215.0,230.0 216.0,229.0 217.0,229.0 218.0,229.0 219.0,227.0 220.0,229.0 221.0,227.0 222.0,227.0 223.0,227.0 224.0,227.0 225.0,226.0 226.0,226.0 227.0,226.0 228.0,225.0 229.0,225.0 230.0,225.0 231.0,224.0 232.0,225.0 233.0,223.0 234.0,223.0 235.0,223.0 236.0,223.0 237.0,223.0 238.0,222.0 239.0,221.0 240.0,222.0 241.0,221.0 242.0,220.0 243.0,220.0 244.0,220.0 245.0,219.0 246.0,218.0 247.0,218.0 248.0,218.0 249.0,217.0 250.0,216.0 251.0,216.0 252.0,216.0 253.0,215.0 254.0,215.0 255.0,214.0 256.0,213.0 257.0,214.0 258.0,212.0 259.0,213.0 260.0,211.0 261.0,211.0 262.0,211.0 263.0,209.0 264.0,210.0 265.0,209.0 266.0,207.0 267.0,207.0 268.0,206.0 269.0,205.0 270.0,204.0 271.0,203.0 272.0,203.0 273.0,202.0 274.0,201.0 275.0,201.0 276.0,200.0 277.0,199.0 278.0,200.0 279.0,199.0 280.0,199.0 281.0,199.0 282.0,198.0 283.0,197.0 284.0,196.0 285.0,196.0 286.0,196.0 287.0,195.0 288.0,196.0 289.0,194.0 290.0,194.0 291.0,194.0 292.0,194.0 293.0,193.0 294.0,193.0 295.0,192.0 296.0,192.0 297.0,191.0 298.0,191.0 299.0,191.0 300.0,190.0 301.0,190.0 302.0,189.0 303.0,188.0 304.0,189.0 305.0,189.0 306.0,188.0 307.0,188.0 308.0,188.0 309.0,186.0 310.0,188.0 311.0,186.0 312.0,186.0 313.0,186.0 314.0,185.0 315.0,185.0 316.0,184.0 317.0,185.0 318.0,184.0 319.0,184.0 320.0,184.0 321.0,184.0 322.0,183.0 323.0,183.0 324.0,182.0 325.0,182.0 326.0,182.0 327.0,181.0 328.0,181.0 329.0,181.0 330.0,180.0 331.0,180.0 332.0,179.0 333.0,179.0 334.0,178.0 335.0,178.0 336.0,177.0 337.0,176.0 338.0,176.0 339.0,174.0 340.0,175.0 341.0,173.0 342.0,172.0 343.0,172.0 344.0,171.0 345.0,171.0 346.0,170.0 347.0,170.0 348.0,169.0 349.0,169.0 350.0,168.0 351.0,168.0 352.0,168.0 353.0,167.0 354.0,168.0 355.0,167.0 356.0,166.0 357.0,166.0 358.0,167.0 359.0,165.0 360.0,165.0 361.0,165.0 362.0,165.0 363.0,165.0 364.0,164.0 365.0,164.0 366.0,163.0 367.0,163.0 368.0,163.0 369.0,162.0 370.0,162.0 371.0,162.0 372.0,161.0 373.0,161.0 374.0,160.0 375.0,160.0 376.0,159.0 377.0,159.0 378.0,158.0 379.0,158.0 380.0,158.0 381.0,157.0 382.0,156.0 383.0,156.0 384.0,155.0 385.0,155.0 386.0,154.0 387.0,154.0 388.0,153.0 389.0,153.0 390.0,152.0 391.0,153.0 392.0,150.0 393.0,151.0 394.0,150.0 395.0,149.0 396.0,149.0 397.0,148.0 398.0,148.0 399.0,147.0 400.0,147.0 401.0,147.0 402.0,145.0 403.0,146.0 404.0,144.0 405.0,145.0 406.0,143.0 407.0,144.0 408.0,143.0 409.0,142.0 410.0,142.0 411.0,142.0 412.0,141.0 413.0,140.0 414.0,140.0 415.0,139.0 416.0,139.0 417.0,139.0 418.0,138.0 419.0,138.0 420.0,137.0 421.0,136.0 422.0,135.0 423.0,136.0 424.0,134.0 425.0,135.0 426.0,133.0 427.0,134.0 428.0,132.0 429.0,132.0 430.0,132.0 431.0,132.0 432.0,131.0 433.0,131.0 434.0,130.0 435.0,129.0 436.0,129.0 437.0,127.0 438.0,127.0 439.0,127.0 440.0,126.0 441.0,126.0 442.0,125.0 443.0,125.0 444.0,124.0 445.0,124.0 446.0,124.0 447.0,123.0 448.0,123.0 449.0,122.0 450.0,121.0 451.0,121.0 452.0,120.0 453.0,120.0 454.0,118.0 455.0,118.0 456.0,117.0 457.0,116.0 458.0,116.0 459.0,115.0 460.0,114.0 461.0,112.0 462.0,113.0 463.0,111.0 464.0,111.0 465.0,111.0 466.0,110.0 467.0,108.0 468.0,110.0 469.0,107.0 470.0,108.0 471.0,107.0 472.0,106.0 473.0,107.0 474.0,105.0 475.0,105.0 476.0,104.0 477.0,103.0 478.0,103.0 479.0,103.0 480.0,102.0 481.0,102.0 482.0,102.0 483.0,102.0 484.0,100.0 485.0,101.0 486.0,101.0 487.0,101.0 488.0,100.0 489.0,101.0 490.0,99.0 491.0,100.0 492.0,100.0 493.0,99.0 494.0,99.0 495.0,99.0 496.0,98.0 497.0,99.0 498.0,98.0 499.0,98.0 500.0,97.0 501.0,96.0 502.0,97.0 503.0,96.0 504.0,95.0 505.0,95.0 506.0,94.0 507.0,94.0 508.0,93.0 509.0,93.0 510.0,92.0 511.0,92.0 512.0,91.0 513.0,91.0 514.0,90.0 515.0,90.0 516.0,90.0 517.0,88.0 518.0,89.0 519.0,86.0 520.0,87.0 521.0,87.0 522.0,85.0 523.0,86.0 524.0,84.0 525.0,84.0 526.0,84.0 527.0,84.0 528.0,84.0 529.0,82.0 530.0,83.0 531.0,82.0 532.0,82.0 533.0,82.0 534.0,81.0 535.0,81.0 536.0,81.0 537.0,80.0 538.0,79.0 539.0,79.0 540.0,79.0 541.0,78.0 542.0,78.0 543.0,76.0 544.0,77.0 545.0,75.0 546.0,76.0 547.0,75.0 548.0,74.0 549.0,74.0 550.0,73.0 551.0,73.0 552.0,71.0 553.0,71.0 554.0,71.0 555.0,71.0 556.0,69.0 557.0,69.0 558.0,68.0 559.0,67.0 560.0,67.0 561.0,65.0 562.0,66.0 563.0,64.0 564.0,65.0 565.0,65.0 566.0,63.0 567.0,63.0 568.0,62.0 569.0,61.0 570.0,61.0 571.0,61.0 572.0,60.0 573.0,60.0 574.0,60.0 575.0,59.0 576.0,61.0 577.0,56.0 578.0,58.0 579.0,57.0 580.0,56.0 581.0,56.0 582.0,55.0 583.0,55.0 584.0,53.0 585.0,54.0 586.0,52.0 587.0,53.0 588.0,51.0 589.0,52.0 590.0,51.0 591.0,51.0 592.0,49.0 593.0,49.0 594.0,49.0 595.0,48.0 596.0,48.0 597.0,47.0 598.0,47.0 599.0,46.0 600.0,46.0 601.0,45.0 602.0,45.0 603.0,44.0 604.0,44.0 605.0,43.0 606.0,43.0 607.0,42.0 608.0,43.0 609.0,41.0 610.0,41.0 611.0,41.0 612.0,40.0 613.0,41.0 614.0,39.0 615.0,40.0 616.0,39.0 617.0,39.0 618.0,37.0 619.0,38.0 620.0,37.0 621.0,38.0 622.0,37.0 623.0,37.0 624.0,35.0 625.0,37.0 626.0,35.0 627.0,35.0 628.0,34.0 629.0,35.0 630.0,33.0 631.0,34.0 632.0,33.0 633.0,32.0 634.0,33.0 635.0,32.0 636.0,31.0 637.0,31.0 638.0,31.0 639.0,30.0 640.0,31.0 641.0,28.0 642.0,30.0 643.0,28.0 644.0,29.0 645.0,26.0 646.0,28.0 647.0,25.0 648.0,26.0 649.0,24.0 650.0,25.0 651.0,23.0 652.0,23.0 653.0,22.0 654.0,21.0" fill="none" stroke="#000000" />
	<polyline points="55.0,298.0 56.0,304.0 57.0,298.0 58.0,303.0 59.0,299.0 60.0,302.0 61.0,299.0 62.0,302.0 63.0,299.0 64.0,301.0 65.0,299.0 66.0,300.0 67.0,298.0 68.0,299.0 69.0,298.0 70.0,298.0 71.0,297.0 72.0,298.0 73.0,296.0 74.0,297.0 75.0,296.0 76.0,296.0 77.0,296.0 78.0,296.0 79.0,295.0 80.0,295.0 81.0,295.0 82.0,294.0 83.0,294.0 84.0,293.0 85.0,293.0 86.0,293.0 87.0,292.0 88.0,292.0 89.0,291.0 90.0,291.0 91.0,291.0 92.0,289.0 93.0,290.0 94.0,288.0 95.0,288.0 96.0,288.0 97.0,288.0 98.0,286.0 99.0,286.0 100.0,285.0 101.0,285.0 102.0,285.0 103.0,285.0 104.0,283.0 105.0,284.0 106.0,282.0 107.0,282.0 108.0,282.0 109.0,281.0 110.0,280.0 111.0,280.0 112.0,280.0 113.0,278.0 114.0,278.0 115.0,277.0 116.0,278.0 117.0,276.0 118.0,277.0 119.0,275.0 120.0,275.0 121.0,275.0 122.0,273.0 123.0,273.0 124.0,272.0 125.0,273.0 126.0,272.0 127.0,272.0 128.0,272.0 129.0,270.0 130.0,273.0 131.0,268.0 132.0,270.0 133.0,268.0 134.0,270.0 135.0,268.0 136.0,269.0 137.0,267.0 138.0,267.0 139.0,267.0 140.0,267.0 141.0,266.0 142.0,266.0 143.0,265.0 144.0,266.0 145.0,265.0 146.0,265.0 147.0,264.0 148.0,264.0 149.0,263.0 150.0,264.0 151.0,263.0 152.0,263.0 153.0,262.0 154.0,262.0 155.0,260.0 156.0,261.0 157.0,260.0 158.0,260.0 159.0,259.0 160.0,259.0 161.0,258.0 162.0,258.0 163.0,257.0 164.0,257.0 165.0,256.0 166.0,256.0 167.0,255.0 168.0,255.0 169.0,255.0 170.0,254.0 171.0,253.0 172.0,252.0 173.0,251.0 174.0,251.0 175.0,251.0 176.0,249.0 177.0,249.0 178.0,248.0 179.0,247.0 180.0,247.0 181.0,246.0 182.0,245.0 183.0,245.0 184.0,244.0 185.0,243.0 186.0,243.0 187.0,242.0 188.0,242.0 189.0,240.0 190.0,240.0 191.0,240.0 192.0,240.0 193.0,239.0 194.0,239.0 195.0,239.0 196.0,237.0 197.0,238.0 198.0,237.0 199.0,236.0 200.0,236.0 201.0,235.0 202.0,236.0 203.0,234.0 204.0,235.0 205.0,233.0 206.0,234.0 207.0,233.0 208.0,233.0 209.0,233.0 210.0,233.0 211.0,232.0 212.0,232.0 213.0,231.0 214.0,230.0 215.0,230.0 216.0,230.0 217.0,229.0 218.0,228.0 219.0,228.0 220.0,227.0 221.0,227.0 222.0,227.0 223.0,225.0 224.0,227.0 225.0,224.0 226.0,224.0 227.0,224.0 228.0,223.0 229.0,223.0 230.0,222.0 231.0,222.0 232.0,222.0 233.0,221.0 234.0,221.0 235.0,220.0 236.0,220.0 237.0,219.0 238.0,220.0 239.0,218.0 240.0,219.0 241.0,218.0 242.0,217.0 243.0,217.0 244.0,215.0 245.0,216.0 246.0,215.0 247.0,215.0 248.0,214.0 249.0,213.0 250.0,212.0 251.0,212.0 252.0,211.0 253.0,211.0 254.0,210.0 255.0,209.0 256.0,209.0 257.0,208.0 258.0,208.0 259.0,207.0 260.0,208.0 261.0,206.0 262.0,206.0 263.0,205.0 264.0,204.0 265.0,204.0 266.0,204.0 267.0,203.0 268.0,203.0 269.0,203.0 270.0,202.0 271.0,201.0 272.0,201.0 273.0,200.0 274.0,200.0 275.0,198.0 276.0,199.0 277.0,197.0 278.0,196.0 279.0,196.0 280.0,195.0 281.0,193.0 282.0,194.0 283.0,192.0 284.0,192.0 285.0,191.0 286.0,192.0 287.0,190.0 288.0,190.0 289.0,190.0 290.0,189.0 291.0,189.0 292.0,188.0 293.0,187.0 294.0,187.0 295.0,186.0 296.0,187.0 297.0,185.0 298.0,185.0 299.0,184.0 300.0,185.0 301.0,183.0 302.0,183.0 303.0,182.0 304.0,183.0 305.0,181.0 306.0,182.0 307.0,181.0 308.0,181.0 309.0,178.0 310.0,180.0 311.0,179.0 312.0,177.0 313.0,179.0 314.0,176.0 315.0,177.0 316.0,175.0 317.0,176.0 318.0,175.0 319.0,175.0 320.0,174.0 321.0,174.0 322.0,172.0 323.0,173.0 324.0,171.0 325.0,171.0 326.0,170.0 327.0,171.0 328.0,170.0 329.0,171.0 330.0,170.0 331.0,172.0 332.0,171.0 333.0,171.0 334.0,171.0 335.0,171.0 336.0,171.0 337.0,171.0 338.0,171.0 339.0,171.0 340.0,171.0 341.0,172.0 342.0,172.0 343.0,172.0 344.0,172.0 345.0,172.0 346.0,171.0 347.0,171.0 348.0,171.0 349.0,171.0 350.0,170.0 351.0,170.0 352.0,169.0 353.0,169.0 354.0,169.0 355.0,168.0 356.0,168.0 357.0,167.0 358.0,167.0 359.0,167.0 360.0,166.0 361.0,166.0 362.0,165.0 363.0,165.0 364.0,164.0 365.0,164.0 366.0,164.0 367.0,163.0 368.0,163.0 369.0,162.0 370.0,162.0 371.0,161.0 372.0,161.0 373.0,160.0 374.0,160.0 375.0,159.0 376.0,159.0 377.0,158.0 378.0,158.0 379.0,158.0 380.0,157.0 381.0,157.0 382.0,156.0 383.0,156.0 384.0,156.0 385.0,155.0 386.0,155.0 387.0,154.0 388.0,154.0 389.0,153.0 390.0,152.0 391.0,153.0 392.0,151.0 393.0,151.0 394.0,151.0 395.0,150.0 396.0,150.0 397.0,150.0 398.0,149.0 399.0,149.0 400.0,148.0 401.0,148.0 402.0,148.0 403.0,147.0 404.0,147.0 405.0,146.0 406.0,146.0 407.0,145.0 408.0,144.0 409.0,144.0 410.0,144.0 411.0,143.0 412.0,143.0 413.0,142.0 414.0,141.0 415.0,142.0 416.0,141.0 417.0,141.0 418.0,140.0 419.0,140.0 420.0,139.0 421.0,139.0 422.0,138.0 423.0,138.0 424.0,137.0 425.0,137.0 426.0,136.0 427.0,136.0 428.0,135.0 429.0,135.0 430.0,134.0 431.0,134.0 432.0,133.0 433.0,133.0 434.0,133.0 435.0,132.0 436.0,132.0 437.0,131.0 438.0,131.0 439.0,130.0 440.0,130.0 441.0,129.0 442.0,129.0 443.0,128.0 444.0,128.0 445.0,127.0 446.0,127.0 447.0,127.0 448.0,126.0 449.0,126.0 450.0,125.0 451.0,125.0 452.0,124.0 453.0,124.0 454.0,123.0 455.0,123.0 456.0,122.0 457.0,121.0 458.0,121.0 459.0,120.0 460.0,120.0 461.0,119.0 462.0,119.0 463.0,118.0 464.0,118.0 465.0,117.0 466.0,117.0 467.0,117.0 468.0,116.0 469.0,115.0 470.0,115.0 471.0,115.0 472.0,114.0 473.0,114.0 474.0,113.0 475.0,112.0 476.0,112.0 477.0,111.0 478.0,111.0 479.0,110.0 480.0,109.0 481.0,109.0 482.0,108.0 483.0,108.0 484.0,107.0 485.0,106.0 486.0,107.0 487.0,105.0 488.0,105.0 489.0,104.0 490.0,103.0 491.0,103.0 492.0,102.0 493.0,101.0 494.0,100.0 495.0,99.0 496.0,99.0 497.0,97.0 498.0,97.0 499.0,98.0 500.0,96.0 501.0,94.0 502.0,95.0 503.0,94.0 504.0,94.0 505.0,93.0 506.0,91.0 507.0,94.0 508.0,89.0 509.0,92.0 510.0,89.0 511.0,91.0 512.0,89.0 513.0,89.0 514.0,89.0 515.0,89.0 516.0,88.0 517.0,88.0 518.0,87.0 519.0,88.0 520.0,86.0 521.0,87.0 522.0,86.0 523.0,86.0 524.0,85.0 525.0,84.0 526.0,84.0 527.0,83.0 528.0,83.0 529.0,82.0 530.0,82.0 531.0,82.0 532.0,81.0 533.0,80.0 534.0,80.0 535.0,79.0 536.0,79.0 537.0,78.0 538.0,78.0 539.0,77.0 540.0,77.0 541.0,75.0 542.0,76.0 543.0,74.0 544.0,75.0 545.0,72.0 546.0,74.0 547.0,72.0 548.0,72.0 549.0,71.0 550.0,71.0 551.0,70.0 552.0,71.0 553.0,69.0 554.0,70.0 555.0,68.0 556.0,68.0 557.0,68.0 558.0,67.0 559.0,66.0 560.0,67.0 561.0,65.0 562.0,66.0 563.0,65.0 564.0,65.0 565.0,64.0 566.0,65.0 567.0,63.0 568.0,64.0 569.0,64.0 570.0,61.0 571.0,62.0 572.0,62.0 573.0,62.0 574.0,61.0 575.0,61.0 576.0,61.0 577.0,60.0 578.0,60.0 579.0,59.0 580.0,59.0 581.0,59.0 582.0,58.0 583.0,58.0 584.0,57.0 585.0,58.0 586.0,56.0 587.0,57.0 588.0,56.0 589.0,56.0 590.0,55.0 591.0,54.0 592.0,54.0 593.0,55.0 594.0,51.0 595.0,53.0 596.0,52.0 597.0,51.0 598.0,51.0 599.0,52.0 600.0,51.0 601.0,50.0 602.0,50.0 603.0,49.0 604.0,50.0 605.0,48.0 606.0,48.0 607.0,48.0 608.0,47.0 609.0,46.0 610.0,46.0 611.0,46.0 612.0,44.0 613.0,45.0 614.0,44.0 615.0,45.0 616.0,43.0 617.0,44.0 618.0,42.0 619.0,42.0 620.0,42.0 621.0,42.0 622.0,40.0 623.0,40.0 624.0,40.0 625.0,40.0 626.0,38.0 627.0,38.0 628.0,39.0 629.0,35.0 630.0,37.0 631.0,36.0 632.0,36.0 633.0,35.0 634.0,35.0 635.0,34.0 636.0,35.0 637.0,32.0 638.0,34.0 639.0,31.0 640.0,33.0 641.0,31.0 642.0,31.0 643.0,30.0 644.0,30.0 645.0,29.0 646.0,29.0 647.0,28.0 648.0,29.0 649.0,26.0 650.0,28.0 651.0,26.0 652.0,26.0 653.0,24.0 654.0,25.0" fill="none" stroke="#ff0000" />
	<polyline points="55.0,298.0 56.0,304.0 57.0,298.0 58.0,303.0 59.0,299.0 60.0,302.0 61.0,299.0 62.0,301.0 63.0,299.0 64.0,300.0 65.0,298.0 66.0,299.0 67.0,298.0 68.0,299.0 69.0,297.0 70.0,298.0 71.0,297.0 72.0,297.0 73.0,296.0 74.0,296.0 75.0,295.0 76.0,295.0 77.0,295.0 78.0,294.0 79.0,294.0 80.0,293.0 81.0,293.0 82.0,293.0 83.0,292.0 84.0,292.0 85.0,291.0 86.0,291.0 87.0,291.0 88.0,290.0 89.0,290.0 90.0,289.0 91.0,289.0 92.0,288.0 93.0,289.0 94.0,288.0 95.0,288.0 96.0,287.0 97.0,287.0 98.0,286.0 99.0,286.0 100.0,285.0 101.0,286.0 102.0,285.0 103.0,285.0 104.0,284.0 105.0,284.0 106.0,283.0 107.0,283.0 108.0,283.0 109.0,282.0 110.0,281.0 111.0,281.0 112.0,280.0 113.0,280.0 114.0,279.0 115.0,279.0 116.0,279.0 117.0,277.0 118.0,277.0 119.0,277.0 120.0,276.0 121.0,275.0 122.0,275.0 123.0,274.0 124.0,275.0 125.0,274.0 126.0,273.0 127.0,272.0 128.0,273.0 129.0,271.0 130.0,272.0 131.0,271.0 132.0,270.0 133.0,270.0 134.0,269.0 135.0,268.0 136.0,269.0 137.0,267.0 138.0,267.0 139.0,266.0 140.0,266.0 141.0,264.0 142.0,264.0 143.0,263.0 144.0,262.0 145.0,262.0 146.0,261.0 147.0,261.0 148.0,260.0 149.0,258.0 150.0,259.0 151.0,258.0 152.0,258.0 153.0,256.0 154.0,258.0 155.0,254.0 156.0,257.0 157.0,254.0 158.0,254.0 159.0,255.0 160.0,252.0 161.0,254.0 162.0,251.0 163.0,253.0 164.0,250.0 165.0,252.0 166.0,250.0 167.0,252.0 168.0,249.0 169.0,252.0 170.0,247.0 171.0,251.0 172.0,247.0 173.0,249.0 174.0,245.0 175.0,248.0 176.0,244.0 177.0,248.0 178.0,244.0 179.0,244.0 180.0,244.0 181.0,241.0 182.0,243.0 183.0,241.0 184.0,240.0 185.0,240.0 186.0,239.0 187.0,239.0 188.0,238.0 189.0,238.0 190.0,236.0 191.0,237.0 192.0,235.0 193.0,236.0 194.0,233.0 195.0,235.0 196.0,233.0 197.0,232.0 198.0,233.0 199.0,231.0 200.0,232.0 201.0,231.0 202.0,229.0 203.0,230.0 204.0,228.0 205.0,229.0 206.0,227.0 207.0,227.0 208.0,227.0 209.0,226.0 210.0,226.0 211.0,225.0 212.0,224.0 213.0,225.0 214.0,223.0 215.0,224.0 216.0,223.0 217.0,224.0 218.0,223.0 219.0,222.0 220.0,223.0 221.0,224.0 222.0,223.0 223.0,224.0 224.0,225.0 225.0,225.0 226.0,226.0 227.0,226.0 228.0,227.0 229.0,226.0 230.0,226.0 231.0,225.0 232.0,225.0 233.0,225.0 234.0,224.0 235.0,224.0 236.0,223.0 237.0,223.0 238.0,222.0 239.0,222.0 240.0,221.0 241.0,221.0 242.0,221.0 243.0,220.0 244.0,220.0 245.0,219.0 246.0,219.0 247.0,218.0 248.0,218.0 249.0,218.0 250.0,217.0 251.0,217.0 252.0,216.0 253.0,216.0 254.0,215.0 255.0,215.0 256.0,214.0 257.0,214.0 258.0,213.0 259.0,213.0 260.0,213.0 261.0,212.0 262.0,212.0 263.0,211.0 264.0,211.0 265.0,210.0 266.0,210.0 267.0,209.0 268.0,209.0 269.0,208.0 270.0,208.0 271.0,207.0 272.0,207.0 273.0,206.0 274.0,206.0 275.0,206.0 276.0,205.0 277.0,205.0 278.0,205.0 279.0,204.0 280.0,204.0 281.0,203.0 282.0,203.0 283.0,202.0 284.0,202.0 285.0,201.0 286.0,201.0 287.0,200.0 288.0,200.0 289.0,199.0 290.0,199.0 291.0,199.0 292.0,198.0 293.0,198.0 294.0,197.0 295.0,197.0 296.0,196.0 297.0,196.0 298.0,196.0 299.0,195.0 300.0,194.0 301.0,195.0 302.0,193.0 303.0,193.0 304.0,193.0 305.0,192.0 306.0,192.0 307.0,191.0 308.0,191.0 309.0,190.0 310.0,190.0 311.0,189.0 312.0,189.0 313.0,189.0 314.0,188.0 315.0,188.0 316.0,187.0 317.0,187.0 318.0,186.0 319.0,186.0 320.0,185.0 321.0,185.0 322.0,185.0 323.0,184.0 324.0,184.0 325.0,183.0 326.0,183.0 327.0,182.0 328.0,182.0 329.0,181.0 330.0,181.0 331.0,181.0 332.0,180.0 333.0,180.0 334.0,179.0 335.0,179.0 336.0,178.0 337.0,178.0 338.0,177.0 339.0,177.0 340.0,176.0 341.0,176.0 342.0,176.0 343.0,175.0 344.0,174.0 345.0,174.0 346.0,174.0 347.0,173.0 348.0,173.0 349.0,172.0 350.0,171.0 351.0,171.0 352.0,170.0 353.0,170.0 354.0,169.0 355.0,169.0 356.0,168.0 357.0,168.0 358.0,168.0 359.0,167.0 360.0,167.0 361.0,166.0 362.0,165.0 363.0,165.0 364.0,165.0 365.0,164.0 366.0,164.0 367.0,163.0 368.0,163.0 369.0,162.0 370.0,162.0 371.0,161.0 372.0,161.0 373.0,161.0 374.0,160.0 375.0,160.0 376.0,159.0 377.0,158.0 378.0,158.0 379.0,157.0 380.0,157.0 381.0,157.0 382.0,156.0 383.0,156.0 384.0,155.0 385.0,155.0 386.0,154.0 387.0,154.0 388.0,153.0 389.0,153.0 390.0,152.0 391.0,152.0 392.0,151.0 393.0,151.0 394.0,150.0 395.0,150.0 396.0,150.0 397.0,149.0 398.0,149.0 399.0,148.0 400.0,148.0 401.0,147.0 402.0,146.0 403.0,147.0 404.0,146.0 405.0,145.0 406.0,145.0 407.0,145.0 408.0,144.0 409.0,144.0 410.0,143.0 411.0,143.0 412.0,142.0 413.0,142.0 414.0,141.0 415.0,141.0 416.0,140.0 417.0,140.0 418.0,139.0 419.0,139.0 420.0,138.0 421.0,138.0 422.0,138.0 423.0,137.0 424.0,136.0 425.0,136.0 426.0,135.0 427.0,135.0 428.0,135.0 429.0,133.0 430.0,134.0 431.0,132.0 432.0,133.0 433.0,132.0 434.0,132.0 435.0,131.0 436.0,131.0 437.0,130.0 438.0,130.0 439.0,129.0 440.0,128.0 441.0,128.0 442.0,128.0 443.0,126.0 444.0,127.0 445.0,126.0 446.0,125.0 447.0,125.0 448.0,124.0 449.0,124.0 450.0,123.0 451.0,123.0 452.0,121.0 453.0,121.0 454.0,120.0 455.0,120.0 456.0,119.0 457.0,119.0 458.0,118.0 459.0,117.0 460.0,116.0 461.0,115.0 462.0,115.0 463.0,114.0 464.0,113.0 465.0,113.0 466.0,111.0 467.0,112.0 468.0,110.0 469.0,111.0 470.0,109.0 471.0,108.0 472.0,108.0 473.0,107.0 474.0,106.0 475.0,105.0 476.0,104.0 477.0,104.0 478.0,103.0 479.0,102.0 480.0,101.0 481.0,101.0 482.0,100.0 483.0,101.0 484.0,99.0 485.0,99.0 486.0,98.0 487.0,97.0 488.0,97.0 489.0,97.0 490.0,95.0 491.0,96.0 492.0,94.0 493.0,95.0 494.0,93.0 495.0,95.0 496.0,92.0 497.0,92.0 498.0,92.0 499.0,91.0 500.0,91.0 501.0,90.0 502.0,90.0 503.0,88.0 504.0,89.0 505.0,88.0 506.0,88.0 507.0,87.0 508.0,87.0 509.0,86.0 510.0,87.0 511.0,86.0 512.0,86.0 513.0,85.0 514.0,85.0 515.0,85.0 516.0,84.0 517.0,84.0 518.0,84.0 519.0,84.0 520.0,82.0 521.0,82.0 522.0,83.0 523.0,81.0 524.0,82.0 525.0,81.0 526.0,81.0 527.0,82.0 528.0,80.0 529.0,81.0 530.0,80.0 531.0,80.0 532.0,80.0 533.0,80.0 534.0,79.0 535.0,78.0 536.0,79.0 537.0,78.0 538.0,78.0 539.0,76.0 540.0,77.0 541.0,76.0 542.0,75.0 543.0,76.0 544.0,74.0 545.0,75.0 546.0,73.0 547.0,74.0 548.0,73.0 549.0,73.0 550.0,72.0 551.0,73.0 552.0,71.0 553.0,72.0 554.0,70.0 555.0,71.0 556.0,70.0 557.0,70.0 558.0,69.0 559.0,69.0 560.0,70.0 561.0,68.0 562.0,69.0 563.0,68.0 564.0,68.0 565.0,67.0 566.0,67.0 567.0,66.0 568.0,66.0 569.0,65.0 570.0,65.0 571.0,65.0 572.0,64.0 573.0,63.0 574.0,64.0 575.0,63.0 576.0,63.0 577.0,62.0 578.0,61.0 579.0,59.0 580.0,59.0 581.0,60.0 582.0,58.0 583.0,58.0 584.0,57.0 585.0,58.0 586.0,56.0 587.0,56.0 588.0,56.0 589.0,55.0 590.0,55.0 591.0,55.0 592.0,54.0 593.0,55.0 594.0,53.0 595.0,53.0 596.0,53.0 597.0,53.0 598.0,52.0 599.0,52.0 600.0,52.0 601.0,51.0 602.0,51.0 603.0,50.0 604.0,50.0 605.0,50.0 606.0,49.0 607.0,49.0 608.0,48.0 609.0,48.0 610.0,47.0 611.0,47.0 612.0,46.0 613.0,46.0 614.0,46.0 615.0,46.0 616.0,45.0 617.0,45.0 618.0,43.0 619.0,44.0 620.0,43.0 621.0,42.0 622.0,42.0 623.0,42.0 624.0,41.0 625.0,41.0 626.0,40.0 627.0,40.0 628.0,39.0 629.0,39.0 630.0,38.0 631.0,38.0 632.0,37.0 633.0,36.0 634.0,37.0 635.0,34.0 636.0,35.0 637.0,34.0 638.0,34.0 639.0,33.0 640.0,33.0 641.0,32.0 642.0,32.0 643.0,31.0 644.0,31.0 645.0,30.0 646.0,31.0 647.0,29.0 648.0,30.0 649.0,28.0 650.0,29.0 651.0,27.0 652.0,28.0 653.0,26.0 654.0,26.0" fill="none" stroke="#008000" />
	<polyline points="55.0,298.0 56.0,304.0 57.0,298.0 58.0,303.0 59.0,299.0 60.0,302.0 61.0,299.0 62.0,301.0 63.0,299.0 64.0,300.0 65.0,298.0 66.0,300.0 67.0,298.0 68.0,299.0 69.0,297.0 70.0,297.0 71.0,296.0 72.0,297.0 73.0,296.0 74.0,296.0 75.0,295.0 76.0,294.0 77.0,294.0 78.0,294.0 79.0,294.0 80.0,294.0 81.0,293.0 82.0,294.0 83.0,293.0 84.0,292.0 85.0,293.0 86.0,291.0 87.0,291.0 88.0,291.0 89.0,290.0 90.0,290.0 91.0,289.0 92.0,289.0 93.0,289.0 94.0,287.0 95.0,288.0 96.0,286.0 97.0,287.0 98.0,286.0 99.0,286.0 100.0,286.0 101.0,285.0 102.0,286.0 103.0,284.0 104.0,285.0 105.0,284.0 106.0,283.0 107.0,283.0 108.0,282.0 109.0,282.0 110.0,281.0 111.0,280.0 112.0,280.0 113.0,278.0 114.0,279.0 115.0,278.0 116.0,277.0 117.0,277.0 118.0,276.0 119.0,276.0 120.0,276.0 121.0,275.0 122.0,276.0 123.0,274.0 124.0,274.0 125.0,273.0 126.0,273.0 127.0,272.0 128.0,273.0 129.0,272.0 130.0,271.0 131.0,271.0 132.0,272.0 133.0,269.0 134.0,271.0 135.0,268.0 136.0,269.0 137.0,267.0 138.0,267.0 139.0,266.0 140.0,267.0 141.0,265.0 142.0,266.0 143.0,263.0 144.0,265.0 145.0,263.0 146.0,264.0 147.0,260.0 148.0,262.0 149.0,259.0 150.0,260.0 151.0,259.0 152.0,259.0 153.0,258.0 154.0,259.0 155.0,257.0 156.0,257.0 157.0,257.0 158.0,256.0 159.0,256.0 160.0,255.0 161.0,255.0 162.0,255.0 163.0,253.0 164.0,254.0 165.0,252.0 166.0,253.0 167.0,251.0 168.0,252.0 169.0,251.0 170.0,250.0 171.0,251.0 172.0,249.0 173.0,250.0 174.0,249.0 175.0,250.0 176.0,249.0 177.0,247.0 178.0,248.0 179.0,246.0 180.0,247.0 181.0,245.0 182.0,246.0 183.0,245.0 184.0,244.0 185.0,244.0 186.0,244.0 187.0,243.0 188.0,243.0 189.0,243.0 190.0,241.0 191.0,242.0 192.0,240.0 193.0,241.0 194.0,240.0 195.0,240.0 196.0,239.0 197.0,238.0 198.0,238.0 199.0,238.0 200.0,236.0 201.0,237.0 202.0,235.0 203.0,236.0 204.0,235.0 205.0,234.0 206.0,234.0 207.0,232.0 208.0,233.0 209.0,231.0 210.0,233.0 211.0,230.0 212.0,230.0 213.0,230.0 214.0,228.0 215.0,227.0 216.0,229.0 217.0,224.0 218.0,225.0 219.0,222.0 220.0,222.0 221.0,220.0 222.0,222.0 223.0,217.0 224.0,219.0 225.0,216.0 226.0,216.0 227.0,215.0 228.0,215.0 229.0,213.0 230.0,214.0 231.0,212.0 232.0,213.0 233.0,212.0 234.0,211.0 235.0,211.0 236.0,211.0 237.0,210.0 238.0,210.0 239.0,209.0 240.0,209.0 241.0,207.0 242.0,209.0 243.0,207.0 244.0,207.0 245.0,206.0 246.0,206.0 247.0,206.0 248.0,205.0 249.0,205.0 250.0,204.0 251.0,204.0 252.0,203.0 253.0,203.0 254.0,203.0 255.0,201.0 256.0,202.0 257.0,200.0 258.0,202.0 259.0,199.0 260.0,201.0 261.0,199.0 262.0,199.0 263.0,198.0 264.0,198.0 265.0,197.0 266.0,197.0 267.0,197.0 268.0,197.0 269.0,196.0 270.0,196.0 271.0,195.0 272.0,196.0 273.0,194.0 274.0,195.0 275.0,193.0 276.0,195.0 277.0,192.0 278.0,195.0 279.0,190.0 280.0,194.0 281.0,189.0 282.0,193.0 283.0,189.0 284.0,192.0 285.0,188.0 286.0,190.0 287.0,187.0 288.0,190.0 289.0,186.0 290.0,188.0 291.0,186.0 292.0,187.0 293.0,185.0 294.0,186.0 295.0,184.0 296.0,184.0 297.0,184.0 298.0,183.0 299.0,182.0 300.0,182.0 301.0,183.0 302.0,181.0 303.0,181.0 304.0,180.0 305.0,179.0 306.0,179.0 307.0,179.0 308.0,178.0 309.0,178.0 310.0,177.0 311.0,176.0 312.0,176.0 313.0,175.0 314.0,174.0 315.0,174.0 316.0,174.0 317.0,173.0 318.0,172.0 319.0,172.0 320.0,172.0 321.0,171.0 322.0,170.0 323.0,170.0 324.0,169.0 325.0,169.0 326.0,168.0 327.0,169.0 328.0,167.0 329.0,167.0 330.0,167.0 331.0,165.0 332.0,167.0 333.0,164.0 334.0,165.0 335.0,164.0 336.0,164.0 337.0,162.0 338.0,162.0 339.0,162.0 340.0,162.0 341.0,161.0 342.0,160.0 343.0,159.0 344.0,160.0 345.0,158.0 346.0,159.0 347.0,158.0 348.0,157.0 349.0,157.0 350.0,157.0 351.0,156.0 352.0,155.0 353.0,156.0 354.0,155.0 355.0,154.0 356.0,154.0 357.0,153.0 358.0,153.0 359.0,153.0 360.0,152.0 361.0,151.0 362.0,152.0 363.0,150.0 364.0,150.0 365.0,150.0 366.0,149.0 367.0,149.0 368.0,148.0 369.0,147.0 370.0,148.0 371.0,147.0 372.0,147.0 373.0,146.0 374.0,146.0 375.0,144.0 376.0,145.0 377.0,144.0 378.0,143.0 379.0,143.0 380.0,142.0 381.0,143.0 382.0,141.0 383.0,141.0 384.0,141.0 385.0,141.0 386.0,139.0 387.0,139.0 388.0,139.0 389.0,138.0 390.0,138.0 391.0,137.0 392.0,137.0 393.0,136.0 394.0,136.0 395.0,136.0 396.0,135.0 397.0,135.0 398.0,133.0 399.0,134.0 400.0,132.0 401.0,134.0 402.0,131.0 403.0,132.0 404.0,130.0 405.0,131.0 406.0,129.0 407.0,130.0 408.0,128.0 409.0,130.0 410.0,127.0 411.0,128.0 412.0,126.0 413.0,128.0 414.0,125.0 415.0,126.0 416.0,125.0 417.0,125.0 418.0,123.0 419.0,124.0 420.0,123.0 421.0,123.0 422.0,122.0 423.0,121.0 424.0,122.0 425.0,120.0 426.0,121.0 427.0,120.0 428.0,119.0 429.0,119.0 430.0,118.0 431.0,117.0 432.0,118.0 433.0,116.0 434.0,117.0 435.0,115.0 436.0,116.0 437.0,114.0 438.0,114.0 439.0,113.0 440.0,113.0 441.0,113.0 442.0,113.0 443.0,112.0 444.0,111.0 445.0,111.0 446.0,110.0 447.0,110.0 448.0,109.0 449.0,109.0 450.0,108.0 451.0,108.0 452.0,107.0 453.0,107.0 454.0,106.0 455.0,105.0 456.0,106.0 457.0,104.0 458.0,105.0 459.0,104.0 460.0,104.0 461.0,102.0 462.0,102.0 463.0,101.0 464.0,102.0 465.0,100.0 466.0,101.0 467.0,100.0 468.0,99.0 469.0,100.0 470.0,98.0 471.0,98.0 472.0,98.0 473.0,97.0 474.0,96.0 475.0,96.0 476.0,95.0 477.0,95.0 478.0,94.0 479.0,94.0 480.0,94.0 481.0,93.0 482.0,92.0 483.0,92.0 484.0,91.0 485.0,91.0 486.0,90.0 487.0,89.0 488.0,89.0 489.0,89.0 490.0,87.0 491.0,88.0 492.0,86.0 493.0,86.0 494.0,86.0 495.0,85.0 496.0,85.0 497.0,84.0 498.0,84.0 499.0,83.0 500.0,83.0 501.0,83.0 502.0,82.0 503.0,82.0 504.0,81.0 505.0,81.0 506.0,81.0 507.0,79.0 508.0,79.0 509.0,79.0 510.0,78.0 511.0,77.0 512.0,78.0 513.0,76.0 514.0,77.0 515.0,75.0 516.0,76.0 517.0,75.0 518.0,74.0 519.0,75.0 520.0,72.0 521.0,74.0 522.0,72.0 523.0,73.0 524.0,71.0 525.0,72.0 526.0,70.0 527.0,71.0 528.0,69.0 529.0,70.0 530.0,69.0 531.0,69.0 532.0,68.0 533.0,67.0 534.0,67.0 535.0,67.0 536.0,66.0 537.0,66.0 538.0,65.0 539.0,64.0 540.0,65.0 541.0,63.0 542.0,65.0 543.0,61.0 544.0,64.0 545.0,60.0 546.0,63.0 547.0,60.0 548.0,61.0 549.0,60.0 550.0,59.0 551.0,59.0 552.0,58.0 553.0,57.0 554.0,58.0 555.0,56.0 556.0,56.0 557.0,55.0 558.0,54.0 559.0,53.0 560.0,54.0 561.0,52.0 562.0,53.0 563.0,51.0 564.0,51.0 565.0,51.0 566.0,50.0 567.0,50.0 568.0,49.0 569.0,49.0 570.0,49.0 571.0,47.0 572.0,47.0 573.0,48.0 574.0,46.0 575.0,47.0 576.0,45.0 577.0,46.0 578.0,44.0 579.0,46.0 580.0,43.0 581.0,45.0 582.0,42.0 583.0,44.0 584.0,41.0 585.0,43.0 586.0,41.0 587.0,42.0 588.0,39.0 589.0,41.0 590.0,38.0 591.0,40.0 592.0,38.0 593.0,38.0 594.0,37.0 595.0,37.0 596.0,36.0 597.0,37.0 598.0,35.0 599.0,35.0 600.0,34.0 601.0,34.0 602.0,33.0 603.0,33.0 604.0,33.0 605.0,31.0 606.0,32.0 607.0,31.0 608.0,31.0 609.0,30.0 610.0,30.0 611.0,29.0 612.0,28.0 613.0,30.0 614.0,27.0 615.0,28.0 616.0,26.0 617.0,28.0 618.0,25.0 619.0,27.0 620.0,24.0 621.0,25.0 622.0,24.0 623.0,24.0 624.0,23.0 625.0,22.0 626.0,23.0 627.0,21.0 628.0,23.0 629.0,19.0 630.0,22.0 631.0,18.0 632.0,21.0 633.0,17.0 634.0,20.0 635.0,17.0 636.0,19.0 637.0,15.0 638.0,18.0 639.0,14.0 640.0,17.0 641.0,13.0 642.0,18.0 643.0,10.0 644.0,17.0 645.0,10.0 646.0,15.0 647.0,10.0 648.0,14.0 649.0,10.0 650.0,12.0 651.0,9.0 652.0,11.0 653.0,9.0 654.0,9.0" fill="none" stroke="#d0d000" />
	<polyline points="55.0,298.0 56.0,304.0 57.0,298.0 58.0,303.0 59.0,299.0 60.0,302.0 61.0,299.0 62.0,301.0 63.0,299.0 64.0,300.0 65.0,298.0 66.0,299.0 67.0,298.0 68.0,299.0 69.0,297.0 70.0,298.0 71.0,297.0 72.0,297.0 73.0,296.0 74.0,296.0 75.0,295.0 76.0,295.0 77.0,294.0 78.0,293.0 79.0,293.0 80.0,292.0 81.0,292.0 82.0,291.0 83.0,292.0 84.0,291.0 85.0,291.0 86.0,290.0 87.0,289.0 88.0,289.0 89.0,289.0 90.0,288.0 91.0,289.0 92.0,288.0 93.0,288.0 94.0,287.0 95.0,288.0 96.0,286.0 97.0,287.0 98.0,287.0 99.0,286.0 100.0,287.0 101.0,286.0 102.0,286.0 103.0,285.0 104.0,285.0 105.0,285.0 106.0,284.0 107.0,283.0 108.0,283.0 109.0,283.0 110.0,281.0 111.0,281.0 112.0,280.0 113.0,280.0 114.0,279.0 115.0,279.0 116.0,278.0 117.0,278.0 118.0,277.0 119.0,277.0 120.0,277.0 121.0,275.0 122.0,275.0 123.0,275.0 124.0,275.0 125.0,274.0 126.0,275.0 127.0,272.0 128.0,274.0 129.0,273.0 130.0,272.0 131.0,271.0 132.0,271.0 133.0,270.0 134.0,270.0 135.0,269.0 136.0,269.0 137.0,268.0 138.0,268.0 139.0,268.0 140.0,267.0 141.0,268.0 142.0,266.0 143.0,267.0 144.0,267.0 145.0,265.0 146.0,265.0 147.0,266.0 148.0,265.0 149.0,265.0 150.0,264.0 151.0,264.0 152.0,263.0 153.0,262.0 154.0,263.0 155.0,261.0 156.0,262.0 157.0,260.0 158.0,261.0 159.0,259.0 160.0,259.0 161.0,259.0 162.0,258.0 163.0,258.0 164.0,259.0 165.0,257.0 166.0,258.0 167.0,256.0 168.0,258.0 169.0,256.0 170.0,256.0 171.0,255.0 172.0,256.0 173.0,255.0 174.0,255.0 175.0,254.0 176.0,254.0 177.0,254.0 178.0,252.0 179.0,252.0 180.0,253.0 181.0,250.0 182.0,250.0 183.0,249.0 184.0,249.0 185.0,247.0 186.0,248.0 187.0,246.0 188.0,246.0 189.0,245.0 190.0,245.0 191.0,244.0 192.0,244.0 193.0,242.0 194.0,243.0 195.0,243.0 196.0,241.0 197.0,243.0 198.0,240.0 199.0,243.0 200.0,239.0 201.0,241.0 202.0,240.0 203.0,241.0 204.0,239.0 205.0,240.0 206.0,239.0 207.0,239.0 208.0,238.0 209.0,238.0 210.0,237.0 211.0,236.0 212.0,236.0 213.0,235.0 214.0,236.0 215.0,234.0 216.0,234.0 217.0,234.0 218.0,233.0 219.0,233.0 220.0,233.0 221.0,231.0 222.0,232.0 223.0,231.0 224.0,231.0 225.0,229.0 226.0,229.0 227.0,228.0 228.0,228.0 229.0,227.0 230.0,227.0 231.0,225.0 232.0,225.0 233.0,225.0 234.0,223.0 235.0,224.0 236.0,222.0 237.0,222.0 238.0,222.0 239.0,219.0 240.0,221.0 241.0,218.0 242.0,219.0 243.0,217.0 244.0,217.0 245.0,217.0 246.0,216.0 247.0,215.0 248.0,215.0 249.0,214.0 250.0,213.0 251.0,214.0 252.0,213.0 253.0,213.0 254.0,212.0 255.0,211.0 256.0,211.0 257.0,210.0 258.0,209.0 259.0,209.0 260.0,209.0 261.0,208.0 262.0,208.0 263.0,208.0 264.0,208.0 265.0,207.0 266.0,208.0 267.0,207.0 268.0,207.0 269.0,206.0 270.0,206.0 271.0,205.0 272.0,206.0 273.0,205.0 274.0,204.0 275.0,204.0 276.0,204.0 277.0,204.0 278.0,203.0 279.0,203.0 280.0,203.0 281.0,202.0 282.0,202.0 283.0,202.0 284.0,201.0 285.0,201.0 286.0,200.0 287.0,200.0 288.0,200.0 289.0,199.0 290.0,199.0 291.0,198.0 292.0,198.0 293.0,197.0 294.0,198.0 295.0,196.0 296.0,196.0 297.0,196.0 298.0,195.0 299.0,194.0 300.0,194.0 301.0,193.0 302.0,193.0 303.0,193.0 304.0,192.0 305.0,191.0 306.0,191.0 307.0,190.0 308.0,190.0 309.0,189.0 310.0,189.0 311.0,187.0 312.0,188.0 313.0,187.0 314.0,186.0 315.0,186.0 316.0,185.0 317.0,185.0 318.0,184.0 319.0,184.0 320.0,183.0 321.0,183.0 322.0,182.0 323.0,181.0 324.0,181.0 325.0,181.0 326.0,179.0 327.0,180.0 328.0,179.0 329.0,179.0 330.0,179.0 331.0,179.0 332.0,177.0 333.0,178.0 334.0,177.0 335.0,177.0 336.0,176.0 337.0,177.0 338.0,175.0 339.0,176.0 340.0,175.0 341.0,174.0 342.0,174.0 343.0,173.0 344.0,173.0 345.0,172.0 346.0,172.0 347.0,171.0 348.0,170.0 349.0,170.0 350.0,170.0 351.0,169.0 352.0,169.0 353.0,168.0 354.0,168.0 355.0,167.0 356.0,167.0 357.0,167.0 358.0,165.0 359.0,166.0 360.0,165.0 361.0,165.0 362.0,166.0 363.0,165.0 364.0,164.0 365.0,164.0 366.0,164.0 367.0,164.0 368.0,163.0 369.0,163.0 370.0,162.0 371.0,162.0 372.0,162.0 373.0,161.0 374.0,161.0 375.0,160.0 376.0,160.0 377.0,159.0 378.0,159.0 379.0,158.0 380.0,158.0 381.0,157.0 382.0,156.0 383.0,156.0 384.0,155.0 385.0,155.0 386.0,154.0 387.0,154.0 388.0,153.0 389.0,153.0 390.0,152.0 391.0,152.0 392.0,151.0 393.0,151.0 394.0,151.0 395.0,150.0 396.0,150.0 397.0,149.0 398.0,149.0 399.0,148.0 400.0,147.0 401.0,147.0 402.0,147.0 403.0,146.0 404.0,146.0 405.0,145.0 406.0,145.0 407.0,145.0 408.0,143.0 409.0,144.0 410.0,143.0 411.0,143.0 412.0,141.0 413.0,141.0 414.0,141.0 415.0,140.0 416.0,139.0 417.0,139.0 418.0,137.0 419.0,138.0 420.0,136.0 421.0,137.0 422.0,134.0 423.0,136.0 424.0,134.0 425.0,133.0 426.0,133.0 427.0,133.0 428.0,132.0 429.0,132.0 430.0,130.0 431.0,130.0 432.0,130.0 433.0,129.0 434.0,129.0 435.0,129.0 436.0,128.0 437.0,127.0 438.0,127.0 439.0,126.0 440.0,126.0 441.0,126.0 442.0,125.0 443.0,125.0 444.0,125.0 445.0,125.0 446.0,124.0 447.0,123.0 448.0,124.0 449.0,122.0 450.0,123.0 451.0,121.0 452.0,121.0 453.0,121.0 454.0,120.0 455.0,120.0 456.0,119.0 457.0,119.0 458.0,118.0 459.0,117.0 460.0,117.0 461.0,117.0 462.0,116.0 463.0,115.0 464.0,115.0 465.0,115.0 466.0,114.0 467.0,114.0 468.0,114.0 469.0,113.0 470.0,112.0 471.0,112.0 472.0,112.0 473.0,111.0 474.0,111.0 475.0,109.0 476.0,111.0 477.0,109.0 478.0,110.0 479.0,107.0 480.0,108.0 481.0,107.0 482.0,107.0 483.0,106.0 484.0,105.0 485.0,105.0 486.0,104.0 487.0,103.0 488.0,103.0 489.0,103.0 490.0,101.0 491.0,102.0 492.0,100.0 493.0,101.0 494.0,99.0 495.0,101.0 496.0,99.0 497.0,99.0 498.0,99.0 499.0,98.0 500.0,97.0 501.0,96.0 502.0,96.0 503.0,96.0 504.0,95.0 505.0,95.0 506.0,94.0 507.0,94.0 508.0,92.0 509.0,96.0 510.0,88.0 511.0,91.0 512.0,89.0 513.0,88.0 514.0,88.0 515.0,86.0 516.0,87.0 517.0,84.0 518.0,86.0 519.0,82.0 520.0,84.0 521.0,83.0 522.0,81.0 523.0,82.0 524.0,81.0 525.0,81.0 526.0,79.0 527.0,79.0 528.0,79.0 529.0,79.0 530.0,78.0 531.0,78.0 532.0,77.0 533.0,77.0 534.0,77.0 535.0,75.0 536.0,75.0 537.0,76.0 538.0,74.0 539.0,74.0 540.0,73.0 541.0,73.0 542.0,72.0 543.0,73.0 544.0,72.0 545.0,71.0 546.0,71.0 547.0,71.0 548.0,70.0 549.0,70.0 550.0,69.0 551.0,68.0 552.0,70.0 553.0,68.0 554.0,68.0 555.0,68.0 556.0,69.0 557.0,66.0 558.0,67.0 559.0,66.0 560.0,68.0 561.0,65.0 562.0,66.0 563.0,64.0 564.0,65.0 565.0,64.0 566.0,64.0 567.0,62.0 568.0,62.0 569.0,63.0 570.0,62.0 571.0,61.0 572.0,62.0 573.0,60.0 574.0,60.0 575.0,60.0 576.0,60.0 577.0,59.0 578.0,59.0 579.0,59.0 580.0,59.0 581.0,58.0 582.0,57.0 583.0,58.0 584.0,57.0 585.0,57.0 586.0,56.0 587.0,56.0 588.0,55.0 589.0,55.0 590.0,54.0 591.0,55.0 592.0,54.0 593.0,54.0 594.0,53.0 595.0,53.0 596.0,52.0 597.0,53.0 598.0,51.0 599.0,52.0 600.0,51.0 601.0,51.0 602.0,50.0 603.0,50.0 604.0,49.0 605.0,49.0 606.0,48.0 607.0,48.0 608.0,47.0 609.0,47.0 610.0,47.0 611.0,46.0 612.0,46.0 613.0,45.0 614.0,45.0 615.0,45.0 616.0,44.0 617.0,44.0 618.0,43.0 619.0,43.0 620.0,42.0 621.0,42.0 622.0,40.0 623.0,40.0 624.0,39.0 625.0,39.0 626.0,38.0 627.0,37.0 628.0,37.0 629.0,37.0 630.0,36.0 631.0,35.0 632.0,35.0 633.0,35.0 634.0,35.0 635.0,34.0 636.0,34.0 637.0,33.0 638.0,33.0 639.0,31.0 640.0,32.0 641.0,31.0 642.0,31.0 643.0,30.0 644.0,30.0 645.0,29.0 646.0,30.0 647.0,27.0 648.0,28.0 649.0,27.0 650.0,27.0 651.0,26.0 652.0,26.0 653.0,25.0 654.0,23.0" fill="none" stroke="#fb46bc" />
	<polyline points="55.0,298.0 56.0,304.0 57.0,298.0 58.0,303.0 59.0,299.0 60.0,302.0 61.0,299.0 62.0,301.0 63.0,298.0 64.0,300.0 65.0,298.0 66.0,299.0 67.0,298.0 68.0,298.0 69.0,297.0 70.0,298.0 71.0,296.0 72.0,296.0 73.0,296.0 74.0,295.0 75.0,294.0 76.0,294.0 77.0,294.0 78.0,293.0 79.0,293.0 80.0,293.0 81.0,292.0 82.0,292.0 83.0,292.0 84.0,291.0 85.0,290.0 86.0,290.0 87.0,290.0 88.0,289.0 89.0,289.0 90.0,289.0 91.0,288.0 92.0,288.0 93.0,288.0 94.0,287.0 95.0,287.0 96.0,287.0 97.0,287.0 98.0,286.0 99.0,286.0 100.0,285.0 101.0,285.0 102.0,285.0 103.0,284.0 104.0,283.0 105.0,284.0 106.0,282.0 107.0,283.0 108.0,281.0 109.0,281.0 110.0,280.0 111.0,280.0 112.0,280.0 113.0,278.0 114.0,279.0 115.0,278.0 116.0,277.0 117.0,276.0 118.0,276.0 119.0,276.0 120.0,274.0 121.0,274.0 122.0,273.0 123.0,273.0 124.0,273.0 125.0,271.0 126.0,272.0 127.0,270.0 128.0,270.0 129.0,269.0 130.0,268.0 131.0,269.0 132.0,268.0 133.0,267.0 134.0,267.0 135.0,267.0 136.0,266.0 137.0,265.0 138.0,265.0 139.0,264.0 140.0,264.0 141.0,263.0 142.0,263.0 143.0,262.0 144.0,261.0 145.0,260.0 146.0,259.0 147.0,258.0 148.0,258.0 149.0,257.0 150.0,257.0 151.0,255.0 152.0,255.0 153.0,255.0 154.0,254.0 155.0,253.0 156.0,253.0 157.0,251.0 158.0,252.0 159.0,251.0 160.0,250.0 161.0,250.0 162.0,249.0 163.0,249.0 164.0,249.0 165.0,248.0 166.0,248.0 167.0,247.0 168.0,247.0 169.0,246.0 170.0,246.0 171.0,245.0 172.0,245.0 173.0,245.0 174.0,244.0 175.0,244.0 176.0,243.0 177.0,243.0 178.0,243.0 179.0,242.0 180.0,242.0 181.0,241.0 182.0,242.0 183.0,241.0 184.0,241.0 185.0,241.0 186.0,241.0 187.0,240.0 188.0,240.0 189.0,240.0 190.0,239.0 191.0,239.0 192.0,238.0 193.0,239.0 194.0,237.0 195.0,238.0 196.0,237.0 197.0,238.0 198.0,235.0 199.0,236.0 200.0,236.0 201.0,234.0 202.0,234.0 203.0,233.0 204.0,233.0 205.0,232.0 206.0,232.0 207.0,231.0 208.0,231.0 209.0,230.0 210.0,230.0 211.0,230.0 212.0,229.0 213.0,228.0 214.0,228.0 215.0,226.0 216.0,226.0 217.0,226.0 218.0,225.0 219.0,224.0 220.0,224.0 221.0,222.0 222.0,222.0 223.0,221.0 224.0,221.0 225.0,220.0 226.0,220.0 227.0,218.0 228.0,218.0 229.0,218.0 230.0,217.0 231.0,216.0 232.0,216.0 233.0,215.0 234.0,214.0 235.0,215.0 236.0,213.0 237.0,213.0 238.0,213.0 239.0,212.0 240.0,212.0 241.0,211.0 242.0,210.0 243.0,210.0 244.0,209.0 245.0,209.0 246.0,209.0 247.0,208.0 248.0,207.0 249.0,207.0 250.0,206.0 251.0,206.0 252.0,205.0 253.0,205.0 254.0,204.0 255.0,204.0 256.0,204.0 257.0,202.0 258.0,202.0 259.0,202.0 260.0,201.0 261.0,200.0 262.0,200.0 263.0,199.0 264.0,199.0 265.0,198.0 266.0,198.0 267.0,198.0 268.0,197.0 269.0,196.0 270.0,197.0 271.0,196.0 272.0,195.0 273.0,195.0 274.0,194.0 275.0,194.0 276.0,194.0 277.0,192.0 278.0,193.0 279.0,191.0 280.0,192.0 281.0,191.0 282.0,191.0 283.0,189.0 284.0,190.0 285.0,189.0 286.0,189.0 287.0,188.0 288.0,187.0 289.0,186.0 290.0,187.0 291.0,186.0 292.0,186.0 293.0,185.0 294.0,184.0 295.0,184.0 296.0,184.0 297.0,183.0 298.0,184.0 299.0,182.0 300.0,182.0 301.0,181.0 302.0,181.0 303.0,180.0 304.0,180.0 305.0,179.0 306.0,180.0 307.0,177.0 308.0,179.0 309.0,177.0 310.0,177.0 311.0,176.0 312.0,176.0 313.0,175.0 314.0,175.0 315.0,174.0 316.0,174.0 317.0,174.0 318.0,173.0 319.0,172.0 320.0,172.0 321.0,172.0 322.0,170.0 323.0,171.0 324.0,169.0 325.0,170.0 326.0,169.0 327.0,168.0 328.0,168.0 329.0,168.0 330.0,167.0 331.0,166.0 332.0,166.0 333.0,165.0 334.0,165.0 335.0,164.0 336.0,164.0 337.0,163.0 338.0,163.0 339.0,163.0 340.0,161.0 341.0,162.0 342.0,161.0 343.0,160.0 344.0,160.0 345.0,160.0 346.0,159.0 347.0,159.0 348.0,158.0 349.0,157.0 350.0,157.0 351.0,157.0 352.0,156.0 353.0,155.0 354.0,155.0 355.0,154.0 356.0,155.0 357.0,153.0 358.0,154.0 359.0,153.0 360.0,153.0 361.0,151.0 362.0,152.0 363.0,151.0 364.0,151.0 365.0,150.0 366.0,150.0 367.0,149.0 368.0,149.0 369.0,149.0 370.0,148.0 371.0,147.0 372.0,147.0 373.0,147.0 374.0,146.0 375.0,145.0 376.0,145.0 377.0,144.0 378.0,144.0 379.0,143.0 380.0,143.0 381.0,142.0 382.0,142.0 383.0,142.0 384.0,141.0 385.0,141.0 386.0,139.0 387.0,140.0 388.0,138.0 389.0,139.0 390.0,138.0 391.0,137.0 392.0,137.0 393.0,136.0 394.0,136.0 395.0,136.0 396.0,135.0 397.0,135.0 398.0,134.0 399.0,134.0 400.0,132.0 401.0,134.0 402.0,132.0 403.0,132.0 404.0,132.0 405.0,130.0 406.0,131.0 407.0,129.0 408.0,129.0 409.0,129.0 410.0,128.0 411.0,129.0 412.0,127.0 413.0,127.0 414.0,127.0 415.0,126.0 416.0,126.0 417.0,125.0 418.0,124.0 419.0,124.0 420.0,123.0 421.0,124.0 422.0,122.0 423.0,122.0 424.0,122.0 425.0,121.0 426.0,121.0 427.0,120.0 428.0,119.0 429.0,119.0 430.0,118.0 431.0,118.0 432.0,118.0 433.0,116.0 434.0,117.0 435.0,116.0 436.0,115.0 437.0,117.0 438.0,113.0 439.0,115.0 440.0,112.0 441.0,115.0 442.0,111.0 443.0,114.0 444.0,111.0 445.0,111.0 446.0,112.0 447.0,110.0 448.0,111.0 449.0,109.0 450.0,109.0 451.0,108.0 452.0,108.0 453.0,108.0 454.0,107.0 455.0,106.0 456.0,106.0 457.0,106.0 458.0,105.0 459.0,104.0 460.0,104.0 461.0,103.0 462.0,103.0 463.0,102.0 464.0,102.0 465.0,101.0 466.0,101.0 467.0,100.0 468.0,99.0 469.0,99.0 470.0,99.0 471.0,98.0 472.0,97.0 473.0,97.0 474.0,96.0 475.0,96.0 476.0,95.0 477.0,95.0 478.0,94.0 479.0,94.0 480.0,93.0 481.0,93.0 482.0,92.0 483.0,92.0 484.0,91.0 485.0,90.0 486.0,91.0 487.0,90.0 488.0,89.0 489.0,89.0 490.0,88.0 491.0,88.0 492.0,87.0 493.0,88.0 494.0,85.0 495.0,86.0 496.0,85.0 497.0,85.0 498.0,85.0 499.0,83.0 500.0,84.0 501.0,83.0 502.0,82.0 503.0,82.0 504.0,82.0 505.0,81.0 506.0,80.0 507.0,81.0 508.0,79.0 509.0,79.0 510.0,78.0 511.0,79.0 512.0,77.0 513.0,77.0 514.0,77.0 515.0,76.0 516.0,76.0 517.0,75.0 518.0,75.0 519.0,74.0 520.0,74.0 521.0,73.0 522.0,72.0 523.0,73.0 524.0,71.0 525.0,72.0 526.0,71.0 527.0,70.0 528.0,69.0 529.0,69.0 530.0,68.0 531.0,68.0 532.0,67.0 533.0,67.0 534.0,66.0 535.0,66.0 536.0,65.0 537.0,65.0 538.0,64.0 539.0,64.0 540.0,64.0 541.0,63.0 542.0,63.0 543.0,62.0 544.0,62.0 545.0,62.0 546.0,62.0 547.0,60.0 548.0,60.0 549.0,60.0 550.0,59.0 551.0,59.0 552.0,58.0 553.0,58.0 554.0,57.0 555.0,57.0 556.0,56.0 557.0,55.0 558.0,56.0 559.0,55.0 560.0,54.0 561.0,53.0 562.0,54.0 563.0,52.0 564.0,52.0 565.0,52.0 566.0,51.0 567.0,51.0 568.0,51.0 569.0,50.0 570.0,50.0 571.0,48.0 572.0,49.0 573.0,47.0 574.0,48.0 575.0,47.0 576.0,47.0 577.0,46.0 578.0,46.0 579.0,45.0 580.0,45.0 581.0,44.0 582.0,43.0 583.0,44.0 584.0,42.0 585.0,43.0 586.0,41.0 587.0,42.0 588.0,40.0 589.0,41.0 590.0,39.0 591.0,39.0 592.0,38.0 593.0,39.0 594.0,37.0 595.0,37.0 596.0,37.0 597.0,36.0 598.0,36.0 599.0,36.0 600.0,35.0 601.0,35.0 602.0,34.0 603.0,34.0 604.0,33.0 605.0,33.0 606.0,32.0 607.0,32.0 608.0,31.0 609.0,31.0 610.0,30.0 611.0,30.0 612.0,29.0 613.0,29.0 614.0,28.0 615.0,29.0 616.0,26.0 617.0,27.0 618.0,26.0 619.0,26.0 620.0,25.0 621.0,25.0 622.0,24.0 623.0,24.0 624.0,23.0 625.0,23.0 626.0,22.0 627.0,22.0 628.0,21.0 629.0,21.0 630.0,20.0 631.0,20.0 632.0,19.0 633.0,18.0 634.0,19.0 635.0,17.0 636.0,18.0 637.0,16.0 638.0,18.0 639.0,15.0 640.0,16.0 641.0,14.0 642.0,15.0 643.0,13.0 644.0,15.0 645.0,12.0 646.0,14.0 647.0,11.0 648.0,13.0 649.0,11.0 650.0,11.0 651.0,9.0 652.0,10.0 653.0,9.0 654.0,9.0" fill="none" stroke="#0000ff" />
	<polyline points="55.0,298.0 56.0,304.0 57.0,298.0 58.0,303.0 59.0,299.0 60.0,302.0 61.0,299.0 62.0,301.0 63.0,298.0 64.0,300.0 65.0,298.0 66.0,299.0 67.0,298.0 68.0,298.0 69.0,297.0 70.0,298.0 71.0,296.0 72.0,296.0 73.0,295.0 74.0,295.0 75.0,295.0 76.0,295.0 77.0,294.0 78.0,294.0 79.0,294.0 80.0,293.0 81.0,293.0 82.0,293.0 83.0,292.0 84.0,292.0 85.0,291.0 86.0,292.0 87.0,290.0 88.0,291.0 89.0,290.0 90.0,289.0 91.0,289.0 92.0,289.0 93.0,289.0 94.0,287.0 95.0,288.0 96.0,286.0 97.0,286.0 98.0,285.0 99.0,285.0 100.0,284.0 101.0,283.0 102.0,283.0 103.0,283.0 104.0,283.0 105.0,282.0 106.0,282.0 107.0,282.0 108.0,281.0 109.0,281.0 110.0,280.0 111.0,279.0 112.0,280.0 113.0,278.0 114.0,279.0 115.0,277.0 116.0,277.0 117.0,277.0 118.0,277.0 119.0,275.0 120.0,275.0 121.0,276.0 122.0,275.0 123.0,274.0 124.0,274.0 125.0,273.0 126.0,273.0 127.0,273.0 128.0,272.0 129.0,271.0 130.0,272.0 131.0,270.0 132.0,271.0 133.0,269.0 134.0,269.0 135.0,268.0 136.0,267.0 137.0,267.0 138.0,266.0 139.0,266.0 140.0,265.0 141.0,264.0 142.0,264.0 143.0,263.0 144.0,264.0 145.0,262.0 146.0,263.0 147.0,262.0 148.0,262.0 149.0,262.0 150.0,262.0 151.0,260.0 152.0,261.0 153.0,259.0 154.0,260.0 155.0,259.0 156.0,259.0 157.0,259.0 158.0,259.0 159.0,258.0 160.0,259.0 161.0,258.0 162.0,258.0 163.0,257.0 164.0,255.0 165.0,256.0 166.0,255.0 167.0,255.0 168.0,255.0 169.0,254.0 170.0,254.0 171.0,253.0 172.0,253.0 173.0,252.0 174.0,251.0 175.0,252.0 176.0,251.0 177.0,250.0 178.0,250.0 179.0,249.0 180.0,250.0 181.0,249.0 182.0,250.0 183.0,247.0 184.0,248.0 185.0,247.0 186.0,247.0 187.0,247.0 188.0,246.0 189.0,246.0 190.0,246.0 191.0,245.0 192.0,245.0 193.0,244.0 194.0,244.0 195.0,243.0 196.0,243.0 197.0,243.0 198.0,242.0 199.0,242.0 200.0,242.0 201.0,241.0 202.0,241.0 203.0,241.0 204.0,240.0 205.0,240.0 206.0,240.0 207.0,238.0 208.0,239.0 209.0,238.0 210.0,237.0 211.0,237.0 212.0,236.0 213.0,236.0 214.0,235.0 215.0,235.0 216.0,234.0 217.0,234.0 218.0,233.0 219.0,233.0 220.0,232.0 221.0,231.0 222.0,231.0 223.0,230.0 224.0,229.0 225.0,228.0 226.0,228.0 227.0,227.0 228.0,227.0 229.0,226.0 230.0,225.0 231.0,224.0 232.0,223.0 233.0,222.0 234.0,222.0 235.0,222.0 236.0,220.0 237.0,220.0 238.0,221.0 239.0,219.0 240.0,219.0 241.0,219.0 242.0,219.0 243.0,218.0 244.0,218.0 245.0,218.0 246.0,217.0 247.0,217.0 248.0,216.0 249.0,216.0 250.0,215.0 251.0,214.0 252.0,214.0 253.0,214.0 254.0,212.0 255.0,213.0 256.0,213.0 257.0,212.0 258.0,212.0 259.0,212.0 260.0,211.0 261.0,211.0 262.0,210.0 263.0,210.0 264.0,210.0 265.0,209.0 266.0,209.0 267.0,208.0 268.0,208.0 269.0,207.0 270.0,208.0 271.0,206.0 272.0,206.0 273.0,205.0 274.0,206.0 275.0,205.0 276.0,205.0 277.0,205.0 278.0,204.0 279.0,204.0 280.0,203.0 281.0,202.0 282.0,202.0 283.0,201.0 284.0,202.0 285.0,201.0 286.0,201.0 287.0,201.0 288.0,199.0 289.0,199.0 290.0,198.0 291.0,197.0 292.0,198.0 293.0,196.0 294.0,196.0 295.0,195.0 296.0,196.0 297.0,194.0 298.0,194.0 299.0,194.0 300.0,192.0 301.0,192.0 302.0,192.0 303.0,191.0 304.0,190.0 305.0,190.0 306.0,190.0 307.0,188.0 308.0,189.0 309.0,187.0 310.0,187.0 311.0,187.0 312.0,185.0 313.0,186.0 314.0,185.0 315.0,184.0 316.0,183.0 317.0,184.0 318.0,182.0 319.0,182.0 320.0,182.0 321.0,181.0 322.0,181.0 323.0,180.0 324.0,180.0 325.0,179.0 326.0,179.0 327.0,178.0 328.0,177.0 329.0,177.0 330.0,177.0 331.0,177.0 332.0,176.0 333.0,176.0 334.0,176.0 335.0,175.0 336.0,175.0 337.0,174.0 338.0,174.0 339.0,173.0 340.0,173.0 341.0,173.0 342.0,172.0 343.0,171.0 344.0,170.0 345.0,169.0 346.0,170.0 347.0,169.0 348.0,168.0 349.0,168.0 350.0,167.0 351.0,168.0 352.0,166.0 353.0,166.0 354.0,166.0 355.0,165.0 356.0,164.0 357.0,164.0 358.0,163.0 359.0,163.0 360.0,162.0 361.0,162.0 362.0,160.0 363.0,160.0 364.0,159.0 365.0,159.0 366.0,158.0 367.0,157.0 368.0,156.0 369.0,158.0 370.0,154.0 371.0,155.0 372.0,154.0 373.0,154.0 374.0,152.0 375.0,151.0 376.0,151.0 377.0,149.0 378.0,149.0 379.0,149.0 380.0,148.0 381.0,149.0 382.0,146.0 383.0,148.0 384.0,146.0 385.0,147.0 386.0,145.0 387.0,146.0 388.0,144.0 389.0,145.0 390.0,144.0 391.0,145.0 392.0,143.0 393.0,144.0 394.0,142.0 395.0,143.0 396.0,142.0 397.0,142.0 398.0,142.0 399.0,141.0 400.0,141.0 401.0,140.0 402.0,140.0 403.0,140.0 404.0,139.0 405.0,139.0 406.0,138.0 407.0,138.0 408.0,138.0 409.0,137.0 410.0,136.0 411.0,136.0 412.0,135.0 413.0,135.0 414.0,134.0 415.0,135.0 416.0,134.0 417.0,133.0 418.0,133.0 419.0,134.0 420.0,133.0 421.0,133.0 422.0,132.0 423.0,132.0 424.0,130.0 425.0,131.0 426.0,130.0 427.0,129.0 428.0,128.0 429.0,128.0 430.0,128.0 431.0,127.0 432.0,127.0 433.0,126.0 434.0,126.0 435.0,125.0 436.0,125.0 437.0,124.0 438.0,123.0 439.0,123.0 440.0,122.0 441.0,122.0 442.0,121.0 443.0,122.0 444.0,120.0 445.0,121.0 446.0,119.0 447.0,119.0 448.0,118.0 449.0,118.0 450.0,119.0 451.0,117.0 452.0,117.0 453.0,118.0 454.0,117.0 455.0,116.0 456.0,117.0 457.0,116.0 458.0,116.0 459.0,116.0 460.0,116.0 461.0,115.0 462.0,115.0 463.0,116.0 464.0,115.0 465.0,114.0 466.0,114.0 467.0,113.0 468.0,113.0 469.0,113.0 470.0,113.0 471.0,112.0 472.0,111.0 473.0,111.0 474.0,111.0 475.0,110.0 476.0,110.0 477.0,110.0 478.0,109.0 479.0,109.0 480.0,109.0 481.0,108.0 482.0,108.0 483.0,107.0 484.0,106.0 485.0,107.0 486.0,106.0 487.0,106.0 488.0,105.0 489.0,104.0 490.0,104.0 491.0,104.0 492.0,103.0 493.0,103.0 494.0,103.0 495.0,102.0 496.0,102.0 497.0,102.0 498.0,101.0 499.0,101.0 500.0,100.0 501.0,100.0 502.0,100.0 503.0,99.0 504.0,99.0 505.0,98.0 506.0,98.0 507.0,98.0 508.0,97.0 509.0,97.0 510.0,96.0 511.0,95.0 512.0,95.0 513.0,94.0 514.0,94.0 515.0,93.0 516.0,93.0 517.0,92.0 518.0,92.0 519.0,91.0 520.0,90.0 521.0,90.0 522.0,89.0 523.0,89.0 524.0,88.0 525.0,87.0 526.0,86.0 527.0,87.0 528.0,85.0 529.0,85.0 530.0,84.0 531.0,84.0 532.0,82.0 533.0,83.0 534.0,82.0 535.0,81.0 536.0,80.0 537.0,80.0 538.0,80.0 539.0,79.0 540.0,79.0 541.0,78.0 542.0,78.0 543.0,77.0 544.0,77.0 545.0,76.0 546.0,75.0 547.0,74.0 548.0,74.0 549.0,73.0 550.0,73.0 551.0,72.0 552.0,71.0 553.0,71.0 554.0,69.0 555.0,69.0 556.0,68.0 557.0,67.0 558.0,67.0 559.0,66.0 560.0,66.0 561.0,64.0 562.0,65.0 563.0,64.0 564.0,63.0 565.0,62.0 566.0,62.0 567.0,62.0 568.0,61.0 569.0,61.0 570.0,61.0 571.0,59.0 572.0,60.0 573.0,58.0 574.0,59.0 575.0,57.0 576.0,57.0 577.0,58.0 578.0,56.0 579.0,57.0 580.0,56.0 581.0,56.0 582.0,54.0 583.0,55.0 584.0,56.0 585.0,52.0 586.0,53.0 587.0,53.0 588.0,53.0 589.0,52.0 590.0,51.0 591.0,53.0 592.0,50.0 593.0,51.0 594.0,50.0 595.0,51.0 596.0,50.0 597.0,51.0 598.0,49.0 599.0,51.0 600.0,49.0 601.0,49.0 602.0,49.0 603.0,49.0 604.0,48.0 605.0,48.0 606.0,48.0 607.0,48.0 608.0,47.0 609.0,47.0 610.0,46.0 611.0,46.0 612.0,47.0 613.0,44.0 614.0,45.0 615.0,43.0 616.0,43.0 617.0,43.0 618.0,42.0 619.0,41.0 620.0,41.0 621.0,41.0 622.0,40.0 623.0,40.0 624.0,39.0 625.0,37.0 626.0,37.0 627.0,37.0 628.0,35.0 629.0,36.0 630.0,35.0 631.0,34.0 632.0,33.0 633.0,33.0 634.0,32.0 635.0,31.0 636.0,32.0 637.0,29.0 638.0,30.0 639.0,28.0 640.0,29.0 641.0,26.0 642.0,28.0 643.0,26.0 644.0,27.0 645.0,25.0 646.0,26.0 647.0,25.0 648.0,25.0 649.0,24.0 650.0,24.0 651.0,24.0 652.0,23.0 653.0,23.0 654.0,24.0" fill="none" stroke="#00bfff" />
	<polyline points="55.0,298.0 56.0,304.0 57.0,298.0 58.0,303.0 59.0,299.0 60.0,302.0 61.0,299.0 62.0,301.0 63.0,298.0 64.0,300.0 65.0,298.0 66.0,299.0 67.0,298.0 68.0,299.0 69.0,297.0 70.0,298.0 71.0,297.0 72.0,297.0 73.0,296.0 74.0,296.0 75.0,295.0 76.0,295.0 77.0,294.0 78.0,294.0 79.0,293.0 80.0,293.0 81.0,293.0 82.0,293.0 83.0,293.0 84.0,292.0 85.0,292.0 86.0,292.0 87.0,291.0 88.0,292.0 89.0,291.0 90.0,290.0 91.0,290.0 92.0,290.0 93.0,289.0 94.0,289.0 95.0,289.0 96.0,288.0 97.0,288.0 98.0,287.0 99.0,288.0 100.0,287.0 101.0,287.0 102.0,286.0 103.0,287.0 104.0,285.0 105.0,286.0 106.0,285.0 107.0,285.0 108.0,284.0 109.0,285.0 110.0,282.0 111.0,284.0 112.0,282.0 113.0,283.0 114.0,281.0 115.0,281.0 116.0,281.0 117.0,280.0 118.0,279.0 119.0,279.0 120.0,278.0 121.0,277.0 122.0,277.0 123.0,276.0 124.0,275.0 125.0,275.0 126.0,274.0 127.0,273.0 128.0,273.0 129.0,272.0 130.0,272.0 131.0,271.0 132.0,270.0 133.0,269.0 134.0,268.0 135.0,269.0 136.0,267.0 137.0,267.0 138.0,267.0 139.0,265.0 140.0,266.0 141.0,264.0 142.0,264.0 143.0,264.0 144.0,263.0 145.0,263.0 146.0,263.0 147.0,264.0 148.0,263.0 149.0,263.0 150.0,263.0 151.0,262.0 152.0,263.0 153.0,261.0 154.0,261.0 155.0,261.0 156.0,261.0 157.0,260.0 158.0,260.0 159.0,259.0 160.0,259.0 161.0,258.0 162.0,258.0 163.0,257.0 164.0,257.0 165.0,256.0 166.0,257.0 167.0,256.0 168.0,256.0 169.0,256.0 170.0,255.0 171.0,254.0 172.0,255.0 173.0,253.0 174.0,254.0 175.0,252.0 176.0,253.0 177.0,251.0 178.0,253.0 179.0,250.0 180.0,251.0 181.0,248.0 182.0,249.0 183.0,247.0 184.0,246.0 185.0,245.0 186.0,244.0 187.0,244.0 188.0,243.0 189.0,242.0 190.0,241.0 191.0,241.0 192.0,240.0 193.0,240.0 194.0,239.0 195.0,238.0 196.0,238.0 197.0,237.0 198.0,237.0 199.0,235.0 200.0,236.0 201.0,234.0 202.0,235.0 203.0,234.0 204.0,233.0 205.0,233.0 206.0,232.0 207.0,232.0 208.0,231.0 209.0,231.0 210.0,231.0 211.0,229.0 212.0,231.0 213.0,229.0 214.0,230.0 215.0,229.0 216.0,228.0 217.0,230.0 218.0,227.0 219.0,228.0 220.0,228.0 221.0,227.0 222.0,228.0 223.0,226.0 224.0,227.0 225.0,226.0 226.0,227.0 227.0,224.0 228.0,226.0 229.0,224.0 230.0,225.0 231.0,223.0 232.0,225.0 233.0,224.0 234.0,224.0 235.0,224.0 236.0,224.0 237.0,224.0 238.0,224.0 239.0,223.0 240.0,223.0 241.0,223.0 242.0,223.0 243.0,222.0 244.0,222.0 245.0,222.0 246.0,221.0 247.0,221.0 248.0,220.0 249.0,220.0 250.0,220.0 251.0,219.0 252.0,219.0 253.0,218.0 254.0,218.0 255.0,217.0 256.0,217.0 257.0,216.0 258.0,216.0 259.0,215.0 260.0,215.0 261.0,214.0 262.0,214.0 263.0,213.0 264.0,213.0 265.0,212.0 266.0,212.0 267.0,211.0 268.0,211.0 269.0,210.0 270.0,210.0 271.0,209.0 272.0,208.0 273.0,208.0 274.0,207.0 275.0,206.0 276.0,206.0 277.0,204.0 278.0,204.0 279.0,203.0 280.0,202.0 281.0,201.0 282.0,201.0 283.0,199.0 284.0,200.0 285.0,198.0 286.0,199.0 287.0,197.0 288.0,196.0 289.0,196.0 290.0,195.0 291.0,194.0 292.0,194.0 293.0,193.0 294.0,193.0 295.0,192.0 296.0,191.0 297.0,191.0 298.0,190.0 299.0,189.0 300.0,190.0 301.0,188.0 302.0,188.0 303.0,188.0 304.0,188.0 305.0,186.0 306.0,186.0 307.0,186.0 308.0,185.0 309.0,185.0 310.0,184.0 311.0,184.0 312.0,184.0 313.0,183.0 314.0,184.0 315.0,182.0 316.0,182.0 317.0,183.0 318.0,182.0 319.0,182.0 320.0,180.0 321.0,182.0 322.0,180.0 323.0,181.0 324.0,180.0 325.0,180.0 326.0,180.0 327.0,180.0 328.0,180.0 329.0,180.0 330.0,179.0 331.0,179.0 332.0,179.0 333.0,178.0 334.0,178.0 335.0,177.0 336.0,177.0 337.0,176.0 338.0,176.0 339.0,175.0 340.0,174.0 341.0,173.0 342.0,173.0 343.0,172.0 344.0,173.0 345.0,171.0 346.0,171.0 347.0,171.0 348.0,170.0 349.0,171.0 350.0,169.0 351.0,169.0 352.0,169.0 353.0,169.0 354.0,168.0 355.0,169.0 356.0,168.0 357.0,168.0 358.0,168.0 359.0,166.0 360.0,167.0 361.0,166.0 362.0,166.0 363.0,165.0 364.0,165.0 365.0,165.0 366.0,164.0 367.0,164.0 368.0,164.0 369.0,163.0 370.0,162.0 371.0,162.0 372.0,161.0 373.0,161.0 374.0,160.0 375.0,160.0 376.0,159.0 377.0,159.0 378.0,158.0 379.0,158.0 380.0,157.0 381.0,157.0 382.0,156.0 383.0,156.0 384.0,154.0 385.0,155.0 386.0,153.0 387.0,153.0 388.0,152.0 389.0,152.0 390.0,151.0 391.0,150.0 392.0,149.0 393.0,150.0 394.0,148.0 395.0,149.0 396.0,147.0 397.0,147.0 398.0,147.0 399.0,146.0 400.0,145.0 401.0,144.0 402.0,145.0 403.0,144.0 404.0,144.0 405.0,142.0 406.0,143.0 407.0,140.0 408.0,143.0 409.0,138.0 410.0,139.0 411.0,139.0 412.0,138.0 413.0,138.0 414.0,138.0 415.0,137.0 416.0,136.0 417.0,136.0 418.0,135.0 419.0,135.0 420.0,134.0 421.0,134.0 422.0,134.0 423.0,133.0 424.0,132.0 425.0,133.0 426.0,131.0 427.0,131.0 428.0,131.0 429.0,131.0 430.0,130.0 431.0,130.0 432.0,128.0 433.0,128.0 434.0,128.0 435.0,127.0 436.0,127.0 437.0,126.0 438.0,127.0 439.0,126.0 440.0,126.0 441.0,125.0 442.0,125.0 443.0,124.0 444.0,123.0 445.0,123.0 446.0,122.0 447.0,122.0 448.0,121.0 449.0,122.0 450.0,119.0 451.0,119.0 452.0,119.0 453.0,118.0 454.0,118.0 455.0,118.0 456.0,116.0 457.0,117.0 458.0,115.0 459.0,115.0 460.0,115.0 461.0,115.0 462.0,114.0 463.0,113.0 464.0,113.0 465.0,112.0 466.0,112.0 467.0,110.0 468.0,110.0 469.0,109.0 470.0,108.0 471.0,108.0 472.0,107.0 473.0,107.0 474.0,106.0 475.0,106.0 476.0,105.0 477.0,105.0 478.0,104.0 479.0,104.0 480.0,104.0 481.0,103.0 482.0,102.0 483.0,103.0 484.0,102.0 485.0,102.0 486.0,101.0 487.0,100.0 488.0,101.0 489.0,100.0 490.0,99.0 491.0,99.0 492.0,98.0 493.0,99.0 494.0,97.0 495.0,98.0 496.0,97.0 497.0,97.0 498.0,97.0 499.0,97.0 500.0,96.0 501.0,96.0 502.0,95.0 503.0,95.0 504.0,94.0 505.0,95.0 506.0,94.0 507.0,94.0 508.0,94.0 509.0,93.0 510.0,92.0 511.0,92.0 512.0,91.0 513.0,92.0 514.0,89.0 515.0,89.0 516.0,90.0 517.0,88.0 518.0,88.0 519.0,88.0 520.0,87.0 521.0,88.0 522.0,86.0 523.0,86.0 524.0,85.0 525.0,86.0 526.0,83.0 527.0,84.0 528.0,82.0 529.0,82.0 530.0,81.0 531.0,81.0 532.0,80.0 533.0,80.0 534.0,81.0 535.0,79.0 536.0,80.0 537.0,79.0 538.0,79.0 539.0,79.0 540.0,78.0 541.0,78.0 542.0,78.0 543.0,78.0 544.0,77.0 545.0,78.0 546.0,77.0 547.0,77.0 548.0,76.0 549.0,76.0 550.0,75.0 551.0,75.0 552.0,75.0 553.0,74.0 554.0,73.0 555.0,73.0 556.0,73.0 557.0,71.0 558.0,72.0 559.0,71.0 560.0,68.0 561.0,69.0 562.0,68.0 563.0,67.0 564.0,67.0 565.0,66.0 566.0,65.0 567.0,66.0 568.0,65.0 569.0,64.0 570.0,64.0 571.0,63.0 572.0,64.0 573.0,63.0 574.0,63.0 575.0,63.0 576.0,62.0 577.0,61.0 578.0,60.0 579.0,60.0 580.0,60.0 581.0,60.0 582.0,59.0 583.0,58.0 584.0,58.0 585.0,58.0 586.0,57.0 587.0,57.0 588.0,57.0 589.0,57.0 590.0,55.0 591.0,56.0 592.0,55.0 593.0,55.0 594.0,53.0 595.0,54.0 596.0,53.0 597.0,53.0 598.0,52.0 599.0,52.0 600.0,52.0 601.0,52.0 602.0,50.0 603.0,51.0 604.0,50.0 605.0,50.0 606.0,49.0 607.0,49.0 608.0,48.0 609.0,48.0 610.0,47.0 611.0,47.0 612.0,46.0 613.0,45.0 614.0,46.0 615.0,45.0 616.0,44.0 617.0,45.0 618.0,43.0 619.0,43.0 620.0,42.0 621.0,42.0 622.0,42.0 623.0,41.0 624.0,41.0 625.0,40.0 626.0,40.0 627.0,39.0 628.0,40.0 629.0,38.0 630.0,38.0 631.0,37.0 632.0,37.0 633.0,37.0 634.0,36.0 635.0,35.0 636.0,36.0 637.0,35.0 638.0,35.0 639.0,34.0 640.0,34.0 641.0,33.0 642.0,33.0 643.0,32.0 644.0,31.0 645.0,30.0 646.0,30.0 647.0,29.0 648.0,28.0 649.0,27.0 650.0,27.0 651.0,26.0 652.0,27.0 653.0,25.0 654.0,26.0" fill="none" stroke="#4876ff" />
	<polyline points="55.0,298.0 56.0,304.0 57.0,298.0 58.0,303.0 59.0,299.0 60.0,302.0 61.0,299.0 62.0,301.0 63.0,299.0 64.0,300.0 65.0,298.0 66.0,299.0 67.0,298.0 68.0,299.0 69.0,297.0 70.0,298.0 71.0,297.0 72.0,297.0 73.0,297.0 74.0,296.0 75.0,296.0 76.0,296.0 77.0,295.0 78.0,295.0 79.0,295.0 80.0,295.0 81.0,294.0 82.0,294.0 83.0,293.0 84.0,294.0 85.0,293.0 86.0,293.0 87.0,292.0 88.0,292.0 89.0,291.0 90.0,291.0 91.0,290.0 92.0,290.0 93.0,289.0 94.0,290.0 95.0,288.0 96.0,288.0 97.0,288.0 98.0,287.0 99.0,287.0 100.0,286.0 101.0,286.0 102.0,285.0 103.0,284.0 104.0,285.0 105.0,282.0 106.0,283.0 107.0,282.0 108.0,281.0 109.0,281.0 110.0,280.0 111.0,279.0 112.0,279.0 113.0,278.0 114.0,277.0 115.0,277.0 116.0,276.0 117.0,276.0 118.0,275.0 119.0,274.0 120.0,274.0 121.0,274.0 122.0,273.0 123.0,272.0 124.0,272.0 125.0,271.0 126.0,271.0 127.0,269.0 128.0,270.0 129.0,269.0 130.0,268.0 131.0,267.0 132.0,268.0 133.0,267.0 134.0,267.0 135.0,267.0 136.0,266.0 137.0,266.0 138.0,264.0 139.0,265.0 140.0,263.0 141.0,264.0 142.0,264.0 143.0,263.0 144.0,263.0 145.0,263.0 146.0,262.0 147.0,262.0 148.0,261.0 149.0,262.0 150.0,260.0 151.0,262.0 152.0,260.0 153.0,260.0 154.0,260.0 155.0,261.0 156.0,260.0 157.0,259.0 158.0,258.0 159.0,259.0 160.0,258.0 161.0,257.0 162.0,257.0 163.0,257.0 164.0,256.0 165.0,256.0 166.0,256.0 167.0,254.0 168.0,255.0 169.0,253.0 170.0,254.0 171.0,252.0 172.0,252.0 173.0,251.0 174.0,251.0 175.0,251.0 176.0,251.0 177.0,251.0 178.0,250.0 179.0,250.0 180.0,249.0 181.0,249.0 182.0,249.0 183.0,248.0 184.0,248.0 185.0,247.0 186.0,247.0 187.0,247.0 188.0,246.0 189.0,246.0 190.0,245.0 191.0,244.0 192.0,244.0 193.0,244.0 194.0,242.0 195.0,242.0 196.0,242.0 197.0,241.0 198.0,240.0 199.0,240.0 200.0,240.0 201.0,239.0 202.0,240.0 203.0,238.0 204.0,239.0 205.0,238.0 206.0,238.0 207.0,237.0 208.0,237.0 209.0,236.0 210.0,236.0 211.0,235.0 212.0,235.0 213.0,235.0 214.0,234.0 215.0,236.0 216.0,231.0 217.0,232.0 218.0,232.0 219.0,231.0 220.0,231.0 221.0,230.0 222.0,230.0 223.0,228.0 224.0,229.0 225.0,227.0 226.0,228.0 227.0,225.0 228.0,226.0 229.0,225.0 230.0,224.0 231.0,224.0 232.0,223.0 233.0,222.0 234.0,222.0 235.0,221.0 236.0,220.0 237.0,220.0 238.0,219.0 239.0,219.0 240.0,218.0 241.0,217.0 242.0,217.0 243.0,216.0 244.0,217.0 245.0,215.0 246.0,215.0 247.0,216.0 248.0,214.0 249.0,214.0 250.0,214.0 251.0,213.0 252.0,212.0 253.0,212.0 254.0,211.0 255.0,211.0 256.0,210.0 257.0,210.0 258.0,209.0 259.0,208.0 260.0,208.0 261.0,207.0 262.0,207.0 263.0,206.0 264.0,207.0 265.0,205.0 266.0,205.0 267.0,205.0 268.0,203.0 269.0,203.0 270.0,203.0 271.0,202.0 272.0,202.0 273.0,200.0 274.0,201.0 275.0,199.0 276.0,199.0 277.0,198.0 278.0,198.0 279.0,197.0 280.0,199.0 281.0,197.0 282.0,197.0 283.0,196.0 284.0,196.0 285.0,196.0 286.0,196.0 287.0,195.0 288.0,195.0 289.0,195.0 290.0,194.0 291.0,194.0 292.0,194.0 293.0,194.0 294.0,193.0 295.0,193.0 296.0,192.0 297.0,192.0 298.0,192.0 299.0,191.0 300.0,191.0 301.0,191.0 302.0,190.0 303.0,190.0 304.0,188.0 305.0,188.0 306.0,187.0 307.0,187.0 308.0,186.0 309.0,187.0 310.0,186.0 311.0,186.0 312.0,184.0 313.0,185.0 314.0,183.0 315.0,184.0 316.0,183.0 317.0,183.0 318.0,182.0 319.0,181.0 320.0,180.0 321.0,180.0 322.0,179.0 323.0,179.0 324.0,177.0 325.0,177.0 326.0,176.0 327.0,175.0 328.0,174.0 329.0,172.0 330.0,172.0 331.0,170.0 332.0,169.0 333.0,168.0 334.0,167.0 335.0,166.0 336.0,165.0 337.0,164.0 338.0,164.0 339.0,162.0 340.0,163.0 341.0,162.0 342.0,161.0 343.0,161.0 344.0,161.0 345.0,159.0 346.0,161.0 347.0,159.0 348.0,159.0 349.0,158.0 350.0,158.0 351.0,157.0 352.0,157.0 353.0,156.0 354.0,156.0 355.0,155.0 356.0,156.0 357.0,155.0 358.0,155.0 359.0,154.0 360.0,153.0 361.0,154.0 362.0,152.0 363.0,153.0 364.0,152.0 365.0,151.0 366.0,151.0 367.0,150.0 368.0,150.0 369.0,148.0 370.0,148.0 371.0,149.0 372.0,146.0 373.0,147.0 374.0,146.0 375.0,145.0 376.0,145.0 377.0,145.0 378.0,144.0 379.0,145.0 380.0,142.0 381.0,143.0 382.0,142.0 383.0,142.0 384.0,141.0 385.0,142.0 386.0,140.0 387.0,142.0 388.0,138.0 389.0,140.0 390.0,138.0 391.0,139.0 392.0,137.0 393.0,137.0 394.0,137.0 395.0,135.0 396.0,136.0 397.0,134.0 398.0,135.0 399.0,134.0 400.0,133.0 401.0,133.0 402.0,132.0 403.0,133.0 404.0,132.0 405.0,131.0 406.0,131.0 407.0,131.0 408.0,129.0 409.0,130.0 410.0,128.0 411.0,129.0 412.0,128.0 413.0,128.0 414.0,127.0 415.0,127.0 416.0,126.0 417.0,125.0 418.0,125.0 419.0,125.0 420.0,124.0 421.0,124.0 422.0,123.0 423.0,123.0 424.0,122.0 425.0,123.0 426.0,121.0 427.0,121.0 428.0,120.0 429.0,120.0 430.0,120.0 431.0,119.0 432.0,118.0 433.0,118.0 434.0,118.0 435.0,116.0 436.0,116.0 437.0,116.0 438.0,116.0 439.0,114.0 440.0,115.0 441.0,113.0 442.0,114.0 443.0,113.0 444.0,112.0 445.0,112.0 446.0,111.0 447.0,111.0 448.0,110.0 449.0,110.0 450.0,109.0 451.0,109.0 452.0,109.0 453.0,108.0 454.0,107.0 455.0,107.0 456.0,106.0 457.0,106.0 458.0,105.0 459.0,106.0 460.0,104.0 461.0,105.0 462.0,102.0 463.0,102.0 464.0,102.0 465.0,102.0 466.0,100.0 467.0,100.0 468.0,99.0 469.0,100.0 470.0,98.0 471.0,97.0 472.0,98.0 473.0,97.0 474.0,97.0 475.0,96.0 476.0,95.0 477.0,95.0 478.0,94.0 479.0,94.0 480.0,93.0 481.0,93.0 482.0,92.0 483.0,92.0 484.0,91.0 485.0,90.0 486.0,91.0 487.0,89.0 488.0,89.0 489.0,88.0 490.0,88.0 491.0,88.0 492.0,87.0 493.0,87.0 494.0,87.0 495.0,85.0 496.0,86.0 497.0,84.0 498.0,85.0 499.0,83.0 500.0,84.0 501.0,83.0 502.0,82.0 503.0,83.0 504.0,82.0 505.0,81.0 506.0,81.0 507.0,80.0 508.0,80.0 509.0,79.0 510.0,79.0 511.0,78.0 512.0,78.0 513.0,77.0 514.0,77.0 515.0,77.0 516.0,76.0 517.0,75.0 518.0,75.0 519.0,75.0 520.0,75.0 521.0,74.0 522.0,73.0 523.0,73.0 524.0,72.0 525.0,72.0 526.0,71.0 527.0,71.0 528.0,70.0 529.0,70.0 530.0,69.0 531.0,69.0 532.0,68.0 533.0,67.0 534.0,67.0 535.0,67.0 536.0,66.0 537.0,66.0 538.0,66.0 539.0,64.0 540.0,65.0 541.0,64.0 542.0,63.0 543.0,63.0 544.0,62.0 545.0,62.0 546.0,61.0 547.0,61.0 548.0,60.0 549.0,60.0 550.0,60.0 551.0,58.0 552.0,59.0 553.0,58.0 554.0,57.0 555.0,57.0 556.0,56.0 557.0,55.0 558.0,56.0 559.0,55.0 560.0,54.0 561.0,54.0 562.0,54.0 563.0,52.0 564.0,53.0 565.0,52.0 566.0,52.0 567.0,51.0 568.0,51.0 569.0,50.0 570.0,50.0 571.0,49.0 572.0,49.0 573.0,48.0 574.0,48.0 575.0,48.0 576.0,46.0 577.0,47.0 578.0,46.0 579.0,46.0 580.0,44.0 581.0,46.0 582.0,43.0 583.0,45.0 584.0,43.0 585.0,44.0 586.0,41.0 587.0,43.0 588.0,40.0 589.0,42.0 590.0,39.0 591.0,41.0 592.0,39.0 593.0,40.0 594.0,38.0 595.0,39.0 596.0,37.0 597.0,38.0 598.0,36.0 599.0,37.0 600.0,35.0 601.0,36.0 602.0,34.0 603.0,34.0 604.0,33.0 605.0,34.0 606.0,32.0 607.0,33.0 608.0,31.0 609.0,32.0 610.0,30.0 611.0,31.0 612.0,30.0 613.0,29.0 614.0,28.0 615.0,29.0 616.0,27.0 617.0,28.0 618.0,27.0 619.0,27.0 620.0,25.0 621.0,26.0 622.0,24.0 623.0,25.0 624.0,23.0 625.0,24.0 626.0,22.0 627.0,22.0 628.0,21.0 629.0,22.0 630.0,20.0 631.0,21.0 632.0,19.0 633.0,20.0 634.0,19.0 635.0,18.0 636.0,17.0 637.0,17.0 638.0,17.0 639.0,15.0 640.0,16.0 641.0,14.0 642.0,15.0 643.0,13.0 644.0,14.0 645.0,12.0 646.0,12.0 647.0,11.0 648.0,12.0 649.0,10.0 650.0,11.0 651.0,9.0 652.0,10.0 653.0,9.0 654.0,9.0" fill="none" stroke="#aeeeee" />
	<polyline points="55.0,298.0 56.0,304.0 57.0,298.0 58.0,303.0 59.0,299.0 60.0,302.0 61.0,299.0 62.0,301.0 63.0,299.0 64.0,300.0 65.0,298.0 66.0,300.0 67.0,298.0 68.0,299.0 69.0,297.0 70.0,298.0 71.0,297.0 72.0,297.0 73.0,296.0 74.0,296.0 75.0,295.0 76.0,294.0 77.0,294.0 78.0,293.0 79.0,293.0 80.0,292.0 81.0,292.0 82.0,292.0 83.0,290.0 84.0,291.0 85.0,290.0 86.0,290.0 87.0,289.0 88.0,289.0 89.0,289.0 90.0,287.0 91.0,288.0 92.0,286.0 93.0,288.0 94.0,286.0 95.0,286.0 96.0,285.0 97.0,286.0 98.0,284.0 99.0,284.0 100.0,284.0 101.0,283.0 102.0,283.0 103.0,283.0 104.0,282.0 105.0,282.0 106.0,281.0 107.0,281.0 108.0,280.0 109.0,281.0 110.0,279.0 111.0,279.0 112.0,279.0 113.0,278.0 114.0,278.0 115.0,278.0 116.0,278.0 117.0,278.0 118.0,277.0 119.0,277.0 120.0,276.0 121.0,275.0 122.0,275.0 123.0,274.0 124.0,274.0 125.0,273.0 126.0,272.0 127.0,273.0 128.0,272.0 129.0,271.0 130.0,271.0 131.0,270.0 132.0,271.0 133.0,269.0 134.0,269.0 135.0,268.0 136.0,268.0 137.0,268.0 138.0,268.0 139.0,267.0 140.0,266.0 141.0,266.0 142.0,266.0 143.0,265.0 144.0,265.0 145.0,265.0 146.0,266.0 147.0,264.0 148.0,264.0 149.0,264.0 150.0,263.0 151.0,263.0 152.0,262.0 153.0,262.0 154.0,262.0 155.0,260.0 156.0,260.0 157.0,259.0 158.0,259.0 159.0,258.0 160.0,257.0 161.0,257.0 162.0,256.0 163.0,256.0 164.0,256.0 165.0,254.0 166.0,255.0 167.0,254.0 168.0,253.0 169.0,253.0 170.0,252.0 171.0,251.0 172.0,251.0 173.0,251.0 174.0,250.0 175.0,249.0 176.0,249.0 177.0,249.0 178.0,248.0 179.0,248.0 180.0,247.0 181.0,247.0 182.0,246.0 183.0,246.0 184.0,246.0 185.0,245.0 186.0,246.0 187.0,244.0 188.0,245.0 189.0,244.0 190.0,244.0 191.0,243.0 192.0,244.0 193.0,243.0 194.0,243.0 195.0,242.0 196.0,243.0 197.0,242.0 198.0,242.0 199.0,242.0 200.0,241.0 201.0,241.0 202.0,241.0 203.0,240.0 204.0,240.0 205.0,239.0 206.0,239.0 207.0,239.0 208.0,237.0 209.0,238.0 210.0,237.0 211.0,236.0 212.0,236.0 213.0,236.0 214.0,235.0 215.0,234.0 216.0,234.0 217.0,233.0 218.0,233.0 219.0,231.0 220.0,232.0 221.0,231.0 222.0,230.0 223.0,230.0 224.0,229.0 225.0,228.0 226.0,228.0 227.0,226.0 228.0,228.0 229.0,224.0 230.0,226.0 231.0,224.0 232.0,225.0 233.0,223.0 234.0,223.0 235.0,223.0 236.0,223.0 237.0,221.0 238.0,221.0 239.0,221.0 240.0,220.0 241.0,220.0 242.0,219.0 243.0,218.0 244.0,218.0 245.0,217.0 246.0,217.0 247.0,216.0 248.0,216.0 249.0,216.0 250.0,215.0 251.0,215.0 252.0,215.0 253.0,214.0 254.0,214.0 255.0,213.0 256.0,213.0 257.0,212.0 258.0,212.0 259.0,211.0 260.0,211.0 261.0,209.0 262.0,210.0 263.0,209.0 264.0,208.0 265.0,207.0 266.0,208.0 267.0,207.0 268.0,207.0 269.0,207.0 270.0,205.0 271.0,206.0 272.0,204.0 273.0,205.0 274.0,204.0 275.0,204.0 276.0,204.0 277.0,203.0 278.0,203.0 279.0,202.0 280.0,203.0 281.0,201.0 282.0,202.0 283.0,200.0 284.0,201.0 285.0,200.0 286.0,196.0 287.0,197.0 288.0,198.0 289.0,196.0 290.0,195.0 291.0,196.0 292.0,194.0 293.0,194.0 294.0,193.0 295.0,191.0 296.0,192.0 297.0,191.0 298.0,191.0 299.0,189.0 300.0,191.0 301.0,188.0 302.0,190.0 303.0,188.0 304.0,188.0 305.0,188.0 306.0,188.0 307.0,186.0 308.0,187.0 309.0,185.0 310.0,186.0 311.0,185.0 312.0,185.0 313.0,184.0 314.0,184.0 315.0,183.0 316.0,183.0 317.0,182.0 318.0,182.0 319.0,182.0 320.0,181.0 321.0,181.0 322.0,180.0 323.0,180.0 324.0,180.0 325.0,179.0 326.0,179.0 327.0,179.0 328.0,178.0 329.0,179.0 330.0,178.0 331.0,177.0 332.0,178.0 333.0,176.0 334.0,176.0 335.0,176.0 336.0,175.0 337.0,175.0 338.0,174.0 339.0,175.0 340.0,173.0 341.0,173.0 342.0,173.0 343.0,171.0 344.0,171.0 345.0,170.0 346.0,170.0 347.0,169.0 348.0,169.0 349.0,167.0 350.0,168.0 351.0,167.0 352.0,167.0 353.0,165.0 354.0,166.0 355.0,164.0 356.0,164.0 357.0,164.0 358.0,163.0 359.0,163.0 360.0,163.0 361.0,162.0 362.0,161.0 363.0,161.0 364.0,160.0 365.0,159.0 366.0,159.0 367.0,158.0 368.0,157.0 369.0,157.0 370.0,156.0 371.0,156.0 372.0,156.0 373.0,154.0 374.0,154.0 375.0,154.0 376.0,154.0 377.0,153.0 378.0,152.0 379.0,152.0 380.0,151.0 381.0,150.0 382.0,151.0 383.0,149.0 384.0,149.0 385.0,149.0 386.0,147.0 387.0,148.0 388.0,146.0 389.0,146.0 390.0,145.0 391.0,144.0 392.0,144.0 393.0,143.0 394.0,143.0 395.0,142.0 396.0,141.0 397.0,141.0 398.0,140.0 399.0,141.0 400.0,139.0 401.0,139.0 402.0,138.0 403.0,138.0 404.0,137.0 405.0,137.0 406.0,136.0 407.0,137.0 408.0,134.0 409.0,135.0 410.0,134.0 411.0,134.0 412.0,133.0 413.0,134.0 414.0,132.0 415.0,133.0 416.0,131.0 417.0,132.0 418.0,130.0 419.0,130.0 420.0,129.0 421.0,129.0 422.0,129.0 423.0,128.0 424.0,128.0 425.0,128.0 426.0,128.0 427.0,127.0 428.0,127.0 429.0,126.0 430.0,126.0 431.0,125.0 432.0,125.0 433.0,124.0 434.0,125.0 435.0,123.0 436.0,124.0 437.0,123.0 438.0,123.0 439.0,123.0 440.0,122.0 441.0,122.0 442.0,121.0 443.0,121.0 444.0,121.0 445.0,120.0 446.0,120.0 447.0,120.0 448.0,118.0 449.0,119.0 450.0,117.0 451.0,119.0 452.0,117.0 453.0,118.0 454.0,117.0 455.0,117.0 456.0,115.0 457.0,116.0 458.0,116.0 459.0,116.0 460.0,115.0 461.0,115.0 462.0,115.0 463.0,115.0 464.0,114.0 465.0,114.0 466.0,115.0 467.0,113.0 468.0,114.0 469.0,113.0 470.0,113.0 471.0,112.0 472.0,112.0 473.0,112.0 474.0,111.0 475.0,111.0 476.0,110.0 477.0,110.0 478.0,109.0 479.0,109.0 480.0,108.0 481.0,108.0 482.0,107.0 483.0,107.0 484.0,107.0 485.0,106.0 486.0,105.0 487.0,105.0 488.0,105.0 489.0,104.0 490.0,104.0 491.0,104.0 492.0,103.0 493.0,103.0 494.0,102.0 495.0,102.0 496.0,101.0 497.0,101.0 498.0,100.0 499.0,100.0 500.0,100.0 501.0,99.0 502.0,99.0 503.0,98.0 504.0,97.0 505.0,97.0 506.0,96.0 507.0,96.0 508.0,95.0 509.0,95.0 510.0,94.0 511.0,94.0 512.0,93.0 513.0,92.0 514.0,92.0 515.0,91.0 516.0,91.0 517.0,90.0 518.0,89.0 519.0,89.0 520.0,88.0 521.0,87.0 522.0,86.0 523.0,86.0 524.0,85.0 525.0,85.0 526.0,84.0 527.0,84.0 528.0,83.0 529.0,82.0 530.0,82.0 531.0,81.0 532.0,80.0 533.0,79.0 534.0,79.0 535.0,78.0 536.0,78.0 537.0,78.0 538.0,77.0 539.0,76.0 540.0,76.0 541.0,76.0 542.0,74.0 543.0,74.0 544.0,73.0 545.0,73.0 546.0,72.0 547.0,72.0 548.0,72.0 549.0,70.0 550.0,71.0 551.0,69.0 552.0,70.0 553.0,69.0 554.0,68.0 555.0,67.0 556.0,68.0 557.0,66.0 558.0,66.0 559.0,65.0 560.0,65.0 561.0,64.0 562.0,63.0 563.0,63.0 564.0,63.0 565.0,61.0 566.0,62.0 567.0,61.0 568.0,61.0 569.0,59.0 570.0,60.0 571.0,59.0 572.0,58.0 573.0,58.0 574.0,57.0 575.0,56.0 576.0,56.0 577.0,56.0 578.0,55.0 579.0,55.0 580.0,54.0 581.0,54.0 582.0,54.0 583.0,53.0 584.0,52.0 585.0,52.0 586.0,50.0 587.0,51.0 588.0,49.0 589.0,50.0 590.0,48.0 591.0,48.0 592.0,46.0 593.0,47.0 594.0,45.0 595.0,46.0 596.0,44.0 597.0,44.0 598.0,43.0 599.0,42.0 600.0,41.0 601.0,41.0 602.0,39.0 603.0,40.0 604.0,38.0 605.0,38.0 606.0,38.0 607.0,36.0 608.0,37.0 609.0,35.0 610.0,35.0 611.0,34.0 612.0,34.0 613.0,33.0 614.0,33.0 615.0,33.0 616.0,31.0 617.0,32.0 618.0,31.0 619.0,30.0 620.0,29.0 621.0,29.0 622.0,29.0 623.0,28.0 624.0,27.0 625.0,28.0 626.0,26.0 627.0,26.0 628.0,26.0 629.0,25.0 630.0,26.0 631.0,23.0 632.0,25.0 633.0,22.0 634.0,24.0 635.0,21.0 636.0,23.0 637.0,19.0 638.0,21.0 639.0,19.0 640.0,19.0 641.0,18.0 642.0,19.0 643.0,16.0 644.0,19.0 645.0,14.0 646.0,17.0 647.0,14.0 648.0,16.0 649.0,14.0 650.0,15.0 651.0,13.0 652.0,15.0 653.0,12.0 654.0,13.0" fill="none" stroke="#00ffff" />
	<polyline points="55.0,5.0 655.0,5.0" fill="none" stroke="#6d6d6d" />
	<polyline points="55.0,305.0 655.0,305.0" fill="none" stroke="#6d6d6d" />
	<polyline points="55.0,305.0 55.0,310.0" fill="none" stroke="#6d6d6d" />
	<polyline points="205.0,305.0 205.0,310.0" fill="none" stroke="#6d6d6d" />
	<polyline points="355.0,305.0 355.0,310.0" fill="none" stroke="#6d6d6d" />
	<polyline points="505.0,305.0 505.0,310.0" fill="none" stroke="#6d6d6d" />
	<polyline points="655.0,305.0 655.0,310.0" fill="none" stroke="#6d6d6d" />
	<polyline points="55.0,5.0 55.0,305.0" fill="none" stroke="#6d6d6d" />
	<polyline points="655.0,5.0 655.0,305.0" fill="none" stroke="#6d6d6d" />
	<polyline points="50.0,5.0 55.0,5.0" fill="none" stroke="#6d6d6d" />
	<polyline points="50.0,80.0 55.0,80.0" fill="none" stroke="#6d6d6d" />
	<polyline points="50.0,155.0 55.0,155.0" fill="none" stroke="#6d6d6d" />
	<polyline points="50.0,230.0 55.0,230.0" fill="none" stroke="#6d6d6d" />
	<polyline points="50.0,305.0 55.0,305.0" fill="none" stroke="#6d6d6d" />
	<text x="55.0" y="323.0" fill="#6d6d6d" font-family="Arial" font-size="9pt" text-anchor="middle">1</text>
	<text x="205.0" y="323.0" fill="#6d6d6d" font-family="Arial" font-size="9pt" text-anchor="middle">150</text>
	<text x="355.0" y="323.0" fill="#6d6d6d" font-family="Arial" font-size="9pt" text-anchor="middle">300</text>
	<text x="505.0" y="323.0" fill="#6d6d6d" font-family="Arial" font-size="9pt" text-anchor="middle">450</text>
	<text x="655.0" y="323.0" fill="#6d6d6d" font-family="Arial" font-size="9pt" text-anchor="middle">600</text>
	<text x="45.0" y="9.0" fill="#6d6d6d" font-family="Arial" font-size="9pt" text-anchor="end">37.7</text>
	<text x="45.0" y="84.0" fill="#6d6d6d" font-family="Arial" font-size="9pt" text-anchor="end">30.1</text>
	<text x="45.0" y="159.0" fill="#6d6d6d" font-family="Arial" font-size="9pt" text-anchor="end">22.5</text>
	<text x="45.0" y="234.0" fill="#6d6d6d" font-family="Arial" font-size="9pt" text-anchor="end">14.8</text>
	<text x="45.0" y="309.0" fill="#6d6d6d" font-family="Arial" font-size="9pt" text-anchor="end">7.2</text>
</svg>
