<?xml version="1.0" encoding="UTF-8" standalone="no"?>
<!DOCTYPE svg PUBLIC "-//W3C//DTD SVG 1.1//EN" "http://www.w3.org/Graphics/SVG/1.1/DTD/svg11.dtd">
<svg xmlns="http://www.w3.org/2000/svg"  version="1.1" width="693.0" height="380.0" viewBox="-6.0 -12.0 687.0 368.0">
	<desc>LSD Plot - Sim_10c</desc>
	<polyline points="205.0,6.0 205.0,304.0" fill="none" stroke="#f0f0f0" />
	<polyline points="355.0,6.0 355.0,304.0" fill="none" stroke="#f0f0f0" />
	<polyline points="505.0,6.0 505.0,304.0" fill="none" stroke="#f0f0f0" />
	<polyline points="56.0,80.0 654.0,80.0" fill="none" stroke="#f0f0f0" />
	<polyline points="56.0,155.0 654.0,155.0" fill="none" stroke="#f0f0f0" />
	<polyline points="56.0,230.0 654.0,230.0" fill="none" stroke="#f0f0f0" />
	<text x="5.0" y="345.0" font-family="Arial" font-size="9pt">Y_L_1</text>
	<text x="45.0" y="345.0" fill="#ff0000" font-family="Arial" font-size="9pt">Y_L_2</text>
	<text x="85.0" y="345.0" fill="#008000" font-family="Arial" font-size="9pt">Y_L_3</text>
	<text x="125.0" y="345.0" fill="#d0d000" font-family="Arial" font-size="9pt">Y_L_4</text>
	<text x="165.0" y="345.0" fill="#fb46bc" font-family="Arial" font-size="9pt">Y_L_5</text>
	<text x="205.0" y="345.0" fill="#0000ff" font-family="Arial" font-size="9pt">Y_L_6</text>
	<text x="245.0" y="345.0" fill="#00bfff" font-family="Arial" font-size="9pt">Y_L_7</text>
	<text x="285.0" y="345.0" fill="#4876ff" font-family="Arial" font-size="9pt">Y_L_8</text>
	<text x="325.0" y="345.0" fill="#aeeeee" font-family="Arial" font-size="9pt">Y_L_9</text>
	<text x="365.0" y="345.0" fill="#00ffff" font-family="Arial" font-size="9pt">Y_L_10</text>
	<polyline points="55.0,305.0 56.0,305.0 57.0,305.0 58.0,305.0 59.0,305.0 60.0,305.0 61.0,304.0 62.0,304.0 63.0,304.0 64.0,304.0 65.0,304.0 66.0,304.0 67.0,303.0 68.0,303.0 69.0,302.0 70.0,302.0 71.0,301.0 72.0,300.0 73.0,299.0 74.0,299.0 75.0,298.0 76.0,297.0 77.0,297.0 78.0,296.0 79.0,296.0 80.0,295.0 81.0,295.0 82.0,294.0 83.0,294.0 84.0,293.0 85.0,292.0 86.0,292.0 87.0,291.0 88.0,291.0 89.0,290.0 90.0,290.0 91.0,289.0 92.0,289.0 93.0,288.0 94.0,288.0 95.0,287.0 96.0,287.0 97.0,287.0 98.0,286.0 99.0,285.0 100.0,285.0 101.0,285.0 102.0,284.0 103.0,283.0 104.0,283.0 105.0,283.0 106.0,283.0 107.0,282.0 108.0,282.0 109.0,281.0 110.0,281.0 111.0,280.0 112.0,280.0 113.0,279.0 114.0,278.0 115.0,278.0 116.0,278.0 117.0,277.0 118.0,277.0 119.0,277.0 120.0,276.0 121.0,276.0 122.0,275.0 123.0,275.0 124.0,275.0 125.0,274.0 126.0,274.0 127.0,273.0 128.0,273.0 129.0,272.0 130.0,271.0 131.0,271.0 132.0,270.0 133.0,270.0 134.0,269.0 135.0,268.0 136.0,268.0 137.0,267.0 138.0,266.0 139.0,266.0 140.0,264.0 141.0,264.0 142.0,264.0 143.0,264.0 144.0,263.0 145.0,263.0 146.0,262.0 147.0,262.0 148.0,261.0 149.0,260.0 150.0,259.0 151.0,259.0 152.0,259.0 153.0,258.0 154.0,258.0 155.0,258.0 156.0,258.0 157.0,257.0 158.0,256.0 159.0,256.0 160.0,256.0 161.0,256.0 162.0,256.0 163.0,256.0 164.0,255.0 165.0,255.0 166.0,254.0 167.0,254.0 168.0,254.0 169.0,253.0 170.0,252.0 171.0,252.0 172.0,251.0 173.0,250.0 174.0,249.0 175.0,249.0 176.0,248.0 177.0,248.0 178.0,248.0 179.0,247.0 180.0,247.0 181.0,246.0 182.0,246.0 183.0,245.0 184.0,245.0 185.0,245.0 186.0,245.0 187.0,244.0 188.0,244.0 189.0,243.0 190.0,243.0 191.0,242.0 192.0,242.0 193.0,242.0 194.0,241.0 195.0,241.0 196.0,240.0 197.0,240.0 198.0,239.0 199.0,239.0 200.0,239.0 201.0,238.0 202.0,236.0 203.0,236.0 204.0,235.0 205.0,235.0 206.0,234.0 207.0,233.0 208.0,233.0 209.0,232.0 210.0,231.0 211.0,231.0 212.0,231.0 213.0,230.0 214.0,230.0 215.0,229.0 216.0,229.0 217.0,228.0 218.0,228.0 219.0,227.0 220.0,227.0 221.0,226.0 222.0,226.0 223.0,226.0 224.0,225.0 225.0,225.0 226.0,224.0 227.0,224.0 228.0,224.0 229.0,223.0 230.0,223.0 231.0,222.0 232.0,222.0 233.0,221.0 234.0,221.0 235.0,220.0 236.0,219.0 237.0,219.0 238.0,219.0 239.0,218.0 240.0,217.0 241.0,217.0 242.0,217.0 243.0,216.0 244.0,216.0 245.0,215.0 246.0,214.0 247.0,214.0 248.0,213.0 249.0,212.0 250.0,212.0 251.0,211.0 252.0,211.0 253.0,210.0 254.0,209.0 255.0,209.0 256.0,208.0 257.0,208.0 258.0,207.0 259.0,207.0 260.0,206.0 261.0,206.0 262.0,205.0 263.0,205.0 264.0,204.0 265.0,204.0 266.0,203.0 267.0,202.0 268.0,201.0 269.0,200.0 270.0,200.0 271.0,199.0 272.0,199.0 273.0,198.0 274.0,198.0 275.0,197.0 276.0,197.0 277.0,197.0 278.0,196.0 279.0,196.0 280.0,195.0 281.0,195.0 282.0,194.0 283.0,193.0 284.0,193.0 285.0,192.0 286.0,191.0 287.0,191.0 288.0,190.0 289.0,190.0 290.0,190.0 291.0,190.0 292.0,189.0 293.0,188.0 294.0,188.0 295.0,188.0 296.0,187.0 297.0,187.0 298.0,186.0 299.0,186.0 300.0,185.0 301.0,184.0 302.0,184.0 303.0,183.0 304.0,183.0 305.0,183.0 306.0,182.0 307.0,181.0 308.0,181.0 309.0,181.0 310.0,181.0 311.0,180.0 312.0,180.0 313.0,179.0 314.0,179.0 315.0,179.0 316.0,178.0 317.0,178.0 318.0,178.0 319.0,178.0 320.0,178.0 321.0,177.0 322.0,177.0 323.0,177.0 324.0,177.0 325.0,176.0 326.0,176.0 327.0,175.0 328.0,174.0 329.0,174.0 330.0,174.0 331.0,173.0 332.0,173.0 333.0,173.0 334.0,172.0 335.0,172.0 336.0,171.0 337.0,170.0 338.0,170.0 339.0,168.0 340.0,167.0 341.0,166.0 342.0,166.0 343.0,165.0 344.0,164.0 345.0,164.0 346.0,163.0 347.0,162.0 348.0,161.0 349.0,161.0 350.0,160.0 351.0,160.0 352.0,159.0 353.0,159.0 354.0,158.0 355.0,157.0 356.0,157.0 357.0,157.0 358.0,156.0 359.0,156.0 360.0,156.0 361.0,156.0 362.0,156.0 363.0,155.0 364.0,155.0 365.0,154.0 366.0,154.0 367.0,153.0 368.0,153.0 369.0,152.0 370.0,152.0 371.0,151.0 372.0,151.0 373.0,150.0 374.0,150.0 375.0,149.0 376.0,149.0 377.0,148.0 378.0,147.0 379.0,147.0 380.0,146.0 381.0,146.0 382.0,145.0 383.0,145.0 384.0,144.0 385.0,143.0 386.0,142.0 387.0,142.0 388.0,141.0 389.0,141.0 390.0,141.0 391.0,140.0 392.0,140.0 393.0,139.0 394.0,138.0 395.0,138.0 396.0,137.0 397.0,137.0 398.0,137.0 399.0,137.0 400.0,136.0 401.0,136.0 402.0,136.0 403.0,135.0 404.0,135.0 405.0,135.0 406.0,135.0 407.0,134.0 408.0,134.0 409.0,134.0 410.0,133.0 411.0,132.0 412.0,132.0 413.0,132.0 414.0,132.0 415.0,131.0 416.0,131.0 417.0,130.0 418.0,130.0 419.0,129.0 420.0,128.0 421.0,128.0 422.0,128.0 423.0,127.0 424.0,126.0 425.0,125.0 426.0,125.0 427.0,124.0 428.0,124.0 429.0,124.0 430.0,123.0 431.0,123.0 432.0,122.0 433.0,122.0 434.0,121.0 435.0,120.0 436.0,120.0 437.0,119.0 438.0,119.0 439.0,119.0 440.0,118.0 441.0,118.0 442.0,118.0 443.0,117.0 444.0,117.0 445.0,116.0 446.0,116.0 447.0,115.0 448.0,114.0 449.0,114.0 450.0,113.0 451.0,112.0 452.0,112.0 453.0,111.0 454.0,110.0 455.0,110.0 456.0,109.0 457.0,108.0 458.0,108.0 459.0,107.0 460.0,106.0 461.0,106.0 462.0,105.0 463.0,105.0 464.0,104.0 465.0,103.0 466.0,103.0 467.0,103.0 468.0,102.0 469.0,102.0 470.0,101.0 471.0,101.0 472.0,100.0 473.0,100.0 474.0,100.0 475.0,99.0 476.0,98.0 477.0,98.0 478.0,97.0 479.0,96.0 480.0,96.0 481.0,95.0 482.0,94.0 483.0,94.0 484.0,93.0 485.0,93.0 486.0,92.0 487.0,92.0 488.0,92.0 489.0,92.0 490.0,91.0 491.0,91.0 492.0,90.0 493.0,90.0 494.0,90.0 495.0,90.0 496.0,89.0 497.0,89.0 498.0,88.0 499.0,88.0 500.0,88.0 501.0,87.0 502.0,86.0 503.0,85.0 504.0,84.0 505.0,83.0 506.0,82.0 507.0,82.0 508.0,81.0 509.0,81.0 510.0,81.0 511.0,80.0 512.0,80.0 513.0,79.0 514.0,79.0 515.0,79.0 516.0,78.0 517.0,77.0 518.0,76.0 519.0,76.0 520.0,75.0 521.0,75.0 522.0,74.0 523.0,74.0 524.0,74.0 525.0,74.0 526.0,74.0 527.0,73.0 528.0,73.0 529.0,72.0 530.0,72.0 531.0,72.0 532.0,71.0 533.0,71.0 534.0,71.0 535.0,70.0 536.0,69.0 537.0,69.0 538.0,68.0 539.0,68.0 540.0,67.0 541.0,66.0 542.0,66.0 543.0,66.0 544.0,65.0 545.0,65.0 546.0,64.0 547.0,64.0 548.0,63.0 549.0,62.0 550.0,61.0 551.0,61.0 552.0,61.0 553.0,61.0 554.0,60.0 555.0,59.0 556.0,59.0 557.0,58.0 558.0,57.0 559.0,57.0 560.0,56.0 561.0,56.0 562.0,56.0 563.0,56.0 564.0,55.0 565.0,54.0 566.0,53.0 567.0,53.0 568.0,53.0 569.0,53.0 570.0,52.0 571.0,52.0 572.0,52.0 573.0,52.0 574.0,52.0 575.0,50.0 576.0,50.0 577.0,49.0 578.0,48.0 579.0,48.0 580.0,48.0 581.0,47.0 582.0,47.0 583.0,46.0 584.0,45.0 585.0,45.0 586.0,45.0 587.0,45.0 588.0,44.0 589.0,43.0 590.0,43.0 591.0,42.0 592.0,41.0 593.0,41.0 594.0,40.0 595.0,40.0 596.0,39.0 597.0,38.0 598.0,38.0 599.0,37.0 600.0,36.0 601.0,35.0 602.0,35.0 603.0,34.0 604.0,34.0 605.0,33.0 606.0,33.0 607.0,32.0 608.0,31.0 609.0,31.0 610.0,30.0 611.0,30.0 612.0,29.0 613.0,28.0 614.0,28.0 615.0,27.0 616.0,26.0 617.0,26.0 618.0,26.0 619.0,25.0 620.0,25.0 621.0,24.0 622.0,23.0 623.0,23.0 624.0,22.0 625.0,22.0 626.0,21.0 627.0,21.0 628.0,20.0 629.0,20.0 630.0,20.0 631.0,19.0 632.0,19.0 633.0,18.0 634.0,18.0 635.0,17.0 636.0,17.0 637.0,16.0 638.0,16.0 639.0,16.0 640.0,15.0 641.0,14.0 642.0,14.0 643.0,14.0 644.0,13.0 645.0,13.0 646.0,12.0 647.0,11.0 648.0,11.0 649.0,10.0 650.0,10.0 651.0,9.0 652.0,9.0 653.0,8.0 654.0,8.0" fill="none" stroke="#000000" />
	<polyline points="55.0,305.0 56.0,305.0 57.0,305.0 58.0,305.0 59.0,305.0 60.0,305.0 61.0,305.0 62.0,304.0 63.0,304.0 64.0,304.0 65.0,304.0 66.0,304.0 67.0,303.0 68.0,303.0 69.0,303.0 70.0,302.0 71.0,301.0 72.0,301.0 73.0,300.0 74.0,299.0 75.0,298.0 76.0,298.0 77.0,298.0 78.0,297.0 79.0,297.0 80.0,296.0 81.0,296.0 82.0,295.0 83.0,295.0 84.0,294.0 85.0,294.0 86.0,293.0 87.0,293.0 88.0,292.0 89.0,292.0 90.0,291.0 91.0,290.0 92.0,290.0 93.0,289.0 94.0,289.0 95.0,288.0 96.0,287.0 97.0,287.0 98.0,287.0 99.0,286.0 100.0,286.0 101.0,285.0 102.0,285.0 103.0,284.0 104.0,284.0 105.0,283.0 106.0,283.0 107.0,282.0 108.0,282.0 109.0,281.0 110.0,281.0 111.0,281.0 112.0,280.0 113.0,280.0 114.0,280.0 115.0,280.0 116.0,279.0 117.0,279.0 118.0,278.0 119.0,277.0 120.0,277.0 121.0,277.0 122.0,276.0 123.0,276.0 124.0,276.0 125.0,276.0 126.0,275.0 127.0,275.0 128.0,274.0 129.0,272.0 130.0,272.0 131.0,271.0 132.0,271.0 133.0,270.0 134.0,270.0 135.0,268.0 136.0,268.0 137.0,267.0 138.0,266.0 139.0,266.0 140.0,265.0 141.0,265.0 142.0,264.0 143.0,264.0 144.0,263.0 145.0,263.0 146.0,262.0 147.0,262.0 148.0,261.0 149.0,261.0 150.0,260.0 151.0,260.0 152.0,259.0 153.0,259.0 154.0,258.0 155.0,258.0 156.0,257.0 157.0,256.0 158.0,256.0 159.0,256.0 160.0,255.0 161.0,255.0 162.0,255.0 163.0,254.0 164.0,254.0 165.0,254.0 166.0,253.0 167.0,253.0 168.0,252.0 169.0,252.0 170.0,251.0 171.0,250.0 172.0,250.0 173.0,250.0 174.0,249.0 175.0,249.0 176.0,248.0 177.0,248.0 178.0,247.0 179.0,247.0 180.0,246.0 181.0,246.0 182.0,245.0 183.0,244.0 184.0,244.0 185.0,243.0 186.0,243.0 187.0,242.0 188.0,242.0 189.0,241.0 190.0,241.0 191.0,241.0 192.0,241.0 193.0,240.0 194.0,240.0 195.0,240.0 196.0,239.0 197.0,239.0 198.0,238.0 199.0,237.0 200.0,237.0 201.0,236.0 202.0,235.0 203.0,234.0 204.0,234.0 205.0,233.0 206.0,233.0 207.0,232.0 208.0,232.0 209.0,232.0 210.0,231.0 211.0,231.0 212.0,230.0 213.0,229.0 214.0,229.0 215.0,228.0 216.0,227.0 217.0,226.0 218.0,226.0 219.0,226.0 220.0,225.0 221.0,225.0 222.0,225.0 223.0,224.0 224.0,224.0 225.0,224.0 226.0,223.0 227.0,223.0 228.0,222.0 229.0,222.0 230.0,222.0 231.0,222.0 232.0,221.0 233.0,221.0 234.0,221.0 235.0,221.0 236.0,221.0 237.0,220.0 238.0,220.0 239.0,219.0 240.0,219.0 241.0,218.0 242.0,217.0 243.0,217.0 244.0,216.0 245.0,216.0 246.0,215.0 247.0,214.0 248.0,214.0 249.0,213.0 250.0,212.0 251.0,212.0 252.0,211.0 253.0,210.0 254.0,210.0 255.0,209.0 256.0,209.0 257.0,208.0 258.0,208.0 259.0,207.0 260.0,206.0 261.0,206.0 262.0,206.0 263.0,205.0 264.0,205.0 265.0,204.0 266.0,204.0 267.0,204.0 268.0,203.0 269.0,203.0 270.0,203.0 271.0,202.0 272.0,202.0 273.0,201.0 274.0,201.0 275.0,200.0 276.0,200.0 277.0,199.0 278.0,199.0 279.0,198.0 280.0,198.0 281.0,197.0 282.0,196.0 283.0,196.0 284.0,196.0 285.0,195.0 286.0,195.0 287.0,194.0 288.0,194.0 289.0,193.0 290.0,193.0 291.0,192.0 292.0,192.0 293.0,191.0 294.0,191.0 295.0,190.0 296.0,189.0 297.0,189.0 298.0,189.0 299.0,188.0 300.0,188.0 301.0,188.0 302.0,188.0 303.0,187.0 304.0,187.0 305.0,187.0 306.0,186.0 307.0,184.0 308.0,184.0 309.0,184.0 310.0,183.0 311.0,183.0 312.0,182.0 313.0,182.0 314.0,181.0 315.0,181.0 316.0,181.0 317.0,180.0 318.0,179.0 319.0,179.0 320.0,178.0 321.0,177.0 322.0,176.0 323.0,176.0 324.0,175.0 325.0,175.0 326.0,174.0 327.0,174.0 328.0,173.0 329.0,172.0 330.0,171.0 331.0,170.0 332.0,169.0 333.0,168.0 334.0,168.0 335.0,167.0 336.0,166.0 337.0,166.0 338.0,165.0 339.0,165.0 340.0,165.0 341.0,164.0 342.0,164.0 343.0,164.0 344.0,164.0 345.0,164.0 346.0,164.0 347.0,164.0 348.0,164.0 349.0,164.0 350.0,163.0 351.0,163.0 352.0,163.0 353.0,162.0 354.0,162.0 355.0,162.0 356.0,162.0 357.0,161.0 358.0,161.0 359.0,161.0 360.0,161.0 361.0,161.0 362.0,160.0 363.0,159.0 364.0,159.0 365.0,159.0 366.0,158.0 367.0,158.0 368.0,158.0 369.0,157.0 370.0,157.0 371.0,156.0 372.0,156.0 373.0,155.0 374.0,154.0 375.0,154.0 376.0,153.0 377.0,153.0 378.0,153.0 379.0,152.0 380.0,152.0 381.0,151.0 382.0,151.0 383.0,150.0 384.0,149.0 385.0,149.0 386.0,148.0 387.0,148.0 388.0,147.0 389.0,147.0 390.0,146.0 391.0,144.0 392.0,144.0 393.0,143.0 394.0,142.0 395.0,142.0 396.0,142.0 397.0,141.0 398.0,140.0 399.0,140.0 400.0,140.0 401.0,139.0 402.0,139.0 403.0,138.0 404.0,138.0 405.0,138.0 406.0,137.0 407.0,137.0 408.0,137.0 409.0,136.0 410.0,135.0 411.0,135.0 412.0,134.0 413.0,133.0 414.0,133.0 415.0,132.0 416.0,132.0 417.0,132.0 418.0,132.0 419.0,131.0 420.0,131.0 421.0,130.0 422.0,130.0 423.0,129.0 424.0,129.0 425.0,129.0 426.0,128.0 427.0,128.0 428.0,127.0 429.0,127.0 430.0,126.0 431.0,126.0 432.0,125.0 433.0,125.0 434.0,124.0 435.0,124.0 436.0,123.0 437.0,123.0 438.0,122.0 439.0,122.0 440.0,121.0 441.0,120.0 442.0,119.0 443.0,119.0 444.0,119.0 445.0,118.0 446.0,118.0 447.0,117.0 448.0,116.0 449.0,116.0 450.0,116.0 451.0,115.0 452.0,115.0 453.0,115.0 454.0,114.0 455.0,114.0 456.0,114.0 457.0,113.0 458.0,112.0 459.0,112.0 460.0,111.0 461.0,111.0 462.0,110.0 463.0,110.0 464.0,110.0 465.0,109.0 466.0,109.0 467.0,108.0 468.0,108.0 469.0,107.0 470.0,107.0 471.0,106.0 472.0,106.0 473.0,105.0 474.0,104.0 475.0,104.0 476.0,103.0 477.0,102.0 478.0,102.0 479.0,101.0 480.0,100.0 481.0,100.0 482.0,99.0 483.0,99.0 484.0,98.0 485.0,98.0 486.0,97.0 487.0,96.0 488.0,95.0 489.0,94.0 490.0,93.0 491.0,92.0 492.0,91.0 493.0,90.0 494.0,90.0 495.0,89.0 496.0,88.0 497.0,88.0 498.0,87.0 499.0,86.0 500.0,85.0 501.0,85.0 502.0,85.0 503.0,84.0 504.0,84.0 505.0,83.0 506.0,81.0 507.0,81.0 508.0,80.0 509.0,80.0 510.0,79.0 511.0,78.0 512.0,78.0 513.0,77.0 514.0,77.0 515.0,76.0 516.0,76.0 517.0,76.0 518.0,75.0 519.0,75.0 520.0,75.0 521.0,74.0 522.0,73.0 523.0,72.0 524.0,72.0 525.0,71.0 526.0,70.0 527.0,70.0 528.0,70.0 529.0,70.0 530.0,69.0 531.0,69.0 532.0,68.0 533.0,67.0 534.0,67.0 535.0,66.0 536.0,66.0 537.0,65.0 538.0,64.0 539.0,64.0 540.0,63.0 541.0,62.0 542.0,62.0 543.0,61.0 544.0,61.0 545.0,60.0 546.0,59.0 547.0,59.0 548.0,59.0 549.0,58.0 550.0,58.0 551.0,58.0 552.0,57.0 553.0,57.0 554.0,56.0 555.0,56.0 556.0,55.0 557.0,54.0 558.0,54.0 559.0,53.0 560.0,53.0 561.0,53.0 562.0,52.0 563.0,52.0 564.0,52.0 565.0,52.0 566.0,52.0 567.0,51.0 568.0,49.0 569.0,49.0 570.0,48.0 571.0,48.0 572.0,48.0 573.0,48.0 574.0,48.0 575.0,48.0 576.0,47.0 577.0,47.0 578.0,47.0 579.0,47.0 580.0,46.0 581.0,46.0 582.0,45.0 583.0,45.0 584.0,45.0 585.0,45.0 586.0,45.0 587.0,44.0 588.0,44.0 589.0,43.0 590.0,43.0 591.0,42.0 592.0,41.0 593.0,39.0 594.0,39.0 595.0,38.0 596.0,38.0 597.0,38.0 598.0,38.0 599.0,37.0 600.0,37.0 601.0,36.0 602.0,36.0 603.0,36.0 604.0,35.0 605.0,34.0 606.0,33.0 607.0,32.0 608.0,32.0 609.0,31.0 610.0,30.0 611.0,29.0 612.0,29.0 613.0,29.0 614.0,28.0 615.0,28.0 616.0,28.0 617.0,28.0 618.0,28.0 619.0,28.0 620.0,27.0 621.0,27.0 622.0,26.0 623.0,26.0 624.0,26.0 625.0,25.0 626.0,24.0 627.0,22.0 628.0,21.0 629.0,20.0 630.0,20.0 631.0,20.0 632.0,19.0 633.0,19.0 634.0,19.0 635.0,18.0 636.0,18.0 637.0,17.0 638.0,17.0 639.0,16.0 640.0,16.0 641.0,15.0 642.0,14.0 643.0,14.0 644.0,14.0 645.0,13.0 646.0,14.0 647.0,13.0 648.0,13.0 649.0,12.0 650.0,11.0 651.0,10.0 652.0,9.0 653.0,8.0 654.0,8.0" fill="none" stroke="#ff0000" />
	<polyline points="55.0,305.0 56.0,305.0 57.0,305.0 58.0,305.0 59.0,305.0 60.0,305.0 61.0,304.0 62.0,304.0 63.0,304.0 64.0,304.0 65.0,304.0 66.0,304.0 67.0,304.0 68.0,303.0 69.0,303.0 70.0,303.0 71.0,302.0 72.0,302.0 73.0,301.0 74.0,300.0 75.0,300.0 76.0,299.0 77.0,298.0 78.0,298.0 79.0,297.0 80.0,297.0 81.0,296.0 82.0,295.0 83.0,295.0 84.0,294.0 85.0,294.0 86.0,293.0 87.0,293.0 88.0,292.0 89.0,292.0 90.0,291.0 91.0,291.0 92.0,290.0 93.0,289.0 94.0,289.0 95.0,289.0 96.0,288.0 97.0,288.0 98.0,287.0 99.0,287.0 100.0,286.0 101.0,286.0 102.0,285.0 103.0,285.0 104.0,284.0 105.0,284.0 106.0,283.0 107.0,282.0 108.0,282.0 109.0,281.0 110.0,281.0 111.0,280.0 112.0,280.0 113.0,279.0 114.0,279.0 115.0,278.0 116.0,278.0 117.0,277.0 118.0,277.0 119.0,276.0 120.0,276.0 121.0,276.0 122.0,275.0 123.0,275.0 124.0,274.0 125.0,273.0 126.0,273.0 127.0,273.0 128.0,273.0 129.0,272.0 130.0,272.0 131.0,271.0 132.0,271.0 133.0,271.0 134.0,270.0 135.0,270.0 136.0,269.0 137.0,268.0 138.0,268.0 139.0,268.0 140.0,267.0 141.0,267.0 142.0,266.0 143.0,266.0 144.0,265.0 145.0,265.0 146.0,264.0 147.0,263.0 148.0,263.0 149.0,262.0 150.0,262.0 151.0,261.0 152.0,261.0 153.0,261.0 154.0,260.0 155.0,260.0 156.0,259.0 157.0,259.0 158.0,258.0 159.0,258.0 160.0,257.0 161.0,257.0 162.0,256.0 163.0,256.0 164.0,256.0 165.0,255.0 166.0,254.0 167.0,254.0 168.0,253.0 169.0,253.0 170.0,253.0 171.0,252.0 172.0,251.0 173.0,251.0 174.0,250.0 175.0,250.0 176.0,249.0 177.0,249.0 178.0,249.0 179.0,248.0 180.0,248.0 181.0,247.0 182.0,247.0 183.0,246.0 184.0,246.0 185.0,246.0 186.0,245.0 187.0,245.0 188.0,245.0 189.0,244.0 190.0,244.0 191.0,243.0 192.0,243.0 193.0,242.0 194.0,242.0 195.0,241.0 196.0,240.0 197.0,240.0 198.0,239.0 199.0,238.0 200.0,238.0 201.0,237.0 202.0,237.0 203.0,237.0 204.0,236.0 205.0,236.0 206.0,236.0 207.0,235.0 208.0,235.0 209.0,234.0 210.0,234.0 211.0,233.0 212.0,233.0 213.0,232.0 214.0,232.0 215.0,231.0 216.0,231.0 217.0,230.0 218.0,230.0 219.0,229.0 220.0,229.0 221.0,228.0 222.0,227.0 223.0,226.0 224.0,225.0 225.0,224.0 226.0,224.0 227.0,223.0 228.0,223.0 229.0,222.0 230.0,222.0 231.0,222.0 232.0,222.0 233.0,222.0 234.0,222.0 235.0,222.0 236.0,221.0 237.0,221.0 238.0,221.0 239.0,220.0 240.0,220.0 241.0,220.0 242.0,220.0 243.0,219.0 244.0,219.0 245.0,218.0 246.0,218.0 247.0,218.0 248.0,217.0 249.0,217.0 250.0,216.0 251.0,216.0 252.0,215.0 253.0,215.0 254.0,214.0 255.0,214.0 256.0,214.0 257.0,213.0 258.0,212.0 259.0,212.0 260.0,211.0 261.0,211.0 262.0,211.0 263.0,210.0 264.0,209.0 265.0,209.0 266.0,208.0 267.0,207.0 268.0,206.0 269.0,206.0 270.0,205.0 271.0,205.0 272.0,204.0 273.0,204.0 274.0,203.0 275.0,203.0 276.0,202.0 277.0,201.0 278.0,201.0 279.0,201.0 280.0,200.0 281.0,200.0 282.0,200.0 283.0,199.0 284.0,199.0 285.0,198.0 286.0,198.0 287.0,197.0 288.0,197.0 289.0,197.0 290.0,196.0 291.0,195.0 292.0,195.0 293.0,195.0 294.0,194.0 295.0,194.0 296.0,193.0 297.0,193.0 298.0,192.0 299.0,192.0 300.0,192.0 301.0,190.0 302.0,190.0 303.0,189.0 304.0,188.0 305.0,188.0 306.0,187.0 307.0,186.0 308.0,186.0 309.0,185.0 310.0,185.0 311.0,185.0 312.0,184.0 313.0,184.0 314.0,183.0 315.0,182.0 316.0,181.0 317.0,181.0 318.0,180.0 319.0,179.0 320.0,179.0 321.0,178.0 322.0,178.0 323.0,178.0 324.0,177.0 325.0,176.0 326.0,176.0 327.0,175.0 328.0,175.0 329.0,175.0 330.0,175.0 331.0,174.0 332.0,174.0 333.0,174.0 334.0,173.0 335.0,173.0 336.0,172.0 337.0,172.0 338.0,172.0 339.0,171.0 340.0,171.0 341.0,170.0 342.0,170.0 343.0,169.0 344.0,168.0 345.0,168.0 346.0,168.0 347.0,167.0 348.0,167.0 349.0,166.0 350.0,166.0 351.0,165.0 352.0,164.0 353.0,164.0 354.0,163.0 355.0,163.0 356.0,163.0 357.0,162.0 358.0,161.0 359.0,161.0 360.0,160.0 361.0,159.0 362.0,159.0 363.0,159.0 364.0,158.0 365.0,158.0 366.0,157.0 367.0,157.0 368.0,156.0 369.0,155.0 370.0,155.0 371.0,155.0 372.0,154.0 373.0,154.0 374.0,154.0 375.0,153.0 376.0,152.0 377.0,152.0 378.0,151.0 379.0,150.0 380.0,150.0 381.0,149.0 382.0,149.0 383.0,148.0 384.0,148.0 385.0,147.0 386.0,147.0 387.0,146.0 388.0,146.0 389.0,145.0 390.0,144.0 391.0,143.0 392.0,142.0 393.0,142.0 394.0,141.0 395.0,141.0 396.0,140.0 397.0,140.0 398.0,139.0 399.0,138.0 400.0,138.0 401.0,138.0 402.0,137.0 403.0,136.0 404.0,136.0 405.0,135.0 406.0,135.0 407.0,135.0 408.0,135.0 409.0,134.0 410.0,134.0 411.0,134.0 412.0,133.0 413.0,133.0 414.0,133.0 415.0,133.0 416.0,132.0 417.0,132.0 418.0,131.0 419.0,130.0 420.0,130.0 421.0,130.0 422.0,129.0 423.0,129.0 424.0,128.0 425.0,128.0 426.0,128.0 427.0,126.0 428.0,125.0 429.0,124.0 430.0,123.0 431.0,123.0 432.0,123.0 433.0,122.0 434.0,122.0 435.0,122.0 436.0,121.0 437.0,121.0 438.0,120.0 439.0,119.0 440.0,119.0 441.0,118.0 442.0,118.0 443.0,117.0 444.0,117.0 445.0,116.0 446.0,116.0 447.0,115.0 448.0,114.0 449.0,114.0 450.0,113.0 451.0,112.0 452.0,112.0 453.0,111.0 454.0,111.0 455.0,110.0 456.0,109.0 457.0,109.0 458.0,108.0 459.0,107.0 460.0,106.0 461.0,105.0 462.0,105.0 463.0,105.0 464.0,104.0 465.0,104.0 466.0,103.0 467.0,103.0 468.0,102.0 469.0,101.0 470.0,101.0 471.0,100.0 472.0,99.0 473.0,98.0 474.0,97.0 475.0,96.0 476.0,96.0 477.0,95.0 478.0,94.0 479.0,94.0 480.0,94.0 481.0,94.0 482.0,93.0 483.0,93.0 484.0,92.0 485.0,91.0 486.0,91.0 487.0,91.0 488.0,90.0 489.0,90.0 490.0,89.0 491.0,89.0 492.0,88.0 493.0,88.0 494.0,87.0 495.0,86.0 496.0,85.0 497.0,85.0 498.0,84.0 499.0,83.0 500.0,83.0 501.0,82.0 502.0,81.0 503.0,81.0 504.0,80.0 505.0,80.0 506.0,80.0 507.0,80.0 508.0,80.0 509.0,79.0 510.0,79.0 511.0,78.0 512.0,78.0 513.0,77.0 514.0,77.0 515.0,77.0 516.0,76.0 517.0,76.0 518.0,75.0 519.0,74.0 520.0,74.0 521.0,74.0 522.0,73.0 523.0,73.0 524.0,73.0 525.0,73.0 526.0,72.0 527.0,72.0 528.0,72.0 529.0,72.0 530.0,72.0 531.0,71.0 532.0,71.0 533.0,70.0 534.0,70.0 535.0,69.0 536.0,68.0 537.0,68.0 538.0,67.0 539.0,66.0 540.0,66.0 541.0,65.0 542.0,65.0 543.0,64.0 544.0,64.0 545.0,64.0 546.0,63.0 547.0,63.0 548.0,62.0 549.0,62.0 550.0,62.0 551.0,61.0 552.0,61.0 553.0,61.0 554.0,60.0 555.0,60.0 556.0,60.0 557.0,60.0 558.0,60.0 559.0,59.0 560.0,59.0 561.0,59.0 562.0,59.0 563.0,59.0 564.0,58.0 565.0,57.0 566.0,56.0 567.0,56.0 568.0,55.0 569.0,54.0 570.0,54.0 571.0,53.0 572.0,53.0 573.0,53.0 574.0,52.0 575.0,52.0 576.0,50.0 577.0,48.0 578.0,47.0 579.0,47.0 580.0,46.0 581.0,45.0 582.0,45.0 583.0,44.0 584.0,44.0 585.0,43.0 586.0,43.0 587.0,42.0 588.0,42.0 589.0,41.0 590.0,41.0 591.0,40.0 592.0,40.0 593.0,40.0 594.0,39.0 595.0,39.0 596.0,38.0 597.0,38.0 598.0,38.0 599.0,38.0 600.0,38.0 601.0,37.0 602.0,37.0 603.0,37.0 604.0,36.0 605.0,35.0 606.0,35.0 607.0,34.0 608.0,34.0 609.0,34.0 610.0,34.0 611.0,33.0 612.0,33.0 613.0,33.0 614.0,33.0 615.0,32.0 616.0,32.0 617.0,31.0 618.0,31.0 619.0,30.0 620.0,30.0 621.0,29.0 622.0,29.0 623.0,28.0 624.0,28.0 625.0,28.0 626.0,27.0 627.0,27.0 628.0,26.0 629.0,26.0 630.0,25.0 631.0,24.0 632.0,24.0 633.0,22.0 634.0,20.0 635.0,19.0 636.0,19.0 637.0,18.0 638.0,17.0 639.0,17.0 640.0,17.0 641.0,16.0 642.0,16.0 643.0,15.0 644.0,15.0 645.0,15.0 646.0,14.0 647.0,14.0 648.0,14.0 649.0,13.0 650.0,13.0 651.0,13.0 652.0,12.0 653.0,11.0 654.0,10.0" fill="none" stroke="#008000" />
	<polyline points="55.0,305.0 56.0,305.0 57.0,305.0 58.0,305.0 59.0,305.0 60.0,305.0 61.0,304.0 62.0,304.0 63.0,304.0 64.0,304.0 65.0,304.0 66.0,304.0 67.0,303.0 68.0,303.0 69.0,302.0 70.0,301.0 71.0,301.0 72.0,300.0 73.0,298.0 74.0,297.0 75.0,297.0 76.0,296.0 77.0,296.0 78.0,296.0 79.0,295.0 80.0,295.0 81.0,295.0 82.0,294.0 83.0,294.0 84.0,293.0 85.0,293.0 86.0,292.0 87.0,291.0 88.0,291.0 89.0,291.0 90.0,290.0 91.0,290.0 92.0,289.0 93.0,289.0 94.0,288.0 95.0,288.0 96.0,288.0 97.0,288.0 98.0,288.0 99.0,287.0 100.0,287.0 101.0,286.0 102.0,286.0 103.0,286.0 104.0,285.0 105.0,285.0 106.0,284.0 107.0,283.0 108.0,282.0 109.0,282.0 110.0,281.0 111.0,280.0 112.0,280.0 113.0,279.0 114.0,278.0 115.0,277.0 116.0,276.0 117.0,275.0 118.0,275.0 119.0,274.0 120.0,274.0 121.0,273.0 122.0,272.0 123.0,271.0 124.0,271.0 125.0,271.0 126.0,271.0 127.0,271.0 128.0,270.0 129.0,270.0 130.0,270.0 131.0,269.0 132.0,269.0 133.0,268.0 134.0,268.0 135.0,267.0 136.0,266.0 137.0,266.0 138.0,266.0 139.0,265.0 140.0,265.0 141.0,264.0 142.0,264.0 143.0,264.0 144.0,263.0 145.0,262.0 146.0,261.0 147.0,260.0 148.0,260.0 149.0,259.0 150.0,259.0 151.0,259.0 152.0,259.0 153.0,258.0 154.0,258.0 155.0,258.0 156.0,257.0 157.0,257.0 158.0,256.0 159.0,256.0 160.0,256.0 161.0,255.0 162.0,255.0 163.0,254.0 164.0,253.0 165.0,252.0 166.0,252.0 167.0,251.0 168.0,251.0 169.0,251.0 170.0,250.0 171.0,250.0 172.0,250.0 173.0,250.0 174.0,250.0 175.0,249.0 176.0,248.0 177.0,247.0 178.0,247.0 179.0,246.0 180.0,246.0 181.0,246.0 182.0,246.0 183.0,246.0 184.0,246.0 185.0,245.0 186.0,245.0 187.0,244.0 188.0,244.0 189.0,244.0 190.0,243.0 191.0,243.0 192.0,243.0 193.0,243.0 194.0,242.0 195.0,241.0 196.0,241.0 197.0,241.0 198.0,241.0 199.0,240.0 200.0,240.0 201.0,240.0 202.0,239.0 203.0,238.0 204.0,238.0 205.0,237.0 206.0,237.0 207.0,237.0 208.0,236.0 209.0,235.0 210.0,235.0 211.0,234.0 212.0,234.0 213.0,233.0 214.0,233.0 215.0,231.0 216.0,230.0 217.0,230.0 218.0,230.0 219.0,230.0 220.0,230.0 221.0,229.0 222.0,228.0 223.0,228.0 224.0,227.0 225.0,227.0 226.0,227.0 227.0,227.0 228.0,226.0 229.0,225.0 230.0,225.0 231.0,224.0 232.0,223.0 233.0,223.0 234.0,222.0 235.0,222.0 236.0,221.0 237.0,221.0 238.0,220.0 239.0,220.0 240.0,220.0 241.0,219.0 242.0,219.0 243.0,218.0 244.0,218.0 245.0,218.0 246.0,217.0 247.0,217.0 248.0,216.0 249.0,216.0 250.0,216.0 251.0,215.0 252.0,214.0 253.0,214.0 254.0,213.0 255.0,212.0 256.0,212.0 257.0,211.0 258.0,210.0 259.0,210.0 260.0,209.0 261.0,208.0 262.0,207.0 263.0,207.0 264.0,206.0 265.0,206.0 266.0,205.0 267.0,205.0 268.0,204.0 269.0,204.0 270.0,203.0 271.0,203.0 272.0,202.0 273.0,202.0 274.0,202.0 275.0,201.0 276.0,201.0 277.0,201.0 278.0,200.0 279.0,200.0 280.0,200.0 281.0,199.0 282.0,199.0 283.0,199.0 284.0,198.0 285.0,198.0 286.0,197.0 287.0,197.0 288.0,196.0 289.0,196.0 290.0,195.0 291.0,195.0 292.0,194.0 293.0,194.0 294.0,194.0 295.0,193.0 296.0,193.0 297.0,192.0 298.0,192.0 299.0,192.0 300.0,191.0 301.0,190.0 302.0,190.0 303.0,189.0 304.0,189.0 305.0,188.0 306.0,188.0 307.0,187.0 308.0,187.0 309.0,186.0 310.0,186.0 311.0,185.0 312.0,185.0 313.0,184.0 314.0,183.0 315.0,182.0 316.0,182.0 317.0,181.0 318.0,181.0 319.0,180.0 320.0,180.0 321.0,179.0 322.0,179.0 323.0,179.0 324.0,178.0 325.0,178.0 326.0,178.0 327.0,178.0 328.0,177.0 329.0,177.0 330.0,177.0 331.0,176.0 332.0,176.0 333.0,175.0 334.0,174.0 335.0,173.0 336.0,172.0 337.0,172.0 338.0,171.0 339.0,171.0 340.0,170.0 341.0,170.0 342.0,170.0 343.0,169.0 344.0,169.0 345.0,168.0 346.0,167.0 347.0,167.0 348.0,167.0 349.0,167.0 350.0,167.0 351.0,166.0 352.0,166.0 353.0,165.0 354.0,164.0 355.0,164.0 356.0,164.0 357.0,164.0 358.0,164.0 359.0,163.0 360.0,163.0 361.0,162.0 362.0,161.0 363.0,162.0 364.0,161.0 365.0,161.0 366.0,160.0 367.0,159.0 368.0,159.0 369.0,158.0 370.0,158.0 371.0,158.0 372.0,157.0 373.0,157.0 374.0,157.0 375.0,156.0 376.0,156.0 377.0,156.0 378.0,156.0 379.0,155.0 380.0,154.0 381.0,154.0 382.0,153.0 383.0,153.0 384.0,152.0 385.0,151.0 386.0,151.0 387.0,150.0 388.0,149.0 389.0,149.0 390.0,148.0 391.0,148.0 392.0,147.0 393.0,147.0 394.0,146.0 395.0,146.0 396.0,146.0 397.0,146.0 398.0,145.0 399.0,145.0 400.0,144.0 401.0,144.0 402.0,143.0 403.0,143.0 404.0,143.0 405.0,142.0 406.0,141.0 407.0,141.0 408.0,141.0 409.0,140.0 410.0,140.0 411.0,139.0 412.0,139.0 413.0,138.0 414.0,138.0 415.0,137.0 416.0,137.0 417.0,137.0 418.0,136.0 419.0,136.0 420.0,135.0 421.0,134.0 422.0,134.0 423.0,133.0 424.0,133.0 425.0,133.0 426.0,131.0 427.0,131.0 428.0,131.0 429.0,131.0 430.0,131.0 431.0,130.0 432.0,130.0 433.0,129.0 434.0,128.0 435.0,128.0 436.0,127.0 437.0,127.0 438.0,127.0 439.0,126.0 440.0,126.0 441.0,125.0 442.0,125.0 443.0,125.0 444.0,125.0 445.0,125.0 446.0,124.0 447.0,124.0 448.0,123.0 449.0,123.0 450.0,123.0 451.0,123.0 452.0,122.0 453.0,122.0 454.0,122.0 455.0,121.0 456.0,121.0 457.0,121.0 458.0,120.0 459.0,120.0 460.0,119.0 461.0,118.0 462.0,117.0 463.0,117.0 464.0,116.0 465.0,116.0 466.0,116.0 467.0,115.0 468.0,115.0 469.0,114.0 470.0,113.0 471.0,113.0 472.0,112.0 473.0,112.0 474.0,112.0 475.0,112.0 476.0,112.0 477.0,111.0 478.0,110.0 479.0,110.0 480.0,109.0 481.0,109.0 482.0,109.0 483.0,108.0 484.0,108.0 485.0,107.0 486.0,107.0 487.0,107.0 488.0,106.0 489.0,105.0 490.0,104.0 491.0,102.0 492.0,101.0 493.0,100.0 494.0,99.0 495.0,99.0 496.0,98.0 497.0,98.0 498.0,97.0 499.0,97.0 500.0,97.0 501.0,97.0 502.0,97.0 503.0,96.0 504.0,96.0 505.0,95.0 506.0,93.0 507.0,92.0 508.0,92.0 509.0,91.0 510.0,90.0 511.0,90.0 512.0,89.0 513.0,89.0 514.0,88.0 515.0,87.0 516.0,87.0 517.0,86.0 518.0,86.0 519.0,86.0 520.0,85.0 521.0,85.0 522.0,85.0 523.0,84.0 524.0,84.0 525.0,83.0 526.0,83.0 527.0,83.0 528.0,83.0 529.0,83.0 530.0,83.0 531.0,82.0 532.0,81.0 533.0,81.0 534.0,80.0 535.0,80.0 536.0,80.0 537.0,79.0 538.0,79.0 539.0,78.0 540.0,78.0 541.0,77.0 542.0,77.0 543.0,77.0 544.0,76.0 545.0,75.0 546.0,74.0 547.0,74.0 548.0,74.0 549.0,74.0 550.0,74.0 551.0,72.0 552.0,71.0 553.0,70.0 554.0,69.0 555.0,69.0 556.0,68.0 557.0,67.0 558.0,67.0 559.0,66.0 560.0,65.0 561.0,65.0 562.0,64.0 563.0,64.0 564.0,63.0 565.0,63.0 566.0,62.0 567.0,59.0 568.0,60.0 569.0,60.0 570.0,59.0 571.0,59.0 572.0,58.0 573.0,58.0 574.0,57.0 575.0,57.0 576.0,57.0 577.0,57.0 578.0,57.0 579.0,56.0 580.0,56.0 581.0,55.0 582.0,55.0 583.0,55.0 584.0,55.0 585.0,54.0 586.0,54.0 587.0,54.0 588.0,53.0 589.0,52.0 590.0,52.0 591.0,51.0 592.0,51.0 593.0,51.0 594.0,51.0 595.0,50.0 596.0,50.0 597.0,50.0 598.0,49.0 599.0,48.0 600.0,47.0 601.0,46.0 602.0,45.0 603.0,45.0 604.0,44.0 605.0,44.0 606.0,43.0 607.0,43.0 608.0,42.0 609.0,41.0 610.0,41.0 611.0,41.0 612.0,40.0 613.0,40.0 614.0,40.0 615.0,39.0 616.0,39.0 617.0,39.0 618.0,38.0 619.0,38.0 620.0,39.0 621.0,38.0 622.0,37.0 623.0,37.0 624.0,36.0 625.0,36.0 626.0,36.0 627.0,35.0 628.0,34.0 629.0,33.0 630.0,32.0 631.0,32.0 632.0,31.0 633.0,32.0 634.0,31.0 635.0,31.0 636.0,30.0 637.0,30.0 638.0,29.0 639.0,29.0 640.0,29.0 641.0,29.0 642.0,26.0 643.0,26.0 644.0,24.0 645.0,25.0 646.0,24.0 647.0,24.0 648.0,23.0 649.0,23.0 650.0,22.0 651.0,22.0 652.0,21.0 653.0,21.0 654.0,21.0" fill="none" stroke="#d0d000" />
	<polyline points="55.0,305.0 56.0,305.0 57.0,305.0 58.0,305.0 59.0,305.0 60.0,305.0 61.0,305.0 62.0,304.0 63.0,304.0 64.0,304.0 65.0,304.0 66.0,304.0 67.0,304.0 68.0,303.0 69.0,303.0 70.0,302.0 71.0,302.0 72.0,301.0 73.0,300.0 74.0,299.0 75.0,299.0 76.0,298.0 77.0,297.0 78.0,296.0 79.0,296.0 80.0,295.0 81.0,295.0 82.0,294.0 83.0,294.0 84.0,293.0 85.0,292.0 86.0,292.0 87.0,292.0 88.0,291.0 89.0,291.0 90.0,290.0 91.0,290.0 92.0,289.0 93.0,289.0 94.0,288.0 95.0,288.0 96.0,288.0 97.0,287.0 98.0,287.0 99.0,286.0 100.0,286.0 101.0,285.0 102.0,284.0 103.0,284.0 104.0,283.0 105.0,282.0 106.0,282.0 107.0,281.0 108.0,281.0 109.0,280.0 110.0,280.0 111.0,279.0 112.0,278.0 113.0,278.0 114.0,277.0 115.0,276.0 116.0,276.0 117.0,276.0 118.0,275.0 119.0,274.0 120.0,274.0 121.0,274.0 122.0,273.0 123.0,273.0 124.0,273.0 125.0,272.0 126.0,272.0 127.0,271.0 128.0,271.0 129.0,270.0 130.0,270.0 131.0,269.0 132.0,269.0 133.0,269.0 134.0,268.0 135.0,268.0 136.0,268.0 137.0,267.0 138.0,267.0 139.0,267.0 140.0,266.0 141.0,266.0 142.0,265.0 143.0,264.0 144.0,264.0 145.0,263.0 146.0,263.0 147.0,262.0 148.0,262.0 149.0,261.0 150.0,260.0 151.0,260.0 152.0,259.0 153.0,258.0 154.0,258.0 155.0,258.0 156.0,258.0 157.0,257.0 158.0,257.0 159.0,257.0 160.0,257.0 161.0,256.0 162.0,256.0 163.0,255.0 164.0,255.0 165.0,255.0 166.0,254.0 167.0,253.0 168.0,253.0 169.0,253.0 170.0,252.0 171.0,252.0 172.0,251.0 173.0,251.0 174.0,251.0 175.0,250.0 176.0,250.0 177.0,249.0 178.0,249.0 179.0,247.0 180.0,246.0 181.0,246.0 182.0,245.0 183.0,245.0 184.0,244.0 185.0,243.0 186.0,243.0 187.0,242.0 188.0,241.0 189.0,241.0 190.0,240.0 191.0,240.0 192.0,239.0 193.0,239.0 194.0,239.0 195.0,238.0 196.0,238.0 197.0,237.0 198.0,236.0 199.0,236.0 200.0,235.0 201.0,235.0 202.0,235.0 203.0,234.0 204.0,234.0 205.0,234.0 206.0,233.0 207.0,233.0 208.0,232.0 209.0,232.0 210.0,232.0 211.0,231.0 212.0,231.0 213.0,230.0 214.0,230.0 215.0,230.0 216.0,229.0 217.0,229.0 218.0,229.0 219.0,228.0 220.0,228.0 221.0,228.0 222.0,227.0 223.0,227.0 224.0,226.0 225.0,225.0 226.0,225.0 227.0,225.0 228.0,224.0 229.0,223.0 230.0,223.0 231.0,223.0 232.0,222.0 233.0,221.0 234.0,221.0 235.0,220.0 236.0,220.0 237.0,219.0 238.0,219.0 239.0,217.0 240.0,217.0 241.0,216.0 242.0,216.0 243.0,216.0 244.0,215.0 245.0,215.0 246.0,214.0 247.0,214.0 248.0,213.0 249.0,213.0 250.0,212.0 251.0,212.0 252.0,211.0 253.0,210.0 254.0,210.0 255.0,209.0 256.0,208.0 257.0,208.0 258.0,208.0 259.0,207.0 260.0,206.0 261.0,206.0 262.0,206.0 263.0,205.0 264.0,205.0 265.0,205.0 266.0,204.0 267.0,204.0 268.0,203.0 269.0,202.0 270.0,202.0 271.0,201.0 272.0,200.0 273.0,199.0 274.0,198.0 275.0,198.0 276.0,197.0 277.0,197.0 278.0,196.0 279.0,196.0 280.0,196.0 281.0,196.0 282.0,195.0 283.0,195.0 284.0,194.0 285.0,193.0 286.0,193.0 287.0,192.0 288.0,192.0 289.0,191.0 290.0,191.0 291.0,191.0 292.0,191.0 293.0,190.0 294.0,190.0 295.0,190.0 296.0,190.0 297.0,189.0 298.0,188.0 299.0,187.0 300.0,187.0 301.0,187.0 302.0,186.0 303.0,186.0 304.0,185.0 305.0,185.0 306.0,184.0 307.0,184.0 308.0,183.0 309.0,183.0 310.0,183.0 311.0,182.0 312.0,181.0 313.0,181.0 314.0,181.0 315.0,180.0 316.0,180.0 317.0,180.0 318.0,179.0 319.0,178.0 320.0,177.0 321.0,176.0 322.0,175.0 323.0,174.0 324.0,173.0 325.0,173.0 326.0,172.0 327.0,172.0 328.0,172.0 329.0,171.0 330.0,170.0 331.0,170.0 332.0,170.0 333.0,169.0 334.0,169.0 335.0,169.0 336.0,168.0 337.0,168.0 338.0,167.0 339.0,167.0 340.0,166.0 341.0,166.0 342.0,165.0 343.0,165.0 344.0,164.0 345.0,164.0 346.0,163.0 347.0,163.0 348.0,162.0 349.0,162.0 350.0,161.0 351.0,160.0 352.0,160.0 353.0,160.0 354.0,159.0 355.0,159.0 356.0,157.0 357.0,157.0 358.0,156.0 359.0,156.0 360.0,155.0 361.0,154.0 362.0,154.0 363.0,153.0 364.0,153.0 365.0,153.0 366.0,152.0 367.0,152.0 368.0,152.0 369.0,151.0 370.0,151.0 371.0,151.0 372.0,150.0 373.0,150.0 374.0,149.0 375.0,149.0 376.0,148.0 377.0,148.0 378.0,147.0 379.0,147.0 380.0,146.0 381.0,146.0 382.0,145.0 383.0,145.0 384.0,144.0 385.0,144.0 386.0,143.0 387.0,143.0 388.0,142.0 389.0,142.0 390.0,141.0 391.0,141.0 392.0,140.0 393.0,140.0 394.0,139.0 395.0,139.0 396.0,138.0 397.0,138.0 398.0,137.0 399.0,137.0 400.0,137.0 401.0,136.0 402.0,136.0 403.0,135.0 404.0,135.0 405.0,134.0 406.0,134.0 407.0,134.0 408.0,133.0 409.0,133.0 410.0,132.0 411.0,132.0 412.0,131.0 413.0,131.0 414.0,131.0 415.0,130.0 416.0,129.0 417.0,129.0 418.0,128.0 419.0,128.0 420.0,127.0 421.0,127.0 422.0,126.0 423.0,126.0 424.0,126.0 425.0,125.0 426.0,125.0 427.0,124.0 428.0,123.0 429.0,122.0 430.0,122.0 431.0,121.0 432.0,120.0 433.0,120.0 434.0,120.0 435.0,119.0 436.0,118.0 437.0,118.0 438.0,118.0 439.0,118.0 440.0,117.0 441.0,116.0 442.0,116.0 443.0,116.0 444.0,115.0 445.0,115.0 446.0,114.0 447.0,114.0 448.0,113.0 449.0,113.0 450.0,112.0 451.0,112.0 452.0,111.0 453.0,111.0 454.0,110.0 455.0,109.0 456.0,109.0 457.0,108.0 458.0,108.0 459.0,107.0 460.0,107.0 461.0,106.0 462.0,106.0 463.0,106.0 464.0,105.0 465.0,105.0 466.0,104.0 467.0,103.0 468.0,103.0 469.0,103.0 470.0,103.0 471.0,102.0 472.0,102.0 473.0,101.0 474.0,101.0 475.0,101.0 476.0,100.0 477.0,100.0 478.0,99.0 479.0,99.0 480.0,98.0 481.0,97.0 482.0,97.0 483.0,96.0 484.0,96.0 485.0,95.0 486.0,94.0 487.0,94.0 488.0,93.0 489.0,92.0 490.0,91.0 491.0,91.0 492.0,90.0 493.0,90.0 494.0,90.0 495.0,89.0 496.0,89.0 497.0,89.0 498.0,88.0 499.0,87.0 500.0,87.0 501.0,86.0 502.0,85.0 503.0,85.0 504.0,84.0 505.0,84.0 506.0,84.0 507.0,83.0 508.0,82.0 509.0,81.0 510.0,80.0 511.0,79.0 512.0,79.0 513.0,78.0 514.0,78.0 515.0,77.0 516.0,77.0 517.0,76.0 518.0,76.0 519.0,75.0 520.0,74.0 521.0,74.0 522.0,74.0 523.0,73.0 524.0,72.0 525.0,72.0 526.0,72.0 527.0,71.0 528.0,71.0 529.0,70.0 530.0,70.0 531.0,70.0 532.0,69.0 533.0,69.0 534.0,69.0 535.0,69.0 536.0,68.0 537.0,67.0 538.0,66.0 539.0,66.0 540.0,66.0 541.0,66.0 542.0,65.0 543.0,64.0 544.0,64.0 545.0,64.0 546.0,63.0 547.0,63.0 548.0,62.0 549.0,62.0 550.0,62.0 551.0,61.0 552.0,60.0 553.0,60.0 554.0,60.0 555.0,60.0 556.0,59.0 557.0,59.0 558.0,59.0 559.0,58.0 560.0,57.0 561.0,57.0 562.0,56.0 563.0,56.0 564.0,55.0 565.0,53.0 566.0,52.0 567.0,52.0 568.0,51.0 569.0,50.0 570.0,50.0 571.0,49.0 572.0,48.0 573.0,48.0 574.0,47.0 575.0,47.0 576.0,47.0 577.0,47.0 578.0,47.0 579.0,46.0 580.0,46.0 581.0,45.0 582.0,45.0 583.0,45.0 584.0,45.0 585.0,44.0 586.0,43.0 587.0,43.0 588.0,43.0 589.0,42.0 590.0,41.0 591.0,40.0 592.0,40.0 593.0,39.0 594.0,39.0 595.0,39.0 596.0,38.0 597.0,38.0 598.0,38.0 599.0,37.0 600.0,37.0 601.0,37.0 602.0,36.0 603.0,35.0 604.0,34.0 605.0,34.0 606.0,33.0 607.0,32.0 608.0,31.0 609.0,31.0 610.0,31.0 611.0,31.0 612.0,31.0 613.0,31.0 614.0,31.0 615.0,31.0 616.0,30.0 617.0,29.0 618.0,28.0 619.0,27.0 620.0,26.0 621.0,25.0 622.0,24.0 623.0,23.0 624.0,22.0 625.0,21.0 626.0,20.0 627.0,20.0 628.0,19.0 629.0,18.0 630.0,18.0 631.0,18.0 632.0,18.0 633.0,17.0 634.0,17.0 635.0,17.0 636.0,16.0 637.0,16.0 638.0,15.0 639.0,15.0 640.0,15.0 641.0,15.0 642.0,15.0 643.0,15.0 644.0,14.0 645.0,13.0 646.0,13.0 647.0,13.0 648.0,13.0 649.0,13.0 650.0,13.0 651.0,12.0 652.0,11.0 653.0,10.0 654.0,9.0" fill="none" stroke="#fb46bc" />
	<polyline points="55.0,305.0 56.0,305.0 57.0,305.0 58.0,305.0 59.0,305.0 60.0,305.0 61.0,305.0 62.0,304.0 63.0,304.0 64.0,304.0 65.0,304.0 66.0,304.0 67.0,304.0 68.0,303.0 69.0,303.0 70.0,302.0 71.0,302.0 72.0,301.0 73.0,300.0 74.0,299.0 75.0,298.0 76.0,298.0 77.0,297.0 78.0,297.0 79.0,296.0 80.0,296.0 81.0,295.0 82.0,294.0 83.0,294.0 84.0,293.0 85.0,293.0 86.0,292.0 87.0,292.0 88.0,291.0 89.0,291.0 90.0,290.0 91.0,290.0 92.0,289.0 93.0,289.0 94.0,288.0 95.0,288.0 96.0,287.0 97.0,287.0 98.0,286.0 99.0,286.0 100.0,285.0 101.0,285.0 102.0,284.0 103.0,284.0 104.0,283.0 105.0,283.0 106.0,282.0 107.0,282.0 108.0,281.0 109.0,281.0 110.0,280.0 111.0,280.0 112.0,280.0 113.0,279.0 114.0,278.0 115.0,278.0 116.0,277.0 117.0,277.0 118.0,276.0 119.0,275.0 120.0,275.0 121.0,275.0 122.0,274.0 123.0,274.0 124.0,274.0 125.0,273.0 126.0,272.0 127.0,271.0 128.0,270.0 129.0,270.0 130.0,269.0 131.0,269.0 132.0,268.0 133.0,268.0 134.0,267.0 135.0,267.0 136.0,266.0 137.0,266.0 138.0,266.0 139.0,265.0 140.0,265.0 141.0,264.0 142.0,264.0 143.0,263.0 144.0,263.0 145.0,262.0 146.0,262.0 147.0,261.0 148.0,261.0 149.0,260.0 150.0,260.0 151.0,260.0 152.0,259.0 153.0,259.0 154.0,258.0 155.0,257.0 156.0,257.0 157.0,257.0 158.0,256.0 159.0,256.0 160.0,256.0 161.0,256.0 162.0,255.0 163.0,255.0 164.0,255.0 165.0,254.0 166.0,254.0 167.0,253.0 168.0,252.0 169.0,252.0 170.0,252.0 171.0,251.0 172.0,251.0 173.0,250.0 174.0,249.0 175.0,249.0 176.0,249.0 177.0,248.0 178.0,248.0 179.0,248.0 180.0,248.0 181.0,247.0 182.0,246.0 183.0,246.0 184.0,246.0 185.0,245.0 186.0,245.0 187.0,244.0 188.0,243.0 189.0,243.0 190.0,242.0 191.0,242.0 192.0,241.0 193.0,241.0 194.0,240.0 195.0,240.0 196.0,239.0 197.0,239.0 198.0,239.0 199.0,238.0 200.0,238.0 201.0,237.0 202.0,237.0 203.0,236.0 204.0,236.0 205.0,235.0 206.0,235.0 207.0,234.0 208.0,234.0 209.0,234.0 210.0,233.0 211.0,233.0 212.0,232.0 213.0,232.0 214.0,231.0 215.0,231.0 216.0,231.0 217.0,230.0 218.0,230.0 219.0,229.0 220.0,228.0 221.0,228.0 222.0,227.0 223.0,227.0 224.0,226.0 225.0,225.0 226.0,225.0 227.0,225.0 228.0,224.0 229.0,224.0 230.0,224.0 231.0,223.0 232.0,223.0 233.0,223.0 234.0,222.0 235.0,222.0 236.0,221.0 237.0,221.0 238.0,221.0 239.0,220.0 240.0,219.0 241.0,219.0 242.0,218.0 243.0,218.0 244.0,218.0 245.0,217.0 246.0,216.0 247.0,216.0 248.0,215.0 249.0,215.0 250.0,214.0 251.0,214.0 252.0,213.0 253.0,213.0 254.0,213.0 255.0,212.0 256.0,212.0 257.0,211.0 258.0,211.0 259.0,210.0 260.0,210.0 261.0,209.0 262.0,209.0 263.0,208.0 264.0,208.0 265.0,208.0 266.0,207.0 267.0,206.0 268.0,206.0 269.0,206.0 270.0,205.0 271.0,204.0 272.0,204.0 273.0,203.0 274.0,203.0 275.0,202.0 276.0,202.0 277.0,201.0 278.0,201.0 279.0,200.0 280.0,200.0 281.0,199.0 282.0,198.0 283.0,198.0 284.0,198.0 285.0,197.0 286.0,196.0 287.0,195.0 288.0,195.0 289.0,195.0 290.0,194.0 291.0,194.0 292.0,193.0 293.0,192.0 294.0,192.0 295.0,192.0 296.0,192.0 297.0,191.0 298.0,190.0 299.0,190.0 300.0,190.0 301.0,190.0 302.0,189.0 303.0,189.0 304.0,189.0 305.0,187.0 306.0,187.0 307.0,186.0 308.0,186.0 309.0,185.0 310.0,185.0 311.0,185.0 312.0,184.0 313.0,184.0 314.0,184.0 315.0,183.0 316.0,182.0 317.0,182.0 318.0,181.0 319.0,181.0 320.0,180.0 321.0,180.0 322.0,179.0 323.0,179.0 324.0,178.0 325.0,178.0 326.0,178.0 327.0,178.0 328.0,177.0 329.0,177.0 330.0,176.0 331.0,176.0 332.0,175.0 333.0,174.0 334.0,174.0 335.0,174.0 336.0,173.0 337.0,173.0 338.0,172.0 339.0,172.0 340.0,171.0 341.0,171.0 342.0,171.0 343.0,170.0 344.0,170.0 345.0,169.0 346.0,169.0 347.0,168.0 348.0,167.0 349.0,166.0 350.0,166.0 351.0,165.0 352.0,165.0 353.0,164.0 354.0,164.0 355.0,163.0 356.0,162.0 357.0,162.0 358.0,161.0 359.0,160.0 360.0,160.0 361.0,160.0 362.0,159.0 363.0,159.0 364.0,159.0 365.0,158.0 366.0,158.0 367.0,158.0 368.0,157.0 369.0,157.0 370.0,156.0 371.0,156.0 372.0,155.0 373.0,155.0 374.0,155.0 375.0,154.0 376.0,153.0 377.0,153.0 378.0,153.0 379.0,152.0 380.0,152.0 381.0,152.0 382.0,151.0 383.0,150.0 384.0,149.0 385.0,149.0 386.0,149.0 387.0,149.0 388.0,148.0 389.0,147.0 390.0,147.0 391.0,147.0 392.0,146.0 393.0,146.0 394.0,145.0 395.0,145.0 396.0,144.0 397.0,144.0 398.0,143.0 399.0,143.0 400.0,143.0 401.0,142.0 402.0,142.0 403.0,141.0 404.0,141.0 405.0,140.0 406.0,140.0 407.0,139.0 408.0,139.0 409.0,139.0 410.0,138.0 411.0,138.0 412.0,137.0 413.0,137.0 414.0,136.0 415.0,136.0 416.0,135.0 417.0,135.0 418.0,135.0 419.0,134.0 420.0,133.0 421.0,133.0 422.0,133.0 423.0,132.0 424.0,132.0 425.0,132.0 426.0,131.0 427.0,131.0 428.0,130.0 429.0,130.0 430.0,130.0 431.0,129.0 432.0,129.0 433.0,129.0 434.0,128.0 435.0,128.0 436.0,127.0 437.0,126.0 438.0,125.0 439.0,125.0 440.0,124.0 441.0,124.0 442.0,123.0 443.0,123.0 444.0,123.0 445.0,122.0 446.0,121.0 447.0,121.0 448.0,120.0 449.0,120.0 450.0,120.0 451.0,119.0 452.0,118.0 453.0,118.0 454.0,117.0 455.0,117.0 456.0,116.0 457.0,116.0 458.0,115.0 459.0,115.0 460.0,115.0 461.0,115.0 462.0,114.0 463.0,114.0 464.0,114.0 465.0,113.0 466.0,113.0 467.0,113.0 468.0,113.0 469.0,112.0 470.0,111.0 471.0,111.0 472.0,110.0 473.0,110.0 474.0,110.0 475.0,109.0 476.0,109.0 477.0,108.0 478.0,108.0 479.0,107.0 480.0,107.0 481.0,107.0 482.0,106.0 483.0,106.0 484.0,106.0 485.0,105.0 486.0,104.0 487.0,104.0 488.0,104.0 489.0,103.0 490.0,103.0 491.0,102.0 492.0,101.0 493.0,101.0 494.0,101.0 495.0,101.0 496.0,101.0 497.0,100.0 498.0,100.0 499.0,99.0 500.0,98.0 501.0,98.0 502.0,97.0 503.0,97.0 504.0,97.0 505.0,96.0 506.0,95.0 507.0,95.0 508.0,94.0 509.0,94.0 510.0,93.0 511.0,92.0 512.0,91.0 513.0,91.0 514.0,91.0 515.0,90.0 516.0,90.0 517.0,90.0 518.0,89.0 519.0,88.0 520.0,87.0 521.0,86.0 522.0,86.0 523.0,85.0 524.0,84.0 525.0,83.0 526.0,82.0 527.0,80.0 528.0,80.0 529.0,79.0 530.0,79.0 531.0,78.0 532.0,78.0 533.0,76.0 534.0,76.0 535.0,75.0 536.0,75.0 537.0,75.0 538.0,74.0 539.0,74.0 540.0,73.0 541.0,73.0 542.0,73.0 543.0,73.0 544.0,72.0 545.0,72.0 546.0,71.0 547.0,71.0 548.0,71.0 549.0,70.0 550.0,70.0 551.0,69.0 552.0,69.0 553.0,69.0 554.0,68.0 555.0,68.0 556.0,68.0 557.0,67.0 558.0,66.0 559.0,66.0 560.0,66.0 561.0,65.0 562.0,65.0 563.0,64.0 564.0,64.0 565.0,64.0 566.0,64.0 567.0,63.0 568.0,62.0 569.0,62.0 570.0,61.0 571.0,60.0 572.0,60.0 573.0,59.0 574.0,59.0 575.0,59.0 576.0,58.0 577.0,58.0 578.0,58.0 579.0,57.0 580.0,57.0 581.0,57.0 582.0,56.0 583.0,56.0 584.0,55.0 585.0,54.0 586.0,53.0 587.0,52.0 588.0,51.0 589.0,50.0 590.0,50.0 591.0,50.0 592.0,49.0 593.0,49.0 594.0,49.0 595.0,48.0 596.0,48.0 597.0,48.0 598.0,47.0 599.0,47.0 600.0,46.0 601.0,46.0 602.0,45.0 603.0,44.0 604.0,43.0 605.0,43.0 606.0,43.0 607.0,42.0 608.0,42.0 609.0,41.0 610.0,41.0 611.0,40.0 612.0,39.0 613.0,39.0 614.0,38.0 615.0,38.0 616.0,37.0 617.0,37.0 618.0,36.0 619.0,35.0 620.0,35.0 621.0,35.0 622.0,34.0 623.0,34.0 624.0,34.0 625.0,33.0 626.0,32.0 627.0,32.0 628.0,32.0 629.0,31.0 630.0,31.0 631.0,30.0 632.0,30.0 633.0,29.0 634.0,29.0 635.0,28.0 636.0,28.0 637.0,27.0 638.0,26.0 639.0,26.0 640.0,26.0 641.0,25.0 642.0,25.0 643.0,24.0 644.0,23.0 645.0,22.0 646.0,22.0 647.0,22.0 648.0,21.0 649.0,21.0 650.0,20.0 651.0,20.0 652.0,19.0 653.0,19.0 654.0,19.0" fill="none" stroke="#0000ff" />
	<polyline points="55.0,305.0 56.0,305.0 57.0,305.0 58.0,305.0 59.0,305.0 60.0,305.0 61.0,304.0 62.0,304.0 63.0,304.0 64.0,304.0 65.0,304.0 66.0,303.0 67.0,303.0 68.0,303.0 69.0,302.0 70.0,301.0 71.0,301.0 72.0,300.0 73.0,299.0 74.0,298.0 75.0,298.0 76.0,298.0 77.0,297.0 78.0,297.0 79.0,296.0 80.0,296.0 81.0,295.0 82.0,295.0 83.0,294.0 84.0,294.0 85.0,293.0 86.0,293.0 87.0,292.0 88.0,292.0 89.0,291.0 90.0,291.0 91.0,290.0 92.0,290.0 93.0,289.0 94.0,289.0 95.0,288.0 96.0,288.0 97.0,287.0 98.0,286.0 99.0,286.0 100.0,286.0 101.0,285.0 102.0,285.0 103.0,285.0 104.0,285.0 105.0,284.0 106.0,283.0 107.0,283.0 108.0,283.0 109.0,282.0 110.0,282.0 111.0,281.0 112.0,280.0 113.0,279.0 114.0,279.0 115.0,278.0 116.0,278.0 117.0,277.0 118.0,277.0 119.0,277.0 120.0,276.0 121.0,275.0 122.0,275.0 123.0,275.0 124.0,274.0 125.0,274.0 126.0,273.0 127.0,273.0 128.0,272.0 129.0,272.0 130.0,272.0 131.0,271.0 132.0,270.0 133.0,270.0 134.0,269.0 135.0,268.0 136.0,267.0 137.0,267.0 138.0,266.0 139.0,265.0 140.0,264.0 141.0,264.0 142.0,263.0 143.0,262.0 144.0,262.0 145.0,261.0 146.0,261.0 147.0,260.0 148.0,260.0 149.0,259.0 150.0,258.0 151.0,258.0 152.0,257.0 153.0,257.0 154.0,257.0 155.0,257.0 156.0,256.0 157.0,256.0 158.0,256.0 159.0,256.0 160.0,255.0 161.0,254.0 162.0,253.0 163.0,253.0 164.0,252.0 165.0,252.0 166.0,252.0 167.0,251.0 168.0,250.0 169.0,250.0 170.0,249.0 171.0,249.0 172.0,248.0 173.0,248.0 174.0,247.0 175.0,247.0 176.0,247.0 177.0,246.0 178.0,246.0 179.0,246.0 180.0,246.0 181.0,245.0 182.0,244.0 183.0,244.0 184.0,243.0 185.0,243.0 186.0,243.0 187.0,242.0 188.0,242.0 189.0,242.0 190.0,241.0 191.0,241.0 192.0,240.0 193.0,239.0 194.0,239.0 195.0,238.0 196.0,238.0 197.0,237.0 198.0,237.0 199.0,237.0 200.0,236.0 201.0,236.0 202.0,236.0 203.0,235.0 204.0,235.0 205.0,234.0 206.0,234.0 207.0,234.0 208.0,233.0 209.0,233.0 210.0,232.0 211.0,232.0 212.0,232.0 213.0,231.0 214.0,230.0 215.0,230.0 216.0,230.0 217.0,229.0 218.0,229.0 219.0,228.0 220.0,228.0 221.0,227.0 222.0,227.0 223.0,226.0 224.0,226.0 225.0,225.0 226.0,224.0 227.0,223.0 228.0,222.0 229.0,221.0 230.0,220.0 231.0,219.0 232.0,218.0 233.0,218.0 234.0,217.0 235.0,217.0 236.0,217.0 237.0,216.0 238.0,216.0 239.0,216.0 240.0,215.0 241.0,215.0 242.0,215.0 243.0,215.0 244.0,215.0 245.0,214.0 246.0,214.0 247.0,213.0 248.0,212.0 249.0,211.0 250.0,211.0 251.0,210.0 252.0,209.0 253.0,209.0 254.0,208.0 255.0,207.0 256.0,207.0 257.0,207.0 258.0,206.0 259.0,206.0 260.0,205.0 261.0,205.0 262.0,205.0 263.0,205.0 264.0,205.0 265.0,204.0 266.0,204.0 267.0,204.0 268.0,204.0 269.0,203.0 270.0,203.0 271.0,202.0 272.0,202.0 273.0,202.0 274.0,202.0 275.0,202.0 276.0,201.0 277.0,200.0 278.0,199.0 279.0,198.0 280.0,197.0 281.0,196.0 282.0,195.0 283.0,195.0 284.0,194.0 285.0,194.0 286.0,192.0 287.0,192.0 288.0,191.0 289.0,190.0 290.0,190.0 291.0,189.0 292.0,189.0 293.0,189.0 294.0,189.0 295.0,188.0 296.0,188.0 297.0,188.0 298.0,187.0 299.0,187.0 300.0,187.0 301.0,186.0 302.0,185.0 303.0,185.0 304.0,185.0 305.0,184.0 306.0,184.0 307.0,184.0 308.0,184.0 309.0,183.0 310.0,183.0 311.0,183.0 312.0,182.0 313.0,181.0 314.0,180.0 315.0,180.0 316.0,179.0 317.0,179.0 318.0,179.0 319.0,178.0 320.0,178.0 321.0,177.0 322.0,177.0 323.0,176.0 324.0,176.0 325.0,175.0 326.0,174.0 327.0,173.0 328.0,172.0 329.0,172.0 330.0,172.0 331.0,172.0 332.0,172.0 333.0,171.0 334.0,170.0 335.0,169.0 336.0,169.0 337.0,168.0 338.0,168.0 339.0,167.0 340.0,167.0 341.0,166.0 342.0,166.0 343.0,165.0 344.0,165.0 345.0,164.0 346.0,164.0 347.0,164.0 348.0,163.0 349.0,163.0 350.0,163.0 351.0,162.0 352.0,162.0 353.0,161.0 354.0,161.0 355.0,160.0 356.0,160.0 357.0,160.0 358.0,159.0 359.0,159.0 360.0,158.0 361.0,158.0 362.0,157.0 363.0,157.0 364.0,156.0 365.0,155.0 366.0,155.0 367.0,155.0 368.0,153.0 369.0,153.0 370.0,152.0 371.0,152.0 372.0,151.0 373.0,150.0 374.0,149.0 375.0,148.0 376.0,147.0 377.0,147.0 378.0,146.0 379.0,146.0 380.0,145.0 381.0,145.0 382.0,144.0 383.0,144.0 384.0,143.0 385.0,142.0 386.0,141.0 387.0,141.0 388.0,141.0 389.0,141.0 390.0,140.0 391.0,140.0 392.0,139.0 393.0,139.0 394.0,138.0 395.0,138.0 396.0,138.0 397.0,137.0 398.0,137.0 399.0,136.0 400.0,136.0 401.0,136.0 402.0,135.0 403.0,135.0 404.0,134.0 405.0,134.0 406.0,134.0 407.0,133.0 408.0,132.0 409.0,132.0 410.0,132.0 411.0,131.0 412.0,131.0 413.0,130.0 414.0,130.0 415.0,129.0 416.0,129.0 417.0,129.0 418.0,128.0 419.0,128.0 420.0,127.0 421.0,126.0 422.0,125.0 423.0,125.0 424.0,124.0 425.0,124.0 426.0,123.0 427.0,123.0 428.0,122.0 429.0,121.0 430.0,121.0 431.0,120.0 432.0,119.0 433.0,118.0 434.0,118.0 435.0,117.0 436.0,116.0 437.0,116.0 438.0,115.0 439.0,115.0 440.0,115.0 441.0,114.0 442.0,114.0 443.0,113.0 444.0,112.0 445.0,112.0 446.0,112.0 447.0,111.0 448.0,111.0 449.0,110.0 450.0,110.0 451.0,110.0 452.0,109.0 453.0,108.0 454.0,108.0 455.0,108.0 456.0,108.0 457.0,108.0 458.0,108.0 459.0,107.0 460.0,107.0 461.0,107.0 462.0,106.0 463.0,105.0 464.0,105.0 465.0,104.0 466.0,103.0 467.0,103.0 468.0,103.0 469.0,102.0 470.0,101.0 471.0,101.0 472.0,101.0 473.0,100.0 474.0,100.0 475.0,100.0 476.0,99.0 477.0,99.0 478.0,98.0 479.0,98.0 480.0,98.0 481.0,97.0 482.0,96.0 483.0,95.0 484.0,95.0 485.0,95.0 486.0,95.0 487.0,94.0 488.0,94.0 489.0,94.0 490.0,93.0 491.0,92.0 492.0,92.0 493.0,91.0 494.0,91.0 495.0,91.0 496.0,91.0 497.0,90.0 498.0,89.0 499.0,89.0 500.0,88.0 501.0,87.0 502.0,87.0 503.0,86.0 504.0,85.0 505.0,85.0 506.0,85.0 507.0,84.0 508.0,84.0 509.0,84.0 510.0,83.0 511.0,82.0 512.0,82.0 513.0,82.0 514.0,81.0 515.0,81.0 516.0,81.0 517.0,80.0 518.0,80.0 519.0,80.0 520.0,79.0 521.0,78.0 522.0,77.0 523.0,77.0 524.0,76.0 525.0,75.0 526.0,75.0 527.0,74.0 528.0,73.0 529.0,73.0 530.0,72.0 531.0,72.0 532.0,72.0 533.0,71.0 534.0,70.0 535.0,70.0 536.0,69.0 537.0,69.0 538.0,69.0 539.0,68.0 540.0,68.0 541.0,67.0 542.0,67.0 543.0,67.0 544.0,66.0 545.0,65.0 546.0,64.0 547.0,64.0 548.0,63.0 549.0,62.0 550.0,62.0 551.0,61.0 552.0,61.0 553.0,60.0 554.0,59.0 555.0,59.0 556.0,59.0 557.0,58.0 558.0,57.0 559.0,57.0 560.0,56.0 561.0,56.0 562.0,55.0 563.0,55.0 564.0,54.0 565.0,54.0 566.0,53.0 567.0,53.0 568.0,53.0 569.0,52.0 570.0,51.0 571.0,50.0 572.0,49.0 573.0,49.0 574.0,48.0 575.0,48.0 576.0,47.0 577.0,46.0 578.0,46.0 579.0,45.0 580.0,44.0 581.0,44.0 582.0,44.0 583.0,43.0 584.0,42.0 585.0,42.0 586.0,42.0 587.0,41.0 588.0,41.0 589.0,40.0 590.0,39.0 591.0,39.0 592.0,38.0 593.0,38.0 594.0,38.0 595.0,38.0 596.0,37.0 597.0,37.0 598.0,36.0 599.0,36.0 600.0,36.0 601.0,36.0 602.0,35.0 603.0,35.0 604.0,34.0 605.0,34.0 606.0,34.0 607.0,33.0 608.0,32.0 609.0,32.0 610.0,31.0 611.0,30.0 612.0,29.0 613.0,28.0 614.0,28.0 615.0,27.0 616.0,26.0 617.0,26.0 618.0,25.0 619.0,25.0 620.0,24.0 621.0,23.0 622.0,22.0 623.0,21.0 624.0,21.0 625.0,20.0 626.0,19.0 627.0,19.0 628.0,19.0 629.0,18.0 630.0,18.0 631.0,18.0 632.0,17.0 633.0,16.0 634.0,16.0 635.0,15.0 636.0,15.0 637.0,14.0 638.0,13.0 639.0,13.0 640.0,13.0 641.0,12.0 642.0,12.0 643.0,11.0 644.0,10.0 645.0,10.0 646.0,10.0 647.0,9.0 648.0,8.0 649.0,8.0 650.0,8.0 651.0,7.0 652.0,7.0 653.0,7.0 654.0,7.0" fill="none" stroke="#00bfff" />
	<polyline points="55.0,305.0 56.0,305.0 57.0,305.0 58.0,305.0 59.0,305.0 60.0,305.0 61.0,305.0 62.0,305.0 63.0,304.0 64.0,304.0 65.0,304.0 66.0,304.0 67.0,304.0 68.0,304.0 69.0,303.0 70.0,303.0 71.0,302.0 72.0,301.0 73.0,301.0 74.0,300.0 75.0,299.0 76.0,298.0 77.0,297.0 78.0,296.0 79.0,296.0 80.0,295.0 81.0,295.0 82.0,294.0 83.0,294.0 84.0,293.0 85.0,293.0 86.0,293.0 87.0,292.0 88.0,292.0 89.0,291.0 90.0,291.0 91.0,290.0 92.0,290.0 93.0,289.0 94.0,289.0 95.0,289.0 96.0,288.0 97.0,288.0 98.0,287.0 99.0,287.0 100.0,287.0 101.0,286.0 102.0,285.0 103.0,285.0 104.0,285.0 105.0,284.0 106.0,284.0 107.0,283.0 108.0,283.0 109.0,283.0 110.0,282.0 111.0,281.0 112.0,281.0 113.0,280.0 114.0,280.0 115.0,279.0 116.0,278.0 117.0,277.0 118.0,277.0 119.0,276.0 120.0,276.0 121.0,275.0 122.0,274.0 123.0,274.0 124.0,273.0 125.0,272.0 126.0,272.0 127.0,271.0 128.0,271.0 129.0,270.0 130.0,269.0 131.0,269.0 132.0,268.0 133.0,268.0 134.0,267.0 135.0,266.0 136.0,266.0 137.0,265.0 138.0,265.0 139.0,264.0 140.0,263.0 141.0,262.0 142.0,262.0 143.0,262.0 144.0,261.0 145.0,261.0 146.0,261.0 147.0,261.0 148.0,261.0 149.0,260.0 150.0,260.0 151.0,259.0 152.0,259.0 153.0,259.0 154.0,258.0 155.0,258.0 156.0,258.0 157.0,258.0 158.0,258.0 159.0,257.0 160.0,257.0 161.0,257.0 162.0,257.0 163.0,256.0 164.0,256.0 165.0,256.0 166.0,255.0 167.0,255.0 168.0,254.0 169.0,253.0 170.0,253.0 171.0,253.0 172.0,252.0 173.0,251.0 174.0,251.0 175.0,251.0 176.0,250.0 177.0,249.0 178.0,249.0 179.0,248.0 180.0,248.0 181.0,247.0 182.0,246.0 183.0,246.0 184.0,245.0 185.0,245.0 186.0,244.0 187.0,244.0 188.0,243.0 189.0,243.0 190.0,243.0 191.0,243.0 192.0,242.0 193.0,242.0 194.0,241.0 195.0,241.0 196.0,240.0 197.0,239.0 198.0,239.0 199.0,238.0 200.0,238.0 201.0,237.0 202.0,237.0 203.0,236.0 204.0,235.0 205.0,235.0 206.0,234.0 207.0,234.0 208.0,233.0 209.0,232.0 210.0,232.0 211.0,231.0 212.0,231.0 213.0,230.0 214.0,230.0 215.0,229.0 216.0,228.0 217.0,227.0 218.0,227.0 219.0,227.0 220.0,226.0 221.0,225.0 222.0,225.0 223.0,224.0 224.0,224.0 225.0,223.0 226.0,223.0 227.0,222.0 228.0,221.0 229.0,221.0 230.0,220.0 231.0,220.0 232.0,219.0 233.0,219.0 234.0,219.0 235.0,218.0 236.0,218.0 237.0,217.0 238.0,217.0 239.0,217.0 240.0,216.0 241.0,216.0 242.0,216.0 243.0,216.0 244.0,215.0 245.0,215.0 246.0,214.0 247.0,214.0 248.0,213.0 249.0,213.0 250.0,212.0 251.0,211.0 252.0,211.0 253.0,210.0 254.0,210.0 255.0,209.0 256.0,209.0 257.0,208.0 258.0,208.0 259.0,207.0 260.0,207.0 261.0,206.0 262.0,205.0 263.0,205.0 264.0,204.0 265.0,204.0 266.0,204.0 267.0,203.0 268.0,203.0 269.0,203.0 270.0,203.0 271.0,202.0 272.0,202.0 273.0,201.0 274.0,201.0 275.0,200.0 276.0,199.0 277.0,198.0 278.0,197.0 279.0,196.0 280.0,196.0 281.0,195.0 282.0,194.0 283.0,194.0 284.0,194.0 285.0,193.0 286.0,192.0 287.0,192.0 288.0,191.0 289.0,190.0 290.0,189.0 291.0,189.0 292.0,189.0 293.0,188.0 294.0,187.0 295.0,187.0 296.0,186.0 297.0,186.0 298.0,185.0 299.0,184.0 300.0,184.0 301.0,184.0 302.0,183.0 303.0,182.0 304.0,181.0 305.0,181.0 306.0,180.0 307.0,180.0 308.0,179.0 309.0,179.0 310.0,178.0 311.0,178.0 312.0,177.0 313.0,177.0 314.0,177.0 315.0,176.0 316.0,176.0 317.0,175.0 318.0,174.0 319.0,174.0 320.0,173.0 321.0,172.0 322.0,172.0 323.0,171.0 324.0,171.0 325.0,171.0 326.0,171.0 327.0,171.0 328.0,170.0 329.0,170.0 330.0,169.0 331.0,170.0 332.0,169.0 333.0,169.0 334.0,169.0 335.0,168.0 336.0,168.0 337.0,167.0 338.0,166.0 339.0,165.0 340.0,165.0 341.0,164.0 342.0,164.0 343.0,163.0 344.0,162.0 345.0,162.0 346.0,162.0 347.0,162.0 348.0,161.0 349.0,160.0 350.0,160.0 351.0,160.0 352.0,160.0 353.0,160.0 354.0,160.0 355.0,160.0 356.0,160.0 357.0,159.0 358.0,159.0 359.0,158.0 360.0,157.0 361.0,157.0 362.0,157.0 363.0,157.0 364.0,157.0 365.0,157.0 366.0,156.0 367.0,156.0 368.0,155.0 369.0,154.0 370.0,153.0 371.0,152.0 372.0,152.0 373.0,151.0 374.0,151.0 375.0,151.0 376.0,150.0 377.0,150.0 378.0,149.0 379.0,149.0 380.0,149.0 381.0,148.0 382.0,148.0 383.0,147.0 384.0,147.0 385.0,146.0 386.0,146.0 387.0,145.0 388.0,144.0 389.0,143.0 390.0,143.0 391.0,142.0 392.0,142.0 393.0,142.0 394.0,141.0 395.0,141.0 396.0,141.0 397.0,140.0 398.0,140.0 399.0,139.0 400.0,139.0 401.0,138.0 402.0,138.0 403.0,137.0 404.0,137.0 405.0,136.0 406.0,136.0 407.0,134.0 408.0,132.0 409.0,132.0 410.0,132.0 411.0,131.0 412.0,131.0 413.0,130.0 414.0,130.0 415.0,129.0 416.0,128.0 417.0,128.0 418.0,127.0 419.0,126.0 420.0,126.0 421.0,126.0 422.0,125.0 423.0,125.0 424.0,124.0 425.0,123.0 426.0,123.0 427.0,123.0 428.0,122.0 429.0,122.0 430.0,121.0 431.0,120.0 432.0,120.0 433.0,120.0 434.0,119.0 435.0,119.0 436.0,119.0 437.0,118.0 438.0,118.0 439.0,118.0 440.0,118.0 441.0,117.0 442.0,117.0 443.0,116.0 444.0,115.0 445.0,115.0 446.0,115.0 447.0,114.0 448.0,113.0 449.0,113.0 450.0,112.0 451.0,111.0 452.0,111.0 453.0,111.0 454.0,110.0 455.0,110.0 456.0,109.0 457.0,109.0 458.0,109.0 459.0,109.0 460.0,108.0 461.0,107.0 462.0,107.0 463.0,106.0 464.0,106.0 465.0,105.0 466.0,105.0 467.0,104.0 468.0,103.0 469.0,102.0 470.0,102.0 471.0,102.0 472.0,101.0 473.0,100.0 474.0,100.0 475.0,99.0 476.0,99.0 477.0,98.0 478.0,98.0 479.0,97.0 480.0,96.0 481.0,96.0 482.0,95.0 483.0,94.0 484.0,93.0 485.0,93.0 486.0,92.0 487.0,91.0 488.0,91.0 489.0,90.0 490.0,90.0 491.0,90.0 492.0,89.0 493.0,88.0 494.0,88.0 495.0,88.0 496.0,88.0 497.0,88.0 498.0,87.0 499.0,87.0 500.0,86.0 501.0,86.0 502.0,85.0 503.0,85.0 504.0,85.0 505.0,84.0 506.0,84.0 507.0,83.0 508.0,83.0 509.0,82.0 510.0,81.0 511.0,81.0 512.0,80.0 513.0,80.0 514.0,80.0 515.0,79.0 516.0,79.0 517.0,79.0 518.0,79.0 519.0,79.0 520.0,78.0 521.0,78.0 522.0,77.0 523.0,77.0 524.0,75.0 525.0,74.0 526.0,73.0 527.0,73.0 528.0,72.0 529.0,71.0 530.0,70.0 531.0,70.0 532.0,70.0 533.0,69.0 534.0,69.0 535.0,68.0 536.0,68.0 537.0,67.0 538.0,67.0 539.0,66.0 540.0,66.0 541.0,66.0 542.0,65.0 543.0,65.0 544.0,65.0 545.0,64.0 546.0,63.0 547.0,63.0 548.0,62.0 549.0,61.0 550.0,61.0 551.0,60.0 552.0,60.0 553.0,60.0 554.0,59.0 555.0,59.0 556.0,58.0 557.0,57.0 558.0,56.0 559.0,55.0 560.0,54.0 561.0,53.0 562.0,53.0 563.0,52.0 564.0,51.0 565.0,51.0 566.0,50.0 567.0,50.0 568.0,49.0 569.0,49.0 570.0,48.0 571.0,48.0 572.0,48.0 573.0,48.0 574.0,48.0 575.0,47.0 576.0,46.0 577.0,46.0 578.0,45.0 579.0,45.0 580.0,44.0 581.0,44.0 582.0,43.0 583.0,43.0 584.0,43.0 585.0,43.0 586.0,43.0 587.0,43.0 588.0,42.0 589.0,42.0 590.0,42.0 591.0,41.0 592.0,40.0 593.0,40.0 594.0,40.0 595.0,39.0 596.0,38.0 597.0,38.0 598.0,37.0 599.0,37.0 600.0,36.0 601.0,36.0 602.0,36.0 603.0,35.0 604.0,34.0 605.0,33.0 606.0,33.0 607.0,33.0 608.0,32.0 609.0,32.0 610.0,31.0 611.0,31.0 612.0,31.0 613.0,30.0 614.0,29.0 615.0,29.0 616.0,28.0 617.0,28.0 618.0,27.0 619.0,26.0 620.0,26.0 621.0,25.0 622.0,24.0 623.0,24.0 624.0,23.0 625.0,23.0 626.0,22.0 627.0,22.0 628.0,21.0 629.0,21.0 630.0,21.0 631.0,21.0 632.0,21.0 633.0,21.0 634.0,20.0 635.0,20.0 636.0,20.0 637.0,20.0 638.0,20.0 639.0,20.0 640.0,20.0 641.0,19.0 642.0,19.0 643.0,18.0 644.0,17.0 645.0,16.0 646.0,14.0 647.0,14.0 648.0,13.0 649.0,13.0 650.0,12.0 651.0,12.0 652.0,11.0 653.0,10.0 654.0,10.0" fill="none" stroke="#4876ff" />
	<polyline points="55.0,305.0 56.0,305.0 57.0,305.0 58.0,305.0 59.0,305.0 60.0,305.0 61.0,304.0 62.0,304.0 63.0,304.0 64.0,304.0 65.0,304.0 66.0,304.0 67.0,303.0 68.0,303.0 69.0,303.0 70.0,302.0 71.0,301.0 72.0,301.0 73.0,300.0 74.0,299.0 75.0,299.0 76.0,298.0 77.0,298.0 78.0,297.0 79.0,297.0 80.0,296.0 81.0,295.0 82.0,295.0 83.0,294.0 84.0,294.0 85.0,293.0 86.0,293.0 87.0,292.0 88.0,292.0 89.0,292.0 90.0,291.0 91.0,290.0 92.0,290.0 93.0,289.0 94.0,289.0 95.0,288.0 96.0,288.0 97.0,287.0 98.0,286.0 99.0,286.0 100.0,285.0 101.0,285.0 102.0,284.0 103.0,284.0 104.0,283.0 105.0,282.0 106.0,282.0 107.0,281.0 108.0,281.0 109.0,281.0 110.0,281.0 111.0,280.0 112.0,280.0 113.0,280.0 114.0,279.0 115.0,279.0 116.0,278.0 117.0,277.0 118.0,277.0 119.0,277.0 120.0,276.0 121.0,276.0 122.0,275.0 123.0,275.0 124.0,274.0 125.0,273.0 126.0,273.0 127.0,272.0 128.0,272.0 129.0,271.0 130.0,271.0 131.0,271.0 132.0,271.0 133.0,271.0 134.0,270.0 135.0,269.0 136.0,269.0 137.0,268.0 138.0,268.0 139.0,268.0 140.0,267.0 141.0,266.0 142.0,266.0 143.0,265.0 144.0,264.0 145.0,263.0 146.0,263.0 147.0,262.0 148.0,262.0 149.0,261.0 150.0,261.0 151.0,260.0 152.0,260.0 153.0,260.0 154.0,259.0 155.0,258.0 156.0,258.0 157.0,257.0 158.0,256.0 159.0,256.0 160.0,256.0 161.0,255.0 162.0,254.0 163.0,254.0 164.0,253.0 165.0,253.0 166.0,252.0 167.0,252.0 168.0,251.0 169.0,250.0 170.0,250.0 171.0,249.0 172.0,249.0 173.0,249.0 174.0,249.0 175.0,248.0 176.0,248.0 177.0,248.0 178.0,247.0 179.0,247.0 180.0,247.0 181.0,246.0 182.0,245.0 183.0,245.0 184.0,245.0 185.0,244.0 186.0,244.0 187.0,243.0 188.0,242.0 189.0,241.0 190.0,241.0 191.0,241.0 192.0,240.0 193.0,239.0 194.0,239.0 195.0,238.0 196.0,237.0 197.0,237.0 198.0,237.0 199.0,236.0 200.0,236.0 201.0,235.0 202.0,235.0 203.0,235.0 204.0,235.0 205.0,234.0 206.0,234.0 207.0,233.0 208.0,233.0 209.0,233.0 210.0,233.0 211.0,233.0 212.0,233.0 213.0,232.0 214.0,230.0 215.0,229.0 216.0,229.0 217.0,229.0 218.0,228.0 219.0,228.0 220.0,228.0 221.0,227.0 222.0,227.0 223.0,226.0 224.0,226.0 225.0,225.0 226.0,224.0 227.0,224.0 228.0,223.0 229.0,223.0 230.0,222.0 231.0,222.0 232.0,221.0 233.0,220.0 234.0,220.0 235.0,219.0 236.0,218.0 237.0,217.0 238.0,217.0 239.0,216.0 240.0,216.0 241.0,216.0 242.0,216.0 243.0,215.0 244.0,215.0 245.0,215.0 246.0,214.0 247.0,214.0 248.0,214.0 249.0,213.0 250.0,213.0 251.0,212.0 252.0,212.0 253.0,212.0 254.0,212.0 255.0,211.0 256.0,211.0 257.0,210.0 258.0,210.0 259.0,209.0 260.0,209.0 261.0,209.0 262.0,209.0 263.0,209.0 264.0,208.0 265.0,208.0 266.0,207.0 267.0,207.0 268.0,207.0 269.0,206.0 270.0,205.0 271.0,205.0 272.0,204.0 273.0,203.0 274.0,202.0 275.0,201.0 276.0,200.0 277.0,199.0 278.0,199.0 279.0,198.0 280.0,197.0 281.0,197.0 282.0,196.0 283.0,196.0 284.0,195.0 285.0,194.0 286.0,194.0 287.0,194.0 288.0,193.0 289.0,193.0 290.0,192.0 291.0,192.0 292.0,191.0 293.0,191.0 294.0,190.0 295.0,190.0 296.0,189.0 297.0,189.0 298.0,188.0 299.0,188.0 300.0,188.0 301.0,187.0 302.0,186.0 303.0,186.0 304.0,185.0 305.0,185.0 306.0,184.0 307.0,184.0 308.0,183.0 309.0,183.0 310.0,182.0 311.0,182.0 312.0,182.0 313.0,181.0 314.0,181.0 315.0,181.0 316.0,180.0 317.0,179.0 318.0,178.0 319.0,178.0 320.0,177.0 321.0,176.0 322.0,176.0 323.0,175.0 324.0,175.0 325.0,174.0 326.0,174.0 327.0,173.0 328.0,173.0 329.0,172.0 330.0,172.0 331.0,172.0 332.0,171.0 333.0,171.0 334.0,170.0 335.0,170.0 336.0,169.0 337.0,169.0 338.0,168.0 339.0,168.0 340.0,168.0 341.0,168.0 342.0,167.0 343.0,167.0 344.0,167.0 345.0,166.0 346.0,166.0 347.0,166.0 348.0,165.0 349.0,165.0 350.0,164.0 351.0,164.0 352.0,163.0 353.0,163.0 354.0,162.0 355.0,162.0 356.0,161.0 357.0,161.0 358.0,160.0 359.0,160.0 360.0,159.0 361.0,158.0 362.0,158.0 363.0,157.0 364.0,157.0 365.0,156.0 366.0,156.0 367.0,155.0 368.0,154.0 369.0,154.0 370.0,153.0 371.0,152.0 372.0,152.0 373.0,151.0 374.0,151.0 375.0,151.0 376.0,150.0 377.0,150.0 378.0,149.0 379.0,149.0 380.0,149.0 381.0,148.0 382.0,148.0 383.0,147.0 384.0,147.0 385.0,147.0 386.0,146.0 387.0,146.0 388.0,146.0 389.0,145.0 390.0,144.0 391.0,144.0 392.0,144.0 393.0,143.0 394.0,142.0 395.0,141.0 396.0,141.0 397.0,141.0 398.0,141.0 399.0,141.0 400.0,141.0 401.0,140.0 402.0,140.0 403.0,140.0 404.0,139.0 405.0,139.0 406.0,138.0 407.0,138.0 408.0,137.0 409.0,137.0 410.0,137.0 411.0,136.0 412.0,135.0 413.0,135.0 414.0,134.0 415.0,134.0 416.0,133.0 417.0,133.0 418.0,132.0 419.0,132.0 420.0,131.0 421.0,130.0 422.0,130.0 423.0,129.0 424.0,128.0 425.0,128.0 426.0,128.0 427.0,127.0 428.0,127.0 429.0,127.0 430.0,126.0 431.0,126.0 432.0,125.0 433.0,124.0 434.0,124.0 435.0,124.0 436.0,123.0 437.0,123.0 438.0,123.0 439.0,122.0 440.0,121.0 441.0,121.0 442.0,120.0 443.0,120.0 444.0,119.0 445.0,118.0 446.0,117.0 447.0,117.0 448.0,116.0 449.0,116.0 450.0,116.0 451.0,115.0 452.0,114.0 453.0,114.0 454.0,114.0 455.0,113.0 456.0,113.0 457.0,113.0 458.0,113.0 459.0,112.0 460.0,112.0 461.0,111.0 462.0,111.0 463.0,110.0 464.0,109.0 465.0,108.0 466.0,108.0 467.0,107.0 468.0,107.0 469.0,105.0 470.0,105.0 471.0,105.0 472.0,104.0 473.0,104.0 474.0,103.0 475.0,103.0 476.0,102.0 477.0,102.0 478.0,101.0 479.0,101.0 480.0,101.0 481.0,101.0 482.0,100.0 483.0,100.0 484.0,99.0 485.0,98.0 486.0,97.0 487.0,97.0 488.0,97.0 489.0,96.0 490.0,96.0 491.0,95.0 492.0,95.0 493.0,94.0 494.0,94.0 495.0,93.0 496.0,93.0 497.0,92.0 498.0,92.0 499.0,92.0 500.0,92.0 501.0,92.0 502.0,91.0 503.0,90.0 504.0,90.0 505.0,89.0 506.0,89.0 507.0,89.0 508.0,89.0 509.0,89.0 510.0,88.0 511.0,88.0 512.0,87.0 513.0,87.0 514.0,87.0 515.0,86.0 516.0,86.0 517.0,86.0 518.0,86.0 519.0,86.0 520.0,85.0 521.0,85.0 522.0,85.0 523.0,84.0 524.0,83.0 525.0,83.0 526.0,82.0 527.0,82.0 528.0,81.0 529.0,81.0 530.0,81.0 531.0,80.0 532.0,80.0 533.0,79.0 534.0,79.0 535.0,79.0 536.0,78.0 537.0,77.0 538.0,76.0 539.0,76.0 540.0,75.0 541.0,74.0 542.0,74.0 543.0,73.0 544.0,73.0 545.0,73.0 546.0,73.0 547.0,73.0 548.0,72.0 549.0,72.0 550.0,72.0 551.0,72.0 552.0,71.0 553.0,71.0 554.0,69.0 555.0,68.0 556.0,67.0 557.0,66.0 558.0,65.0 559.0,65.0 560.0,65.0 561.0,64.0 562.0,64.0 563.0,64.0 564.0,63.0 565.0,63.0 566.0,62.0 567.0,62.0 568.0,62.0 569.0,61.0 570.0,61.0 571.0,60.0 572.0,59.0 573.0,59.0 574.0,58.0 575.0,58.0 576.0,57.0 577.0,56.0 578.0,56.0 579.0,55.0 580.0,55.0 581.0,54.0 582.0,53.0 583.0,52.0 584.0,52.0 585.0,52.0 586.0,51.0 587.0,50.0 588.0,50.0 589.0,49.0 590.0,49.0 591.0,48.0 592.0,47.0 593.0,47.0 594.0,46.0 595.0,46.0 596.0,46.0 597.0,45.0 598.0,45.0 599.0,45.0 600.0,45.0 601.0,44.0 602.0,44.0 603.0,43.0 604.0,43.0 605.0,42.0 606.0,42.0 607.0,41.0 608.0,41.0 609.0,41.0 610.0,40.0 611.0,40.0 612.0,39.0 613.0,40.0 614.0,39.0 615.0,39.0 616.0,39.0 617.0,38.0 618.0,37.0 619.0,37.0 620.0,37.0 621.0,36.0 622.0,35.0 623.0,35.0 624.0,34.0 625.0,34.0 626.0,33.0 627.0,33.0 628.0,32.0 629.0,32.0 630.0,32.0 631.0,31.0 632.0,31.0 633.0,30.0 634.0,29.0 635.0,29.0 636.0,29.0 637.0,29.0 638.0,29.0 639.0,28.0 640.0,28.0 641.0,27.0 642.0,27.0 643.0,27.0 644.0,26.0 645.0,26.0 646.0,25.0 647.0,25.0 648.0,24.0 649.0,24.0 650.0,23.0 651.0,23.0 652.0,22.0 653.0,21.0 654.0,20.0" fill="none" stroke="#aeeeee" />
	<polyline points="55.0,305.0 56.0,305.0 57.0,305.0 58.0,305.0 59.0,305.0 60.0,305.0 61.0,304.0 62.0,304.0 63.0,304.0 64.0,304.0 65.0,304.0 66.0,304.0 67.0,304.0 68.0,303.0 69.0,303.0 70.0,303.0 71.0,302.0 72.0,302.0 73.0,301.0 74.0,300.0 75.0,299.0 76.0,298.0 77.0,297.0 78.0,297.0 79.0,296.0 80.0,295.0 81.0,295.0 82.0,295.0 83.0,294.0 84.0,293.0 85.0,293.0 86.0,293.0 87.0,292.0 88.0,291.0 89.0,291.0 90.0,290.0 91.0,290.0 92.0,290.0 93.0,289.0 94.0,289.0 95.0,289.0 96.0,288.0 97.0,288.0 98.0,288.0 99.0,288.0 100.0,287.0 101.0,287.0 102.0,286.0 103.0,286.0 104.0,285.0 105.0,284.0 106.0,283.0 107.0,283.0 108.0,282.0 109.0,281.0 110.0,281.0 111.0,280.0 112.0,280.0 113.0,279.0 114.0,279.0 115.0,279.0 116.0,278.0 117.0,277.0 118.0,276.0 119.0,275.0 120.0,275.0 121.0,274.0 122.0,274.0 123.0,273.0 124.0,272.0 125.0,272.0 126.0,271.0 127.0,271.0 128.0,270.0 129.0,270.0 130.0,270.0 131.0,269.0 132.0,269.0 133.0,268.0 134.0,268.0 135.0,268.0 136.0,268.0 137.0,267.0 138.0,266.0 139.0,266.0 140.0,266.0 141.0,265.0 142.0,265.0 143.0,265.0 144.0,265.0 145.0,264.0 146.0,263.0 147.0,263.0 148.0,263.0 149.0,262.0 150.0,261.0 151.0,261.0 152.0,260.0 153.0,260.0 154.0,259.0 155.0,258.0 156.0,257.0 157.0,257.0 158.0,256.0 159.0,255.0 160.0,255.0 161.0,255.0 162.0,255.0 163.0,254.0 164.0,254.0 165.0,253.0 166.0,253.0 167.0,253.0 168.0,252.0 169.0,251.0 170.0,251.0 171.0,250.0 172.0,250.0 173.0,249.0 174.0,249.0 175.0,248.0 176.0,247.0 177.0,247.0 178.0,246.0 179.0,245.0 180.0,245.0 181.0,245.0 182.0,245.0 183.0,244.0 184.0,244.0 185.0,243.0 186.0,243.0 187.0,242.0 188.0,242.0 189.0,241.0 190.0,241.0 191.0,240.0 192.0,240.0 193.0,240.0 194.0,239.0 195.0,239.0 196.0,238.0 197.0,238.0 198.0,237.0 199.0,236.0 200.0,236.0 201.0,235.0 202.0,235.0 203.0,234.0 204.0,234.0 205.0,234.0 206.0,233.0 207.0,233.0 208.0,233.0 209.0,232.0 210.0,232.0 211.0,232.0 212.0,231.0 213.0,231.0 214.0,231.0 215.0,230.0 216.0,229.0 217.0,228.0 218.0,227.0 219.0,226.0 220.0,225.0 221.0,225.0 222.0,224.0 223.0,223.0 224.0,222.0 225.0,222.0 226.0,221.0 227.0,220.0 228.0,220.0 229.0,220.0 230.0,220.0 231.0,219.0 232.0,218.0 233.0,218.0 234.0,218.0 235.0,217.0 236.0,217.0 237.0,217.0 238.0,217.0 239.0,216.0 240.0,216.0 241.0,215.0 242.0,215.0 243.0,214.0 244.0,213.0 245.0,213.0 246.0,212.0 247.0,212.0 248.0,212.0 249.0,212.0 250.0,212.0 251.0,211.0 252.0,211.0 253.0,210.0 254.0,210.0 255.0,209.0 256.0,208.0 257.0,208.0 258.0,207.0 259.0,207.0 260.0,206.0 261.0,206.0 262.0,205.0 263.0,205.0 264.0,204.0 265.0,204.0 266.0,204.0 267.0,204.0 268.0,203.0 269.0,203.0 270.0,202.0 271.0,202.0 272.0,202.0 273.0,202.0 274.0,202.0 275.0,202.0 276.0,201.0 277.0,201.0 278.0,200.0 279.0,199.0 280.0,199.0 281.0,199.0 282.0,199.0 283.0,197.0 284.0,195.0 285.0,194.0 286.0,194.0 287.0,193.0 288.0,193.0 289.0,192.0 290.0,192.0 291.0,192.0 292.0,191.0 293.0,190.0 294.0,189.0 295.0,189.0 296.0,188.0 297.0,187.0 298.0,186.0 299.0,186.0 300.0,185.0 301.0,185.0 302.0,185.0 303.0,185.0 304.0,185.0 305.0,184.0 306.0,184.0 307.0,183.0 308.0,183.0 309.0,183.0 310.0,183.0 311.0,182.0 312.0,182.0 313.0,181.0 314.0,180.0 315.0,180.0 316.0,179.0 317.0,179.0 318.0,178.0 319.0,178.0 320.0,177.0 321.0,177.0 322.0,177.0 323.0,176.0 324.0,176.0 325.0,175.0 326.0,174.0 327.0,174.0 328.0,174.0 329.0,173.0 330.0,173.0 331.0,172.0 332.0,172.0 333.0,172.0 334.0,171.0 335.0,170.0 336.0,170.0 337.0,170.0 338.0,169.0 339.0,168.0 340.0,167.0 341.0,166.0 342.0,166.0 343.0,165.0 344.0,165.0 345.0,164.0 346.0,163.0 347.0,162.0 348.0,162.0 349.0,161.0 350.0,160.0 351.0,159.0 352.0,158.0 353.0,157.0 354.0,156.0 355.0,156.0 356.0,156.0 357.0,156.0 358.0,156.0 359.0,155.0 360.0,154.0 361.0,154.0 362.0,153.0 363.0,152.0 364.0,152.0 365.0,151.0 366.0,150.0 367.0,150.0 368.0,149.0 369.0,149.0 370.0,149.0 371.0,148.0 372.0,148.0 373.0,148.0 374.0,148.0 375.0,147.0 376.0,147.0 377.0,147.0 378.0,146.0 379.0,145.0 380.0,145.0 381.0,145.0 382.0,144.0 383.0,144.0 384.0,143.0 385.0,142.0 386.0,141.0 387.0,141.0 388.0,140.0 389.0,139.0 390.0,139.0 391.0,138.0 392.0,138.0 393.0,137.0 394.0,136.0 395.0,136.0 396.0,135.0 397.0,135.0 398.0,134.0 399.0,134.0 400.0,133.0 401.0,133.0 402.0,132.0 403.0,132.0 404.0,131.0 405.0,130.0 406.0,129.0 407.0,129.0 408.0,129.0 409.0,128.0 410.0,128.0 411.0,128.0 412.0,127.0 413.0,127.0 414.0,126.0 415.0,126.0 416.0,125.0 417.0,125.0 418.0,124.0 419.0,124.0 420.0,124.0 421.0,123.0 422.0,123.0 423.0,123.0 424.0,123.0 425.0,123.0 426.0,123.0 427.0,122.0 428.0,122.0 429.0,121.0 430.0,120.0 431.0,119.0 432.0,119.0 433.0,118.0 434.0,118.0 435.0,118.0 436.0,118.0 437.0,118.0 438.0,117.0 439.0,117.0 440.0,116.0 441.0,116.0 442.0,116.0 443.0,116.0 444.0,115.0 445.0,115.0 446.0,114.0 447.0,114.0 448.0,113.0 449.0,113.0 450.0,112.0 451.0,112.0 452.0,111.0 453.0,110.0 454.0,109.0 455.0,109.0 456.0,108.0 457.0,108.0 458.0,107.0 459.0,106.0 460.0,106.0 461.0,106.0 462.0,106.0 463.0,106.0 464.0,106.0 465.0,105.0 466.0,105.0 467.0,105.0 468.0,104.0 469.0,103.0 470.0,103.0 471.0,103.0 472.0,102.0 473.0,102.0 474.0,102.0 475.0,102.0 476.0,101.0 477.0,101.0 478.0,100.0 479.0,100.0 480.0,99.0 481.0,99.0 482.0,98.0 483.0,98.0 484.0,97.0 485.0,96.0 486.0,95.0 487.0,95.0 488.0,95.0 489.0,95.0 490.0,95.0 491.0,94.0 492.0,94.0 493.0,93.0 494.0,93.0 495.0,92.0 496.0,92.0 497.0,91.0 498.0,91.0 499.0,90.0 500.0,90.0 501.0,89.0 502.0,89.0 503.0,88.0 504.0,87.0 505.0,86.0 506.0,86.0 507.0,85.0 508.0,85.0 509.0,85.0 510.0,84.0 511.0,83.0 512.0,83.0 513.0,82.0 514.0,82.0 515.0,81.0 516.0,80.0 517.0,80.0 518.0,79.0 519.0,79.0 520.0,78.0 521.0,78.0 522.0,78.0 523.0,77.0 524.0,77.0 525.0,77.0 526.0,76.0 527.0,75.0 528.0,74.0 529.0,74.0 530.0,73.0 531.0,72.0 532.0,71.0 533.0,71.0 534.0,70.0 535.0,70.0 536.0,69.0 537.0,68.0 538.0,68.0 539.0,67.0 540.0,66.0 541.0,65.0 542.0,64.0 543.0,64.0 544.0,64.0 545.0,64.0 546.0,63.0 547.0,63.0 548.0,63.0 549.0,62.0 550.0,62.0 551.0,61.0 552.0,60.0 553.0,60.0 554.0,60.0 555.0,59.0 556.0,59.0 557.0,59.0 558.0,58.0 559.0,57.0 560.0,56.0 561.0,56.0 562.0,55.0 563.0,55.0 564.0,54.0 565.0,54.0 566.0,54.0 567.0,53.0 568.0,53.0 569.0,52.0 570.0,52.0 571.0,51.0 572.0,51.0 573.0,50.0 574.0,50.0 575.0,49.0 576.0,49.0 577.0,49.0 578.0,49.0 579.0,48.0 580.0,48.0 581.0,47.0 582.0,47.0 583.0,46.0 584.0,45.0 585.0,44.0 586.0,43.0 587.0,42.0 588.0,41.0 589.0,40.0 590.0,39.0 591.0,38.0 592.0,38.0 593.0,37.0 594.0,37.0 595.0,36.0 596.0,36.0 597.0,35.0 598.0,35.0 599.0,34.0 600.0,34.0 601.0,34.0 602.0,33.0 603.0,33.0 604.0,33.0 605.0,32.0 606.0,32.0 607.0,31.0 608.0,31.0 609.0,30.0 610.0,30.0 611.0,29.0 612.0,29.0 613.0,28.0 614.0,28.0 615.0,27.0 616.0,27.0 617.0,26.0 618.0,25.0 619.0,24.0 620.0,24.0 621.0,23.0 622.0,23.0 623.0,22.0 624.0,22.0 625.0,21.0 626.0,20.0 627.0,20.0 628.0,19.0 629.0,19.0 630.0,18.0 631.0,18.0 632.0,17.0 633.0,17.0 634.0,17.0 635.0,16.0 636.0,16.0 637.0,15.0 638.0,15.0 639.0,14.0 640.0,14.0 641.0,14.0 642.0,13.0 643.0,12.0 644.0,12.0 645.0,12.0 646.0,11.0 647.0,11.0 648.0,10.0 649.0,10.0 650.0,10.0 651.0,9.0 652.0,9.0 653.0,9.0 654.0,9.0" fill="none" stroke="#00ffff" />
	<polyline points="55.0,5.0 655.0,5.0" fill="none" stroke="#6d6d6d" />
	<polyline points="55.0,305.0 655.0,305.0" fill="none" stroke="#6d6d6d" />
	<polyline points="55.0,305.0 55.0,310.0" fill="none" stroke="#6d6d6d" />
	<polyline points="205.0,305.0 205.0,310.0" fill="none" stroke="#6d6d6d" />
	<polyline points="355.0,305.0 355.0,310.0" fill="none" stroke="#6d6d6d" />
	<polyline points="505.0,305.0 505.0,310.0" fill="none" stroke="#6d6d6d" />
	<polyline points="655.0,305.0 655.0,310.0" fill="none" stroke="#6d6d6d" />
	<polyline points="55.0,5.0 55.0,305.0" fill="none" stroke="#6d6d6d" />
	<polyline points="655.0,5.0 655.0,305.0" fill="none" stroke="#6d6d6d" />
	<polyline points="50.0,5.0 55.0,5.0" fill="none" stroke="#6d6d6d" />
	<polyline points="50.0,80.0 55.0,80.0" fill="none" stroke="#6d6d6d" />
	<polyline points="50.0,155.0 55.0,155.0" fill="none" stroke="#6d6d6d" />
	<polyline points="50.0,230.0 55.0,230.0" fill="none" stroke="#6d6d6d" />
	<polyline points="50.0,305.0 55.0,305.0" fill="none" stroke="#6d6d6d" />
	<text x="55.0" y="323.0" fill="#6d6d6d" font-family="Arial" font-size="9pt" text-anchor="middle">1</text>
	<text x="205.0" y="323.0" fill="#6d6d6d" font-family="Arial" font-size="9pt" text-anchor="middle">150</text>
	<text x="355.0" y="323.0" fill="#6d6d6d" font-family="Arial" font-size="9pt" text-anchor="middle">300</text>
	<text x="505.0" y="323.0" fill="#6d6d6d" font-family="Arial" font-size="9pt" text-anchor="middle">450</text>
	<text x="655.0" y="323.0" fill="#6d6d6d" font-family="Arial" font-size="9pt" text-anchor="middle">600</text>
	<text x="45.0" y="9.0" fill="#6d6d6d" font-family="Arial" font-size="9pt" text-anchor="end">34.5</text>
	<text x="45.0" y="84.0" fill="#6d6d6d" font-family="Arial" font-size="9pt" text-anchor="end">25.9</text>
	<text x="45.0" y="159.0" fill="#6d6d6d" font-family="Arial" font-size="9pt" text-anchor="end">17.4</text>
	<text x="45.0" y="234.0" fill="#6d6d6d" font-family="Arial" font-size="9pt" text-anchor="end">8.82</text>
	<text x="45.0" y="309.0" fill="#6d6d6d" font-family="Arial" font-size="9pt" text-anchor="end">0</text>
</svg>
