<?xml version="1.0" encoding="UTF-8" standalone="no"?>
<!DOCTYPE svg PUBLIC "-//W3C//DTD SVG 1.1//EN" "http://www.w3.org/Graphics/SVG/1.1/DTD/svg11.dtd">
<svg xmlns="http://www.w3.org/2000/svg"  version="1.1" width="693.0" height="380.0" viewBox="-6.0 -12.0 687.0 368.0">
	<desc>LSD Plot - Sim_10c</desc>
	<polyline points="205.0,6.0 205.0,304.0" fill="none" stroke="#f0f0f0" />
	<polyline points="355.0,6.0 355.0,304.0" fill="none" stroke="#f0f0f0" />
	<polyline points="505.0,6.0 505.0,304.0" fill="none" stroke="#f0f0f0" />
	<polyline points="56.0,80.0 654.0,80.0" fill="none" stroke="#f0f0f0" />
	<polyline points="56.0,155.0 654.0,155.0" fill="none" stroke="#f0f0f0" />
	<polyline points="56.0,230.0 654.0,230.0" fill="none" stroke="#f0f0f0" />
	<text x="5.0" y="345.0" font-family="Arial" font-size="9pt">Y_r_1</text>
	<text x="42.0" y="345.0" fill="#ff0000" font-family="Arial" font-size="9pt">Y_r_2</text>
	<text x="79.0" y="345.0" fill="#008000" font-family="Arial" font-size="9pt">Y_r_3</text>
	<text x="116.0" y="345.0" fill="#d0d000" font-family="Arial" font-size="9pt">Y_r_4</text>
	<text x="153.0" y="345.0" fill="#fb46bc" font-family="Arial" font-size="9pt">Y_r_5</text>
	<text x="190.0" y="345.0" fill="#0000ff" font-family="Arial" font-size="9pt">Y_r_6</text>
	<text x="227.0" y="345.0" fill="#00bfff" font-family="Arial" font-size="9pt">Y_r_7</text>
	<text x="264.0" y="345.0" fill="#4876ff" font-family="Arial" font-size="9pt">Y_r_8</text>
	<text x="301.0" y="345.0" fill="#aeeeee" font-family="Arial" font-size="9pt">Y_r_9</text>
	<text x="338.0" y="345.0" fill="#00ffff" font-family="Arial" font-size="9pt">Y_r_10</text>
	<polyline points="55.0,304.0 56.0,298.0 57.0,303.0 58.0,299.0 59.0,302.0 60.0,299.0 61.0,301.0 62.0,298.0 63.0,300.0 64.0,298.0 65.0,299.0 66.0,297.0 67.0,298.0 68.0,297.0 69.0,297.0 70.0,295.0 71.0,295.0 72.0,294.0 73.0,294.0 74.0,293.0 75.0,293.0 76.0,292.0 77.0,292.0 78.0,291.0 79.0,291.0 80.0,291.0 81.0,290.0 82.0,290.0 83.0,290.0 84.0,289.0 85.0,289.0 86.0,288.0 87.0,287.0 88.0,287.0 89.0,287.0 90.0,287.0 91.0,286.0 92.0,286.0 93.0,286.0 94.0,286.0 95.0,285.0 96.0,285.0 97.0,284.0 98.0,284.0 99.0,283.0 100.0,283.0 101.0,283.0 102.0,283.0 103.0,282.0 104.0,282.0 105.0,281.0 106.0,281.0 107.0,280.0 108.0,280.0 109.0,279.0 110.0,279.0 111.0,277.0 112.0,277.0 113.0,276.0 114.0,276.0 115.0,275.0 116.0,275.0 117.0,275.0 118.0,275.0 119.0,274.0 120.0,273.0 121.0,273.0 122.0,273.0 123.0,272.0 124.0,272.0 125.0,271.0 126.0,270.0 127.0,270.0 128.0,269.0 129.0,269.0 130.0,268.0 131.0,267.0 132.0,266.0 133.0,266.0 134.0,265.0 135.0,265.0 136.0,265.0 137.0,265.0 138.0,264.0 139.0,264.0 140.0,263.0 141.0,263.0 142.0,263.0 143.0,263.0 144.0,263.0 145.0,263.0 146.0,263.0 147.0,262.0 148.0,263.0 149.0,261.0 150.0,261.0 151.0,261.0 152.0,261.0 153.0,260.0 154.0,260.0 155.0,260.0 156.0,260.0 157.0,260.0 158.0,258.0 159.0,258.0 160.0,258.0 161.0,258.0 162.0,258.0 163.0,257.0 164.0,257.0 165.0,257.0 166.0,256.0 167.0,256.0 168.0,256.0 169.0,256.0 170.0,255.0 171.0,255.0 172.0,254.0 173.0,253.0 174.0,252.0 175.0,252.0 176.0,251.0 177.0,250.0 178.0,250.0 179.0,249.0 180.0,248.0 181.0,247.0 182.0,246.0 183.0,246.0 184.0,245.0 185.0,245.0 186.0,243.0 187.0,243.0 188.0,242.0 189.0,242.0 190.0,241.0 191.0,240.0 192.0,239.0 193.0,239.0 194.0,239.0 195.0,237.0 196.0,237.0 197.0,235.0 198.0,236.0 199.0,234.0 200.0,234.0 201.0,233.0 202.0,231.0 203.0,231.0 204.0,231.0 205.0,230.0 206.0,230.0 207.0,229.0 208.0,229.0 209.0,228.0 210.0,228.0 211.0,227.0 212.0,227.0 213.0,227.0 214.0,227.0 215.0,226.0 216.0,226.0 217.0,226.0 218.0,225.0 219.0,226.0 220.0,224.0 221.0,225.0 222.0,225.0 223.0,225.0 224.0,224.0 225.0,224.0 226.0,224.0 227.0,223.0 228.0,223.0 229.0,223.0 230.0,222.0 231.0,222.0 232.0,221.0 233.0,221.0 234.0,221.0 235.0,220.0 236.0,220.0 237.0,219.0 238.0,219.0 239.0,219.0 240.0,218.0 241.0,218.0 242.0,217.0 243.0,217.0 244.0,216.0 245.0,216.0 246.0,215.0 247.0,214.0 248.0,214.0 249.0,213.0 250.0,213.0 251.0,213.0 252.0,212.0 253.0,212.0 254.0,212.0 255.0,211.0 256.0,211.0 257.0,210.0 258.0,210.0 259.0,209.0 260.0,209.0 261.0,209.0 262.0,208.0 263.0,208.0 264.0,207.0 265.0,206.0 266.0,205.0 267.0,204.0 268.0,203.0 269.0,202.0 270.0,202.0 271.0,202.0 272.0,201.0 273.0,201.0 274.0,200.0 275.0,199.0 276.0,199.0 277.0,199.0 278.0,198.0 279.0,199.0 280.0,198.0 281.0,197.0 282.0,196.0 283.0,196.0 284.0,195.0 285.0,195.0 286.0,194.0 287.0,195.0 288.0,193.0 289.0,194.0 290.0,194.0 291.0,194.0 292.0,193.0 293.0,193.0 294.0,192.0 295.0,193.0 296.0,192.0 297.0,192.0 298.0,191.0 299.0,191.0 300.0,191.0 301.0,189.0 302.0,189.0 303.0,190.0 304.0,189.0 305.0,189.0 306.0,189.0 307.0,189.0 308.0,187.0 309.0,189.0 310.0,188.0 311.0,189.0 312.0,187.0 313.0,187.0 314.0,187.0 315.0,186.0 316.0,187.0 317.0,186.0 318.0,187.0 319.0,187.0 320.0,187.0 321.0,187.0 322.0,187.0 323.0,187.0 324.0,188.0 325.0,187.0 326.0,186.0 327.0,186.0 328.0,186.0 329.0,185.0 330.0,185.0 331.0,184.0 332.0,184.0 333.0,184.0 334.0,182.0 335.0,181.0 336.0,180.0 337.0,179.0 338.0,177.0 339.0,176.0 340.0,174.0 341.0,174.0 342.0,173.0 343.0,173.0 344.0,172.0 345.0,171.0 346.0,171.0 347.0,170.0 348.0,170.0 349.0,169.0 350.0,169.0 351.0,170.0 352.0,169.0 353.0,170.0 354.0,169.0 355.0,169.0 356.0,169.0 357.0,170.0 358.0,168.0 359.0,169.0 360.0,170.0 361.0,170.0 362.0,170.0 363.0,169.0 364.0,170.0 365.0,169.0 366.0,169.0 367.0,169.0 368.0,168.0 369.0,168.0 370.0,167.0 371.0,167.0 372.0,167.0 373.0,165.0 374.0,166.0 375.0,164.0 376.0,164.0 377.0,162.0 378.0,162.0 379.0,162.0 380.0,161.0 381.0,161.0 382.0,161.0 383.0,160.0 384.0,159.0 385.0,158.0 386.0,157.0 387.0,156.0 388.0,156.0 389.0,155.0 390.0,156.0 391.0,154.0 392.0,154.0 393.0,152.0 394.0,152.0 395.0,151.0 396.0,150.0 397.0,150.0 398.0,149.0 399.0,149.0 400.0,149.0 401.0,147.0 402.0,148.0 403.0,146.0 404.0,147.0 405.0,145.0 406.0,146.0 407.0,145.0 408.0,144.0 409.0,144.0 410.0,144.0 411.0,142.0 412.0,142.0 413.0,142.0 414.0,141.0 415.0,140.0 416.0,140.0 417.0,139.0 418.0,139.0 419.0,138.0 420.0,137.0 421.0,136.0 422.0,136.0 423.0,135.0 424.0,136.0 425.0,133.0 426.0,133.0 427.0,132.0 428.0,133.0 429.0,132.0 430.0,132.0 431.0,131.0 432.0,131.0 433.0,130.0 434.0,129.0 435.0,128.0 436.0,127.0 437.0,127.0 438.0,127.0 439.0,126.0 440.0,126.0 441.0,125.0 442.0,125.0 443.0,124.0 444.0,124.0 445.0,123.0 446.0,122.0 447.0,121.0 448.0,120.0 449.0,120.0 450.0,118.0 451.0,118.0 452.0,117.0 453.0,115.0 454.0,115.0 455.0,114.0 456.0,112.0 457.0,112.0 458.0,111.0 459.0,109.0 460.0,108.0 461.0,109.0 462.0,107.0 463.0,107.0 464.0,106.0 465.0,105.0 466.0,105.0 467.0,105.0 468.0,104.0 469.0,104.0 470.0,103.0 471.0,102.0 472.0,103.0 473.0,101.0 474.0,101.0 475.0,100.0 476.0,100.0 477.0,100.0 478.0,99.0 479.0,99.0 480.0,99.0 481.0,99.0 482.0,98.0 483.0,97.0 484.0,98.0 485.0,98.0 486.0,98.0 487.0,98.0 488.0,99.0 489.0,98.0 490.0,99.0 491.0,98.0 492.0,98.0 493.0,98.0 494.0,98.0 495.0,98.0 496.0,99.0 497.0,98.0 498.0,98.0 499.0,97.0 500.0,97.0 501.0,97.0 502.0,95.0 503.0,94.0 504.0,94.0 505.0,94.0 506.0,94.0 507.0,93.0 508.0,93.0 509.0,92.0 510.0,92.0 511.0,91.0 512.0,91.0 513.0,90.0 514.0,90.0 515.0,90.0 516.0,88.0 517.0,87.0 518.0,85.0 519.0,86.0 520.0,85.0 521.0,84.0 522.0,84.0 523.0,83.0 524.0,84.0 525.0,84.0 526.0,84.0 527.0,83.0 528.0,82.0 529.0,83.0 530.0,81.0 531.0,82.0 532.0,82.0 533.0,81.0 534.0,82.0 535.0,81.0 536.0,79.0 537.0,78.0 538.0,79.0 539.0,78.0 540.0,77.0 541.0,77.0 542.0,76.0 543.0,76.0 544.0,75.0 545.0,75.0 546.0,74.0 547.0,73.0 548.0,73.0 549.0,72.0 550.0,70.0 551.0,70.0 552.0,70.0 553.0,69.0 554.0,69.0 555.0,67.0 556.0,67.0 557.0,66.0 558.0,65.0 559.0,64.0 560.0,63.0 561.0,63.0 562.0,61.0 563.0,63.0 564.0,62.0 565.0,60.0 566.0,60.0 567.0,59.0 568.0,59.0 569.0,59.0 570.0,58.0 571.0,58.0 572.0,58.0 573.0,57.0 574.0,57.0 575.0,57.0 576.0,54.0 577.0,56.0 578.0,53.0 579.0,53.0 580.0,53.0 581.0,52.0 582.0,52.0 583.0,50.0 584.0,50.0 585.0,48.0 586.0,49.0 587.0,48.0 588.0,48.0 589.0,47.0 590.0,46.0 591.0,45.0 592.0,45.0 593.0,44.0 594.0,43.0 595.0,42.0 596.0,42.0 597.0,41.0 598.0,41.0 599.0,40.0 600.0,39.0 601.0,39.0 602.0,38.0 603.0,38.0 604.0,38.0 605.0,37.0 606.0,37.0 607.0,37.0 608.0,36.0 609.0,36.0 610.0,35.0 611.0,35.0 612.0,35.0 613.0,34.0 614.0,34.0 615.0,34.0 616.0,33.0 617.0,32.0 618.0,33.0 619.0,32.0 620.0,33.0 621.0,31.0 622.0,32.0 623.0,31.0 624.0,32.0 625.0,30.0 626.0,31.0 627.0,30.0 628.0,30.0 629.0,30.0 630.0,30.0 631.0,29.0 632.0,29.0 633.0,29.0 634.0,28.0 635.0,28.0 636.0,27.0 637.0,27.0 638.0,27.0 639.0,27.0 640.0,25.0 641.0,26.0 642.0,24.0 643.0,24.0 644.0,23.0 645.0,23.0 646.0,21.0 647.0,21.0 648.0,20.0 649.0,20.0 650.0,18.0 651.0,18.0 652.0,16.0 653.0,16.0 654.0,15.0" fill="none" stroke="#000000" />
	<polyline points="55.0,304.0 56.0,298.0 57.0,304.0 58.0,299.0 59.0,303.0 60.0,299.0 61.0,302.0 62.0,300.0 63.0,301.0 64.0,299.0 65.0,300.0 66.0,299.0 67.0,300.0 68.0,298.0 69.0,299.0 70.0,297.0 71.0,298.0 72.0,297.0 73.0,297.0 74.0,296.0 75.0,296.0 76.0,296.0 77.0,296.0 78.0,296.0 79.0,296.0 80.0,295.0 81.0,295.0 82.0,294.0 83.0,294.0 84.0,294.0 85.0,293.0 86.0,293.0 87.0,292.0 88.0,292.0 89.0,291.0 90.0,290.0 91.0,288.0 92.0,288.0 93.0,287.0 94.0,287.0 95.0,286.0 96.0,285.0 97.0,284.0 98.0,284.0 99.0,283.0 100.0,283.0 101.0,282.0 102.0,281.0 103.0,281.0 104.0,281.0 105.0,280.0 106.0,280.0 107.0,279.0 108.0,279.0 109.0,278.0 110.0,278.0 111.0,278.0 112.0,277.0 113.0,277.0 114.0,277.0 115.0,277.0 116.0,276.0 117.0,275.0 118.0,274.0 119.0,274.0 120.0,273.0 121.0,272.0 122.0,273.0 123.0,272.0 124.0,272.0 125.0,272.0 126.0,272.0 127.0,271.0 128.0,271.0 129.0,271.0 130.0,267.0 131.0,270.0 132.0,269.0 133.0,270.0 134.0,268.0 135.0,269.0 136.0,268.0 137.0,268.0 138.0,268.0 139.0,267.0 140.0,267.0 141.0,268.0 142.0,266.0 143.0,267.0 144.0,266.0 145.0,266.0 146.0,266.0 147.0,266.0 148.0,265.0 149.0,266.0 150.0,265.0 151.0,265.0 152.0,264.0 153.0,264.0 154.0,262.0 155.0,263.0 156.0,262.0 157.0,261.0 158.0,261.0 159.0,261.0 160.0,260.0 161.0,260.0 162.0,259.0 163.0,259.0 164.0,258.0 165.0,258.0 166.0,257.0 167.0,257.0 168.0,256.0 169.0,255.0 170.0,254.0 171.0,253.0 172.0,253.0 173.0,252.0 174.0,251.0 175.0,249.0 176.0,249.0 177.0,248.0 178.0,247.0 179.0,247.0 180.0,246.0 181.0,245.0 182.0,244.0 183.0,244.0 184.0,243.0 185.0,242.0 186.0,241.0 187.0,241.0 188.0,240.0 189.0,240.0 190.0,240.0 191.0,239.0 192.0,238.0 193.0,238.0 194.0,238.0 195.0,237.0 196.0,238.0 197.0,236.0 198.0,236.0 199.0,236.0 200.0,235.0 201.0,235.0 202.0,234.0 203.0,234.0 204.0,233.0 205.0,234.0 206.0,233.0 207.0,233.0 208.0,233.0 209.0,233.0 210.0,232.0 211.0,232.0 212.0,231.0 213.0,230.0 214.0,230.0 215.0,230.0 216.0,228.0 217.0,228.0 218.0,228.0 219.0,228.0 220.0,227.0 221.0,227.0 222.0,226.0 223.0,226.0 224.0,224.0 225.0,225.0 226.0,224.0 227.0,224.0 228.0,223.0 229.0,222.0 230.0,222.0 231.0,222.0 232.0,221.0 233.0,221.0 234.0,221.0 235.0,220.0 236.0,220.0 237.0,220.0 238.0,219.0 239.0,219.0 240.0,217.0 241.0,217.0 242.0,217.0 243.0,215.0 244.0,215.0 245.0,214.0 246.0,214.0 247.0,213.0 248.0,212.0 249.0,212.0 250.0,211.0 251.0,210.0 252.0,210.0 253.0,209.0 254.0,208.0 255.0,208.0 256.0,207.0 257.0,207.0 258.0,207.0 259.0,206.0 260.0,205.0 261.0,205.0 262.0,204.0 263.0,203.0 264.0,203.0 265.0,203.0 266.0,202.0 267.0,202.0 268.0,202.0 269.0,201.0 270.0,200.0 271.0,200.0 272.0,199.0 273.0,199.0 274.0,198.0 275.0,197.0 276.0,195.0 277.0,196.0 278.0,194.0 279.0,193.0 280.0,192.0 281.0,192.0 282.0,191.0 283.0,191.0 284.0,190.0 285.0,190.0 286.0,188.0 287.0,189.0 288.0,188.0 289.0,187.0 290.0,187.0 291.0,186.0 292.0,186.0 293.0,186.0 294.0,185.0 295.0,185.0 296.0,184.0 297.0,184.0 298.0,183.0 299.0,183.0 300.0,182.0 301.0,182.0 302.0,181.0 303.0,181.0 304.0,180.0 305.0,180.0 306.0,179.0 307.0,178.0 308.0,177.0 309.0,178.0 310.0,177.0 311.0,176.0 312.0,176.0 313.0,175.0 314.0,176.0 315.0,174.0 316.0,174.0 317.0,173.0 318.0,173.0 319.0,171.0 320.0,171.0 321.0,170.0 322.0,169.0 323.0,168.0 324.0,169.0 325.0,168.0 326.0,168.0 327.0,167.0 328.0,167.0 329.0,167.0 330.0,168.0 331.0,167.0 332.0,168.0 333.0,169.0 334.0,170.0 335.0,171.0 336.0,172.0 337.0,173.0 338.0,175.0 339.0,176.0 340.0,177.0 341.0,179.0 342.0,180.0 343.0,181.0 344.0,182.0 345.0,183.0 346.0,184.0 347.0,185.0 348.0,185.0 349.0,185.0 350.0,184.0 351.0,184.0 352.0,184.0 353.0,184.0 354.0,184.0 355.0,185.0 356.0,184.0 357.0,184.0 358.0,183.0 359.0,183.0 360.0,183.0 361.0,183.0 362.0,182.0 363.0,181.0 364.0,181.0 365.0,180.0 366.0,180.0 367.0,180.0 368.0,179.0 369.0,178.0 370.0,178.0 371.0,177.0 372.0,177.0 373.0,176.0 374.0,175.0 375.0,174.0 376.0,174.0 377.0,174.0 378.0,173.0 379.0,173.0 380.0,172.0 381.0,171.0 382.0,170.0 383.0,169.0 384.0,168.0 385.0,168.0 386.0,167.0 387.0,166.0 388.0,166.0 389.0,165.0 390.0,165.0 391.0,162.0 392.0,163.0 393.0,162.0 394.0,162.0 395.0,162.0 396.0,161.0 397.0,161.0 398.0,160.0 399.0,159.0 400.0,159.0 401.0,159.0 402.0,158.0 403.0,158.0 404.0,157.0 405.0,157.0 406.0,156.0 407.0,156.0 408.0,156.0 409.0,154.0 410.0,154.0 411.0,154.0 412.0,153.0 413.0,152.0 414.0,152.0 415.0,151.0 416.0,152.0 417.0,151.0 418.0,151.0 419.0,150.0 420.0,150.0 421.0,149.0 422.0,149.0 423.0,148.0 424.0,147.0 425.0,147.0 426.0,146.0 427.0,145.0 428.0,145.0 429.0,144.0 430.0,144.0 431.0,143.0 432.0,142.0 433.0,142.0 434.0,141.0 435.0,141.0 436.0,140.0 437.0,140.0 438.0,139.0 439.0,138.0 440.0,138.0 441.0,137.0 442.0,136.0 443.0,136.0 444.0,135.0 445.0,136.0 446.0,135.0 447.0,134.0 448.0,133.0 449.0,133.0 450.0,133.0 451.0,132.0 452.0,131.0 453.0,131.0 454.0,131.0 455.0,130.0 456.0,129.0 457.0,129.0 458.0,127.0 459.0,127.0 460.0,126.0 461.0,126.0 462.0,125.0 463.0,125.0 464.0,124.0 465.0,123.0 466.0,122.0 467.0,121.0 468.0,121.0 469.0,120.0 470.0,120.0 471.0,119.0 472.0,119.0 473.0,117.0 474.0,117.0 475.0,116.0 476.0,115.0 477.0,114.0 478.0,114.0 479.0,113.0 480.0,112.0 481.0,111.0 482.0,110.0 483.0,110.0 484.0,109.0 485.0,109.0 486.0,108.0 487.0,107.0 488.0,105.0 489.0,104.0 490.0,103.0 491.0,102.0 492.0,100.0 493.0,99.0 494.0,99.0 495.0,98.0 496.0,97.0 497.0,97.0 498.0,96.0 499.0,94.0 500.0,93.0 501.0,94.0 502.0,94.0 503.0,93.0 504.0,92.0 505.0,91.0 506.0,91.0 507.0,88.0 508.0,90.0 509.0,87.0 510.0,89.0 511.0,87.0 512.0,88.0 513.0,88.0 514.0,88.0 515.0,87.0 516.0,87.0 517.0,87.0 518.0,87.0 519.0,85.0 520.0,86.0 521.0,86.0 522.0,85.0 523.0,84.0 524.0,83.0 525.0,84.0 526.0,83.0 527.0,83.0 528.0,82.0 529.0,82.0 530.0,82.0 531.0,81.0 532.0,80.0 533.0,79.0 534.0,78.0 535.0,78.0 536.0,77.0 537.0,77.0 538.0,76.0 539.0,75.0 540.0,74.0 541.0,74.0 542.0,72.0 543.0,73.0 544.0,71.0 545.0,72.0 546.0,70.0 547.0,70.0 548.0,69.0 549.0,69.0 550.0,68.0 551.0,69.0 552.0,67.0 553.0,68.0 554.0,66.0 555.0,66.0 556.0,65.0 557.0,64.0 558.0,64.0 559.0,64.0 560.0,63.0 561.0,64.0 562.0,63.0 563.0,63.0 564.0,63.0 565.0,63.0 566.0,62.0 567.0,63.0 568.0,62.0 569.0,60.0 570.0,61.0 571.0,61.0 572.0,61.0 573.0,61.0 574.0,61.0 575.0,61.0 576.0,60.0 577.0,60.0 578.0,60.0 579.0,60.0 580.0,59.0 581.0,59.0 582.0,58.0 583.0,57.0 584.0,58.0 585.0,57.0 586.0,58.0 587.0,57.0 588.0,57.0 589.0,56.0 590.0,55.0 591.0,56.0 592.0,55.0 593.0,51.0 594.0,53.0 595.0,52.0 596.0,52.0 597.0,52.0 598.0,53.0 599.0,52.0 600.0,52.0 601.0,52.0 602.0,51.0 603.0,52.0 604.0,50.0 605.0,50.0 606.0,49.0 607.0,48.0 608.0,48.0 609.0,48.0 610.0,46.0 611.0,45.0 612.0,46.0 613.0,45.0 614.0,46.0 615.0,44.0 616.0,45.0 617.0,43.0 618.0,44.0 619.0,43.0 620.0,43.0 621.0,41.0 622.0,42.0 623.0,42.0 624.0,41.0 625.0,40.0 626.0,40.0 627.0,38.0 628.0,35.0 629.0,37.0 630.0,36.0 631.0,36.0 632.0,35.0 633.0,35.0 634.0,34.0 635.0,34.0 636.0,33.0 637.0,34.0 638.0,32.0 639.0,33.0 640.0,31.0 641.0,31.0 642.0,30.0 643.0,29.0 644.0,29.0 645.0,29.0 646.0,28.0 647.0,29.0 648.0,27.0 649.0,28.0 650.0,25.0 651.0,25.0 652.0,23.0 653.0,24.0 654.0,21.0" fill="none" stroke="#ff0000" />
	<polyline points="55.0,304.0 56.0,298.0 57.0,303.0 58.0,299.0 59.0,303.0 60.0,299.0 61.0,302.0 62.0,299.0 63.0,301.0 64.0,299.0 65.0,300.0 66.0,298.0 67.0,299.0 68.0,298.0 69.0,298.0 70.0,297.0 71.0,297.0 72.0,296.0 73.0,296.0 74.0,295.0 75.0,294.0 76.0,294.0 77.0,293.0 78.0,292.0 79.0,292.0 80.0,291.0 81.0,290.0 82.0,290.0 83.0,289.0 84.0,289.0 85.0,289.0 86.0,288.0 87.0,287.0 88.0,287.0 89.0,286.0 90.0,285.0 91.0,285.0 92.0,284.0 93.0,283.0 94.0,283.0 95.0,283.0 96.0,282.0 97.0,282.0 98.0,282.0 99.0,281.0 100.0,281.0 101.0,280.0 102.0,280.0 103.0,279.0 104.0,279.0 105.0,278.0 106.0,279.0 107.0,278.0 108.0,277.0 109.0,277.0 110.0,277.0 111.0,277.0 112.0,277.0 113.0,276.0 114.0,277.0 115.0,276.0 116.0,275.0 117.0,275.0 118.0,275.0 119.0,274.0 120.0,274.0 121.0,274.0 122.0,273.0 123.0,273.0 124.0,272.0 125.0,272.0 126.0,271.0 127.0,271.0 128.0,271.0 129.0,271.0 130.0,269.0 131.0,269.0 132.0,268.0 133.0,268.0 134.0,267.0 135.0,266.0 136.0,265.0 137.0,264.0 138.0,263.0 139.0,263.0 140.0,262.0 141.0,261.0 142.0,260.0 143.0,259.0 144.0,258.0 145.0,257.0 146.0,256.0 147.0,255.0 148.0,254.0 149.0,254.0 150.0,252.0 151.0,252.0 152.0,251.0 153.0,251.0 154.0,249.0 155.0,250.0 156.0,248.0 157.0,248.0 158.0,247.0 159.0,246.0 160.0,246.0 161.0,245.0 162.0,245.0 163.0,244.0 164.0,244.0 165.0,243.0 166.0,243.0 167.0,241.0 168.0,241.0 169.0,240.0 170.0,241.0 171.0,239.0 172.0,239.0 173.0,238.0 174.0,238.0 175.0,237.0 176.0,238.0 177.0,236.0 178.0,237.0 179.0,236.0 180.0,236.0 181.0,236.0 182.0,235.0 183.0,235.0 184.0,235.0 185.0,234.0 186.0,234.0 187.0,234.0 188.0,233.0 189.0,233.0 190.0,233.0 191.0,232.0 192.0,232.0 193.0,231.0 194.0,231.0 195.0,230.0 196.0,230.0 197.0,229.0 198.0,229.0 199.0,229.0 200.0,228.0 201.0,227.0 202.0,227.0 203.0,227.0 204.0,227.0 205.0,226.0 206.0,226.0 207.0,225.0 208.0,224.0 209.0,224.0 210.0,223.0 211.0,223.0 212.0,223.0 213.0,222.0 214.0,223.0 215.0,222.0 216.0,223.0 217.0,223.0 218.0,223.0 219.0,224.0 220.0,224.0 221.0,225.0 222.0,227.0 223.0,228.0 224.0,231.0 225.0,234.0 226.0,236.0 227.0,238.0 228.0,238.0 229.0,240.0 230.0,240.0 231.0,242.0 232.0,242.0 233.0,242.0 234.0,242.0 235.0,242.0 236.0,243.0 237.0,242.0 238.0,242.0 239.0,242.0 240.0,241.0 241.0,242.0 242.0,241.0 243.0,240.0 244.0,240.0 245.0,239.0 246.0,239.0 247.0,239.0 248.0,238.0 249.0,237.0 250.0,236.0 251.0,235.0 252.0,235.0 253.0,235.0 254.0,234.0 255.0,234.0 256.0,233.0 257.0,232.0 258.0,231.0 259.0,231.0 260.0,230.0 261.0,230.0 262.0,229.0 263.0,228.0 264.0,227.0 265.0,226.0 266.0,226.0 267.0,225.0 268.0,225.0 269.0,225.0 270.0,224.0 271.0,224.0 272.0,223.0 273.0,223.0 274.0,223.0 275.0,222.0 276.0,222.0 277.0,222.0 278.0,221.0 279.0,222.0 280.0,220.0 281.0,220.0 282.0,220.0 283.0,220.0 284.0,219.0 285.0,218.0 286.0,217.0 287.0,217.0 288.0,216.0 289.0,216.0 290.0,215.0 291.0,214.0 292.0,214.0 293.0,213.0 294.0,213.0 295.0,212.0 296.0,212.0 297.0,211.0 298.0,210.0 299.0,210.0 300.0,210.0 301.0,208.0 302.0,208.0 303.0,207.0 304.0,207.0 305.0,207.0 306.0,206.0 307.0,206.0 308.0,205.0 309.0,205.0 310.0,205.0 311.0,205.0 312.0,203.0 313.0,203.0 314.0,202.0 315.0,202.0 316.0,201.0 317.0,201.0 318.0,200.0 319.0,200.0 320.0,200.0 321.0,199.0 322.0,199.0 323.0,199.0 324.0,199.0 325.0,197.0 326.0,196.0 327.0,196.0 328.0,196.0 329.0,196.0 330.0,196.0 331.0,194.0 332.0,194.0 333.0,194.0 334.0,193.0 335.0,193.0 336.0,192.0 337.0,191.0 338.0,191.0 339.0,190.0 340.0,190.0 341.0,189.0 342.0,188.0 343.0,187.0 344.0,186.0 345.0,186.0 346.0,186.0 347.0,186.0 348.0,185.0 349.0,184.0 350.0,184.0 351.0,183.0 352.0,182.0 353.0,182.0 354.0,181.0 355.0,181.0 356.0,181.0 357.0,181.0 358.0,179.0 359.0,180.0 360.0,178.0 361.0,179.0 362.0,179.0 363.0,178.0 364.0,179.0 365.0,178.0 366.0,178.0 367.0,177.0 368.0,176.0 369.0,176.0 370.0,176.0 371.0,176.0 372.0,176.0 373.0,175.0 374.0,174.0 375.0,173.0 376.0,172.0 377.0,172.0 378.0,170.0 379.0,170.0 380.0,170.0 381.0,169.0 382.0,169.0 383.0,167.0 384.0,167.0 385.0,166.0 386.0,165.0 387.0,164.0 388.0,164.0 389.0,162.0 390.0,162.0 391.0,160.0 392.0,160.0 393.0,158.0 394.0,159.0 395.0,158.0 396.0,157.0 397.0,157.0 398.0,156.0 399.0,155.0 400.0,154.0 401.0,154.0 402.0,154.0 403.0,153.0 404.0,152.0 405.0,152.0 406.0,152.0 407.0,152.0 408.0,152.0 409.0,150.0 410.0,150.0 411.0,149.0 412.0,149.0 413.0,148.0 414.0,148.0 415.0,147.0 416.0,147.0 417.0,146.0 418.0,145.0 419.0,144.0 420.0,145.0 421.0,144.0 422.0,143.0 423.0,142.0 424.0,142.0 425.0,141.0 426.0,141.0 427.0,140.0 428.0,137.0 429.0,138.0 430.0,137.0 431.0,138.0 432.0,136.0 433.0,137.0 434.0,136.0 435.0,136.0 436.0,134.0 437.0,134.0 438.0,133.0 439.0,132.0 440.0,132.0 441.0,131.0 442.0,130.0 443.0,130.0 444.0,129.0 445.0,129.0 446.0,128.0 447.0,127.0 448.0,126.0 449.0,126.0 450.0,125.0 451.0,123.0 452.0,124.0 453.0,122.0 454.0,122.0 455.0,121.0 456.0,119.0 457.0,119.0 458.0,118.0 459.0,116.0 460.0,115.0 461.0,114.0 462.0,113.0 463.0,113.0 464.0,112.0 465.0,111.0 466.0,111.0 467.0,109.0 468.0,109.0 469.0,107.0 470.0,106.0 471.0,105.0 472.0,104.0 473.0,103.0 474.0,102.0 475.0,101.0 476.0,101.0 477.0,100.0 478.0,99.0 479.0,98.0 480.0,99.0 481.0,98.0 482.0,98.0 483.0,96.0 484.0,95.0 485.0,94.0 486.0,94.0 487.0,94.0 488.0,94.0 489.0,92.0 490.0,93.0 491.0,91.0 492.0,91.0 493.0,90.0 494.0,91.0 495.0,88.0 496.0,88.0 497.0,88.0 498.0,87.0 499.0,87.0 500.0,86.0 501.0,86.0 502.0,85.0 503.0,86.0 504.0,84.0 505.0,84.0 506.0,84.0 507.0,84.0 508.0,84.0 509.0,84.0 510.0,83.0 511.0,83.0 512.0,82.0 513.0,82.0 514.0,82.0 515.0,81.0 516.0,82.0 517.0,81.0 518.0,81.0 519.0,80.0 520.0,81.0 521.0,81.0 522.0,80.0 523.0,80.0 524.0,79.0 525.0,80.0 526.0,81.0 527.0,79.0 528.0,80.0 529.0,80.0 530.0,80.0 531.0,80.0 532.0,80.0 533.0,78.0 534.0,78.0 535.0,78.0 536.0,77.0 537.0,77.0 538.0,76.0 539.0,76.0 540.0,75.0 541.0,75.0 542.0,75.0 543.0,74.0 544.0,74.0 545.0,73.0 546.0,73.0 547.0,72.0 548.0,73.0 549.0,72.0 550.0,73.0 551.0,72.0 552.0,72.0 553.0,70.0 554.0,72.0 555.0,71.0 556.0,72.0 557.0,71.0 558.0,72.0 559.0,72.0 560.0,71.0 561.0,72.0 562.0,71.0 563.0,71.0 564.0,70.0 565.0,69.0 566.0,69.0 567.0,69.0 568.0,68.0 569.0,68.0 570.0,68.0 571.0,68.0 572.0,67.0 573.0,67.0 574.0,66.0 575.0,66.0 576.0,64.0 577.0,62.0 578.0,60.0 579.0,61.0 580.0,62.0 581.0,60.0 582.0,60.0 583.0,59.0 584.0,60.0 585.0,58.0 586.0,59.0 587.0,58.0 588.0,58.0 589.0,58.0 590.0,57.0 591.0,56.0 592.0,58.0 593.0,56.0 594.0,57.0 595.0,56.0 596.0,57.0 597.0,56.0 598.0,57.0 599.0,57.0 600.0,57.0 601.0,56.0 602.0,56.0 603.0,56.0 604.0,55.0 605.0,55.0 606.0,54.0 607.0,54.0 608.0,55.0 609.0,53.0 610.0,54.0 611.0,53.0 612.0,53.0 613.0,53.0 614.0,53.0 615.0,51.0 616.0,51.0 617.0,49.0 618.0,50.0 619.0,49.0 620.0,48.0 621.0,48.0 622.0,48.0 623.0,46.0 624.0,47.0 625.0,46.0 626.0,47.0 627.0,45.0 628.0,44.0 629.0,44.0 630.0,44.0 631.0,42.0 632.0,42.0 633.0,41.0 634.0,36.0 635.0,38.0 636.0,37.0 637.0,37.0 638.0,36.0 639.0,36.0 640.0,36.0 641.0,35.0 642.0,34.0 643.0,35.0 644.0,33.0 645.0,34.0 646.0,32.0 647.0,33.0 648.0,32.0 649.0,32.0 650.0,30.0 651.0,31.0 652.0,29.0 653.0,29.0 654.0,26.0" fill="none" stroke="#008000" />
	<polyline points="55.0,304.0 56.0,298.0 57.0,304.0 58.0,299.0 59.0,303.0 60.0,299.0 61.0,302.0 62.0,299.0 63.0,301.0 64.0,299.0 65.0,300.0 66.0,298.0 67.0,298.0 68.0,297.0 69.0,297.0 70.0,296.0 71.0,296.0 72.0,295.0 73.0,294.0 74.0,294.0 75.0,294.0 76.0,294.0 77.0,294.0 78.0,294.0 79.0,294.0 80.0,294.0 81.0,294.0 82.0,293.0 83.0,293.0 84.0,293.0 85.0,292.0 86.0,292.0 87.0,291.0 88.0,290.0 89.0,290.0 90.0,290.0 91.0,289.0 92.0,288.0 93.0,287.0 94.0,288.0 95.0,286.0 96.0,287.0 97.0,286.0 98.0,286.0 99.0,285.0 100.0,285.0 101.0,285.0 102.0,284.0 103.0,284.0 104.0,283.0 105.0,282.0 106.0,281.0 107.0,280.0 108.0,280.0 109.0,279.0 110.0,278.0 111.0,278.0 112.0,277.0 113.0,278.0 114.0,277.0 115.0,277.0 116.0,276.0 117.0,276.0 118.0,276.0 119.0,277.0 120.0,275.0 121.0,275.0 122.0,274.0 123.0,274.0 124.0,273.0 125.0,274.0 126.0,273.0 127.0,273.0 128.0,272.0 129.0,271.0 130.0,271.0 131.0,271.0 132.0,269.0 133.0,270.0 134.0,268.0 135.0,269.0 136.0,266.0 137.0,266.0 138.0,266.0 139.0,265.0 140.0,264.0 141.0,264.0 142.0,263.0 143.0,263.0 144.0,261.0 145.0,261.0 146.0,259.0 147.0,260.0 148.0,258.0 149.0,258.0 150.0,258.0 151.0,259.0 152.0,258.0 153.0,258.0 154.0,256.0 155.0,257.0 156.0,256.0 157.0,256.0 158.0,255.0 159.0,255.0 160.0,255.0 161.0,254.0 162.0,253.0 163.0,253.0 164.0,252.0 165.0,252.0 166.0,251.0 167.0,251.0 168.0,251.0 169.0,251.0 170.0,251.0 171.0,249.0 172.0,250.0 173.0,250.0 174.0,250.0 175.0,248.0 176.0,248.0 177.0,248.0 178.0,246.0 179.0,247.0 180.0,246.0 181.0,246.0 182.0,245.0 183.0,245.0 184.0,245.0 185.0,244.0 186.0,243.0 187.0,244.0 188.0,242.0 189.0,242.0 190.0,242.0 191.0,240.0 192.0,241.0 193.0,240.0 194.0,240.0 195.0,239.0 196.0,238.0 197.0,238.0 198.0,238.0 199.0,236.0 200.0,237.0 201.0,235.0 202.0,236.0 203.0,234.0 204.0,233.0 205.0,233.0 206.0,232.0 207.0,233.0 208.0,231.0 209.0,231.0 210.0,229.0 211.0,229.0 212.0,228.0 213.0,227.0 214.0,226.0 215.0,225.0 216.0,221.0 217.0,222.0 218.0,220.0 219.0,219.0 220.0,217.0 221.0,216.0 222.0,213.0 223.0,213.0 224.0,211.0 225.0,212.0 226.0,210.0 227.0,210.0 228.0,209.0 229.0,209.0 230.0,208.0 231.0,208.0 232.0,207.0 233.0,207.0 234.0,207.0 235.0,206.0 236.0,206.0 237.0,206.0 238.0,205.0 239.0,205.0 240.0,205.0 241.0,205.0 242.0,204.0 243.0,204.0 244.0,203.0 245.0,203.0 246.0,202.0 247.0,202.0 248.0,202.0 249.0,201.0 250.0,201.0 251.0,200.0 252.0,200.0 253.0,199.0 254.0,199.0 255.0,199.0 256.0,198.0 257.0,198.0 258.0,197.0 259.0,197.0 260.0,196.0 261.0,196.0 262.0,195.0 263.0,195.0 264.0,195.0 265.0,195.0 266.0,194.0 267.0,194.0 268.0,193.0 269.0,193.0 270.0,193.0 271.0,193.0 272.0,192.0 273.0,192.0 274.0,192.0 275.0,192.0 276.0,191.0 277.0,192.0 278.0,190.0 279.0,191.0 280.0,189.0 281.0,190.0 282.0,188.0 283.0,189.0 284.0,188.0 285.0,189.0 286.0,187.0 287.0,188.0 288.0,186.0 289.0,187.0 290.0,186.0 291.0,186.0 292.0,185.0 293.0,185.0 294.0,185.0 295.0,184.0 296.0,184.0 297.0,183.0 298.0,183.0 299.0,183.0 300.0,182.0 301.0,181.0 302.0,181.0 303.0,181.0 304.0,180.0 305.0,180.0 306.0,180.0 307.0,180.0 308.0,179.0 309.0,178.0 310.0,178.0 311.0,178.0 312.0,177.0 313.0,177.0 314.0,176.0 315.0,175.0 316.0,175.0 317.0,175.0 318.0,175.0 319.0,174.0 320.0,174.0 321.0,173.0 322.0,173.0 323.0,172.0 324.0,172.0 325.0,171.0 326.0,171.0 327.0,171.0 328.0,171.0 329.0,170.0 330.0,169.0 331.0,169.0 332.0,168.0 333.0,168.0 334.0,167.0 335.0,166.0 336.0,165.0 337.0,166.0 338.0,165.0 339.0,165.0 340.0,164.0 341.0,164.0 342.0,164.0 343.0,164.0 344.0,162.0 345.0,162.0 346.0,161.0 347.0,162.0 348.0,161.0 349.0,161.0 350.0,160.0 351.0,160.0 352.0,160.0 353.0,159.0 354.0,158.0 355.0,158.0 356.0,158.0 357.0,158.0 358.0,157.0 359.0,157.0 360.0,156.0 361.0,156.0 362.0,155.0 363.0,155.0 364.0,155.0 365.0,154.0 366.0,154.0 367.0,153.0 368.0,153.0 369.0,153.0 370.0,152.0 371.0,152.0 372.0,151.0 373.0,151.0 374.0,150.0 375.0,150.0 376.0,150.0 377.0,149.0 378.0,149.0 379.0,148.0 380.0,148.0 381.0,147.0 382.0,147.0 383.0,146.0 384.0,145.0 385.0,145.0 386.0,145.0 387.0,144.0 388.0,143.0 389.0,143.0 390.0,143.0 391.0,142.0 392.0,141.0 393.0,141.0 394.0,141.0 395.0,140.0 396.0,140.0 397.0,139.0 398.0,140.0 399.0,138.0 400.0,139.0 401.0,137.0 402.0,138.0 403.0,137.0 404.0,137.0 405.0,135.0 406.0,136.0 407.0,135.0 408.0,135.0 409.0,134.0 410.0,134.0 411.0,133.0 412.0,133.0 413.0,132.0 414.0,132.0 415.0,131.0 416.0,131.0 417.0,130.0 418.0,130.0 419.0,129.0 420.0,129.0 421.0,128.0 422.0,128.0 423.0,127.0 424.0,127.0 425.0,127.0 426.0,126.0 427.0,126.0 428.0,125.0 429.0,125.0 430.0,124.0 431.0,124.0 432.0,123.0 433.0,123.0 434.0,122.0 435.0,122.0 436.0,121.0 437.0,121.0 438.0,120.0 439.0,120.0 440.0,120.0 441.0,119.0 442.0,119.0 443.0,118.0 444.0,118.0 445.0,117.0 446.0,117.0 447.0,116.0 448.0,116.0 449.0,115.0 450.0,115.0 451.0,115.0 452.0,114.0 453.0,113.0 454.0,113.0 455.0,113.0 456.0,112.0 457.0,112.0 458.0,111.0 459.0,110.0 460.0,109.0 461.0,109.0 462.0,108.0 463.0,109.0 464.0,108.0 465.0,108.0 466.0,107.0 467.0,107.0 468.0,106.0 469.0,105.0 470.0,105.0 471.0,105.0 472.0,104.0 473.0,104.0 474.0,104.0 475.0,103.0 476.0,103.0 477.0,102.0 478.0,102.0 479.0,101.0 480.0,100.0 481.0,100.0 482.0,100.0 483.0,100.0 484.0,99.0 485.0,98.0 486.0,98.0 487.0,98.0 488.0,97.0 489.0,96.0 490.0,96.0 491.0,94.0 492.0,94.0 493.0,93.0 494.0,93.0 495.0,93.0 496.0,93.0 497.0,92.0 498.0,92.0 499.0,92.0 500.0,91.0 501.0,91.0 502.0,91.0 503.0,90.0 504.0,90.0 505.0,88.0 506.0,87.0 507.0,87.0 508.0,87.0 509.0,86.0 510.0,86.0 511.0,86.0 512.0,85.0 513.0,84.0 514.0,83.0 515.0,84.0 516.0,83.0 517.0,82.0 518.0,83.0 519.0,81.0 520.0,82.0 521.0,80.0 522.0,81.0 523.0,80.0 524.0,80.0 525.0,79.0 526.0,79.0 527.0,78.0 528.0,78.0 529.0,77.0 530.0,77.0 531.0,76.0 532.0,75.0 533.0,75.0 534.0,75.0 535.0,74.0 536.0,74.0 537.0,73.0 538.0,73.0 539.0,72.0 540.0,72.0 541.0,72.0 542.0,70.0 543.0,72.0 544.0,69.0 545.0,70.0 546.0,68.0 547.0,69.0 548.0,68.0 549.0,68.0 550.0,67.0 551.0,66.0 552.0,66.0 553.0,65.0 554.0,64.0 555.0,64.0 556.0,63.0 557.0,63.0 558.0,63.0 559.0,63.0 560.0,62.0 561.0,62.0 562.0,60.0 563.0,61.0 564.0,60.0 565.0,60.0 566.0,59.0 567.0,57.0 568.0,58.0 569.0,58.0 570.0,57.0 571.0,57.0 572.0,57.0 573.0,56.0 574.0,56.0 575.0,55.0 576.0,55.0 577.0,55.0 578.0,55.0 579.0,52.0 580.0,54.0 581.0,52.0 582.0,53.0 583.0,51.0 584.0,52.0 585.0,51.0 586.0,51.0 587.0,49.0 588.0,50.0 589.0,48.0 590.0,49.0 591.0,47.0 592.0,47.0 593.0,47.0 594.0,47.0 595.0,46.0 596.0,46.0 597.0,45.0 598.0,45.0 599.0,44.0 600.0,43.0 601.0,42.0 602.0,42.0 603.0,42.0 604.0,41.0 605.0,42.0 606.0,40.0 607.0,40.0 608.0,39.0 609.0,39.0 610.0,39.0 611.0,38.0 612.0,38.0 613.0,37.0 614.0,37.0 615.0,36.0 616.0,37.0 617.0,35.0 618.0,36.0 619.0,34.0 620.0,35.0 621.0,34.0 622.0,33.0 623.0,33.0 624.0,32.0 625.0,32.0 626.0,31.0 627.0,32.0 628.0,29.0 629.0,30.0 630.0,27.0 631.0,30.0 632.0,27.0 633.0,29.0 634.0,27.0 635.0,28.0 636.0,26.0 637.0,27.0 638.0,24.0 639.0,26.0 640.0,24.0 641.0,25.0 642.0,20.0 643.0,24.0 644.0,20.0 645.0,24.0 646.0,20.0 647.0,22.0 648.0,19.0 649.0,21.0 650.0,19.0 651.0,20.0 652.0,18.0 653.0,19.0 654.0,18.0" fill="none" stroke="#d0d000" />
	<polyline points="55.0,304.0 56.0,298.0 57.0,303.0 58.0,299.0 59.0,302.0 60.0,299.0 61.0,302.0 62.0,299.0 63.0,301.0 64.0,298.0 65.0,300.0 66.0,298.0 67.0,298.0 68.0,297.0 69.0,297.0 70.0,296.0 71.0,296.0 72.0,295.0 73.0,295.0 74.0,294.0 75.0,293.0 76.0,292.0 77.0,291.0 78.0,291.0 79.0,290.0 80.0,290.0 81.0,290.0 82.0,290.0 83.0,289.0 84.0,288.0 85.0,287.0 86.0,287.0 87.0,287.0 88.0,286.0 89.0,286.0 90.0,286.0 91.0,286.0 92.0,286.0 93.0,286.0 94.0,286.0 95.0,285.0 96.0,285.0 97.0,285.0 98.0,285.0 99.0,284.0 100.0,284.0 101.0,283.0 102.0,282.0 103.0,282.0 104.0,281.0 105.0,281.0 106.0,280.0 107.0,280.0 108.0,280.0 109.0,279.0 110.0,279.0 111.0,278.0 112.0,278.0 113.0,277.0 114.0,276.0 115.0,275.0 116.0,275.0 117.0,275.0 118.0,275.0 119.0,274.0 120.0,274.0 121.0,274.0 122.0,274.0 123.0,273.0 124.0,273.0 125.0,273.0 126.0,271.0 127.0,272.0 128.0,271.0 129.0,270.0 130.0,270.0 131.0,269.0 132.0,269.0 133.0,269.0 134.0,268.0 135.0,268.0 136.0,268.0 137.0,268.0 138.0,267.0 139.0,267.0 140.0,267.0 141.0,266.0 142.0,267.0 143.0,265.0 144.0,265.0 145.0,265.0 146.0,265.0 147.0,264.0 148.0,264.0 149.0,263.0 150.0,263.0 151.0,262.0 152.0,262.0 153.0,262.0 154.0,261.0 155.0,261.0 156.0,260.0 157.0,261.0 158.0,259.0 159.0,260.0 160.0,259.0 161.0,259.0 162.0,258.0 163.0,258.0 164.0,257.0 165.0,257.0 166.0,256.0 167.0,256.0 168.0,254.0 169.0,255.0 170.0,254.0 171.0,254.0 172.0,253.0 173.0,253.0 174.0,253.0 175.0,252.0 176.0,252.0 177.0,251.0 178.0,250.0 179.0,249.0 180.0,247.0 181.0,247.0 182.0,246.0 183.0,245.0 184.0,245.0 185.0,244.0 186.0,243.0 187.0,242.0 188.0,242.0 189.0,242.0 190.0,241.0 191.0,241.0 192.0,240.0 193.0,240.0 194.0,240.0 195.0,240.0 196.0,240.0 197.0,239.0 198.0,240.0 199.0,238.0 200.0,240.0 201.0,239.0 202.0,240.0 203.0,239.0 204.0,239.0 205.0,238.0 206.0,238.0 207.0,238.0 208.0,238.0 209.0,237.0 210.0,236.0 211.0,236.0 212.0,235.0 213.0,235.0 214.0,234.0 215.0,234.0 216.0,234.0 217.0,233.0 218.0,233.0 219.0,232.0 220.0,231.0 221.0,231.0 222.0,230.0 223.0,230.0 224.0,228.0 225.0,228.0 226.0,227.0 227.0,227.0 228.0,225.0 229.0,225.0 230.0,224.0 231.0,224.0 232.0,223.0 233.0,221.0 234.0,221.0 235.0,220.0 236.0,219.0 237.0,218.0 238.0,217.0 239.0,217.0 240.0,215.0 241.0,216.0 242.0,214.0 243.0,214.0 244.0,214.0 245.0,213.0 246.0,213.0 247.0,212.0 248.0,212.0 249.0,211.0 250.0,211.0 251.0,210.0 252.0,210.0 253.0,210.0 254.0,209.0 255.0,209.0 256.0,208.0 257.0,208.0 258.0,209.0 259.0,208.0 260.0,207.0 261.0,208.0 262.0,208.0 263.0,208.0 264.0,207.0 265.0,208.0 266.0,207.0 267.0,207.0 268.0,207.0 269.0,207.0 270.0,206.0 271.0,206.0 272.0,205.0 273.0,205.0 274.0,205.0 275.0,205.0 276.0,205.0 277.0,206.0 278.0,206.0 279.0,206.0 280.0,206.0 281.0,206.0 282.0,206.0 283.0,205.0 284.0,205.0 285.0,204.0 286.0,204.0 287.0,203.0 288.0,203.0 289.0,203.0 290.0,201.0 291.0,202.0 292.0,201.0 293.0,201.0 294.0,200.0 295.0,200.0 296.0,199.0 297.0,199.0 298.0,197.0 299.0,197.0 300.0,196.0 301.0,196.0 302.0,196.0 303.0,194.0 304.0,193.0 305.0,193.0 306.0,192.0 307.0,192.0 308.0,191.0 309.0,191.0 310.0,189.0 311.0,190.0 312.0,187.0 313.0,187.0 314.0,187.0 315.0,186.0 316.0,186.0 317.0,185.0 318.0,185.0 319.0,184.0 320.0,183.0 321.0,182.0 322.0,181.0 323.0,181.0 324.0,181.0 325.0,179.0 326.0,180.0 327.0,180.0 328.0,179.0 329.0,180.0 330.0,179.0 331.0,178.0 332.0,179.0 333.0,178.0 334.0,178.0 335.0,178.0 336.0,178.0 337.0,177.0 338.0,177.0 339.0,176.0 340.0,175.0 341.0,174.0 342.0,173.0 343.0,172.0 344.0,171.0 345.0,171.0 346.0,170.0 347.0,170.0 348.0,169.0 349.0,169.0 350.0,168.0 351.0,168.0 352.0,168.0 353.0,167.0 354.0,167.0 355.0,167.0 356.0,166.0 357.0,164.0 358.0,165.0 359.0,165.0 360.0,165.0 361.0,165.0 362.0,165.0 363.0,165.0 364.0,165.0 365.0,165.0 366.0,165.0 367.0,165.0 368.0,165.0 369.0,164.0 370.0,164.0 371.0,163.0 372.0,163.0 373.0,162.0 374.0,162.0 375.0,161.0 376.0,160.0 377.0,160.0 378.0,159.0 379.0,158.0 380.0,157.0 381.0,157.0 382.0,156.0 383.0,155.0 384.0,155.0 385.0,154.0 386.0,153.0 387.0,152.0 388.0,152.0 389.0,151.0 390.0,151.0 391.0,150.0 392.0,150.0 393.0,149.0 394.0,149.0 395.0,148.0 396.0,147.0 397.0,147.0 398.0,146.0 399.0,146.0 400.0,145.0 401.0,144.0 402.0,144.0 403.0,143.0 404.0,143.0 405.0,143.0 406.0,142.0 407.0,141.0 408.0,142.0 409.0,141.0 410.0,141.0 411.0,139.0 412.0,139.0 413.0,138.0 414.0,138.0 415.0,137.0 416.0,136.0 417.0,135.0 418.0,135.0 419.0,133.0 420.0,133.0 421.0,132.0 422.0,132.0 423.0,131.0 424.0,130.0 425.0,130.0 426.0,129.0 427.0,129.0 428.0,128.0 429.0,127.0 430.0,127.0 431.0,126.0 432.0,126.0 433.0,125.0 434.0,125.0 435.0,124.0 436.0,124.0 437.0,124.0 438.0,123.0 439.0,123.0 440.0,122.0 441.0,121.0 442.0,121.0 443.0,121.0 444.0,121.0 445.0,120.0 446.0,120.0 447.0,120.0 448.0,118.0 449.0,119.0 450.0,118.0 451.0,117.0 452.0,117.0 453.0,116.0 454.0,116.0 455.0,115.0 456.0,114.0 457.0,114.0 458.0,113.0 459.0,113.0 460.0,112.0 461.0,112.0 462.0,112.0 463.0,112.0 464.0,111.0 465.0,110.0 466.0,110.0 467.0,109.0 468.0,109.0 469.0,109.0 470.0,109.0 471.0,108.0 472.0,108.0 473.0,107.0 474.0,106.0 475.0,107.0 476.0,105.0 477.0,105.0 478.0,104.0 479.0,105.0 480.0,103.0 481.0,103.0 482.0,102.0 483.0,101.0 484.0,101.0 485.0,100.0 486.0,100.0 487.0,99.0 488.0,98.0 489.0,96.0 490.0,97.0 491.0,96.0 492.0,96.0 493.0,95.0 494.0,96.0 495.0,95.0 496.0,95.0 497.0,95.0 498.0,94.0 499.0,93.0 500.0,92.0 501.0,92.0 502.0,91.0 503.0,90.0 504.0,90.0 505.0,89.0 506.0,89.0 507.0,88.0 508.0,88.0 509.0,84.0 510.0,86.0 511.0,83.0 512.0,83.0 513.0,83.0 514.0,82.0 515.0,82.0 516.0,81.0 517.0,81.0 518.0,79.0 519.0,80.0 520.0,79.0 521.0,78.0 522.0,78.0 523.0,78.0 524.0,77.0 525.0,76.0 526.0,76.0 527.0,76.0 528.0,76.0 529.0,74.0 530.0,74.0 531.0,74.0 532.0,74.0 533.0,73.0 534.0,72.0 535.0,73.0 536.0,72.0 537.0,71.0 538.0,70.0 539.0,70.0 540.0,70.0 541.0,70.0 542.0,70.0 543.0,68.0 544.0,68.0 545.0,69.0 546.0,68.0 547.0,68.0 548.0,67.0 549.0,66.0 550.0,67.0 551.0,67.0 552.0,65.0 553.0,66.0 554.0,66.0 555.0,66.0 556.0,65.0 557.0,66.0 558.0,65.0 559.0,66.0 560.0,64.0 561.0,64.0 562.0,63.0 563.0,64.0 564.0,62.0 565.0,62.0 566.0,60.0 567.0,61.0 568.0,61.0 569.0,61.0 570.0,60.0 571.0,61.0 572.0,60.0 573.0,60.0 574.0,59.0 575.0,59.0 576.0,59.0 577.0,59.0 578.0,59.0 579.0,59.0 580.0,58.0 581.0,58.0 582.0,58.0 583.0,58.0 584.0,58.0 585.0,57.0 586.0,57.0 587.0,56.0 588.0,57.0 589.0,56.0 590.0,56.0 591.0,55.0 592.0,55.0 593.0,54.0 594.0,55.0 595.0,54.0 596.0,55.0 597.0,54.0 598.0,55.0 599.0,54.0 600.0,54.0 601.0,54.0 602.0,54.0 603.0,53.0 604.0,52.0 605.0,51.0 606.0,51.0 607.0,50.0 608.0,49.0 609.0,50.0 610.0,50.0 611.0,50.0 612.0,49.0 613.0,49.0 614.0,48.0 615.0,48.0 616.0,48.0 617.0,46.0 618.0,46.0 619.0,44.0 620.0,43.0 621.0,41.0 622.0,41.0 623.0,40.0 624.0,39.0 625.0,38.0 626.0,38.0 627.0,38.0 628.0,36.0 629.0,35.0 630.0,35.0 631.0,35.0 632.0,35.0 633.0,35.0 634.0,34.0 635.0,35.0 636.0,33.0 637.0,33.0 638.0,31.0 639.0,33.0 640.0,31.0 641.0,32.0 642.0,31.0 643.0,31.0 644.0,30.0 645.0,29.0 646.0,27.0 647.0,28.0 648.0,27.0 649.0,27.0 650.0,26.0 651.0,26.0 652.0,23.0 653.0,22.0 654.0,22.0" fill="none" stroke="#fb46bc" />
	<polyline points="55.0,304.0 56.0,298.0 57.0,303.0 58.0,299.0 59.0,302.0 60.0,299.0 61.0,301.0 62.0,298.0 63.0,300.0 64.0,298.0 65.0,299.0 66.0,297.0 67.0,298.0 68.0,296.0 69.0,297.0 70.0,295.0 71.0,295.0 72.0,294.0 73.0,293.0 74.0,293.0 75.0,292.0 76.0,292.0 77.0,292.0 78.0,292.0 79.0,291.0 80.0,290.0 81.0,290.0 82.0,290.0 83.0,289.0 84.0,288.0 85.0,288.0 86.0,288.0 87.0,287.0 88.0,287.0 89.0,287.0 90.0,286.0 91.0,286.0 92.0,286.0 93.0,285.0 94.0,285.0 95.0,285.0 96.0,285.0 97.0,284.0 98.0,284.0 99.0,283.0 100.0,283.0 101.0,282.0 102.0,282.0 103.0,281.0 104.0,281.0 105.0,280.0 106.0,280.0 107.0,279.0 108.0,280.0 109.0,278.0 110.0,279.0 111.0,278.0 112.0,277.0 113.0,277.0 114.0,276.0 115.0,276.0 116.0,275.0 117.0,275.0 118.0,274.0 119.0,273.0 120.0,273.0 121.0,273.0 122.0,272.0 123.0,272.0 124.0,271.0 125.0,271.0 126.0,269.0 127.0,269.0 128.0,268.0 129.0,268.0 130.0,268.0 131.0,267.0 132.0,267.0 133.0,267.0 134.0,266.0 135.0,266.0 136.0,265.0 137.0,265.0 138.0,264.0 139.0,264.0 140.0,263.0 141.0,262.0 142.0,261.0 143.0,261.0 144.0,260.0 145.0,259.0 146.0,258.0 147.0,257.0 148.0,256.0 149.0,256.0 150.0,254.0 151.0,254.0 152.0,253.0 153.0,252.0 154.0,252.0 155.0,251.0 156.0,250.0 157.0,251.0 158.0,250.0 159.0,249.0 160.0,249.0 161.0,249.0 162.0,248.0 163.0,248.0 164.0,247.0 165.0,247.0 166.0,246.0 167.0,246.0 168.0,245.0 169.0,245.0 170.0,245.0 171.0,245.0 172.0,244.0 173.0,243.0 174.0,243.0 175.0,243.0 176.0,243.0 177.0,243.0 178.0,242.0 179.0,242.0 180.0,242.0 181.0,242.0 182.0,241.0 183.0,241.0 184.0,241.0 185.0,241.0 186.0,241.0 187.0,241.0 188.0,241.0 189.0,240.0 190.0,240.0 191.0,239.0 192.0,240.0 193.0,238.0 194.0,239.0 195.0,238.0 196.0,238.0 197.0,237.0 198.0,238.0 199.0,237.0 200.0,236.0 201.0,236.0 202.0,235.0 203.0,234.0 204.0,233.0 205.0,233.0 206.0,232.0 207.0,232.0 208.0,231.0 209.0,232.0 210.0,231.0 211.0,230.0 212.0,229.0 213.0,229.0 214.0,227.0 215.0,227.0 216.0,227.0 217.0,226.0 218.0,225.0 219.0,224.0 220.0,223.0 221.0,222.0 222.0,222.0 223.0,221.0 224.0,220.0 225.0,219.0 226.0,218.0 227.0,219.0 228.0,218.0 229.0,217.0 230.0,217.0 231.0,216.0 232.0,215.0 233.0,215.0 234.0,215.0 235.0,213.0 236.0,213.0 237.0,213.0 238.0,212.0 239.0,212.0 240.0,211.0 241.0,211.0 242.0,211.0 243.0,210.0 244.0,210.0 245.0,209.0 246.0,209.0 247.0,208.0 248.0,208.0 249.0,207.0 250.0,207.0 251.0,206.0 252.0,206.0 253.0,205.0 254.0,205.0 255.0,204.0 256.0,203.0 257.0,203.0 258.0,202.0 259.0,202.0 260.0,201.0 261.0,201.0 262.0,200.0 263.0,200.0 264.0,200.0 265.0,200.0 266.0,199.0 267.0,198.0 268.0,198.0 269.0,198.0 270.0,197.0 271.0,196.0 272.0,196.0 273.0,196.0 274.0,195.0 275.0,195.0 276.0,194.0 277.0,194.0 278.0,193.0 279.0,193.0 280.0,192.0 281.0,192.0 282.0,190.0 283.0,191.0 284.0,190.0 285.0,190.0 286.0,189.0 287.0,189.0 288.0,188.0 289.0,189.0 290.0,187.0 291.0,187.0 292.0,186.0 293.0,186.0 294.0,186.0 295.0,186.0 296.0,185.0 297.0,185.0 298.0,183.0 299.0,184.0 300.0,183.0 301.0,183.0 302.0,182.0 303.0,182.0 304.0,181.0 305.0,181.0 306.0,179.0 307.0,180.0 308.0,179.0 309.0,179.0 310.0,178.0 311.0,178.0 312.0,177.0 313.0,177.0 314.0,177.0 315.0,176.0 316.0,176.0 317.0,174.0 318.0,174.0 319.0,174.0 320.0,173.0 321.0,173.0 322.0,173.0 323.0,172.0 324.0,172.0 325.0,171.0 326.0,171.0 327.0,170.0 328.0,170.0 329.0,169.0 330.0,169.0 331.0,169.0 332.0,168.0 333.0,167.0 334.0,167.0 335.0,167.0 336.0,166.0 337.0,166.0 338.0,165.0 339.0,164.0 340.0,164.0 341.0,164.0 342.0,163.0 343.0,163.0 344.0,162.0 345.0,162.0 346.0,161.0 347.0,160.0 348.0,160.0 349.0,159.0 350.0,159.0 351.0,158.0 352.0,158.0 353.0,158.0 354.0,157.0 355.0,157.0 356.0,155.0 357.0,156.0 358.0,155.0 359.0,155.0 360.0,154.0 361.0,154.0 362.0,153.0 363.0,153.0 364.0,152.0 365.0,152.0 366.0,151.0 367.0,151.0 368.0,151.0 369.0,150.0 370.0,150.0 371.0,149.0 372.0,149.0 373.0,148.0 374.0,148.0 375.0,148.0 376.0,146.0 377.0,146.0 378.0,146.0 379.0,146.0 380.0,145.0 381.0,144.0 382.0,144.0 383.0,143.0 384.0,142.0 385.0,142.0 386.0,142.0 387.0,141.0 388.0,141.0 389.0,140.0 390.0,140.0 391.0,139.0 392.0,139.0 393.0,138.0 394.0,138.0 395.0,138.0 396.0,137.0 397.0,137.0 398.0,136.0 399.0,136.0 400.0,136.0 401.0,135.0 402.0,135.0 403.0,134.0 404.0,133.0 405.0,133.0 406.0,132.0 407.0,133.0 408.0,132.0 409.0,131.0 410.0,131.0 411.0,130.0 412.0,130.0 413.0,129.0 414.0,129.0 415.0,129.0 416.0,128.0 417.0,128.0 418.0,127.0 419.0,127.0 420.0,127.0 421.0,126.0 422.0,126.0 423.0,125.0 424.0,125.0 425.0,124.0 426.0,124.0 427.0,123.0 428.0,123.0 429.0,123.0 430.0,122.0 431.0,122.0 432.0,121.0 433.0,121.0 434.0,120.0 435.0,120.0 436.0,119.0 437.0,117.0 438.0,118.0 439.0,117.0 440.0,118.0 441.0,116.0 442.0,117.0 443.0,115.0 444.0,116.0 445.0,115.0 446.0,114.0 447.0,114.0 448.0,113.0 449.0,114.0 450.0,113.0 451.0,112.0 452.0,112.0 453.0,111.0 454.0,111.0 455.0,110.0 456.0,110.0 457.0,109.0 458.0,109.0 459.0,109.0 460.0,109.0 461.0,108.0 462.0,107.0 463.0,107.0 464.0,106.0 465.0,106.0 466.0,106.0 467.0,105.0 468.0,105.0 469.0,105.0 470.0,104.0 471.0,104.0 472.0,103.0 473.0,103.0 474.0,103.0 475.0,102.0 476.0,102.0 477.0,101.0 478.0,101.0 479.0,100.0 480.0,100.0 481.0,99.0 482.0,99.0 483.0,98.0 484.0,98.0 485.0,98.0 486.0,97.0 487.0,96.0 488.0,96.0 489.0,95.0 490.0,95.0 491.0,94.0 492.0,94.0 493.0,93.0 494.0,93.0 495.0,92.0 496.0,92.0 497.0,92.0 498.0,91.0 499.0,91.0 500.0,90.0 501.0,90.0 502.0,89.0 503.0,89.0 504.0,89.0 505.0,88.0 506.0,88.0 507.0,86.0 508.0,86.0 509.0,86.0 510.0,86.0 511.0,84.0 512.0,84.0 513.0,84.0 514.0,83.0 515.0,84.0 516.0,83.0 517.0,82.0 518.0,82.0 519.0,81.0 520.0,80.0 521.0,80.0 522.0,80.0 523.0,79.0 524.0,79.0 525.0,77.0 526.0,76.0 527.0,76.0 528.0,75.0 529.0,75.0 530.0,75.0 531.0,74.0 532.0,74.0 533.0,72.0 534.0,73.0 535.0,72.0 536.0,72.0 537.0,72.0 538.0,72.0 539.0,71.0 540.0,71.0 541.0,70.0 542.0,70.0 543.0,70.0 544.0,69.0 545.0,69.0 546.0,68.0 547.0,68.0 548.0,67.0 549.0,67.0 550.0,66.0 551.0,66.0 552.0,65.0 553.0,65.0 554.0,64.0 555.0,64.0 556.0,63.0 557.0,63.0 558.0,62.0 559.0,62.0 560.0,61.0 561.0,62.0 562.0,60.0 563.0,61.0 564.0,60.0 565.0,60.0 566.0,59.0 567.0,59.0 568.0,58.0 569.0,57.0 570.0,56.0 571.0,57.0 572.0,55.0 573.0,56.0 574.0,55.0 575.0,55.0 576.0,54.0 577.0,54.0 578.0,53.0 579.0,53.0 580.0,52.0 581.0,52.0 582.0,52.0 583.0,51.0 584.0,51.0 585.0,49.0 586.0,49.0 587.0,48.0 588.0,48.0 589.0,47.0 590.0,48.0 591.0,47.0 592.0,47.0 593.0,45.0 594.0,46.0 595.0,45.0 596.0,45.0 597.0,44.0 598.0,44.0 599.0,43.0 600.0,43.0 601.0,42.0 602.0,41.0 603.0,40.0 604.0,40.0 605.0,40.0 606.0,40.0 607.0,39.0 608.0,39.0 609.0,38.0 610.0,38.0 611.0,37.0 612.0,37.0 613.0,36.0 614.0,36.0 615.0,34.0 616.0,35.0 617.0,34.0 618.0,34.0 619.0,33.0 620.0,33.0 621.0,32.0 622.0,33.0 623.0,32.0 624.0,32.0 625.0,31.0 626.0,31.0 627.0,30.0 628.0,30.0 629.0,29.0 630.0,29.0 631.0,28.0 632.0,27.0 633.0,27.0 634.0,26.0 635.0,26.0 636.0,25.0 637.0,26.0 638.0,24.0 639.0,25.0 640.0,23.0 641.0,24.0 642.0,22.0 643.0,23.0 644.0,21.0 645.0,22.0 646.0,20.0 647.0,21.0 648.0,19.0 649.0,20.0 650.0,18.0 651.0,19.0 652.0,18.0 653.0,18.0 654.0,17.0" fill="none" stroke="#0000ff" />
	<polyline points="55.0,304.0 56.0,298.0 57.0,303.0 58.0,299.0 59.0,302.0 60.0,299.0 61.0,301.0 62.0,299.0 63.0,300.0 64.0,298.0 65.0,299.0 66.0,298.0 67.0,298.0 68.0,297.0 69.0,297.0 70.0,296.0 71.0,295.0 72.0,294.0 73.0,295.0 74.0,294.0 75.0,294.0 76.0,294.0 77.0,294.0 78.0,294.0 79.0,293.0 80.0,293.0 81.0,292.0 82.0,292.0 83.0,292.0 84.0,291.0 85.0,291.0 86.0,290.0 87.0,291.0 88.0,289.0 89.0,290.0 90.0,289.0 91.0,289.0 92.0,288.0 93.0,287.0 94.0,287.0 95.0,286.0 96.0,285.0 97.0,284.0 98.0,284.0 99.0,283.0 100.0,282.0 101.0,282.0 102.0,282.0 103.0,282.0 104.0,281.0 105.0,281.0 106.0,280.0 107.0,279.0 108.0,279.0 109.0,278.0 110.0,278.0 111.0,277.0 112.0,276.0 113.0,276.0 114.0,275.0 115.0,275.0 116.0,274.0 117.0,274.0 118.0,273.0 119.0,274.0 120.0,273.0 121.0,272.0 122.0,272.0 123.0,272.0 124.0,271.0 125.0,271.0 126.0,270.0 127.0,269.0 128.0,269.0 129.0,269.0 130.0,268.0 131.0,269.0 132.0,267.0 133.0,267.0 134.0,265.0 135.0,265.0 136.0,264.0 137.0,264.0 138.0,263.0 139.0,262.0 140.0,261.0 141.0,261.0 142.0,260.0 143.0,260.0 144.0,259.0 145.0,260.0 146.0,260.0 147.0,260.0 148.0,260.0 149.0,260.0 150.0,258.0 151.0,259.0 152.0,259.0 153.0,259.0 154.0,260.0 155.0,260.0 156.0,260.0 157.0,260.0 158.0,260.0 159.0,260.0 160.0,259.0 161.0,259.0 162.0,257.0 163.0,257.0 164.0,257.0 165.0,256.0 166.0,256.0 167.0,256.0 168.0,255.0 169.0,255.0 170.0,255.0 171.0,255.0 172.0,254.0 173.0,253.0 174.0,254.0 175.0,253.0 176.0,253.0 177.0,252.0 178.0,252.0 179.0,252.0 180.0,251.0 181.0,252.0 182.0,250.0 183.0,251.0 184.0,250.0 185.0,250.0 186.0,250.0 187.0,249.0 188.0,249.0 189.0,249.0 190.0,248.0 191.0,249.0 192.0,248.0 193.0,247.0 194.0,247.0 195.0,247.0 196.0,247.0 197.0,246.0 198.0,247.0 199.0,247.0 200.0,246.0 201.0,246.0 202.0,246.0 203.0,245.0 204.0,245.0 205.0,244.0 206.0,243.0 207.0,243.0 208.0,242.0 209.0,241.0 210.0,241.0 211.0,241.0 212.0,241.0 213.0,240.0 214.0,239.0 215.0,238.0 216.0,238.0 217.0,237.0 218.0,236.0 219.0,235.0 220.0,234.0 221.0,234.0 222.0,233.0 223.0,232.0 224.0,231.0 225.0,231.0 226.0,229.0 227.0,228.0 228.0,227.0 229.0,225.0 230.0,224.0 231.0,223.0 232.0,222.0 233.0,222.0 234.0,221.0 235.0,221.0 236.0,222.0 237.0,221.0 238.0,220.0 239.0,220.0 240.0,220.0 241.0,219.0 242.0,219.0 243.0,219.0 244.0,219.0 245.0,219.0 246.0,218.0 247.0,217.0 248.0,217.0 249.0,216.0 250.0,215.0 251.0,215.0 252.0,214.0 253.0,213.0 254.0,214.0 255.0,213.0 256.0,213.0 257.0,213.0 258.0,213.0 259.0,212.0 260.0,212.0 261.0,212.0 262.0,212.0 263.0,212.0 264.0,211.0 265.0,211.0 266.0,210.0 267.0,210.0 268.0,210.0 269.0,210.0 270.0,208.0 271.0,208.0 272.0,208.0 273.0,208.0 274.0,207.0 275.0,207.0 276.0,207.0 277.0,206.0 278.0,206.0 279.0,205.0 280.0,205.0 281.0,204.0 282.0,204.0 283.0,204.0 284.0,204.0 285.0,204.0 286.0,203.0 287.0,201.0 288.0,201.0 289.0,200.0 290.0,199.0 291.0,199.0 292.0,197.0 293.0,198.0 294.0,197.0 295.0,197.0 296.0,195.0 297.0,196.0 298.0,194.0 299.0,194.0 300.0,194.0 301.0,193.0 302.0,191.0 303.0,191.0 304.0,191.0 305.0,190.0 306.0,189.0 307.0,189.0 308.0,187.0 309.0,188.0 310.0,187.0 311.0,186.0 312.0,186.0 313.0,184.0 314.0,183.0 315.0,182.0 316.0,183.0 317.0,181.0 318.0,182.0 319.0,181.0 320.0,180.0 321.0,180.0 322.0,180.0 323.0,179.0 324.0,178.0 325.0,178.0 326.0,177.0 327.0,176.0 328.0,176.0 329.0,176.0 330.0,177.0 331.0,176.0 332.0,176.0 333.0,176.0 334.0,175.0 335.0,174.0 336.0,174.0 337.0,173.0 338.0,172.0 339.0,173.0 340.0,172.0 341.0,171.0 342.0,170.0 343.0,169.0 344.0,169.0 345.0,169.0 346.0,167.0 347.0,167.0 348.0,167.0 349.0,167.0 350.0,166.0 351.0,165.0 352.0,165.0 353.0,165.0 354.0,164.0 355.0,163.0 356.0,163.0 357.0,162.0 358.0,161.0 359.0,161.0 360.0,160.0 361.0,158.0 362.0,158.0 363.0,157.0 364.0,156.0 365.0,155.0 366.0,155.0 367.0,154.0 368.0,154.0 369.0,151.0 370.0,152.0 371.0,151.0 372.0,150.0 373.0,149.0 374.0,148.0 375.0,146.0 376.0,145.0 377.0,146.0 378.0,146.0 379.0,145.0 380.0,145.0 381.0,143.0 382.0,144.0 383.0,143.0 384.0,143.0 385.0,142.0 386.0,142.0 387.0,141.0 388.0,142.0 389.0,141.0 390.0,142.0 391.0,141.0 392.0,141.0 393.0,140.0 394.0,141.0 395.0,140.0 396.0,140.0 397.0,140.0 398.0,139.0 399.0,139.0 400.0,138.0 401.0,138.0 402.0,138.0 403.0,137.0 404.0,137.0 405.0,136.0 406.0,136.0 407.0,136.0 408.0,135.0 409.0,134.0 410.0,134.0 411.0,134.0 412.0,133.0 413.0,133.0 414.0,133.0 415.0,132.0 416.0,132.0 417.0,132.0 418.0,133.0 419.0,132.0 420.0,131.0 421.0,131.0 422.0,131.0 423.0,129.0 424.0,130.0 425.0,129.0 426.0,128.0 427.0,127.0 428.0,127.0 429.0,126.0 430.0,125.0 431.0,125.0 432.0,124.0 433.0,124.0 434.0,123.0 435.0,124.0 436.0,122.0 437.0,121.0 438.0,121.0 439.0,120.0 440.0,120.0 441.0,120.0 442.0,120.0 443.0,118.0 444.0,119.0 445.0,117.0 446.0,118.0 447.0,117.0 448.0,117.0 449.0,117.0 450.0,116.0 451.0,116.0 452.0,117.0 453.0,116.0 454.0,116.0 455.0,117.0 456.0,117.0 457.0,117.0 458.0,117.0 459.0,118.0 460.0,117.0 461.0,118.0 462.0,118.0 463.0,117.0 464.0,116.0 465.0,116.0 466.0,116.0 467.0,116.0 468.0,116.0 469.0,116.0 470.0,115.0 471.0,114.0 472.0,115.0 473.0,115.0 474.0,114.0 475.0,114.0 476.0,113.0 477.0,113.0 478.0,112.0 479.0,113.0 480.0,112.0 481.0,112.0 482.0,111.0 483.0,110.0 484.0,111.0 485.0,111.0 486.0,111.0 487.0,110.0 488.0,109.0 489.0,110.0 490.0,109.0 491.0,108.0 492.0,108.0 493.0,108.0 494.0,108.0 495.0,108.0 496.0,108.0 497.0,107.0 498.0,106.0 499.0,105.0 500.0,105.0 501.0,105.0 502.0,104.0 503.0,105.0 504.0,103.0 505.0,103.0 506.0,104.0 507.0,102.0 508.0,103.0 509.0,102.0 510.0,101.0 511.0,100.0 512.0,99.0 513.0,99.0 514.0,98.0 515.0,97.0 516.0,97.0 517.0,96.0 518.0,94.0 519.0,94.0 520.0,93.0 521.0,92.0 522.0,90.0 523.0,89.0 524.0,89.0 525.0,88.0 526.0,87.0 527.0,85.0 528.0,85.0 529.0,84.0 530.0,84.0 531.0,83.0 532.0,83.0 533.0,81.0 534.0,81.0 535.0,80.0 536.0,80.0 537.0,79.0 538.0,79.0 539.0,78.0 540.0,77.0 541.0,77.0 542.0,76.0 543.0,76.0 544.0,75.0 545.0,74.0 546.0,73.0 547.0,72.0 548.0,71.0 549.0,71.0 550.0,70.0 551.0,69.0 552.0,68.0 553.0,67.0 554.0,67.0 555.0,65.0 556.0,65.0 557.0,64.0 558.0,63.0 559.0,62.0 560.0,61.0 561.0,61.0 562.0,60.0 563.0,60.0 564.0,59.0 565.0,58.0 566.0,58.0 567.0,57.0 568.0,57.0 569.0,57.0 570.0,55.0 571.0,55.0 572.0,53.0 573.0,54.0 574.0,52.0 575.0,52.0 576.0,52.0 577.0,51.0 578.0,51.0 579.0,50.0 580.0,50.0 581.0,49.0 582.0,50.0 583.0,49.0 584.0,47.0 585.0,48.0 586.0,48.0 587.0,47.0 588.0,47.0 589.0,46.0 590.0,47.0 591.0,45.0 592.0,46.0 593.0,45.0 594.0,46.0 595.0,46.0 596.0,46.0 597.0,45.0 598.0,46.0 599.0,45.0 600.0,46.0 601.0,45.0 602.0,46.0 603.0,45.0 604.0,45.0 605.0,45.0 606.0,45.0 607.0,45.0 608.0,44.0 609.0,44.0 610.0,44.0 611.0,43.0 612.0,41.0 613.0,41.0 614.0,40.0 615.0,40.0 616.0,39.0 617.0,38.0 618.0,38.0 619.0,37.0 620.0,37.0 621.0,35.0 622.0,35.0 623.0,34.0 624.0,33.0 625.0,33.0 626.0,32.0 627.0,30.0 628.0,31.0 629.0,30.0 630.0,29.0 631.0,29.0 632.0,28.0 633.0,27.0 634.0,26.0 635.0,26.0 636.0,25.0 637.0,26.0 638.0,24.0 639.0,24.0 640.0,23.0 641.0,24.0 642.0,23.0 643.0,24.0 644.0,22.0 645.0,23.0 646.0,23.0 647.0,22.0 648.0,21.0 649.0,23.0 650.0,22.0 651.0,21.0 652.0,21.0 653.0,22.0 654.0,22.0" fill="none" stroke="#00bfff" />
	<polyline points="55.0,304.0 56.0,298.0 57.0,303.0 58.0,299.0 59.0,302.0 60.0,299.0 61.0,302.0 62.0,299.0 63.0,301.0 64.0,298.0 65.0,300.0 66.0,298.0 67.0,299.0 68.0,297.0 69.0,298.0 70.0,297.0 71.0,297.0 72.0,296.0 73.0,296.0 74.0,295.0 75.0,295.0 76.0,293.0 77.0,293.0 78.0,292.0 79.0,292.0 80.0,292.0 81.0,292.0 82.0,292.0 83.0,292.0 84.0,292.0 85.0,291.0 86.0,291.0 87.0,291.0 88.0,291.0 89.0,290.0 90.0,290.0 91.0,290.0 92.0,289.0 93.0,289.0 94.0,288.0 95.0,288.0 96.0,288.0 97.0,287.0 98.0,287.0 99.0,286.0 100.0,286.0 101.0,285.0 102.0,285.0 103.0,284.0 104.0,284.0 105.0,283.0 106.0,283.0 107.0,282.0 108.0,282.0 109.0,281.0 110.0,281.0 111.0,279.0 112.0,279.0 113.0,278.0 114.0,277.0 115.0,276.0 116.0,275.0 117.0,274.0 118.0,274.0 119.0,273.0 120.0,273.0 121.0,272.0 122.0,271.0 123.0,271.0 124.0,271.0 125.0,270.0 126.0,269.0 127.0,269.0 128.0,269.0 129.0,269.0 130.0,268.0 131.0,268.0 132.0,267.0 133.0,267.0 134.0,267.0 135.0,266.0 136.0,267.0 137.0,267.0 138.0,265.0 139.0,265.0 140.0,264.0 141.0,264.0 142.0,264.0 143.0,263.0 144.0,264.0 145.0,264.0 146.0,265.0 147.0,264.0 148.0,265.0 149.0,264.0 150.0,263.0 151.0,264.0 152.0,263.0 153.0,263.0 154.0,263.0 155.0,262.0 156.0,261.0 157.0,262.0 158.0,261.0 159.0,261.0 160.0,260.0 161.0,260.0 162.0,259.0 163.0,259.0 164.0,258.0 165.0,258.0 166.0,257.0 167.0,257.0 168.0,256.0 169.0,255.0 170.0,254.0 171.0,254.0 172.0,252.0 173.0,252.0 174.0,251.0 175.0,251.0 176.0,250.0 177.0,250.0 178.0,248.0 179.0,249.0 180.0,247.0 181.0,246.0 182.0,244.0 183.0,244.0 184.0,243.0 185.0,242.0 186.0,241.0 187.0,240.0 188.0,239.0 189.0,238.0 190.0,237.0 191.0,237.0 192.0,236.0 193.0,235.0 194.0,234.0 195.0,233.0 196.0,232.0 197.0,232.0 198.0,231.0 199.0,230.0 200.0,229.0 201.0,229.0 202.0,228.0 203.0,228.0 204.0,227.0 205.0,227.0 206.0,226.0 207.0,226.0 208.0,226.0 209.0,225.0 210.0,225.0 211.0,225.0 212.0,224.0 213.0,224.0 214.0,223.0 215.0,223.0 216.0,223.0 217.0,222.0 218.0,223.0 219.0,223.0 220.0,222.0 221.0,223.0 222.0,222.0 223.0,223.0 224.0,222.0 225.0,223.0 226.0,222.0 227.0,224.0 228.0,223.0 229.0,224.0 230.0,223.0 231.0,225.0 232.0,225.0 233.0,226.0 234.0,226.0 235.0,227.0 236.0,227.0 237.0,227.0 238.0,227.0 239.0,228.0 240.0,228.0 241.0,228.0 242.0,228.0 243.0,229.0 244.0,228.0 245.0,228.0 246.0,227.0 247.0,227.0 248.0,227.0 249.0,227.0 250.0,226.0 251.0,226.0 252.0,226.0 253.0,226.0 254.0,225.0 255.0,225.0 256.0,224.0 257.0,224.0 258.0,223.0 259.0,222.0 260.0,222.0 261.0,221.0 262.0,220.0 263.0,220.0 264.0,219.0 265.0,219.0 266.0,218.0 267.0,217.0 268.0,217.0 269.0,216.0 270.0,215.0 271.0,214.0 272.0,213.0 273.0,211.0 274.0,209.0 275.0,209.0 276.0,207.0 277.0,206.0 278.0,204.0 279.0,203.0 280.0,202.0 281.0,202.0 282.0,200.0 283.0,201.0 284.0,199.0 285.0,200.0 286.0,197.0 287.0,197.0 288.0,196.0 289.0,195.0 290.0,194.0 291.0,194.0 292.0,194.0 293.0,193.0 294.0,191.0 295.0,191.0 296.0,191.0 297.0,190.0 298.0,189.0 299.0,188.0 300.0,187.0 301.0,188.0 302.0,187.0 303.0,186.0 304.0,185.0 305.0,185.0 306.0,185.0 307.0,185.0 308.0,184.0 309.0,184.0 310.0,184.0 311.0,184.0 312.0,183.0 313.0,183.0 314.0,182.0 315.0,183.0 316.0,183.0 317.0,182.0 318.0,182.0 319.0,181.0 320.0,182.0 321.0,181.0 322.0,182.0 323.0,182.0 324.0,182.0 325.0,183.0 326.0,184.0 327.0,184.0 328.0,184.0 329.0,184.0 330.0,183.0 331.0,184.0 332.0,184.0 333.0,184.0 334.0,182.0 335.0,182.0 336.0,181.0 337.0,179.0 338.0,178.0 339.0,177.0 340.0,176.0 341.0,176.0 342.0,175.0 343.0,175.0 344.0,173.0 345.0,174.0 346.0,174.0 347.0,173.0 348.0,173.0 349.0,171.0 350.0,173.0 351.0,173.0 352.0,174.0 353.0,173.0 354.0,173.0 355.0,173.0 356.0,173.0 357.0,173.0 358.0,172.0 359.0,173.0 360.0,171.0 361.0,171.0 362.0,171.0 363.0,172.0 364.0,172.0 365.0,171.0 366.0,172.0 367.0,171.0 368.0,169.0 369.0,169.0 370.0,168.0 371.0,167.0 372.0,168.0 373.0,166.0 374.0,166.0 375.0,165.0 376.0,164.0 377.0,163.0 378.0,162.0 379.0,162.0 380.0,161.0 381.0,160.0 382.0,159.0 383.0,158.0 384.0,158.0 385.0,156.0 386.0,156.0 387.0,155.0 388.0,154.0 389.0,152.0 390.0,151.0 391.0,150.0 392.0,151.0 393.0,149.0 394.0,149.0 395.0,148.0 396.0,148.0 397.0,147.0 398.0,146.0 399.0,145.0 400.0,145.0 401.0,145.0 402.0,143.0 403.0,143.0 404.0,142.0 405.0,142.0 406.0,140.0 407.0,141.0 408.0,136.0 409.0,138.0 410.0,138.0 411.0,138.0 412.0,138.0 413.0,137.0 414.0,136.0 415.0,136.0 416.0,135.0 417.0,134.0 418.0,134.0 419.0,132.0 420.0,133.0 421.0,133.0 422.0,132.0 423.0,131.0 424.0,132.0 425.0,130.0 426.0,130.0 427.0,130.0 428.0,130.0 429.0,129.0 430.0,128.0 431.0,127.0 432.0,128.0 433.0,127.0 434.0,126.0 435.0,126.0 436.0,126.0 437.0,126.0 438.0,125.0 439.0,125.0 440.0,124.0 441.0,124.0 442.0,123.0 443.0,122.0 444.0,122.0 445.0,121.0 446.0,121.0 447.0,120.0 448.0,120.0 449.0,118.0 450.0,119.0 451.0,118.0 452.0,117.0 453.0,117.0 454.0,116.0 455.0,115.0 456.0,115.0 457.0,114.0 458.0,114.0 459.0,114.0 460.0,114.0 461.0,112.0 462.0,111.0 463.0,111.0 464.0,110.0 465.0,109.0 466.0,108.0 467.0,108.0 468.0,107.0 469.0,105.0 470.0,105.0 471.0,105.0 472.0,105.0 473.0,104.0 474.0,104.0 475.0,103.0 476.0,103.0 477.0,102.0 478.0,102.0 479.0,102.0 480.0,100.0 481.0,100.0 482.0,100.0 483.0,99.0 484.0,99.0 485.0,98.0 486.0,97.0 487.0,97.0 488.0,96.0 489.0,96.0 490.0,96.0 491.0,96.0 492.0,96.0 493.0,94.0 494.0,96.0 495.0,95.0 496.0,95.0 497.0,95.0 498.0,94.0 499.0,94.0 500.0,94.0 501.0,93.0 502.0,93.0 503.0,92.0 504.0,92.0 505.0,92.0 506.0,92.0 507.0,92.0 508.0,91.0 509.0,90.0 510.0,89.0 511.0,89.0 512.0,89.0 513.0,87.0 514.0,88.0 515.0,88.0 516.0,87.0 517.0,87.0 518.0,86.0 519.0,86.0 520.0,86.0 521.0,85.0 522.0,84.0 523.0,84.0 524.0,83.0 525.0,80.0 526.0,82.0 527.0,80.0 528.0,80.0 529.0,79.0 530.0,79.0 531.0,78.0 532.0,79.0 533.0,79.0 534.0,78.0 535.0,78.0 536.0,77.0 537.0,78.0 538.0,78.0 539.0,77.0 540.0,77.0 541.0,77.0 542.0,77.0 543.0,76.0 544.0,77.0 545.0,75.0 546.0,75.0 547.0,74.0 548.0,74.0 549.0,73.0 550.0,73.0 551.0,73.0 552.0,72.0 553.0,72.0 554.0,72.0 555.0,71.0 556.0,71.0 557.0,70.0 558.0,69.0 559.0,67.0 560.0,68.0 561.0,66.0 562.0,66.0 563.0,67.0 564.0,65.0 565.0,65.0 566.0,65.0 567.0,65.0 568.0,64.0 569.0,64.0 570.0,63.0 571.0,64.0 572.0,64.0 573.0,64.0 574.0,64.0 575.0,63.0 576.0,61.0 577.0,61.0 578.0,61.0 579.0,61.0 580.0,60.0 581.0,59.0 582.0,59.0 583.0,59.0 584.0,59.0 585.0,59.0 586.0,59.0 587.0,58.0 588.0,58.0 589.0,57.0 590.0,58.0 591.0,56.0 592.0,57.0 593.0,55.0 594.0,57.0 595.0,55.0 596.0,55.0 597.0,55.0 598.0,55.0 599.0,54.0 600.0,54.0 601.0,54.0 602.0,55.0 603.0,53.0 604.0,52.0 605.0,51.0 606.0,52.0 607.0,51.0 608.0,51.0 609.0,50.0 610.0,50.0 611.0,49.0 612.0,49.0 613.0,49.0 614.0,48.0 615.0,48.0 616.0,48.0 617.0,46.0 618.0,46.0 619.0,45.0 620.0,44.0 621.0,44.0 622.0,43.0 623.0,43.0 624.0,42.0 625.0,42.0 626.0,42.0 627.0,42.0 628.0,40.0 629.0,41.0 630.0,41.0 631.0,41.0 632.0,40.0 633.0,39.0 634.0,39.0 635.0,39.0 636.0,38.0 637.0,39.0 638.0,38.0 639.0,37.0 640.0,36.0 641.0,36.0 642.0,35.0 643.0,34.0 644.0,32.0 645.0,32.0 646.0,29.0 647.0,29.0 648.0,28.0 649.0,28.0 650.0,27.0 651.0,27.0 652.0,25.0 653.0,26.0 654.0,25.0" fill="none" stroke="#4876ff" />
	<polyline points="55.0,304.0 56.0,298.0 57.0,303.0 58.0,299.0 59.0,303.0 60.0,299.0 61.0,302.0 62.0,299.0 63.0,301.0 64.0,299.0 65.0,300.0 66.0,298.0 67.0,299.0 68.0,298.0 69.0,298.0 70.0,297.0 71.0,297.0 72.0,297.0 73.0,296.0 74.0,296.0 75.0,296.0 76.0,295.0 77.0,296.0 78.0,295.0 79.0,295.0 80.0,294.0 81.0,294.0 82.0,293.0 83.0,294.0 84.0,293.0 85.0,293.0 86.0,292.0 87.0,292.0 88.0,291.0 89.0,291.0 90.0,290.0 91.0,289.0 92.0,289.0 93.0,288.0 94.0,287.0 95.0,287.0 96.0,286.0 97.0,285.0 98.0,285.0 99.0,284.0 100.0,284.0 101.0,283.0 102.0,282.0 103.0,282.0 104.0,281.0 105.0,281.0 106.0,279.0 107.0,279.0 108.0,279.0 109.0,278.0 110.0,278.0 111.0,277.0 112.0,276.0 113.0,276.0 114.0,275.0 115.0,274.0 116.0,274.0 117.0,273.0 118.0,272.0 119.0,272.0 120.0,271.0 121.0,270.0 122.0,269.0 123.0,269.0 124.0,268.0 125.0,268.0 126.0,267.0 127.0,267.0 128.0,265.0 129.0,265.0 130.0,265.0 131.0,265.0 132.0,264.0 133.0,264.0 134.0,263.0 135.0,262.0 136.0,262.0 137.0,261.0 138.0,262.0 139.0,261.0 140.0,261.0 141.0,260.0 142.0,259.0 143.0,259.0 144.0,259.0 145.0,258.0 146.0,258.0 147.0,257.0 148.0,257.0 149.0,257.0 150.0,258.0 151.0,257.0 152.0,257.0 153.0,257.0 154.0,257.0 155.0,256.0 156.0,256.0 157.0,256.0 158.0,255.0 159.0,255.0 160.0,255.0 161.0,255.0 162.0,254.0 163.0,254.0 164.0,254.0 165.0,254.0 166.0,253.0 167.0,254.0 168.0,253.0 169.0,253.0 170.0,252.0 171.0,253.0 172.0,253.0 173.0,253.0 174.0,253.0 175.0,253.0 176.0,253.0 177.0,253.0 178.0,252.0 179.0,253.0 180.0,252.0 181.0,252.0 182.0,251.0 183.0,251.0 184.0,251.0 185.0,250.0 186.0,250.0 187.0,249.0 188.0,248.0 189.0,247.0 190.0,247.0 191.0,247.0 192.0,246.0 193.0,244.0 194.0,244.0 195.0,244.0 196.0,243.0 197.0,243.0 198.0,243.0 199.0,242.0 200.0,242.0 201.0,242.0 202.0,241.0 203.0,242.0 204.0,242.0 205.0,242.0 206.0,240.0 207.0,240.0 208.0,239.0 209.0,240.0 210.0,239.0 211.0,239.0 212.0,238.0 213.0,238.0 214.0,237.0 215.0,233.0 216.0,235.0 217.0,235.0 218.0,234.0 219.0,233.0 220.0,233.0 221.0,233.0 222.0,231.0 223.0,231.0 224.0,228.0 225.0,229.0 226.0,227.0 227.0,228.0 228.0,226.0 229.0,225.0 230.0,225.0 231.0,224.0 232.0,223.0 233.0,223.0 234.0,221.0 235.0,220.0 236.0,220.0 237.0,218.0 238.0,218.0 239.0,217.0 240.0,217.0 241.0,218.0 242.0,217.0 243.0,217.0 244.0,215.0 245.0,216.0 246.0,215.0 247.0,214.0 248.0,214.0 249.0,214.0 250.0,212.0 251.0,212.0 252.0,212.0 253.0,211.0 254.0,211.0 255.0,210.0 256.0,209.0 257.0,208.0 258.0,207.0 259.0,207.0 260.0,207.0 261.0,207.0 262.0,206.0 263.0,206.0 264.0,204.0 265.0,204.0 266.0,204.0 267.0,203.0 268.0,203.0 269.0,202.0 270.0,201.0 271.0,200.0 272.0,199.0 273.0,199.0 274.0,197.0 275.0,196.0 276.0,195.0 277.0,195.0 278.0,195.0 279.0,195.0 280.0,194.0 281.0,194.0 282.0,194.0 283.0,194.0 284.0,193.0 285.0,193.0 286.0,193.0 287.0,193.0 288.0,193.0 289.0,193.0 290.0,192.0 291.0,192.0 292.0,192.0 293.0,191.0 294.0,191.0 295.0,191.0 296.0,191.0 297.0,190.0 298.0,190.0 299.0,190.0 300.0,190.0 301.0,189.0 302.0,188.0 303.0,187.0 304.0,186.0 305.0,186.0 306.0,185.0 307.0,185.0 308.0,185.0 309.0,184.0 310.0,183.0 311.0,183.0 312.0,182.0 313.0,182.0 314.0,182.0 315.0,181.0 316.0,181.0 317.0,179.0 318.0,179.0 319.0,178.0 320.0,177.0 321.0,176.0 322.0,176.0 323.0,175.0 324.0,174.0 325.0,173.0 326.0,172.0 327.0,171.0 328.0,169.0 329.0,168.0 330.0,166.0 331.0,165.0 332.0,163.0 333.0,162.0 334.0,161.0 335.0,160.0 336.0,159.0 337.0,159.0 338.0,158.0 339.0,158.0 340.0,157.0 341.0,157.0 342.0,157.0 343.0,157.0 344.0,156.0 345.0,156.0 346.0,155.0 347.0,155.0 348.0,154.0 349.0,153.0 350.0,153.0 351.0,153.0 352.0,152.0 353.0,152.0 354.0,151.0 355.0,151.0 356.0,150.0 357.0,149.0 358.0,149.0 359.0,149.0 360.0,148.0 361.0,147.0 362.0,147.0 363.0,147.0 364.0,146.0 365.0,146.0 366.0,145.0 367.0,145.0 368.0,144.0 369.0,144.0 370.0,144.0 371.0,143.0 372.0,143.0 373.0,143.0 374.0,143.0 375.0,143.0 376.0,143.0 377.0,142.0 378.0,142.0 379.0,141.0 380.0,142.0 381.0,141.0 382.0,141.0 383.0,140.0 384.0,140.0 385.0,140.0 386.0,140.0 387.0,139.0 388.0,140.0 389.0,138.0 390.0,138.0 391.0,138.0 392.0,138.0 393.0,137.0 394.0,136.0 395.0,137.0 396.0,136.0 397.0,136.0 398.0,135.0 399.0,135.0 400.0,135.0 401.0,134.0 402.0,134.0 403.0,133.0 404.0,133.0 405.0,132.0 406.0,131.0 407.0,131.0 408.0,131.0 409.0,130.0 410.0,130.0 411.0,129.0 412.0,128.0 413.0,128.0 414.0,127.0 415.0,127.0 416.0,126.0 417.0,126.0 418.0,125.0 419.0,125.0 420.0,124.0 421.0,123.0 422.0,123.0 423.0,122.0 424.0,122.0 425.0,121.0 426.0,122.0 427.0,121.0 428.0,121.0 429.0,120.0 430.0,120.0 431.0,119.0 432.0,119.0 433.0,118.0 434.0,117.0 435.0,118.0 436.0,117.0 437.0,117.0 438.0,116.0 439.0,116.0 440.0,114.0 441.0,114.0 442.0,114.0 443.0,113.0 444.0,113.0 445.0,112.0 446.0,112.0 447.0,111.0 448.0,111.0 449.0,111.0 450.0,110.0 451.0,110.0 452.0,109.0 453.0,109.0 454.0,109.0 455.0,108.0 456.0,108.0 457.0,107.0 458.0,107.0 459.0,106.0 460.0,106.0 461.0,105.0 462.0,105.0 463.0,104.0 464.0,104.0 465.0,103.0 466.0,103.0 467.0,102.0 468.0,102.0 469.0,101.0 470.0,101.0 471.0,101.0 472.0,100.0 473.0,100.0 474.0,99.0 475.0,99.0 476.0,99.0 477.0,98.0 478.0,98.0 479.0,97.0 480.0,97.0 481.0,97.0 482.0,96.0 483.0,95.0 484.0,94.0 485.0,94.0 486.0,93.0 487.0,93.0 488.0,93.0 489.0,92.0 490.0,92.0 491.0,91.0 492.0,91.0 493.0,90.0 494.0,89.0 495.0,89.0 496.0,88.0 497.0,89.0 498.0,88.0 499.0,88.0 500.0,87.0 501.0,87.0 502.0,87.0 503.0,86.0 504.0,85.0 505.0,85.0 506.0,85.0 507.0,85.0 508.0,84.0 509.0,84.0 510.0,83.0 511.0,83.0 512.0,82.0 513.0,82.0 514.0,81.0 515.0,81.0 516.0,81.0 517.0,81.0 518.0,80.0 519.0,80.0 520.0,79.0 521.0,79.0 522.0,78.0 523.0,78.0 524.0,77.0 525.0,77.0 526.0,77.0 527.0,76.0 528.0,76.0 529.0,75.0 530.0,75.0 531.0,74.0 532.0,74.0 533.0,74.0 534.0,73.0 535.0,72.0 536.0,72.0 537.0,71.0 538.0,71.0 539.0,71.0 540.0,70.0 541.0,69.0 542.0,69.0 543.0,69.0 544.0,68.0 545.0,68.0 546.0,68.0 547.0,68.0 548.0,67.0 549.0,66.0 550.0,66.0 551.0,66.0 552.0,65.0 553.0,64.0 554.0,63.0 555.0,62.0 556.0,62.0 557.0,62.0 558.0,60.0 559.0,61.0 560.0,61.0 561.0,60.0 562.0,60.0 563.0,60.0 564.0,58.0 565.0,59.0 566.0,58.0 567.0,58.0 568.0,57.0 569.0,56.0 570.0,56.0 571.0,56.0 572.0,55.0 573.0,54.0 574.0,54.0 575.0,53.0 576.0,53.0 577.0,52.0 578.0,52.0 579.0,51.0 580.0,51.0 581.0,50.0 582.0,50.0 583.0,49.0 584.0,49.0 585.0,48.0 586.0,48.0 587.0,47.0 588.0,48.0 589.0,45.0 590.0,46.0 591.0,45.0 592.0,45.0 593.0,44.0 594.0,44.0 595.0,43.0 596.0,44.0 597.0,42.0 598.0,43.0 599.0,41.0 600.0,42.0 601.0,40.0 602.0,40.0 603.0,40.0 604.0,40.0 605.0,39.0 606.0,39.0 607.0,38.0 608.0,38.0 609.0,37.0 610.0,37.0 611.0,36.0 612.0,36.0 613.0,36.0 614.0,36.0 615.0,35.0 616.0,35.0 617.0,34.0 618.0,34.0 619.0,33.0 620.0,33.0 621.0,32.0 622.0,32.0 623.0,31.0 624.0,31.0 625.0,30.0 626.0,30.0 627.0,29.0 628.0,29.0 629.0,28.0 630.0,28.0 631.0,27.0 632.0,28.0 633.0,26.0 634.0,26.0 635.0,26.0 636.0,26.0 637.0,26.0 638.0,25.0 639.0,25.0 640.0,23.0 641.0,24.0 642.0,23.0 643.0,24.0 644.0,21.0 645.0,22.0 646.0,21.0 647.0,22.0 648.0,20.0 649.0,20.0 650.0,19.0 651.0,19.0 652.0,18.0 653.0,18.0 654.0,17.0" fill="none" stroke="#aeeeee" />
	<polyline points="55.0,304.0 56.0,298.0 57.0,303.0 58.0,299.0 59.0,302.0 60.0,299.0 61.0,302.0 62.0,299.0 63.0,301.0 64.0,299.0 65.0,300.0 66.0,298.0 67.0,299.0 68.0,297.0 69.0,298.0 70.0,296.0 71.0,296.0 72.0,295.0 73.0,295.0 74.0,293.0 75.0,293.0 76.0,292.0 77.0,291.0 78.0,291.0 79.0,290.0 80.0,291.0 81.0,290.0 82.0,290.0 83.0,290.0 84.0,289.0 85.0,289.0 86.0,289.0 87.0,288.0 88.0,288.0 89.0,287.0 90.0,287.0 91.0,286.0 92.0,287.0 93.0,285.0 94.0,286.0 95.0,285.0 96.0,285.0 97.0,284.0 98.0,284.0 99.0,284.0 100.0,283.0 101.0,282.0 102.0,282.0 103.0,281.0 104.0,281.0 105.0,280.0 106.0,280.0 107.0,279.0 108.0,279.0 109.0,277.0 110.0,278.0 111.0,278.0 112.0,277.0 113.0,277.0 114.0,277.0 115.0,277.0 116.0,277.0 117.0,276.0 118.0,277.0 119.0,275.0 120.0,275.0 121.0,275.0 122.0,275.0 123.0,274.0 124.0,273.0 125.0,273.0 126.0,273.0 127.0,272.0 128.0,272.0 129.0,272.0 130.0,271.0 131.0,271.0 132.0,270.0 133.0,270.0 134.0,269.0 135.0,270.0 136.0,269.0 137.0,268.0 138.0,268.0 139.0,268.0 140.0,268.0 141.0,268.0 142.0,267.0 143.0,267.0 144.0,268.0 145.0,268.0 146.0,266.0 147.0,266.0 148.0,266.0 149.0,266.0 150.0,265.0 151.0,264.0 152.0,264.0 153.0,263.0 154.0,262.0 155.0,261.0 156.0,260.0 157.0,260.0 158.0,258.0 159.0,257.0 160.0,258.0 161.0,257.0 162.0,257.0 163.0,257.0 164.0,256.0 165.0,256.0 166.0,254.0 167.0,254.0 168.0,254.0 169.0,253.0 170.0,252.0 171.0,252.0 172.0,251.0 173.0,250.0 174.0,250.0 175.0,250.0 176.0,249.0 177.0,248.0 178.0,248.0 179.0,247.0 180.0,247.0 181.0,247.0 182.0,247.0 183.0,247.0 184.0,246.0 185.0,247.0 186.0,246.0 187.0,246.0 188.0,246.0 189.0,246.0 190.0,245.0 191.0,246.0 192.0,246.0 193.0,245.0 194.0,246.0 195.0,246.0 196.0,245.0 197.0,245.0 198.0,245.0 199.0,244.0 200.0,245.0 201.0,245.0 202.0,244.0 203.0,244.0 204.0,243.0 205.0,244.0 206.0,243.0 207.0,242.0 208.0,242.0 209.0,241.0 210.0,240.0 211.0,240.0 212.0,240.0 213.0,239.0 214.0,239.0 215.0,238.0 216.0,237.0 217.0,236.0 218.0,235.0 219.0,235.0 220.0,233.0 221.0,233.0 222.0,232.0 223.0,231.0 224.0,230.0 225.0,229.0 226.0,228.0 227.0,228.0 228.0,225.0 229.0,227.0 230.0,226.0 231.0,227.0 232.0,225.0 233.0,225.0 234.0,224.0 235.0,224.0 236.0,222.0 237.0,223.0 238.0,222.0 239.0,222.0 240.0,221.0 241.0,220.0 242.0,219.0 243.0,219.0 244.0,218.0 245.0,217.0 246.0,217.0 247.0,217.0 248.0,217.0 249.0,217.0 250.0,217.0 251.0,216.0 252.0,215.0 253.0,214.0 254.0,214.0 255.0,214.0 256.0,212.0 257.0,213.0 258.0,211.0 259.0,212.0 260.0,210.0 261.0,211.0 262.0,209.0 263.0,208.0 264.0,208.0 265.0,208.0 266.0,207.0 267.0,208.0 268.0,207.0 269.0,205.0 270.0,206.0 271.0,205.0 272.0,205.0 273.0,204.0 274.0,205.0 275.0,205.0 276.0,204.0 277.0,204.0 278.0,204.0 279.0,204.0 280.0,202.0 281.0,204.0 282.0,202.0 283.0,202.0 284.0,198.0 285.0,196.0 286.0,198.0 287.0,198.0 288.0,196.0 289.0,196.0 290.0,195.0 291.0,194.0 292.0,194.0 293.0,192.0 294.0,191.0 295.0,191.0 296.0,190.0 297.0,189.0 298.0,188.0 299.0,189.0 300.0,187.0 301.0,189.0 302.0,187.0 303.0,188.0 304.0,187.0 305.0,187.0 306.0,185.0 307.0,186.0 308.0,185.0 309.0,186.0 310.0,184.0 311.0,184.0 312.0,184.0 313.0,183.0 314.0,182.0 315.0,182.0 316.0,181.0 317.0,181.0 318.0,181.0 319.0,180.0 320.0,180.0 321.0,180.0 322.0,180.0 323.0,179.0 324.0,179.0 325.0,180.0 326.0,179.0 327.0,178.0 328.0,179.0 329.0,178.0 330.0,178.0 331.0,178.0 332.0,177.0 333.0,177.0 334.0,177.0 335.0,176.0 336.0,176.0 337.0,176.0 338.0,175.0 339.0,174.0 340.0,173.0 341.0,173.0 342.0,172.0 343.0,171.0 344.0,170.0 345.0,170.0 346.0,169.0 347.0,168.0 348.0,167.0 349.0,168.0 350.0,167.0 351.0,166.0 352.0,165.0 353.0,165.0 354.0,163.0 355.0,164.0 356.0,164.0 357.0,163.0 358.0,163.0 359.0,162.0 360.0,160.0 361.0,160.0 362.0,159.0 363.0,158.0 364.0,158.0 365.0,158.0 366.0,156.0 367.0,155.0 368.0,156.0 369.0,155.0 370.0,155.0 371.0,154.0 372.0,153.0 373.0,153.0 374.0,153.0 375.0,152.0 376.0,151.0 377.0,151.0 378.0,151.0 379.0,149.0 380.0,149.0 381.0,149.0 382.0,147.0 383.0,147.0 384.0,147.0 385.0,145.0 386.0,145.0 387.0,144.0 388.0,143.0 389.0,143.0 390.0,142.0 391.0,141.0 392.0,140.0 393.0,141.0 394.0,139.0 395.0,139.0 396.0,138.0 397.0,138.0 398.0,138.0 399.0,136.0 400.0,136.0 401.0,135.0 402.0,136.0 403.0,134.0 404.0,134.0 405.0,133.0 406.0,133.0 407.0,132.0 408.0,133.0 409.0,132.0 410.0,131.0 411.0,131.0 412.0,131.0 413.0,129.0 414.0,130.0 415.0,129.0 416.0,129.0 417.0,127.0 418.0,127.0 419.0,127.0 420.0,127.0 421.0,127.0 422.0,126.0 423.0,126.0 424.0,126.0 425.0,126.0 426.0,125.0 427.0,125.0 428.0,124.0 429.0,124.0 430.0,123.0 431.0,123.0 432.0,122.0 433.0,123.0 434.0,121.0 435.0,122.0 436.0,122.0 437.0,122.0 438.0,122.0 439.0,120.0 440.0,120.0 441.0,120.0 442.0,120.0 443.0,120.0 444.0,119.0 445.0,119.0 446.0,119.0 447.0,118.0 448.0,118.0 449.0,117.0 450.0,118.0 451.0,116.0 452.0,117.0 453.0,117.0 454.0,116.0 455.0,116.0 456.0,117.0 457.0,116.0 458.0,116.0 459.0,116.0 460.0,117.0 461.0,117.0 462.0,118.0 463.0,117.0 464.0,118.0 465.0,118.0 466.0,117.0 467.0,118.0 468.0,117.0 469.0,116.0 470.0,116.0 471.0,116.0 472.0,116.0 473.0,115.0 474.0,115.0 475.0,114.0 476.0,114.0 477.0,114.0 478.0,113.0 479.0,112.0 480.0,111.0 481.0,111.0 482.0,111.0 483.0,111.0 484.0,110.0 485.0,109.0 486.0,109.0 487.0,109.0 488.0,109.0 489.0,109.0 490.0,108.0 491.0,108.0 492.0,108.0 493.0,107.0 494.0,107.0 495.0,106.0 496.0,106.0 497.0,104.0 498.0,104.0 499.0,104.0 500.0,102.0 501.0,102.0 502.0,101.0 503.0,100.0 504.0,100.0 505.0,98.0 506.0,99.0 507.0,98.0 508.0,97.0 509.0,96.0 510.0,96.0 511.0,94.0 512.0,94.0 513.0,93.0 514.0,92.0 515.0,92.0 516.0,90.0 517.0,89.0 518.0,88.0 519.0,87.0 520.0,87.0 521.0,86.0 522.0,86.0 523.0,84.0 524.0,84.0 525.0,83.0 526.0,83.0 527.0,81.0 528.0,81.0 529.0,79.0 530.0,78.0 531.0,78.0 532.0,77.0 533.0,77.0 534.0,76.0 535.0,76.0 536.0,75.0 537.0,75.0 538.0,74.0 539.0,73.0 540.0,73.0 541.0,71.0 542.0,71.0 543.0,70.0 544.0,70.0 545.0,70.0 546.0,69.0 547.0,69.0 548.0,68.0 549.0,68.0 550.0,67.0 551.0,67.0 552.0,65.0 553.0,65.0 554.0,65.0 555.0,64.0 556.0,63.0 557.0,63.0 558.0,62.0 559.0,61.0 560.0,60.0 561.0,60.0 562.0,59.0 563.0,59.0 564.0,57.0 565.0,58.0 566.0,58.0 567.0,57.0 568.0,56.0 569.0,56.0 570.0,55.0 571.0,54.0 572.0,54.0 573.0,53.0 574.0,52.0 575.0,52.0 576.0,52.0 577.0,51.0 578.0,51.0 579.0,51.0 580.0,50.0 581.0,50.0 582.0,49.0 583.0,48.0 584.0,48.0 585.0,46.0 586.0,46.0 587.0,44.0 588.0,45.0 589.0,43.0 590.0,43.0 591.0,42.0 592.0,42.0 593.0,41.0 594.0,41.0 595.0,40.0 596.0,39.0 597.0,38.0 598.0,38.0 599.0,37.0 600.0,36.0 601.0,35.0 602.0,35.0 603.0,34.0 604.0,34.0 605.0,33.0 606.0,32.0 607.0,32.0 608.0,31.0 609.0,30.0 610.0,30.0 611.0,29.0 612.0,29.0 613.0,29.0 614.0,28.0 615.0,27.0 616.0,27.0 617.0,26.0 618.0,25.0 619.0,24.0 620.0,25.0 621.0,24.0 622.0,24.0 623.0,23.0 624.0,24.0 625.0,22.0 626.0,22.0 627.0,22.0 628.0,21.0 629.0,21.0 630.0,19.0 631.0,20.0 632.0,18.0 633.0,19.0 634.0,17.0 635.0,18.0 636.0,16.0 637.0,17.0 638.0,15.0 639.0,16.0 640.0,14.0 641.0,15.0 642.0,13.0 643.0,14.0 644.0,11.0 645.0,13.0 646.0,11.0 647.0,12.0 648.0,11.0 649.0,11.0 650.0,10.0 651.0,11.0 652.0,9.0 653.0,11.0 654.0,10.0" fill="none" stroke="#00ffff" />
	<polyline points="55.0,5.0 655.0,5.0" fill="none" stroke="#6d6d6d" />
	<polyline points="55.0,305.0 655.0,305.0" fill="none" stroke="#6d6d6d" />
	<polyline points="55.0,305.0 55.0,310.0" fill="none" stroke="#6d6d6d" />
	<polyline points="205.0,305.0 205.0,310.0" fill="none" stroke="#6d6d6d" />
	<polyline points="355.0,305.0 355.0,310.0" fill="none" stroke="#6d6d6d" />
	<polyline points="505.0,305.0 505.0,310.0" fill="none" stroke="#6d6d6d" />
	<polyline points="655.0,305.0 655.0,310.0" fill="none" stroke="#6d6d6d" />
	<polyline points="55.0,5.0 55.0,305.0" fill="none" stroke="#6d6d6d" />
	<polyline points="655.0,5.0 655.0,305.0" fill="none" stroke="#6d6d6d" />
	<polyline points="50.0,5.0 55.0,5.0" fill="none" stroke="#6d6d6d" />
	<polyline points="50.0,80.0 55.0,80.0" fill="none" stroke="#6d6d6d" />
	<polyline points="50.0,155.0 55.0,155.0" fill="none" stroke="#6d6d6d" />
	<polyline points="50.0,230.0 55.0,230.0" fill="none" stroke="#6d6d6d" />
	<polyline points="50.0,305.0 55.0,305.0" fill="none" stroke="#6d6d6d" />
	<text x="55.0" y="323.0" fill="#6d6d6d" font-family="Arial" font-size="9pt" text-anchor="middle">1</text>
	<text x="205.0" y="323.0" fill="#6d6d6d" font-family="Arial" font-size="9pt" text-anchor="middle">150</text>
	<text x="355.0" y="323.0" fill="#6d6d6d" font-family="Arial" font-size="9pt" text-anchor="middle">300</text>
	<text x="505.0" y="323.0" fill="#6d6d6d" font-family="Arial" font-size="9pt" text-anchor="middle">450</text>
	<text x="655.0" y="323.0" fill="#6d6d6d" font-family="Arial" font-size="9pt" text-anchor="middle">600</text>
	<text x="45.0" y="9.0" fill="#6d6d6d" font-family="Arial" font-size="9pt" text-anchor="end">36.3</text>
	<text x="45.0" y="84.0" fill="#6d6d6d" font-family="Arial" font-size="9pt" text-anchor="end">28.7</text>
	<text x="45.0" y="159.0" fill="#6d6d6d" font-family="Arial" font-size="9pt" text-anchor="end">21</text>
	<text x="45.0" y="234.0" fill="#6d6d6d" font-family="Arial" font-size="9pt" text-anchor="end">13.4</text>
	<text x="45.0" y="309.0" fill="#6d6d6d" font-family="Arial" font-size="9pt" text-anchor="end">5.72</text>
</svg>
