<?xml version="1.0" encoding="UTF-8" standalone="no"?>
<!DOCTYPE svg PUBLIC "-//W3C//DTD SVG 1.1//EN" "http://www.w3.org/Graphics/SVG/1.1/DTD/svg11.dtd">
<svg xmlns="http://www.w3.org/2000/svg"  version="1.1" width="693.0" height="380.0" viewBox="-6.0 -12.0 687.0 368.0">
	<desc>LSD Plot - Sim_10c</desc>
	<polyline points="205.0,6.0 205.0,304.0" fill="none" stroke="#f0f0f0" />
	<polyline points="355.0,6.0 355.0,304.0" fill="none" stroke="#f0f0f0" />
	<polyline points="505.0,6.0 505.0,304.0" fill="none" stroke="#f0f0f0" />
	<polyline points="56.0,80.0 654.0,80.0" fill="none" stroke="#f0f0f0" />
	<polyline points="56.0,155.0 654.0,155.0" fill="none" stroke="#f0f0f0" />
	<polyline points="56.0,230.0 654.0,230.0" fill="none" stroke="#f0f0f0" />
	<text x="5.0" y="345.0" font-family="Arial" font-size="9pt">EXP_1</text>
	<text x="47.0" y="345.0" fill="#ff0000" font-family="Arial" font-size="9pt">EXP_2</text>
	<text x="89.0" y="345.0" fill="#008000" font-family="Arial" font-size="9pt">EXP_3</text>
	<text x="131.0" y="345.0" fill="#d0d000" font-family="Arial" font-size="9pt">EXP_4</text>
	<text x="173.0" y="345.0" fill="#fb46bc" font-family="Arial" font-size="9pt">EXP_5</text>
	<text x="215.0" y="345.0" fill="#0000ff" font-family="Arial" font-size="9pt">EXP_6</text>
	<text x="257.0" y="345.0" fill="#00bfff" font-family="Arial" font-size="9pt">EXP_7</text>
	<text x="299.0" y="345.0" fill="#4876ff" font-family="Arial" font-size="9pt">EXP_8</text>
	<text x="341.0" y="345.0" fill="#aeeeee" font-family="Arial" font-size="9pt">EXP_9</text>
	<text x="383.0" y="345.0" fill="#00ffff" font-family="Arial" font-size="9pt">EXP_10</text>
	<polyline points="55.0,304.0 56.0,298.0 57.0,303.0 58.0,299.0 59.0,302.0 60.0,299.0 61.0,302.0 62.0,299.0 63.0,301.0 64.0,299.0 65.0,300.0 66.0,298.0 67.0,299.0 68.0,298.0 69.0,298.0 70.0,296.0 71.0,296.0 72.0,296.0 73.0,295.0 74.0,294.0 75.0,295.0 76.0,294.0 77.0,293.0 78.0,293.0 79.0,292.0 80.0,293.0 81.0,292.0 82.0,292.0 83.0,291.0 84.0,291.0 85.0,291.0 86.0,290.0 87.0,289.0 88.0,289.0 89.0,289.0 90.0,289.0 91.0,288.0 92.0,288.0 93.0,288.0 94.0,288.0 95.0,288.0 96.0,287.0 97.0,287.0 98.0,287.0 99.0,286.0 100.0,286.0 101.0,285.0 102.0,286.0 103.0,284.0 104.0,284.0 105.0,283.0 106.0,283.0 107.0,283.0 108.0,283.0 109.0,282.0 110.0,282.0 111.0,280.0 112.0,281.0 113.0,279.0 114.0,279.0 115.0,278.0 116.0,278.0 117.0,278.0 118.0,278.0 119.0,277.0 120.0,277.0 121.0,275.0 122.0,276.0 123.0,275.0 124.0,275.0 125.0,274.0 126.0,273.0 127.0,273.0 128.0,271.0 129.0,272.0 130.0,271.0 131.0,270.0 132.0,270.0 133.0,269.0 134.0,269.0 135.0,268.0 136.0,268.0 137.0,268.0 138.0,267.0 139.0,266.0 140.0,266.0 141.0,265.0 142.0,266.0 143.0,266.0 144.0,266.0 145.0,266.0 146.0,265.0 147.0,264.0 148.0,266.0 149.0,264.0 150.0,263.0 151.0,262.0 152.0,263.0 153.0,262.0 154.0,261.0 155.0,262.0 156.0,262.0 157.0,263.0 158.0,261.0 159.0,260.0 160.0,261.0 161.0,260.0 162.0,260.0 163.0,260.0 164.0,261.0 165.0,261.0 166.0,261.0 167.0,260.0 168.0,260.0 169.0,261.0 170.0,259.0 171.0,260.0 172.0,258.0 173.0,258.0 174.0,256.0 175.0,256.0 176.0,256.0 177.0,254.0 178.0,254.0 179.0,253.0 180.0,252.0 181.0,251.0 182.0,250.0 183.0,250.0 184.0,248.0 185.0,249.0 186.0,247.0 187.0,247.0 188.0,246.0 189.0,246.0 190.0,245.0 191.0,244.0 192.0,243.0 193.0,243.0 194.0,242.0 195.0,241.0 196.0,241.0 197.0,239.0 198.0,239.0 199.0,238.0 200.0,238.0 201.0,237.0 202.0,235.0 203.0,234.0 204.0,235.0 205.0,233.0 206.0,234.0 207.0,233.0 208.0,232.0 209.0,232.0 210.0,231.0 211.0,230.0 212.0,230.0 213.0,230.0 214.0,230.0 215.0,229.0 216.0,230.0 217.0,230.0 218.0,228.0 219.0,229.0 220.0,228.0 221.0,228.0 222.0,228.0 223.0,228.0 224.0,228.0 225.0,228.0 226.0,227.0 227.0,227.0 228.0,227.0 229.0,227.0 230.0,225.0 231.0,226.0 232.0,225.0 233.0,225.0 234.0,225.0 235.0,225.0 236.0,225.0 237.0,224.0 238.0,224.0 239.0,224.0 240.0,223.0 241.0,223.0 242.0,222.0 243.0,222.0 244.0,222.0 245.0,221.0 246.0,221.0 247.0,220.0 248.0,219.0 249.0,218.0 250.0,218.0 251.0,218.0 252.0,217.0 253.0,217.0 254.0,217.0 255.0,216.0 256.0,216.0 257.0,215.0 258.0,216.0 259.0,214.0 260.0,214.0 261.0,213.0 262.0,212.0 263.0,212.0 264.0,211.0 265.0,209.0 266.0,209.0 267.0,208.0 268.0,206.0 269.0,205.0 270.0,204.0 271.0,204.0 272.0,203.0 273.0,202.0 274.0,202.0 275.0,201.0 276.0,201.0 277.0,201.0 278.0,199.0 279.0,200.0 280.0,200.0 281.0,199.0 282.0,198.0 283.0,197.0 284.0,197.0 285.0,196.0 286.0,196.0 287.0,197.0 288.0,195.0 289.0,195.0 290.0,195.0 291.0,195.0 292.0,195.0 293.0,194.0 294.0,193.0 295.0,194.0 296.0,193.0 297.0,193.0 298.0,193.0 299.0,192.0 300.0,193.0 301.0,191.0 302.0,190.0 303.0,192.0 304.0,191.0 305.0,190.0 306.0,191.0 307.0,190.0 308.0,189.0 309.0,191.0 310.0,189.0 311.0,190.0 312.0,189.0 313.0,189.0 314.0,188.0 315.0,188.0 316.0,189.0 317.0,188.0 318.0,189.0 319.0,189.0 320.0,189.0 321.0,188.0 322.0,188.0 323.0,188.0 324.0,189.0 325.0,188.0 326.0,187.0 327.0,187.0 328.0,187.0 329.0,186.0 330.0,187.0 331.0,185.0 332.0,185.0 333.0,185.0 334.0,183.0 335.0,182.0 336.0,182.0 337.0,181.0 338.0,179.0 339.0,179.0 340.0,176.0 341.0,175.0 342.0,176.0 343.0,174.0 344.0,175.0 345.0,174.0 346.0,173.0 347.0,172.0 348.0,172.0 349.0,171.0 350.0,171.0 351.0,172.0 352.0,170.0 353.0,172.0 354.0,171.0 355.0,170.0 356.0,171.0 357.0,172.0 358.0,170.0 359.0,171.0 360.0,171.0 361.0,172.0 362.0,172.0 363.0,171.0 364.0,171.0 365.0,170.0 366.0,171.0 367.0,170.0 368.0,169.0 369.0,169.0 370.0,169.0 371.0,168.0 372.0,168.0 373.0,167.0 374.0,167.0 375.0,166.0 376.0,166.0 377.0,164.0 378.0,164.0 379.0,165.0 380.0,163.0 381.0,163.0 382.0,163.0 383.0,162.0 384.0,162.0 385.0,161.0 386.0,159.0 387.0,158.0 388.0,159.0 389.0,158.0 390.0,158.0 391.0,156.0 392.0,157.0 393.0,154.0 394.0,154.0 395.0,154.0 396.0,152.0 397.0,153.0 398.0,152.0 399.0,152.0 400.0,152.0 401.0,150.0 402.0,151.0 403.0,149.0 404.0,150.0 405.0,148.0 406.0,149.0 407.0,148.0 408.0,147.0 409.0,147.0 410.0,147.0 411.0,145.0 412.0,144.0 413.0,145.0 414.0,144.0 415.0,143.0 416.0,143.0 417.0,142.0 418.0,142.0 419.0,141.0 420.0,140.0 421.0,139.0 422.0,140.0 423.0,138.0 424.0,139.0 425.0,136.0 426.0,137.0 427.0,135.0 428.0,136.0 429.0,136.0 430.0,136.0 431.0,135.0 432.0,134.0 433.0,133.0 434.0,133.0 435.0,132.0 436.0,130.0 437.0,131.0 438.0,130.0 439.0,129.0 440.0,129.0 441.0,129.0 442.0,129.0 443.0,127.0 444.0,127.0 445.0,127.0 446.0,126.0 447.0,125.0 448.0,124.0 449.0,124.0 450.0,122.0 451.0,122.0 452.0,121.0 453.0,119.0 454.0,119.0 455.0,118.0 456.0,116.0 457.0,116.0 458.0,115.0 459.0,114.0 460.0,112.0 461.0,113.0 462.0,111.0 463.0,111.0 464.0,111.0 465.0,110.0 466.0,108.0 467.0,110.0 468.0,107.0 469.0,108.0 470.0,108.0 471.0,106.0 472.0,107.0 473.0,105.0 474.0,105.0 475.0,104.0 476.0,103.0 477.0,104.0 478.0,103.0 479.0,102.0 480.0,102.0 481.0,103.0 482.0,103.0 483.0,101.0 484.0,102.0 485.0,102.0 486.0,102.0 487.0,101.0 488.0,102.0 489.0,101.0 490.0,102.0 491.0,102.0 492.0,101.0 493.0,101.0 494.0,101.0 495.0,101.0 496.0,102.0 497.0,101.0 498.0,101.0 499.0,100.0 500.0,100.0 501.0,100.0 502.0,98.0 503.0,97.0 504.0,98.0 505.0,97.0 506.0,96.0 507.0,96.0 508.0,96.0 509.0,95.0 510.0,95.0 511.0,94.0 512.0,94.0 513.0,93.0 514.0,93.0 515.0,93.0 516.0,91.0 517.0,91.0 518.0,87.0 519.0,89.0 520.0,89.0 521.0,87.0 522.0,88.0 523.0,86.0 524.0,87.0 525.0,87.0 526.0,87.0 527.0,86.0 528.0,85.0 529.0,86.0 530.0,84.0 531.0,85.0 532.0,85.0 533.0,84.0 534.0,84.0 535.0,84.0 536.0,83.0 537.0,81.0 538.0,82.0 539.0,82.0 540.0,81.0 541.0,80.0 542.0,79.0 543.0,80.0 544.0,78.0 545.0,79.0 546.0,78.0 547.0,76.0 548.0,76.0 549.0,76.0 550.0,74.0 551.0,73.0 552.0,74.0 553.0,73.0 554.0,73.0 555.0,71.0 556.0,71.0 557.0,69.0 558.0,69.0 559.0,68.0 560.0,67.0 561.0,67.0 562.0,65.0 563.0,66.0 564.0,66.0 565.0,64.0 566.0,64.0 567.0,63.0 568.0,62.0 569.0,62.0 570.0,62.0 571.0,61.0 572.0,61.0 573.0,61.0 574.0,61.0 575.0,62.0 576.0,57.0 577.0,60.0 578.0,57.0 579.0,57.0 580.0,56.0 581.0,56.0 582.0,56.0 583.0,54.0 584.0,54.0 585.0,52.0 586.0,54.0 587.0,52.0 588.0,53.0 589.0,51.0 590.0,51.0 591.0,50.0 592.0,49.0 593.0,49.0 594.0,47.0 595.0,47.0 596.0,47.0 597.0,47.0 598.0,46.0 599.0,46.0 600.0,45.0 601.0,45.0 602.0,44.0 603.0,43.0 604.0,43.0 605.0,43.0 606.0,43.0 607.0,43.0 608.0,41.0 609.0,41.0 610.0,41.0 611.0,40.0 612.0,41.0 613.0,40.0 614.0,40.0 615.0,39.0 616.0,39.0 617.0,38.0 618.0,39.0 619.0,38.0 620.0,38.0 621.0,37.0 622.0,37.0 623.0,36.0 624.0,37.0 625.0,36.0 626.0,36.0 627.0,35.0 628.0,36.0 629.0,35.0 630.0,36.0 631.0,34.0 632.0,34.0 633.0,34.0 634.0,33.0 635.0,33.0 636.0,32.0 637.0,32.0 638.0,32.0 639.0,32.0 640.0,30.0 641.0,31.0 642.0,29.0 643.0,30.0 644.0,28.0 645.0,29.0 646.0,27.0 647.0,27.0 648.0,25.0 649.0,26.0 650.0,23.0 651.0,24.0 652.0,22.0 653.0,21.0 654.0,21.0" fill="none" stroke="#000000" />
	<polyline points="55.0,304.0 56.0,298.0 57.0,304.0 58.0,299.0 59.0,303.0 60.0,299.0 61.0,302.0 62.0,300.0 63.0,301.0 64.0,300.0 65.0,301.0 66.0,299.0 67.0,300.0 68.0,299.0 69.0,299.0 70.0,298.0 71.0,299.0 72.0,298.0 73.0,298.0 74.0,298.0 75.0,297.0 76.0,297.0 77.0,297.0 78.0,297.0 79.0,297.0 80.0,297.0 81.0,296.0 82.0,296.0 83.0,295.0 84.0,296.0 85.0,294.0 86.0,294.0 87.0,294.0 88.0,294.0 89.0,293.0 90.0,292.0 91.0,291.0 92.0,291.0 93.0,289.0 94.0,289.0 95.0,289.0 96.0,288.0 97.0,286.0 98.0,287.0 99.0,286.0 100.0,286.0 101.0,285.0 102.0,285.0 103.0,284.0 104.0,284.0 105.0,283.0 106.0,283.0 107.0,283.0 108.0,282.0 109.0,281.0 110.0,280.0 111.0,280.0 112.0,279.0 113.0,279.0 114.0,279.0 115.0,279.0 116.0,278.0 117.0,278.0 118.0,276.0 119.0,275.0 120.0,275.0 121.0,273.0 122.0,274.0 123.0,273.0 124.0,274.0 125.0,273.0 126.0,274.0 127.0,273.0 128.0,272.0 129.0,274.0 130.0,268.0 131.0,272.0 132.0,270.0 133.0,271.0 134.0,270.0 135.0,271.0 136.0,269.0 137.0,269.0 138.0,269.0 139.0,269.0 140.0,268.0 141.0,269.0 142.0,268.0 143.0,268.0 144.0,267.0 145.0,267.0 146.0,267.0 147.0,268.0 148.0,267.0 149.0,267.0 150.0,267.0 151.0,266.0 152.0,265.0 153.0,266.0 154.0,264.0 155.0,265.0 156.0,264.0 157.0,262.0 158.0,262.0 159.0,263.0 160.0,261.0 161.0,261.0 162.0,261.0 163.0,260.0 164.0,259.0 165.0,260.0 166.0,258.0 167.0,259.0 168.0,258.0 169.0,256.0 170.0,256.0 171.0,255.0 172.0,254.0 173.0,253.0 174.0,253.0 175.0,250.0 176.0,251.0 177.0,250.0 178.0,248.0 179.0,249.0 180.0,247.0 181.0,246.0 182.0,246.0 183.0,245.0 184.0,244.0 185.0,243.0 186.0,242.0 187.0,243.0 188.0,241.0 189.0,241.0 190.0,240.0 191.0,241.0 192.0,239.0 193.0,239.0 194.0,239.0 195.0,238.0 196.0,239.0 197.0,237.0 198.0,237.0 199.0,237.0 200.0,236.0 201.0,236.0 202.0,235.0 203.0,236.0 204.0,234.0 205.0,235.0 206.0,235.0 207.0,235.0 208.0,234.0 209.0,235.0 210.0,233.0 211.0,233.0 212.0,233.0 213.0,231.0 214.0,232.0 215.0,232.0 216.0,230.0 217.0,229.0 218.0,229.0 219.0,228.0 220.0,228.0 221.0,228.0 222.0,227.0 223.0,228.0 224.0,225.0 225.0,226.0 226.0,225.0 227.0,224.0 228.0,225.0 229.0,223.0 230.0,223.0 231.0,223.0 232.0,222.0 233.0,222.0 234.0,222.0 235.0,222.0 236.0,221.0 237.0,221.0 238.0,220.0 239.0,221.0 240.0,219.0 241.0,219.0 242.0,219.0 243.0,216.0 244.0,217.0 245.0,216.0 246.0,216.0 247.0,215.0 248.0,214.0 249.0,213.0 250.0,213.0 251.0,212.0 252.0,212.0 253.0,211.0 254.0,209.0 255.0,210.0 256.0,208.0 257.0,208.0 258.0,208.0 259.0,208.0 260.0,206.0 261.0,206.0 262.0,206.0 263.0,204.0 264.0,204.0 265.0,204.0 266.0,203.0 267.0,203.0 268.0,203.0 269.0,202.0 270.0,201.0 271.0,201.0 272.0,200.0 273.0,200.0 274.0,198.0 275.0,199.0 276.0,196.0 277.0,196.0 278.0,196.0 279.0,194.0 280.0,193.0 281.0,193.0 282.0,191.0 283.0,191.0 284.0,191.0 285.0,191.0 286.0,189.0 287.0,189.0 288.0,189.0 289.0,188.0 290.0,188.0 291.0,187.0 292.0,186.0 293.0,187.0 294.0,185.0 295.0,186.0 296.0,184.0 297.0,184.0 298.0,184.0 299.0,184.0 300.0,182.0 301.0,182.0 302.0,181.0 303.0,182.0 304.0,180.0 305.0,181.0 306.0,180.0 307.0,179.0 308.0,177.0 309.0,179.0 310.0,178.0 311.0,176.0 312.0,178.0 313.0,175.0 314.0,176.0 315.0,174.0 316.0,175.0 317.0,174.0 318.0,174.0 319.0,172.0 320.0,172.0 321.0,170.0 322.0,171.0 323.0,169.0 324.0,170.0 325.0,169.0 326.0,169.0 327.0,168.0 328.0,169.0 329.0,168.0 330.0,170.0 331.0,170.0 332.0,171.0 333.0,172.0 334.0,172.0 335.0,173.0 336.0,174.0 337.0,174.0 338.0,175.0 339.0,176.0 340.0,177.0 341.0,178.0 342.0,179.0 343.0,179.0 344.0,180.0 345.0,181.0 346.0,181.0 347.0,182.0 348.0,182.0 349.0,182.0 350.0,181.0 351.0,181.0 352.0,181.0 353.0,180.0 354.0,180.0 355.0,180.0 356.0,180.0 357.0,179.0 358.0,179.0 359.0,179.0 360.0,178.0 361.0,178.0 362.0,177.0 363.0,177.0 364.0,176.0 365.0,176.0 366.0,176.0 367.0,176.0 368.0,175.0 369.0,174.0 370.0,174.0 371.0,173.0 372.0,173.0 373.0,172.0 374.0,172.0 375.0,171.0 376.0,171.0 377.0,171.0 378.0,170.0 379.0,170.0 380.0,169.0 381.0,168.0 382.0,168.0 383.0,167.0 384.0,167.0 385.0,166.0 386.0,166.0 387.0,165.0 388.0,165.0 389.0,164.0 390.0,164.0 391.0,162.0 392.0,163.0 393.0,162.0 394.0,162.0 395.0,161.0 396.0,161.0 397.0,161.0 398.0,160.0 399.0,159.0 400.0,159.0 401.0,159.0 402.0,158.0 403.0,158.0 404.0,157.0 405.0,157.0 406.0,156.0 407.0,156.0 408.0,156.0 409.0,155.0 410.0,154.0 411.0,154.0 412.0,153.0 413.0,152.0 414.0,153.0 415.0,152.0 416.0,152.0 417.0,151.0 418.0,151.0 419.0,150.0 420.0,150.0 421.0,149.0 422.0,149.0 423.0,148.0 424.0,148.0 425.0,147.0 426.0,147.0 427.0,146.0 428.0,146.0 429.0,145.0 430.0,145.0 431.0,144.0 432.0,144.0 433.0,143.0 434.0,142.0 435.0,143.0 436.0,141.0 437.0,141.0 438.0,141.0 439.0,140.0 440.0,139.0 441.0,139.0 442.0,138.0 443.0,138.0 444.0,137.0 445.0,137.0 446.0,137.0 447.0,136.0 448.0,135.0 449.0,135.0 450.0,135.0 451.0,134.0 452.0,133.0 453.0,133.0 454.0,133.0 455.0,132.0 456.0,131.0 457.0,131.0 458.0,129.0 459.0,129.0 460.0,128.0 461.0,128.0 462.0,127.0 463.0,127.0 464.0,126.0 465.0,126.0 466.0,124.0 467.0,124.0 468.0,124.0 469.0,123.0 470.0,122.0 471.0,121.0 472.0,121.0 473.0,120.0 474.0,119.0 475.0,119.0 476.0,117.0 477.0,117.0 478.0,117.0 479.0,116.0 480.0,115.0 481.0,114.0 482.0,113.0 483.0,113.0 484.0,112.0 485.0,112.0 486.0,110.0 487.0,110.0 488.0,108.0 489.0,108.0 490.0,107.0 491.0,105.0 492.0,104.0 493.0,102.0 494.0,101.0 495.0,102.0 496.0,100.0 497.0,99.0 498.0,100.0 499.0,97.0 500.0,96.0 501.0,97.0 502.0,96.0 503.0,96.0 504.0,94.0 505.0,93.0 506.0,95.0 507.0,90.0 508.0,93.0 509.0,90.0 510.0,92.0 511.0,91.0 512.0,90.0 513.0,91.0 514.0,91.0 515.0,90.0 516.0,89.0 517.0,89.0 518.0,90.0 519.0,88.0 520.0,89.0 521.0,89.0 522.0,88.0 523.0,87.0 524.0,86.0 525.0,87.0 526.0,86.0 527.0,86.0 528.0,85.0 529.0,85.0 530.0,84.0 531.0,84.0 532.0,82.0 533.0,82.0 534.0,81.0 535.0,81.0 536.0,79.0 537.0,80.0 538.0,79.0 539.0,79.0 540.0,77.0 541.0,78.0 542.0,75.0 543.0,76.0 544.0,74.0 545.0,75.0 546.0,73.0 547.0,73.0 548.0,73.0 549.0,72.0 550.0,71.0 551.0,72.0 552.0,71.0 553.0,71.0 554.0,69.0 555.0,70.0 556.0,69.0 557.0,67.0 558.0,67.0 559.0,68.0 560.0,66.0 561.0,67.0 562.0,66.0 563.0,66.0 564.0,66.0 565.0,66.0 566.0,65.0 567.0,67.0 568.0,66.0 569.0,62.0 570.0,64.0 571.0,64.0 572.0,64.0 573.0,63.0 574.0,63.0 575.0,64.0 576.0,63.0 577.0,63.0 578.0,62.0 579.0,62.0 580.0,62.0 581.0,61.0 582.0,61.0 583.0,60.0 584.0,61.0 585.0,60.0 586.0,61.0 587.0,60.0 588.0,59.0 589.0,59.0 590.0,58.0 591.0,58.0 592.0,58.0 593.0,54.0 594.0,56.0 595.0,55.0 596.0,55.0 597.0,55.0 598.0,56.0 599.0,54.0 600.0,54.0 601.0,55.0 602.0,53.0 603.0,54.0 604.0,52.0 605.0,52.0 606.0,52.0 607.0,51.0 608.0,50.0 609.0,51.0 610.0,49.0 611.0,48.0 612.0,49.0 613.0,48.0 614.0,49.0 615.0,46.0 616.0,48.0 617.0,46.0 618.0,47.0 619.0,46.0 620.0,46.0 621.0,44.0 622.0,45.0 623.0,44.0 624.0,44.0 625.0,42.0 626.0,43.0 627.0,42.0 628.0,37.0 629.0,41.0 630.0,39.0 631.0,39.0 632.0,38.0 633.0,39.0 634.0,37.0 635.0,38.0 636.0,36.0 637.0,37.0 638.0,35.0 639.0,37.0 640.0,34.0 641.0,35.0 642.0,33.0 643.0,33.0 644.0,32.0 645.0,32.0 646.0,31.0 647.0,32.0 648.0,30.0 649.0,32.0 650.0,29.0 651.0,29.0 652.0,26.0 653.0,28.0 654.0,25.0" fill="none" stroke="#ff0000" />
	<polyline points="55.0,304.0 56.0,298.0 57.0,303.0 58.0,299.0 59.0,303.0 60.0,299.0 61.0,302.0 62.0,299.0 63.0,301.0 64.0,299.0 65.0,300.0 66.0,299.0 67.0,300.0 68.0,298.0 69.0,299.0 70.0,298.0 71.0,298.0 72.0,297.0 73.0,297.0 74.0,296.0 75.0,296.0 76.0,295.0 77.0,295.0 78.0,294.0 79.0,294.0 80.0,293.0 81.0,293.0 82.0,292.0 83.0,292.0 84.0,292.0 85.0,291.0 86.0,291.0 87.0,290.0 88.0,290.0 89.0,289.0 90.0,289.0 91.0,288.0 92.0,288.0 93.0,287.0 94.0,287.0 95.0,287.0 96.0,286.0 97.0,286.0 98.0,286.0 99.0,285.0 100.0,286.0 101.0,285.0 102.0,285.0 103.0,284.0 104.0,284.0 105.0,283.0 106.0,284.0 107.0,283.0 108.0,282.0 109.0,282.0 110.0,282.0 111.0,281.0 112.0,281.0 113.0,280.0 114.0,280.0 115.0,280.0 116.0,278.0 117.0,278.0 118.0,278.0 119.0,277.0 120.0,277.0 121.0,277.0 122.0,276.0 123.0,276.0 124.0,275.0 125.0,274.0 126.0,274.0 127.0,274.0 128.0,273.0 129.0,274.0 130.0,272.0 131.0,271.0 132.0,271.0 133.0,270.0 134.0,269.0 135.0,269.0 136.0,268.0 137.0,267.0 138.0,266.0 139.0,265.0 140.0,264.0 141.0,264.0 142.0,262.0 143.0,261.0 144.0,261.0 145.0,260.0 146.0,259.0 147.0,258.0 148.0,257.0 149.0,257.0 150.0,256.0 151.0,255.0 152.0,254.0 153.0,254.0 154.0,252.0 155.0,253.0 156.0,251.0 157.0,251.0 158.0,251.0 159.0,249.0 160.0,250.0 161.0,248.0 162.0,249.0 163.0,248.0 164.0,248.0 165.0,247.0 166.0,247.0 167.0,246.0 168.0,246.0 169.0,244.0 170.0,245.0 171.0,244.0 172.0,244.0 173.0,242.0 174.0,242.0 175.0,241.0 176.0,242.0 177.0,241.0 178.0,240.0 179.0,240.0 180.0,239.0 181.0,239.0 182.0,238.0 183.0,238.0 184.0,237.0 185.0,237.0 186.0,236.0 187.0,235.0 188.0,235.0 189.0,234.0 190.0,234.0 191.0,233.0 192.0,233.0 193.0,232.0 194.0,232.0 195.0,231.0 196.0,230.0 197.0,230.0 198.0,229.0 199.0,230.0 200.0,228.0 201.0,227.0 202.0,228.0 203.0,226.0 204.0,227.0 205.0,226.0 206.0,226.0 207.0,225.0 208.0,224.0 209.0,224.0 210.0,223.0 211.0,223.0 212.0,223.0 213.0,222.0 214.0,223.0 215.0,222.0 216.0,223.0 217.0,222.0 218.0,222.0 219.0,223.0 220.0,225.0 221.0,225.0 222.0,228.0 223.0,229.0 224.0,231.0 225.0,235.0 226.0,237.0 227.0,239.0 228.0,239.0 229.0,241.0 230.0,241.0 231.0,242.0 232.0,241.0 233.0,241.0 234.0,240.0 235.0,240.0 236.0,240.0 237.0,239.0 238.0,238.0 239.0,238.0 240.0,237.0 241.0,237.0 242.0,237.0 243.0,236.0 244.0,235.0 245.0,235.0 246.0,235.0 247.0,234.0 248.0,234.0 249.0,233.0 250.0,232.0 251.0,232.0 252.0,231.0 253.0,231.0 254.0,230.0 255.0,230.0 256.0,230.0 257.0,229.0 258.0,228.0 259.0,228.0 260.0,227.0 261.0,227.0 262.0,227.0 263.0,226.0 264.0,225.0 265.0,225.0 266.0,224.0 267.0,223.0 268.0,223.0 269.0,223.0 270.0,223.0 271.0,222.0 272.0,221.0 273.0,222.0 274.0,221.0 275.0,220.0 276.0,219.0 277.0,219.0 278.0,218.0 279.0,219.0 280.0,218.0 281.0,218.0 282.0,217.0 283.0,217.0 284.0,216.0 285.0,216.0 286.0,214.0 287.0,215.0 288.0,214.0 289.0,214.0 290.0,213.0 291.0,213.0 292.0,212.0 293.0,212.0 294.0,212.0 295.0,211.0 296.0,210.0 297.0,210.0 298.0,209.0 299.0,209.0 300.0,209.0 301.0,207.0 302.0,207.0 303.0,206.0 304.0,206.0 305.0,206.0 306.0,205.0 307.0,205.0 308.0,204.0 309.0,204.0 310.0,204.0 311.0,203.0 312.0,202.0 313.0,202.0 314.0,201.0 315.0,201.0 316.0,200.0 317.0,200.0 318.0,199.0 319.0,199.0 320.0,199.0 321.0,198.0 322.0,198.0 323.0,197.0 324.0,197.0 325.0,196.0 326.0,195.0 327.0,195.0 328.0,195.0 329.0,194.0 330.0,194.0 331.0,193.0 332.0,193.0 333.0,192.0 334.0,192.0 335.0,191.0 336.0,191.0 337.0,190.0 338.0,190.0 339.0,189.0 340.0,189.0 341.0,188.0 342.0,187.0 343.0,187.0 344.0,186.0 345.0,186.0 346.0,185.0 347.0,185.0 348.0,184.0 349.0,184.0 350.0,183.0 351.0,182.0 352.0,182.0 353.0,181.0 354.0,180.0 355.0,180.0 356.0,179.0 357.0,179.0 358.0,177.0 359.0,178.0 360.0,177.0 361.0,177.0 362.0,176.0 363.0,176.0 364.0,176.0 365.0,175.0 366.0,174.0 367.0,174.0 368.0,173.0 369.0,173.0 370.0,172.0 371.0,172.0 372.0,172.0 373.0,172.0 374.0,171.0 375.0,170.0 376.0,169.0 377.0,169.0 378.0,168.0 379.0,168.0 380.0,167.0 381.0,167.0 382.0,167.0 383.0,166.0 384.0,165.0 385.0,165.0 386.0,164.0 387.0,163.0 388.0,164.0 389.0,161.0 390.0,162.0 391.0,160.0 392.0,160.0 393.0,159.0 394.0,159.0 395.0,159.0 396.0,158.0 397.0,158.0 398.0,156.0 399.0,156.0 400.0,155.0 401.0,155.0 402.0,156.0 403.0,154.0 404.0,154.0 405.0,154.0 406.0,153.0 407.0,153.0 408.0,153.0 409.0,151.0 410.0,151.0 411.0,150.0 412.0,150.0 413.0,150.0 414.0,150.0 415.0,148.0 416.0,149.0 417.0,148.0 418.0,147.0 419.0,146.0 420.0,147.0 421.0,146.0 422.0,145.0 423.0,144.0 424.0,144.0 425.0,143.0 426.0,143.0 427.0,143.0 428.0,139.0 429.0,140.0 430.0,139.0 431.0,140.0 432.0,139.0 433.0,139.0 434.0,138.0 435.0,138.0 436.0,137.0 437.0,136.0 438.0,136.0 439.0,135.0 440.0,134.0 441.0,134.0 442.0,132.0 443.0,132.0 444.0,131.0 445.0,131.0 446.0,131.0 447.0,130.0 448.0,129.0 449.0,128.0 450.0,128.0 451.0,126.0 452.0,126.0 453.0,125.0 454.0,124.0 455.0,123.0 456.0,122.0 457.0,121.0 458.0,121.0 459.0,119.0 460.0,117.0 461.0,117.0 462.0,116.0 463.0,115.0 464.0,115.0 465.0,113.0 466.0,114.0 467.0,112.0 468.0,113.0 469.0,111.0 470.0,110.0 471.0,109.0 472.0,107.0 473.0,107.0 474.0,105.0 475.0,104.0 476.0,105.0 477.0,103.0 478.0,102.0 479.0,101.0 480.0,101.0 481.0,100.0 482.0,101.0 483.0,99.0 484.0,99.0 485.0,98.0 486.0,96.0 487.0,97.0 488.0,97.0 489.0,95.0 490.0,96.0 491.0,94.0 492.0,94.0 493.0,92.0 494.0,94.0 495.0,91.0 496.0,91.0 497.0,91.0 498.0,90.0 499.0,91.0 500.0,89.0 501.0,90.0 502.0,87.0 503.0,89.0 504.0,87.0 505.0,87.0 506.0,86.0 507.0,86.0 508.0,86.0 509.0,86.0 510.0,86.0 511.0,86.0 512.0,85.0 513.0,85.0 514.0,85.0 515.0,84.0 516.0,85.0 517.0,84.0 518.0,84.0 519.0,82.0 520.0,83.0 521.0,84.0 522.0,82.0 523.0,83.0 524.0,82.0 525.0,83.0 526.0,84.0 527.0,82.0 528.0,83.0 529.0,82.0 530.0,82.0 531.0,82.0 532.0,82.0 533.0,81.0 534.0,80.0 535.0,81.0 536.0,80.0 537.0,80.0 538.0,79.0 539.0,79.0 540.0,78.0 541.0,77.0 542.0,78.0 543.0,76.0 544.0,77.0 545.0,76.0 546.0,76.0 547.0,75.0 548.0,76.0 549.0,74.0 550.0,76.0 551.0,74.0 552.0,75.0 553.0,73.0 554.0,74.0 555.0,73.0 556.0,74.0 557.0,73.0 558.0,74.0 559.0,74.0 560.0,73.0 561.0,74.0 562.0,73.0 563.0,73.0 564.0,72.0 565.0,71.0 566.0,71.0 567.0,71.0 568.0,70.0 569.0,70.0 570.0,69.0 571.0,69.0 572.0,68.0 573.0,69.0 574.0,68.0 575.0,68.0 576.0,67.0 577.0,65.0 578.0,62.0 579.0,63.0 580.0,64.0 581.0,62.0 582.0,62.0 583.0,61.0 584.0,62.0 585.0,60.0 586.0,61.0 587.0,60.0 588.0,59.0 589.0,60.0 590.0,59.0 591.0,58.0 592.0,59.0 593.0,58.0 594.0,58.0 595.0,58.0 596.0,58.0 597.0,57.0 598.0,58.0 599.0,58.0 600.0,57.0 601.0,57.0 602.0,56.0 603.0,57.0 604.0,56.0 605.0,55.0 606.0,55.0 607.0,54.0 608.0,55.0 609.0,53.0 610.0,54.0 611.0,53.0 612.0,53.0 613.0,53.0 614.0,53.0 615.0,51.0 616.0,51.0 617.0,50.0 618.0,51.0 619.0,49.0 620.0,49.0 621.0,49.0 622.0,48.0 623.0,47.0 624.0,48.0 625.0,47.0 626.0,47.0 627.0,46.0 628.0,45.0 629.0,45.0 630.0,45.0 631.0,43.0 632.0,43.0 633.0,43.0 634.0,38.0 635.0,40.0 636.0,39.0 637.0,39.0 638.0,38.0 639.0,38.0 640.0,38.0 641.0,37.0 642.0,36.0 643.0,37.0 644.0,35.0 645.0,36.0 646.0,34.0 647.0,35.0 648.0,34.0 649.0,34.0 650.0,32.0 651.0,33.0 652.0,31.0 653.0,31.0 654.0,29.0" fill="none" stroke="#008000" />
	<polyline points="55.0,304.0 56.0,298.0 57.0,303.0 58.0,299.0 59.0,303.0 60.0,299.0 61.0,302.0 62.0,299.0 63.0,301.0 64.0,299.0 65.0,300.0 66.0,298.0 67.0,299.0 68.0,298.0 69.0,298.0 70.0,297.0 71.0,297.0 72.0,296.0 73.0,296.0 74.0,295.0 75.0,295.0 76.0,294.0 77.0,295.0 78.0,295.0 79.0,295.0 80.0,295.0 81.0,295.0 82.0,294.0 83.0,294.0 84.0,294.0 85.0,292.0 86.0,293.0 87.0,293.0 88.0,291.0 89.0,291.0 90.0,291.0 91.0,290.0 92.0,290.0 93.0,288.0 94.0,289.0 95.0,287.0 96.0,288.0 97.0,287.0 98.0,287.0 99.0,287.0 100.0,287.0 101.0,287.0 102.0,285.0 103.0,286.0 104.0,285.0 105.0,285.0 106.0,284.0 107.0,283.0 108.0,283.0 109.0,282.0 110.0,281.0 111.0,281.0 112.0,279.0 113.0,281.0 114.0,279.0 115.0,279.0 116.0,278.0 117.0,277.0 118.0,277.0 119.0,278.0 120.0,276.0 121.0,277.0 122.0,275.0 123.0,275.0 124.0,274.0 125.0,275.0 126.0,274.0 127.0,275.0 128.0,274.0 129.0,272.0 130.0,273.0 131.0,273.0 132.0,271.0 133.0,272.0 134.0,269.0 135.0,271.0 136.0,268.0 137.0,268.0 138.0,267.0 139.0,267.0 140.0,266.0 141.0,266.0 142.0,264.0 143.0,266.0 144.0,263.0 145.0,264.0 146.0,260.0 147.0,263.0 148.0,259.0 149.0,260.0 150.0,259.0 151.0,260.0 152.0,259.0 153.0,259.0 154.0,257.0 155.0,258.0 156.0,258.0 157.0,257.0 158.0,256.0 159.0,256.0 160.0,256.0 161.0,255.0 162.0,253.0 163.0,255.0 164.0,253.0 165.0,253.0 166.0,252.0 167.0,252.0 168.0,252.0 169.0,251.0 170.0,252.0 171.0,250.0 172.0,251.0 173.0,250.0 174.0,251.0 175.0,250.0 176.0,248.0 177.0,250.0 178.0,247.0 179.0,248.0 180.0,246.0 181.0,247.0 182.0,246.0 183.0,246.0 184.0,246.0 185.0,245.0 186.0,244.0 187.0,245.0 188.0,244.0 189.0,242.0 190.0,244.0 191.0,241.0 192.0,242.0 193.0,241.0 194.0,242.0 195.0,240.0 196.0,239.0 197.0,239.0 198.0,240.0 199.0,237.0 200.0,238.0 201.0,236.0 202.0,237.0 203.0,236.0 204.0,234.0 205.0,235.0 206.0,233.0 207.0,234.0 208.0,232.0 209.0,233.0 210.0,230.0 211.0,230.0 212.0,230.0 213.0,228.0 214.0,227.0 215.0,227.0 216.0,222.0 217.0,224.0 218.0,221.0 219.0,220.0 220.0,218.0 221.0,218.0 222.0,214.0 223.0,215.0 224.0,213.0 225.0,213.0 226.0,212.0 227.0,212.0 228.0,211.0 229.0,211.0 230.0,209.0 231.0,210.0 232.0,209.0 233.0,208.0 234.0,209.0 235.0,208.0 236.0,207.0 237.0,207.0 238.0,206.0 239.0,206.0 240.0,205.0 241.0,206.0 242.0,204.0 243.0,204.0 244.0,204.0 245.0,203.0 246.0,203.0 247.0,202.0 248.0,202.0 249.0,201.0 250.0,201.0 251.0,200.0 252.0,200.0 253.0,200.0 254.0,199.0 255.0,199.0 256.0,198.0 257.0,198.0 258.0,196.0 259.0,198.0 260.0,196.0 261.0,196.0 262.0,195.0 263.0,195.0 264.0,195.0 265.0,194.0 266.0,195.0 267.0,194.0 268.0,194.0 269.0,193.0 270.0,193.0 271.0,193.0 272.0,192.0 273.0,192.0 274.0,191.0 275.0,192.0 276.0,190.0 277.0,191.0 278.0,189.0 279.0,190.0 280.0,188.0 281.0,190.0 282.0,187.0 283.0,189.0 284.0,187.0 285.0,188.0 286.0,186.0 287.0,187.0 288.0,185.0 289.0,186.0 290.0,185.0 291.0,185.0 292.0,184.0 293.0,184.0 294.0,183.0 295.0,183.0 296.0,182.0 297.0,182.0 298.0,181.0 299.0,181.0 300.0,181.0 301.0,180.0 302.0,180.0 303.0,179.0 304.0,178.0 305.0,178.0 306.0,178.0 307.0,177.0 308.0,176.0 309.0,175.0 310.0,175.0 311.0,175.0 312.0,174.0 313.0,174.0 314.0,173.0 315.0,172.0 316.0,172.0 317.0,172.0 318.0,171.0 319.0,171.0 320.0,170.0 321.0,170.0 322.0,169.0 323.0,169.0 324.0,168.0 325.0,167.0 326.0,168.0 327.0,166.0 328.0,167.0 329.0,166.0 330.0,165.0 331.0,166.0 332.0,163.0 333.0,164.0 334.0,163.0 335.0,162.0 336.0,161.0 337.0,162.0 338.0,161.0 339.0,161.0 340.0,159.0 341.0,159.0 342.0,159.0 343.0,159.0 344.0,158.0 345.0,158.0 346.0,157.0 347.0,157.0 348.0,157.0 349.0,156.0 350.0,156.0 351.0,155.0 352.0,155.0 353.0,154.0 354.0,154.0 355.0,153.0 356.0,153.0 357.0,154.0 358.0,153.0 359.0,152.0 360.0,151.0 361.0,151.0 362.0,150.0 363.0,150.0 364.0,150.0 365.0,149.0 366.0,149.0 367.0,148.0 368.0,147.0 369.0,148.0 370.0,147.0 371.0,147.0 372.0,146.0 373.0,146.0 374.0,144.0 375.0,145.0 376.0,144.0 377.0,144.0 378.0,143.0 379.0,142.0 380.0,143.0 381.0,142.0 382.0,141.0 383.0,141.0 384.0,141.0 385.0,140.0 386.0,139.0 387.0,139.0 388.0,138.0 389.0,138.0 390.0,138.0 391.0,137.0 392.0,136.0 393.0,136.0 394.0,136.0 395.0,135.0 396.0,135.0 397.0,134.0 398.0,134.0 399.0,133.0 400.0,134.0 401.0,132.0 402.0,133.0 403.0,131.0 404.0,131.0 405.0,130.0 406.0,131.0 407.0,129.0 408.0,130.0 409.0,128.0 410.0,128.0 411.0,127.0 412.0,128.0 413.0,126.0 414.0,126.0 415.0,125.0 416.0,125.0 417.0,124.0 418.0,125.0 419.0,123.0 420.0,124.0 421.0,122.0 422.0,122.0 423.0,122.0 424.0,120.0 425.0,121.0 426.0,120.0 427.0,120.0 428.0,119.0 429.0,119.0 430.0,118.0 431.0,118.0 432.0,117.0 433.0,117.0 434.0,116.0 435.0,116.0 436.0,115.0 437.0,115.0 438.0,114.0 439.0,114.0 440.0,114.0 441.0,113.0 442.0,112.0 443.0,112.0 444.0,111.0 445.0,110.0 446.0,111.0 447.0,109.0 448.0,110.0 449.0,109.0 450.0,108.0 451.0,108.0 452.0,108.0 453.0,107.0 454.0,106.0 455.0,106.0 456.0,105.0 457.0,105.0 458.0,104.0 459.0,104.0 460.0,103.0 461.0,103.0 462.0,102.0 463.0,102.0 464.0,101.0 465.0,102.0 466.0,101.0 467.0,100.0 468.0,100.0 469.0,99.0 470.0,99.0 471.0,99.0 472.0,97.0 473.0,97.0 474.0,97.0 475.0,96.0 476.0,96.0 477.0,96.0 478.0,95.0 479.0,94.0 480.0,93.0 481.0,93.0 482.0,93.0 483.0,92.0 484.0,92.0 485.0,90.0 486.0,90.0 487.0,90.0 488.0,90.0 489.0,88.0 490.0,88.0 491.0,87.0 492.0,87.0 493.0,86.0 494.0,86.0 495.0,86.0 496.0,85.0 497.0,85.0 498.0,84.0 499.0,84.0 500.0,84.0 501.0,83.0 502.0,83.0 503.0,82.0 504.0,82.0 505.0,80.0 506.0,79.0 507.0,79.0 508.0,79.0 509.0,79.0 510.0,78.0 511.0,79.0 512.0,77.0 513.0,77.0 514.0,76.0 515.0,76.0 516.0,75.0 517.0,75.0 518.0,75.0 519.0,73.0 520.0,75.0 521.0,73.0 522.0,73.0 523.0,72.0 524.0,73.0 525.0,71.0 526.0,71.0 527.0,70.0 528.0,71.0 529.0,70.0 530.0,69.0 531.0,69.0 532.0,68.0 533.0,68.0 534.0,68.0 535.0,67.0 536.0,66.0 537.0,66.0 538.0,65.0 539.0,65.0 540.0,64.0 541.0,65.0 542.0,63.0 543.0,64.0 544.0,61.0 545.0,63.0 546.0,61.0 547.0,62.0 548.0,61.0 549.0,60.0 550.0,59.0 551.0,59.0 552.0,58.0 553.0,58.0 554.0,57.0 555.0,56.0 556.0,56.0 557.0,55.0 558.0,55.0 559.0,55.0 560.0,53.0 561.0,53.0 562.0,52.0 563.0,52.0 564.0,52.0 565.0,51.0 566.0,51.0 567.0,50.0 568.0,50.0 569.0,50.0 570.0,48.0 571.0,48.0 572.0,49.0 573.0,47.0 574.0,48.0 575.0,46.0 576.0,47.0 577.0,45.0 578.0,47.0 579.0,44.0 580.0,46.0 581.0,44.0 582.0,44.0 583.0,42.0 584.0,44.0 585.0,42.0 586.0,43.0 587.0,41.0 588.0,41.0 589.0,39.0 590.0,41.0 591.0,39.0 592.0,39.0 593.0,38.0 594.0,38.0 595.0,38.0 596.0,37.0 597.0,36.0 598.0,36.0 599.0,35.0 600.0,35.0 601.0,34.0 602.0,34.0 603.0,34.0 604.0,32.0 605.0,33.0 606.0,31.0 607.0,31.0 608.0,31.0 609.0,31.0 610.0,30.0 611.0,30.0 612.0,30.0 613.0,28.0 614.0,29.0 615.0,27.0 616.0,29.0 617.0,26.0 618.0,28.0 619.0,25.0 620.0,26.0 621.0,25.0 622.0,24.0 623.0,24.0 624.0,24.0 625.0,24.0 626.0,22.0 627.0,24.0 628.0,20.0 629.0,22.0 630.0,19.0 631.0,22.0 632.0,19.0 633.0,20.0 634.0,18.0 635.0,20.0 636.0,17.0 637.0,19.0 638.0,16.0 639.0,18.0 640.0,15.0 641.0,17.0 642.0,11.0 643.0,16.0 644.0,12.0 645.0,16.0 646.0,12.0 647.0,14.0 648.0,11.0 649.0,12.0 650.0,10.0 651.0,12.0 652.0,10.0 653.0,10.0 654.0,10.0" fill="none" stroke="#d0d000" />
	<polyline points="55.0,304.0 56.0,298.0 57.0,303.0 58.0,299.0 59.0,303.0 60.0,299.0 61.0,302.0 62.0,299.0 63.0,301.0 64.0,299.0 65.0,300.0 66.0,298.0 67.0,299.0 68.0,298.0 69.0,298.0 70.0,297.0 71.0,297.0 72.0,296.0 73.0,296.0 74.0,295.0 75.0,295.0 76.0,294.0 77.0,293.0 78.0,293.0 79.0,292.0 80.0,292.0 81.0,291.0 82.0,292.0 83.0,291.0 84.0,290.0 85.0,289.0 86.0,289.0 87.0,289.0 88.0,289.0 89.0,288.0 90.0,289.0 91.0,288.0 92.0,288.0 93.0,288.0 94.0,289.0 95.0,287.0 96.0,288.0 97.0,288.0 98.0,287.0 99.0,288.0 100.0,287.0 101.0,287.0 102.0,287.0 103.0,286.0 104.0,285.0 105.0,285.0 106.0,284.0 107.0,284.0 108.0,284.0 109.0,282.0 110.0,282.0 111.0,282.0 112.0,281.0 113.0,280.0 114.0,280.0 115.0,279.0 116.0,278.0 117.0,279.0 118.0,278.0 119.0,278.0 120.0,276.0 121.0,277.0 122.0,277.0 123.0,276.0 124.0,276.0 125.0,277.0 126.0,274.0 127.0,276.0 128.0,274.0 129.0,273.0 130.0,273.0 131.0,272.0 132.0,271.0 133.0,272.0 134.0,271.0 135.0,270.0 136.0,269.0 137.0,270.0 138.0,270.0 139.0,269.0 140.0,270.0 141.0,269.0 142.0,270.0 143.0,269.0 144.0,268.0 145.0,269.0 146.0,269.0 147.0,268.0 148.0,268.0 149.0,267.0 150.0,267.0 151.0,266.0 152.0,265.0 153.0,265.0 154.0,264.0 155.0,265.0 156.0,263.0 157.0,264.0 158.0,262.0 159.0,263.0 160.0,262.0 161.0,262.0 162.0,262.0 163.0,262.0 164.0,260.0 165.0,261.0 166.0,260.0 167.0,261.0 168.0,259.0 169.0,260.0 170.0,260.0 171.0,260.0 172.0,259.0 173.0,259.0 174.0,258.0 175.0,258.0 176.0,258.0 177.0,256.0 178.0,256.0 179.0,255.0 180.0,252.0 181.0,252.0 182.0,252.0 183.0,251.0 184.0,250.0 185.0,249.0 186.0,248.0 187.0,247.0 188.0,247.0 189.0,246.0 190.0,246.0 191.0,245.0 192.0,244.0 193.0,245.0 194.0,245.0 195.0,244.0 196.0,245.0 197.0,243.0 198.0,245.0 199.0,242.0 200.0,244.0 201.0,244.0 202.0,245.0 203.0,244.0 204.0,244.0 205.0,243.0 206.0,243.0 207.0,242.0 208.0,242.0 209.0,242.0 210.0,241.0 211.0,241.0 212.0,240.0 213.0,241.0 214.0,239.0 215.0,239.0 216.0,239.0 217.0,237.0 218.0,238.0 219.0,237.0 220.0,236.0 221.0,236.0 222.0,236.0 223.0,235.0 224.0,233.0 225.0,232.0 226.0,231.0 227.0,232.0 228.0,230.0 229.0,230.0 230.0,228.0 231.0,228.0 232.0,227.0 233.0,225.0 234.0,225.0 235.0,224.0 236.0,223.0 237.0,222.0 238.0,221.0 239.0,221.0 240.0,219.0 241.0,220.0 242.0,218.0 243.0,218.0 244.0,217.0 245.0,217.0 246.0,216.0 247.0,216.0 248.0,215.0 249.0,214.0 250.0,215.0 251.0,214.0 252.0,214.0 253.0,213.0 254.0,212.0 255.0,212.0 256.0,211.0 257.0,211.0 258.0,211.0 259.0,211.0 260.0,210.0 261.0,210.0 262.0,210.0 263.0,210.0 264.0,209.0 265.0,210.0 266.0,209.0 267.0,209.0 268.0,209.0 269.0,210.0 270.0,208.0 271.0,209.0 272.0,207.0 273.0,208.0 274.0,207.0 275.0,207.0 276.0,208.0 277.0,208.0 278.0,208.0 279.0,208.0 280.0,208.0 281.0,208.0 282.0,208.0 283.0,206.0 284.0,207.0 285.0,206.0 286.0,206.0 287.0,205.0 288.0,205.0 289.0,205.0 290.0,203.0 291.0,204.0 292.0,203.0 293.0,203.0 294.0,201.0 295.0,202.0 296.0,202.0 297.0,201.0 298.0,199.0 299.0,199.0 300.0,198.0 301.0,198.0 302.0,198.0 303.0,197.0 304.0,195.0 305.0,196.0 306.0,194.0 307.0,195.0 308.0,193.0 309.0,193.0 310.0,192.0 311.0,193.0 312.0,190.0 313.0,190.0 314.0,190.0 315.0,189.0 316.0,189.0 317.0,188.0 318.0,188.0 319.0,187.0 320.0,187.0 321.0,185.0 322.0,184.0 323.0,184.0 324.0,184.0 325.0,182.0 326.0,183.0 327.0,183.0 328.0,182.0 329.0,183.0 330.0,182.0 331.0,181.0 332.0,182.0 333.0,181.0 334.0,182.0 335.0,180.0 336.0,181.0 337.0,180.0 338.0,180.0 339.0,179.0 340.0,178.0 341.0,178.0 342.0,177.0 343.0,176.0 344.0,175.0 345.0,175.0 346.0,175.0 347.0,174.0 348.0,173.0 349.0,173.0 350.0,173.0 351.0,172.0 352.0,172.0 353.0,172.0 354.0,171.0 355.0,171.0 356.0,171.0 357.0,168.0 358.0,170.0 359.0,169.0 360.0,171.0 361.0,170.0 362.0,170.0 363.0,169.0 364.0,170.0 365.0,170.0 366.0,170.0 367.0,170.0 368.0,170.0 369.0,170.0 370.0,169.0 371.0,169.0 372.0,168.0 373.0,168.0 374.0,167.0 375.0,166.0 376.0,165.0 377.0,165.0 378.0,164.0 379.0,164.0 380.0,163.0 381.0,162.0 382.0,162.0 383.0,161.0 384.0,161.0 385.0,159.0 386.0,159.0 387.0,158.0 388.0,158.0 389.0,157.0 390.0,157.0 391.0,156.0 392.0,156.0 393.0,155.0 394.0,155.0 395.0,154.0 396.0,153.0 397.0,153.0 398.0,152.0 399.0,152.0 400.0,151.0 401.0,150.0 402.0,149.0 403.0,149.0 404.0,149.0 405.0,149.0 406.0,148.0 407.0,147.0 408.0,148.0 409.0,147.0 410.0,147.0 411.0,145.0 412.0,145.0 413.0,144.0 414.0,143.0 415.0,143.0 416.0,142.0 417.0,140.0 418.0,140.0 419.0,139.0 420.0,139.0 421.0,137.0 422.0,138.0 423.0,136.0 424.0,136.0 425.0,136.0 426.0,135.0 427.0,134.0 428.0,134.0 429.0,132.0 430.0,132.0 431.0,131.0 432.0,131.0 433.0,130.0 434.0,131.0 435.0,130.0 436.0,129.0 437.0,129.0 438.0,128.0 439.0,129.0 440.0,127.0 441.0,127.0 442.0,127.0 443.0,127.0 444.0,127.0 445.0,127.0 446.0,126.0 447.0,126.0 448.0,124.0 449.0,125.0 450.0,123.0 451.0,123.0 452.0,122.0 453.0,122.0 454.0,122.0 455.0,120.0 456.0,120.0 457.0,120.0 458.0,119.0 459.0,119.0 460.0,118.0 461.0,118.0 462.0,118.0 463.0,118.0 464.0,117.0 465.0,116.0 466.0,116.0 467.0,115.0 468.0,114.0 469.0,115.0 470.0,115.0 471.0,114.0 472.0,113.0 473.0,113.0 474.0,112.0 475.0,113.0 476.0,111.0 477.0,112.0 478.0,110.0 479.0,111.0 480.0,109.0 481.0,108.0 482.0,107.0 483.0,107.0 484.0,107.0 485.0,106.0 486.0,105.0 487.0,105.0 488.0,103.0 489.0,102.0 490.0,103.0 491.0,102.0 492.0,102.0 493.0,101.0 494.0,102.0 495.0,100.0 496.0,101.0 497.0,100.0 498.0,100.0 499.0,99.0 500.0,98.0 501.0,98.0 502.0,97.0 503.0,96.0 504.0,96.0 505.0,95.0 506.0,95.0 507.0,94.0 508.0,94.0 509.0,88.0 510.0,92.0 511.0,89.0 512.0,88.0 513.0,88.0 514.0,86.0 515.0,87.0 516.0,84.0 517.0,85.0 518.0,83.0 519.0,85.0 520.0,82.0 521.0,81.0 522.0,82.0 523.0,81.0 524.0,81.0 525.0,79.0 526.0,79.0 527.0,80.0 528.0,79.0 529.0,77.0 530.0,77.0 531.0,77.0 532.0,77.0 533.0,76.0 534.0,75.0 535.0,76.0 536.0,76.0 537.0,74.0 538.0,74.0 539.0,72.0 540.0,73.0 541.0,73.0 542.0,74.0 543.0,71.0 544.0,71.0 545.0,72.0 546.0,71.0 547.0,71.0 548.0,71.0 549.0,69.0 550.0,69.0 551.0,71.0 552.0,68.0 553.0,69.0 554.0,69.0 555.0,70.0 556.0,67.0 557.0,69.0 558.0,68.0 559.0,70.0 560.0,67.0 561.0,68.0 562.0,66.0 563.0,68.0 564.0,66.0 565.0,66.0 566.0,63.0 567.0,64.0 568.0,65.0 569.0,64.0 570.0,63.0 571.0,64.0 572.0,62.0 573.0,63.0 574.0,62.0 575.0,62.0 576.0,62.0 577.0,62.0 578.0,62.0 579.0,62.0 580.0,61.0 581.0,61.0 582.0,61.0 583.0,60.0 584.0,61.0 585.0,60.0 586.0,59.0 587.0,59.0 588.0,59.0 589.0,58.0 590.0,58.0 591.0,57.0 592.0,57.0 593.0,57.0 594.0,57.0 595.0,56.0 596.0,57.0 597.0,55.0 598.0,57.0 599.0,55.0 600.0,56.0 601.0,56.0 602.0,55.0 603.0,54.0 604.0,54.0 605.0,53.0 606.0,53.0 607.0,52.0 608.0,51.0 609.0,52.0 610.0,51.0 611.0,51.0 612.0,50.0 613.0,51.0 614.0,50.0 615.0,50.0 616.0,49.0 617.0,48.0 618.0,48.0 619.0,46.0 620.0,46.0 621.0,44.0 622.0,44.0 623.0,43.0 624.0,42.0 625.0,41.0 626.0,41.0 627.0,41.0 628.0,40.0 629.0,39.0 630.0,38.0 631.0,39.0 632.0,38.0 633.0,39.0 634.0,37.0 635.0,38.0 636.0,36.0 637.0,37.0 638.0,35.0 639.0,36.0 640.0,34.0 641.0,35.0 642.0,34.0 643.0,34.0 644.0,33.0 645.0,33.0 646.0,30.0 647.0,32.0 648.0,30.0 649.0,31.0 650.0,29.0 651.0,30.0 652.0,28.0 653.0,25.0 654.0,26.0" fill="none" stroke="#fb46bc" />
	<polyline points="55.0,304.0 56.0,298.0 57.0,303.0 58.0,299.0 59.0,302.0 60.0,299.0 61.0,302.0 62.0,299.0 63.0,301.0 64.0,299.0 65.0,300.0 66.0,298.0 67.0,299.0 68.0,297.0 69.0,298.0 70.0,296.0 71.0,296.0 72.0,296.0 73.0,295.0 74.0,294.0 75.0,294.0 76.0,294.0 77.0,293.0 78.0,293.0 79.0,293.0 80.0,292.0 81.0,292.0 82.0,292.0 83.0,291.0 84.0,290.0 85.0,290.0 86.0,290.0 87.0,289.0 88.0,290.0 89.0,289.0 90.0,288.0 91.0,289.0 92.0,288.0 93.0,288.0 94.0,288.0 95.0,287.0 96.0,287.0 97.0,287.0 98.0,287.0 99.0,286.0 100.0,286.0 101.0,286.0 102.0,285.0 103.0,284.0 104.0,284.0 105.0,283.0 106.0,283.0 107.0,281.0 108.0,282.0 109.0,281.0 110.0,281.0 111.0,280.0 112.0,280.0 113.0,280.0 114.0,279.0 115.0,278.0 116.0,277.0 117.0,277.0 118.0,276.0 119.0,275.0 120.0,274.0 121.0,274.0 122.0,273.0 123.0,273.0 124.0,272.0 125.0,272.0 126.0,271.0 127.0,271.0 128.0,270.0 129.0,268.0 130.0,269.0 131.0,268.0 132.0,268.0 133.0,268.0 134.0,267.0 135.0,267.0 136.0,266.0 137.0,266.0 138.0,265.0 139.0,265.0 140.0,263.0 141.0,263.0 142.0,262.0 143.0,261.0 144.0,260.0 145.0,259.0 146.0,258.0 147.0,258.0 148.0,256.0 149.0,256.0 150.0,254.0 151.0,254.0 152.0,254.0 153.0,253.0 154.0,252.0 155.0,252.0 156.0,250.0 157.0,251.0 158.0,250.0 159.0,249.0 160.0,249.0 161.0,248.0 162.0,248.0 163.0,248.0 164.0,247.0 165.0,247.0 166.0,246.0 167.0,246.0 168.0,245.0 169.0,245.0 170.0,244.0 171.0,244.0 172.0,244.0 173.0,243.0 174.0,243.0 175.0,242.0 176.0,242.0 177.0,243.0 178.0,241.0 179.0,241.0 180.0,241.0 181.0,242.0 182.0,241.0 183.0,241.0 184.0,241.0 185.0,241.0 186.0,241.0 187.0,241.0 188.0,241.0 189.0,240.0 190.0,240.0 191.0,239.0 192.0,240.0 193.0,238.0 194.0,239.0 195.0,238.0 196.0,238.0 197.0,236.0 198.0,237.0 199.0,237.0 200.0,235.0 201.0,236.0 202.0,234.0 203.0,234.0 204.0,233.0 205.0,233.0 206.0,232.0 207.0,232.0 208.0,230.0 209.0,231.0 210.0,230.0 211.0,230.0 212.0,228.0 213.0,229.0 214.0,227.0 215.0,227.0 216.0,226.0 217.0,225.0 218.0,224.0 219.0,224.0 220.0,222.0 221.0,222.0 222.0,221.0 223.0,221.0 224.0,219.0 225.0,219.0 226.0,217.0 227.0,218.0 228.0,217.0 229.0,216.0 230.0,216.0 231.0,215.0 232.0,214.0 233.0,214.0 234.0,214.0 235.0,213.0 236.0,212.0 237.0,212.0 238.0,211.0 239.0,211.0 240.0,210.0 241.0,210.0 242.0,210.0 243.0,209.0 244.0,209.0 245.0,208.0 246.0,208.0 247.0,207.0 248.0,207.0 249.0,205.0 250.0,205.0 251.0,205.0 252.0,204.0 253.0,203.0 254.0,203.0 255.0,203.0 256.0,202.0 257.0,202.0 258.0,201.0 259.0,201.0 260.0,200.0 261.0,200.0 262.0,199.0 263.0,199.0 264.0,198.0 265.0,198.0 266.0,197.0 267.0,197.0 268.0,196.0 269.0,196.0 270.0,195.0 271.0,195.0 272.0,194.0 273.0,194.0 274.0,193.0 275.0,193.0 276.0,192.0 277.0,193.0 278.0,191.0 279.0,191.0 280.0,190.0 281.0,190.0 282.0,189.0 283.0,189.0 284.0,189.0 285.0,188.0 286.0,187.0 287.0,187.0 288.0,186.0 289.0,187.0 290.0,185.0 291.0,185.0 292.0,184.0 293.0,183.0 294.0,184.0 295.0,183.0 296.0,183.0 297.0,183.0 298.0,181.0 299.0,181.0 300.0,181.0 301.0,180.0 302.0,180.0 303.0,179.0 304.0,179.0 305.0,179.0 306.0,176.0 307.0,178.0 308.0,176.0 309.0,176.0 310.0,176.0 311.0,176.0 312.0,175.0 313.0,174.0 314.0,174.0 315.0,173.0 316.0,173.0 317.0,172.0 318.0,172.0 319.0,172.0 320.0,171.0 321.0,170.0 322.0,170.0 323.0,169.0 324.0,169.0 325.0,168.0 326.0,168.0 327.0,167.0 328.0,167.0 329.0,166.0 330.0,166.0 331.0,166.0 332.0,165.0 333.0,164.0 334.0,164.0 335.0,164.0 336.0,163.0 337.0,162.0 338.0,162.0 339.0,161.0 340.0,161.0 341.0,161.0 342.0,160.0 343.0,159.0 344.0,159.0 345.0,159.0 346.0,158.0 347.0,157.0 348.0,157.0 349.0,156.0 350.0,156.0 351.0,155.0 352.0,155.0 353.0,155.0 354.0,154.0 355.0,154.0 356.0,152.0 357.0,153.0 358.0,152.0 359.0,152.0 360.0,151.0 361.0,151.0 362.0,150.0 363.0,150.0 364.0,149.0 365.0,149.0 366.0,149.0 367.0,148.0 368.0,148.0 369.0,147.0 370.0,147.0 371.0,146.0 372.0,146.0 373.0,145.0 374.0,144.0 375.0,145.0 376.0,144.0 377.0,143.0 378.0,142.0 379.0,143.0 380.0,141.0 381.0,141.0 382.0,141.0 383.0,141.0 384.0,140.0 385.0,139.0 386.0,139.0 387.0,138.0 388.0,138.0 389.0,137.0 390.0,137.0 391.0,136.0 392.0,136.0 393.0,136.0 394.0,135.0 395.0,135.0 396.0,134.0 397.0,133.0 398.0,133.0 399.0,132.0 400.0,133.0 401.0,132.0 402.0,132.0 403.0,131.0 404.0,130.0 405.0,130.0 406.0,129.0 407.0,129.0 408.0,129.0 409.0,128.0 410.0,128.0 411.0,127.0 412.0,127.0 413.0,126.0 414.0,125.0 415.0,126.0 416.0,125.0 417.0,124.0 418.0,124.0 419.0,123.0 420.0,123.0 421.0,122.0 422.0,122.0 423.0,121.0 424.0,121.0 425.0,120.0 426.0,120.0 427.0,119.0 428.0,119.0 429.0,118.0 430.0,118.0 431.0,118.0 432.0,116.0 433.0,117.0 434.0,116.0 435.0,116.0 436.0,115.0 437.0,113.0 438.0,115.0 439.0,112.0 440.0,114.0 441.0,111.0 442.0,113.0 443.0,111.0 444.0,111.0 445.0,111.0 446.0,110.0 447.0,111.0 448.0,109.0 449.0,109.0 450.0,109.0 451.0,108.0 452.0,108.0 453.0,107.0 454.0,106.0 455.0,106.0 456.0,106.0 457.0,104.0 458.0,104.0 459.0,104.0 460.0,104.0 461.0,103.0 462.0,102.0 463.0,102.0 464.0,101.0 465.0,101.0 466.0,101.0 467.0,99.0 468.0,100.0 469.0,99.0 470.0,98.0 471.0,98.0 472.0,97.0 473.0,97.0 474.0,96.0 475.0,95.0 476.0,96.0 477.0,94.0 478.0,95.0 479.0,94.0 480.0,93.0 481.0,93.0 482.0,92.0 483.0,92.0 484.0,91.0 485.0,92.0 486.0,90.0 487.0,90.0 488.0,89.0 489.0,89.0 490.0,89.0 491.0,87.0 492.0,88.0 493.0,86.0 494.0,87.0 495.0,86.0 496.0,85.0 497.0,85.0 498.0,84.0 499.0,85.0 500.0,84.0 501.0,83.0 502.0,82.0 503.0,82.0 504.0,82.0 505.0,81.0 506.0,82.0 507.0,79.0 508.0,80.0 509.0,79.0 510.0,80.0 511.0,78.0 512.0,78.0 513.0,77.0 514.0,76.0 515.0,76.0 516.0,76.0 517.0,75.0 518.0,75.0 519.0,74.0 520.0,73.0 521.0,73.0 522.0,73.0 523.0,71.0 524.0,72.0 525.0,71.0 526.0,69.0 527.0,70.0 528.0,69.0 529.0,69.0 530.0,69.0 531.0,68.0 532.0,67.0 533.0,66.0 534.0,66.0 535.0,66.0 536.0,66.0 537.0,65.0 538.0,65.0 539.0,65.0 540.0,64.0 541.0,63.0 542.0,63.0 543.0,63.0 544.0,63.0 545.0,62.0 546.0,61.0 547.0,61.0 548.0,60.0 549.0,60.0 550.0,60.0 551.0,59.0 552.0,58.0 553.0,58.0 554.0,57.0 555.0,57.0 556.0,56.0 557.0,56.0 558.0,55.0 559.0,55.0 560.0,54.0 561.0,55.0 562.0,53.0 563.0,53.0 564.0,52.0 565.0,52.0 566.0,52.0 567.0,52.0 568.0,51.0 569.0,50.0 570.0,49.0 571.0,50.0 572.0,48.0 573.0,49.0 574.0,47.0 575.0,48.0 576.0,47.0 577.0,46.0 578.0,45.0 579.0,46.0 580.0,44.0 581.0,44.0 582.0,45.0 583.0,43.0 584.0,43.0 585.0,42.0 586.0,42.0 587.0,41.0 588.0,41.0 589.0,40.0 590.0,40.0 591.0,39.0 592.0,40.0 593.0,38.0 594.0,38.0 595.0,38.0 596.0,37.0 597.0,37.0 598.0,36.0 599.0,36.0 600.0,35.0 601.0,35.0 602.0,34.0 603.0,33.0 604.0,33.0 605.0,32.0 606.0,32.0 607.0,32.0 608.0,31.0 609.0,31.0 610.0,31.0 611.0,30.0 612.0,29.0 613.0,28.0 614.0,29.0 615.0,27.0 616.0,28.0 617.0,27.0 618.0,27.0 619.0,26.0 620.0,26.0 621.0,25.0 622.0,25.0 623.0,24.0 624.0,24.0 625.0,23.0 626.0,23.0 627.0,22.0 628.0,23.0 629.0,21.0 630.0,21.0 631.0,20.0 632.0,19.0 633.0,19.0 634.0,18.0 635.0,18.0 636.0,17.0 637.0,18.0 638.0,16.0 639.0,17.0 640.0,15.0 641.0,16.0 642.0,14.0 643.0,15.0 644.0,13.0 645.0,14.0 646.0,12.0 647.0,13.0 648.0,12.0 649.0,12.0 650.0,10.0 651.0,11.0 652.0,10.0 653.0,10.0 654.0,9.0" fill="none" stroke="#0000ff" />
	<polyline points="55.0,304.0 56.0,298.0 57.0,303.0 58.0,299.0 59.0,303.0 60.0,299.0 61.0,302.0 62.0,299.0 63.0,301.0 64.0,298.0 65.0,300.0 66.0,298.0 67.0,299.0 68.0,298.0 69.0,298.0 70.0,297.0 71.0,297.0 72.0,295.0 73.0,296.0 74.0,295.0 75.0,295.0 76.0,295.0 77.0,295.0 78.0,295.0 79.0,294.0 80.0,294.0 81.0,294.0 82.0,293.0 83.0,293.0 84.0,293.0 85.0,293.0 86.0,291.0 87.0,292.0 88.0,291.0 89.0,291.0 90.0,291.0 91.0,290.0 92.0,290.0 93.0,288.0 94.0,289.0 95.0,287.0 96.0,287.0 97.0,285.0 98.0,285.0 99.0,284.0 100.0,284.0 101.0,283.0 102.0,284.0 103.0,283.0 104.0,283.0 105.0,283.0 106.0,282.0 107.0,282.0 108.0,281.0 109.0,281.0 110.0,280.0 111.0,280.0 112.0,279.0 113.0,279.0 114.0,277.0 115.0,278.0 116.0,277.0 117.0,277.0 118.0,276.0 119.0,276.0 120.0,276.0 121.0,275.0 122.0,275.0 123.0,274.0 124.0,274.0 125.0,274.0 126.0,273.0 127.0,272.0 128.0,272.0 129.0,272.0 130.0,271.0 131.0,272.0 132.0,269.0 133.0,270.0 134.0,268.0 135.0,268.0 136.0,267.0 137.0,266.0 138.0,266.0 139.0,265.0 140.0,264.0 141.0,264.0 142.0,263.0 143.0,263.0 144.0,262.0 145.0,263.0 146.0,262.0 147.0,263.0 148.0,263.0 149.0,263.0 150.0,261.0 151.0,262.0 152.0,261.0 153.0,261.0 154.0,261.0 155.0,262.0 156.0,261.0 157.0,261.0 158.0,261.0 159.0,262.0 160.0,261.0 161.0,261.0 162.0,259.0 163.0,258.0 164.0,259.0 165.0,258.0 166.0,258.0 167.0,258.0 168.0,257.0 169.0,257.0 170.0,256.0 171.0,257.0 172.0,256.0 173.0,255.0 174.0,256.0 175.0,254.0 176.0,254.0 177.0,254.0 178.0,253.0 179.0,254.0 180.0,253.0 181.0,254.0 182.0,251.0 183.0,253.0 184.0,252.0 185.0,251.0 186.0,252.0 187.0,251.0 188.0,251.0 189.0,251.0 190.0,250.0 191.0,251.0 192.0,249.0 193.0,249.0 194.0,248.0 195.0,249.0 196.0,249.0 197.0,248.0 198.0,248.0 199.0,249.0 200.0,248.0 201.0,248.0 202.0,248.0 203.0,247.0 204.0,247.0 205.0,246.0 206.0,244.0 207.0,245.0 208.0,244.0 209.0,243.0 210.0,243.0 211.0,242.0 212.0,243.0 213.0,242.0 214.0,241.0 215.0,240.0 216.0,240.0 217.0,239.0 218.0,239.0 219.0,237.0 220.0,235.0 221.0,236.0 222.0,235.0 223.0,233.0 224.0,232.0 225.0,232.0 226.0,231.0 227.0,230.0 228.0,229.0 229.0,227.0 230.0,226.0 231.0,225.0 232.0,224.0 233.0,223.0 234.0,223.0 235.0,222.0 236.0,223.0 237.0,222.0 238.0,221.0 239.0,221.0 240.0,222.0 241.0,221.0 242.0,220.0 243.0,220.0 244.0,220.0 245.0,220.0 246.0,220.0 247.0,218.0 248.0,218.0 249.0,217.0 250.0,216.0 251.0,217.0 252.0,216.0 253.0,215.0 254.0,216.0 255.0,215.0 256.0,214.0 257.0,214.0 258.0,215.0 259.0,214.0 260.0,213.0 261.0,213.0 262.0,213.0 263.0,213.0 264.0,213.0 265.0,213.0 266.0,212.0 267.0,211.0 268.0,211.0 269.0,212.0 270.0,210.0 271.0,210.0 272.0,209.0 273.0,210.0 274.0,208.0 275.0,209.0 276.0,209.0 277.0,208.0 278.0,208.0 279.0,206.0 280.0,206.0 281.0,206.0 282.0,206.0 283.0,206.0 284.0,206.0 285.0,206.0 286.0,205.0 287.0,203.0 288.0,203.0 289.0,201.0 290.0,201.0 291.0,201.0 292.0,199.0 293.0,200.0 294.0,199.0 295.0,199.0 296.0,196.0 297.0,198.0 298.0,196.0 299.0,195.0 300.0,196.0 301.0,195.0 302.0,193.0 303.0,193.0 304.0,193.0 305.0,192.0 306.0,191.0 307.0,191.0 308.0,189.0 309.0,190.0 310.0,189.0 311.0,187.0 312.0,188.0 313.0,187.0 314.0,186.0 315.0,184.0 316.0,185.0 317.0,183.0 318.0,184.0 319.0,183.0 320.0,182.0 321.0,183.0 322.0,182.0 323.0,182.0 324.0,181.0 325.0,180.0 326.0,180.0 327.0,179.0 328.0,179.0 329.0,178.0 330.0,179.0 331.0,178.0 332.0,179.0 333.0,179.0 334.0,177.0 335.0,177.0 336.0,176.0 337.0,176.0 338.0,174.0 339.0,175.0 340.0,175.0 341.0,174.0 342.0,173.0 343.0,172.0 344.0,171.0 345.0,172.0 346.0,170.0 347.0,169.0 348.0,170.0 349.0,169.0 350.0,169.0 351.0,168.0 352.0,168.0 353.0,168.0 354.0,167.0 355.0,165.0 356.0,166.0 357.0,164.0 358.0,164.0 359.0,163.0 360.0,163.0 361.0,160.0 362.0,161.0 363.0,160.0 364.0,159.0 365.0,158.0 366.0,157.0 367.0,157.0 368.0,158.0 369.0,153.0 370.0,155.0 371.0,154.0 372.0,153.0 373.0,151.0 374.0,151.0 375.0,150.0 376.0,148.0 377.0,148.0 378.0,148.0 379.0,147.0 380.0,148.0 381.0,145.0 382.0,147.0 383.0,145.0 384.0,146.0 385.0,145.0 386.0,145.0 387.0,143.0 388.0,145.0 389.0,144.0 390.0,145.0 391.0,143.0 392.0,144.0 393.0,142.0 394.0,143.0 395.0,142.0 396.0,143.0 397.0,142.0 398.0,141.0 399.0,142.0 400.0,140.0 401.0,141.0 402.0,141.0 403.0,139.0 404.0,139.0 405.0,139.0 406.0,138.0 407.0,139.0 408.0,137.0 409.0,137.0 410.0,136.0 411.0,136.0 412.0,136.0 413.0,135.0 414.0,136.0 415.0,135.0 416.0,134.0 417.0,135.0 418.0,135.0 419.0,135.0 420.0,134.0 421.0,133.0 422.0,134.0 423.0,132.0 424.0,132.0 425.0,131.0 426.0,131.0 427.0,130.0 428.0,129.0 429.0,129.0 430.0,128.0 431.0,128.0 432.0,127.0 433.0,127.0 434.0,126.0 435.0,126.0 436.0,124.0 437.0,124.0 438.0,123.0 439.0,123.0 440.0,123.0 441.0,122.0 442.0,122.0 443.0,121.0 444.0,121.0 445.0,119.0 446.0,120.0 447.0,119.0 448.0,120.0 449.0,120.0 450.0,118.0 451.0,118.0 452.0,119.0 453.0,118.0 454.0,118.0 455.0,119.0 456.0,119.0 457.0,118.0 458.0,119.0 459.0,120.0 460.0,119.0 461.0,120.0 462.0,120.0 463.0,118.0 464.0,118.0 465.0,118.0 466.0,117.0 467.0,117.0 468.0,117.0 469.0,118.0 470.0,117.0 471.0,115.0 472.0,116.0 473.0,116.0 474.0,115.0 475.0,115.0 476.0,115.0 477.0,114.0 478.0,114.0 479.0,114.0 480.0,113.0 481.0,114.0 482.0,112.0 483.0,111.0 484.0,113.0 485.0,112.0 486.0,112.0 487.0,111.0 488.0,110.0 489.0,111.0 490.0,111.0 491.0,109.0 492.0,109.0 493.0,109.0 494.0,109.0 495.0,109.0 496.0,108.0 497.0,108.0 498.0,107.0 499.0,107.0 500.0,106.0 501.0,106.0 502.0,106.0 503.0,106.0 504.0,105.0 505.0,105.0 506.0,105.0 507.0,104.0 508.0,104.0 509.0,103.0 510.0,102.0 511.0,102.0 512.0,100.0 513.0,101.0 514.0,100.0 515.0,99.0 516.0,98.0 517.0,98.0 518.0,96.0 519.0,96.0 520.0,96.0 521.0,94.0 522.0,93.0 523.0,92.0 524.0,92.0 525.0,91.0 526.0,91.0 527.0,89.0 528.0,89.0 529.0,87.0 530.0,87.0 531.0,86.0 532.0,87.0 533.0,85.0 534.0,84.0 535.0,83.0 536.0,83.0 537.0,83.0 538.0,82.0 539.0,82.0 540.0,81.0 541.0,81.0 542.0,80.0 543.0,80.0 544.0,79.0 545.0,78.0 546.0,77.0 547.0,76.0 548.0,75.0 549.0,75.0 550.0,74.0 551.0,72.0 552.0,72.0 553.0,71.0 554.0,71.0 555.0,69.0 556.0,69.0 557.0,68.0 558.0,67.0 559.0,66.0 560.0,65.0 561.0,65.0 562.0,64.0 563.0,63.0 564.0,63.0 565.0,62.0 566.0,62.0 567.0,61.0 568.0,61.0 569.0,61.0 570.0,60.0 571.0,60.0 572.0,58.0 573.0,59.0 574.0,57.0 575.0,57.0 576.0,58.0 577.0,56.0 578.0,57.0 579.0,55.0 580.0,55.0 581.0,54.0 582.0,55.0 583.0,55.0 584.0,52.0 585.0,54.0 586.0,53.0 587.0,53.0 588.0,52.0 589.0,52.0 590.0,53.0 591.0,50.0 592.0,51.0 593.0,51.0 594.0,51.0 595.0,51.0 596.0,52.0 597.0,50.0 598.0,52.0 599.0,51.0 600.0,51.0 601.0,51.0 602.0,51.0 603.0,51.0 604.0,51.0 605.0,50.0 606.0,51.0 607.0,51.0 608.0,50.0 609.0,49.0 610.0,50.0 611.0,49.0 612.0,46.0 613.0,48.0 614.0,46.0 615.0,46.0 616.0,45.0 617.0,44.0 618.0,44.0 619.0,43.0 620.0,43.0 621.0,42.0 622.0,41.0 623.0,40.0 624.0,38.0 625.0,39.0 626.0,38.0 627.0,36.0 628.0,37.0 629.0,36.0 630.0,35.0 631.0,34.0 632.0,34.0 633.0,33.0 634.0,32.0 635.0,32.0 636.0,30.0 637.0,31.0 638.0,29.0 639.0,29.0 640.0,28.0 641.0,29.0 642.0,27.0 643.0,28.0 644.0,27.0 645.0,27.0 646.0,27.0 647.0,27.0 648.0,25.0 649.0,26.0 650.0,26.0 651.0,25.0 652.0,25.0 653.0,26.0 654.0,26.0" fill="none" stroke="#00bfff" />
	<polyline points="55.0,304.0 56.0,298.0 57.0,303.0 58.0,299.0 59.0,303.0 60.0,299.0 61.0,302.0 62.0,299.0 63.0,301.0 64.0,299.0 65.0,300.0 66.0,298.0 67.0,299.0 68.0,298.0 69.0,299.0 70.0,298.0 71.0,298.0 72.0,297.0 73.0,297.0 74.0,296.0 75.0,296.0 76.0,295.0 77.0,295.0 78.0,293.0 79.0,294.0 80.0,294.0 81.0,294.0 82.0,294.0 83.0,293.0 84.0,294.0 85.0,293.0 86.0,293.0 87.0,293.0 88.0,293.0 89.0,292.0 90.0,292.0 91.0,292.0 92.0,291.0 93.0,292.0 94.0,290.0 95.0,290.0 96.0,290.0 97.0,290.0 98.0,290.0 99.0,289.0 100.0,289.0 101.0,288.0 102.0,289.0 103.0,287.0 104.0,288.0 105.0,287.0 106.0,287.0 107.0,286.0 108.0,287.0 109.0,285.0 110.0,286.0 111.0,284.0 112.0,284.0 113.0,283.0 114.0,283.0 115.0,282.0 116.0,281.0 117.0,280.0 118.0,279.0 119.0,278.0 120.0,278.0 121.0,277.0 122.0,277.0 123.0,275.0 124.0,276.0 125.0,274.0 126.0,274.0 127.0,273.0 128.0,273.0 129.0,273.0 130.0,271.0 131.0,271.0 132.0,270.0 133.0,269.0 134.0,270.0 135.0,268.0 136.0,268.0 137.0,269.0 138.0,267.0 139.0,267.0 140.0,265.0 141.0,266.0 142.0,265.0 143.0,264.0 144.0,265.0 145.0,265.0 146.0,266.0 147.0,265.0 148.0,267.0 149.0,266.0 150.0,264.0 151.0,266.0 152.0,264.0 153.0,265.0 154.0,264.0 155.0,264.0 156.0,263.0 157.0,263.0 158.0,262.0 159.0,263.0 160.0,261.0 161.0,262.0 162.0,261.0 163.0,261.0 164.0,260.0 165.0,261.0 166.0,259.0 167.0,259.0 168.0,259.0 169.0,258.0 170.0,257.0 171.0,258.0 172.0,256.0 173.0,257.0 174.0,255.0 175.0,256.0 176.0,255.0 177.0,255.0 178.0,253.0 179.0,253.0 180.0,250.0 181.0,250.0 182.0,248.0 183.0,247.0 184.0,246.0 185.0,245.0 186.0,244.0 187.0,243.0 188.0,242.0 189.0,241.0 190.0,240.0 191.0,240.0 192.0,239.0 193.0,238.0 194.0,237.0 195.0,237.0 196.0,236.0 197.0,235.0 198.0,234.0 199.0,234.0 200.0,233.0 201.0,233.0 202.0,232.0 203.0,232.0 204.0,231.0 205.0,230.0 206.0,230.0 207.0,230.0 208.0,230.0 209.0,229.0 210.0,228.0 211.0,229.0 212.0,228.0 213.0,228.0 214.0,228.0 215.0,227.0 216.0,228.0 217.0,226.0 218.0,227.0 219.0,227.0 220.0,227.0 221.0,228.0 222.0,227.0 223.0,228.0 224.0,227.0 225.0,228.0 226.0,226.0 227.0,228.0 228.0,227.0 229.0,228.0 230.0,227.0 231.0,228.0 232.0,228.0 233.0,229.0 234.0,229.0 235.0,230.0 236.0,230.0 237.0,231.0 238.0,230.0 239.0,231.0 240.0,231.0 241.0,232.0 242.0,232.0 243.0,232.0 244.0,232.0 245.0,231.0 246.0,231.0 247.0,231.0 248.0,231.0 249.0,230.0 250.0,229.0 251.0,229.0 252.0,229.0 253.0,229.0 254.0,228.0 255.0,228.0 256.0,227.0 257.0,226.0 258.0,225.0 259.0,225.0 260.0,225.0 261.0,224.0 262.0,223.0 263.0,223.0 264.0,221.0 265.0,221.0 266.0,220.0 267.0,219.0 268.0,219.0 269.0,218.0 270.0,218.0 271.0,216.0 272.0,215.0 273.0,214.0 274.0,212.0 275.0,211.0 276.0,209.0 277.0,208.0 278.0,207.0 279.0,205.0 280.0,204.0 281.0,204.0 282.0,202.0 283.0,203.0 284.0,201.0 285.0,202.0 286.0,199.0 287.0,198.0 288.0,198.0 289.0,197.0 290.0,195.0 291.0,196.0 292.0,195.0 293.0,195.0 294.0,193.0 295.0,192.0 296.0,193.0 297.0,192.0 298.0,191.0 299.0,190.0 300.0,189.0 301.0,189.0 302.0,189.0 303.0,188.0 304.0,187.0 305.0,187.0 306.0,187.0 307.0,186.0 308.0,186.0 309.0,185.0 310.0,185.0 311.0,185.0 312.0,185.0 313.0,185.0 314.0,183.0 315.0,184.0 316.0,185.0 317.0,184.0 318.0,183.0 319.0,182.0 320.0,185.0 321.0,182.0 322.0,184.0 323.0,184.0 324.0,183.0 325.0,184.0 326.0,185.0 327.0,185.0 328.0,185.0 329.0,185.0 330.0,184.0 331.0,185.0 332.0,184.0 333.0,185.0 334.0,183.0 335.0,183.0 336.0,182.0 337.0,181.0 338.0,179.0 339.0,178.0 340.0,177.0 341.0,178.0 342.0,176.0 343.0,177.0 344.0,174.0 345.0,176.0 346.0,176.0 347.0,174.0 348.0,176.0 349.0,173.0 350.0,175.0 351.0,174.0 352.0,175.0 353.0,174.0 354.0,175.0 355.0,174.0 356.0,175.0 357.0,175.0 358.0,173.0 359.0,175.0 360.0,173.0 361.0,173.0 362.0,172.0 363.0,173.0 364.0,173.0 365.0,172.0 366.0,173.0 367.0,172.0 368.0,171.0 369.0,170.0 370.0,170.0 371.0,169.0 372.0,169.0 373.0,168.0 374.0,167.0 375.0,167.0 376.0,167.0 377.0,165.0 378.0,164.0 379.0,164.0 380.0,163.0 381.0,163.0 382.0,162.0 383.0,161.0 384.0,161.0 385.0,159.0 386.0,158.0 387.0,158.0 388.0,156.0 389.0,155.0 390.0,154.0 391.0,153.0 392.0,154.0 393.0,152.0 394.0,153.0 395.0,150.0 396.0,151.0 397.0,150.0 398.0,149.0 399.0,149.0 400.0,147.0 401.0,148.0 402.0,147.0 403.0,147.0 404.0,145.0 405.0,146.0 406.0,144.0 407.0,145.0 408.0,139.0 409.0,142.0 410.0,141.0 411.0,141.0 412.0,141.0 413.0,141.0 414.0,139.0 415.0,139.0 416.0,138.0 417.0,137.0 418.0,137.0 419.0,136.0 420.0,136.0 421.0,136.0 422.0,135.0 423.0,135.0 424.0,135.0 425.0,133.0 426.0,134.0 427.0,134.0 428.0,133.0 429.0,132.0 430.0,132.0 431.0,130.0 432.0,131.0 433.0,131.0 434.0,130.0 435.0,130.0 436.0,129.0 437.0,130.0 438.0,129.0 439.0,129.0 440.0,127.0 441.0,127.0 442.0,127.0 443.0,125.0 444.0,125.0 445.0,124.0 446.0,124.0 447.0,123.0 448.0,124.0 449.0,121.0 450.0,122.0 451.0,121.0 452.0,120.0 453.0,120.0 454.0,120.0 455.0,118.0 456.0,118.0 457.0,117.0 458.0,117.0 459.0,117.0 460.0,117.0 461.0,116.0 462.0,114.0 463.0,114.0 464.0,113.0 465.0,113.0 466.0,111.0 467.0,112.0 468.0,110.0 469.0,109.0 470.0,109.0 471.0,108.0 472.0,108.0 473.0,107.0 474.0,107.0 475.0,106.0 476.0,106.0 477.0,105.0 478.0,105.0 479.0,105.0 480.0,104.0 481.0,103.0 482.0,103.0 483.0,103.0 484.0,103.0 485.0,102.0 486.0,101.0 487.0,101.0 488.0,101.0 489.0,100.0 490.0,100.0 491.0,100.0 492.0,100.0 493.0,98.0 494.0,100.0 495.0,99.0 496.0,99.0 497.0,99.0 498.0,98.0 499.0,98.0 500.0,98.0 501.0,98.0 502.0,97.0 503.0,96.0 504.0,97.0 505.0,96.0 506.0,96.0 507.0,96.0 508.0,95.0 509.0,94.0 510.0,94.0 511.0,93.0 512.0,94.0 513.0,92.0 514.0,92.0 515.0,92.0 516.0,90.0 517.0,91.0 518.0,90.0 519.0,90.0 520.0,90.0 521.0,89.0 522.0,88.0 523.0,88.0 524.0,88.0 525.0,84.0 526.0,86.0 527.0,84.0 528.0,84.0 529.0,83.0 530.0,83.0 531.0,82.0 532.0,83.0 533.0,83.0 534.0,81.0 535.0,82.0 536.0,81.0 537.0,82.0 538.0,82.0 539.0,81.0 540.0,82.0 541.0,81.0 542.0,82.0 543.0,81.0 544.0,82.0 545.0,80.0 546.0,80.0 547.0,80.0 548.0,80.0 549.0,79.0 550.0,79.0 551.0,78.0 552.0,78.0 553.0,77.0 554.0,77.0 555.0,77.0 556.0,76.0 557.0,76.0 558.0,74.0 559.0,71.0 560.0,73.0 561.0,71.0 562.0,70.0 563.0,70.0 564.0,68.0 565.0,69.0 566.0,69.0 567.0,68.0 568.0,68.0 569.0,68.0 570.0,66.0 571.0,67.0 572.0,67.0 573.0,67.0 574.0,67.0 575.0,66.0 576.0,65.0 577.0,64.0 578.0,64.0 579.0,64.0 580.0,63.0 581.0,62.0 582.0,62.0 583.0,62.0 584.0,62.0 585.0,61.0 586.0,62.0 587.0,61.0 588.0,61.0 589.0,59.0 590.0,61.0 591.0,59.0 592.0,60.0 593.0,58.0 594.0,60.0 595.0,58.0 596.0,58.0 597.0,58.0 598.0,58.0 599.0,57.0 600.0,57.0 601.0,56.0 602.0,57.0 603.0,55.0 604.0,55.0 605.0,54.0 606.0,54.0 607.0,54.0 608.0,54.0 609.0,53.0 610.0,53.0 611.0,52.0 612.0,51.0 613.0,52.0 614.0,50.0 615.0,50.0 616.0,50.0 617.0,48.0 618.0,49.0 619.0,47.0 620.0,47.0 621.0,47.0 622.0,46.0 623.0,46.0 624.0,44.0 625.0,45.0 626.0,45.0 627.0,45.0 628.0,43.0 629.0,44.0 630.0,43.0 631.0,43.0 632.0,42.0 633.0,42.0 634.0,41.0 635.0,42.0 636.0,41.0 637.0,41.0 638.0,40.0 639.0,40.0 640.0,39.0 641.0,39.0 642.0,38.0 643.0,37.0 644.0,35.0 645.0,35.0 646.0,32.0 647.0,32.0 648.0,32.0 649.0,32.0 650.0,30.0 651.0,31.0 652.0,28.0 653.0,30.0 654.0,28.0" fill="none" stroke="#4876ff" />
	<polyline points="55.0,304.0 56.0,298.0 57.0,303.0 58.0,299.0 59.0,303.0 60.0,299.0 61.0,302.0 62.0,299.0 63.0,301.0 64.0,299.0 65.0,300.0 66.0,299.0 67.0,300.0 68.0,298.0 69.0,299.0 70.0,298.0 71.0,298.0 72.0,298.0 73.0,297.0 74.0,297.0 75.0,297.0 76.0,297.0 77.0,297.0 78.0,297.0 79.0,296.0 80.0,296.0 81.0,296.0 82.0,295.0 83.0,296.0 84.0,294.0 85.0,295.0 86.0,293.0 87.0,294.0 88.0,293.0 89.0,293.0 90.0,292.0 91.0,292.0 92.0,291.0 93.0,291.0 94.0,289.0 95.0,289.0 96.0,290.0 97.0,288.0 98.0,288.0 99.0,287.0 100.0,287.0 101.0,286.0 102.0,286.0 103.0,286.0 104.0,283.0 105.0,284.0 106.0,282.0 107.0,282.0 108.0,281.0 109.0,281.0 110.0,280.0 111.0,280.0 112.0,278.0 113.0,277.0 114.0,277.0 115.0,276.0 116.0,277.0 117.0,275.0 118.0,273.0 119.0,274.0 120.0,274.0 121.0,272.0 122.0,271.0 123.0,271.0 124.0,270.0 125.0,270.0 126.0,269.0 127.0,270.0 128.0,268.0 129.0,267.0 130.0,267.0 131.0,267.0 132.0,266.0 133.0,266.0 134.0,266.0 135.0,265.0 136.0,265.0 137.0,263.0 138.0,264.0 139.0,263.0 140.0,264.0 141.0,263.0 142.0,262.0 143.0,262.0 144.0,262.0 145.0,261.0 146.0,261.0 147.0,260.0 148.0,261.0 149.0,260.0 150.0,262.0 151.0,260.0 152.0,261.0 153.0,261.0 154.0,261.0 155.0,260.0 156.0,260.0 157.0,260.0 158.0,260.0 159.0,259.0 160.0,259.0 161.0,259.0 162.0,259.0 163.0,258.0 164.0,258.0 165.0,258.0 166.0,257.0 167.0,257.0 168.0,256.0 169.0,256.0 170.0,255.0 171.0,254.0 172.0,255.0 173.0,255.0 174.0,255.0 175.0,254.0 176.0,255.0 177.0,254.0 178.0,254.0 179.0,254.0 180.0,254.0 181.0,254.0 182.0,253.0 183.0,253.0 184.0,252.0 185.0,252.0 186.0,251.0 187.0,250.0 188.0,250.0 189.0,249.0 190.0,248.0 191.0,248.0 192.0,248.0 193.0,246.0 194.0,245.0 195.0,246.0 196.0,245.0 197.0,244.0 198.0,244.0 199.0,244.0 200.0,243.0 201.0,244.0 202.0,242.0 203.0,243.0 204.0,243.0 205.0,244.0 206.0,242.0 207.0,242.0 208.0,241.0 209.0,241.0 210.0,241.0 211.0,241.0 212.0,240.0 213.0,240.0 214.0,240.0 215.0,234.0 216.0,237.0 217.0,236.0 218.0,236.0 219.0,235.0 220.0,235.0 221.0,235.0 222.0,232.0 223.0,233.0 224.0,230.0 225.0,231.0 226.0,228.0 227.0,229.0 228.0,228.0 229.0,227.0 230.0,227.0 231.0,225.0 232.0,224.0 233.0,224.0 234.0,223.0 235.0,222.0 236.0,222.0 237.0,220.0 238.0,220.0 239.0,218.0 240.0,218.0 241.0,219.0 242.0,218.0 243.0,219.0 244.0,216.0 245.0,217.0 246.0,217.0 247.0,215.0 248.0,216.0 249.0,215.0 250.0,214.0 251.0,213.0 252.0,213.0 253.0,213.0 254.0,213.0 255.0,212.0 256.0,211.0 257.0,210.0 258.0,209.0 259.0,208.0 260.0,208.0 261.0,208.0 262.0,207.0 263.0,208.0 264.0,206.0 265.0,206.0 266.0,206.0 267.0,204.0 268.0,204.0 269.0,204.0 270.0,202.0 271.0,202.0 272.0,200.0 273.0,201.0 274.0,199.0 275.0,199.0 276.0,198.0 277.0,198.0 278.0,197.0 279.0,198.0 280.0,197.0 281.0,197.0 282.0,197.0 283.0,197.0 284.0,196.0 285.0,196.0 286.0,196.0 287.0,196.0 288.0,196.0 289.0,195.0 290.0,195.0 291.0,195.0 292.0,195.0 293.0,194.0 294.0,194.0 295.0,194.0 296.0,194.0 297.0,193.0 298.0,193.0 299.0,193.0 300.0,193.0 301.0,192.0 302.0,192.0 303.0,190.0 304.0,190.0 305.0,189.0 306.0,189.0 307.0,188.0 308.0,188.0 309.0,187.0 310.0,187.0 311.0,186.0 312.0,186.0 313.0,185.0 314.0,185.0 315.0,184.0 316.0,184.0 317.0,183.0 318.0,182.0 319.0,181.0 320.0,181.0 321.0,180.0 322.0,179.0 323.0,178.0 324.0,177.0 325.0,176.0 326.0,174.0 327.0,174.0 328.0,172.0 329.0,171.0 330.0,168.0 331.0,168.0 332.0,166.0 333.0,164.0 334.0,163.0 335.0,162.0 336.0,162.0 337.0,161.0 338.0,160.0 339.0,160.0 340.0,159.0 341.0,159.0 342.0,159.0 343.0,158.0 344.0,157.0 345.0,158.0 346.0,157.0 347.0,156.0 348.0,156.0 349.0,155.0 350.0,155.0 351.0,154.0 352.0,153.0 353.0,154.0 354.0,153.0 355.0,153.0 356.0,152.0 357.0,151.0 358.0,151.0 359.0,150.0 360.0,150.0 361.0,149.0 362.0,150.0 363.0,149.0 364.0,148.0 365.0,148.0 366.0,147.0 367.0,147.0 368.0,146.0 369.0,146.0 370.0,146.0 371.0,144.0 372.0,145.0 373.0,144.0 374.0,144.0 375.0,143.0 376.0,143.0 377.0,142.0 378.0,142.0 379.0,141.0 380.0,141.0 381.0,140.0 382.0,141.0 383.0,140.0 384.0,140.0 385.0,139.0 386.0,140.0 387.0,137.0 388.0,139.0 389.0,137.0 390.0,138.0 391.0,136.0 392.0,136.0 393.0,136.0 394.0,135.0 395.0,135.0 396.0,133.0 397.0,134.0 398.0,133.0 399.0,133.0 400.0,132.0 401.0,132.0 402.0,132.0 403.0,131.0 404.0,130.0 405.0,130.0 406.0,130.0 407.0,128.0 408.0,129.0 409.0,127.0 410.0,128.0 411.0,127.0 412.0,127.0 413.0,126.0 414.0,126.0 415.0,125.0 416.0,124.0 417.0,124.0 418.0,124.0 419.0,123.0 420.0,123.0 421.0,122.0 422.0,122.0 423.0,121.0 424.0,121.0 425.0,120.0 426.0,120.0 427.0,119.0 428.0,119.0 429.0,119.0 430.0,118.0 431.0,117.0 432.0,117.0 433.0,117.0 434.0,116.0 435.0,116.0 436.0,115.0 437.0,114.0 438.0,114.0 439.0,114.0 440.0,112.0 441.0,112.0 442.0,112.0 443.0,112.0 444.0,111.0 445.0,110.0 446.0,110.0 447.0,109.0 448.0,109.0 449.0,109.0 450.0,108.0 451.0,108.0 452.0,107.0 453.0,106.0 454.0,106.0 455.0,105.0 456.0,105.0 457.0,104.0 458.0,104.0 459.0,103.0 460.0,104.0 461.0,102.0 462.0,101.0 463.0,101.0 464.0,101.0 465.0,100.0 466.0,100.0 467.0,99.0 468.0,99.0 469.0,97.0 470.0,97.0 471.0,97.0 472.0,96.0 473.0,96.0 474.0,95.0 475.0,95.0 476.0,94.0 477.0,93.0 478.0,93.0 479.0,93.0 480.0,93.0 481.0,92.0 482.0,91.0 483.0,90.0 484.0,90.0 485.0,90.0 486.0,89.0 487.0,89.0 488.0,88.0 489.0,88.0 490.0,87.0 491.0,86.0 492.0,86.0 493.0,86.0 494.0,84.0 495.0,86.0 496.0,83.0 497.0,84.0 498.0,83.0 499.0,84.0 500.0,83.0 501.0,82.0 502.0,83.0 503.0,81.0 504.0,81.0 505.0,81.0 506.0,80.0 507.0,79.0 508.0,79.0 509.0,79.0 510.0,78.0 511.0,77.0 512.0,77.0 513.0,77.0 514.0,77.0 515.0,76.0 516.0,75.0 517.0,75.0 518.0,75.0 519.0,75.0 520.0,74.0 521.0,73.0 522.0,73.0 523.0,73.0 524.0,72.0 525.0,71.0 526.0,72.0 527.0,70.0 528.0,70.0 529.0,69.0 530.0,69.0 531.0,68.0 532.0,68.0 533.0,68.0 534.0,67.0 535.0,66.0 536.0,67.0 537.0,66.0 538.0,65.0 539.0,65.0 540.0,64.0 541.0,63.0 542.0,64.0 543.0,62.0 544.0,62.0 545.0,62.0 546.0,62.0 547.0,61.0 548.0,61.0 549.0,60.0 550.0,59.0 551.0,59.0 552.0,58.0 553.0,58.0 554.0,57.0 555.0,56.0 556.0,56.0 557.0,57.0 558.0,55.0 559.0,55.0 560.0,54.0 561.0,54.0 562.0,53.0 563.0,53.0 564.0,52.0 565.0,52.0 566.0,52.0 567.0,51.0 568.0,50.0 569.0,50.0 570.0,50.0 571.0,49.0 572.0,48.0 573.0,48.0 574.0,48.0 575.0,47.0 576.0,47.0 577.0,46.0 578.0,46.0 579.0,45.0 580.0,46.0 581.0,44.0 582.0,45.0 583.0,43.0 584.0,44.0 585.0,42.0 586.0,43.0 587.0,41.0 588.0,42.0 589.0,39.0 590.0,41.0 591.0,39.0 592.0,40.0 593.0,38.0 594.0,39.0 595.0,37.0 596.0,38.0 597.0,36.0 598.0,37.0 599.0,35.0 600.0,36.0 601.0,35.0 602.0,34.0 603.0,34.0 604.0,34.0 605.0,33.0 606.0,33.0 607.0,32.0 608.0,32.0 609.0,31.0 610.0,31.0 611.0,30.0 612.0,30.0 613.0,29.0 614.0,29.0 615.0,28.0 616.0,28.0 617.0,27.0 618.0,27.0 619.0,26.0 620.0,27.0 621.0,25.0 622.0,26.0 623.0,24.0 624.0,25.0 625.0,23.0 626.0,23.0 627.0,22.0 628.0,23.0 629.0,21.0 630.0,21.0 631.0,20.0 632.0,21.0 633.0,19.0 634.0,19.0 635.0,18.0 636.0,18.0 637.0,18.0 638.0,17.0 639.0,18.0 640.0,16.0 641.0,16.0 642.0,14.0 643.0,15.0 644.0,13.0 645.0,13.0 646.0,12.0 647.0,13.0 648.0,11.0 649.0,12.0 650.0,10.0 651.0,11.0 652.0,10.0 653.0,10.0 654.0,9.0" fill="none" stroke="#aeeeee" />
	<polyline points="55.0,304.0 56.0,298.0 57.0,303.0 58.0,299.0 59.0,303.0 60.0,299.0 61.0,302.0 62.0,299.0 63.0,301.0 64.0,299.0 65.0,300.0 66.0,299.0 67.0,299.0 68.0,298.0 69.0,299.0 70.0,297.0 71.0,297.0 72.0,296.0 73.0,296.0 74.0,295.0 75.0,294.0 76.0,294.0 77.0,292.0 78.0,293.0 79.0,292.0 80.0,292.0 81.0,291.0 82.0,291.0 83.0,292.0 84.0,290.0 85.0,290.0 86.0,290.0 87.0,290.0 88.0,289.0 89.0,288.0 90.0,289.0 91.0,287.0 92.0,288.0 93.0,286.0 94.0,286.0 95.0,286.0 96.0,286.0 97.0,284.0 98.0,285.0 99.0,284.0 100.0,284.0 101.0,283.0 102.0,284.0 103.0,282.0 104.0,282.0 105.0,282.0 106.0,282.0 107.0,280.0 108.0,282.0 109.0,279.0 110.0,279.0 111.0,280.0 112.0,279.0 113.0,279.0 114.0,279.0 115.0,279.0 116.0,279.0 117.0,278.0 118.0,279.0 119.0,277.0 120.0,277.0 121.0,277.0 122.0,276.0 123.0,276.0 124.0,275.0 125.0,274.0 126.0,275.0 127.0,273.0 128.0,273.0 129.0,273.0 130.0,272.0 131.0,273.0 132.0,271.0 133.0,270.0 134.0,270.0 135.0,270.0 136.0,271.0 137.0,270.0 138.0,269.0 139.0,268.0 140.0,269.0 141.0,269.0 142.0,268.0 143.0,268.0 144.0,269.0 145.0,269.0 146.0,267.0 147.0,268.0 148.0,267.0 149.0,267.0 150.0,267.0 151.0,265.0 152.0,266.0 153.0,265.0 154.0,263.0 155.0,263.0 156.0,261.0 157.0,261.0 158.0,260.0 159.0,258.0 160.0,259.0 161.0,258.0 162.0,258.0 163.0,258.0 164.0,256.0 165.0,257.0 166.0,256.0 167.0,255.0 168.0,255.0 169.0,254.0 170.0,253.0 171.0,253.0 172.0,253.0 173.0,252.0 174.0,251.0 175.0,252.0 176.0,250.0 177.0,249.0 178.0,250.0 179.0,249.0 180.0,248.0 181.0,248.0 182.0,249.0 183.0,248.0 184.0,247.0 185.0,248.0 186.0,247.0 187.0,248.0 188.0,248.0 189.0,247.0 190.0,246.0 191.0,247.0 192.0,247.0 193.0,247.0 194.0,247.0 195.0,248.0 196.0,247.0 197.0,247.0 198.0,247.0 199.0,246.0 200.0,247.0 201.0,246.0 202.0,245.0 203.0,246.0 204.0,245.0 205.0,245.0 206.0,244.0 207.0,243.0 208.0,244.0 209.0,242.0 210.0,242.0 211.0,242.0 212.0,241.0 213.0,241.0 214.0,240.0 215.0,240.0 216.0,239.0 217.0,238.0 218.0,236.0 219.0,237.0 220.0,235.0 221.0,234.0 222.0,234.0 223.0,233.0 224.0,231.0 225.0,231.0 226.0,229.0 227.0,230.0 228.0,226.0 229.0,229.0 230.0,228.0 231.0,228.0 232.0,226.0 233.0,226.0 234.0,226.0 235.0,225.0 236.0,223.0 237.0,224.0 238.0,223.0 239.0,223.0 240.0,223.0 241.0,221.0 242.0,221.0 243.0,221.0 244.0,219.0 245.0,219.0 246.0,219.0 247.0,218.0 248.0,218.0 249.0,218.0 250.0,218.0 251.0,218.0 252.0,217.0 253.0,216.0 254.0,215.0 255.0,216.0 256.0,214.0 257.0,215.0 258.0,213.0 259.0,214.0 260.0,212.0 261.0,213.0 262.0,210.0 263.0,210.0 264.0,209.0 265.0,210.0 266.0,209.0 267.0,209.0 268.0,209.0 269.0,207.0 270.0,208.0 271.0,207.0 272.0,207.0 273.0,206.0 274.0,207.0 275.0,207.0 276.0,207.0 277.0,206.0 278.0,206.0 279.0,206.0 280.0,204.0 281.0,205.0 282.0,203.0 283.0,205.0 284.0,202.0 285.0,197.0 286.0,200.0 287.0,200.0 288.0,198.0 289.0,197.0 290.0,197.0 291.0,196.0 292.0,196.0 293.0,194.0 294.0,193.0 295.0,194.0 296.0,192.0 297.0,192.0 298.0,190.0 299.0,191.0 300.0,189.0 301.0,191.0 302.0,189.0 303.0,190.0 304.0,189.0 305.0,190.0 306.0,187.0 307.0,189.0 308.0,187.0 309.0,188.0 310.0,186.0 311.0,186.0 312.0,186.0 313.0,185.0 314.0,185.0 315.0,184.0 316.0,183.0 317.0,183.0 318.0,183.0 319.0,183.0 320.0,182.0 321.0,182.0 322.0,182.0 323.0,182.0 324.0,181.0 325.0,182.0 326.0,182.0 327.0,181.0 328.0,182.0 329.0,181.0 330.0,180.0 331.0,180.0 332.0,179.0 333.0,180.0 334.0,180.0 335.0,178.0 336.0,179.0 337.0,178.0 338.0,178.0 339.0,176.0 340.0,176.0 341.0,176.0 342.0,174.0 343.0,174.0 344.0,173.0 345.0,173.0 346.0,172.0 347.0,171.0 348.0,169.0 349.0,171.0 350.0,169.0 351.0,169.0 352.0,167.0 353.0,168.0 354.0,165.0 355.0,166.0 356.0,166.0 357.0,165.0 358.0,165.0 359.0,165.0 360.0,163.0 361.0,162.0 362.0,162.0 363.0,161.0 364.0,160.0 365.0,160.0 366.0,159.0 367.0,157.0 368.0,158.0 369.0,157.0 370.0,157.0 371.0,157.0 372.0,155.0 373.0,155.0 374.0,155.0 375.0,155.0 376.0,153.0 377.0,153.0 378.0,154.0 379.0,152.0 380.0,151.0 381.0,152.0 382.0,150.0 383.0,150.0 384.0,149.0 385.0,148.0 386.0,148.0 387.0,147.0 388.0,146.0 389.0,145.0 390.0,144.0 391.0,144.0 392.0,143.0 393.0,144.0 394.0,142.0 395.0,141.0 396.0,141.0 397.0,139.0 398.0,141.0 399.0,139.0 400.0,139.0 401.0,138.0 402.0,138.0 403.0,137.0 404.0,137.0 405.0,135.0 406.0,136.0 407.0,134.0 408.0,135.0 409.0,134.0 410.0,134.0 411.0,133.0 412.0,134.0 413.0,131.0 414.0,132.0 415.0,131.0 416.0,132.0 417.0,130.0 418.0,130.0 419.0,129.0 420.0,129.0 421.0,129.0 422.0,128.0 423.0,128.0 424.0,128.0 425.0,128.0 426.0,127.0 427.0,128.0 428.0,127.0 429.0,127.0 430.0,125.0 431.0,126.0 432.0,125.0 433.0,125.0 434.0,123.0 435.0,124.0 436.0,124.0 437.0,124.0 438.0,124.0 439.0,123.0 440.0,122.0 441.0,122.0 442.0,123.0 443.0,122.0 444.0,121.0 445.0,121.0 446.0,121.0 447.0,120.0 448.0,121.0 449.0,118.0 450.0,120.0 451.0,118.0 452.0,120.0 453.0,119.0 454.0,119.0 455.0,117.0 456.0,119.0 457.0,119.0 458.0,118.0 459.0,118.0 460.0,118.0 461.0,118.0 462.0,119.0 463.0,118.0 464.0,119.0 465.0,120.0 466.0,118.0 467.0,119.0 468.0,118.0 469.0,118.0 470.0,117.0 471.0,117.0 472.0,117.0 473.0,116.0 474.0,116.0 475.0,116.0 476.0,115.0 477.0,115.0 478.0,114.0 479.0,114.0 480.0,112.0 481.0,112.0 482.0,112.0 483.0,112.0 484.0,111.0 485.0,110.0 486.0,110.0 487.0,110.0 488.0,110.0 489.0,110.0 490.0,109.0 491.0,109.0 492.0,109.0 493.0,108.0 494.0,108.0 495.0,107.0 496.0,107.0 497.0,106.0 498.0,105.0 499.0,105.0 500.0,104.0 501.0,104.0 502.0,103.0 503.0,102.0 504.0,102.0 505.0,100.0 506.0,101.0 507.0,100.0 508.0,99.0 509.0,98.0 510.0,99.0 511.0,97.0 512.0,96.0 513.0,96.0 514.0,94.0 515.0,94.0 516.0,93.0 517.0,92.0 518.0,91.0 519.0,90.0 520.0,90.0 521.0,89.0 522.0,89.0 523.0,88.0 524.0,87.0 525.0,86.0 526.0,86.0 527.0,84.0 528.0,84.0 529.0,83.0 530.0,82.0 531.0,82.0 532.0,81.0 533.0,81.0 534.0,80.0 535.0,80.0 536.0,79.0 537.0,78.0 538.0,78.0 539.0,77.0 540.0,78.0 541.0,75.0 542.0,75.0 543.0,73.0 544.0,74.0 545.0,73.0 546.0,73.0 547.0,73.0 548.0,71.0 549.0,72.0 550.0,70.0 551.0,71.0 552.0,69.0 553.0,69.0 554.0,68.0 555.0,68.0 556.0,67.0 557.0,67.0 558.0,66.0 559.0,66.0 560.0,64.0 561.0,63.0 562.0,63.0 563.0,63.0 564.0,61.0 565.0,62.0 566.0,61.0 567.0,61.0 568.0,59.0 569.0,60.0 570.0,59.0 571.0,58.0 572.0,58.0 573.0,57.0 574.0,56.0 575.0,56.0 576.0,56.0 577.0,54.0 578.0,55.0 579.0,55.0 580.0,54.0 581.0,54.0 582.0,53.0 583.0,52.0 584.0,53.0 585.0,50.0 586.0,51.0 587.0,48.0 588.0,49.0 589.0,47.0 590.0,47.0 591.0,45.0 592.0,46.0 593.0,45.0 594.0,45.0 595.0,43.0 596.0,43.0 597.0,42.0 598.0,41.0 599.0,40.0 600.0,40.0 601.0,38.0 602.0,38.0 603.0,37.0 604.0,37.0 605.0,37.0 606.0,35.0 607.0,36.0 608.0,34.0 609.0,34.0 610.0,33.0 611.0,33.0 612.0,32.0 613.0,32.0 614.0,31.0 615.0,30.0 616.0,30.0 617.0,30.0 618.0,29.0 619.0,28.0 620.0,28.0 621.0,28.0 622.0,27.0 623.0,26.0 624.0,27.0 625.0,25.0 626.0,25.0 627.0,24.0 628.0,24.0 629.0,24.0 630.0,22.0 631.0,23.0 632.0,20.0 633.0,22.0 634.0,20.0 635.0,21.0 636.0,18.0 637.0,20.0 638.0,17.0 639.0,18.0 640.0,17.0 641.0,17.0 642.0,15.0 643.0,16.0 644.0,13.0 645.0,15.0 646.0,13.0 647.0,14.0 648.0,13.0 649.0,13.0 650.0,12.0 651.0,13.0 652.0,11.0 653.0,12.0 654.0,11.0" fill="none" stroke="#00ffff" />
	<polyline points="55.0,5.0 655.0,5.0" fill="none" stroke="#6d6d6d" />
	<polyline points="55.0,305.0 655.0,305.0" fill="none" stroke="#6d6d6d" />
	<polyline points="55.0,305.0 55.0,310.0" fill="none" stroke="#6d6d6d" />
	<polyline points="205.0,305.0 205.0,310.0" fill="none" stroke="#6d6d6d" />
	<polyline points="355.0,305.0 355.0,310.0" fill="none" stroke="#6d6d6d" />
	<polyline points="505.0,305.0 505.0,310.0" fill="none" stroke="#6d6d6d" />
	<polyline points="655.0,305.0 655.0,310.0" fill="none" stroke="#6d6d6d" />
	<polyline points="55.0,5.0 55.0,305.0" fill="none" stroke="#6d6d6d" />
	<polyline points="655.0,5.0 655.0,305.0" fill="none" stroke="#6d6d6d" />
	<polyline points="50.0,5.0 55.0,5.0" fill="none" stroke="#6d6d6d" />
	<polyline points="50.0,80.0 55.0,80.0" fill="none" stroke="#6d6d6d" />
	<polyline points="50.0,155.0 55.0,155.0" fill="none" stroke="#6d6d6d" />
	<polyline points="50.0,230.0 55.0,230.0" fill="none" stroke="#6d6d6d" />
	<polyline points="50.0,305.0 55.0,305.0" fill="none" stroke="#6d6d6d" />
	<text x="55.0" y="323.0" fill="#6d6d6d" font-family="Arial" font-size="9pt" text-anchor="middle">1</text>
	<text x="205.0" y="323.0" fill="#6d6d6d" font-family="Arial" font-size="9pt" text-anchor="middle">150</text>
	<text x="355.0" y="323.0" fill="#6d6d6d" font-family="Arial" font-size="9pt" text-anchor="middle">300</text>
	<text x="505.0" y="323.0" fill="#6d6d6d" font-family="Arial" font-size="9pt" text-anchor="middle">450</text>
	<text x="655.0" y="323.0" fill="#6d6d6d" font-family="Arial" font-size="9pt" text-anchor="middle">600</text>
	<text x="45.0" y="9.0" fill="#6d6d6d" font-family="Arial" font-size="9pt" text-anchor="end">37.8</text>
	<text x="45.0" y="84.0" fill="#6d6d6d" font-family="Arial" font-size="9pt" text-anchor="end">30.1</text>
	<text x="45.0" y="159.0" fill="#6d6d6d" font-family="Arial" font-size="9pt" text-anchor="end">22.5</text>
	<text x="45.0" y="234.0" fill="#6d6d6d" font-family="Arial" font-size="9pt" text-anchor="end">14.8</text>
	<text x="45.0" y="309.0" fill="#6d6d6d" font-family="Arial" font-size="9pt" text-anchor="end">7.2</text>
</svg>
