<?xml version="1.0" encoding="UTF-8" standalone="no"?>
<!DOCTYPE svg PUBLIC "-//W3C//DTD SVG 1.1//EN" "http://www.w3.org/Graphics/SVG/1.1/DTD/svg11.dtd">
<svg xmlns="http://www.w3.org/2000/svg"  version="1.1" width="693.0" height="380.0" viewBox="-6.0 -12.0 687.0 368.0">
	<desc>LSD Plot - Sim_10c</desc>
	<polyline points="205.0,6.0 205.0,304.0" fill="none" stroke="#f0f0f0" />
	<polyline points="355.0,6.0 355.0,304.0" fill="none" stroke="#f0f0f0" />
	<polyline points="505.0,6.0 505.0,304.0" fill="none" stroke="#f0f0f0" />
	<polyline points="56.0,80.0 654.0,80.0" fill="none" stroke="#f0f0f0" />
	<polyline points="56.0,155.0 654.0,155.0" fill="none" stroke="#f0f0f0" />
	<polyline points="56.0,230.0 654.0,230.0" fill="none" stroke="#f0f0f0" />
	<text x="5.0" y="345.0" font-family="Arial" font-size="9pt">e_1</text>
	<text x="31.0" y="345.0" fill="#ff0000" font-family="Arial" font-size="9pt">e_2</text>
	<text x="57.0" y="345.0" fill="#008000" font-family="Arial" font-size="9pt">e_3</text>
	<text x="83.0" y="345.0" fill="#d0d000" font-family="Arial" font-size="9pt">e_4</text>
	<text x="109.0" y="345.0" fill="#fb46bc" font-family="Arial" font-size="9pt">e_5</text>
	<text x="135.0" y="345.0" fill="#0000ff" font-family="Arial" font-size="9pt">e_6</text>
	<text x="161.0" y="345.0" fill="#00bfff" font-family="Arial" font-size="9pt">e_7</text>
	<text x="187.0" y="345.0" fill="#4876ff" font-family="Arial" font-size="9pt">e_8</text>
	<text x="213.0" y="345.0" fill="#aeeeee" font-family="Arial" font-size="9pt">e_9</text>
	<text x="239.0" y="345.0" fill="#00ffff" font-family="Arial" font-size="9pt">e_10</text>
	<polyline points="55.0,257.0 56.0,257.0 57.0,257.0 58.0,258.0 59.0,258.0 60.0,258.0 61.0,258.0 62.0,257.0 63.0,257.0 64.0,257.0 65.0,257.0 66.0,257.0 67.0,257.0 68.0,258.0 69.0,258.0 70.0,258.0 71.0,258.0 72.0,258.0 73.0,258.0 74.0,258.0 75.0,258.0 76.0,258.0 77.0,258.0 78.0,258.0 79.0,259.0 80.0,258.0 81.0,258.0 82.0,259.0 83.0,259.0 84.0,258.0 85.0,258.0 86.0,258.0 87.0,259.0 88.0,259.0 89.0,258.0 90.0,259.0 91.0,259.0 92.0,258.0 93.0,259.0 94.0,259.0 95.0,260.0 96.0,259.0 97.0,259.0 98.0,260.0 99.0,260.0 100.0,260.0 101.0,259.0 102.0,260.0 103.0,260.0 104.0,260.0 105.0,261.0 106.0,261.0 107.0,261.0 108.0,261.0 109.0,261.0 110.0,261.0 111.0,261.0 112.0,262.0 113.0,262.0 114.0,262.0 115.0,262.0 116.0,262.0 117.0,262.0 118.0,262.0 119.0,262.0 120.0,262.0 121.0,262.0 122.0,262.0 123.0,262.0 124.0,262.0 125.0,262.0 126.0,262.0 127.0,262.0 128.0,262.0 129.0,262.0 130.0,262.0 131.0,262.0 132.0,262.0 133.0,262.0 134.0,262.0 135.0,262.0 136.0,261.0 137.0,262.0 138.0,262.0 139.0,262.0 140.0,262.0 141.0,262.0 142.0,262.0 143.0,262.0 144.0,262.0 145.0,262.0 146.0,262.0 147.0,262.0 148.0,263.0 149.0,263.0 150.0,263.0 151.0,263.0 152.0,263.0 153.0,263.0 154.0,263.0 155.0,263.0 156.0,263.0 157.0,264.0 158.0,264.0 159.0,264.0 160.0,264.0 161.0,265.0 162.0,265.0 163.0,265.0 164.0,265.0 165.0,265.0 166.0,265.0 167.0,266.0 168.0,266.0 169.0,266.0 170.0,267.0 171.0,267.0 172.0,267.0 173.0,267.0 174.0,267.0 175.0,267.0 176.0,267.0 177.0,267.0 178.0,267.0 179.0,267.0 180.0,267.0 181.0,268.0 182.0,267.0 183.0,268.0 184.0,268.0 185.0,268.0 186.0,268.0 187.0,267.0 188.0,267.0 189.0,267.0 190.0,267.0 191.0,267.0 192.0,267.0 193.0,268.0 194.0,268.0 195.0,268.0 196.0,268.0 197.0,268.0 198.0,268.0 199.0,268.0 200.0,267.0 201.0,267.0 202.0,267.0 203.0,267.0 204.0,267.0 205.0,267.0 206.0,267.0 207.0,266.0 208.0,266.0 209.0,266.0 210.0,266.0 211.0,266.0 212.0,266.0 213.0,266.0 214.0,266.0 215.0,266.0 216.0,266.0 217.0,266.0 218.0,266.0 219.0,266.0 220.0,266.0 221.0,266.0 222.0,265.0 223.0,266.0 224.0,265.0 225.0,265.0 226.0,265.0 227.0,265.0 228.0,266.0 229.0,266.0 230.0,266.0 231.0,266.0 232.0,266.0 233.0,266.0 234.0,266.0 235.0,266.0 236.0,267.0 237.0,266.0 238.0,267.0 239.0,267.0 240.0,267.0 241.0,266.0 242.0,267.0 243.0,266.0 244.0,266.0 245.0,266.0 246.0,267.0 247.0,266.0 248.0,266.0 249.0,266.0 250.0,266.0 251.0,266.0 252.0,265.0 253.0,265.0 254.0,265.0 255.0,265.0 256.0,266.0 257.0,266.0 258.0,266.0 259.0,266.0 260.0,267.0 261.0,267.0 262.0,267.0 263.0,267.0 264.0,267.0 265.0,267.0 266.0,267.0 267.0,267.0 268.0,267.0 269.0,267.0 270.0,267.0 271.0,267.0 272.0,267.0 273.0,268.0 274.0,268.0 275.0,268.0 276.0,269.0 277.0,268.0 278.0,269.0 279.0,269.0 280.0,269.0 281.0,269.0 282.0,269.0 283.0,269.0 284.0,269.0 285.0,269.0 286.0,269.0 287.0,269.0 288.0,269.0 289.0,269.0 290.0,269.0 291.0,269.0 292.0,269.0 293.0,269.0 294.0,269.0 295.0,269.0 296.0,269.0 297.0,269.0 298.0,269.0 299.0,269.0 300.0,269.0 301.0,270.0 302.0,269.0 303.0,270.0 304.0,270.0 305.0,270.0 306.0,270.0 307.0,270.0 308.0,270.0 309.0,270.0 310.0,271.0 311.0,271.0 312.0,271.0 313.0,271.0 314.0,271.0 315.0,271.0 316.0,272.0 317.0,272.0 318.0,272.0 319.0,272.0 320.0,272.0 321.0,273.0 322.0,273.0 323.0,273.0 324.0,274.0 325.0,274.0 326.0,274.0 327.0,275.0 328.0,275.0 329.0,275.0 330.0,275.0 331.0,275.0 332.0,276.0 333.0,276.0 334.0,276.0 335.0,276.0 336.0,276.0 337.0,277.0 338.0,277.0 339.0,277.0 340.0,277.0 341.0,277.0 342.0,277.0 343.0,277.0 344.0,277.0 345.0,278.0 346.0,278.0 347.0,278.0 348.0,279.0 349.0,279.0 350.0,279.0 351.0,279.0 352.0,280.0 353.0,280.0 354.0,280.0 355.0,280.0 356.0,281.0 357.0,281.0 358.0,282.0 359.0,282.0 360.0,282.0 361.0,282.0 362.0,282.0 363.0,282.0 364.0,283.0 365.0,283.0 366.0,284.0 367.0,284.0 368.0,284.0 369.0,284.0 370.0,283.0 371.0,284.0 372.0,284.0 373.0,285.0 374.0,285.0 375.0,285.0 376.0,285.0 377.0,285.0 378.0,285.0 379.0,286.0 380.0,286.0 381.0,286.0 382.0,287.0 383.0,287.0 384.0,287.0 385.0,287.0 386.0,287.0 387.0,287.0 388.0,287.0 389.0,288.0 390.0,288.0 391.0,288.0 392.0,288.0 393.0,288.0 394.0,288.0 395.0,288.0 396.0,288.0 397.0,288.0 398.0,288.0 399.0,288.0 400.0,289.0 401.0,289.0 402.0,289.0 403.0,289.0 404.0,289.0 405.0,289.0 406.0,290.0 407.0,290.0 408.0,290.0 409.0,290.0 410.0,290.0 411.0,290.0 412.0,290.0 413.0,291.0 414.0,290.0 415.0,290.0 416.0,291.0 417.0,291.0 418.0,291.0 419.0,291.0 420.0,291.0 421.0,291.0 422.0,291.0 423.0,291.0 424.0,291.0 425.0,291.0 426.0,291.0 427.0,291.0 428.0,291.0 429.0,291.0 430.0,291.0 431.0,291.0 432.0,291.0 433.0,291.0 434.0,291.0 435.0,291.0 436.0,291.0 437.0,290.0 438.0,290.0 439.0,290.0 440.0,290.0 441.0,290.0 442.0,291.0 443.0,291.0 444.0,291.0 445.0,291.0 446.0,291.0 447.0,291.0 448.0,291.0 449.0,291.0 450.0,292.0 451.0,292.0 452.0,292.0 453.0,292.0 454.0,292.0 455.0,292.0 456.0,292.0 457.0,292.0 458.0,292.0 459.0,292.0 460.0,292.0 461.0,292.0 462.0,291.0 463.0,292.0 464.0,291.0 465.0,291.0 466.0,291.0 467.0,292.0 468.0,292.0 469.0,292.0 470.0,291.0 471.0,292.0 472.0,291.0 473.0,291.0 474.0,291.0 475.0,291.0 476.0,291.0 477.0,291.0 478.0,291.0 479.0,291.0 480.0,291.0 481.0,291.0 482.0,291.0 483.0,291.0 484.0,291.0 485.0,291.0 486.0,291.0 487.0,291.0 488.0,292.0 489.0,292.0 490.0,292.0 491.0,292.0 492.0,292.0 493.0,292.0 494.0,292.0 495.0,292.0 496.0,292.0 497.0,292.0 498.0,292.0 499.0,292.0 500.0,292.0 501.0,292.0 502.0,292.0 503.0,292.0 504.0,292.0 505.0,293.0 506.0,293.0 507.0,293.0 508.0,293.0 509.0,293.0 510.0,293.0 511.0,293.0 512.0,294.0 513.0,294.0 514.0,294.0 515.0,294.0 516.0,294.0 517.0,294.0 518.0,294.0 519.0,294.0 520.0,294.0 521.0,294.0 522.0,294.0 523.0,294.0 524.0,294.0 525.0,295.0 526.0,295.0 527.0,295.0 528.0,295.0 529.0,295.0 530.0,295.0 531.0,295.0 532.0,295.0 533.0,295.0 534.0,295.0 535.0,295.0 536.0,296.0 537.0,296.0 538.0,296.0 539.0,296.0 540.0,296.0 541.0,296.0 542.0,296.0 543.0,296.0 544.0,297.0 545.0,297.0 546.0,297.0 547.0,297.0 548.0,297.0 549.0,297.0 550.0,297.0 551.0,297.0 552.0,298.0 553.0,298.0 554.0,298.0 555.0,298.0 556.0,298.0 557.0,298.0 558.0,298.0 559.0,298.0 560.0,298.0 561.0,297.0 562.0,297.0 563.0,297.0 564.0,297.0 565.0,297.0 566.0,297.0 567.0,297.0 568.0,297.0 569.0,297.0 570.0,297.0 571.0,297.0 572.0,297.0 573.0,297.0 574.0,297.0 575.0,297.0 576.0,297.0 577.0,297.0 578.0,297.0 579.0,297.0 580.0,297.0 581.0,297.0 582.0,298.0 583.0,297.0 584.0,297.0 585.0,297.0 586.0,297.0 587.0,297.0 588.0,297.0 589.0,297.0 590.0,297.0 591.0,297.0 592.0,297.0 593.0,297.0 594.0,297.0 595.0,297.0 596.0,297.0 597.0,297.0 598.0,297.0 599.0,297.0 600.0,297.0 601.0,296.0 602.0,296.0 603.0,296.0 604.0,296.0 605.0,296.0 606.0,296.0 607.0,296.0 608.0,296.0 609.0,296.0 610.0,296.0 611.0,296.0 612.0,296.0 613.0,296.0 614.0,296.0 615.0,297.0 616.0,297.0 617.0,297.0 618.0,297.0 619.0,297.0 620.0,297.0 621.0,297.0 622.0,297.0 623.0,297.0 624.0,297.0 625.0,297.0 626.0,297.0 627.0,297.0 628.0,297.0 629.0,297.0 630.0,297.0 631.0,297.0 632.0,298.0 633.0,298.0 634.0,298.0 635.0,297.0 636.0,298.0 637.0,298.0 638.0,298.0 639.0,298.0 640.0,298.0 641.0,298.0 642.0,298.0 643.0,298.0 644.0,298.0 645.0,298.0 646.0,298.0 647.0,298.0 648.0,298.0 649.0,298.0 650.0,298.0 651.0,298.0 652.0,298.0 653.0,299.0 654.0,299.0" fill="none" stroke="#000000" />
	<polyline points="55.0,256.0 56.0,256.0 57.0,256.0 58.0,256.0 59.0,256.0 60.0,256.0 61.0,256.0 62.0,256.0 63.0,256.0 64.0,256.0 65.0,256.0 66.0,256.0 67.0,256.0 68.0,256.0 69.0,256.0 70.0,256.0 71.0,256.0 72.0,257.0 73.0,257.0 74.0,257.0 75.0,257.0 76.0,258.0 77.0,257.0 78.0,258.0 79.0,258.0 80.0,258.0 81.0,258.0 82.0,259.0 83.0,259.0 84.0,259.0 85.0,259.0 86.0,259.0 87.0,259.0 88.0,259.0 89.0,260.0 90.0,260.0 91.0,260.0 92.0,260.0 93.0,260.0 94.0,260.0 95.0,260.0 96.0,260.0 97.0,260.0 98.0,260.0 99.0,260.0 100.0,260.0 101.0,260.0 102.0,260.0 103.0,260.0 104.0,259.0 105.0,259.0 106.0,259.0 107.0,259.0 108.0,259.0 109.0,259.0 110.0,259.0 111.0,258.0 112.0,258.0 113.0,258.0 114.0,258.0 115.0,258.0 116.0,258.0 117.0,258.0 118.0,258.0 119.0,258.0 120.0,258.0 121.0,258.0 122.0,258.0 123.0,257.0 124.0,258.0 125.0,258.0 126.0,258.0 127.0,258.0 128.0,258.0 129.0,258.0 130.0,258.0 131.0,258.0 132.0,258.0 133.0,259.0 134.0,259.0 135.0,259.0 136.0,259.0 137.0,259.0 138.0,259.0 139.0,260.0 140.0,260.0 141.0,261.0 142.0,261.0 143.0,261.0 144.0,261.0 145.0,261.0 146.0,261.0 147.0,261.0 148.0,261.0 149.0,261.0 150.0,261.0 151.0,261.0 152.0,261.0 153.0,262.0 154.0,262.0 155.0,261.0 156.0,262.0 157.0,262.0 158.0,262.0 159.0,263.0 160.0,263.0 161.0,263.0 162.0,263.0 163.0,264.0 164.0,264.0 165.0,264.0 166.0,264.0 167.0,265.0 168.0,265.0 169.0,265.0 170.0,266.0 171.0,266.0 172.0,266.0 173.0,266.0 174.0,266.0 175.0,266.0 176.0,266.0 177.0,266.0 178.0,265.0 179.0,266.0 180.0,265.0 181.0,265.0 182.0,265.0 183.0,265.0 184.0,265.0 185.0,265.0 186.0,264.0 187.0,264.0 188.0,264.0 189.0,264.0 190.0,264.0 191.0,264.0 192.0,264.0 193.0,264.0 194.0,264.0 195.0,264.0 196.0,264.0 197.0,264.0 198.0,264.0 199.0,263.0 200.0,264.0 201.0,263.0 202.0,263.0 203.0,264.0 204.0,264.0 205.0,264.0 206.0,264.0 207.0,264.0 208.0,264.0 209.0,264.0 210.0,264.0 211.0,265.0 212.0,265.0 213.0,266.0 214.0,266.0 215.0,266.0 216.0,266.0 217.0,266.0 218.0,266.0 219.0,266.0 220.0,266.0 221.0,267.0 222.0,267.0 223.0,266.0 224.0,267.0 225.0,266.0 226.0,266.0 227.0,266.0 228.0,266.0 229.0,266.0 230.0,266.0 231.0,266.0 232.0,266.0 233.0,266.0 234.0,266.0 235.0,266.0 236.0,266.0 237.0,266.0 238.0,266.0 239.0,267.0 240.0,267.0 241.0,267.0 242.0,267.0 243.0,267.0 244.0,267.0 245.0,268.0 246.0,267.0 247.0,267.0 248.0,268.0 249.0,268.0 250.0,268.0 251.0,267.0 252.0,267.0 253.0,268.0 254.0,268.0 255.0,268.0 256.0,268.0 257.0,268.0 258.0,268.0 259.0,268.0 260.0,268.0 261.0,268.0 262.0,268.0 263.0,268.0 264.0,268.0 265.0,268.0 266.0,268.0 267.0,268.0 268.0,268.0 269.0,267.0 270.0,267.0 271.0,267.0 272.0,267.0 273.0,268.0 274.0,267.0 275.0,267.0 276.0,267.0 277.0,267.0 278.0,266.0 279.0,266.0 280.0,266.0 281.0,265.0 282.0,265.0 283.0,265.0 284.0,265.0 285.0,265.0 286.0,265.0 287.0,264.0 288.0,264.0 289.0,264.0 290.0,263.0 291.0,263.0 292.0,263.0 293.0,262.0 294.0,262.0 295.0,262.0 296.0,261.0 297.0,261.0 298.0,260.0 299.0,260.0 300.0,259.0 301.0,259.0 302.0,259.0 303.0,259.0 304.0,259.0 305.0,258.0 306.0,258.0 307.0,257.0 308.0,257.0 309.0,257.0 310.0,256.0 311.0,256.0 312.0,256.0 313.0,256.0 314.0,255.0 315.0,255.0 316.0,255.0 317.0,255.0 318.0,254.0 319.0,254.0 320.0,253.0 321.0,253.0 322.0,252.0 323.0,252.0 324.0,251.0 325.0,250.0 326.0,250.0 327.0,250.0 328.0,249.0 329.0,249.0 330.0,249.0 331.0,249.0 332.0,249.0 333.0,250.0 334.0,250.0 335.0,251.0 336.0,251.0 337.0,252.0 338.0,252.0 339.0,253.0 340.0,253.0 341.0,253.0 342.0,254.0 343.0,254.0 344.0,255.0 345.0,256.0 346.0,256.0 347.0,256.0 348.0,257.0 349.0,257.0 350.0,257.0 351.0,258.0 352.0,258.0 353.0,258.0 354.0,259.0 355.0,259.0 356.0,259.0 357.0,260.0 358.0,260.0 359.0,260.0 360.0,260.0 361.0,261.0 362.0,261.0 363.0,261.0 364.0,262.0 365.0,262.0 366.0,263.0 367.0,263.0 368.0,263.0 369.0,263.0 370.0,263.0 371.0,263.0 372.0,263.0 373.0,264.0 374.0,264.0 375.0,264.0 376.0,265.0 377.0,265.0 378.0,265.0 379.0,266.0 380.0,267.0 381.0,267.0 382.0,268.0 383.0,268.0 384.0,268.0 385.0,268.0 386.0,268.0 387.0,268.0 388.0,269.0 389.0,269.0 390.0,269.0 391.0,270.0 392.0,270.0 393.0,271.0 394.0,271.0 395.0,271.0 396.0,272.0 397.0,272.0 398.0,272.0 399.0,273.0 400.0,273.0 401.0,273.0 402.0,274.0 403.0,274.0 404.0,274.0 405.0,275.0 406.0,275.0 407.0,275.0 408.0,276.0 409.0,276.0 410.0,276.0 411.0,276.0 412.0,276.0 413.0,276.0 414.0,276.0 415.0,276.0 416.0,276.0 417.0,277.0 418.0,277.0 419.0,277.0 420.0,277.0 421.0,278.0 422.0,278.0 423.0,278.0 424.0,279.0 425.0,279.0 426.0,279.0 427.0,279.0 428.0,280.0 429.0,280.0 430.0,280.0 431.0,281.0 432.0,281.0 433.0,281.0 434.0,282.0 435.0,281.0 436.0,282.0 437.0,282.0 438.0,282.0 439.0,282.0 440.0,282.0 441.0,283.0 442.0,283.0 443.0,283.0 444.0,284.0 445.0,284.0 446.0,284.0 447.0,284.0 448.0,284.0 449.0,284.0 450.0,284.0 451.0,285.0 452.0,285.0 453.0,285.0 454.0,285.0 455.0,285.0 456.0,285.0 457.0,285.0 458.0,286.0 459.0,286.0 460.0,286.0 461.0,286.0 462.0,286.0 463.0,286.0 464.0,286.0 465.0,287.0 466.0,287.0 467.0,287.0 468.0,287.0 469.0,288.0 470.0,288.0 471.0,288.0 472.0,288.0 473.0,288.0 474.0,288.0 475.0,289.0 476.0,289.0 477.0,289.0 478.0,289.0 479.0,289.0 480.0,289.0 481.0,289.0 482.0,289.0 483.0,289.0 484.0,289.0 485.0,289.0 486.0,289.0 487.0,289.0 488.0,289.0 489.0,289.0 490.0,289.0 491.0,289.0 492.0,289.0 493.0,289.0 494.0,290.0 495.0,290.0 496.0,290.0 497.0,290.0 498.0,290.0 499.0,290.0 500.0,290.0 501.0,290.0 502.0,290.0 503.0,290.0 504.0,290.0 505.0,290.0 506.0,290.0 507.0,290.0 508.0,289.0 509.0,289.0 510.0,290.0 511.0,290.0 512.0,290.0 513.0,290.0 514.0,290.0 515.0,290.0 516.0,290.0 517.0,291.0 518.0,291.0 519.0,291.0 520.0,291.0 521.0,291.0 522.0,291.0 523.0,291.0 524.0,291.0 525.0,291.0 526.0,291.0 527.0,292.0 528.0,292.0 529.0,292.0 530.0,292.0 531.0,292.0 532.0,292.0 533.0,292.0 534.0,293.0 535.0,293.0 536.0,293.0 537.0,293.0 538.0,293.0 539.0,294.0 540.0,294.0 541.0,294.0 542.0,294.0 543.0,294.0 544.0,294.0 545.0,294.0 546.0,294.0 547.0,294.0 548.0,294.0 549.0,294.0 550.0,294.0 551.0,294.0 552.0,294.0 553.0,295.0 554.0,295.0 555.0,295.0 556.0,295.0 557.0,295.0 558.0,295.0 559.0,295.0 560.0,295.0 561.0,295.0 562.0,295.0 563.0,295.0 564.0,296.0 565.0,296.0 566.0,296.0 567.0,296.0 568.0,296.0 569.0,296.0 570.0,296.0 571.0,296.0 572.0,296.0 573.0,296.0 574.0,296.0 575.0,296.0 576.0,297.0 577.0,297.0 578.0,297.0 579.0,297.0 580.0,297.0 581.0,298.0 582.0,298.0 583.0,298.0 584.0,298.0 585.0,298.0 586.0,298.0 587.0,298.0 588.0,298.0 589.0,298.0 590.0,298.0 591.0,299.0 592.0,299.0 593.0,299.0 594.0,299.0 595.0,299.0 596.0,299.0 597.0,299.0 598.0,300.0 599.0,300.0 600.0,300.0 601.0,300.0 602.0,300.0 603.0,300.0 604.0,300.0 605.0,300.0 606.0,300.0 607.0,300.0 608.0,300.0 609.0,300.0 610.0,301.0 611.0,301.0 612.0,301.0 613.0,301.0 614.0,301.0 615.0,301.0 616.0,301.0 617.0,301.0 618.0,302.0 619.0,302.0 620.0,302.0 621.0,302.0 622.0,302.0 623.0,302.0 624.0,302.0 625.0,302.0 626.0,302.0 627.0,302.0 628.0,302.0 629.0,302.0 630.0,302.0 631.0,302.0 632.0,303.0 633.0,303.0 634.0,303.0 635.0,303.0 636.0,303.0 637.0,303.0 638.0,303.0 639.0,303.0 640.0,303.0 641.0,303.0 642.0,303.0 643.0,303.0 644.0,303.0 645.0,303.0 646.0,303.0 647.0,303.0 648.0,303.0 649.0,304.0 650.0,303.0 651.0,303.0 652.0,304.0 653.0,304.0 654.0,304.0" fill="none" stroke="#ff0000" />
	<polyline points="55.0,257.0 56.0,257.0 57.0,257.0 58.0,257.0 59.0,257.0 60.0,257.0 61.0,257.0 62.0,257.0 63.0,257.0 64.0,257.0 65.0,257.0 66.0,256.0 67.0,256.0 68.0,256.0 69.0,256.0 70.0,255.0 71.0,256.0 72.0,256.0 73.0,256.0 74.0,256.0 75.0,256.0 76.0,256.0 77.0,256.0 78.0,256.0 79.0,257.0 80.0,257.0 81.0,257.0 82.0,257.0 83.0,257.0 84.0,257.0 85.0,257.0 86.0,257.0 87.0,257.0 88.0,257.0 89.0,257.0 90.0,257.0 91.0,257.0 92.0,256.0 93.0,257.0 94.0,256.0 95.0,256.0 96.0,256.0 97.0,256.0 98.0,255.0 99.0,255.0 100.0,255.0 101.0,255.0 102.0,255.0 103.0,255.0 104.0,255.0 105.0,254.0 106.0,254.0 107.0,254.0 108.0,254.0 109.0,254.0 110.0,254.0 111.0,254.0 112.0,254.0 113.0,254.0 114.0,254.0 115.0,254.0 116.0,254.0 117.0,254.0 118.0,254.0 119.0,254.0 120.0,255.0 121.0,254.0 122.0,255.0 123.0,255.0 124.0,255.0 125.0,255.0 126.0,255.0 127.0,255.0 128.0,255.0 129.0,255.0 130.0,255.0 131.0,255.0 132.0,255.0 133.0,254.0 134.0,254.0 135.0,254.0 136.0,254.0 137.0,254.0 138.0,254.0 139.0,254.0 140.0,254.0 141.0,255.0 142.0,254.0 143.0,254.0 144.0,254.0 145.0,254.0 146.0,253.0 147.0,253.0 148.0,252.0 149.0,251.0 150.0,251.0 151.0,250.0 152.0,250.0 153.0,249.0 154.0,249.0 155.0,248.0 156.0,247.0 157.0,246.0 158.0,246.0 159.0,245.0 160.0,244.0 161.0,244.0 162.0,243.0 163.0,243.0 164.0,242.0 165.0,241.0 166.0,240.0 167.0,240.0 168.0,238.0 169.0,238.0 170.0,237.0 171.0,236.0 172.0,235.0 173.0,234.0 174.0,233.0 175.0,232.0 176.0,230.0 177.0,229.0 178.0,228.0 179.0,228.0 180.0,226.0 181.0,225.0 182.0,225.0 183.0,224.0 184.0,224.0 185.0,223.0 186.0,222.0 187.0,221.0 188.0,220.0 189.0,220.0 190.0,219.0 191.0,218.0 192.0,218.0 193.0,218.0 194.0,216.0 195.0,216.0 196.0,215.0 197.0,214.0 198.0,213.0 199.0,212.0 200.0,211.0 201.0,210.0 202.0,209.0 203.0,209.0 204.0,208.0 205.0,208.0 206.0,207.0 207.0,207.0 208.0,205.0 209.0,204.0 210.0,204.0 211.0,203.0 212.0,202.0 213.0,201.0 214.0,200.0 215.0,200.0 216.0,200.0 217.0,200.0 218.0,199.0 219.0,199.0 220.0,199.0 221.0,200.0 222.0,201.0 223.0,202.0 224.0,203.0 225.0,205.0 226.0,206.0 227.0,207.0 228.0,207.0 229.0,208.0 230.0,209.0 231.0,210.0 232.0,210.0 233.0,211.0 234.0,212.0 235.0,212.0 236.0,213.0 237.0,213.0 238.0,214.0 239.0,215.0 240.0,215.0 241.0,215.0 242.0,216.0 243.0,217.0 244.0,217.0 245.0,218.0 246.0,218.0 247.0,219.0 248.0,221.0 249.0,221.0 250.0,222.0 251.0,223.0 252.0,224.0 253.0,224.0 254.0,224.0 255.0,224.0 256.0,225.0 257.0,225.0 258.0,226.0 259.0,227.0 260.0,227.0 261.0,227.0 262.0,227.0 263.0,228.0 264.0,228.0 265.0,228.0 266.0,229.0 267.0,229.0 268.0,229.0 269.0,231.0 270.0,231.0 271.0,231.0 272.0,231.0 273.0,232.0 274.0,233.0 275.0,233.0 276.0,234.0 277.0,234.0 278.0,234.0 279.0,235.0 280.0,235.0 281.0,237.0 282.0,237.0 283.0,237.0 284.0,238.0 285.0,238.0 286.0,239.0 287.0,239.0 288.0,240.0 289.0,240.0 290.0,241.0 291.0,241.0 292.0,242.0 293.0,242.0 294.0,243.0 295.0,243.0 296.0,244.0 297.0,244.0 298.0,245.0 299.0,245.0 300.0,246.0 301.0,246.0 302.0,246.0 303.0,247.0 304.0,247.0 305.0,248.0 306.0,248.0 307.0,249.0 308.0,249.0 309.0,250.0 310.0,250.0 311.0,251.0 312.0,251.0 313.0,251.0 314.0,251.0 315.0,252.0 316.0,252.0 317.0,253.0 318.0,254.0 319.0,254.0 320.0,254.0 321.0,255.0 322.0,256.0 323.0,256.0 324.0,256.0 325.0,256.0 326.0,257.0 327.0,257.0 328.0,257.0 329.0,257.0 330.0,258.0 331.0,258.0 332.0,259.0 333.0,259.0 334.0,259.0 335.0,259.0 336.0,259.0 337.0,260.0 338.0,260.0 339.0,260.0 340.0,261.0 341.0,261.0 342.0,262.0 343.0,263.0 344.0,263.0 345.0,263.0 346.0,263.0 347.0,263.0 348.0,264.0 349.0,264.0 350.0,265.0 351.0,265.0 352.0,265.0 353.0,266.0 354.0,266.0 355.0,266.0 356.0,266.0 357.0,266.0 358.0,266.0 359.0,266.0 360.0,267.0 361.0,267.0 362.0,267.0 363.0,268.0 364.0,268.0 365.0,268.0 366.0,268.0 367.0,269.0 368.0,270.0 369.0,270.0 370.0,270.0 371.0,271.0 372.0,271.0 373.0,271.0 374.0,272.0 375.0,272.0 376.0,272.0 377.0,273.0 378.0,272.0 379.0,273.0 380.0,273.0 381.0,273.0 382.0,274.0 383.0,274.0 384.0,274.0 385.0,274.0 386.0,275.0 387.0,275.0 388.0,275.0 389.0,275.0 390.0,276.0 391.0,276.0 392.0,276.0 393.0,277.0 394.0,277.0 395.0,277.0 396.0,277.0 397.0,278.0 398.0,278.0 399.0,278.0 400.0,278.0 401.0,278.0 402.0,279.0 403.0,279.0 404.0,279.0 405.0,279.0 406.0,279.0 407.0,280.0 408.0,280.0 409.0,280.0 410.0,281.0 411.0,281.0 412.0,281.0 413.0,281.0 414.0,281.0 415.0,281.0 416.0,281.0 417.0,282.0 418.0,282.0 419.0,282.0 420.0,282.0 421.0,283.0 422.0,283.0 423.0,283.0 424.0,283.0 425.0,283.0 426.0,284.0 427.0,284.0 428.0,284.0 429.0,284.0 430.0,284.0 431.0,284.0 432.0,285.0 433.0,285.0 434.0,285.0 435.0,285.0 436.0,285.0 437.0,286.0 438.0,286.0 439.0,286.0 440.0,286.0 441.0,287.0 442.0,287.0 443.0,287.0 444.0,287.0 445.0,287.0 446.0,287.0 447.0,287.0 448.0,287.0 449.0,287.0 450.0,287.0 451.0,287.0 452.0,288.0 453.0,288.0 454.0,288.0 455.0,288.0 456.0,288.0 457.0,288.0 458.0,288.0 459.0,288.0 460.0,289.0 461.0,289.0 462.0,289.0 463.0,289.0 464.0,289.0 465.0,289.0 466.0,290.0 467.0,290.0 468.0,290.0 469.0,290.0 470.0,290.0 471.0,290.0 472.0,290.0 473.0,290.0 474.0,290.0 475.0,290.0 476.0,290.0 477.0,290.0 478.0,290.0 479.0,290.0 480.0,290.0 481.0,290.0 482.0,290.0 483.0,290.0 484.0,290.0 485.0,290.0 486.0,289.0 487.0,289.0 488.0,289.0 489.0,289.0 490.0,289.0 491.0,289.0 492.0,289.0 493.0,289.0 494.0,289.0 495.0,289.0 496.0,289.0 497.0,289.0 498.0,289.0 499.0,289.0 500.0,289.0 501.0,289.0 502.0,289.0 503.0,289.0 504.0,289.0 505.0,289.0 506.0,289.0 507.0,288.0 508.0,289.0 509.0,289.0 510.0,289.0 511.0,289.0 512.0,288.0 513.0,288.0 514.0,288.0 515.0,288.0 516.0,288.0 517.0,288.0 518.0,288.0 519.0,288.0 520.0,288.0 521.0,288.0 522.0,288.0 523.0,288.0 524.0,287.0 525.0,288.0 526.0,288.0 527.0,288.0 528.0,288.0 529.0,288.0 530.0,288.0 531.0,288.0 532.0,288.0 533.0,288.0 534.0,288.0 535.0,288.0 536.0,288.0 537.0,288.0 538.0,288.0 539.0,288.0 540.0,289.0 541.0,289.0 542.0,289.0 543.0,289.0 544.0,289.0 545.0,290.0 546.0,290.0 547.0,290.0 548.0,290.0 549.0,290.0 550.0,290.0 551.0,290.0 552.0,290.0 553.0,290.0 554.0,291.0 555.0,291.0 556.0,291.0 557.0,290.0 558.0,290.0 559.0,290.0 560.0,291.0 561.0,291.0 562.0,291.0 563.0,292.0 564.0,292.0 565.0,292.0 566.0,292.0 567.0,292.0 568.0,292.0 569.0,292.0 570.0,293.0 571.0,293.0 572.0,293.0 573.0,293.0 574.0,294.0 575.0,294.0 576.0,294.0 577.0,294.0 578.0,294.0 579.0,294.0 580.0,294.0 581.0,295.0 582.0,295.0 583.0,295.0 584.0,295.0 585.0,295.0 586.0,295.0 587.0,296.0 588.0,295.0 589.0,296.0 590.0,296.0 591.0,296.0 592.0,296.0 593.0,296.0 594.0,296.0 595.0,296.0 596.0,296.0 597.0,296.0 598.0,296.0 599.0,297.0 600.0,297.0 601.0,297.0 602.0,297.0 603.0,297.0 604.0,297.0 605.0,297.0 606.0,297.0 607.0,297.0 608.0,297.0 609.0,297.0 610.0,297.0 611.0,297.0 612.0,298.0 613.0,298.0 614.0,298.0 615.0,298.0 616.0,298.0 617.0,298.0 618.0,298.0 619.0,298.0 620.0,298.0 621.0,298.0 622.0,298.0 623.0,298.0 624.0,299.0 625.0,299.0 626.0,299.0 627.0,299.0 628.0,299.0 629.0,299.0 630.0,299.0 631.0,299.0 632.0,300.0 633.0,300.0 634.0,300.0 635.0,300.0 636.0,300.0 637.0,300.0 638.0,300.0 639.0,301.0 640.0,301.0 641.0,301.0 642.0,301.0 643.0,301.0 644.0,301.0 645.0,301.0 646.0,301.0 647.0,301.0 648.0,301.0 649.0,301.0 650.0,301.0 651.0,302.0 652.0,302.0 653.0,302.0 654.0,302.0" fill="none" stroke="#008000" />
	<polyline points="55.0,257.0 56.0,257.0 57.0,256.0 58.0,257.0 59.0,257.0 60.0,257.0 61.0,257.0 62.0,257.0 63.0,257.0 64.0,257.0 65.0,257.0 66.0,258.0 67.0,258.0 68.0,259.0 69.0,259.0 70.0,259.0 71.0,259.0 72.0,259.0 73.0,259.0 74.0,259.0 75.0,259.0 76.0,259.0 77.0,259.0 78.0,259.0 79.0,259.0 80.0,259.0 81.0,260.0 82.0,260.0 83.0,260.0 84.0,260.0 85.0,260.0 86.0,260.0 87.0,260.0 88.0,260.0 89.0,260.0 90.0,260.0 91.0,260.0 92.0,260.0 93.0,260.0 94.0,260.0 95.0,259.0 96.0,260.0 97.0,260.0 98.0,259.0 99.0,260.0 100.0,259.0 101.0,260.0 102.0,260.0 103.0,260.0 104.0,261.0 105.0,261.0 106.0,261.0 107.0,260.0 108.0,260.0 109.0,260.0 110.0,260.0 111.0,260.0 112.0,260.0 113.0,260.0 114.0,260.0 115.0,260.0 116.0,260.0 117.0,260.0 118.0,260.0 119.0,260.0 120.0,260.0 121.0,261.0 122.0,261.0 123.0,261.0 124.0,261.0 125.0,261.0 126.0,262.0 127.0,262.0 128.0,262.0 129.0,262.0 130.0,262.0 131.0,262.0 132.0,263.0 133.0,263.0 134.0,263.0 135.0,264.0 136.0,263.0 137.0,263.0 138.0,263.0 139.0,263.0 140.0,263.0 141.0,263.0 142.0,263.0 143.0,263.0 144.0,263.0 145.0,263.0 146.0,263.0 147.0,262.0 148.0,262.0 149.0,262.0 150.0,262.0 151.0,262.0 152.0,262.0 153.0,262.0 154.0,262.0 155.0,261.0 156.0,262.0 157.0,262.0 158.0,262.0 159.0,262.0 160.0,262.0 161.0,263.0 162.0,263.0 163.0,263.0 164.0,263.0 165.0,263.0 166.0,263.0 167.0,263.0 168.0,263.0 169.0,263.0 170.0,264.0 171.0,264.0 172.0,264.0 173.0,264.0 174.0,264.0 175.0,265.0 176.0,264.0 177.0,265.0 178.0,264.0 179.0,265.0 180.0,265.0 181.0,265.0 182.0,265.0 183.0,265.0 184.0,265.0 185.0,265.0 186.0,265.0 187.0,265.0 188.0,266.0 189.0,265.0 190.0,265.0 191.0,265.0 192.0,266.0 193.0,266.0 194.0,265.0 195.0,266.0 196.0,266.0 197.0,266.0 198.0,266.0 199.0,266.0 200.0,266.0 201.0,266.0 202.0,266.0 203.0,266.0 204.0,265.0 205.0,265.0 206.0,265.0 207.0,266.0 208.0,266.0 209.0,265.0 210.0,265.0 211.0,265.0 212.0,265.0 213.0,265.0 214.0,265.0 215.0,265.0 216.0,264.0 217.0,263.0 218.0,263.0 219.0,262.0 220.0,262.0 221.0,261.0 222.0,260.0 223.0,259.0 224.0,258.0 225.0,256.0 226.0,256.0 227.0,254.0 228.0,254.0 229.0,252.0 230.0,251.0 231.0,249.0 232.0,248.0 233.0,248.0 234.0,246.0 235.0,245.0 236.0,244.0 237.0,243.0 238.0,242.0 239.0,241.0 240.0,240.0 241.0,239.0 242.0,238.0 243.0,237.0 244.0,236.0 245.0,234.0 246.0,233.0 247.0,232.0 248.0,231.0 249.0,230.0 250.0,229.0 251.0,228.0 252.0,227.0 253.0,226.0 254.0,225.0 255.0,224.0 256.0,223.0 257.0,221.0 258.0,220.0 259.0,218.0 260.0,217.0 261.0,216.0 262.0,214.0 263.0,213.0 264.0,212.0 265.0,210.0 266.0,209.0 267.0,208.0 268.0,206.0 269.0,205.0 270.0,204.0 271.0,203.0 272.0,202.0 273.0,201.0 274.0,200.0 275.0,200.0 276.0,198.0 277.0,197.0 278.0,196.0 279.0,195.0 280.0,193.0 281.0,192.0 282.0,191.0 283.0,190.0 284.0,189.0 285.0,187.0 286.0,186.0 287.0,185.0 288.0,184.0 289.0,183.0 290.0,182.0 291.0,181.0 292.0,181.0 293.0,179.0 294.0,179.0 295.0,177.0 296.0,176.0 297.0,176.0 298.0,174.0 299.0,173.0 300.0,173.0 301.0,172.0 302.0,171.0 303.0,170.0 304.0,169.0 305.0,168.0 306.0,167.0 307.0,167.0 308.0,166.0 309.0,165.0 310.0,165.0 311.0,164.0 312.0,163.0 313.0,161.0 314.0,160.0 315.0,159.0 316.0,158.0 317.0,157.0 318.0,157.0 319.0,156.0 320.0,155.0 321.0,155.0 322.0,154.0 323.0,154.0 324.0,153.0 325.0,153.0 326.0,151.0 327.0,150.0 328.0,150.0 329.0,149.0 330.0,148.0 331.0,147.0 332.0,146.0 333.0,145.0 334.0,144.0 335.0,143.0 336.0,142.0 337.0,142.0 338.0,142.0 339.0,141.0 340.0,140.0 341.0,140.0 342.0,139.0 343.0,139.0 344.0,138.0 345.0,138.0 346.0,136.0 347.0,136.0 348.0,135.0 349.0,135.0 350.0,135.0 351.0,134.0 352.0,133.0 353.0,133.0 354.0,132.0 355.0,131.0 356.0,130.0 357.0,130.0 358.0,128.0 359.0,128.0 360.0,127.0 361.0,126.0 362.0,125.0 363.0,125.0 364.0,124.0 365.0,123.0 366.0,123.0 367.0,122.0 368.0,122.0 369.0,121.0 370.0,120.0 371.0,119.0 372.0,118.0 373.0,118.0 374.0,117.0 375.0,116.0 376.0,118.0 377.0,117.0 378.0,117.0 379.0,117.0 380.0,117.0 381.0,115.0 382.0,114.0 383.0,114.0 384.0,114.0 385.0,114.0 386.0,113.0 387.0,113.0 388.0,113.0 389.0,113.0 390.0,113.0 391.0,113.0 392.0,112.0 393.0,112.0 394.0,110.0 395.0,110.0 396.0,110.0 397.0,110.0 398.0,110.0 399.0,109.0 400.0,110.0 401.0,109.0 402.0,108.0 403.0,108.0 404.0,108.0 405.0,107.0 406.0,107.0 407.0,107.0 408.0,106.0 409.0,106.0 410.0,106.0 411.0,106.0 412.0,105.0 413.0,105.0 414.0,104.0 415.0,104.0 416.0,104.0 417.0,103.0 418.0,103.0 419.0,102.0 420.0,100.0 421.0,100.0 422.0,99.0 423.0,99.0 424.0,97.0 425.0,97.0 426.0,98.0 427.0,97.0 428.0,97.0 429.0,96.0 430.0,95.0 431.0,96.0 432.0,95.0 433.0,94.0 434.0,93.0 435.0,93.0 436.0,92.0 437.0,90.0 438.0,90.0 439.0,90.0 440.0,90.0 441.0,90.0 442.0,91.0 443.0,91.0 444.0,91.0 445.0,90.0 446.0,90.0 447.0,89.0 448.0,88.0 449.0,87.0 450.0,87.0 451.0,86.0 452.0,87.0 453.0,86.0 454.0,85.0 455.0,85.0 456.0,85.0 457.0,85.0 458.0,84.0 459.0,83.0 460.0,82.0 461.0,80.0 462.0,79.0 463.0,78.0 464.0,79.0 465.0,78.0 466.0,78.0 467.0,76.0 468.0,77.0 469.0,76.0 470.0,75.0 471.0,74.0 472.0,72.0 473.0,71.0 474.0,70.0 475.0,70.0 476.0,69.0 477.0,68.0 478.0,68.0 479.0,67.0 480.0,68.0 481.0,67.0 482.0,68.0 483.0,67.0 484.0,67.0 485.0,66.0 486.0,67.0 487.0,67.0 488.0,68.0 489.0,67.0 490.0,67.0 491.0,67.0 492.0,66.0 493.0,66.0 494.0,67.0 495.0,67.0 496.0,68.0 497.0,67.0 498.0,67.0 499.0,66.0 500.0,67.0 501.0,66.0 502.0,65.0 503.0,64.0 504.0,64.0 505.0,63.0 506.0,62.0 507.0,61.0 508.0,61.0 509.0,60.0 510.0,61.0 511.0,62.0 512.0,62.0 513.0,61.0 514.0,59.0 515.0,58.0 516.0,58.0 517.0,58.0 518.0,58.0 519.0,59.0 520.0,58.0 521.0,58.0 522.0,57.0 523.0,57.0 524.0,57.0 525.0,57.0 526.0,56.0 527.0,55.0 528.0,56.0 529.0,56.0 530.0,56.0 531.0,56.0 532.0,55.0 533.0,54.0 534.0,54.0 535.0,53.0 536.0,53.0 537.0,53.0 538.0,53.0 539.0,54.0 540.0,53.0 541.0,51.0 542.0,50.0 543.0,49.0 544.0,49.0 545.0,48.0 546.0,47.0 547.0,46.0 548.0,48.0 549.0,47.0 550.0,47.0 551.0,46.0 552.0,46.0 553.0,45.0 554.0,45.0 555.0,44.0 556.0,42.0 557.0,42.0 558.0,41.0 559.0,39.0 560.0,39.0 561.0,39.0 562.0,39.0 563.0,39.0 564.0,40.0 565.0,40.0 566.0,39.0 567.0,38.0 568.0,38.0 569.0,38.0 570.0,37.0 571.0,37.0 572.0,36.0 573.0,35.0 574.0,34.0 575.0,34.0 576.0,33.0 577.0,33.0 578.0,33.0 579.0,34.0 580.0,33.0 581.0,34.0 582.0,34.0 583.0,33.0 584.0,32.0 585.0,32.0 586.0,31.0 587.0,30.0 588.0,28.0 589.0,27.0 590.0,28.0 591.0,28.0 592.0,27.0 593.0,27.0 594.0,28.0 595.0,26.0 596.0,27.0 597.0,27.0 598.0,28.0 599.0,27.0 600.0,28.0 601.0,28.0 602.0,28.0 603.0,29.0 604.0,29.0 605.0,30.0 606.0,30.0 607.0,29.0 608.0,30.0 609.0,29.0 610.0,29.0 611.0,28.0 612.0,27.0 613.0,27.0 614.0,25.0 615.0,25.0 616.0,24.0 617.0,24.0 618.0,22.0 619.0,22.0 620.0,21.0 621.0,20.0 622.0,20.0 623.0,20.0 624.0,20.0 625.0,20.0 626.0,19.0 627.0,19.0 628.0,19.0 629.0,19.0 630.0,19.0 631.0,17.0 632.0,17.0 633.0,17.0 634.0,18.0 635.0,16.0 636.0,16.0 637.0,15.0 638.0,15.0 639.0,15.0 640.0,14.0 641.0,13.0 642.0,12.0 643.0,11.0 644.0,12.0 645.0,13.0 646.0,13.0 647.0,12.0 648.0,12.0 649.0,13.0 650.0,12.0 651.0,12.0 652.0,11.0 653.0,11.0 654.0,11.0" fill="none" stroke="#d0d000" />
	<polyline points="55.0,257.0 56.0,257.0 57.0,257.0 58.0,257.0 59.0,257.0 60.0,257.0 61.0,257.0 62.0,257.0 63.0,257.0 64.0,257.0 65.0,258.0 66.0,257.0 67.0,258.0 68.0,257.0 69.0,257.0 70.0,258.0 71.0,257.0 72.0,258.0 73.0,257.0 74.0,257.0 75.0,258.0 76.0,257.0 77.0,257.0 78.0,257.0 79.0,258.0 80.0,258.0 81.0,258.0 82.0,258.0 83.0,258.0 84.0,258.0 85.0,258.0 86.0,258.0 87.0,257.0 88.0,257.0 89.0,257.0 90.0,257.0 91.0,257.0 92.0,257.0 93.0,257.0 94.0,257.0 95.0,257.0 96.0,257.0 97.0,257.0 98.0,257.0 99.0,257.0 100.0,258.0 101.0,258.0 102.0,258.0 103.0,258.0 104.0,258.0 105.0,258.0 106.0,258.0 107.0,258.0 108.0,259.0 109.0,258.0 110.0,258.0 111.0,258.0 112.0,258.0 113.0,258.0 114.0,258.0 115.0,258.0 116.0,258.0 117.0,258.0 118.0,259.0 119.0,259.0 120.0,259.0 121.0,259.0 122.0,259.0 123.0,259.0 124.0,259.0 125.0,259.0 126.0,259.0 127.0,259.0 128.0,259.0 129.0,259.0 130.0,260.0 131.0,259.0 132.0,259.0 133.0,259.0 134.0,260.0 135.0,259.0 136.0,260.0 137.0,260.0 138.0,260.0 139.0,260.0 140.0,260.0 141.0,260.0 142.0,261.0 143.0,261.0 144.0,261.0 145.0,261.0 146.0,261.0 147.0,261.0 148.0,261.0 149.0,261.0 150.0,262.0 151.0,261.0 152.0,261.0 153.0,261.0 154.0,261.0 155.0,261.0 156.0,261.0 157.0,261.0 158.0,261.0 159.0,261.0 160.0,261.0 161.0,261.0 162.0,261.0 163.0,262.0 164.0,262.0 165.0,262.0 166.0,262.0 167.0,262.0 168.0,262.0 169.0,262.0 170.0,262.0 171.0,263.0 172.0,263.0 173.0,263.0 174.0,264.0 175.0,264.0 176.0,264.0 177.0,264.0 178.0,264.0 179.0,264.0 180.0,264.0 181.0,264.0 182.0,264.0 183.0,263.0 184.0,264.0 185.0,264.0 186.0,264.0 187.0,264.0 188.0,264.0 189.0,264.0 190.0,264.0 191.0,264.0 192.0,265.0 193.0,265.0 194.0,265.0 195.0,265.0 196.0,265.0 197.0,265.0 198.0,265.0 199.0,266.0 200.0,266.0 201.0,265.0 202.0,266.0 203.0,266.0 204.0,266.0 205.0,266.0 206.0,267.0 207.0,267.0 208.0,267.0 209.0,267.0 210.0,268.0 211.0,267.0 212.0,268.0 213.0,268.0 214.0,268.0 215.0,268.0 216.0,268.0 217.0,268.0 218.0,268.0 219.0,268.0 220.0,269.0 221.0,269.0 222.0,269.0 223.0,269.0 224.0,269.0 225.0,269.0 226.0,269.0 227.0,269.0 228.0,269.0 229.0,270.0 230.0,270.0 231.0,270.0 232.0,271.0 233.0,271.0 234.0,271.0 235.0,271.0 236.0,271.0 237.0,271.0 238.0,271.0 239.0,271.0 240.0,271.0 241.0,271.0 242.0,271.0 243.0,270.0 244.0,270.0 245.0,270.0 246.0,270.0 247.0,270.0 248.0,270.0 249.0,270.0 250.0,270.0 251.0,270.0 252.0,270.0 253.0,270.0 254.0,270.0 255.0,270.0 256.0,270.0 257.0,270.0 258.0,271.0 259.0,270.0 260.0,270.0 261.0,270.0 262.0,270.0 263.0,271.0 264.0,271.0 265.0,271.0 266.0,272.0 267.0,272.0 268.0,272.0 269.0,272.0 270.0,272.0 271.0,272.0 272.0,272.0 273.0,272.0 274.0,273.0 275.0,273.0 276.0,273.0 277.0,273.0 278.0,273.0 279.0,273.0 280.0,273.0 281.0,273.0 282.0,273.0 283.0,273.0 284.0,273.0 285.0,274.0 286.0,274.0 287.0,274.0 288.0,274.0 289.0,274.0 290.0,274.0 291.0,274.0 292.0,275.0 293.0,275.0 294.0,275.0 295.0,275.0 296.0,276.0 297.0,276.0 298.0,276.0 299.0,276.0 300.0,277.0 301.0,277.0 302.0,277.0 303.0,277.0 304.0,277.0 305.0,277.0 306.0,277.0 307.0,277.0 308.0,278.0 309.0,278.0 310.0,278.0 311.0,278.0 312.0,278.0 313.0,278.0 314.0,278.0 315.0,278.0 316.0,278.0 317.0,278.0 318.0,279.0 319.0,278.0 320.0,279.0 321.0,279.0 322.0,279.0 323.0,279.0 324.0,279.0 325.0,279.0 326.0,279.0 327.0,279.0 328.0,279.0 329.0,279.0 330.0,279.0 331.0,279.0 332.0,279.0 333.0,278.0 334.0,278.0 335.0,278.0 336.0,278.0 337.0,279.0 338.0,279.0 339.0,279.0 340.0,279.0 341.0,279.0 342.0,280.0 343.0,279.0 344.0,279.0 345.0,279.0 346.0,280.0 347.0,280.0 348.0,279.0 349.0,279.0 350.0,279.0 351.0,280.0 352.0,280.0 353.0,280.0 354.0,280.0 355.0,280.0 356.0,280.0 357.0,281.0 358.0,281.0 359.0,281.0 360.0,281.0 361.0,281.0 362.0,282.0 363.0,282.0 364.0,282.0 365.0,282.0 366.0,282.0 367.0,283.0 368.0,282.0 369.0,283.0 370.0,283.0 371.0,283.0 372.0,283.0 373.0,284.0 374.0,284.0 375.0,284.0 376.0,284.0 377.0,284.0 378.0,285.0 379.0,285.0 380.0,285.0 381.0,285.0 382.0,285.0 383.0,285.0 384.0,285.0 385.0,285.0 386.0,285.0 387.0,285.0 388.0,285.0 389.0,285.0 390.0,286.0 391.0,285.0 392.0,286.0 393.0,286.0 394.0,286.0 395.0,286.0 396.0,286.0 397.0,286.0 398.0,287.0 399.0,287.0 400.0,287.0 401.0,287.0 402.0,287.0 403.0,287.0 404.0,287.0 405.0,287.0 406.0,287.0 407.0,287.0 408.0,287.0 409.0,287.0 410.0,288.0 411.0,288.0 412.0,288.0 413.0,289.0 414.0,289.0 415.0,289.0 416.0,289.0 417.0,289.0 418.0,289.0 419.0,289.0 420.0,289.0 421.0,289.0 422.0,289.0 423.0,289.0 424.0,289.0 425.0,290.0 426.0,290.0 427.0,290.0 428.0,290.0 429.0,290.0 430.0,289.0 431.0,290.0 432.0,290.0 433.0,290.0 434.0,290.0 435.0,290.0 436.0,290.0 437.0,290.0 438.0,290.0 439.0,290.0 440.0,290.0 441.0,289.0 442.0,289.0 443.0,289.0 444.0,289.0 445.0,290.0 446.0,290.0 447.0,290.0 448.0,290.0 449.0,290.0 450.0,290.0 451.0,290.0 452.0,290.0 453.0,290.0 454.0,290.0 455.0,290.0 456.0,290.0 457.0,290.0 458.0,290.0 459.0,290.0 460.0,290.0 461.0,290.0 462.0,290.0 463.0,290.0 464.0,290.0 465.0,290.0 466.0,290.0 467.0,290.0 468.0,290.0 469.0,290.0 470.0,290.0 471.0,290.0 472.0,290.0 473.0,291.0 474.0,291.0 475.0,291.0 476.0,291.0 477.0,291.0 478.0,291.0 479.0,291.0 480.0,291.0 481.0,291.0 482.0,291.0 483.0,291.0 484.0,291.0 485.0,291.0 486.0,291.0 487.0,291.0 488.0,291.0 489.0,291.0 490.0,291.0 491.0,291.0 492.0,291.0 493.0,291.0 494.0,291.0 495.0,291.0 496.0,291.0 497.0,291.0 498.0,291.0 499.0,292.0 500.0,292.0 501.0,292.0 502.0,292.0 503.0,292.0 504.0,292.0 505.0,292.0 506.0,292.0 507.0,293.0 508.0,293.0 509.0,293.0 510.0,293.0 511.0,293.0 512.0,293.0 513.0,292.0 514.0,292.0 515.0,292.0 516.0,292.0 517.0,292.0 518.0,292.0 519.0,292.0 520.0,292.0 521.0,292.0 522.0,292.0 523.0,292.0 524.0,292.0 525.0,292.0 526.0,292.0 527.0,292.0 528.0,292.0 529.0,292.0 530.0,292.0 531.0,292.0 532.0,292.0 533.0,292.0 534.0,292.0 535.0,292.0 536.0,291.0 537.0,291.0 538.0,291.0 539.0,291.0 540.0,292.0 541.0,291.0 542.0,292.0 543.0,292.0 544.0,292.0 545.0,292.0 546.0,292.0 547.0,292.0 548.0,292.0 549.0,292.0 550.0,292.0 551.0,292.0 552.0,292.0 553.0,292.0 554.0,292.0 555.0,292.0 556.0,293.0 557.0,293.0 558.0,293.0 559.0,293.0 560.0,293.0 561.0,292.0 562.0,293.0 563.0,293.0 564.0,293.0 565.0,293.0 566.0,293.0 567.0,293.0 568.0,293.0 569.0,294.0 570.0,294.0 571.0,294.0 572.0,294.0 573.0,294.0 574.0,294.0 575.0,294.0 576.0,294.0 577.0,294.0 578.0,294.0 579.0,295.0 580.0,295.0 581.0,294.0 582.0,295.0 583.0,295.0 584.0,295.0 585.0,295.0 586.0,295.0 587.0,295.0 588.0,295.0 589.0,296.0 590.0,296.0 591.0,296.0 592.0,296.0 593.0,296.0 594.0,296.0 595.0,296.0 596.0,296.0 597.0,296.0 598.0,297.0 599.0,297.0 600.0,297.0 601.0,297.0 602.0,298.0 603.0,298.0 604.0,298.0 605.0,298.0 606.0,298.0 607.0,299.0 608.0,299.0 609.0,299.0 610.0,299.0 611.0,299.0 612.0,299.0 613.0,300.0 614.0,300.0 615.0,300.0 616.0,300.0 617.0,300.0 618.0,300.0 619.0,300.0 620.0,300.0 621.0,301.0 622.0,301.0 623.0,301.0 624.0,301.0 625.0,301.0 626.0,301.0 627.0,301.0 628.0,302.0 629.0,302.0 630.0,301.0 631.0,302.0 632.0,302.0 633.0,302.0 634.0,302.0 635.0,302.0 636.0,302.0 637.0,302.0 638.0,303.0 639.0,303.0 640.0,303.0 641.0,303.0 642.0,303.0 643.0,303.0 644.0,304.0 645.0,304.0 646.0,304.0 647.0,304.0 648.0,304.0 649.0,304.0 650.0,304.0 651.0,304.0 652.0,304.0 653.0,304.0 654.0,304.0" fill="none" stroke="#fb46bc" />
	<polyline points="55.0,257.0 56.0,258.0 57.0,258.0 58.0,258.0 59.0,257.0 60.0,257.0 61.0,257.0 62.0,257.0 63.0,257.0 64.0,257.0 65.0,258.0 66.0,258.0 67.0,258.0 68.0,258.0 69.0,258.0 70.0,258.0 71.0,258.0 72.0,259.0 73.0,258.0 74.0,258.0 75.0,258.0 76.0,258.0 77.0,258.0 78.0,258.0 79.0,258.0 80.0,258.0 81.0,258.0 82.0,258.0 83.0,258.0 84.0,258.0 85.0,258.0 86.0,258.0 87.0,258.0 88.0,258.0 89.0,258.0 90.0,258.0 91.0,258.0 92.0,258.0 93.0,258.0 94.0,258.0 95.0,258.0 96.0,258.0 97.0,257.0 98.0,258.0 99.0,257.0 100.0,257.0 101.0,258.0 102.0,258.0 103.0,258.0 104.0,257.0 105.0,257.0 106.0,257.0 107.0,257.0 108.0,257.0 109.0,257.0 110.0,257.0 111.0,257.0 112.0,257.0 113.0,257.0 114.0,257.0 115.0,257.0 116.0,257.0 117.0,256.0 118.0,257.0 119.0,257.0 120.0,257.0 121.0,258.0 122.0,258.0 123.0,259.0 124.0,258.0 125.0,258.0 126.0,258.0 127.0,258.0 128.0,257.0 129.0,257.0 130.0,257.0 131.0,257.0 132.0,257.0 133.0,257.0 134.0,257.0 135.0,257.0 136.0,258.0 137.0,258.0 138.0,258.0 139.0,258.0 140.0,258.0 141.0,258.0 142.0,258.0 143.0,258.0 144.0,258.0 145.0,258.0 146.0,258.0 147.0,258.0 148.0,257.0 149.0,257.0 150.0,257.0 151.0,256.0 152.0,256.0 153.0,256.0 154.0,256.0 155.0,256.0 156.0,255.0 157.0,255.0 158.0,255.0 159.0,254.0 160.0,254.0 161.0,253.0 162.0,253.0 163.0,253.0 164.0,252.0 165.0,252.0 166.0,252.0 167.0,251.0 168.0,251.0 169.0,250.0 170.0,250.0 171.0,250.0 172.0,250.0 173.0,250.0 174.0,250.0 175.0,249.0 176.0,250.0 177.0,249.0 178.0,249.0 179.0,248.0 180.0,248.0 181.0,248.0 182.0,248.0 183.0,248.0 184.0,248.0 185.0,248.0 186.0,248.0 187.0,248.0 188.0,248.0 189.0,248.0 190.0,248.0 191.0,248.0 192.0,248.0 193.0,248.0 194.0,248.0 195.0,248.0 196.0,248.0 197.0,249.0 198.0,249.0 199.0,249.0 200.0,249.0 201.0,249.0 202.0,249.0 203.0,249.0 204.0,249.0 205.0,249.0 206.0,249.0 207.0,248.0 208.0,248.0 209.0,248.0 210.0,248.0 211.0,248.0 212.0,249.0 213.0,248.0 214.0,248.0 215.0,247.0 216.0,247.0 217.0,246.0 218.0,246.0 219.0,245.0 220.0,245.0 221.0,245.0 222.0,244.0 223.0,244.0 224.0,244.0 225.0,244.0 226.0,243.0 227.0,242.0 228.0,242.0 229.0,242.0 230.0,241.0 231.0,241.0 232.0,240.0 233.0,240.0 234.0,240.0 235.0,240.0 236.0,239.0 237.0,239.0 238.0,239.0 239.0,239.0 240.0,239.0 241.0,239.0 242.0,239.0 243.0,239.0 244.0,238.0 245.0,238.0 246.0,237.0 247.0,237.0 248.0,236.0 249.0,236.0 250.0,235.0 251.0,235.0 252.0,235.0 253.0,234.0 254.0,235.0 255.0,234.0 256.0,234.0 257.0,233.0 258.0,233.0 259.0,233.0 260.0,232.0 261.0,232.0 262.0,232.0 263.0,231.0 264.0,231.0 265.0,231.0 266.0,231.0 267.0,231.0 268.0,230.0 269.0,230.0 270.0,230.0 271.0,230.0 272.0,230.0 273.0,230.0 274.0,229.0 275.0,229.0 276.0,229.0 277.0,228.0 278.0,228.0 279.0,228.0 280.0,227.0 281.0,227.0 282.0,226.0 283.0,227.0 284.0,227.0 285.0,226.0 286.0,226.0 287.0,225.0 288.0,225.0 289.0,225.0 290.0,225.0 291.0,224.0 292.0,223.0 293.0,223.0 294.0,222.0 295.0,222.0 296.0,222.0 297.0,221.0 298.0,221.0 299.0,221.0 300.0,221.0 301.0,220.0 302.0,220.0 303.0,220.0 304.0,219.0 305.0,219.0 306.0,219.0 307.0,218.0 308.0,219.0 309.0,218.0 310.0,217.0 311.0,217.0 312.0,217.0 313.0,216.0 314.0,216.0 315.0,216.0 316.0,216.0 317.0,216.0 318.0,215.0 319.0,214.0 320.0,214.0 321.0,214.0 322.0,213.0 323.0,213.0 324.0,212.0 325.0,211.0 326.0,211.0 327.0,210.0 328.0,210.0 329.0,209.0 330.0,209.0 331.0,209.0 332.0,208.0 333.0,207.0 334.0,207.0 335.0,206.0 336.0,206.0 337.0,206.0 338.0,205.0 339.0,205.0 340.0,204.0 341.0,204.0 342.0,204.0 343.0,204.0 344.0,203.0 345.0,202.0 346.0,202.0 347.0,201.0 348.0,200.0 349.0,199.0 350.0,199.0 351.0,198.0 352.0,198.0 353.0,197.0 354.0,197.0 355.0,196.0 356.0,196.0 357.0,196.0 358.0,196.0 359.0,195.0 360.0,196.0 361.0,195.0 362.0,195.0 363.0,195.0 364.0,195.0 365.0,194.0 366.0,193.0 367.0,193.0 368.0,192.0 369.0,192.0 370.0,190.0 371.0,190.0 372.0,190.0 373.0,190.0 374.0,188.0 375.0,188.0 376.0,187.0 377.0,186.0 378.0,185.0 379.0,184.0 380.0,184.0 381.0,183.0 382.0,183.0 383.0,181.0 384.0,181.0 385.0,180.0 386.0,179.0 387.0,179.0 388.0,179.0 389.0,178.0 390.0,178.0 391.0,177.0 392.0,176.0 393.0,175.0 394.0,174.0 395.0,173.0 396.0,173.0 397.0,173.0 398.0,172.0 399.0,172.0 400.0,171.0 401.0,171.0 402.0,170.0 403.0,169.0 404.0,170.0 405.0,169.0 406.0,169.0 407.0,168.0 408.0,168.0 409.0,168.0 410.0,168.0 411.0,167.0 412.0,166.0 413.0,165.0 414.0,164.0 415.0,164.0 416.0,163.0 417.0,163.0 418.0,162.0 419.0,162.0 420.0,162.0 421.0,161.0 422.0,160.0 423.0,160.0 424.0,159.0 425.0,158.0 426.0,158.0 427.0,158.0 428.0,158.0 429.0,157.0 430.0,156.0 431.0,156.0 432.0,155.0 433.0,154.0 434.0,154.0 435.0,153.0 436.0,153.0 437.0,153.0 438.0,151.0 439.0,151.0 440.0,150.0 441.0,149.0 442.0,148.0 443.0,148.0 444.0,147.0 445.0,147.0 446.0,146.0 447.0,145.0 448.0,145.0 449.0,145.0 450.0,145.0 451.0,144.0 452.0,143.0 453.0,143.0 454.0,143.0 455.0,141.0 456.0,141.0 457.0,140.0 458.0,140.0 459.0,139.0 460.0,139.0 461.0,138.0 462.0,137.0 463.0,137.0 464.0,136.0 465.0,136.0 466.0,136.0 467.0,136.0 468.0,135.0 469.0,135.0 470.0,135.0 471.0,135.0 472.0,133.0 473.0,132.0 474.0,132.0 475.0,130.0 476.0,130.0 477.0,131.0 478.0,131.0 479.0,131.0 480.0,130.0 481.0,130.0 482.0,130.0 483.0,130.0 484.0,130.0 485.0,131.0 486.0,131.0 487.0,131.0 488.0,130.0 489.0,130.0 490.0,130.0 491.0,130.0 492.0,130.0 493.0,130.0 494.0,129.0 495.0,130.0 496.0,129.0 497.0,128.0 498.0,128.0 499.0,128.0 500.0,127.0 501.0,127.0 502.0,127.0 503.0,126.0 504.0,126.0 505.0,126.0 506.0,125.0 507.0,125.0 508.0,125.0 509.0,124.0 510.0,125.0 511.0,124.0 512.0,123.0 513.0,122.0 514.0,121.0 515.0,121.0 516.0,121.0 517.0,121.0 518.0,121.0 519.0,120.0 520.0,120.0 521.0,119.0 522.0,120.0 523.0,118.0 524.0,118.0 525.0,118.0 526.0,118.0 527.0,117.0 528.0,116.0 529.0,116.0 530.0,116.0 531.0,115.0 532.0,114.0 533.0,114.0 534.0,112.0 535.0,112.0 536.0,111.0 537.0,110.0 538.0,110.0 539.0,110.0 540.0,110.0 541.0,109.0 542.0,109.0 543.0,109.0 544.0,108.0 545.0,108.0 546.0,107.0 547.0,107.0 548.0,107.0 549.0,107.0 550.0,106.0 551.0,107.0 552.0,107.0 553.0,107.0 554.0,106.0 555.0,106.0 556.0,106.0 557.0,106.0 558.0,106.0 559.0,105.0 560.0,104.0 561.0,105.0 562.0,105.0 563.0,104.0 564.0,104.0 565.0,103.0 566.0,103.0 567.0,103.0 568.0,103.0 569.0,103.0 570.0,103.0 571.0,102.0 572.0,102.0 573.0,101.0 574.0,100.0 575.0,100.0 576.0,99.0 577.0,99.0 578.0,99.0 579.0,98.0 580.0,100.0 581.0,100.0 582.0,100.0 583.0,99.0 584.0,98.0 585.0,98.0 586.0,97.0 587.0,97.0 588.0,96.0 589.0,96.0 590.0,96.0 591.0,96.0 592.0,97.0 593.0,97.0 594.0,96.0 595.0,96.0 596.0,96.0 597.0,96.0 598.0,95.0 599.0,95.0 600.0,94.0 601.0,94.0 602.0,93.0 603.0,92.0 604.0,91.0 605.0,91.0 606.0,91.0 607.0,91.0 608.0,91.0 609.0,91.0 610.0,91.0 611.0,91.0 612.0,90.0 613.0,89.0 614.0,88.0 615.0,87.0 616.0,86.0 617.0,85.0 618.0,86.0 619.0,85.0 620.0,84.0 621.0,84.0 622.0,84.0 623.0,83.0 624.0,83.0 625.0,83.0 626.0,82.0 627.0,82.0 628.0,82.0 629.0,81.0 630.0,80.0 631.0,79.0 632.0,78.0 633.0,78.0 634.0,77.0 635.0,76.0 636.0,75.0 637.0,75.0 638.0,74.0 639.0,74.0 640.0,74.0 641.0,74.0 642.0,74.0 643.0,75.0 644.0,74.0 645.0,74.0 646.0,72.0 647.0,73.0 648.0,74.0 649.0,73.0 650.0,73.0 651.0,71.0 652.0,72.0 653.0,71.0 654.0,71.0" fill="none" stroke="#0000ff" />
	<polyline points="55.0,257.0 56.0,257.0 57.0,257.0 58.0,257.0 59.0,257.0 60.0,257.0 61.0,257.0 62.0,257.0 63.0,257.0 64.0,257.0 65.0,257.0 66.0,257.0 67.0,257.0 68.0,257.0 69.0,257.0 70.0,257.0 71.0,257.0 72.0,256.0 73.0,257.0 74.0,257.0 75.0,257.0 76.0,257.0 77.0,257.0 78.0,257.0 79.0,257.0 80.0,257.0 81.0,257.0 82.0,257.0 83.0,258.0 84.0,258.0 85.0,258.0 86.0,258.0 87.0,258.0 88.0,258.0 89.0,259.0 90.0,259.0 91.0,259.0 92.0,259.0 93.0,259.0 94.0,259.0 95.0,259.0 96.0,259.0 97.0,259.0 98.0,259.0 99.0,259.0 100.0,259.0 101.0,259.0 102.0,259.0 103.0,259.0 104.0,259.0 105.0,259.0 106.0,259.0 107.0,259.0 108.0,259.0 109.0,259.0 110.0,259.0 111.0,259.0 112.0,259.0 113.0,259.0 114.0,258.0 115.0,258.0 116.0,258.0 117.0,258.0 118.0,257.0 119.0,257.0 120.0,258.0 121.0,258.0 122.0,258.0 123.0,258.0 124.0,258.0 125.0,258.0 126.0,258.0 127.0,258.0 128.0,258.0 129.0,259.0 130.0,259.0 131.0,259.0 132.0,258.0 133.0,258.0 134.0,258.0 135.0,258.0 136.0,258.0 137.0,258.0 138.0,258.0 139.0,258.0 140.0,257.0 141.0,257.0 142.0,257.0 143.0,258.0 144.0,258.0 145.0,258.0 146.0,257.0 147.0,258.0 148.0,258.0 149.0,258.0 150.0,258.0 151.0,258.0 152.0,258.0 153.0,258.0 154.0,258.0 155.0,258.0 156.0,258.0 157.0,259.0 158.0,258.0 159.0,259.0 160.0,259.0 161.0,260.0 162.0,260.0 163.0,260.0 164.0,261.0 165.0,260.0 166.0,260.0 167.0,260.0 168.0,260.0 169.0,260.0 170.0,261.0 171.0,261.0 172.0,261.0 173.0,261.0 174.0,262.0 175.0,262.0 176.0,262.0 177.0,262.0 178.0,262.0 179.0,263.0 180.0,263.0 181.0,263.0 182.0,263.0 183.0,263.0 184.0,264.0 185.0,264.0 186.0,264.0 187.0,264.0 188.0,264.0 189.0,265.0 190.0,265.0 191.0,265.0 192.0,265.0 193.0,265.0 194.0,266.0 195.0,266.0 196.0,266.0 197.0,267.0 198.0,267.0 199.0,267.0 200.0,267.0 201.0,267.0 202.0,268.0 203.0,268.0 204.0,268.0 205.0,268.0 206.0,268.0 207.0,268.0 208.0,268.0 209.0,268.0 210.0,268.0 211.0,269.0 212.0,269.0 213.0,269.0 214.0,269.0 215.0,270.0 216.0,270.0 217.0,270.0 218.0,270.0 219.0,270.0 220.0,270.0 221.0,271.0 222.0,271.0 223.0,271.0 224.0,271.0 225.0,271.0 226.0,272.0 227.0,272.0 228.0,272.0 229.0,272.0 230.0,272.0 231.0,272.0 232.0,272.0 233.0,272.0 234.0,272.0 235.0,271.0 236.0,271.0 237.0,271.0 238.0,271.0 239.0,272.0 240.0,272.0 241.0,272.0 242.0,272.0 243.0,272.0 244.0,273.0 245.0,273.0 246.0,273.0 247.0,273.0 248.0,272.0 249.0,272.0 250.0,272.0 251.0,273.0 252.0,273.0 253.0,273.0 254.0,273.0 255.0,274.0 256.0,274.0 257.0,274.0 258.0,274.0 259.0,274.0 260.0,274.0 261.0,274.0 262.0,275.0 263.0,275.0 264.0,275.0 265.0,275.0 266.0,276.0 267.0,276.0 268.0,276.0 269.0,276.0 270.0,277.0 271.0,277.0 272.0,277.0 273.0,277.0 274.0,277.0 275.0,277.0 276.0,278.0 277.0,278.0 278.0,278.0 279.0,278.0 280.0,278.0 281.0,278.0 282.0,279.0 283.0,279.0 284.0,280.0 285.0,280.0 286.0,280.0 287.0,281.0 288.0,281.0 289.0,281.0 290.0,281.0 291.0,281.0 292.0,281.0 293.0,281.0 294.0,281.0 295.0,282.0 296.0,282.0 297.0,282.0 298.0,282.0 299.0,283.0 300.0,283.0 301.0,283.0 302.0,283.0 303.0,283.0 304.0,283.0 305.0,283.0 306.0,283.0 307.0,283.0 308.0,283.0 309.0,283.0 310.0,283.0 311.0,283.0 312.0,283.0 313.0,283.0 314.0,283.0 315.0,284.0 316.0,284.0 317.0,284.0 318.0,284.0 319.0,284.0 320.0,284.0 321.0,283.0 322.0,284.0 323.0,284.0 324.0,284.0 325.0,284.0 326.0,284.0 327.0,284.0 328.0,284.0 329.0,284.0 330.0,284.0 331.0,284.0 332.0,284.0 333.0,284.0 334.0,284.0 335.0,284.0 336.0,285.0 337.0,285.0 338.0,285.0 339.0,285.0 340.0,286.0 341.0,286.0 342.0,286.0 343.0,286.0 344.0,286.0 345.0,286.0 346.0,286.0 347.0,286.0 348.0,286.0 349.0,286.0 350.0,286.0 351.0,286.0 352.0,286.0 353.0,287.0 354.0,287.0 355.0,287.0 356.0,287.0 357.0,287.0 358.0,287.0 359.0,287.0 360.0,286.0 361.0,287.0 362.0,287.0 363.0,287.0 364.0,287.0 365.0,286.0 366.0,286.0 367.0,286.0 368.0,286.0 369.0,286.0 370.0,286.0 371.0,286.0 372.0,286.0 373.0,286.0 374.0,285.0 375.0,286.0 376.0,285.0 377.0,285.0 378.0,285.0 379.0,285.0 380.0,285.0 381.0,284.0 382.0,284.0 383.0,284.0 384.0,284.0 385.0,283.0 386.0,283.0 387.0,283.0 388.0,283.0 389.0,283.0 390.0,283.0 391.0,283.0 392.0,283.0 393.0,283.0 394.0,283.0 395.0,283.0 396.0,283.0 397.0,283.0 398.0,283.0 399.0,283.0 400.0,283.0 401.0,283.0 402.0,283.0 403.0,283.0 404.0,283.0 405.0,283.0 406.0,283.0 407.0,283.0 408.0,284.0 409.0,284.0 410.0,284.0 411.0,284.0 412.0,284.0 413.0,284.0 414.0,284.0 415.0,284.0 416.0,283.0 417.0,283.0 418.0,284.0 419.0,284.0 420.0,284.0 421.0,283.0 422.0,283.0 423.0,283.0 424.0,284.0 425.0,284.0 426.0,284.0 427.0,284.0 428.0,284.0 429.0,284.0 430.0,284.0 431.0,284.0 432.0,284.0 433.0,285.0 434.0,285.0 435.0,285.0 436.0,285.0 437.0,285.0 438.0,285.0 439.0,285.0 440.0,285.0 441.0,285.0 442.0,285.0 443.0,285.0 444.0,285.0 445.0,285.0 446.0,285.0 447.0,285.0 448.0,285.0 449.0,285.0 450.0,285.0 451.0,285.0 452.0,285.0 453.0,285.0 454.0,285.0 455.0,285.0 456.0,286.0 457.0,286.0 458.0,286.0 459.0,286.0 460.0,287.0 461.0,287.0 462.0,287.0 463.0,287.0 464.0,287.0 465.0,287.0 466.0,287.0 467.0,287.0 468.0,287.0 469.0,287.0 470.0,287.0 471.0,287.0 472.0,287.0 473.0,288.0 474.0,288.0 475.0,288.0 476.0,288.0 477.0,288.0 478.0,288.0 479.0,288.0 480.0,288.0 481.0,288.0 482.0,289.0 483.0,289.0 484.0,289.0 485.0,289.0 486.0,289.0 487.0,289.0 488.0,289.0 489.0,290.0 490.0,290.0 491.0,290.0 492.0,290.0 493.0,291.0 494.0,291.0 495.0,291.0 496.0,291.0 497.0,292.0 498.0,292.0 499.0,292.0 500.0,292.0 501.0,292.0 502.0,292.0 503.0,293.0 504.0,293.0 505.0,293.0 506.0,293.0 507.0,293.0 508.0,294.0 509.0,294.0 510.0,294.0 511.0,294.0 512.0,294.0 513.0,295.0 514.0,295.0 515.0,295.0 516.0,295.0 517.0,295.0 518.0,295.0 519.0,295.0 520.0,295.0 521.0,295.0 522.0,296.0 523.0,295.0 524.0,296.0 525.0,296.0 526.0,296.0 527.0,296.0 528.0,296.0 529.0,296.0 530.0,296.0 531.0,296.0 532.0,296.0 533.0,296.0 534.0,296.0 535.0,296.0 536.0,296.0 537.0,296.0 538.0,296.0 539.0,296.0 540.0,296.0 541.0,296.0 542.0,296.0 543.0,296.0 544.0,296.0 545.0,296.0 546.0,296.0 547.0,296.0 548.0,296.0 549.0,296.0 550.0,296.0 551.0,297.0 552.0,297.0 553.0,297.0 554.0,297.0 555.0,297.0 556.0,297.0 557.0,297.0 558.0,297.0 559.0,297.0 560.0,297.0 561.0,297.0 562.0,296.0 563.0,296.0 564.0,296.0 565.0,296.0 566.0,296.0 567.0,296.0 568.0,296.0 569.0,296.0 570.0,296.0 571.0,295.0 572.0,295.0 573.0,296.0 574.0,296.0 575.0,296.0 576.0,296.0 577.0,296.0 578.0,296.0 579.0,296.0 580.0,296.0 581.0,296.0 582.0,296.0 583.0,296.0 584.0,296.0 585.0,296.0 586.0,296.0 587.0,296.0 588.0,296.0 589.0,296.0 590.0,296.0 591.0,296.0 592.0,296.0 593.0,296.0 594.0,296.0 595.0,296.0 596.0,296.0 597.0,296.0 598.0,296.0 599.0,297.0 600.0,297.0 601.0,297.0 602.0,296.0 603.0,296.0 604.0,296.0 605.0,297.0 606.0,297.0 607.0,297.0 608.0,297.0 609.0,297.0 610.0,297.0 611.0,298.0 612.0,298.0 613.0,298.0 614.0,298.0 615.0,298.0 616.0,298.0 617.0,298.0 618.0,298.0 619.0,298.0 620.0,298.0 621.0,299.0 622.0,299.0 623.0,298.0 624.0,298.0 625.0,298.0 626.0,298.0 627.0,299.0 628.0,299.0 629.0,299.0 630.0,299.0 631.0,299.0 632.0,299.0 633.0,299.0 634.0,299.0 635.0,299.0 636.0,299.0 637.0,299.0 638.0,299.0 639.0,299.0 640.0,299.0 641.0,300.0 642.0,300.0 643.0,300.0 644.0,300.0 645.0,300.0 646.0,300.0 647.0,300.0 648.0,300.0 649.0,300.0 650.0,300.0 651.0,300.0 652.0,300.0 653.0,300.0 654.0,300.0" fill="none" stroke="#00bfff" />
	<polyline points="55.0,257.0 56.0,257.0 57.0,257.0 58.0,258.0 59.0,258.0 60.0,257.0 61.0,257.0 62.0,257.0 63.0,257.0 64.0,257.0 65.0,257.0 66.0,257.0 67.0,256.0 68.0,256.0 69.0,255.0 70.0,255.0 71.0,256.0 72.0,256.0 73.0,256.0 74.0,256.0 75.0,256.0 76.0,256.0 77.0,257.0 78.0,256.0 79.0,256.0 80.0,256.0 81.0,257.0 82.0,257.0 83.0,257.0 84.0,257.0 85.0,257.0 86.0,257.0 87.0,257.0 88.0,257.0 89.0,257.0 90.0,257.0 91.0,257.0 92.0,257.0 93.0,258.0 94.0,257.0 95.0,257.0 96.0,257.0 97.0,257.0 98.0,257.0 99.0,257.0 100.0,257.0 101.0,257.0 102.0,257.0 103.0,257.0 104.0,257.0 105.0,257.0 106.0,258.0 107.0,258.0 108.0,258.0 109.0,258.0 110.0,258.0 111.0,259.0 112.0,259.0 113.0,259.0 114.0,259.0 115.0,259.0 116.0,259.0 117.0,259.0 118.0,259.0 119.0,259.0 120.0,259.0 121.0,258.0 122.0,258.0 123.0,258.0 124.0,258.0 125.0,257.0 126.0,257.0 127.0,257.0 128.0,257.0 129.0,257.0 130.0,257.0 131.0,257.0 132.0,257.0 133.0,257.0 134.0,257.0 135.0,257.0 136.0,257.0 137.0,257.0 138.0,258.0 139.0,258.0 140.0,258.0 141.0,258.0 142.0,258.0 143.0,258.0 144.0,258.0 145.0,258.0 146.0,258.0 147.0,258.0 148.0,259.0 149.0,259.0 150.0,259.0 151.0,259.0 152.0,259.0 153.0,259.0 154.0,260.0 155.0,260.0 156.0,261.0 157.0,261.0 158.0,261.0 159.0,261.0 160.0,261.0 161.0,262.0 162.0,262.0 163.0,262.0 164.0,263.0 165.0,263.0 166.0,263.0 167.0,263.0 168.0,263.0 169.0,263.0 170.0,264.0 171.0,264.0 172.0,264.0 173.0,264.0 174.0,264.0 175.0,264.0 176.0,264.0 177.0,264.0 178.0,264.0 179.0,264.0 180.0,264.0 181.0,264.0 182.0,264.0 183.0,264.0 184.0,264.0 185.0,264.0 186.0,264.0 187.0,264.0 188.0,263.0 189.0,263.0 190.0,263.0 191.0,262.0 192.0,262.0 193.0,262.0 194.0,261.0 195.0,261.0 196.0,261.0 197.0,260.0 198.0,260.0 199.0,260.0 200.0,260.0 201.0,259.0 202.0,258.0 203.0,258.0 204.0,257.0 205.0,257.0 206.0,257.0 207.0,256.0 208.0,256.0 209.0,256.0 210.0,256.0 211.0,256.0 212.0,255.0 213.0,255.0 214.0,255.0 215.0,255.0 216.0,254.0 217.0,254.0 218.0,253.0 219.0,253.0 220.0,253.0 221.0,254.0 222.0,254.0 223.0,254.0 224.0,253.0 225.0,254.0 226.0,254.0 227.0,254.0 228.0,255.0 229.0,255.0 230.0,255.0 231.0,255.0 232.0,256.0 233.0,256.0 234.0,257.0 235.0,257.0 236.0,258.0 237.0,258.0 238.0,258.0 239.0,259.0 240.0,259.0 241.0,260.0 242.0,260.0 243.0,260.0 244.0,261.0 245.0,261.0 246.0,262.0 247.0,262.0 248.0,262.0 249.0,263.0 250.0,263.0 251.0,263.0 252.0,264.0 253.0,264.0 254.0,264.0 255.0,264.0 256.0,264.0 257.0,265.0 258.0,265.0 259.0,265.0 260.0,266.0 261.0,267.0 262.0,267.0 263.0,268.0 264.0,268.0 265.0,268.0 266.0,268.0 267.0,268.0 268.0,269.0 269.0,269.0 270.0,269.0 271.0,269.0 272.0,269.0 273.0,270.0 274.0,270.0 275.0,270.0 276.0,270.0 277.0,270.0 278.0,270.0 279.0,270.0 280.0,271.0 281.0,270.0 282.0,270.0 283.0,271.0 284.0,271.0 285.0,271.0 286.0,271.0 287.0,271.0 288.0,271.0 289.0,271.0 290.0,272.0 291.0,272.0 292.0,272.0 293.0,272.0 294.0,272.0 295.0,272.0 296.0,273.0 297.0,272.0 298.0,272.0 299.0,272.0 300.0,272.0 301.0,272.0 302.0,272.0 303.0,272.0 304.0,272.0 305.0,272.0 306.0,272.0 307.0,272.0 308.0,272.0 309.0,272.0 310.0,272.0 311.0,273.0 312.0,273.0 313.0,273.0 314.0,273.0 315.0,273.0 316.0,273.0 317.0,273.0 318.0,273.0 319.0,273.0 320.0,274.0 321.0,274.0 322.0,274.0 323.0,274.0 324.0,274.0 325.0,274.0 326.0,274.0 327.0,274.0 328.0,275.0 329.0,275.0 330.0,275.0 331.0,276.0 332.0,276.0 333.0,276.0 334.0,276.0 335.0,276.0 336.0,277.0 337.0,277.0 338.0,277.0 339.0,277.0 340.0,277.0 341.0,277.0 342.0,277.0 343.0,278.0 344.0,278.0 345.0,278.0 346.0,278.0 347.0,279.0 348.0,279.0 349.0,279.0 350.0,279.0 351.0,279.0 352.0,279.0 353.0,280.0 354.0,280.0 355.0,280.0 356.0,280.0 357.0,281.0 358.0,281.0 359.0,281.0 360.0,281.0 361.0,282.0 362.0,282.0 363.0,282.0 364.0,282.0 365.0,282.0 366.0,283.0 367.0,283.0 368.0,283.0 369.0,283.0 370.0,283.0 371.0,283.0 372.0,283.0 373.0,284.0 374.0,284.0 375.0,284.0 376.0,284.0 377.0,284.0 378.0,284.0 379.0,284.0 380.0,284.0 381.0,284.0 382.0,284.0 383.0,284.0 384.0,284.0 385.0,285.0 386.0,285.0 387.0,285.0 388.0,285.0 389.0,285.0 390.0,285.0 391.0,285.0 392.0,285.0 393.0,285.0 394.0,285.0 395.0,285.0 396.0,285.0 397.0,285.0 398.0,286.0 399.0,286.0 400.0,286.0 401.0,286.0 402.0,286.0 403.0,286.0 404.0,286.0 405.0,286.0 406.0,286.0 407.0,286.0 408.0,286.0 409.0,286.0 410.0,286.0 411.0,286.0 412.0,286.0 413.0,287.0 414.0,287.0 415.0,287.0 416.0,287.0 417.0,287.0 418.0,287.0 419.0,287.0 420.0,288.0 421.0,288.0 422.0,288.0 423.0,288.0 424.0,288.0 425.0,288.0 426.0,288.0 427.0,288.0 428.0,288.0 429.0,288.0 430.0,289.0 431.0,289.0 432.0,288.0 433.0,289.0 434.0,289.0 435.0,289.0 436.0,289.0 437.0,289.0 438.0,289.0 439.0,289.0 440.0,289.0 441.0,290.0 442.0,289.0 443.0,289.0 444.0,290.0 445.0,290.0 446.0,290.0 447.0,289.0 448.0,289.0 449.0,289.0 450.0,289.0 451.0,289.0 452.0,289.0 453.0,289.0 454.0,289.0 455.0,289.0 456.0,289.0 457.0,289.0 458.0,289.0 459.0,289.0 460.0,289.0 461.0,289.0 462.0,289.0 463.0,289.0 464.0,290.0 465.0,290.0 466.0,290.0 467.0,290.0 468.0,290.0 469.0,290.0 470.0,289.0 471.0,289.0 472.0,289.0 473.0,289.0 474.0,289.0 475.0,289.0 476.0,289.0 477.0,289.0 478.0,288.0 479.0,289.0 480.0,289.0 481.0,289.0 482.0,289.0 483.0,289.0 484.0,289.0 485.0,289.0 486.0,289.0 487.0,289.0 488.0,289.0 489.0,289.0 490.0,289.0 491.0,289.0 492.0,289.0 493.0,290.0 494.0,289.0 495.0,290.0 496.0,290.0 497.0,290.0 498.0,290.0 499.0,290.0 500.0,290.0 501.0,290.0 502.0,290.0 503.0,290.0 504.0,290.0 505.0,290.0 506.0,290.0 507.0,290.0 508.0,291.0 509.0,291.0 510.0,291.0 511.0,291.0 512.0,291.0 513.0,291.0 514.0,291.0 515.0,291.0 516.0,291.0 517.0,291.0 518.0,291.0 519.0,291.0 520.0,291.0 521.0,291.0 522.0,291.0 523.0,291.0 524.0,291.0 525.0,291.0 526.0,291.0 527.0,291.0 528.0,292.0 529.0,291.0 530.0,291.0 531.0,291.0 532.0,292.0 533.0,291.0 534.0,291.0 535.0,291.0 536.0,291.0 537.0,291.0 538.0,292.0 539.0,292.0 540.0,292.0 541.0,292.0 542.0,292.0 543.0,292.0 544.0,292.0 545.0,292.0 546.0,292.0 547.0,292.0 548.0,292.0 549.0,292.0 550.0,292.0 551.0,293.0 552.0,293.0 553.0,292.0 554.0,292.0 555.0,293.0 556.0,293.0 557.0,293.0 558.0,293.0 559.0,293.0 560.0,293.0 561.0,293.0 562.0,294.0 563.0,294.0 564.0,294.0 565.0,294.0 566.0,294.0 567.0,295.0 568.0,295.0 569.0,295.0 570.0,295.0 571.0,295.0 572.0,295.0 573.0,295.0 574.0,295.0 575.0,295.0 576.0,295.0 577.0,295.0 578.0,295.0 579.0,295.0 580.0,295.0 581.0,295.0 582.0,295.0 583.0,296.0 584.0,296.0 585.0,296.0 586.0,296.0 587.0,296.0 588.0,296.0 589.0,297.0 590.0,297.0 591.0,297.0 592.0,297.0 593.0,297.0 594.0,297.0 595.0,297.0 596.0,297.0 597.0,297.0 598.0,297.0 599.0,297.0 600.0,297.0 601.0,297.0 602.0,298.0 603.0,298.0 604.0,298.0 605.0,298.0 606.0,298.0 607.0,298.0 608.0,298.0 609.0,298.0 610.0,298.0 611.0,298.0 612.0,298.0 613.0,298.0 614.0,298.0 615.0,298.0 616.0,298.0 617.0,299.0 618.0,299.0 619.0,299.0 620.0,299.0 621.0,299.0 622.0,299.0 623.0,299.0 624.0,299.0 625.0,299.0 626.0,299.0 627.0,299.0 628.0,299.0 629.0,299.0 630.0,300.0 631.0,300.0 632.0,300.0 633.0,300.0 634.0,300.0 635.0,300.0 636.0,300.0 637.0,300.0 638.0,300.0 639.0,301.0 640.0,300.0 641.0,301.0 642.0,301.0 643.0,301.0 644.0,301.0 645.0,301.0 646.0,301.0 647.0,301.0 648.0,301.0 649.0,301.0 650.0,301.0 651.0,301.0 652.0,301.0 653.0,302.0 654.0,302.0" fill="none" stroke="#4876ff" />
	<polyline points="55.0,257.0 56.0,257.0 57.0,257.0 58.0,257.0 59.0,257.0 60.0,257.0 61.0,257.0 62.0,257.0 63.0,257.0 64.0,256.0 65.0,256.0 66.0,256.0 67.0,256.0 68.0,256.0 69.0,256.0 70.0,256.0 71.0,256.0 72.0,256.0 73.0,256.0 74.0,256.0 75.0,256.0 76.0,256.0 77.0,256.0 78.0,256.0 79.0,256.0 80.0,257.0 81.0,257.0 82.0,257.0 83.0,257.0 84.0,258.0 85.0,258.0 86.0,258.0 87.0,258.0 88.0,258.0 89.0,258.0 90.0,258.0 91.0,258.0 92.0,259.0 93.0,259.0 94.0,259.0 95.0,259.0 96.0,259.0 97.0,259.0 98.0,259.0 99.0,259.0 100.0,259.0 101.0,259.0 102.0,259.0 103.0,259.0 104.0,259.0 105.0,259.0 106.0,259.0 107.0,259.0 108.0,260.0 109.0,259.0 110.0,259.0 111.0,259.0 112.0,259.0 113.0,259.0 114.0,259.0 115.0,259.0 116.0,259.0 117.0,259.0 118.0,259.0 119.0,258.0 120.0,258.0 121.0,258.0 122.0,258.0 123.0,258.0 124.0,257.0 125.0,257.0 126.0,257.0 127.0,257.0 128.0,257.0 129.0,256.0 130.0,256.0 131.0,256.0 132.0,255.0 133.0,255.0 134.0,255.0 135.0,255.0 136.0,255.0 137.0,255.0 138.0,255.0 139.0,254.0 140.0,254.0 141.0,254.0 142.0,253.0 143.0,253.0 144.0,254.0 145.0,253.0 146.0,253.0 147.0,253.0 148.0,253.0 149.0,253.0 150.0,252.0 151.0,252.0 152.0,253.0 153.0,253.0 154.0,253.0 155.0,253.0 156.0,253.0 157.0,252.0 158.0,253.0 159.0,253.0 160.0,253.0 161.0,253.0 162.0,253.0 163.0,253.0 164.0,253.0 165.0,253.0 166.0,253.0 167.0,253.0 168.0,254.0 169.0,254.0 170.0,254.0 171.0,254.0 172.0,254.0 173.0,254.0 174.0,254.0 175.0,255.0 176.0,255.0 177.0,256.0 178.0,256.0 179.0,256.0 180.0,256.0 181.0,256.0 182.0,257.0 183.0,257.0 184.0,257.0 185.0,258.0 186.0,258.0 187.0,259.0 188.0,259.0 189.0,259.0 190.0,259.0 191.0,260.0 192.0,260.0 193.0,260.0 194.0,260.0 195.0,260.0 196.0,260.0 197.0,260.0 198.0,260.0 199.0,260.0 200.0,261.0 201.0,261.0 202.0,261.0 203.0,261.0 204.0,262.0 205.0,262.0 206.0,262.0 207.0,262.0 208.0,262.0 209.0,263.0 210.0,263.0 211.0,263.0 212.0,263.0 213.0,263.0 214.0,263.0 215.0,263.0 216.0,263.0 217.0,264.0 218.0,264.0 219.0,265.0 220.0,265.0 221.0,265.0 222.0,265.0 223.0,266.0 224.0,266.0 225.0,266.0 226.0,266.0 227.0,267.0 228.0,267.0 229.0,267.0 230.0,267.0 231.0,267.0 232.0,267.0 233.0,267.0 234.0,267.0 235.0,267.0 236.0,267.0 237.0,267.0 238.0,267.0 239.0,267.0 240.0,267.0 241.0,267.0 242.0,267.0 243.0,267.0 244.0,267.0 245.0,268.0 246.0,268.0 247.0,267.0 248.0,268.0 249.0,269.0 250.0,269.0 251.0,269.0 252.0,269.0 253.0,269.0 254.0,269.0 255.0,269.0 256.0,269.0 257.0,268.0 258.0,268.0 259.0,268.0 260.0,268.0 261.0,268.0 262.0,268.0 263.0,268.0 264.0,268.0 265.0,267.0 266.0,267.0 267.0,267.0 268.0,268.0 269.0,267.0 270.0,267.0 271.0,267.0 272.0,267.0 273.0,266.0 274.0,266.0 275.0,266.0 276.0,266.0 277.0,266.0 278.0,266.0 279.0,266.0 280.0,265.0 281.0,266.0 282.0,265.0 283.0,265.0 284.0,265.0 285.0,265.0 286.0,265.0 287.0,265.0 288.0,265.0 289.0,265.0 290.0,266.0 291.0,266.0 292.0,266.0 293.0,266.0 294.0,265.0 295.0,265.0 296.0,266.0 297.0,266.0 298.0,266.0 299.0,266.0 300.0,267.0 301.0,267.0 302.0,267.0 303.0,267.0 304.0,267.0 305.0,267.0 306.0,267.0 307.0,267.0 308.0,267.0 309.0,267.0 310.0,267.0 311.0,267.0 312.0,267.0 313.0,267.0 314.0,267.0 315.0,267.0 316.0,267.0 317.0,267.0 318.0,267.0 319.0,267.0 320.0,267.0 321.0,267.0 322.0,267.0 323.0,266.0 324.0,267.0 325.0,266.0 326.0,266.0 327.0,266.0 328.0,265.0 329.0,265.0 330.0,265.0 331.0,264.0 332.0,263.0 333.0,262.0 334.0,262.0 335.0,261.0 336.0,260.0 337.0,258.0 338.0,257.0 339.0,257.0 340.0,256.0 341.0,256.0 342.0,255.0 343.0,254.0 344.0,253.0 345.0,253.0 346.0,252.0 347.0,251.0 348.0,250.0 349.0,249.0 350.0,248.0 351.0,248.0 352.0,247.0 353.0,246.0 354.0,245.0 355.0,245.0 356.0,244.0 357.0,243.0 358.0,242.0 359.0,241.0 360.0,240.0 361.0,239.0 362.0,238.0 363.0,237.0 364.0,236.0 365.0,234.0 366.0,234.0 367.0,233.0 368.0,232.0 369.0,231.0 370.0,230.0 371.0,230.0 372.0,228.0 373.0,228.0 374.0,227.0 375.0,226.0 376.0,226.0 377.0,225.0 378.0,225.0 379.0,224.0 380.0,223.0 381.0,222.0 382.0,222.0 383.0,221.0 384.0,220.0 385.0,219.0 386.0,219.0 387.0,219.0 388.0,218.0 389.0,218.0 390.0,217.0 391.0,217.0 392.0,216.0 393.0,216.0 394.0,215.0 395.0,215.0 396.0,215.0 397.0,214.0 398.0,213.0 399.0,213.0 400.0,213.0 401.0,212.0 402.0,212.0 403.0,211.0 404.0,211.0 405.0,210.0 406.0,210.0 407.0,209.0 408.0,209.0 409.0,209.0 410.0,209.0 411.0,208.0 412.0,207.0 413.0,207.0 414.0,207.0 415.0,206.0 416.0,206.0 417.0,205.0 418.0,204.0 419.0,204.0 420.0,203.0 421.0,203.0 422.0,203.0 423.0,202.0 424.0,201.0 425.0,200.0 426.0,200.0 427.0,199.0 428.0,198.0 429.0,198.0 430.0,197.0 431.0,196.0 432.0,196.0 433.0,195.0 434.0,194.0 435.0,192.0 436.0,191.0 437.0,190.0 438.0,190.0 439.0,189.0 440.0,189.0 441.0,188.0 442.0,188.0 443.0,187.0 444.0,187.0 445.0,186.0 446.0,186.0 447.0,185.0 448.0,185.0 449.0,185.0 450.0,184.0 451.0,183.0 452.0,182.0 453.0,182.0 454.0,181.0 455.0,180.0 456.0,180.0 457.0,179.0 458.0,179.0 459.0,178.0 460.0,177.0 461.0,176.0 462.0,175.0 463.0,173.0 464.0,173.0 465.0,172.0 466.0,171.0 467.0,170.0 468.0,169.0 469.0,168.0 470.0,168.0 471.0,167.0 472.0,166.0 473.0,165.0 474.0,165.0 475.0,164.0 476.0,164.0 477.0,163.0 478.0,162.0 479.0,160.0 480.0,159.0 481.0,159.0 482.0,158.0 483.0,157.0 484.0,156.0 485.0,156.0 486.0,155.0 487.0,154.0 488.0,153.0 489.0,153.0 490.0,152.0 491.0,152.0 492.0,153.0 493.0,153.0 494.0,152.0 495.0,151.0 496.0,150.0 497.0,150.0 498.0,149.0 499.0,148.0 500.0,147.0 501.0,146.0 502.0,145.0 503.0,144.0 504.0,144.0 505.0,143.0 506.0,143.0 507.0,142.0 508.0,142.0 509.0,141.0 510.0,141.0 511.0,140.0 512.0,139.0 513.0,139.0 514.0,140.0 515.0,139.0 516.0,137.0 517.0,136.0 518.0,136.0 519.0,136.0 520.0,135.0 521.0,134.0 522.0,134.0 523.0,133.0 524.0,132.0 525.0,131.0 526.0,132.0 527.0,130.0 528.0,129.0 529.0,129.0 530.0,129.0 531.0,129.0 532.0,128.0 533.0,128.0 534.0,128.0 535.0,127.0 536.0,127.0 537.0,126.0 538.0,126.0 539.0,127.0 540.0,126.0 541.0,126.0 542.0,125.0 543.0,124.0 544.0,123.0 545.0,122.0 546.0,121.0 547.0,121.0 548.0,122.0 549.0,121.0 550.0,120.0 551.0,119.0 552.0,119.0 553.0,119.0 554.0,118.0 555.0,118.0 556.0,118.0 557.0,117.0 558.0,116.0 559.0,116.0 560.0,114.0 561.0,114.0 562.0,113.0 563.0,113.0 564.0,112.0 565.0,111.0 566.0,112.0 567.0,111.0 568.0,111.0 569.0,111.0 570.0,110.0 571.0,109.0 572.0,108.0 573.0,108.0 574.0,106.0 575.0,106.0 576.0,106.0 577.0,107.0 578.0,106.0 579.0,106.0 580.0,105.0 581.0,105.0 582.0,104.0 583.0,104.0 584.0,103.0 585.0,102.0 586.0,101.0 587.0,102.0 588.0,102.0 589.0,102.0 590.0,100.0 591.0,99.0 592.0,98.0 593.0,97.0 594.0,96.0 595.0,96.0 596.0,96.0 597.0,95.0 598.0,95.0 599.0,95.0 600.0,94.0 601.0,93.0 602.0,94.0 603.0,93.0 604.0,94.0 605.0,94.0 606.0,91.0 607.0,90.0 608.0,89.0 609.0,90.0 610.0,88.0 611.0,87.0 612.0,87.0 613.0,87.0 614.0,86.0 615.0,86.0 616.0,85.0 617.0,85.0 618.0,85.0 619.0,85.0 620.0,85.0 621.0,84.0 622.0,83.0 623.0,83.0 624.0,82.0 625.0,81.0 626.0,81.0 627.0,81.0 628.0,79.0 629.0,78.0 630.0,77.0 631.0,77.0 632.0,76.0 633.0,75.0 634.0,73.0 635.0,73.0 636.0,73.0 637.0,72.0 638.0,72.0 639.0,71.0 640.0,71.0 641.0,71.0 642.0,71.0 643.0,70.0 644.0,69.0 645.0,68.0 646.0,68.0 647.0,68.0 648.0,67.0 649.0,68.0 650.0,68.0 651.0,67.0 652.0,67.0 653.0,68.0 654.0,67.0" fill="none" stroke="#aeeeee" />
	<polyline points="55.0,257.0 56.0,257.0 57.0,257.0 58.0,257.0 59.0,257.0 60.0,257.0 61.0,257.0 62.0,257.0 63.0,257.0 64.0,257.0 65.0,257.0 66.0,257.0 67.0,257.0 68.0,257.0 69.0,257.0 70.0,257.0 71.0,257.0 72.0,257.0 73.0,257.0 74.0,257.0 75.0,257.0 76.0,257.0 77.0,257.0 78.0,257.0 79.0,258.0 80.0,258.0 81.0,258.0 82.0,258.0 83.0,258.0 84.0,258.0 85.0,258.0 86.0,258.0 87.0,258.0 88.0,257.0 89.0,257.0 90.0,258.0 91.0,258.0 92.0,258.0 93.0,257.0 94.0,257.0 95.0,257.0 96.0,257.0 97.0,257.0 98.0,257.0 99.0,257.0 100.0,257.0 101.0,257.0 102.0,257.0 103.0,257.0 104.0,257.0 105.0,257.0 106.0,257.0 107.0,257.0 108.0,257.0 109.0,257.0 110.0,256.0 111.0,256.0 112.0,257.0 113.0,257.0 114.0,256.0 115.0,257.0 116.0,256.0 117.0,256.0 118.0,256.0 119.0,256.0 120.0,257.0 121.0,257.0 122.0,257.0 123.0,257.0 124.0,257.0 125.0,257.0 126.0,258.0 127.0,259.0 128.0,259.0 129.0,259.0 130.0,259.0 131.0,259.0 132.0,259.0 133.0,259.0 134.0,259.0 135.0,259.0 136.0,259.0 137.0,260.0 138.0,260.0 139.0,260.0 140.0,260.0 141.0,260.0 142.0,260.0 143.0,260.0 144.0,260.0 145.0,261.0 146.0,261.0 147.0,262.0 148.0,262.0 149.0,262.0 150.0,262.0 151.0,263.0 152.0,263.0 153.0,263.0 154.0,264.0 155.0,264.0 156.0,263.0 157.0,263.0 158.0,263.0 159.0,263.0 160.0,263.0 161.0,263.0 162.0,263.0 163.0,263.0 164.0,263.0 165.0,263.0 166.0,263.0 167.0,263.0 168.0,263.0 169.0,263.0 170.0,262.0 171.0,262.0 172.0,263.0 173.0,263.0 174.0,263.0 175.0,263.0 176.0,263.0 177.0,263.0 178.0,263.0 179.0,263.0 180.0,263.0 181.0,263.0 182.0,263.0 183.0,263.0 184.0,263.0 185.0,263.0 186.0,263.0 187.0,264.0 188.0,264.0 189.0,264.0 190.0,264.0 191.0,265.0 192.0,266.0 193.0,266.0 194.0,266.0 195.0,266.0 196.0,267.0 197.0,267.0 198.0,267.0 199.0,267.0 200.0,268.0 201.0,268.0 202.0,268.0 203.0,268.0 204.0,269.0 205.0,269.0 206.0,269.0 207.0,269.0 208.0,270.0 209.0,270.0 210.0,270.0 211.0,270.0 212.0,270.0 213.0,270.0 214.0,270.0 215.0,270.0 216.0,271.0 217.0,271.0 218.0,271.0 219.0,271.0 220.0,271.0 221.0,271.0 222.0,271.0 223.0,272.0 224.0,272.0 225.0,272.0 226.0,272.0 227.0,272.0 228.0,272.0 229.0,272.0 230.0,272.0 231.0,272.0 232.0,272.0 233.0,272.0 234.0,272.0 235.0,273.0 236.0,273.0 237.0,273.0 238.0,273.0 239.0,273.0 240.0,273.0 241.0,273.0 242.0,273.0 243.0,273.0 244.0,273.0 245.0,273.0 246.0,273.0 247.0,274.0 248.0,274.0 249.0,274.0 250.0,275.0 251.0,275.0 252.0,275.0 253.0,275.0 254.0,275.0 255.0,276.0 256.0,276.0 257.0,276.0 258.0,276.0 259.0,276.0 260.0,277.0 261.0,277.0 262.0,277.0 263.0,277.0 264.0,277.0 265.0,277.0 266.0,278.0 267.0,277.0 268.0,278.0 269.0,278.0 270.0,278.0 271.0,278.0 272.0,278.0 273.0,278.0 274.0,278.0 275.0,278.0 276.0,278.0 277.0,278.0 278.0,278.0 279.0,278.0 280.0,278.0 281.0,278.0 282.0,279.0 283.0,279.0 284.0,279.0 285.0,279.0 286.0,279.0 287.0,279.0 288.0,279.0 289.0,279.0 290.0,279.0 291.0,279.0 292.0,279.0 293.0,279.0 294.0,279.0 295.0,279.0 296.0,279.0 297.0,279.0 298.0,279.0 299.0,279.0 300.0,279.0 301.0,279.0 302.0,279.0 303.0,280.0 304.0,280.0 305.0,280.0 306.0,280.0 307.0,280.0 308.0,280.0 309.0,280.0 310.0,280.0 311.0,280.0 312.0,280.0 313.0,280.0 314.0,280.0 315.0,280.0 316.0,280.0 317.0,280.0 318.0,280.0 319.0,280.0 320.0,281.0 321.0,280.0 322.0,281.0 323.0,280.0 324.0,280.0 325.0,280.0 326.0,281.0 327.0,281.0 328.0,281.0 329.0,282.0 330.0,282.0 331.0,282.0 332.0,282.0 333.0,282.0 334.0,282.0 335.0,282.0 336.0,282.0 337.0,282.0 338.0,282.0 339.0,283.0 340.0,283.0 341.0,283.0 342.0,283.0 343.0,283.0 344.0,283.0 345.0,283.0 346.0,283.0 347.0,283.0 348.0,283.0 349.0,283.0 350.0,283.0 351.0,283.0 352.0,283.0 353.0,283.0 354.0,283.0 355.0,283.0 356.0,283.0 357.0,283.0 358.0,284.0 359.0,284.0 360.0,284.0 361.0,284.0 362.0,284.0 363.0,284.0 364.0,284.0 365.0,284.0 366.0,284.0 367.0,284.0 368.0,284.0 369.0,284.0 370.0,284.0 371.0,284.0 372.0,284.0 373.0,284.0 374.0,284.0 375.0,285.0 376.0,285.0 377.0,285.0 378.0,285.0 379.0,285.0 380.0,285.0 381.0,285.0 382.0,285.0 383.0,285.0 384.0,285.0 385.0,285.0 386.0,285.0 387.0,285.0 388.0,285.0 389.0,285.0 390.0,285.0 391.0,285.0 392.0,285.0 393.0,285.0 394.0,285.0 395.0,284.0 396.0,284.0 397.0,284.0 398.0,284.0 399.0,284.0 400.0,284.0 401.0,284.0 402.0,284.0 403.0,284.0 404.0,283.0 405.0,284.0 406.0,284.0 407.0,283.0 408.0,283.0 409.0,284.0 410.0,284.0 411.0,284.0 412.0,284.0 413.0,284.0 414.0,284.0 415.0,284.0 416.0,284.0 417.0,284.0 418.0,284.0 419.0,284.0 420.0,283.0 421.0,283.0 422.0,283.0 423.0,283.0 424.0,283.0 425.0,283.0 426.0,283.0 427.0,283.0 428.0,283.0 429.0,283.0 430.0,283.0 431.0,284.0 432.0,284.0 433.0,284.0 434.0,284.0 435.0,284.0 436.0,284.0 437.0,284.0 438.0,284.0 439.0,284.0 440.0,284.0 441.0,284.0 442.0,284.0 443.0,284.0 444.0,284.0 445.0,284.0 446.0,284.0 447.0,284.0 448.0,284.0 449.0,284.0 450.0,284.0 451.0,284.0 452.0,285.0 453.0,285.0 454.0,285.0 455.0,285.0 456.0,285.0 457.0,285.0 458.0,285.0 459.0,286.0 460.0,286.0 461.0,286.0 462.0,286.0 463.0,287.0 464.0,287.0 465.0,287.0 466.0,287.0 467.0,287.0 468.0,288.0 469.0,288.0 470.0,288.0 471.0,288.0 472.0,288.0 473.0,289.0 474.0,289.0 475.0,289.0 476.0,289.0 477.0,289.0 478.0,289.0 479.0,289.0 480.0,289.0 481.0,289.0 482.0,290.0 483.0,290.0 484.0,290.0 485.0,291.0 486.0,291.0 487.0,290.0 488.0,291.0 489.0,291.0 490.0,291.0 491.0,291.0 492.0,291.0 493.0,291.0 494.0,292.0 495.0,292.0 496.0,292.0 497.0,292.0 498.0,293.0 499.0,293.0 500.0,293.0 501.0,293.0 502.0,294.0 503.0,294.0 504.0,294.0 505.0,294.0 506.0,295.0 507.0,295.0 508.0,295.0 509.0,295.0 510.0,296.0 511.0,296.0 512.0,296.0 513.0,296.0 514.0,296.0 515.0,296.0 516.0,296.0 517.0,296.0 518.0,296.0 519.0,297.0 520.0,297.0 521.0,297.0 522.0,297.0 523.0,297.0 524.0,297.0 525.0,297.0 526.0,298.0 527.0,297.0 528.0,297.0 529.0,297.0 530.0,297.0 531.0,297.0 532.0,297.0 533.0,297.0 534.0,297.0 535.0,297.0 536.0,297.0 537.0,297.0 538.0,297.0 539.0,297.0 540.0,297.0 541.0,297.0 542.0,297.0 543.0,297.0 544.0,297.0 545.0,297.0 546.0,298.0 547.0,298.0 548.0,297.0 549.0,298.0 550.0,297.0 551.0,297.0 552.0,298.0 553.0,297.0 554.0,298.0 555.0,297.0 556.0,298.0 557.0,297.0 558.0,297.0 559.0,298.0 560.0,298.0 561.0,298.0 562.0,297.0 563.0,297.0 564.0,297.0 565.0,298.0 566.0,297.0 567.0,297.0 568.0,297.0 569.0,297.0 570.0,297.0 571.0,297.0 572.0,297.0 573.0,297.0 574.0,297.0 575.0,297.0 576.0,297.0 577.0,297.0 578.0,297.0 579.0,297.0 580.0,297.0 581.0,297.0 582.0,297.0 583.0,296.0 584.0,296.0 585.0,296.0 586.0,296.0 587.0,296.0 588.0,296.0 589.0,296.0 590.0,296.0 591.0,296.0 592.0,296.0 593.0,296.0 594.0,296.0 595.0,295.0 596.0,295.0 597.0,295.0 598.0,295.0 599.0,295.0 600.0,295.0 601.0,294.0 602.0,294.0 603.0,294.0 604.0,294.0 605.0,294.0 606.0,294.0 607.0,293.0 608.0,293.0 609.0,293.0 610.0,293.0 611.0,293.0 612.0,292.0 613.0,292.0 614.0,292.0 615.0,292.0 616.0,292.0 617.0,291.0 618.0,291.0 619.0,291.0 620.0,290.0 621.0,290.0 622.0,290.0 623.0,290.0 624.0,290.0 625.0,289.0 626.0,289.0 627.0,289.0 628.0,288.0 629.0,288.0 630.0,288.0 631.0,288.0 632.0,287.0 633.0,287.0 634.0,287.0 635.0,286.0 636.0,286.0 637.0,285.0 638.0,285.0 639.0,285.0 640.0,284.0 641.0,284.0 642.0,284.0 643.0,283.0 644.0,283.0 645.0,282.0 646.0,282.0 647.0,281.0 648.0,281.0 649.0,281.0 650.0,281.0 651.0,281.0 652.0,281.0 653.0,280.0 654.0,280.0" fill="none" stroke="#00ffff" />
	<polyline points="55.0,5.0 655.0,5.0" fill="none" stroke="#6d6d6d" />
	<polyline points="55.0,305.0 655.0,305.0" fill="none" stroke="#6d6d6d" />
	<polyline points="55.0,305.0 55.0,310.0" fill="none" stroke="#6d6d6d" />
	<polyline points="205.0,305.0 205.0,310.0" fill="none" stroke="#6d6d6d" />
	<polyline points="355.0,305.0 355.0,310.0" fill="none" stroke="#6d6d6d" />
	<polyline points="505.0,305.0 505.0,310.0" fill="none" stroke="#6d6d6d" />
	<polyline points="655.0,305.0 655.0,310.0" fill="none" stroke="#6d6d6d" />
	<polyline points="55.0,5.0 55.0,305.0" fill="none" stroke="#6d6d6d" />
	<polyline points="655.0,5.0 655.0,305.0" fill="none" stroke="#6d6d6d" />
	<polyline points="50.0,5.0 55.0,5.0" fill="none" stroke="#6d6d6d" />
	<polyline points="50.0,80.0 55.0,80.0" fill="none" stroke="#6d6d6d" />
	<polyline points="50.0,155.0 55.0,155.0" fill="none" stroke="#6d6d6d" />
	<polyline points="50.0,230.0 55.0,230.0" fill="none" stroke="#6d6d6d" />
	<polyline points="50.0,305.0 55.0,305.0" fill="none" stroke="#6d6d6d" />
	<text x="55.0" y="323.0" fill="#6d6d6d" font-family="Arial" font-size="9pt" text-anchor="middle">1</text>
	<text x="205.0" y="323.0" fill="#6d6d6d" font-family="Arial" font-size="9pt" text-anchor="middle">150</text>
	<text x="355.0" y="323.0" fill="#6d6d6d" font-family="Arial" font-size="9pt" text-anchor="middle">300</text>
	<text x="505.0" y="323.0" fill="#6d6d6d" font-family="Arial" font-size="9pt" text-anchor="middle">450</text>
	<text x="655.0" y="323.0" fill="#6d6d6d" font-family="Arial" font-size="9pt" text-anchor="middle">600</text>
	<text x="45.0" y="9.0" fill="#6d6d6d" font-family="Arial" font-size="9pt" text-anchor="end">15.6</text>
	<text x="45.0" y="84.0" fill="#6d6d6d" font-family="Arial" font-size="9pt" text-anchor="end">12.4</text>
	<text x="45.0" y="159.0" fill="#6d6d6d" font-family="Arial" font-size="9pt" text-anchor="end">9.29</text>
	<text x="45.0" y="234.0" fill="#6d6d6d" font-family="Arial" font-size="9pt" text-anchor="end">6.13</text>
	<text x="45.0" y="309.0" fill="#6d6d6d" font-family="Arial" font-size="9pt" text-anchor="end">2.98</text>
</svg>
