<?xml version="1.0" encoding="UTF-8" standalone="no"?>
<!DOCTYPE svg PUBLIC "-//W3C//DTD SVG 1.1//EN" "http://www.w3.org/Graphics/SVG/1.1/DTD/svg11.dtd">
<svg xmlns="http://www.w3.org/2000/svg"  version="1.1" width="695.0" height="380.0" viewBox="-6.0 -12.0 689.0 368.0">
	<desc>LSD Plot - Sim_10c</desc>
	<polyline points="207.0,6.0 207.0,304.0" fill="none" stroke="#f0f0f0" />
	<polyline points="357.0,6.0 357.0,304.0" fill="none" stroke="#f0f0f0" />
	<polyline points="507.0,6.0 507.0,304.0" fill="none" stroke="#f0f0f0" />
	<polyline points="58.0,80.0 656.0,80.0" fill="none" stroke="#f0f0f0" />
	<polyline points="58.0,155.0 656.0,155.0" fill="none" stroke="#f0f0f0" />
	<polyline points="58.0,230.0 656.0,230.0" fill="none" stroke="#f0f0f0" />
	<text x="5.0" y="345.0" font-family="Arial" font-size="9pt">TB_Y_1</text>
	<text x="53.0" y="345.0" fill="#ff0000" font-family="Arial" font-size="9pt">TB_Y_2</text>
	<text x="101.0" y="345.0" fill="#008000" font-family="Arial" font-size="9pt">TB_Y_3</text>
	<text x="149.0" y="345.0" fill="#d0d000" font-family="Arial" font-size="9pt">TB_Y_4</text>
	<text x="197.0" y="345.0" fill="#fb46bc" font-family="Arial" font-size="9pt">TB_Y_5</text>
	<text x="245.0" y="345.0" fill="#0000ff" font-family="Arial" font-size="9pt">TB_Y_6</text>
	<text x="293.0" y="345.0" fill="#00bfff" font-family="Arial" font-size="9pt">TB_Y_7</text>
	<text x="341.0" y="345.0" fill="#4876ff" font-family="Arial" font-size="9pt">TB_Y_8</text>
	<text x="389.0" y="345.0" fill="#aeeeee" font-family="Arial" font-size="9pt">TB_Y_9</text>
	<text x="437.0" y="345.0" fill="#00ffff" font-family="Arial" font-size="9pt">TB_Y_10</text>
	<polyline points="57.0,205.0 58.0,204.0 59.0,204.0 60.0,202.0 61.0,202.0 62.0,202.0 63.0,202.0 64.0,203.0 65.0,203.0 66.0,203.0 67.0,202.0 68.0,201.0 69.0,202.0 70.0,201.0 71.0,199.0 72.0,197.0 73.0,199.0 74.0,201.0 75.0,196.0 76.0,197.0 77.0,199.0 78.0,191.0 79.0,196.0 80.0,198.0 81.0,199.0 82.0,203.0 83.0,201.0 84.0,202.0 85.0,193.0 86.0,197.0 87.0,200.0 88.0,193.0 89.0,192.0 90.0,207.0 91.0,206.0 92.0,196.0 93.0,200.0 94.0,211.0 95.0,210.0 96.0,208.0 97.0,204.0 98.0,204.0 99.0,211.0 100.0,205.0 101.0,204.0 102.0,205.0 103.0,208.0 104.0,210.0 105.0,205.0 106.0,207.0 107.0,203.0 108.0,206.0 109.0,209.0 110.0,202.0 111.0,203.0 112.0,201.0 113.0,198.0 114.0,203.0 115.0,194.0 116.0,199.0 117.0,206.0 118.0,213.0 119.0,211.0 120.0,204.0 121.0,202.0 122.0,198.0 123.0,201.0 124.0,211.0 125.0,206.0 126.0,203.0 127.0,200.0 128.0,198.0 129.0,198.0 130.0,197.0 131.0,205.0 132.0,192.0 133.0,196.0 134.0,199.0 135.0,198.0 136.0,200.0 137.0,205.0 138.0,211.0 139.0,207.0 140.0,207.0 141.0,207.0 142.0,211.0 143.0,215.0 144.0,227.0 145.0,222.0 146.0,222.0 147.0,216.0 148.0,216.0 149.0,220.0 150.0,222.0 151.0,209.0 152.0,218.0 153.0,216.0 154.0,224.0 155.0,216.0 156.0,225.0 157.0,225.0 158.0,228.0 159.0,220.0 160.0,214.0 161.0,223.0 162.0,225.0 163.0,225.0 164.0,227.0 165.0,226.0 166.0,228.0 167.0,228.0 168.0,226.0 169.0,228.0 170.0,232.0 171.0,229.0 172.0,227.0 173.0,230.0 174.0,223.0 175.0,222.0 176.0,219.0 177.0,226.0 178.0,219.0 179.0,220.0 180.0,222.0 181.0,215.0 182.0,214.0 183.0,208.0 184.0,211.0 185.0,211.0 186.0,206.0 187.0,210.0 188.0,206.0 189.0,212.0 190.0,211.0 191.0,208.0 192.0,199.0 193.0,203.0 194.0,203.0 195.0,205.0 196.0,201.0 197.0,200.0 198.0,196.0 199.0,192.0 200.0,200.0 201.0,194.0 202.0,197.0 203.0,184.0 204.0,181.0 205.0,191.0 206.0,194.0 207.0,194.0 208.0,197.0 209.0,186.0 210.0,191.0 211.0,188.0 212.0,194.0 213.0,192.0 214.0,198.0 215.0,197.0 216.0,201.0 217.0,204.0 218.0,212.0 219.0,204.0 220.0,205.0 221.0,206.0 222.0,199.0 223.0,213.0 224.0,217.0 225.0,209.0 226.0,215.0 227.0,212.0 228.0,215.0 229.0,209.0 230.0,219.0 231.0,214.0 232.0,212.0 233.0,214.0 234.0,212.0 235.0,214.0 236.0,213.0 237.0,216.0 238.0,213.0 239.0,213.0 240.0,216.0 241.0,214.0 242.0,214.0 243.0,213.0 244.0,216.0 245.0,215.0 246.0,214.0 247.0,212.0 248.0,214.0 249.0,212.0 250.0,211.0 251.0,214.0 252.0,216.0 253.0,218.0 254.0,218.0 255.0,221.0 256.0,217.0 257.0,219.0 258.0,220.0 259.0,216.0 260.0,221.0 261.0,214.0 262.0,221.0 263.0,213.0 264.0,214.0 265.0,214.0 266.0,207.0 267.0,204.0 268.0,208.0 269.0,202.0 270.0,200.0 271.0,207.0 272.0,211.0 273.0,209.0 274.0,208.0 275.0,210.0 276.0,209.0 277.0,203.0 278.0,214.0 279.0,209.0 280.0,210.0 281.0,218.0 282.0,212.0 283.0,202.0 284.0,208.0 285.0,206.0 286.0,209.0 287.0,209.0 288.0,215.0 289.0,213.0 290.0,210.0 291.0,225.0 292.0,222.0 293.0,217.0 294.0,215.0 295.0,216.0 296.0,221.0 297.0,222.0 298.0,218.0 299.0,219.0 300.0,222.0 301.0,222.0 302.0,222.0 303.0,213.0 304.0,226.0 305.0,232.0 306.0,224.0 307.0,226.0 308.0,233.0 309.0,221.0 310.0,231.0 311.0,233.0 312.0,228.0 313.0,234.0 314.0,226.0 315.0,231.0 316.0,230.0 317.0,234.0 318.0,236.0 319.0,237.0 320.0,239.0 321.0,237.0 322.0,237.0 323.0,239.0 324.0,240.0 325.0,241.0 326.0,240.0 327.0,236.0 328.0,236.0 329.0,239.0 330.0,237.0 331.0,238.0 332.0,239.0 333.0,235.0 334.0,238.0 335.0,234.0 336.0,230.0 337.0,232.0 338.0,231.0 339.0,226.0 340.0,225.0 341.0,223.0 342.0,220.0 343.0,229.0 344.0,229.0 345.0,226.0 346.0,228.0 347.0,224.0 348.0,229.0 349.0,226.0 350.0,230.0 351.0,229.0 352.0,234.0 353.0,233.0 354.0,232.0 355.0,238.0 356.0,231.0 357.0,235.0 358.0,240.0 359.0,235.0 360.0,233.0 361.0,241.0 362.0,240.0 363.0,239.0 364.0,237.0 365.0,237.0 366.0,237.0 367.0,236.0 368.0,240.0 369.0,237.0 370.0,236.0 371.0,238.0 372.0,237.0 373.0,237.0 374.0,237.0 375.0,236.0 376.0,237.0 377.0,234.0 378.0,235.0 379.0,234.0 380.0,237.0 381.0,237.0 382.0,234.0 383.0,236.0 384.0,235.0 385.0,235.0 386.0,233.0 387.0,233.0 388.0,231.0 389.0,235.0 390.0,234.0 391.0,234.0 392.0,231.0 393.0,230.0 394.0,232.0 395.0,227.0 396.0,232.0 397.0,229.0 398.0,228.0 399.0,232.0 400.0,229.0 401.0,232.0 402.0,228.0 403.0,228.0 404.0,229.0 405.0,229.0 406.0,231.0 407.0,227.0 408.0,232.0 409.0,229.0 410.0,228.0 411.0,231.0 412.0,226.0 413.0,226.0 414.0,227.0 415.0,231.0 416.0,225.0 417.0,228.0 418.0,226.0 419.0,227.0 420.0,226.0 421.0,224.0 422.0,223.0 423.0,227.0 424.0,226.0 425.0,224.0 426.0,223.0 427.0,218.0 428.0,226.0 429.0,224.0 430.0,230.0 431.0,227.0 432.0,226.0 433.0,223.0 434.0,223.0 435.0,219.0 436.0,222.0 437.0,217.0 438.0,222.0 439.0,226.0 440.0,221.0 441.0,221.0 442.0,223.0 443.0,223.0 444.0,220.0 445.0,221.0 446.0,222.0 447.0,221.0 448.0,218.0 449.0,218.0 450.0,216.0 451.0,218.0 452.0,212.0 453.0,213.0 454.0,208.0 455.0,207.0 456.0,210.0 457.0,200.0 458.0,200.0 459.0,201.0 460.0,196.0 461.0,194.0 462.0,196.0 463.0,200.0 464.0,192.0 465.0,201.0 466.0,198.0 467.0,191.0 468.0,198.0 469.0,201.0 470.0,191.0 471.0,207.0 472.0,192.0 473.0,194.0 474.0,200.0 475.0,189.0 476.0,198.0 477.0,196.0 478.0,198.0 479.0,212.0 480.0,200.0 481.0,203.0 482.0,210.0 483.0,211.0 484.0,204.0 485.0,206.0 486.0,220.0 487.0,219.0 488.0,217.0 489.0,214.0 490.0,220.0 491.0,220.0 492.0,224.0 493.0,218.0 494.0,219.0 495.0,226.0 496.0,222.0 497.0,227.0 498.0,226.0 499.0,221.0 500.0,223.0 501.0,220.0 502.0,228.0 503.0,223.0 504.0,219.0 505.0,223.0 506.0,226.0 507.0,225.0 508.0,226.0 509.0,227.0 510.0,222.0 511.0,222.0 512.0,223.0 513.0,223.0 514.0,222.0 515.0,219.0 516.0,224.0 517.0,217.0 518.0,213.0 519.0,212.0 520.0,215.0 521.0,225.0 522.0,215.0 523.0,216.0 524.0,221.0 525.0,217.0 526.0,224.0 527.0,224.0 528.0,222.0 529.0,220.0 530.0,221.0 531.0,224.0 532.0,219.0 533.0,227.0 534.0,224.0 535.0,223.0 536.0,226.0 537.0,220.0 538.0,218.0 539.0,223.0 540.0,227.0 541.0,221.0 542.0,220.0 543.0,219.0 544.0,221.0 545.0,223.0 546.0,220.0 547.0,221.0 548.0,216.0 549.0,216.0 550.0,218.0 551.0,215.0 552.0,211.0 553.0,217.0 554.0,221.0 555.0,214.0 556.0,212.0 557.0,210.0 558.0,210.0 559.0,206.0 560.0,209.0 561.0,208.0 562.0,210.0 563.0,208.0 564.0,208.0 565.0,215.0 566.0,208.0 567.0,203.0 568.0,210.0 569.0,208.0 570.0,209.0 571.0,214.0 572.0,210.0 573.0,207.0 574.0,215.0 575.0,212.0 576.0,214.0 577.0,206.0 578.0,198.0 579.0,219.0 580.0,198.0 581.0,207.0 582.0,207.0 583.0,208.0 584.0,200.0 585.0,202.0 586.0,199.0 587.0,202.0 588.0,208.0 589.0,203.0 590.0,203.0 591.0,199.0 592.0,197.0 593.0,198.0 594.0,198.0 595.0,200.0 596.0,192.0 597.0,200.0 598.0,199.0 599.0,199.0 600.0,194.0 601.0,199.0 602.0,197.0 603.0,202.0 604.0,196.0 605.0,201.0 606.0,202.0 607.0,202.0 608.0,204.0 609.0,202.0 610.0,197.0 611.0,203.0 612.0,202.0 613.0,204.0 614.0,206.0 615.0,203.0 616.0,205.0 617.0,206.0 618.0,202.0 619.0,207.0 620.0,210.0 621.0,209.0 622.0,206.0 623.0,207.0 624.0,209.0 625.0,213.0 626.0,211.0 627.0,210.0 628.0,213.0 629.0,214.0 630.0,215.0 631.0,216.0 632.0,218.0 633.0,211.0 634.0,215.0 635.0,215.0 636.0,214.0 637.0,214.0 638.0,216.0 639.0,216.0 640.0,219.0 641.0,211.0 642.0,212.0 643.0,212.0 644.0,212.0 645.0,210.0 646.0,212.0 647.0,206.0 648.0,205.0 649.0,206.0 650.0,208.0 651.0,204.0 652.0,199.0 653.0,200.0 654.0,196.0 655.0,197.0 656.0,196.0" fill="none" stroke="#000000" />
	<polyline points="57.0,207.0 58.0,208.0 59.0,209.0 60.0,210.0 61.0,208.0 62.0,209.0 63.0,210.0 64.0,209.0 65.0,209.0 66.0,211.0 67.0,210.0 68.0,211.0 69.0,211.0 70.0,212.0 71.0,212.0 72.0,216.0 73.0,219.0 74.0,217.0 75.0,221.0 76.0,217.0 77.0,220.0 78.0,224.0 79.0,222.0 80.0,220.0 81.0,218.0 82.0,214.0 83.0,215.0 84.0,215.0 85.0,218.0 86.0,220.0 87.0,214.0 88.0,216.0 89.0,215.0 90.0,216.0 91.0,206.0 92.0,199.0 93.0,202.0 94.0,206.0 95.0,203.0 96.0,202.0 97.0,197.0 98.0,192.0 99.0,197.0 100.0,204.0 101.0,206.0 102.0,204.0 103.0,195.0 104.0,194.0 105.0,200.0 106.0,203.0 107.0,201.0 108.0,206.0 109.0,199.0 110.0,198.0 111.0,205.0 112.0,205.0 113.0,206.0 114.0,207.0 115.0,212.0 116.0,212.0 117.0,206.0 118.0,199.0 119.0,200.0 120.0,193.0 121.0,200.0 122.0,199.0 123.0,201.0 124.0,217.0 125.0,211.0 126.0,213.0 127.0,209.0 128.0,218.0 129.0,206.0 130.0,212.0 131.0,206.0 132.0,197.0 133.0,239.0 134.0,218.0 135.0,223.0 136.0,217.0 137.0,224.0 138.0,217.0 139.0,225.0 140.0,224.0 141.0,224.0 142.0,228.0 143.0,229.0 144.0,224.0 145.0,228.0 146.0,228.0 147.0,232.0 148.0,234.0 149.0,233.0 150.0,234.0 151.0,236.0 152.0,233.0 153.0,228.0 154.0,231.0 155.0,230.0 156.0,227.0 157.0,233.0 158.0,226.0 159.0,224.0 160.0,235.0 161.0,232.0 162.0,224.0 163.0,233.0 164.0,229.0 165.0,229.0 166.0,230.0 167.0,231.0 168.0,228.0 169.0,230.0 170.0,223.0 171.0,220.0 172.0,221.0 173.0,217.0 174.0,219.0 175.0,219.0 176.0,210.0 177.0,208.0 178.0,214.0 179.0,207.0 180.0,211.0 181.0,209.0 182.0,202.0 183.0,203.0 184.0,209.0 185.0,199.0 186.0,197.0 187.0,199.0 188.0,206.0 189.0,202.0 190.0,196.0 191.0,212.0 192.0,202.0 193.0,204.0 194.0,197.0 195.0,211.0 196.0,200.0 197.0,208.0 198.0,216.0 199.0,201.0 200.0,208.0 201.0,209.0 202.0,210.0 203.0,209.0 204.0,209.0 205.0,220.0 206.0,210.0 207.0,224.0 208.0,218.0 209.0,221.0 210.0,222.0 211.0,219.0 212.0,216.0 213.0,215.0 214.0,210.0 215.0,212.0 216.0,224.0 217.0,212.0 218.0,210.0 219.0,214.0 220.0,214.0 221.0,215.0 222.0,220.0 223.0,214.0 224.0,215.0 225.0,211.0 226.0,207.0 227.0,217.0 228.0,216.0 229.0,208.0 230.0,214.0 231.0,204.0 232.0,218.0 233.0,216.0 234.0,218.0 235.0,216.0 236.0,217.0 237.0,219.0 238.0,215.0 239.0,218.0 240.0,220.0 241.0,214.0 242.0,207.0 243.0,212.0 244.0,209.0 245.0,205.0 246.0,216.0 247.0,207.0 248.0,212.0 249.0,204.0 250.0,202.0 251.0,208.0 252.0,203.0 253.0,204.0 254.0,203.0 255.0,195.0 256.0,196.0 257.0,207.0 258.0,200.0 259.0,203.0 260.0,205.0 261.0,194.0 262.0,191.0 263.0,200.0 264.0,193.0 265.0,192.0 266.0,204.0 267.0,197.0 268.0,199.0 269.0,208.0 270.0,198.0 271.0,191.0 272.0,197.0 273.0,203.0 274.0,191.0 275.0,186.0 276.0,184.0 277.0,187.0 278.0,172.0 279.0,180.0 280.0,176.0 281.0,158.0 282.0,171.0 283.0,168.0 284.0,172.0 285.0,169.0 286.0,184.0 287.0,172.0 288.0,160.0 289.0,179.0 290.0,168.0 291.0,161.0 292.0,177.0 293.0,158.0 294.0,173.0 295.0,176.0 296.0,164.0 297.0,168.0 298.0,161.0 299.0,174.0 300.0,178.0 301.0,158.0 302.0,161.0 303.0,178.0 304.0,168.0 305.0,173.0 306.0,156.0 307.0,168.0 308.0,155.0 309.0,151.0 310.0,165.0 311.0,180.0 312.0,148.0 313.0,159.0 314.0,174.0 315.0,148.0 316.0,180.0 317.0,152.0 318.0,168.0 319.0,153.0 320.0,148.0 321.0,140.0 322.0,149.0 323.0,136.0 324.0,143.0 325.0,139.0 326.0,166.0 327.0,155.0 328.0,160.0 329.0,165.0 330.0,179.0 331.0,200.0 332.0,219.0 333.0,217.0 334.0,242.0 335.0,242.0 336.0,249.0 337.0,253.0 338.0,254.0 339.0,255.0 340.0,261.0 341.0,260.0 342.0,257.0 343.0,256.0 344.0,254.0 345.0,255.0 346.0,257.0 347.0,254.0 348.0,256.0 349.0,253.0 350.0,252.0 351.0,252.0 352.0,252.0 353.0,253.0 354.0,253.0 355.0,253.0 356.0,253.0 357.0,252.0 358.0,252.0 359.0,251.0 360.0,253.0 361.0,252.0 362.0,252.0 363.0,251.0 364.0,250.0 365.0,251.0 366.0,251.0 367.0,251.0 368.0,251.0 369.0,251.0 370.0,250.0 371.0,249.0 372.0,250.0 373.0,251.0 374.0,250.0 375.0,250.0 376.0,249.0 377.0,249.0 378.0,251.0 379.0,249.0 380.0,249.0 381.0,250.0 382.0,247.0 383.0,248.0 384.0,247.0 385.0,248.0 386.0,247.0 387.0,248.0 388.0,245.0 389.0,248.0 390.0,245.0 391.0,248.0 392.0,244.0 393.0,245.0 394.0,247.0 395.0,245.0 396.0,246.0 397.0,246.0 398.0,246.0 399.0,244.0 400.0,244.0 401.0,246.0 402.0,245.0 403.0,245.0 404.0,243.0 405.0,246.0 406.0,244.0 407.0,244.0 408.0,243.0 409.0,245.0 410.0,243.0 411.0,243.0 412.0,243.0 413.0,244.0 414.0,242.0 415.0,245.0 416.0,244.0 417.0,243.0 418.0,244.0 419.0,243.0 420.0,243.0 421.0,243.0 422.0,242.0 423.0,243.0 424.0,242.0 425.0,242.0 426.0,241.0 427.0,242.0 428.0,241.0 429.0,241.0 430.0,242.0 431.0,241.0 432.0,241.0 433.0,240.0 434.0,241.0 435.0,239.0 436.0,241.0 437.0,240.0 438.0,240.0 439.0,240.0 440.0,239.0 441.0,239.0 442.0,238.0 443.0,239.0 444.0,239.0 445.0,240.0 446.0,238.0 447.0,240.0 448.0,238.0 449.0,238.0 450.0,239.0 451.0,239.0 452.0,239.0 453.0,238.0 454.0,237.0 455.0,239.0 456.0,237.0 457.0,236.0 458.0,237.0 459.0,237.0 460.0,235.0 461.0,237.0 462.0,236.0 463.0,237.0 464.0,235.0 465.0,236.0 466.0,235.0 467.0,235.0 468.0,233.0 469.0,234.0 470.0,235.0 471.0,234.0 472.0,233.0 473.0,233.0 474.0,234.0 475.0,231.0 476.0,233.0 477.0,232.0 478.0,230.0 479.0,233.0 480.0,231.0 481.0,230.0 482.0,229.0 483.0,227.0 484.0,230.0 485.0,231.0 486.0,229.0 487.0,229.0 488.0,226.0 489.0,226.0 490.0,225.0 491.0,225.0 492.0,221.0 493.0,219.0 494.0,217.0 495.0,218.0 496.0,218.0 497.0,218.0 498.0,215.0 499.0,219.0 500.0,214.0 501.0,204.0 502.0,217.0 503.0,225.0 504.0,216.0 505.0,213.0 506.0,209.0 507.0,217.0 508.0,212.0 509.0,202.0 510.0,223.0 511.0,212.0 512.0,223.0 513.0,214.0 514.0,222.0 515.0,224.0 516.0,220.0 517.0,216.0 518.0,221.0 519.0,222.0 520.0,222.0 521.0,220.0 522.0,226.0 523.0,222.0 524.0,217.0 525.0,218.0 526.0,223.0 527.0,227.0 528.0,219.0 529.0,221.0 530.0,220.0 531.0,224.0 532.0,219.0 533.0,217.0 534.0,216.0 535.0,219.0 536.0,216.0 537.0,216.0 538.0,215.0 539.0,222.0 540.0,214.0 541.0,213.0 542.0,214.0 543.0,213.0 544.0,208.0 545.0,216.0 546.0,208.0 547.0,215.0 548.0,206.0 549.0,213.0 550.0,214.0 551.0,213.0 552.0,214.0 553.0,216.0 554.0,211.0 555.0,213.0 556.0,209.0 557.0,215.0 558.0,206.0 559.0,207.0 560.0,216.0 561.0,216.0 562.0,214.0 563.0,221.0 564.0,214.0 565.0,216.0 566.0,222.0 567.0,220.0 568.0,221.0 569.0,223.0 570.0,211.0 571.0,214.0 572.0,230.0 573.0,222.0 574.0,225.0 575.0,220.0 576.0,225.0 577.0,225.0 578.0,222.0 579.0,224.0 580.0,223.0 581.0,227.0 582.0,223.0 583.0,224.0 584.0,222.0 585.0,226.0 586.0,228.0 587.0,227.0 588.0,226.0 589.0,226.0 590.0,224.0 591.0,227.0 592.0,224.0 593.0,230.0 594.0,219.0 595.0,220.0 596.0,230.0 597.0,225.0 598.0,227.0 599.0,232.0 600.0,227.0 601.0,226.0 602.0,229.0 603.0,230.0 604.0,227.0 605.0,228.0 606.0,225.0 607.0,227.0 608.0,225.0 609.0,226.0 610.0,228.0 611.0,227.0 612.0,223.0 613.0,226.0 614.0,229.0 615.0,226.0 616.0,226.0 617.0,226.0 618.0,228.0 619.0,226.0 620.0,228.0 621.0,227.0 622.0,224.0 623.0,225.0 624.0,228.0 625.0,229.0 626.0,225.0 627.0,225.0 628.0,226.0 629.0,219.0 630.0,220.0 631.0,234.0 632.0,224.0 633.0,224.0 634.0,224.0 635.0,225.0 636.0,225.0 637.0,223.0 638.0,224.0 639.0,225.0 640.0,225.0 641.0,225.0 642.0,222.0 643.0,223.0 644.0,222.0 645.0,221.0 646.0,228.0 647.0,221.0 648.0,226.0 649.0,222.0 650.0,223.0 651.0,223.0 652.0,218.0 653.0,218.0 654.0,221.0 655.0,221.0 656.0,219.0" fill="none" stroke="#ff0000" />
	<polyline points="57.0,205.0 58.0,206.0 59.0,205.0 60.0,206.0 61.0,206.0 62.0,204.0 63.0,205.0 64.0,207.0 65.0,206.0 66.0,207.0 67.0,205.0 68.0,208.0 69.0,209.0 70.0,210.0 71.0,211.0 72.0,210.0 73.0,207.0 74.0,206.0 75.0,207.0 76.0,202.0 77.0,202.0 78.0,201.0 79.0,199.0 80.0,196.0 81.0,193.0 82.0,194.0 83.0,199.0 84.0,195.0 85.0,199.0 86.0,201.0 87.0,196.0 88.0,189.0 89.0,189.0 90.0,191.0 91.0,183.0 92.0,187.0 93.0,190.0 94.0,189.0 95.0,187.0 96.0,190.0 97.0,191.0 98.0,191.0 99.0,193.0 100.0,190.0 101.0,195.0 102.0,194.0 103.0,191.0 104.0,197.0 105.0,197.0 106.0,195.0 107.0,202.0 108.0,206.0 109.0,201.0 110.0,200.0 111.0,208.0 112.0,207.0 113.0,210.0 114.0,213.0 115.0,210.0 116.0,216.0 117.0,204.0 118.0,206.0 119.0,214.0 120.0,211.0 121.0,207.0 122.0,209.0 123.0,212.0 124.0,211.0 125.0,208.0 126.0,201.0 127.0,209.0 128.0,214.0 129.0,213.0 130.0,216.0 131.0,211.0 132.0,201.0 133.0,201.0 134.0,202.0 135.0,194.0 136.0,199.0 137.0,191.0 138.0,187.0 139.0,187.0 140.0,187.0 141.0,180.0 142.0,176.0 143.0,170.0 144.0,161.0 145.0,159.0 146.0,161.0 147.0,153.0 148.0,149.0 149.0,136.0 150.0,143.0 151.0,145.0 152.0,131.0 153.0,126.0 154.0,127.0 155.0,127.0 156.0,120.0 157.0,128.0 158.0,114.0 159.0,123.0 160.0,118.0 161.0,109.0 162.0,122.0 163.0,112.0 164.0,119.0 165.0,106.0 166.0,112.0 167.0,96.0 168.0,105.0 169.0,90.0 170.0,99.0 171.0,87.0 172.0,103.0 173.0,81.0 174.0,96.0 175.0,92.0 176.0,102.0 177.0,100.0 178.0,109.0 179.0,97.0 180.0,116.0 181.0,107.0 182.0,116.0 183.0,116.0 184.0,115.0 185.0,126.0 186.0,127.0 187.0,125.0 188.0,132.0 189.0,123.0 190.0,134.0 191.0,126.0 192.0,134.0 193.0,123.0 194.0,131.0 195.0,124.0 196.0,129.0 197.0,117.0 198.0,133.0 199.0,135.0 200.0,121.0 201.0,137.0 202.0,116.0 203.0,131.0 204.0,140.0 205.0,125.0 206.0,135.0 207.0,120.0 208.0,131.0 209.0,119.0 210.0,128.0 211.0,136.0 212.0,132.0 213.0,138.0 214.0,154.0 215.0,149.0 216.0,176.0 217.0,178.0 218.0,193.0 219.0,195.0 220.0,221.0 221.0,246.0 222.0,264.0 223.0,278.0 224.0,304.0 225.0,289.0 226.0,304.0 227.0,294.0 228.0,287.0 229.0,277.0 230.0,278.0 231.0,276.0 232.0,274.0 233.0,272.0 234.0,274.0 235.0,271.0 236.0,271.0 237.0,273.0 238.0,272.0 239.0,270.0 240.0,271.0 241.0,269.0 242.0,272.0 243.0,269.0 244.0,270.0 245.0,268.0 246.0,269.0 247.0,268.0 248.0,269.0 249.0,269.0 250.0,266.0 251.0,266.0 252.0,265.0 253.0,267.0 254.0,265.0 255.0,266.0 256.0,265.0 257.0,265.0 258.0,265.0 259.0,261.0 260.0,264.0 261.0,262.0 262.0,264.0 263.0,261.0 264.0,261.0 265.0,260.0 266.0,262.0 267.0,261.0 268.0,263.0 269.0,263.0 270.0,264.0 271.0,264.0 272.0,263.0 273.0,262.0 274.0,263.0 275.0,263.0 276.0,263.0 277.0,262.0 278.0,264.0 279.0,261.0 280.0,264.0 281.0,261.0 282.0,263.0 283.0,259.0 284.0,263.0 285.0,259.0 286.0,261.0 287.0,258.0 288.0,260.0 289.0,258.0 290.0,260.0 291.0,258.0 292.0,258.0 293.0,257.0 294.0,259.0 295.0,257.0 296.0,258.0 297.0,256.0 298.0,259.0 299.0,257.0 300.0,257.0 301.0,256.0 302.0,256.0 303.0,254.0 304.0,257.0 305.0,256.0 306.0,258.0 307.0,256.0 308.0,257.0 309.0,254.0 310.0,257.0 311.0,254.0 312.0,256.0 313.0,255.0 314.0,254.0 315.0,256.0 316.0,254.0 317.0,255.0 318.0,254.0 319.0,255.0 320.0,254.0 321.0,255.0 322.0,254.0 323.0,253.0 324.0,253.0 325.0,254.0 326.0,251.0 327.0,251.0 328.0,252.0 329.0,254.0 330.0,252.0 331.0,254.0 332.0,251.0 333.0,250.0 334.0,253.0 335.0,250.0 336.0,251.0 337.0,250.0 338.0,249.0 339.0,249.0 340.0,250.0 341.0,249.0 342.0,249.0 343.0,248.0 344.0,246.0 345.0,247.0 346.0,248.0 347.0,247.0 348.0,249.0 349.0,247.0 350.0,246.0 351.0,247.0 352.0,247.0 353.0,246.0 354.0,247.0 355.0,247.0 356.0,248.0 357.0,247.0 358.0,248.0 359.0,246.0 360.0,247.0 361.0,248.0 362.0,247.0 363.0,248.0 364.0,248.0 365.0,248.0 366.0,247.0 367.0,247.0 368.0,249.0 369.0,248.0 370.0,247.0 371.0,248.0 372.0,247.0 373.0,248.0 374.0,247.0 375.0,246.0 376.0,245.0 377.0,244.0 378.0,246.0 379.0,246.0 380.0,245.0 381.0,247.0 382.0,245.0 383.0,246.0 384.0,243.0 385.0,243.0 386.0,243.0 387.0,244.0 388.0,241.0 389.0,243.0 390.0,241.0 391.0,241.0 392.0,241.0 393.0,241.0 394.0,241.0 395.0,241.0 396.0,243.0 397.0,241.0 398.0,241.0 399.0,240.0 400.0,239.0 401.0,241.0 402.0,240.0 403.0,243.0 404.0,239.0 405.0,239.0 406.0,240.0 407.0,241.0 408.0,240.0 409.0,241.0 410.0,238.0 411.0,237.0 412.0,238.0 413.0,239.0 414.0,238.0 415.0,240.0 416.0,237.0 417.0,237.0 418.0,239.0 419.0,236.0 420.0,236.0 421.0,238.0 422.0,239.0 423.0,237.0 424.0,235.0 425.0,237.0 426.0,237.0 427.0,236.0 428.0,236.0 429.0,233.0 430.0,232.0 431.0,239.0 432.0,236.0 433.0,237.0 434.0,235.0 435.0,236.0 436.0,237.0 437.0,234.0 438.0,233.0 439.0,234.0 440.0,232.0 441.0,233.0 442.0,233.0 443.0,232.0 444.0,230.0 445.0,234.0 446.0,232.0 447.0,235.0 448.0,231.0 449.0,230.0 450.0,230.0 451.0,231.0 452.0,229.0 453.0,227.0 454.0,231.0 455.0,228.0 456.0,226.0 457.0,225.0 458.0,223.0 459.0,224.0 460.0,220.0 461.0,217.0 462.0,217.0 463.0,220.0 464.0,217.0 465.0,219.0 466.0,215.0 467.0,212.0 468.0,216.0 469.0,210.0 470.0,214.0 471.0,204.0 472.0,206.0 473.0,202.0 474.0,201.0 475.0,200.0 476.0,197.0 477.0,199.0 478.0,199.0 479.0,192.0 480.0,191.0 481.0,197.0 482.0,201.0 483.0,196.0 484.0,193.0 485.0,184.0 486.0,187.0 487.0,185.0 488.0,193.0 489.0,204.0 490.0,192.0 491.0,187.0 492.0,196.0 493.0,186.0 494.0,191.0 495.0,189.0 496.0,194.0 497.0,171.0 498.0,193.0 499.0,189.0 500.0,192.0 501.0,190.0 502.0,186.0 503.0,187.0 504.0,183.0 505.0,199.0 506.0,179.0 507.0,192.0 508.0,193.0 509.0,196.0 510.0,196.0 511.0,201.0 512.0,198.0 513.0,203.0 514.0,199.0 515.0,205.0 516.0,202.0 517.0,201.0 518.0,213.0 519.0,204.0 520.0,202.0 521.0,201.0 522.0,220.0 523.0,211.0 524.0,203.0 525.0,219.0 526.0,212.0 527.0,229.0 528.0,218.0 529.0,214.0 530.0,223.0 531.0,221.0 532.0,224.0 533.0,221.0 534.0,220.0 535.0,216.0 536.0,220.0 537.0,223.0 538.0,215.0 539.0,220.0 540.0,219.0 541.0,220.0 542.0,216.0 543.0,219.0 544.0,224.0 545.0,216.0 546.0,223.0 547.0,218.0 548.0,225.0 549.0,218.0 550.0,226.0 551.0,224.0 552.0,227.0 553.0,222.0 554.0,226.0 555.0,222.0 556.0,231.0 557.0,226.0 558.0,229.0 559.0,228.0 560.0,233.0 561.0,230.0 562.0,230.0 563.0,232.0 564.0,230.0 565.0,229.0 566.0,229.0 567.0,229.0 568.0,230.0 569.0,230.0 570.0,231.0 571.0,231.0 572.0,231.0 573.0,229.0 574.0,231.0 575.0,231.0 576.0,229.0 577.0,229.0 578.0,224.0 579.0,222.0 580.0,226.0 581.0,236.0 582.0,227.0 583.0,226.0 584.0,229.0 585.0,230.0 586.0,227.0 587.0,227.0 588.0,229.0 589.0,229.0 590.0,227.0 591.0,233.0 592.0,225.0 593.0,232.0 594.0,232.0 595.0,230.0 596.0,231.0 597.0,232.0 598.0,232.0 599.0,233.0 600.0,235.0 601.0,234.0 602.0,231.0 603.0,233.0 604.0,233.0 605.0,233.0 606.0,231.0 607.0,232.0 608.0,232.0 609.0,234.0 610.0,233.0 611.0,232.0 612.0,234.0 613.0,233.0 614.0,234.0 615.0,233.0 616.0,231.0 617.0,232.0 618.0,231.0 619.0,233.0 620.0,233.0 621.0,232.0 622.0,232.0 623.0,234.0 624.0,231.0 625.0,232.0 626.0,233.0 627.0,232.0 628.0,233.0 629.0,231.0 630.0,232.0 631.0,232.0 632.0,231.0 633.0,229.0 634.0,232.0 635.0,227.0 636.0,226.0 637.0,234.0 638.0,231.0 639.0,229.0 640.0,231.0 641.0,228.0 642.0,231.0 643.0,228.0 644.0,231.0 645.0,227.0 646.0,232.0 647.0,227.0 648.0,229.0 649.0,229.0 650.0,230.0 651.0,227.0 652.0,229.0 653.0,227.0 654.0,227.0 655.0,226.0 656.0,225.0" fill="none" stroke="#008000" />
	<polyline points="57.0,206.0 58.0,206.0 59.0,207.0 60.0,207.0 61.0,206.0 62.0,206.0 63.0,206.0 64.0,205.0 65.0,204.0 66.0,204.0 67.0,204.0 68.0,202.0 69.0,202.0 70.0,200.0 71.0,202.0 72.0,208.0 73.0,206.0 74.0,204.0 75.0,204.0 76.0,205.0 77.0,212.0 78.0,222.0 79.0,222.0 80.0,216.0 81.0,218.0 82.0,218.0 83.0,215.0 84.0,207.0 85.0,215.0 86.0,216.0 87.0,211.0 88.0,219.0 89.0,205.0 90.0,207.0 91.0,217.0 92.0,212.0 93.0,209.0 94.0,202.0 95.0,208.0 96.0,210.0 97.0,207.0 98.0,219.0 99.0,214.0 100.0,212.0 101.0,211.0 102.0,213.0 103.0,212.0 104.0,205.0 105.0,215.0 106.0,207.0 107.0,209.0 108.0,204.0 109.0,203.0 110.0,207.0 111.0,205.0 112.0,207.0 113.0,214.0 114.0,212.0 115.0,218.0 116.0,210.0 117.0,218.0 118.0,215.0 119.0,219.0 120.0,226.0 121.0,219.0 122.0,211.0 123.0,215.0 124.0,207.0 125.0,218.0 126.0,219.0 127.0,224.0 128.0,220.0 129.0,217.0 130.0,211.0 131.0,212.0 132.0,224.0 133.0,210.0 134.0,208.0 135.0,210.0 136.0,207.0 137.0,213.0 138.0,192.0 139.0,206.0 140.0,208.0 141.0,205.0 142.0,199.0 143.0,205.0 144.0,201.0 145.0,206.0 146.0,190.0 147.0,189.0 148.0,187.0 149.0,206.0 150.0,188.0 151.0,212.0 152.0,207.0 153.0,212.0 154.0,204.0 155.0,208.0 156.0,203.0 157.0,217.0 158.0,206.0 159.0,202.0 160.0,210.0 161.0,209.0 162.0,204.0 163.0,194.0 164.0,202.0 165.0,212.0 166.0,197.0 167.0,208.0 168.0,208.0 169.0,214.0 170.0,211.0 171.0,213.0 172.0,213.0 173.0,205.0 174.0,222.0 175.0,219.0 176.0,214.0 177.0,204.0 178.0,208.0 179.0,214.0 180.0,201.0 181.0,217.0 182.0,211.0 183.0,217.0 184.0,212.0 185.0,212.0 186.0,214.0 187.0,209.0 188.0,214.0 189.0,218.0 190.0,205.0 191.0,210.0 192.0,214.0 193.0,205.0 194.0,223.0 195.0,212.0 196.0,210.0 197.0,203.0 198.0,210.0 199.0,219.0 200.0,206.0 201.0,201.0 202.0,212.0 203.0,202.0 204.0,215.0 205.0,198.0 206.0,202.0 207.0,204.0 208.0,201.0 209.0,211.0 210.0,197.0 211.0,194.0 212.0,187.0 213.0,201.0 214.0,183.0 215.0,168.0 216.0,169.0 217.0,141.0 218.0,109.0 219.0,146.0 220.0,91.0 221.0,89.0 222.0,61.0 223.0,35.0 224.0,7.0 225.0,66.0 226.0,33.0 227.0,56.0 228.0,54.0 229.0,54.0 230.0,56.0 231.0,66.0 232.0,52.0 233.0,76.0 234.0,65.0 235.0,69.0 236.0,81.0 237.0,67.0 238.0,68.0 239.0,81.0 240.0,65.0 241.0,79.0 242.0,71.0 243.0,81.0 244.0,56.0 245.0,82.0 246.0,74.0 247.0,80.0 248.0,78.0 249.0,85.0 250.0,85.0 251.0,80.0 252.0,89.0 253.0,75.0 254.0,93.0 255.0,89.0 256.0,81.0 257.0,93.0 258.0,85.0 259.0,93.0 260.0,73.0 261.0,105.0 262.0,73.0 263.0,85.0 264.0,99.0 265.0,94.0 266.0,88.0 267.0,89.0 268.0,99.0 269.0,90.0 270.0,95.0 271.0,104.0 272.0,113.0 273.0,102.0 274.0,105.0 275.0,115.0 276.0,118.0 277.0,118.0 278.0,111.0 279.0,114.0 280.0,101.0 281.0,127.0 282.0,110.0 283.0,139.0 284.0,106.0 285.0,129.0 286.0,114.0 287.0,144.0 288.0,125.0 289.0,133.0 290.0,120.0 291.0,144.0 292.0,133.0 293.0,137.0 294.0,133.0 295.0,143.0 296.0,134.0 297.0,138.0 298.0,139.0 299.0,140.0 300.0,147.0 301.0,143.0 302.0,144.0 303.0,130.0 304.0,149.0 305.0,138.0 306.0,152.0 307.0,156.0 308.0,158.0 309.0,135.0 310.0,150.0 311.0,139.0 312.0,157.0 313.0,148.0 314.0,149.0 315.0,150.0 316.0,145.0 317.0,144.0 318.0,148.0 319.0,167.0 320.0,155.0 321.0,153.0 322.0,150.0 323.0,162.0 324.0,147.0 325.0,153.0 326.0,147.0 327.0,153.0 328.0,157.0 329.0,150.0 330.0,162.0 331.0,144.0 332.0,151.0 333.0,161.0 334.0,140.0 335.0,163.0 336.0,143.0 337.0,142.0 338.0,148.0 339.0,167.0 340.0,146.0 341.0,142.0 342.0,138.0 343.0,155.0 344.0,166.0 345.0,156.0 346.0,142.0 347.0,154.0 348.0,155.0 349.0,161.0 350.0,160.0 351.0,154.0 352.0,146.0 353.0,156.0 354.0,158.0 355.0,139.0 356.0,164.0 357.0,158.0 358.0,173.0 359.0,171.0 360.0,155.0 361.0,155.0 362.0,170.0 363.0,169.0 364.0,160.0 365.0,181.0 366.0,170.0 367.0,157.0 368.0,179.0 369.0,164.0 370.0,174.0 371.0,180.0 372.0,163.0 373.0,176.0 374.0,166.0 375.0,180.0 376.0,167.0 377.0,185.0 378.0,177.0 379.0,173.0 380.0,176.0 381.0,174.0 382.0,177.0 383.0,169.0 384.0,175.0 385.0,180.0 386.0,175.0 387.0,174.0 388.0,176.0 389.0,187.0 390.0,162.0 391.0,182.0 392.0,171.0 393.0,175.0 394.0,170.0 395.0,180.0 396.0,182.0 397.0,169.0 398.0,176.0 399.0,164.0 400.0,185.0 401.0,170.0 402.0,181.0 403.0,171.0 404.0,187.0 405.0,176.0 406.0,187.0 407.0,172.0 408.0,199.0 409.0,172.0 410.0,191.0 411.0,171.0 412.0,192.0 413.0,176.0 414.0,185.0 415.0,178.0 416.0,194.0 417.0,177.0 418.0,187.0 419.0,182.0 420.0,187.0 421.0,172.0 422.0,180.0 423.0,178.0 424.0,179.0 425.0,186.0 426.0,179.0 427.0,199.0 428.0,171.0 429.0,180.0 430.0,181.0 431.0,185.0 432.0,186.0 433.0,182.0 434.0,175.0 435.0,182.0 436.0,179.0 437.0,179.0 438.0,184.0 439.0,191.0 440.0,174.0 441.0,190.0 442.0,181.0 443.0,179.0 444.0,170.0 445.0,188.0 446.0,173.0 447.0,184.0 448.0,190.0 449.0,177.0 450.0,190.0 451.0,179.0 452.0,188.0 453.0,188.0 454.0,184.0 455.0,184.0 456.0,182.0 457.0,189.0 458.0,174.0 459.0,191.0 460.0,173.0 461.0,182.0 462.0,180.0 463.0,196.0 464.0,192.0 465.0,192.0 466.0,185.0 467.0,192.0 468.0,177.0 469.0,183.0 470.0,185.0 471.0,181.0 472.0,196.0 473.0,180.0 474.0,182.0 475.0,192.0 476.0,192.0 477.0,186.0 478.0,191.0 479.0,186.0 480.0,181.0 481.0,184.0 482.0,182.0 483.0,195.0 484.0,197.0 485.0,187.0 486.0,186.0 487.0,178.0 488.0,204.0 489.0,188.0 490.0,191.0 491.0,185.0 492.0,193.0 493.0,185.0 494.0,199.0 495.0,205.0 496.0,185.0 497.0,190.0 498.0,184.0 499.0,178.0 500.0,191.0 501.0,193.0 502.0,193.0 503.0,182.0 504.0,187.0 505.0,189.0 506.0,193.0 507.0,170.0 508.0,185.0 509.0,214.0 510.0,196.0 511.0,195.0 512.0,180.0 513.0,201.0 514.0,164.0 515.0,183.0 516.0,184.0 517.0,200.0 518.0,183.0 519.0,183.0 520.0,196.0 521.0,175.0 522.0,201.0 523.0,167.0 524.0,189.0 525.0,177.0 526.0,181.0 527.0,175.0 528.0,186.0 529.0,186.0 530.0,188.0 531.0,173.0 532.0,177.0 533.0,176.0 534.0,179.0 535.0,196.0 536.0,184.0 537.0,174.0 538.0,176.0 539.0,184.0 540.0,186.0 541.0,192.0 542.0,185.0 543.0,192.0 544.0,164.0 545.0,200.0 546.0,164.0 547.0,203.0 548.0,175.0 549.0,196.0 550.0,179.0 551.0,185.0 552.0,181.0 553.0,184.0 554.0,189.0 555.0,190.0 556.0,181.0 557.0,196.0 558.0,192.0 559.0,193.0 560.0,204.0 561.0,190.0 562.0,173.0 563.0,186.0 564.0,189.0 565.0,194.0 566.0,187.0 567.0,171.0 568.0,181.0 569.0,180.0 570.0,196.0 571.0,185.0 572.0,175.0 573.0,193.0 574.0,191.0 575.0,167.0 576.0,188.0 577.0,162.0 578.0,207.0 579.0,177.0 580.0,186.0 581.0,164.0 582.0,202.0 583.0,169.0 584.0,187.0 585.0,186.0 586.0,198.0 587.0,176.0 588.0,182.0 589.0,185.0 590.0,191.0 591.0,191.0 592.0,209.0 593.0,180.0 594.0,180.0 595.0,201.0 596.0,189.0 597.0,194.0 598.0,180.0 599.0,186.0 600.0,196.0 601.0,190.0 602.0,188.0 603.0,197.0 604.0,202.0 605.0,196.0 606.0,184.0 607.0,202.0 608.0,175.0 609.0,200.0 610.0,193.0 611.0,195.0 612.0,187.0 613.0,191.0 614.0,186.0 615.0,171.0 616.0,203.0 617.0,190.0 618.0,189.0 619.0,176.0 620.0,202.0 621.0,171.0 622.0,196.0 623.0,191.0 624.0,187.0 625.0,201.0 626.0,189.0 627.0,201.0 628.0,180.0 629.0,198.0 630.0,165.0 631.0,211.0 632.0,177.0 633.0,220.0 634.0,177.0 635.0,209.0 636.0,181.0 637.0,193.0 638.0,174.0 639.0,194.0 640.0,182.0 641.0,204.0 642.0,186.0 643.0,196.0 644.0,179.0 645.0,249.0 646.0,186.0 647.0,211.0 648.0,161.0 649.0,192.0 650.0,176.0 651.0,204.0 652.0,191.0 653.0,195.0 654.0,187.0 655.0,190.0 656.0,194.0" fill="none" stroke="#d0d000" />
	<polyline points="57.0,205.0 58.0,206.0 59.0,204.0 60.0,204.0 61.0,205.0 62.0,205.0 63.0,206.0 64.0,205.0 65.0,203.0 66.0,204.0 67.0,203.0 68.0,203.0 69.0,202.0 70.0,202.0 71.0,203.0 72.0,202.0 73.0,201.0 74.0,202.0 75.0,200.0 76.0,200.0 77.0,196.0 78.0,190.0 79.0,186.0 80.0,192.0 81.0,194.0 82.0,192.0 83.0,192.0 84.0,192.0 85.0,182.0 86.0,181.0 87.0,179.0 88.0,195.0 89.0,197.0 90.0,189.0 91.0,197.0 92.0,208.0 93.0,203.0 94.0,213.0 95.0,212.0 96.0,205.0 97.0,203.0 98.0,218.0 99.0,212.0 100.0,210.0 101.0,211.0 102.0,206.0 103.0,210.0 104.0,206.0 105.0,207.0 106.0,203.0 107.0,207.0 108.0,211.0 109.0,212.0 110.0,204.0 111.0,206.0 112.0,207.0 113.0,207.0 114.0,205.0 115.0,200.0 116.0,201.0 117.0,201.0 118.0,212.0 119.0,213.0 120.0,207.0 121.0,205.0 122.0,212.0 123.0,221.0 124.0,212.0 125.0,211.0 126.0,218.0 127.0,208.0 128.0,207.0 129.0,216.0 130.0,204.0 131.0,209.0 132.0,213.0 133.0,207.0 134.0,216.0 135.0,216.0 136.0,212.0 137.0,214.0 138.0,219.0 139.0,224.0 140.0,219.0 141.0,222.0 142.0,224.0 143.0,220.0 144.0,224.0 145.0,214.0 146.0,223.0 147.0,229.0 148.0,225.0 149.0,219.0 150.0,222.0 151.0,221.0 152.0,223.0 153.0,219.0 154.0,222.0 155.0,222.0 156.0,223.0 157.0,224.0 158.0,223.0 159.0,224.0 160.0,221.0 161.0,231.0 162.0,223.0 163.0,227.0 164.0,225.0 165.0,221.0 166.0,219.0 167.0,225.0 168.0,222.0 169.0,223.0 170.0,221.0 171.0,230.0 172.0,228.0 173.0,226.0 174.0,225.0 175.0,226.0 176.0,225.0 177.0,225.0 178.0,220.0 179.0,220.0 180.0,218.0 181.0,208.0 182.0,207.0 183.0,216.0 184.0,215.0 185.0,210.0 186.0,211.0 187.0,210.0 188.0,205.0 189.0,207.0 190.0,211.0 191.0,214.0 192.0,210.0 193.0,210.0 194.0,213.0 195.0,225.0 196.0,219.0 197.0,223.0 198.0,224.0 199.0,221.0 200.0,225.0 201.0,222.0 202.0,237.0 203.0,231.0 204.0,233.0 205.0,229.0 206.0,231.0 207.0,225.0 208.0,228.0 209.0,227.0 210.0,229.0 211.0,224.0 212.0,228.0 213.0,228.0 214.0,229.0 215.0,227.0 216.0,224.0 217.0,230.0 218.0,227.0 219.0,225.0 220.0,229.0 221.0,225.0 222.0,225.0 223.0,228.0 224.0,225.0 225.0,219.0 226.0,222.0 227.0,218.0 228.0,220.0 229.0,220.0 230.0,218.0 231.0,216.0 232.0,214.0 233.0,216.0 234.0,212.0 235.0,208.0 236.0,210.0 237.0,207.0 238.0,207.0 239.0,204.0 240.0,205.0 241.0,202.0 242.0,199.0 243.0,207.0 244.0,201.0 245.0,208.0 246.0,207.0 247.0,202.0 248.0,203.0 249.0,206.0 250.0,204.0 251.0,212.0 252.0,207.0 253.0,205.0 254.0,209.0 255.0,207.0 256.0,208.0 257.0,214.0 258.0,216.0 259.0,217.0 260.0,222.0 261.0,215.0 262.0,219.0 263.0,224.0 264.0,226.0 265.0,224.0 266.0,225.0 267.0,229.0 268.0,224.0 269.0,229.0 270.0,229.0 271.0,226.0 272.0,227.0 273.0,232.0 274.0,228.0 275.0,233.0 276.0,233.0 277.0,235.0 278.0,241.0 279.0,236.0 280.0,239.0 281.0,236.0 282.0,241.0 283.0,235.0 284.0,236.0 285.0,233.0 286.0,241.0 287.0,235.0 288.0,239.0 289.0,233.0 290.0,240.0 291.0,234.0 292.0,234.0 293.0,238.0 294.0,236.0 295.0,235.0 296.0,234.0 297.0,237.0 298.0,235.0 299.0,231.0 300.0,231.0 301.0,233.0 302.0,235.0 303.0,235.0 304.0,232.0 305.0,228.0 306.0,230.0 307.0,231.0 308.0,230.0 309.0,230.0 310.0,227.0 311.0,225.0 312.0,227.0 313.0,226.0 314.0,219.0 315.0,230.0 316.0,225.0 317.0,225.0 318.0,225.0 319.0,224.0 320.0,223.0 321.0,224.0 322.0,222.0 323.0,221.0 324.0,221.0 325.0,226.0 326.0,219.0 327.0,222.0 328.0,228.0 329.0,225.0 330.0,226.0 331.0,228.0 332.0,221.0 333.0,225.0 334.0,231.0 335.0,227.0 336.0,231.0 337.0,228.0 338.0,229.0 339.0,225.0 340.0,227.0 341.0,223.0 342.0,224.0 343.0,223.0 344.0,219.0 345.0,220.0 346.0,221.0 347.0,222.0 348.0,224.0 349.0,221.0 350.0,224.0 351.0,222.0 352.0,222.0 353.0,224.0 354.0,228.0 355.0,226.0 356.0,226.0 357.0,226.0 358.0,224.0 359.0,222.0 360.0,233.0 361.0,231.0 362.0,234.0 363.0,230.0 364.0,230.0 365.0,233.0 366.0,234.0 367.0,234.0 368.0,234.0 369.0,233.0 370.0,234.0 371.0,232.0 372.0,232.0 373.0,232.0 374.0,231.0 375.0,231.0 376.0,230.0 377.0,229.0 378.0,230.0 379.0,229.0 380.0,227.0 381.0,229.0 382.0,227.0 383.0,228.0 384.0,227.0 385.0,228.0 386.0,227.0 387.0,226.0 388.0,225.0 389.0,227.0 390.0,226.0 391.0,227.0 392.0,225.0 393.0,226.0 394.0,226.0 395.0,225.0 396.0,225.0 397.0,224.0 398.0,224.0 399.0,224.0 400.0,223.0 401.0,225.0 402.0,222.0 403.0,221.0 404.0,222.0 405.0,227.0 406.0,225.0 407.0,225.0 408.0,222.0 409.0,226.0 410.0,226.0 411.0,225.0 412.0,222.0 413.0,221.0 414.0,220.0 415.0,221.0 416.0,218.0 417.0,219.0 418.0,215.0 419.0,217.0 420.0,219.0 421.0,217.0 422.0,216.0 423.0,216.0 424.0,219.0 425.0,211.0 426.0,216.0 427.0,217.0 428.0,212.0 429.0,214.0 430.0,213.0 431.0,212.0 432.0,217.0 433.0,213.0 434.0,215.0 435.0,215.0 436.0,217.0 437.0,210.0 438.0,215.0 439.0,215.0 440.0,215.0 441.0,216.0 442.0,211.0 443.0,214.0 444.0,219.0 445.0,221.0 446.0,217.0 447.0,217.0 448.0,215.0 449.0,216.0 450.0,212.0 451.0,218.0 452.0,213.0 453.0,217.0 454.0,213.0 455.0,215.0 456.0,214.0 457.0,213.0 458.0,215.0 459.0,215.0 460.0,215.0 461.0,216.0 462.0,215.0 463.0,217.0 464.0,218.0 465.0,217.0 466.0,214.0 467.0,214.0 468.0,216.0 469.0,214.0 470.0,215.0 471.0,220.0 472.0,218.0 473.0,216.0 474.0,217.0 475.0,217.0 476.0,216.0 477.0,218.0 478.0,213.0 479.0,219.0 480.0,216.0 481.0,218.0 482.0,211.0 483.0,211.0 484.0,212.0 485.0,216.0 486.0,214.0 487.0,211.0 488.0,213.0 489.0,208.0 490.0,206.0 491.0,208.0 492.0,214.0 493.0,211.0 494.0,213.0 495.0,214.0 496.0,214.0 497.0,210.0 498.0,217.0 499.0,211.0 500.0,210.0 501.0,208.0 502.0,210.0 503.0,209.0 504.0,206.0 505.0,209.0 506.0,209.0 507.0,208.0 508.0,207.0 509.0,205.0 510.0,192.0 511.0,190.0 512.0,213.0 513.0,194.0 514.0,201.0 515.0,200.0 516.0,196.0 517.0,198.0 518.0,195.0 519.0,200.0 520.0,195.0 521.0,206.0 522.0,183.0 523.0,195.0 524.0,205.0 525.0,199.0 526.0,194.0 527.0,192.0 528.0,204.0 529.0,203.0 530.0,192.0 531.0,193.0 532.0,198.0 533.0,199.0 534.0,202.0 535.0,193.0 536.0,197.0 537.0,210.0 538.0,197.0 539.0,191.0 540.0,196.0 541.0,199.0 542.0,213.0 543.0,204.0 544.0,200.0 545.0,192.0 546.0,207.0 547.0,208.0 548.0,205.0 549.0,203.0 550.0,204.0 551.0,203.0 552.0,215.0 553.0,208.0 554.0,204.0 555.0,220.0 556.0,218.0 557.0,213.0 558.0,209.0 559.0,224.0 560.0,221.0 561.0,217.0 562.0,212.0 563.0,219.0 564.0,219.0 565.0,220.0 566.0,214.0 567.0,214.0 568.0,215.0 569.0,227.0 570.0,223.0 571.0,216.0 572.0,224.0 573.0,221.0 574.0,220.0 575.0,222.0 576.0,222.0 577.0,224.0 578.0,223.0 579.0,226.0 580.0,226.0 581.0,223.0 582.0,223.0 583.0,228.0 584.0,225.0 585.0,228.0 586.0,227.0 587.0,226.0 588.0,225.0 589.0,230.0 590.0,227.0 591.0,229.0 592.0,226.0 593.0,228.0 594.0,227.0 595.0,229.0 596.0,228.0 597.0,230.0 598.0,231.0 599.0,229.0 600.0,232.0 601.0,229.0 602.0,232.0 603.0,232.0 604.0,228.0 605.0,228.0 606.0,228.0 607.0,229.0 608.0,228.0 609.0,228.0 610.0,229.0 611.0,232.0 612.0,230.0 613.0,230.0 614.0,229.0 615.0,230.0 616.0,228.0 617.0,231.0 618.0,226.0 619.0,228.0 620.0,226.0 621.0,225.0 622.0,224.0 623.0,224.0 624.0,224.0 625.0,224.0 626.0,221.0 627.0,224.0 628.0,226.0 629.0,225.0 630.0,220.0 631.0,221.0 632.0,225.0 633.0,225.0 634.0,225.0 635.0,224.0 636.0,225.0 637.0,224.0 638.0,222.0 639.0,222.0 640.0,225.0 641.0,224.0 642.0,224.0 643.0,224.0 644.0,226.0 645.0,222.0 646.0,223.0 647.0,216.0 648.0,222.0 649.0,224.0 650.0,223.0 651.0,220.0 652.0,221.0 653.0,218.0 654.0,214.0 655.0,215.0 656.0,224.0" fill="none" stroke="#fb46bc" />
	<polyline points="57.0,204.0 58.0,203.0 59.0,203.0 60.0,201.0 61.0,204.0 62.0,204.0 63.0,203.0 64.0,202.0 65.0,203.0 66.0,202.0 67.0,201.0 68.0,200.0 69.0,199.0 70.0,199.0 71.0,196.0 72.0,194.0 73.0,197.0 74.0,191.0 75.0,189.0 76.0,199.0 77.0,197.0 78.0,201.0 79.0,200.0 80.0,202.0 81.0,193.0 82.0,189.0 83.0,196.0 84.0,195.0 85.0,188.0 86.0,193.0 87.0,203.0 88.0,198.0 89.0,199.0 90.0,208.0 91.0,197.0 92.0,201.0 93.0,208.0 94.0,200.0 95.0,207.0 96.0,204.0 97.0,205.0 98.0,204.0 99.0,206.0 100.0,204.0 101.0,207.0 102.0,207.0 103.0,205.0 104.0,203.0 105.0,205.0 106.0,202.0 107.0,202.0 108.0,207.0 109.0,203.0 110.0,212.0 111.0,205.0 112.0,207.0 113.0,204.0 114.0,210.0 115.0,208.0 116.0,199.0 117.0,198.0 118.0,201.0 119.0,210.0 120.0,202.0 121.0,195.0 122.0,208.0 123.0,208.0 124.0,201.0 125.0,197.0 126.0,199.0 127.0,204.0 128.0,194.0 129.0,199.0 130.0,197.0 131.0,201.0 132.0,213.0 133.0,196.0 134.0,210.0 135.0,202.0 136.0,206.0 137.0,200.0 138.0,202.0 139.0,205.0 140.0,198.0 141.0,198.0 142.0,191.0 143.0,192.0 144.0,186.0 145.0,180.0 146.0,171.0 147.0,170.0 148.0,172.0 149.0,167.0 150.0,162.0 151.0,168.0 152.0,156.0 153.0,171.0 154.0,157.0 155.0,154.0 156.0,165.0 157.0,153.0 158.0,168.0 159.0,173.0 160.0,158.0 161.0,161.0 162.0,165.0 163.0,167.0 164.0,167.0 165.0,164.0 166.0,166.0 167.0,169.0 168.0,169.0 169.0,167.0 170.0,169.0 171.0,181.0 172.0,167.0 173.0,189.0 174.0,170.0 175.0,168.0 176.0,177.0 177.0,178.0 178.0,184.0 179.0,190.0 180.0,177.0 181.0,196.0 182.0,202.0 183.0,200.0 184.0,198.0 185.0,205.0 186.0,210.0 187.0,211.0 188.0,207.0 189.0,211.0 190.0,210.0 191.0,205.0 192.0,211.0 193.0,215.0 194.0,213.0 195.0,206.0 196.0,217.0 197.0,214.0 198.0,211.0 199.0,207.0 200.0,221.0 201.0,206.0 202.0,204.0 203.0,212.0 204.0,199.0 205.0,203.0 206.0,201.0 207.0,209.0 208.0,204.0 209.0,206.0 210.0,204.0 211.0,215.0 212.0,202.0 213.0,193.0 214.0,196.0 215.0,204.0 216.0,187.0 217.0,205.0 218.0,193.0 219.0,181.0 220.0,188.0 221.0,177.0 222.0,175.0 223.0,180.0 224.0,185.0 225.0,171.0 226.0,169.0 227.0,163.0 228.0,174.0 229.0,186.0 230.0,172.0 231.0,163.0 232.0,174.0 233.0,163.0 234.0,169.0 235.0,171.0 236.0,166.0 237.0,162.0 238.0,174.0 239.0,172.0 240.0,171.0 241.0,170.0 242.0,169.0 243.0,166.0 244.0,181.0 245.0,165.0 246.0,176.0 247.0,169.0 248.0,168.0 249.0,169.0 250.0,171.0 251.0,166.0 252.0,174.0 253.0,169.0 254.0,163.0 255.0,162.0 256.0,173.0 257.0,157.0 258.0,168.0 259.0,168.0 260.0,168.0 261.0,165.0 262.0,170.0 263.0,167.0 264.0,164.0 265.0,172.0 266.0,169.0 267.0,172.0 268.0,168.0 269.0,162.0 270.0,170.0 271.0,177.0 272.0,159.0 273.0,167.0 274.0,172.0 275.0,165.0 276.0,172.0 277.0,165.0 278.0,166.0 279.0,171.0 280.0,158.0 281.0,172.0 282.0,165.0 283.0,164.0 284.0,169.0 285.0,176.0 286.0,173.0 287.0,159.0 288.0,162.0 289.0,168.0 290.0,180.0 291.0,170.0 292.0,153.0 293.0,174.0 294.0,164.0 295.0,171.0 296.0,185.0 297.0,165.0 298.0,171.0 299.0,169.0 300.0,155.0 301.0,179.0 302.0,168.0 303.0,166.0 304.0,167.0 305.0,168.0 306.0,172.0 307.0,159.0 308.0,150.0 309.0,199.0 310.0,158.0 311.0,167.0 312.0,176.0 313.0,169.0 314.0,162.0 315.0,176.0 316.0,164.0 317.0,170.0 318.0,163.0 319.0,158.0 320.0,167.0 321.0,174.0 322.0,164.0 323.0,163.0 324.0,176.0 325.0,164.0 326.0,168.0 327.0,166.0 328.0,172.0 329.0,170.0 330.0,166.0 331.0,165.0 332.0,169.0 333.0,166.0 334.0,166.0 335.0,165.0 336.0,175.0 337.0,171.0 338.0,162.0 339.0,163.0 340.0,166.0 341.0,164.0 342.0,183.0 343.0,162.0 344.0,163.0 345.0,165.0 346.0,175.0 347.0,161.0 348.0,170.0 349.0,159.0 350.0,164.0 351.0,169.0 352.0,161.0 353.0,162.0 354.0,162.0 355.0,168.0 356.0,162.0 357.0,161.0 358.0,145.0 359.0,171.0 360.0,158.0 361.0,166.0 362.0,157.0 363.0,175.0 364.0,152.0 365.0,158.0 366.0,160.0 367.0,165.0 368.0,158.0 369.0,164.0 370.0,160.0 371.0,154.0 372.0,163.0 373.0,162.0 374.0,161.0 375.0,158.0 376.0,163.0 377.0,164.0 378.0,152.0 379.0,160.0 380.0,163.0 381.0,173.0 382.0,149.0 383.0,171.0 384.0,158.0 385.0,158.0 386.0,151.0 387.0,168.0 388.0,161.0 389.0,154.0 390.0,159.0 391.0,156.0 392.0,161.0 393.0,163.0 394.0,155.0 395.0,159.0 396.0,158.0 397.0,159.0 398.0,159.0 399.0,155.0 400.0,161.0 401.0,161.0 402.0,168.0 403.0,155.0 404.0,166.0 405.0,167.0 406.0,151.0 407.0,171.0 408.0,155.0 409.0,179.0 410.0,159.0 411.0,160.0 412.0,156.0 413.0,164.0 414.0,170.0 415.0,167.0 416.0,159.0 417.0,173.0 418.0,159.0 419.0,169.0 420.0,164.0 421.0,173.0 422.0,163.0 423.0,164.0 424.0,171.0 425.0,165.0 426.0,167.0 427.0,172.0 428.0,167.0 429.0,168.0 430.0,172.0 431.0,167.0 432.0,174.0 433.0,166.0 434.0,166.0 435.0,177.0 436.0,165.0 437.0,175.0 438.0,169.0 439.0,151.0 440.0,193.0 441.0,160.0 442.0,190.0 443.0,155.0 444.0,187.0 445.0,155.0 446.0,182.0 447.0,172.0 448.0,157.0 449.0,179.0 450.0,157.0 451.0,177.0 452.0,163.0 453.0,166.0 454.0,167.0 455.0,163.0 456.0,170.0 457.0,171.0 458.0,172.0 459.0,166.0 460.0,179.0 461.0,178.0 462.0,175.0 463.0,168.0 464.0,168.0 465.0,170.0 466.0,170.0 467.0,189.0 468.0,177.0 469.0,178.0 470.0,189.0 471.0,182.0 472.0,175.0 473.0,189.0 474.0,186.0 475.0,191.0 476.0,189.0 477.0,186.0 478.0,197.0 479.0,179.0 480.0,192.0 481.0,183.0 482.0,189.0 483.0,183.0 484.0,181.0 485.0,193.0 486.0,181.0 487.0,194.0 488.0,170.0 489.0,186.0 490.0,190.0 491.0,187.0 492.0,183.0 493.0,184.0 494.0,185.0 495.0,173.0 496.0,200.0 497.0,179.0 498.0,191.0 499.0,185.0 500.0,182.0 501.0,197.0 502.0,177.0 503.0,189.0 504.0,194.0 505.0,196.0 506.0,187.0 507.0,184.0 508.0,191.0 509.0,169.0 510.0,190.0 511.0,191.0 512.0,188.0 513.0,174.0 514.0,200.0 515.0,188.0 516.0,192.0 517.0,194.0 518.0,190.0 519.0,182.0 520.0,183.0 521.0,183.0 522.0,181.0 523.0,202.0 524.0,186.0 525.0,183.0 526.0,195.0 527.0,167.0 528.0,166.0 529.0,193.0 530.0,174.0 531.0,189.0 532.0,173.0 533.0,174.0 534.0,169.0 535.0,168.0 536.0,190.0 537.0,177.0 538.0,183.0 539.0,177.0 540.0,185.0 541.0,166.0 542.0,176.0 543.0,176.0 544.0,192.0 545.0,185.0 546.0,182.0 547.0,164.0 548.0,181.0 549.0,189.0 550.0,185.0 551.0,185.0 552.0,184.0 553.0,172.0 554.0,188.0 555.0,183.0 556.0,179.0 557.0,179.0 558.0,183.0 559.0,183.0 560.0,179.0 561.0,181.0 562.0,191.0 563.0,189.0 564.0,172.0 565.0,188.0 566.0,191.0 567.0,189.0 568.0,188.0 569.0,181.0 570.0,179.0 571.0,184.0 572.0,183.0 573.0,194.0 574.0,173.0 575.0,206.0 576.0,182.0 577.0,201.0 578.0,177.0 579.0,191.0 580.0,182.0 581.0,200.0 582.0,173.0 583.0,204.0 584.0,182.0 585.0,181.0 586.0,187.0 587.0,185.0 588.0,178.0 589.0,189.0 590.0,184.0 591.0,187.0 592.0,179.0 593.0,196.0 594.0,187.0 595.0,171.0 596.0,186.0 597.0,194.0 598.0,179.0 599.0,197.0 600.0,179.0 601.0,188.0 602.0,178.0 603.0,179.0 604.0,177.0 605.0,177.0 606.0,189.0 607.0,187.0 608.0,194.0 609.0,178.0 610.0,179.0 611.0,184.0 612.0,184.0 613.0,180.0 614.0,181.0 615.0,187.0 616.0,187.0 617.0,179.0 618.0,196.0 619.0,191.0 620.0,184.0 621.0,188.0 622.0,174.0 623.0,191.0 624.0,189.0 625.0,182.0 626.0,185.0 627.0,190.0 628.0,189.0 629.0,180.0 630.0,203.0 631.0,174.0 632.0,200.0 633.0,175.0 634.0,194.0 635.0,190.0 636.0,198.0 637.0,194.0 638.0,199.0 639.0,191.0 640.0,187.0 641.0,198.0 642.0,193.0 643.0,191.0 644.0,191.0 645.0,167.0 646.0,191.0 647.0,181.0 648.0,192.0 649.0,196.0 650.0,187.0 651.0,180.0 652.0,189.0 653.0,197.0 654.0,191.0 655.0,180.0 656.0,185.0" fill="none" stroke="#0000ff" />
	<polyline points="57.0,204.0 58.0,203.0 59.0,204.0 60.0,205.0 61.0,205.0 62.0,203.0 63.0,203.0 64.0,204.0 65.0,203.0 66.0,202.0 67.0,205.0 68.0,204.0 69.0,204.0 70.0,205.0 71.0,204.0 72.0,200.0 73.0,199.0 74.0,209.0 75.0,214.0 76.0,210.0 77.0,210.0 78.0,211.0 79.0,213.0 80.0,209.0 81.0,204.0 82.0,209.0 83.0,208.0 84.0,207.0 85.0,215.0 86.0,216.0 87.0,212.0 88.0,207.0 89.0,217.0 90.0,209.0 91.0,216.0 92.0,211.0 93.0,210.0 94.0,202.0 95.0,207.0 96.0,208.0 97.0,195.0 98.0,197.0 99.0,192.0 100.0,195.0 101.0,198.0 102.0,201.0 103.0,208.0 104.0,210.0 105.0,207.0 106.0,204.0 107.0,203.0 108.0,200.0 109.0,200.0 110.0,202.0 111.0,205.0 112.0,201.0 113.0,199.0 114.0,191.0 115.0,194.0 116.0,197.0 117.0,209.0 118.0,199.0 119.0,196.0 120.0,205.0 121.0,216.0 122.0,205.0 123.0,197.0 124.0,201.0 125.0,205.0 126.0,207.0 127.0,201.0 128.0,196.0 129.0,200.0 130.0,216.0 131.0,207.0 132.0,207.0 133.0,202.0 134.0,196.0 135.0,197.0 136.0,192.0 137.0,198.0 138.0,197.0 139.0,195.0 140.0,191.0 141.0,187.0 142.0,194.0 143.0,196.0 144.0,199.0 145.0,200.0 146.0,207.0 147.0,219.0 148.0,216.0 149.0,216.0 150.0,212.0 151.0,208.0 152.0,211.0 153.0,224.0 154.0,221.0 155.0,231.0 156.0,233.0 157.0,229.0 158.0,229.0 159.0,228.0 160.0,235.0 161.0,232.0 162.0,223.0 163.0,222.0 164.0,217.0 165.0,228.0 166.0,232.0 167.0,227.0 168.0,230.0 169.0,227.0 170.0,229.0 171.0,229.0 172.0,231.0 173.0,230.0 174.0,227.0 175.0,232.0 176.0,231.0 177.0,227.0 178.0,232.0 179.0,234.0 180.0,236.0 181.0,235.0 182.0,234.0 183.0,232.0 184.0,232.0 185.0,240.0 186.0,233.0 187.0,236.0 188.0,237.0 189.0,236.0 190.0,241.0 191.0,236.0 192.0,236.0 193.0,239.0 194.0,234.0 195.0,238.0 196.0,237.0 197.0,242.0 198.0,239.0 199.0,241.0 200.0,245.0 201.0,243.0 202.0,240.0 203.0,242.0 204.0,242.0 205.0,239.0 206.0,239.0 207.0,236.0 208.0,237.0 209.0,241.0 210.0,236.0 211.0,238.0 212.0,241.0 213.0,237.0 214.0,239.0 215.0,236.0 216.0,235.0 217.0,236.0 218.0,238.0 219.0,234.0 220.0,235.0 221.0,229.0 222.0,233.0 223.0,235.0 224.0,229.0 225.0,223.0 226.0,231.0 227.0,227.0 228.0,220.0 229.0,219.0 230.0,221.0 231.0,218.0 232.0,216.0 233.0,212.0 234.0,220.0 235.0,216.0 236.0,216.0 237.0,223.0 238.0,227.0 239.0,219.0 240.0,219.0 241.0,227.0 242.0,225.0 243.0,219.0 244.0,227.0 245.0,228.0 246.0,230.0 247.0,228.0 248.0,223.0 249.0,220.0 250.0,222.0 251.0,220.0 252.0,223.0 253.0,226.0 254.0,219.0 255.0,228.0 256.0,231.0 257.0,221.0 258.0,229.0 259.0,231.0 260.0,230.0 261.0,226.0 262.0,231.0 263.0,230.0 264.0,232.0 265.0,230.0 266.0,234.0 267.0,230.0 268.0,227.0 269.0,232.0 270.0,233.0 271.0,230.0 272.0,227.0 273.0,231.0 274.0,233.0 275.0,233.0 276.0,232.0 277.0,237.0 278.0,237.0 279.0,232.0 280.0,237.0 281.0,231.0 282.0,240.0 283.0,234.0 284.0,240.0 285.0,236.0 286.0,238.0 287.0,234.0 288.0,231.0 289.0,226.0 290.0,233.0 291.0,224.0 292.0,230.0 293.0,227.0 294.0,225.0 295.0,232.0 296.0,227.0 297.0,225.0 298.0,225.0 299.0,231.0 300.0,224.0 301.0,225.0 302.0,228.0 303.0,220.0 304.0,220.0 305.0,224.0 306.0,225.0 307.0,220.0 308.0,223.0 309.0,221.0 310.0,218.0 311.0,223.0 312.0,218.0 313.0,218.0 314.0,221.0 315.0,211.0 316.0,212.0 317.0,218.0 318.0,217.0 319.0,215.0 320.0,225.0 321.0,217.0 322.0,218.0 323.0,223.0 324.0,215.0 325.0,222.0 326.0,214.0 327.0,218.0 328.0,215.0 329.0,218.0 330.0,220.0 331.0,227.0 332.0,227.0 333.0,224.0 334.0,228.0 335.0,220.0 336.0,219.0 337.0,222.0 338.0,221.0 339.0,220.0 340.0,222.0 341.0,228.0 342.0,219.0 343.0,214.0 344.0,212.0 345.0,215.0 346.0,218.0 347.0,215.0 348.0,209.0 349.0,218.0 350.0,219.0 351.0,218.0 352.0,216.0 353.0,213.0 354.0,220.0 355.0,217.0 356.0,208.0 357.0,209.0 358.0,216.0 359.0,205.0 360.0,211.0 361.0,206.0 362.0,204.0 363.0,195.0 364.0,210.0 365.0,199.0 366.0,199.0 367.0,200.0 368.0,202.0 369.0,203.0 370.0,193.0 371.0,179.0 372.0,210.0 373.0,192.0 374.0,186.0 375.0,179.0 376.0,182.0 377.0,173.0 378.0,179.0 379.0,194.0 380.0,190.0 381.0,183.0 382.0,183.0 383.0,181.0 384.0,199.0 385.0,186.0 386.0,199.0 387.0,190.0 388.0,192.0 389.0,199.0 390.0,204.0 391.0,204.0 392.0,201.0 393.0,194.0 394.0,202.0 395.0,198.0 396.0,211.0 397.0,202.0 398.0,211.0 399.0,199.0 400.0,204.0 401.0,208.0 402.0,201.0 403.0,212.0 404.0,204.0 405.0,203.0 406.0,207.0 407.0,206.0 408.0,208.0 409.0,205.0 410.0,199.0 411.0,210.0 412.0,204.0 413.0,211.0 414.0,209.0 415.0,213.0 416.0,213.0 417.0,208.0 418.0,216.0 419.0,226.0 420.0,220.0 421.0,216.0 422.0,213.0 423.0,218.0 424.0,215.0 425.0,212.0 426.0,216.0 427.0,210.0 428.0,212.0 429.0,211.0 430.0,213.0 431.0,211.0 432.0,210.0 433.0,214.0 434.0,215.0 435.0,216.0 436.0,212.0 437.0,209.0 438.0,202.0 439.0,206.0 440.0,207.0 441.0,212.0 442.0,212.0 443.0,211.0 444.0,208.0 445.0,207.0 446.0,211.0 447.0,206.0 448.0,219.0 449.0,214.0 450.0,221.0 451.0,215.0 452.0,210.0 453.0,222.0 454.0,224.0 455.0,221.0 456.0,227.0 457.0,230.0 458.0,227.0 459.0,230.0 460.0,234.0 461.0,233.0 462.0,230.0 463.0,235.0 464.0,231.0 465.0,225.0 466.0,230.0 467.0,231.0 468.0,232.0 469.0,233.0 470.0,233.0 471.0,234.0 472.0,229.0 473.0,231.0 474.0,236.0 475.0,233.0 476.0,232.0 477.0,234.0 478.0,231.0 479.0,234.0 480.0,234.0 481.0,234.0 482.0,233.0 483.0,234.0 484.0,231.0 485.0,235.0 486.0,238.0 487.0,235.0 488.0,235.0 489.0,231.0 490.0,235.0 491.0,237.0 492.0,233.0 493.0,234.0 494.0,234.0 495.0,237.0 496.0,235.0 497.0,236.0 498.0,234.0 499.0,234.0 500.0,235.0 501.0,234.0 502.0,236.0 503.0,235.0 504.0,236.0 505.0,236.0 506.0,234.0 507.0,237.0 508.0,235.0 509.0,234.0 510.0,234.0 511.0,233.0 512.0,232.0 513.0,233.0 514.0,232.0 515.0,233.0 516.0,231.0 517.0,230.0 518.0,231.0 519.0,229.0 520.0,229.0 521.0,231.0 522.0,228.0 523.0,227.0 524.0,225.0 525.0,227.0 526.0,226.0 527.0,226.0 528.0,223.0 529.0,221.0 530.0,224.0 531.0,222.0 532.0,224.0 533.0,224.0 534.0,223.0 535.0,219.0 536.0,220.0 537.0,221.0 538.0,224.0 539.0,224.0 540.0,222.0 541.0,220.0 542.0,221.0 543.0,222.0 544.0,220.0 545.0,220.0 546.0,217.0 547.0,215.0 548.0,216.0 549.0,214.0 550.0,215.0 551.0,215.0 552.0,211.0 553.0,212.0 554.0,212.0 555.0,208.0 556.0,210.0 557.0,205.0 558.0,209.0 559.0,203.0 560.0,200.0 561.0,201.0 562.0,205.0 563.0,206.0 564.0,201.0 565.0,197.0 566.0,203.0 567.0,202.0 568.0,202.0 569.0,203.0 570.0,207.0 571.0,200.0 572.0,197.0 573.0,197.0 574.0,196.0 575.0,200.0 576.0,191.0 577.0,207.0 578.0,198.0 579.0,196.0 580.0,201.0 581.0,194.0 582.0,195.0 583.0,203.0 584.0,206.0 585.0,195.0 586.0,193.0 587.0,215.0 588.0,201.0 589.0,204.0 590.0,198.0 591.0,210.0 592.0,202.0 593.0,204.0 594.0,214.0 595.0,215.0 596.0,215.0 597.0,216.0 598.0,215.0 599.0,216.0 600.0,219.0 601.0,216.0 602.0,221.0 603.0,222.0 604.0,220.0 605.0,220.0 606.0,222.0 607.0,221.0 608.0,222.0 609.0,221.0 610.0,220.0 611.0,222.0 612.0,223.0 613.0,217.0 614.0,215.0 615.0,221.0 616.0,215.0 617.0,219.0 618.0,213.0 619.0,216.0 620.0,216.0 621.0,217.0 622.0,212.0 623.0,214.0 624.0,212.0 625.0,209.0 626.0,209.0 627.0,214.0 628.0,206.0 629.0,211.0 630.0,214.0 631.0,207.0 632.0,205.0 633.0,208.0 634.0,208.0 635.0,202.0 636.0,209.0 637.0,205.0 638.0,207.0 639.0,211.0 640.0,207.0 641.0,206.0 642.0,216.0 643.0,217.0 644.0,214.0 645.0,214.0 646.0,215.0 647.0,214.0 648.0,219.0 649.0,210.0 650.0,219.0 651.0,221.0 652.0,218.0 653.0,215.0 654.0,228.0 655.0,225.0 656.0,223.0" fill="none" stroke="#00bfff" />
	<polyline points="57.0,205.0 58.0,206.0 59.0,205.0 60.0,204.0 61.0,203.0 62.0,204.0 63.0,205.0 64.0,205.0 65.0,206.0 66.0,205.0 67.0,205.0 68.0,207.0 69.0,208.0 70.0,208.0 71.0,209.0 72.0,210.0 73.0,207.0 74.0,208.0 75.0,211.0 76.0,208.0 77.0,204.0 78.0,198.0 79.0,199.0 80.0,203.0 81.0,221.0 82.0,214.0 83.0,214.0 84.0,215.0 85.0,214.0 86.0,218.0 87.0,215.0 88.0,220.0 89.0,219.0 90.0,214.0 91.0,217.0 92.0,223.0 93.0,221.0 94.0,216.0 95.0,219.0 96.0,213.0 97.0,222.0 98.0,218.0 99.0,220.0 100.0,219.0 101.0,218.0 102.0,219.0 103.0,217.0 104.0,217.0 105.0,214.0 106.0,220.0 107.0,215.0 108.0,217.0 109.0,216.0 110.0,214.0 111.0,213.0 112.0,210.0 113.0,203.0 114.0,207.0 115.0,203.0 116.0,206.0 117.0,201.0 118.0,197.0 119.0,198.0 120.0,199.0 121.0,198.0 122.0,203.0 123.0,200.0 124.0,198.0 125.0,199.0 126.0,202.0 127.0,199.0 128.0,206.0 129.0,207.0 130.0,212.0 131.0,207.0 132.0,200.0 133.0,203.0 134.0,210.0 135.0,212.0 136.0,217.0 137.0,209.0 138.0,223.0 139.0,211.0 140.0,203.0 141.0,214.0 142.0,204.0 143.0,219.0 144.0,214.0 145.0,216.0 146.0,232.0 147.0,230.0 148.0,232.0 149.0,231.0 150.0,233.0 151.0,222.0 152.0,228.0 153.0,229.0 154.0,223.0 155.0,232.0 156.0,227.0 157.0,224.0 158.0,228.0 159.0,228.0 160.0,228.0 161.0,224.0 162.0,221.0 163.0,229.0 164.0,223.0 165.0,226.0 166.0,226.0 167.0,225.0 168.0,221.0 169.0,224.0 170.0,220.0 171.0,216.0 172.0,220.0 173.0,219.0 174.0,217.0 175.0,221.0 176.0,217.0 177.0,224.0 178.0,216.0 179.0,217.0 180.0,211.0 181.0,212.0 182.0,201.0 183.0,199.0 184.0,193.0 185.0,193.0 186.0,192.0 187.0,184.0 188.0,183.0 189.0,177.0 190.0,179.0 191.0,178.0 192.0,179.0 193.0,178.0 194.0,176.0 195.0,166.0 196.0,165.0 197.0,167.0 198.0,158.0 199.0,158.0 200.0,156.0 201.0,167.0 202.0,157.0 203.0,166.0 204.0,158.0 205.0,161.0 206.0,161.0 207.0,163.0 208.0,169.0 209.0,170.0 210.0,168.0 211.0,163.0 212.0,175.0 213.0,175.0 214.0,169.0 215.0,185.0 216.0,173.0 217.0,186.0 218.0,187.0 219.0,183.0 220.0,202.0 221.0,200.0 222.0,208.0 223.0,208.0 224.0,211.0 225.0,215.0 226.0,220.0 227.0,216.0 228.0,221.0 229.0,230.0 230.0,228.0 231.0,236.0 232.0,239.0 233.0,243.0 234.0,242.0 235.0,244.0 236.0,245.0 237.0,247.0 238.0,243.0 239.0,243.0 240.0,245.0 241.0,246.0 242.0,247.0 243.0,247.0 244.0,248.0 245.0,246.0 246.0,244.0 247.0,244.0 248.0,246.0 249.0,248.0 250.0,246.0 251.0,245.0 252.0,245.0 253.0,248.0 254.0,246.0 255.0,246.0 256.0,245.0 257.0,245.0 258.0,244.0 259.0,243.0 260.0,244.0 261.0,244.0 262.0,246.0 263.0,243.0 264.0,243.0 265.0,242.0 266.0,242.0 267.0,242.0 268.0,241.0 269.0,241.0 270.0,241.0 271.0,239.0 272.0,238.0 273.0,235.0 274.0,234.0 275.0,229.0 276.0,229.0 277.0,227.0 278.0,224.0 279.0,223.0 280.0,223.0 281.0,219.0 282.0,222.0 283.0,219.0 284.0,223.0 285.0,224.0 286.0,221.0 287.0,221.0 288.0,208.0 289.0,213.0 290.0,213.0 291.0,208.0 292.0,214.0 293.0,220.0 294.0,214.0 295.0,206.0 296.0,204.0 297.0,209.0 298.0,217.0 299.0,203.0 300.0,207.0 301.0,205.0 302.0,212.0 303.0,220.0 304.0,211.0 305.0,203.0 306.0,206.0 307.0,214.0 308.0,221.0 309.0,208.0 310.0,216.0 311.0,210.0 312.0,220.0 313.0,216.0 314.0,216.0 315.0,221.0 316.0,216.0 317.0,231.0 318.0,221.0 319.0,218.0 320.0,222.0 321.0,230.0 322.0,234.0 323.0,228.0 324.0,238.0 325.0,234.0 326.0,235.0 327.0,241.0 328.0,242.0 329.0,241.0 330.0,238.0 331.0,238.0 332.0,240.0 333.0,241.0 334.0,239.0 335.0,236.0 336.0,233.0 337.0,235.0 338.0,229.0 339.0,227.0 340.0,225.0 341.0,229.0 342.0,232.0 343.0,231.0 344.0,228.0 345.0,230.0 346.0,229.0 347.0,237.0 348.0,233.0 349.0,232.0 350.0,234.0 351.0,231.0 352.0,243.0 353.0,238.0 354.0,239.0 355.0,236.0 356.0,240.0 357.0,237.0 358.0,240.0 359.0,236.0 360.0,238.0 361.0,241.0 362.0,237.0 363.0,240.0 364.0,241.0 365.0,242.0 366.0,239.0 367.0,239.0 368.0,241.0 369.0,238.0 370.0,237.0 371.0,239.0 372.0,237.0 373.0,238.0 374.0,238.0 375.0,235.0 376.0,235.0 377.0,234.0 378.0,235.0 379.0,232.0 380.0,234.0 381.0,234.0 382.0,231.0 383.0,232.0 384.0,229.0 385.0,231.0 386.0,230.0 387.0,228.0 388.0,229.0 389.0,228.0 390.0,221.0 391.0,224.0 392.0,224.0 393.0,228.0 394.0,226.0 395.0,223.0 396.0,225.0 397.0,221.0 398.0,228.0 399.0,221.0 400.0,219.0 401.0,221.0 402.0,221.0 403.0,224.0 404.0,219.0 405.0,223.0 406.0,219.0 407.0,222.0 408.0,216.0 409.0,216.0 410.0,205.0 411.0,234.0 412.0,221.0 413.0,224.0 414.0,221.0 415.0,218.0 416.0,212.0 417.0,220.0 418.0,213.0 419.0,213.0 420.0,217.0 421.0,217.0 422.0,222.0 423.0,220.0 424.0,216.0 425.0,218.0 426.0,218.0 427.0,215.0 428.0,223.0 429.0,222.0 430.0,217.0 431.0,216.0 432.0,216.0 433.0,216.0 434.0,223.0 435.0,217.0 436.0,219.0 437.0,219.0 438.0,222.0 439.0,223.0 440.0,218.0 441.0,219.0 442.0,216.0 443.0,220.0 444.0,214.0 445.0,216.0 446.0,217.0 447.0,217.0 448.0,219.0 449.0,219.0 450.0,218.0 451.0,213.0 452.0,221.0 453.0,215.0 454.0,213.0 455.0,220.0 456.0,213.0 457.0,211.0 458.0,213.0 459.0,213.0 460.0,217.0 461.0,218.0 462.0,214.0 463.0,208.0 464.0,208.0 465.0,210.0 466.0,207.0 467.0,205.0 468.0,204.0 469.0,209.0 470.0,199.0 471.0,206.0 472.0,208.0 473.0,207.0 474.0,210.0 475.0,205.0 476.0,212.0 477.0,206.0 478.0,210.0 479.0,210.0 480.0,213.0 481.0,207.0 482.0,202.0 483.0,211.0 484.0,217.0 485.0,213.0 486.0,209.0 487.0,204.0 488.0,209.0 489.0,207.0 490.0,207.0 491.0,209.0 492.0,211.0 493.0,214.0 494.0,209.0 495.0,211.0 496.0,221.0 497.0,214.0 498.0,220.0 499.0,216.0 500.0,215.0 501.0,216.0 502.0,221.0 503.0,216.0 504.0,216.0 505.0,217.0 506.0,221.0 507.0,220.0 508.0,223.0 509.0,217.0 510.0,212.0 511.0,216.0 512.0,216.0 513.0,220.0 514.0,218.0 515.0,214.0 516.0,222.0 517.0,216.0 518.0,217.0 519.0,221.0 520.0,219.0 521.0,219.0 522.0,219.0 523.0,215.0 524.0,219.0 525.0,219.0 526.0,210.0 527.0,209.0 528.0,220.0 529.0,212.0 530.0,213.0 531.0,214.0 532.0,218.0 533.0,221.0 534.0,225.0 535.0,220.0 536.0,217.0 537.0,222.0 538.0,221.0 539.0,226.0 540.0,222.0 541.0,222.0 542.0,227.0 543.0,224.0 544.0,224.0 545.0,224.0 546.0,224.0 547.0,220.0 548.0,224.0 549.0,223.0 550.0,224.0 551.0,224.0 552.0,225.0 553.0,224.0 554.0,224.0 555.0,225.0 556.0,225.0 557.0,223.0 558.0,223.0 559.0,223.0 560.0,218.0 561.0,221.0 562.0,227.0 563.0,218.0 564.0,225.0 565.0,221.0 566.0,221.0 567.0,226.0 568.0,225.0 569.0,222.0 570.0,225.0 571.0,223.0 572.0,226.0 573.0,227.0 574.0,228.0 575.0,227.0 576.0,225.0 577.0,223.0 578.0,221.0 579.0,225.0 580.0,228.0 581.0,227.0 582.0,221.0 583.0,225.0 584.0,227.0 585.0,229.0 586.0,226.0 587.0,231.0 588.0,227.0 589.0,229.0 590.0,225.0 591.0,228.0 592.0,229.0 593.0,228.0 594.0,228.0 595.0,228.0 596.0,230.0 597.0,227.0 598.0,231.0 599.0,232.0 600.0,228.0 601.0,230.0 602.0,230.0 603.0,232.0 604.0,230.0 605.0,227.0 606.0,229.0 607.0,229.0 608.0,231.0 609.0,230.0 610.0,230.0 611.0,229.0 612.0,230.0 613.0,230.0 614.0,231.0 615.0,231.0 616.0,227.0 617.0,232.0 618.0,228.0 619.0,230.0 620.0,228.0 621.0,228.0 622.0,228.0 623.0,231.0 624.0,228.0 625.0,229.0 626.0,228.0 627.0,232.0 628.0,230.0 629.0,229.0 630.0,228.0 631.0,232.0 632.0,229.0 633.0,229.0 634.0,229.0 635.0,228.0 636.0,231.0 637.0,229.0 638.0,230.0 639.0,228.0 640.0,230.0 641.0,227.0 642.0,230.0 643.0,228.0 644.0,228.0 645.0,223.0 646.0,228.0 647.0,222.0 648.0,225.0 649.0,224.0 650.0,229.0 651.0,224.0 652.0,225.0 653.0,222.0 654.0,225.0 655.0,228.0 656.0,224.0" fill="none" stroke="#4876ff" />
	<polyline points="57.0,205.0 58.0,205.0 59.0,205.0 60.0,206.0 61.0,207.0 62.0,207.0 63.0,206.0 64.0,207.0 65.0,206.0 66.0,207.0 67.0,209.0 68.0,210.0 69.0,209.0 70.0,209.0 71.0,210.0 72.0,212.0 73.0,216.0 74.0,216.0 75.0,212.0 76.0,221.0 77.0,219.0 78.0,218.0 79.0,221.0 80.0,216.0 81.0,215.0 82.0,214.0 83.0,215.0 84.0,218.0 85.0,220.0 86.0,215.0 87.0,215.0 88.0,213.0 89.0,218.0 90.0,214.0 91.0,214.0 92.0,211.0 93.0,211.0 94.0,211.0 95.0,208.0 96.0,201.0 97.0,216.0 98.0,208.0 99.0,206.0 100.0,205.0 101.0,202.0 102.0,205.0 103.0,204.0 104.0,209.0 105.0,203.0 106.0,198.0 107.0,203.0 108.0,191.0 109.0,204.0 110.0,204.0 111.0,203.0 112.0,197.0 113.0,195.0 114.0,187.0 115.0,193.0 116.0,194.0 117.0,188.0 118.0,188.0 119.0,170.0 120.0,183.0 121.0,197.0 122.0,183.0 123.0,170.0 124.0,173.0 125.0,180.0 126.0,175.0 127.0,175.0 128.0,176.0 129.0,182.0 130.0,163.0 131.0,175.0 132.0,183.0 133.0,179.0 134.0,179.0 135.0,178.0 136.0,175.0 137.0,170.0 138.0,181.0 139.0,177.0 140.0,191.0 141.0,187.0 142.0,194.0 143.0,178.0 144.0,185.0 145.0,190.0 146.0,182.0 147.0,183.0 148.0,194.0 149.0,192.0 150.0,203.0 151.0,201.0 152.0,214.0 153.0,199.0 154.0,214.0 155.0,212.0 156.0,209.0 157.0,199.0 158.0,212.0 159.0,212.0 160.0,216.0 161.0,212.0 162.0,221.0 163.0,220.0 164.0,215.0 165.0,218.0 166.0,223.0 167.0,219.0 168.0,223.0 169.0,226.0 170.0,227.0 171.0,231.0 172.0,225.0 173.0,235.0 174.0,237.0 175.0,237.0 176.0,235.0 177.0,236.0 178.0,236.0 179.0,235.0 180.0,236.0 181.0,237.0 182.0,240.0 183.0,233.0 184.0,233.0 185.0,234.0 186.0,236.0 187.0,235.0 188.0,233.0 189.0,232.0 190.0,232.0 191.0,230.0 192.0,232.0 193.0,233.0 194.0,226.0 195.0,227.0 196.0,234.0 197.0,236.0 198.0,228.0 199.0,234.0 200.0,233.0 201.0,230.0 202.0,234.0 203.0,238.0 204.0,235.0 205.0,243.0 206.0,238.0 207.0,235.0 208.0,230.0 209.0,233.0 210.0,236.0 211.0,238.0 212.0,237.0 213.0,234.0 214.0,235.0 215.0,235.0 216.0,224.0 217.0,221.0 218.0,248.0 219.0,234.0 220.0,232.0 221.0,229.0 222.0,235.0 223.0,228.0 224.0,225.0 225.0,224.0 226.0,223.0 227.0,225.0 228.0,218.0 229.0,225.0 230.0,222.0 231.0,219.0 232.0,222.0 233.0,213.0 234.0,218.0 235.0,214.0 236.0,207.0 237.0,214.0 238.0,211.0 239.0,203.0 240.0,214.0 241.0,207.0 242.0,223.0 243.0,217.0 244.0,218.0 245.0,213.0 246.0,206.0 247.0,218.0 248.0,212.0 249.0,210.0 250.0,219.0 251.0,210.0 252.0,202.0 253.0,212.0 254.0,213.0 255.0,215.0 256.0,209.0 257.0,203.0 258.0,203.0 259.0,196.0 260.0,201.0 261.0,202.0 262.0,212.0 263.0,206.0 264.0,205.0 265.0,202.0 266.0,197.0 267.0,204.0 268.0,200.0 269.0,197.0 270.0,205.0 271.0,196.0 272.0,187.0 273.0,188.0 274.0,189.0 275.0,193.0 276.0,178.0 277.0,189.0 278.0,192.0 279.0,198.0 280.0,210.0 281.0,204.0 282.0,197.0 283.0,201.0 284.0,207.0 285.0,201.0 286.0,209.0 287.0,206.0 288.0,210.0 289.0,210.0 290.0,213.0 291.0,209.0 292.0,214.0 293.0,213.0 294.0,216.0 295.0,212.0 296.0,215.0 297.0,215.0 298.0,218.0 299.0,218.0 300.0,219.0 301.0,216.0 302.0,216.0 303.0,213.0 304.0,208.0 305.0,203.0 306.0,210.0 307.0,208.0 308.0,212.0 309.0,212.0 310.0,215.0 311.0,203.0 312.0,207.0 313.0,207.0 314.0,213.0 315.0,211.0 316.0,213.0 317.0,208.0 318.0,204.0 319.0,201.0 320.0,201.0 321.0,201.0 322.0,202.0 323.0,200.0 324.0,195.0 325.0,194.0 326.0,187.0 327.0,176.0 328.0,165.0 329.0,159.0 330.0,142.0 331.0,132.0 332.0,107.0 333.0,106.0 334.0,88.0 335.0,83.0 336.0,92.0 337.0,92.0 338.0,96.0 339.0,92.0 340.0,102.0 341.0,112.0 342.0,103.0 343.0,111.0 344.0,114.0 345.0,112.0 346.0,111.0 347.0,114.0 348.0,106.0 349.0,116.0 350.0,101.0 351.0,102.0 352.0,113.0 353.0,107.0 354.0,97.0 355.0,107.0 356.0,102.0 357.0,98.0 358.0,91.0 359.0,96.0 360.0,104.0 361.0,101.0 362.0,103.0 363.0,96.0 364.0,111.0 365.0,93.0 366.0,102.0 367.0,107.0 368.0,94.0 369.0,105.0 370.0,101.0 371.0,122.0 372.0,102.0 373.0,108.0 374.0,131.0 375.0,124.0 376.0,133.0 377.0,129.0 378.0,141.0 379.0,121.0 380.0,122.0 381.0,124.0 382.0,145.0 383.0,132.0 384.0,140.0 385.0,135.0 386.0,145.0 387.0,142.0 388.0,151.0 389.0,136.0 390.0,162.0 391.0,137.0 392.0,158.0 393.0,153.0 394.0,159.0 395.0,153.0 396.0,146.0 397.0,166.0 398.0,147.0 399.0,175.0 400.0,150.0 401.0,161.0 402.0,154.0 403.0,156.0 404.0,150.0 405.0,153.0 406.0,154.0 407.0,157.0 408.0,143.0 409.0,151.0 410.0,156.0 411.0,149.0 412.0,160.0 413.0,150.0 414.0,149.0 415.0,153.0 416.0,149.0 417.0,153.0 418.0,152.0 419.0,156.0 420.0,145.0 421.0,151.0 422.0,151.0 423.0,148.0 424.0,153.0 425.0,146.0 426.0,149.0 427.0,140.0 428.0,159.0 429.0,150.0 430.0,151.0 431.0,149.0 432.0,144.0 433.0,150.0 434.0,152.0 435.0,143.0 436.0,151.0 437.0,153.0 438.0,151.0 439.0,150.0 440.0,143.0 441.0,155.0 442.0,136.0 443.0,160.0 444.0,148.0 445.0,158.0 446.0,145.0 447.0,144.0 448.0,150.0 449.0,146.0 450.0,152.0 451.0,147.0 452.0,151.0 453.0,148.0 454.0,144.0 455.0,154.0 456.0,153.0 457.0,150.0 458.0,154.0 459.0,149.0 460.0,154.0 461.0,144.0 462.0,155.0 463.0,136.0 464.0,157.0 465.0,150.0 466.0,158.0 467.0,148.0 468.0,165.0 469.0,153.0 470.0,159.0 471.0,150.0 472.0,161.0 473.0,167.0 474.0,154.0 475.0,160.0 476.0,150.0 477.0,161.0 478.0,151.0 479.0,152.0 480.0,162.0 481.0,163.0 482.0,164.0 483.0,149.0 484.0,152.0 485.0,152.0 486.0,155.0 487.0,163.0 488.0,148.0 489.0,153.0 490.0,152.0 491.0,159.0 492.0,145.0 493.0,166.0 494.0,152.0 495.0,145.0 496.0,128.0 497.0,174.0 498.0,140.0 499.0,169.0 500.0,155.0 501.0,158.0 502.0,151.0 503.0,153.0 504.0,164.0 505.0,140.0 506.0,162.0 507.0,170.0 508.0,148.0 509.0,161.0 510.0,159.0 511.0,164.0 512.0,150.0 513.0,165.0 514.0,168.0 515.0,162.0 516.0,156.0 517.0,155.0 518.0,167.0 519.0,177.0 520.0,169.0 521.0,170.0 522.0,157.0 523.0,175.0 524.0,168.0 525.0,175.0 526.0,170.0 527.0,183.0 528.0,175.0 529.0,166.0 530.0,179.0 531.0,180.0 532.0,185.0 533.0,176.0 534.0,178.0 535.0,180.0 536.0,170.0 537.0,173.0 538.0,189.0 539.0,170.0 540.0,169.0 541.0,185.0 542.0,168.0 543.0,179.0 544.0,187.0 545.0,166.0 546.0,190.0 547.0,179.0 548.0,192.0 549.0,172.0 550.0,178.0 551.0,175.0 552.0,178.0 553.0,188.0 554.0,176.0 555.0,172.0 556.0,176.0 557.0,178.0 558.0,188.0 559.0,180.0 560.0,169.0 561.0,187.0 562.0,192.0 563.0,171.0 564.0,181.0 565.0,174.0 566.0,175.0 567.0,185.0 568.0,175.0 569.0,177.0 570.0,172.0 571.0,180.0 572.0,181.0 573.0,170.0 574.0,175.0 575.0,174.0 576.0,178.0 577.0,174.0 578.0,183.0 579.0,172.0 580.0,177.0 581.0,170.0 582.0,181.0 583.0,163.0 584.0,180.0 585.0,173.0 586.0,171.0 587.0,171.0 588.0,180.0 589.0,166.0 590.0,178.0 591.0,162.0 592.0,177.0 593.0,167.0 594.0,173.0 595.0,171.0 596.0,172.0 597.0,161.0 598.0,179.0 599.0,160.0 600.0,173.0 601.0,164.0 602.0,179.0 603.0,163.0 604.0,172.0 605.0,177.0 606.0,170.0 607.0,163.0 608.0,183.0 609.0,163.0 610.0,186.0 611.0,165.0 612.0,180.0 613.0,173.0 614.0,182.0 615.0,185.0 616.0,179.0 617.0,174.0 618.0,181.0 619.0,183.0 620.0,173.0 621.0,186.0 622.0,183.0 623.0,170.0 624.0,189.0 625.0,171.0 626.0,189.0 627.0,178.0 628.0,187.0 629.0,184.0 630.0,192.0 631.0,173.0 632.0,195.0 633.0,168.0 634.0,201.0 635.0,166.0 636.0,197.0 637.0,179.0 638.0,213.0 639.0,180.0 640.0,202.0 641.0,184.0 642.0,184.0 643.0,188.0 644.0,206.0 645.0,183.0 646.0,193.0 647.0,184.0 648.0,216.0 649.0,193.0 650.0,197.0 651.0,196.0 652.0,194.0 653.0,197.0 654.0,201.0 655.0,188.0 656.0,196.0" fill="none" stroke="#aeeeee" />
	<polyline points="57.0,205.0 58.0,204.0 59.0,205.0 60.0,205.0 61.0,205.0 62.0,205.0 63.0,205.0 64.0,205.0 65.0,206.0 66.0,206.0 67.0,206.0 68.0,205.0 69.0,204.0 70.0,205.0 71.0,205.0 72.0,202.0 73.0,199.0 74.0,198.0 75.0,197.0 76.0,192.0 77.0,192.0 78.0,195.0 79.0,193.0 80.0,201.0 81.0,195.0 82.0,203.0 83.0,195.0 84.0,205.0 85.0,208.0 86.0,194.0 87.0,207.0 88.0,201.0 89.0,200.0 90.0,196.0 91.0,198.0 92.0,204.0 93.0,197.0 94.0,203.0 95.0,190.0 96.0,210.0 97.0,210.0 98.0,201.0 99.0,200.0 100.0,208.0 101.0,199.0 102.0,196.0 103.0,203.0 104.0,200.0 105.0,199.0 106.0,211.0 107.0,206.0 108.0,203.0 109.0,205.0 110.0,208.0 111.0,198.0 112.0,211.0 113.0,215.0 114.0,215.0 115.0,217.0 116.0,217.0 117.0,220.0 118.0,221.0 119.0,220.0 120.0,221.0 121.0,213.0 122.0,222.0 123.0,224.0 124.0,219.0 125.0,215.0 126.0,215.0 127.0,222.0 128.0,223.0 129.0,214.0 130.0,224.0 131.0,219.0 132.0,222.0 133.0,219.0 134.0,212.0 135.0,220.0 136.0,228.0 137.0,227.0 138.0,222.0 139.0,216.0 140.0,221.0 141.0,227.0 142.0,230.0 143.0,226.0 144.0,230.0 145.0,237.0 146.0,237.0 147.0,229.0 148.0,227.0 149.0,231.0 150.0,231.0 151.0,230.0 152.0,230.0 153.0,225.0 154.0,229.0 155.0,218.0 156.0,220.0 157.0,220.0 158.0,218.0 159.0,216.0 160.0,215.0 161.0,218.0 162.0,223.0 163.0,222.0 164.0,226.0 165.0,221.0 166.0,219.0 167.0,223.0 168.0,217.0 169.0,222.0 170.0,221.0 171.0,215.0 172.0,216.0 173.0,219.0 174.0,216.0 175.0,215.0 176.0,220.0 177.0,223.0 178.0,212.0 179.0,219.0 180.0,221.0 181.0,215.0 182.0,225.0 183.0,227.0 184.0,233.0 185.0,223.0 186.0,225.0 187.0,233.0 188.0,228.0 189.0,235.0 190.0,232.0 191.0,231.0 192.0,234.0 193.0,240.0 194.0,235.0 195.0,237.0 196.0,240.0 197.0,241.0 198.0,237.0 199.0,242.0 200.0,237.0 201.0,241.0 202.0,245.0 203.0,237.0 204.0,240.0 205.0,242.0 206.0,239.0 207.0,240.0 208.0,235.0 209.0,236.0 210.0,240.0 211.0,234.0 212.0,240.0 213.0,238.0 214.0,238.0 215.0,238.0 216.0,239.0 217.0,238.0 218.0,235.0 219.0,234.0 220.0,234.0 221.0,235.0 222.0,230.0 223.0,232.0 224.0,234.0 225.0,223.0 226.0,227.0 227.0,224.0 228.0,226.0 229.0,223.0 230.0,222.0 231.0,240.0 232.0,230.0 233.0,226.0 234.0,223.0 235.0,228.0 236.0,225.0 237.0,224.0 238.0,221.0 239.0,228.0 240.0,224.0 241.0,224.0 242.0,224.0 243.0,220.0 244.0,226.0 245.0,221.0 246.0,217.0 247.0,223.0 248.0,228.0 249.0,229.0 250.0,226.0 251.0,230.0 252.0,227.0 253.0,226.0 254.0,221.0 255.0,222.0 256.0,225.0 257.0,227.0 258.0,221.0 259.0,222.0 260.0,221.0 261.0,223.0 262.0,222.0 263.0,223.0 264.0,212.0 265.0,220.0 266.0,223.0 267.0,224.0 268.0,223.0 269.0,227.0 270.0,218.0 271.0,217.0 272.0,227.0 273.0,222.0 274.0,228.0 275.0,224.0 276.0,233.0 277.0,229.0 278.0,230.0 279.0,227.0 280.0,234.0 281.0,225.0 282.0,230.0 283.0,229.0 284.0,226.0 285.0,219.0 286.0,201.0 287.0,212.0 288.0,241.0 289.0,217.0 290.0,214.0 291.0,217.0 292.0,217.0 293.0,211.0 294.0,215.0 295.0,202.0 296.0,209.0 297.0,216.0 298.0,208.0 299.0,209.0 300.0,211.0 301.0,215.0 302.0,210.0 303.0,224.0 304.0,214.0 305.0,225.0 306.0,218.0 307.0,212.0 308.0,211.0 309.0,219.0 310.0,215.0 311.0,217.0 312.0,213.0 313.0,219.0 314.0,219.0 315.0,217.0 316.0,213.0 317.0,213.0 318.0,216.0 319.0,222.0 320.0,217.0 321.0,220.0 322.0,221.0 323.0,225.0 324.0,223.0 325.0,224.0 326.0,223.0 327.0,232.0 328.0,224.0 329.0,229.0 330.0,230.0 331.0,225.0 332.0,227.0 333.0,226.0 334.0,227.0 335.0,231.0 336.0,227.0 337.0,227.0 338.0,231.0 339.0,228.0 340.0,227.0 341.0,222.0 342.0,226.0 343.0,223.0 344.0,219.0 345.0,224.0 346.0,223.0 347.0,222.0 348.0,220.0 349.0,218.0 350.0,221.0 351.0,226.0 352.0,217.0 353.0,217.0 354.0,216.0 355.0,219.0 356.0,216.0 357.0,227.0 358.0,222.0 359.0,216.0 360.0,221.0 361.0,212.0 362.0,208.0 363.0,209.0 364.0,213.0 365.0,207.0 366.0,213.0 367.0,215.0 368.0,203.0 369.0,209.0 370.0,220.0 371.0,209.0 372.0,211.0 373.0,206.0 374.0,205.0 375.0,212.0 376.0,211.0 377.0,208.0 378.0,205.0 379.0,214.0 380.0,209.0 381.0,200.0 382.0,212.0 383.0,210.0 384.0,198.0 385.0,207.0 386.0,201.0 387.0,199.0 388.0,200.0 389.0,194.0 390.0,197.0 391.0,198.0 392.0,193.0 393.0,195.0 394.0,192.0 395.0,199.0 396.0,184.0 397.0,193.0 398.0,193.0 399.0,197.0 400.0,197.0 401.0,185.0 402.0,191.0 403.0,196.0 404.0,193.0 405.0,189.0 406.0,192.0 407.0,187.0 408.0,192.0 409.0,187.0 410.0,205.0 411.0,191.0 412.0,189.0 413.0,196.0 414.0,191.0 415.0,185.0 416.0,201.0 417.0,194.0 418.0,200.0 419.0,181.0 420.0,194.0 421.0,199.0 422.0,204.0 423.0,200.0 424.0,195.0 425.0,209.0 426.0,204.0 427.0,203.0 428.0,204.0 429.0,208.0 430.0,198.0 431.0,204.0 432.0,200.0 433.0,208.0 434.0,206.0 435.0,207.0 436.0,208.0 437.0,216.0 438.0,213.0 439.0,215.0 440.0,209.0 441.0,205.0 442.0,211.0 443.0,217.0 444.0,216.0 445.0,212.0 446.0,213.0 447.0,216.0 448.0,215.0 449.0,214.0 450.0,218.0 451.0,214.0 452.0,226.0 453.0,217.0 454.0,231.0 455.0,223.0 456.0,220.0 457.0,226.0 458.0,236.0 459.0,226.0 460.0,228.0 461.0,232.0 462.0,233.0 463.0,234.0 464.0,234.0 465.0,231.0 466.0,238.0 467.0,234.0 468.0,232.0 469.0,236.0 470.0,231.0 471.0,234.0 472.0,233.0 473.0,233.0 474.0,233.0 475.0,234.0 476.0,233.0 477.0,232.0 478.0,231.0 479.0,233.0 480.0,232.0 481.0,233.0 482.0,231.0 483.0,233.0 484.0,235.0 485.0,234.0 486.0,231.0 487.0,233.0 488.0,235.0 489.0,232.0 490.0,235.0 491.0,235.0 492.0,231.0 493.0,235.0 494.0,232.0 495.0,233.0 496.0,233.0 497.0,232.0 498.0,232.0 499.0,230.0 500.0,234.0 501.0,231.0 502.0,231.0 503.0,232.0 504.0,230.0 505.0,230.0 506.0,230.0 507.0,229.0 508.0,231.0 509.0,229.0 510.0,226.0 511.0,228.0 512.0,227.0 513.0,225.0 514.0,226.0 515.0,224.0 516.0,224.0 517.0,225.0 518.0,221.0 519.0,221.0 520.0,221.0 521.0,221.0 522.0,221.0 523.0,221.0 524.0,219.0 525.0,217.0 526.0,217.0 527.0,220.0 528.0,217.0 529.0,215.0 530.0,216.0 531.0,213.0 532.0,214.0 533.0,217.0 534.0,216.0 535.0,216.0 536.0,212.0 537.0,216.0 538.0,213.0 539.0,214.0 540.0,211.0 541.0,214.0 542.0,211.0 543.0,202.0 544.0,210.0 545.0,208.0 546.0,215.0 547.0,208.0 548.0,212.0 549.0,208.0 550.0,206.0 551.0,213.0 552.0,206.0 553.0,209.0 554.0,203.0 555.0,206.0 556.0,210.0 557.0,207.0 558.0,201.0 559.0,204.0 560.0,202.0 561.0,202.0 562.0,198.0 563.0,202.0 564.0,210.0 565.0,197.0 566.0,201.0 567.0,212.0 568.0,203.0 569.0,200.0 570.0,198.0 571.0,204.0 572.0,194.0 573.0,191.0 574.0,197.0 575.0,193.0 576.0,195.0 577.0,202.0 578.0,197.0 579.0,200.0 580.0,205.0 581.0,202.0 582.0,198.0 583.0,200.0 584.0,192.0 585.0,201.0 586.0,195.0 587.0,191.0 588.0,194.0 589.0,190.0 590.0,193.0 591.0,185.0 592.0,183.0 593.0,190.0 594.0,192.0 595.0,187.0 596.0,177.0 597.0,172.0 598.0,179.0 599.0,168.0 600.0,168.0 601.0,175.0 602.0,166.0 603.0,163.0 604.0,168.0 605.0,164.0 606.0,170.0 607.0,158.0 608.0,157.0 609.0,169.0 610.0,155.0 611.0,164.0 612.0,160.0 613.0,167.0 614.0,158.0 615.0,165.0 616.0,151.0 617.0,163.0 618.0,159.0 619.0,161.0 620.0,151.0 621.0,168.0 622.0,172.0 623.0,165.0 624.0,156.0 625.0,163.0 626.0,162.0 627.0,146.0 628.0,162.0 629.0,160.0 630.0,162.0 631.0,150.0 632.0,147.0 633.0,163.0 634.0,146.0 635.0,165.0 636.0,145.0 637.0,156.0 638.0,135.0 639.0,156.0 640.0,144.0 641.0,144.0 642.0,154.0 643.0,144.0 644.0,143.0 645.0,136.0 646.0,143.0 647.0,168.0 648.0,155.0 649.0,155.0 650.0,160.0 651.0,152.0 652.0,165.0 653.0,162.0 654.0,161.0 655.0,181.0 656.0,165.0" fill="none" stroke="#00ffff" />
	<polyline points="57.0,5.0 657.0,5.0" fill="none" stroke="#6d6d6d" />
	<polyline points="57.0,305.0 657.0,305.0" fill="none" stroke="#6d6d6d" />
	<polyline points="57.0,305.0 57.0,310.0" fill="none" stroke="#6d6d6d" />
	<polyline points="207.0,305.0 207.0,310.0" fill="none" stroke="#6d6d6d" />
	<polyline points="357.0,305.0 357.0,310.0" fill="none" stroke="#6d6d6d" />
	<polyline points="507.0,305.0 507.0,310.0" fill="none" stroke="#6d6d6d" />
	<polyline points="657.0,305.0 657.0,310.0" fill="none" stroke="#6d6d6d" />
	<polyline points="57.0,5.0 57.0,305.0" fill="none" stroke="#6d6d6d" />
	<polyline points="657.0,5.0 657.0,305.0" fill="none" stroke="#6d6d6d" />
	<polyline points="52.0,5.0 57.0,5.0" fill="none" stroke="#6d6d6d" />
	<polyline points="52.0,80.0 57.0,80.0" fill="none" stroke="#6d6d6d" />
	<polyline points="52.0,155.0 57.0,155.0" fill="none" stroke="#6d6d6d" />
	<polyline points="52.0,230.0 57.0,230.0" fill="none" stroke="#6d6d6d" />
	<polyline points="52.0,305.0 57.0,305.0" fill="none" stroke="#6d6d6d" />
	<text x="57.0" y="323.0" fill="#6d6d6d" font-family="Arial" font-size="9pt" text-anchor="middle">1</text>
	<text x="207.0" y="323.0" fill="#6d6d6d" font-family="Arial" font-size="9pt" text-anchor="middle">150</text>
	<text x="357.0" y="323.0" fill="#6d6d6d" font-family="Arial" font-size="9pt" text-anchor="middle">300</text>
	<text x="507.0" y="323.0" fill="#6d6d6d" font-family="Arial" font-size="9pt" text-anchor="middle">450</text>
	<text x="657.0" y="323.0" fill="#6d6d6d" font-family="Arial" font-size="9pt" text-anchor="middle">600</text>
	<text x="47.0" y="9.0" fill="#6d6d6d" font-family="Arial" font-size="9pt" text-anchor="end">0.129</text>
	<text x="47.0" y="84.0" fill="#6d6d6d" font-family="Arial" font-size="9pt" text-anchor="end">0.0807</text>
	<text x="47.0" y="159.0" fill="#6d6d6d" font-family="Arial" font-size="9pt" text-anchor="end">0.0323</text>
	<text x="47.0" y="234.0" fill="#6d6d6d" font-family="Arial" font-size="9pt" text-anchor="end">-0.016</text>
	<text x="47.0" y="309.0" fill="#6d6d6d" font-family="Arial" font-size="9pt" text-anchor="end">-0.0644</text>
</svg>
