<?xml version="1.0" encoding="UTF-8" standalone="no"?>
<!DOCTYPE svg PUBLIC "-//W3C//DTD SVG 1.1//EN" "http://www.w3.org/Graphics/SVG/1.1/DTD/svg11.dtd">
<svg xmlns="http://www.w3.org/2000/svg"  version="1.1" width="693.0" height="380.0" viewBox="-6.0 -12.0 687.0 368.0">
	<desc>LSD Plot - Sim_10c_teste3</desc>
	<polyline points="205.0,6.0 205.0,304.0" fill="none" stroke="#f0f0f0" />
	<polyline points="355.0,6.0 355.0,304.0" fill="none" stroke="#f0f0f0" />
	<polyline points="505.0,6.0 505.0,304.0" fill="none" stroke="#f0f0f0" />
	<polyline points="56.0,80.0 654.0,80.0" fill="none" stroke="#f0f0f0" />
	<polyline points="56.0,155.0 654.0,155.0" fill="none" stroke="#f0f0f0" />
	<polyline points="56.0,230.0 654.0,230.0" fill="none" stroke="#f0f0f0" />
	<text x="5.0" y="345.0" font-family="Arial" font-size="9pt">TB_Y_1</text>
	<text x="53.0" y="345.0" fill="#ff0000" font-family="Arial" font-size="9pt">TB_Y_2</text>
	<text x="101.0" y="345.0" fill="#008000" font-family="Arial" font-size="9pt">TB_Y_3</text>
	<text x="149.0" y="345.0" fill="#d0d000" font-family="Arial" font-size="9pt">TB_Y_4</text>
	<text x="197.0" y="345.0" fill="#fb46bc" font-family="Arial" font-size="9pt">TB_Y_5</text>
	<text x="245.0" y="345.0" fill="#0000ff" font-family="Arial" font-size="9pt">TB_Y_6</text>
	<text x="293.0" y="345.0" fill="#00bfff" font-family="Arial" font-size="9pt">TB_Y_7</text>
	<text x="341.0" y="345.0" fill="#4876ff" font-family="Arial" font-size="9pt">TB_Y_8</text>
	<text x="389.0" y="345.0" fill="#aeeeee" font-family="Arial" font-size="9pt">TB_Y_9</text>
	<text x="437.0" y="345.0" fill="#00ffff" font-family="Arial" font-size="9pt">TB_Y_10</text>
	<polyline points="55.0,94.0 56.0,93.0 57.0,94.0 58.0,93.0 59.0,94.0 60.0,93.0 61.0,93.0 62.0,93.0 63.0,94.0 64.0,93.0 65.0,93.0 66.0,93.0 67.0,94.0 68.0,93.0 69.0,93.0 70.0,94.0 71.0,93.0 72.0,93.0 73.0,94.0 74.0,92.0 75.0,93.0 76.0,93.0 77.0,94.0 78.0,93.0 79.0,93.0 80.0,94.0 81.0,93.0 82.0,91.0 83.0,94.0 84.0,93.0 85.0,92.0 86.0,91.0 87.0,91.0 88.0,93.0 89.0,91.0 90.0,92.0 91.0,92.0 92.0,93.0 93.0,92.0 94.0,93.0 95.0,92.0 96.0,90.0 97.0,91.0 98.0,90.0 99.0,91.0 100.0,90.0 101.0,90.0 102.0,90.0 103.0,90.0 104.0,90.0 105.0,88.0 106.0,87.0 107.0,87.0 108.0,86.0 109.0,86.0 110.0,86.0 111.0,88.0 112.0,90.0 113.0,92.0 114.0,91.0 115.0,92.0 116.0,92.0 117.0,94.0 118.0,93.0 119.0,93.0 120.0,92.0 121.0,94.0 122.0,93.0 123.0,94.0 124.0,92.0 125.0,94.0 126.0,94.0 127.0,94.0 128.0,94.0 129.0,94.0 130.0,94.0 131.0,94.0 132.0,94.0 133.0,95.0 134.0,95.0 135.0,95.0 136.0,94.0 137.0,94.0 138.0,97.0 139.0,94.0 140.0,95.0 141.0,95.0 142.0,95.0 143.0,95.0 144.0,95.0 145.0,95.0 146.0,95.0 147.0,95.0 148.0,95.0 149.0,95.0 150.0,95.0 151.0,95.0 152.0,95.0 153.0,95.0 154.0,95.0 155.0,95.0 156.0,95.0 157.0,95.0 158.0,95.0 159.0,95.0 160.0,95.0 161.0,94.0 162.0,95.0 163.0,94.0 164.0,94.0 165.0,95.0 166.0,95.0 167.0,93.0 168.0,94.0 169.0,95.0 170.0,94.0 171.0,94.0 172.0,94.0 173.0,94.0 174.0,93.0 175.0,94.0 176.0,94.0 177.0,93.0 178.0,93.0 179.0,94.0 180.0,93.0 181.0,92.0 182.0,91.0 183.0,96.0 184.0,93.0 185.0,94.0 186.0,93.0 187.0,93.0 188.0,92.0 189.0,93.0 190.0,93.0 191.0,92.0 192.0,91.0 193.0,91.0 194.0,91.0 195.0,91.0 196.0,91.0 197.0,93.0 198.0,91.0 199.0,91.0 200.0,90.0 201.0,91.0 202.0,92.0 203.0,91.0 204.0,90.0 205.0,91.0 206.0,91.0 207.0,91.0 208.0,89.0 209.0,91.0 210.0,90.0 211.0,90.0 212.0,90.0 213.0,89.0 214.0,89.0 215.0,91.0 216.0,90.0 217.0,90.0 218.0,88.0 219.0,89.0 220.0,90.0 221.0,90.0 222.0,89.0 223.0,90.0 224.0,90.0 225.0,90.0 226.0,90.0 227.0,89.0 228.0,87.0 229.0,87.0 230.0,90.0 231.0,90.0 232.0,90.0 233.0,89.0 234.0,90.0 235.0,89.0 236.0,90.0 237.0,89.0 238.0,90.0 239.0,89.0 240.0,88.0 241.0,87.0 242.0,88.0 243.0,87.0 244.0,88.0 245.0,88.0 246.0,84.0 247.0,85.0 248.0,85.0 249.0,85.0 250.0,84.0 251.0,84.0 252.0,82.0 253.0,82.0 254.0,83.0 255.0,79.0 256.0,80.0 257.0,78.0 258.0,77.0 259.0,75.0 260.0,75.0 261.0,75.0 262.0,76.0 263.0,78.0 264.0,86.0 265.0,84.0 266.0,87.0 267.0,87.0 268.0,89.0 269.0,90.0 270.0,88.0 271.0,89.0 272.0,86.0 273.0,87.0 274.0,84.0 275.0,86.0 276.0,86.0 277.0,86.0 278.0,84.0 279.0,87.0 280.0,83.0 281.0,85.0 282.0,80.0 283.0,85.0 284.0,75.0 285.0,76.0 286.0,82.0 287.0,85.0 288.0,82.0 289.0,85.0 290.0,84.0 291.0,87.0 292.0,88.0 293.0,88.0 294.0,89.0 295.0,87.0 296.0,88.0 297.0,83.0 298.0,91.0 299.0,89.0 300.0,89.0 301.0,88.0 302.0,90.0 303.0,89.0 304.0,91.0 305.0,89.0 306.0,86.0 307.0,87.0 308.0,91.0 309.0,87.0 310.0,88.0 311.0,86.0 312.0,85.0 313.0,87.0 314.0,86.0 315.0,88.0 316.0,88.0 317.0,88.0 318.0,87.0 319.0,89.0 320.0,87.0 321.0,86.0 322.0,87.0 323.0,89.0 324.0,87.0 325.0,88.0 326.0,86.0 327.0,87.0 328.0,87.0 329.0,87.0 330.0,88.0 331.0,86.0 332.0,86.0 333.0,88.0 334.0,85.0 335.0,86.0 336.0,88.0 337.0,87.0 338.0,88.0 339.0,86.0 340.0,86.0 341.0,90.0 342.0,87.0 343.0,87.0 344.0,90.0 345.0,88.0 346.0,86.0 347.0,88.0 348.0,85.0 349.0,88.0 350.0,88.0 351.0,88.0 352.0,88.0 353.0,87.0 354.0,87.0 355.0,87.0 356.0,86.0 357.0,87.0 358.0,87.0 359.0,87.0 360.0,84.0 361.0,87.0 362.0,83.0 363.0,84.0 364.0,81.0 365.0,82.0 366.0,77.0 367.0,82.0 368.0,75.0 369.0,76.0 370.0,80.0 371.0,78.0 372.0,81.0 373.0,74.0 374.0,79.0 375.0,80.0 376.0,82.0 377.0,81.0 378.0,82.0 379.0,83.0 380.0,82.0 381.0,90.0 382.0,83.0 383.0,85.0 384.0,87.0 385.0,86.0 386.0,86.0 387.0,88.0 388.0,89.0 389.0,87.0 390.0,88.0 391.0,88.0 392.0,87.0 393.0,87.0 394.0,86.0 395.0,89.0 396.0,87.0 397.0,87.0 398.0,87.0 399.0,89.0 400.0,90.0 401.0,90.0 402.0,91.0 403.0,92.0 404.0,91.0 405.0,91.0 406.0,91.0 407.0,91.0 408.0,92.0 409.0,93.0 410.0,92.0 411.0,91.0 412.0,92.0 413.0,92.0 414.0,93.0 415.0,93.0 416.0,93.0 417.0,94.0 418.0,93.0 419.0,93.0 420.0,93.0 421.0,93.0 422.0,93.0 423.0,93.0 424.0,93.0 425.0,92.0 426.0,94.0 427.0,93.0 428.0,93.0 429.0,93.0 430.0,93.0 431.0,93.0 432.0,94.0 433.0,94.0 434.0,94.0 435.0,94.0 436.0,94.0 437.0,93.0 438.0,94.0 439.0,94.0 440.0,94.0 441.0,93.0 442.0,94.0 443.0,93.0 444.0,94.0 445.0,94.0 446.0,93.0 447.0,94.0 448.0,94.0 449.0,94.0 450.0,93.0 451.0,93.0 452.0,94.0 453.0,93.0 454.0,93.0 455.0,93.0 456.0,93.0 457.0,93.0 458.0,92.0 459.0,92.0 460.0,92.0 461.0,92.0 462.0,90.0 463.0,88.0 464.0,89.0 465.0,85.0 466.0,84.0 467.0,80.0 468.0,82.0 469.0,76.0 470.0,77.0 471.0,69.0 472.0,72.0 473.0,65.0 474.0,65.0 475.0,56.0 476.0,67.0 477.0,47.0 478.0,65.0 479.0,41.0 480.0,62.0 481.0,42.0 482.0,61.0 483.0,47.0 484.0,57.0 485.0,57.0 486.0,52.0 487.0,72.0 488.0,57.0 489.0,84.0 490.0,65.0 491.0,83.0 492.0,71.0 493.0,78.0 494.0,72.0 495.0,72.0 496.0,72.0 497.0,70.0 498.0,71.0 499.0,71.0 500.0,78.0 501.0,69.0 502.0,77.0 503.0,75.0 504.0,73.0 505.0,74.0 506.0,75.0 507.0,75.0 508.0,72.0 509.0,76.0 510.0,77.0 511.0,73.0 512.0,78.0 513.0,77.0 514.0,76.0 515.0,78.0 516.0,85.0 517.0,79.0 518.0,83.0 519.0,86.0 520.0,84.0 521.0,88.0 522.0,91.0 523.0,86.0 524.0,91.0 525.0,90.0 526.0,89.0 527.0,89.0 528.0,90.0 529.0,87.0 530.0,89.0 531.0,86.0 532.0,86.0 533.0,84.0 534.0,85.0 535.0,82.0 536.0,85.0 537.0,80.0 538.0,82.0 539.0,82.0 540.0,83.0 541.0,80.0 542.0,82.0 543.0,85.0 544.0,88.0 545.0,88.0 546.0,94.0 547.0,94.0 548.0,96.0 549.0,96.0 550.0,98.0 551.0,99.0 552.0,99.0 553.0,98.0 554.0,98.0 555.0,97.0 556.0,97.0 557.0,96.0 558.0,97.0 559.0,96.0 560.0,96.0 561.0,95.0 562.0,97.0 563.0,95.0 564.0,97.0 565.0,95.0 566.0,96.0 567.0,94.0 568.0,96.0 569.0,93.0 570.0,96.0 571.0,92.0 572.0,95.0 573.0,91.0 574.0,94.0 575.0,90.0 576.0,94.0 577.0,91.0 578.0,93.0 579.0,92.0 580.0,93.0 581.0,93.0 582.0,94.0 583.0,93.0 584.0,94.0 585.0,93.0 586.0,94.0 587.0,93.0 588.0,94.0 589.0,93.0 590.0,94.0 591.0,92.0 592.0,94.0 593.0,92.0 594.0,94.0 595.0,92.0 596.0,94.0 597.0,92.0 598.0,94.0 599.0,92.0 600.0,94.0 601.0,92.0 602.0,94.0 603.0,93.0 604.0,94.0 605.0,93.0 606.0,94.0 607.0,93.0 608.0,94.0 609.0,94.0 610.0,94.0 611.0,94.0 612.0,95.0 613.0,95.0 614.0,95.0 615.0,95.0 616.0,95.0 617.0,96.0 618.0,96.0 619.0,96.0 620.0,96.0 621.0,96.0 622.0,96.0 623.0,96.0 624.0,96.0 625.0,96.0 626.0,96.0 627.0,96.0 628.0,96.0 629.0,96.0 630.0,97.0 631.0,96.0 632.0,97.0 633.0,96.0 634.0,97.0 635.0,95.0 636.0,97.0 637.0,95.0 638.0,97.0 639.0,95.0 640.0,97.0 641.0,94.0 642.0,97.0 643.0,94.0 644.0,97.0 645.0,94.0 646.0,97.0 647.0,93.0 648.0,97.0 649.0,93.0 650.0,97.0 651.0,93.0 652.0,97.0 653.0,92.0 654.0,96.0" fill="none" stroke="#000000" />
	<polyline points="55.0,96.0 56.0,96.0 57.0,97.0 58.0,97.0 59.0,97.0 60.0,97.0 61.0,97.0 62.0,97.0 63.0,97.0 64.0,97.0 65.0,97.0 66.0,97.0 67.0,97.0 68.0,97.0 69.0,97.0 70.0,97.0 71.0,96.0 72.0,97.0 73.0,97.0 74.0,97.0 75.0,97.0 76.0,97.0 77.0,97.0 78.0,97.0 79.0,97.0 80.0,97.0 81.0,97.0 82.0,97.0 83.0,96.0 84.0,97.0 85.0,96.0 86.0,96.0 87.0,96.0 88.0,96.0 89.0,96.0 90.0,96.0 91.0,96.0 92.0,96.0 93.0,96.0 94.0,96.0 95.0,96.0 96.0,96.0 97.0,95.0 98.0,95.0 99.0,94.0 100.0,95.0 101.0,94.0 102.0,95.0 103.0,93.0 104.0,93.0 105.0,92.0 106.0,93.0 107.0,90.0 108.0,91.0 109.0,90.0 110.0,91.0 111.0,92.0 112.0,92.0 113.0,93.0 114.0,93.0 115.0,93.0 116.0,93.0 117.0,93.0 118.0,94.0 119.0,94.0 120.0,94.0 121.0,94.0 122.0,94.0 123.0,94.0 124.0,94.0 125.0,95.0 126.0,95.0 127.0,95.0 128.0,95.0 129.0,95.0 130.0,95.0 131.0,95.0 132.0,96.0 133.0,96.0 134.0,96.0 135.0,96.0 136.0,96.0 137.0,96.0 138.0,97.0 139.0,96.0 140.0,96.0 141.0,96.0 142.0,96.0 143.0,96.0 144.0,96.0 145.0,96.0 146.0,96.0 147.0,96.0 148.0,96.0 149.0,96.0 150.0,96.0 151.0,96.0 152.0,96.0 153.0,96.0 154.0,96.0 155.0,96.0 156.0,96.0 157.0,96.0 158.0,96.0 159.0,96.0 160.0,96.0 161.0,96.0 162.0,96.0 163.0,96.0 164.0,96.0 165.0,95.0 166.0,96.0 167.0,95.0 168.0,95.0 169.0,95.0 170.0,96.0 171.0,95.0 172.0,95.0 173.0,95.0 174.0,95.0 175.0,94.0 176.0,95.0 177.0,95.0 178.0,95.0 179.0,95.0 180.0,96.0 181.0,95.0 182.0,95.0 183.0,96.0 184.0,95.0 185.0,96.0 186.0,95.0 187.0,96.0 188.0,95.0 189.0,95.0 190.0,95.0 191.0,95.0 192.0,95.0 193.0,95.0 194.0,95.0 195.0,95.0 196.0,94.0 197.0,94.0 198.0,96.0 199.0,95.0 200.0,95.0 201.0,95.0 202.0,95.0 203.0,95.0 204.0,95.0 205.0,95.0 206.0,95.0 207.0,95.0 208.0,95.0 209.0,95.0 210.0,95.0 211.0,95.0 212.0,95.0 213.0,95.0 214.0,95.0 215.0,95.0 216.0,94.0 217.0,95.0 218.0,94.0 219.0,94.0 220.0,94.0 221.0,94.0 222.0,94.0 223.0,94.0 224.0,94.0 225.0,94.0 226.0,94.0 227.0,94.0 228.0,93.0 229.0,93.0 230.0,93.0 231.0,93.0 232.0,93.0 233.0,93.0 234.0,93.0 235.0,92.0 236.0,92.0 237.0,91.0 238.0,92.0 239.0,91.0 240.0,92.0 241.0,91.0 242.0,92.0 243.0,92.0 244.0,92.0 245.0,93.0 246.0,93.0 247.0,91.0 248.0,93.0 249.0,92.0 250.0,92.0 251.0,91.0 252.0,92.0 253.0,91.0 254.0,91.0 255.0,91.0 256.0,91.0 257.0,89.0 258.0,90.0 259.0,89.0 260.0,90.0 261.0,88.0 262.0,90.0 263.0,89.0 264.0,91.0 265.0,90.0 266.0,91.0 267.0,92.0 268.0,92.0 269.0,92.0 270.0,92.0 271.0,92.0 272.0,91.0 273.0,92.0 274.0,91.0 275.0,91.0 276.0,91.0 277.0,91.0 278.0,90.0 279.0,91.0 280.0,89.0 281.0,90.0 282.0,87.0 283.0,89.0 284.0,88.0 285.0,91.0 286.0,87.0 287.0,91.0 288.0,90.0 289.0,91.0 290.0,90.0 291.0,92.0 292.0,91.0 293.0,92.0 294.0,91.0 295.0,92.0 296.0,93.0 297.0,92.0 298.0,91.0 299.0,92.0 300.0,92.0 301.0,92.0 302.0,92.0 303.0,92.0 304.0,93.0 305.0,93.0 306.0,93.0 307.0,93.0 308.0,92.0 309.0,93.0 310.0,93.0 311.0,93.0 312.0,94.0 313.0,94.0 314.0,93.0 315.0,93.0 316.0,92.0 317.0,93.0 318.0,93.0 319.0,94.0 320.0,93.0 321.0,93.0 322.0,93.0 323.0,93.0 324.0,93.0 325.0,94.0 326.0,92.0 327.0,93.0 328.0,93.0 329.0,94.0 330.0,93.0 331.0,93.0 332.0,93.0 333.0,92.0 334.0,93.0 335.0,92.0 336.0,93.0 337.0,92.0 338.0,92.0 339.0,92.0 340.0,92.0 341.0,93.0 342.0,92.0 343.0,92.0 344.0,90.0 345.0,92.0 346.0,91.0 347.0,92.0 348.0,90.0 349.0,91.0 350.0,89.0 351.0,90.0 352.0,89.0 353.0,91.0 354.0,89.0 355.0,90.0 356.0,88.0 357.0,88.0 358.0,87.0 359.0,89.0 360.0,85.0 361.0,87.0 362.0,81.0 363.0,85.0 364.0,79.0 365.0,81.0 366.0,76.0 367.0,81.0 368.0,79.0 369.0,82.0 370.0,84.0 371.0,82.0 372.0,85.0 373.0,85.0 374.0,88.0 375.0,86.0 376.0,91.0 377.0,90.0 378.0,91.0 379.0,92.0 380.0,91.0 381.0,90.0 382.0,93.0 383.0,93.0 384.0,91.0 385.0,92.0 386.0,90.0 387.0,91.0 388.0,90.0 389.0,90.0 390.0,91.0 391.0,91.0 392.0,91.0 393.0,91.0 394.0,90.0 395.0,91.0 396.0,92.0 397.0,91.0 398.0,91.0 399.0,92.0 400.0,91.0 401.0,91.0 402.0,90.0 403.0,89.0 404.0,89.0 405.0,90.0 406.0,90.0 407.0,91.0 408.0,90.0 409.0,89.0 410.0,91.0 411.0,91.0 412.0,90.0 413.0,90.0 414.0,92.0 415.0,90.0 416.0,90.0 417.0,89.0 418.0,91.0 419.0,91.0 420.0,89.0 421.0,89.0 422.0,90.0 423.0,88.0 424.0,90.0 425.0,91.0 426.0,90.0 427.0,91.0 428.0,90.0 429.0,90.0 430.0,91.0 431.0,89.0 432.0,90.0 433.0,93.0 434.0,90.0 435.0,89.0 436.0,91.0 437.0,89.0 438.0,89.0 439.0,90.0 440.0,89.0 441.0,90.0 442.0,92.0 443.0,91.0 444.0,91.0 445.0,91.0 446.0,90.0 447.0,89.0 448.0,91.0 449.0,90.0 450.0,89.0 451.0,90.0 452.0,90.0 453.0,90.0 454.0,89.0 455.0,91.0 456.0,90.0 457.0,91.0 458.0,90.0 459.0,89.0 460.0,91.0 461.0,89.0 462.0,90.0 463.0,89.0 464.0,90.0 465.0,89.0 466.0,90.0 467.0,89.0 468.0,90.0 469.0,90.0 470.0,91.0 471.0,89.0 472.0,91.0 473.0,89.0 474.0,89.0 475.0,88.0 476.0,90.0 477.0,86.0 478.0,89.0 479.0,86.0 480.0,88.0 481.0,86.0 482.0,87.0 483.0,87.0 484.0,87.0 485.0,89.0 486.0,88.0 487.0,91.0 488.0,87.0 489.0,92.0 490.0,90.0 491.0,92.0 492.0,90.0 493.0,91.0 494.0,90.0 495.0,90.0 496.0,93.0 497.0,91.0 498.0,93.0 499.0,91.0 500.0,92.0 501.0,91.0 502.0,93.0 503.0,91.0 504.0,92.0 505.0,92.0 506.0,93.0 507.0,93.0 508.0,92.0 509.0,93.0 510.0,92.0 511.0,92.0 512.0,93.0 513.0,92.0 514.0,93.0 515.0,92.0 516.0,92.0 517.0,92.0 518.0,91.0 519.0,91.0 520.0,91.0 521.0,90.0 522.0,89.0 523.0,89.0 524.0,87.0 525.0,86.0 526.0,84.0 527.0,83.0 528.0,82.0 529.0,81.0 530.0,82.0 531.0,80.0 532.0,81.0 533.0,83.0 534.0,86.0 535.0,82.0 536.0,85.0 537.0,84.0 538.0,88.0 539.0,86.0 540.0,86.0 541.0,84.0 542.0,84.0 543.0,85.0 544.0,88.0 545.0,84.0 546.0,81.0 547.0,82.0 548.0,83.0 549.0,77.0 550.0,77.0 551.0,84.0 552.0,83.0 553.0,84.0 554.0,86.0 555.0,88.0 556.0,89.0 557.0,88.0 558.0,88.0 559.0,87.0 560.0,87.0 561.0,85.0 562.0,88.0 563.0,85.0 564.0,86.0 565.0,81.0 566.0,82.0 567.0,72.0 568.0,79.0 569.0,70.0 570.0,84.0 571.0,70.0 572.0,85.0 573.0,69.0 574.0,86.0 575.0,69.0 576.0,86.0 577.0,78.0 578.0,87.0 579.0,87.0 580.0,89.0 581.0,90.0 582.0,89.0 583.0,90.0 584.0,88.0 585.0,89.0 586.0,89.0 587.0,89.0 588.0,90.0 589.0,88.0 590.0,90.0 591.0,89.0 592.0,91.0 593.0,90.0 594.0,91.0 595.0,91.0 596.0,93.0 597.0,90.0 598.0,93.0 599.0,91.0 600.0,93.0 601.0,91.0 602.0,94.0 603.0,92.0 604.0,94.0 605.0,92.0 606.0,93.0 607.0,93.0 608.0,94.0 609.0,93.0 610.0,93.0 611.0,94.0 612.0,94.0 613.0,94.0 614.0,94.0 615.0,94.0 616.0,94.0 617.0,95.0 618.0,95.0 619.0,95.0 620.0,95.0 621.0,95.0 622.0,95.0 623.0,95.0 624.0,95.0 625.0,95.0 626.0,95.0 627.0,95.0 628.0,96.0 629.0,95.0 630.0,96.0 631.0,95.0 632.0,96.0 633.0,95.0 634.0,96.0 635.0,94.0 636.0,95.0 637.0,94.0 638.0,96.0 639.0,94.0 640.0,96.0 641.0,93.0 642.0,95.0 643.0,93.0 644.0,96.0 645.0,93.0 646.0,96.0 647.0,92.0 648.0,95.0 649.0,92.0 650.0,95.0 651.0,91.0 652.0,95.0 653.0,91.0 654.0,95.0" fill="none" stroke="#ff0000" />
	<polyline points="55.0,74.0 56.0,78.0 57.0,73.0 58.0,72.0 59.0,75.0 60.0,77.0 61.0,78.0 62.0,76.0 63.0,74.0 64.0,75.0 65.0,76.0 66.0,79.0 67.0,74.0 68.0,76.0 69.0,75.0 70.0,79.0 71.0,76.0 72.0,77.0 73.0,77.0 74.0,78.0 75.0,77.0 76.0,75.0 77.0,78.0 78.0,76.0 79.0,79.0 80.0,77.0 81.0,74.0 82.0,76.0 83.0,79.0 84.0,75.0 85.0,79.0 86.0,78.0 87.0,74.0 88.0,79.0 89.0,76.0 90.0,77.0 91.0,77.0 92.0,75.0 93.0,75.0 94.0,78.0 95.0,74.0 96.0,76.0 97.0,71.0 98.0,77.0 99.0,69.0 100.0,75.0 101.0,65.0 102.0,68.0 103.0,65.0 104.0,71.0 105.0,60.0 106.0,67.0 107.0,56.0 108.0,66.0 109.0,66.0 110.0,75.0 111.0,82.0 112.0,87.0 113.0,93.0 114.0,90.0 115.0,90.0 116.0,92.0 117.0,89.0 118.0,91.0 119.0,95.0 120.0,89.0 121.0,94.0 122.0,93.0 123.0,92.0 124.0,92.0 125.0,95.0 126.0,95.0 127.0,94.0 128.0,97.0 129.0,97.0 130.0,96.0 131.0,98.0 132.0,98.0 133.0,99.0 134.0,99.0 135.0,100.0 136.0,99.0 137.0,100.0 138.0,100.0 139.0,100.0 140.0,100.0 141.0,100.0 142.0,100.0 143.0,100.0 144.0,100.0 145.0,99.0 146.0,100.0 147.0,100.0 148.0,99.0 149.0,100.0 150.0,99.0 151.0,99.0 152.0,99.0 153.0,99.0 154.0,99.0 155.0,99.0 156.0,99.0 157.0,99.0 158.0,99.0 159.0,99.0 160.0,99.0 161.0,99.0 162.0,99.0 163.0,99.0 164.0,99.0 165.0,99.0 166.0,99.0 167.0,99.0 168.0,99.0 169.0,98.0 170.0,99.0 171.0,98.0 172.0,99.0 173.0,98.0 174.0,98.0 175.0,97.0 176.0,97.0 177.0,96.0 178.0,96.0 179.0,97.0 180.0,96.0 181.0,95.0 182.0,95.0 183.0,96.0 184.0,94.0 185.0,95.0 186.0,93.0 187.0,94.0 188.0,94.0 189.0,94.0 190.0,93.0 191.0,93.0 192.0,92.0 193.0,93.0 194.0,92.0 195.0,92.0 196.0,92.0 197.0,91.0 198.0,90.0 199.0,89.0 200.0,88.0 201.0,88.0 202.0,88.0 203.0,87.0 204.0,89.0 205.0,86.0 206.0,88.0 207.0,89.0 208.0,88.0 209.0,89.0 210.0,87.0 211.0,90.0 212.0,90.0 213.0,90.0 214.0,90.0 215.0,89.0 216.0,88.0 217.0,91.0 218.0,88.0 219.0,90.0 220.0,90.0 221.0,90.0 222.0,91.0 223.0,91.0 224.0,91.0 225.0,91.0 226.0,91.0 227.0,92.0 228.0,91.0 229.0,91.0 230.0,92.0 231.0,92.0 232.0,93.0 233.0,92.0 234.0,92.0 235.0,92.0 236.0,92.0 237.0,91.0 238.0,92.0 239.0,91.0 240.0,92.0 241.0,91.0 242.0,91.0 243.0,92.0 244.0,90.0 245.0,91.0 246.0,91.0 247.0,91.0 248.0,91.0 249.0,89.0 250.0,90.0 251.0,90.0 252.0,90.0 253.0,88.0 254.0,88.0 255.0,88.0 256.0,90.0 257.0,87.0 258.0,89.0 259.0,85.0 260.0,87.0 261.0,83.0 262.0,84.0 263.0,81.0 264.0,85.0 265.0,85.0 266.0,87.0 267.0,87.0 268.0,88.0 269.0,90.0 270.0,90.0 271.0,89.0 272.0,90.0 273.0,90.0 274.0,88.0 275.0,90.0 276.0,87.0 277.0,90.0 278.0,87.0 279.0,88.0 280.0,85.0 281.0,89.0 282.0,84.0 283.0,89.0 284.0,80.0 285.0,88.0 286.0,78.0 287.0,86.0 288.0,81.0 289.0,88.0 290.0,85.0 291.0,88.0 292.0,90.0 293.0,87.0 294.0,88.0 295.0,89.0 296.0,91.0 297.0,89.0 298.0,90.0 299.0,89.0 300.0,90.0 301.0,88.0 302.0,88.0 303.0,91.0 304.0,87.0 305.0,88.0 306.0,90.0 307.0,89.0 308.0,90.0 309.0,90.0 310.0,90.0 311.0,90.0 312.0,90.0 313.0,92.0 314.0,88.0 315.0,92.0 316.0,89.0 317.0,91.0 318.0,89.0 319.0,92.0 320.0,88.0 321.0,89.0 322.0,90.0 323.0,90.0 324.0,88.0 325.0,91.0 326.0,89.0 327.0,89.0 328.0,90.0 329.0,90.0 330.0,88.0 331.0,90.0 332.0,88.0 333.0,90.0 334.0,87.0 335.0,91.0 336.0,89.0 337.0,87.0 338.0,87.0 339.0,89.0 340.0,89.0 341.0,90.0 342.0,88.0 343.0,90.0 344.0,90.0 345.0,89.0 346.0,86.0 347.0,91.0 348.0,88.0 349.0,88.0 350.0,87.0 351.0,89.0 352.0,88.0 353.0,90.0 354.0,86.0 355.0,90.0 356.0,86.0 357.0,87.0 358.0,84.0 359.0,89.0 360.0,82.0 361.0,89.0 362.0,80.0 363.0,90.0 364.0,79.0 365.0,88.0 366.0,78.0 367.0,87.0 368.0,80.0 369.0,87.0 370.0,83.0 371.0,85.0 372.0,86.0 373.0,86.0 374.0,90.0 375.0,88.0 376.0,91.0 377.0,92.0 378.0,93.0 379.0,92.0 380.0,93.0 381.0,93.0 382.0,92.0 383.0,93.0 384.0,93.0 385.0,94.0 386.0,92.0 387.0,92.0 388.0,92.0 389.0,92.0 390.0,92.0 391.0,92.0 392.0,91.0 393.0,91.0 394.0,89.0 395.0,90.0 396.0,89.0 397.0,91.0 398.0,90.0 399.0,89.0 400.0,89.0 401.0,91.0 402.0,89.0 403.0,88.0 404.0,87.0 405.0,87.0 406.0,89.0 407.0,87.0 408.0,91.0 409.0,89.0 410.0,87.0 411.0,87.0 412.0,91.0 413.0,88.0 414.0,89.0 415.0,87.0 416.0,88.0 417.0,89.0 418.0,90.0 419.0,89.0 420.0,86.0 421.0,89.0 422.0,91.0 423.0,88.0 424.0,91.0 425.0,87.0 426.0,90.0 427.0,90.0 428.0,89.0 429.0,88.0 430.0,88.0 431.0,89.0 432.0,90.0 433.0,86.0 434.0,90.0 435.0,85.0 436.0,90.0 437.0,91.0 438.0,88.0 439.0,89.0 440.0,87.0 441.0,90.0 442.0,88.0 443.0,88.0 444.0,87.0 445.0,89.0 446.0,89.0 447.0,88.0 448.0,87.0 449.0,93.0 450.0,89.0 451.0,89.0 452.0,90.0 453.0,88.0 454.0,88.0 455.0,88.0 456.0,90.0 457.0,89.0 458.0,91.0 459.0,88.0 460.0,87.0 461.0,90.0 462.0,91.0 463.0,90.0 464.0,92.0 465.0,90.0 466.0,92.0 467.0,90.0 468.0,93.0 469.0,91.0 470.0,94.0 471.0,92.0 472.0,96.0 473.0,94.0 474.0,95.0 475.0,91.0 476.0,95.0 477.0,91.0 478.0,94.0 479.0,89.0 480.0,92.0 481.0,89.0 482.0,92.0 483.0,90.0 484.0,91.0 485.0,91.0 486.0,91.0 487.0,93.0 488.0,91.0 489.0,93.0 490.0,92.0 491.0,94.0 492.0,92.0 493.0,93.0 494.0,92.0 495.0,93.0 496.0,93.0 497.0,93.0 498.0,93.0 499.0,92.0 500.0,94.0 501.0,93.0 502.0,94.0 503.0,94.0 504.0,95.0 505.0,94.0 506.0,95.0 507.0,95.0 508.0,95.0 509.0,95.0 510.0,95.0 511.0,94.0 512.0,95.0 513.0,93.0 514.0,93.0 515.0,93.0 516.0,93.0 517.0,92.0 518.0,90.0 519.0,87.0 520.0,88.0 521.0,87.0 522.0,89.0 523.0,86.0 524.0,89.0 525.0,89.0 526.0,92.0 527.0,90.0 528.0,90.0 529.0,93.0 530.0,90.0 531.0,91.0 532.0,94.0 533.0,91.0 534.0,92.0 535.0,93.0 536.0,93.0 537.0,93.0 538.0,94.0 539.0,93.0 540.0,94.0 541.0,93.0 542.0,92.0 543.0,92.0 544.0,92.0 545.0,90.0 546.0,89.0 547.0,87.0 548.0,88.0 549.0,88.0 550.0,91.0 551.0,88.0 552.0,91.0 553.0,87.0 554.0,89.0 555.0,87.0 556.0,90.0 557.0,90.0 558.0,89.0 559.0,88.0 560.0,92.0 561.0,87.0 562.0,90.0 563.0,87.0 564.0,99.0 565.0,90.0 566.0,95.0 567.0,91.0 568.0,95.0 569.0,89.0 570.0,94.0 571.0,87.0 572.0,94.0 573.0,83.0 574.0,93.0 575.0,83.0 576.0,92.0 577.0,85.0 578.0,91.0 579.0,89.0 580.0,91.0 581.0,93.0 582.0,92.0 583.0,90.0 584.0,92.0 585.0,91.0 586.0,91.0 587.0,89.0 588.0,90.0 589.0,87.0 590.0,89.0 591.0,84.0 592.0,86.0 593.0,85.0 594.0,86.0 595.0,81.0 596.0,84.0 597.0,80.0 598.0,83.0 599.0,76.0 600.0,83.0 601.0,77.0 602.0,84.0 603.0,75.0 604.0,83.0 605.0,76.0 606.0,83.0 607.0,80.0 608.0,82.0 609.0,86.0 610.0,82.0 611.0,86.0 612.0,79.0 613.0,84.0 614.0,81.0 615.0,85.0 616.0,82.0 617.0,87.0 618.0,84.0 619.0,85.0 620.0,84.0 621.0,82.0 622.0,84.0 623.0,83.0 624.0,82.0 625.0,84.0 626.0,82.0 627.0,83.0 628.0,80.0 629.0,84.0 630.0,85.0 631.0,81.0 632.0,82.0 633.0,79.0 634.0,84.0 635.0,81.0 636.0,85.0 637.0,77.0 638.0,84.0 639.0,80.0 640.0,84.0 641.0,75.0 642.0,81.0 643.0,74.0 644.0,85.0 645.0,78.0 646.0,87.0 647.0,71.0 648.0,87.0 649.0,71.0 650.0,86.0 651.0,69.0 652.0,87.0 653.0,73.0 654.0,93.0" fill="none" stroke="#008000" />
	<polyline points="55.0,99.0 56.0,73.0 57.0,93.0 58.0,75.0 59.0,91.0 60.0,78.0 61.0,90.0 62.0,75.0 63.0,88.0 64.0,81.0 65.0,83.0 66.0,73.0 67.0,88.0 68.0,73.0 69.0,87.0 70.0,72.0 71.0,92.0 72.0,71.0 73.0,88.0 74.0,69.0 75.0,94.0 76.0,77.0 77.0,93.0 78.0,73.0 79.0,86.0 80.0,70.0 81.0,99.0 82.0,73.0 83.0,98.0 84.0,69.0 85.0,101.0 86.0,68.0 87.0,102.0 88.0,60.0 89.0,106.0 90.0,61.0 91.0,117.0 92.0,60.0 93.0,120.0 94.0,53.0 95.0,125.0 96.0,50.0 97.0,147.0 98.0,47.0 99.0,166.0 100.0,37.0 101.0,191.0 102.0,32.0 103.0,219.0 104.0,24.0 105.0,249.0 106.0,18.0 107.0,293.0 108.0,10.0 109.0,291.0 110.0,6.0 111.0,237.0 112.0,20.0 113.0,162.0 114.0,35.0 115.0,131.0 116.0,49.0 117.0,118.0 118.0,53.0 119.0,98.0 120.0,57.0 121.0,95.0 122.0,60.0 123.0,95.0 124.0,60.0 125.0,89.0 126.0,61.0 127.0,87.0 128.0,66.0 129.0,77.0 130.0,75.0 131.0,77.0 132.0,71.0 133.0,76.0 134.0,75.0 135.0,80.0 136.0,72.0 137.0,80.0 138.0,74.0 139.0,80.0 140.0,76.0 141.0,80.0 142.0,73.0 143.0,78.0 144.0,75.0 145.0,84.0 146.0,74.0 147.0,80.0 148.0,75.0 149.0,82.0 150.0,75.0 151.0,81.0 152.0,75.0 153.0,83.0 154.0,75.0 155.0,80.0 156.0,73.0 157.0,72.0 158.0,76.0 159.0,79.0 160.0,78.0 161.0,78.0 162.0,75.0 163.0,76.0 164.0,76.0 165.0,75.0 166.0,75.0 167.0,78.0 168.0,77.0 169.0,80.0 170.0,73.0 171.0,80.0 172.0,69.0 173.0,85.0 174.0,74.0 175.0,79.0 176.0,71.0 177.0,80.0 178.0,73.0 179.0,82.0 180.0,70.0 181.0,83.0 182.0,68.0 183.0,81.0 184.0,71.0 185.0,84.0 186.0,68.0 187.0,84.0 188.0,75.0 189.0,84.0 190.0,74.0 191.0,83.0 192.0,75.0 193.0,84.0 194.0,82.0 195.0,85.0 196.0,82.0 197.0,79.0 198.0,78.0 199.0,78.0 200.0,77.0 201.0,77.0 202.0,81.0 203.0,84.0 204.0,83.0 205.0,81.0 206.0,79.0 207.0,83.0 208.0,75.0 209.0,86.0 210.0,76.0 211.0,87.0 212.0,73.0 213.0,90.0 214.0,75.0 215.0,92.0 216.0,73.0 217.0,94.0 218.0,73.0 219.0,96.0 220.0,68.0 221.0,94.0 222.0,71.0 223.0,101.0 224.0,68.0 225.0,99.0 226.0,62.0 227.0,99.0 228.0,58.0 229.0,104.0 230.0,60.0 231.0,116.0 232.0,64.0 233.0,110.0 234.0,57.0 235.0,111.0 236.0,55.0 237.0,116.0 238.0,55.0 239.0,124.0 240.0,51.0 241.0,130.0 242.0,51.0 243.0,132.0 244.0,45.0 245.0,139.0 246.0,43.0 247.0,152.0 248.0,43.0 249.0,166.0 250.0,38.0 251.0,171.0 252.0,34.0 253.0,193.0 254.0,29.0 255.0,211.0 256.0,24.0 257.0,234.0 258.0,19.0 259.0,259.0 260.0,13.0 261.0,281.0 262.0,9.0 263.0,263.0 264.0,18.0 265.0,198.0 266.0,30.0 267.0,155.0 268.0,39.0 269.0,136.0 270.0,43.0 271.0,133.0 272.0,42.0 273.0,131.0 274.0,41.0 275.0,119.0 276.0,41.0 277.0,111.0 278.0,35.0 279.0,109.0 280.0,29.0 281.0,102.0 282.0,29.0 283.0,96.0 284.0,24.0 285.0,84.0 286.0,25.0 287.0,80.0 288.0,47.0 289.0,65.0 290.0,69.0 291.0,56.0 292.0,97.0 293.0,54.0 294.0,117.0 295.0,53.0 296.0,117.0 297.0,48.0 298.0,120.0 299.0,54.0 300.0,125.0 301.0,53.0 302.0,122.0 303.0,54.0 304.0,120.0 305.0,51.0 306.0,121.0 307.0,56.0 308.0,117.0 309.0,58.0 310.0,110.0 311.0,56.0 312.0,114.0 313.0,58.0 314.0,121.0 315.0,61.0 316.0,110.0 317.0,61.0 318.0,106.0 319.0,65.0 320.0,110.0 321.0,64.0 322.0,107.0 323.0,63.0 324.0,107.0 325.0,65.0 326.0,109.0 327.0,65.0 328.0,106.0 329.0,64.0 330.0,108.0 331.0,61.0 332.0,110.0 333.0,63.0 334.0,114.0 335.0,62.0 336.0,116.0 337.0,62.0 338.0,119.0 339.0,57.0 340.0,119.0 341.0,55.0 342.0,132.0 343.0,54.0 344.0,132.0 345.0,52.0 346.0,149.0 347.0,48.0 348.0,149.0 349.0,46.0 350.0,155.0 351.0,46.0 352.0,160.0 353.0,40.0 354.0,179.0 355.0,37.0 356.0,194.0 357.0,32.0 358.0,215.0 359.0,26.0 360.0,236.0 361.0,22.0 362.0,269.0 363.0,17.0 364.0,289.0 365.0,12.0 366.0,302.0 367.0,8.0 368.0,291.0 369.0,10.0 370.0,242.0 371.0,12.0 372.0,213.0 373.0,16.0 374.0,149.0 375.0,32.0 376.0,112.0 377.0,54.0 378.0,82.0 379.0,72.0 380.0,79.0 381.0,81.0 382.0,74.0 383.0,79.0 384.0,72.0 385.0,81.0 386.0,76.0 387.0,79.0 388.0,81.0 389.0,82.0 390.0,71.0 391.0,79.0 392.0,73.0 393.0,84.0 394.0,79.0 395.0,80.0 396.0,77.0 397.0,79.0 398.0,76.0 399.0,78.0 400.0,79.0 401.0,79.0 402.0,79.0 403.0,79.0 404.0,77.0 405.0,80.0 406.0,77.0 407.0,81.0 408.0,77.0 409.0,82.0 410.0,76.0 411.0,75.0 412.0,77.0 413.0,80.0 414.0,75.0 415.0,79.0 416.0,75.0 417.0,78.0 418.0,74.0 419.0,80.0 420.0,80.0 421.0,84.0 422.0,77.0 423.0,82.0 424.0,78.0 425.0,86.0 426.0,78.0 427.0,83.0 428.0,79.0 429.0,83.0 430.0,75.0 431.0,83.0 432.0,81.0 433.0,86.0 434.0,77.0 435.0,85.0 436.0,79.0 437.0,86.0 438.0,77.0 439.0,84.0 440.0,73.0 441.0,85.0 442.0,73.0 443.0,89.0 444.0,69.0 445.0,93.0 446.0,72.0 447.0,94.0 448.0,70.0 449.0,92.0 450.0,68.0 451.0,92.0 452.0,66.0 453.0,97.0 454.0,71.0 455.0,105.0 456.0,67.0 457.0,101.0 458.0,62.0 459.0,107.0 460.0,60.0 461.0,118.0 462.0,56.0 463.0,129.0 464.0,53.0 465.0,145.0 466.0,50.0 467.0,148.0 468.0,45.0 469.0,160.0 470.0,43.0 471.0,179.0 472.0,39.0 473.0,204.0 474.0,32.0 475.0,242.0 476.0,26.0 477.0,277.0 478.0,19.0 479.0,302.0 480.0,14.0 481.0,303.0 482.0,12.0 483.0,276.0 484.0,11.0 485.0,236.0 486.0,15.0 487.0,167.0 488.0,28.0 489.0,95.0 490.0,61.0 491.0,65.0 492.0,92.0 493.0,56.0 494.0,103.0 495.0,58.0 496.0,95.0 497.0,61.0 498.0,101.0 499.0,64.0 500.0,91.0 501.0,72.0 502.0,80.0 503.0,67.0 504.0,87.0 505.0,77.0 506.0,80.0 507.0,71.0 508.0,81.0 509.0,73.0 510.0,74.0 511.0,80.0 512.0,77.0 513.0,83.0 514.0,80.0 515.0,81.0 516.0,75.0 517.0,87.0 518.0,77.0 519.0,83.0 520.0,81.0 521.0,84.0 522.0,77.0 523.0,87.0 524.0,79.0 525.0,88.0 526.0,83.0 527.0,88.0 528.0,76.0 529.0,88.0 530.0,81.0 531.0,89.0 532.0,78.0 533.0,86.0 534.0,74.0 535.0,88.0 536.0,76.0 537.0,93.0 538.0,77.0 539.0,86.0 540.0,71.0 541.0,92.0 542.0,84.0 543.0,90.0 544.0,74.0 545.0,84.0 546.0,76.0 547.0,87.0 548.0,82.0 549.0,97.0 550.0,78.0 551.0,92.0 552.0,72.0 553.0,98.0 554.0,70.0 555.0,100.0 556.0,66.0 557.0,104.0 558.0,67.0 559.0,114.0 560.0,63.0 561.0,121.0 562.0,57.0 563.0,135.0 564.0,52.0 565.0,148.0 566.0,47.0 567.0,172.0 568.0,41.0 569.0,199.0 570.0,37.0 571.0,232.0 572.0,30.0 573.0,266.0 574.0,25.0 575.0,280.0 576.0,24.0 577.0,232.0 578.0,28.0 579.0,181.0 580.0,40.0 581.0,123.0 582.0,46.0 583.0,107.0 584.0,55.0 585.0,90.0 586.0,59.0 587.0,79.0 588.0,64.0 589.0,73.0 590.0,67.0 591.0,71.0 592.0,77.0 593.0,62.0 594.0,76.0 595.0,57.0 596.0,71.0 597.0,57.0 598.0,79.0 599.0,55.0 600.0,77.0 601.0,61.0 602.0,79.0 603.0,64.0 604.0,77.0 605.0,62.0 606.0,79.0 607.0,73.0 608.0,77.0 609.0,78.0 610.0,73.0 611.0,85.0 612.0,77.0 613.0,88.0 614.0,81.0 615.0,92.0 616.0,77.0 617.0,94.0 618.0,79.0 619.0,93.0 620.0,77.0 621.0,100.0 622.0,79.0 623.0,97.0 624.0,80.0 625.0,100.0 626.0,81.0 627.0,95.0 628.0,79.0 629.0,100.0 630.0,74.0 631.0,103.0 632.0,74.0 633.0,110.0 634.0,71.0 635.0,123.0 636.0,66.0 637.0,133.0 638.0,63.0 639.0,135.0 640.0,59.0 641.0,145.0 642.0,59.0 643.0,152.0 644.0,55.0 645.0,158.0 646.0,53.0 647.0,182.0 648.0,50.0 649.0,191.0 650.0,46.0 651.0,206.0 652.0,44.0 653.0,211.0 654.0,40.0" fill="none" stroke="#d0d000" />
	<polyline points="55.0,94.0 56.0,94.0 57.0,94.0 58.0,94.0 59.0,93.0 60.0,93.0 61.0,93.0 62.0,93.0 63.0,93.0 64.0,92.0 65.0,95.0 66.0,93.0 67.0,92.0 68.0,93.0 69.0,94.0 70.0,94.0 71.0,92.0 72.0,92.0 73.0,93.0 74.0,93.0 75.0,91.0 76.0,93.0 77.0,93.0 78.0,92.0 79.0,93.0 80.0,91.0 81.0,93.0 82.0,93.0 83.0,92.0 84.0,93.0 85.0,92.0 86.0,93.0 87.0,92.0 88.0,93.0 89.0,92.0 90.0,94.0 91.0,93.0 92.0,92.0 93.0,92.0 94.0,91.0 95.0,92.0 96.0,92.0 97.0,92.0 98.0,91.0 99.0,91.0 100.0,92.0 101.0,90.0 102.0,92.0 103.0,90.0 104.0,89.0 105.0,90.0 106.0,89.0 107.0,88.0 108.0,88.0 109.0,86.0 110.0,86.0 111.0,88.0 112.0,90.0 113.0,90.0 114.0,90.0 115.0,92.0 116.0,91.0 117.0,90.0 118.0,90.0 119.0,92.0 120.0,91.0 121.0,90.0 122.0,90.0 123.0,91.0 124.0,92.0 125.0,92.0 126.0,92.0 127.0,91.0 128.0,92.0 129.0,91.0 130.0,91.0 131.0,92.0 132.0,92.0 133.0,93.0 134.0,92.0 135.0,92.0 136.0,93.0 137.0,92.0 138.0,93.0 139.0,93.0 140.0,94.0 141.0,93.0 142.0,93.0 143.0,93.0 144.0,93.0 145.0,93.0 146.0,92.0 147.0,93.0 148.0,92.0 149.0,91.0 150.0,93.0 151.0,92.0 152.0,92.0 153.0,92.0 154.0,92.0 155.0,90.0 156.0,91.0 157.0,90.0 158.0,90.0 159.0,91.0 160.0,90.0 161.0,89.0 162.0,89.0 163.0,90.0 164.0,90.0 165.0,88.0 166.0,89.0 167.0,91.0 168.0,90.0 169.0,89.0 170.0,89.0 171.0,89.0 172.0,88.0 173.0,88.0 174.0,89.0 175.0,88.0 176.0,87.0 177.0,88.0 178.0,85.0 179.0,90.0 180.0,86.0 181.0,86.0 182.0,88.0 183.0,88.0 184.0,86.0 185.0,88.0 186.0,85.0 187.0,85.0 188.0,86.0 189.0,88.0 190.0,85.0 191.0,88.0 192.0,86.0 193.0,87.0 194.0,86.0 195.0,87.0 196.0,86.0 197.0,86.0 198.0,84.0 199.0,87.0 200.0,85.0 201.0,86.0 202.0,88.0 203.0,87.0 204.0,88.0 205.0,87.0 206.0,86.0 207.0,88.0 208.0,87.0 209.0,86.0 210.0,87.0 211.0,87.0 212.0,87.0 213.0,88.0 214.0,85.0 215.0,88.0 216.0,88.0 217.0,89.0 218.0,88.0 219.0,89.0 220.0,89.0 221.0,87.0 222.0,87.0 223.0,89.0 224.0,89.0 225.0,87.0 226.0,87.0 227.0,90.0 228.0,91.0 229.0,90.0 230.0,89.0 231.0,89.0 232.0,90.0 233.0,90.0 234.0,90.0 235.0,89.0 236.0,89.0 237.0,89.0 238.0,88.0 239.0,89.0 240.0,90.0 241.0,88.0 242.0,90.0 243.0,89.0 244.0,89.0 245.0,88.0 246.0,91.0 247.0,86.0 248.0,90.0 249.0,88.0 250.0,89.0 251.0,87.0 252.0,89.0 253.0,86.0 254.0,86.0 255.0,84.0 256.0,89.0 257.0,83.0 258.0,87.0 259.0,81.0 260.0,87.0 261.0,83.0 262.0,87.0 263.0,84.0 264.0,89.0 265.0,91.0 266.0,90.0 267.0,90.0 268.0,91.0 269.0,91.0 270.0,90.0 271.0,91.0 272.0,91.0 273.0,91.0 274.0,89.0 275.0,90.0 276.0,89.0 277.0,91.0 278.0,88.0 279.0,92.0 280.0,87.0 281.0,88.0 282.0,87.0 283.0,89.0 284.0,88.0 285.0,90.0 286.0,87.0 287.0,91.0 288.0,88.0 289.0,91.0 290.0,90.0 291.0,91.0 292.0,91.0 293.0,91.0 294.0,91.0 295.0,91.0 296.0,92.0 297.0,91.0 298.0,91.0 299.0,91.0 300.0,91.0 301.0,92.0 302.0,90.0 303.0,92.0 304.0,92.0 305.0,91.0 306.0,93.0 307.0,92.0 308.0,91.0 309.0,93.0 310.0,92.0 311.0,92.0 312.0,92.0 313.0,93.0 314.0,91.0 315.0,92.0 316.0,91.0 317.0,92.0 318.0,93.0 319.0,93.0 320.0,92.0 321.0,92.0 322.0,92.0 323.0,92.0 324.0,91.0 325.0,93.0 326.0,92.0 327.0,93.0 328.0,92.0 329.0,92.0 330.0,92.0 331.0,92.0 332.0,92.0 333.0,91.0 334.0,92.0 335.0,91.0 336.0,91.0 337.0,92.0 338.0,92.0 339.0,92.0 340.0,91.0 341.0,92.0 342.0,91.0 343.0,92.0 344.0,91.0 345.0,92.0 346.0,91.0 347.0,91.0 348.0,90.0 349.0,91.0 350.0,91.0 351.0,91.0 352.0,90.0 353.0,92.0 354.0,90.0 355.0,91.0 356.0,90.0 357.0,90.0 358.0,89.0 359.0,91.0 360.0,88.0 361.0,89.0 362.0,85.0 363.0,89.0 364.0,85.0 365.0,88.0 366.0,85.0 367.0,87.0 368.0,86.0 369.0,89.0 370.0,89.0 371.0,89.0 372.0,89.0 373.0,89.0 374.0,91.0 375.0,91.0 376.0,93.0 377.0,92.0 378.0,92.0 379.0,92.0 380.0,93.0 381.0,94.0 382.0,93.0 383.0,93.0 384.0,92.0 385.0,93.0 386.0,93.0 387.0,93.0 388.0,93.0 389.0,93.0 390.0,92.0 391.0,93.0 392.0,94.0 393.0,94.0 394.0,93.0 395.0,94.0 396.0,94.0 397.0,93.0 398.0,93.0 399.0,93.0 400.0,93.0 401.0,93.0 402.0,93.0 403.0,93.0 404.0,93.0 405.0,93.0 406.0,93.0 407.0,93.0 408.0,93.0 409.0,93.0 410.0,93.0 411.0,93.0 412.0,93.0 413.0,93.0 414.0,93.0 415.0,94.0 416.0,93.0 417.0,93.0 418.0,94.0 419.0,93.0 420.0,93.0 421.0,94.0 422.0,93.0 423.0,94.0 424.0,94.0 425.0,94.0 426.0,94.0 427.0,93.0 428.0,93.0 429.0,94.0 430.0,93.0 431.0,93.0 432.0,93.0 433.0,94.0 434.0,93.0 435.0,93.0 436.0,94.0 437.0,93.0 438.0,93.0 439.0,93.0 440.0,93.0 441.0,93.0 442.0,94.0 443.0,93.0 444.0,93.0 445.0,93.0 446.0,93.0 447.0,93.0 448.0,94.0 449.0,93.0 450.0,94.0 451.0,93.0 452.0,93.0 453.0,93.0 454.0,93.0 455.0,92.0 456.0,93.0 457.0,93.0 458.0,93.0 459.0,92.0 460.0,93.0 461.0,92.0 462.0,93.0 463.0,92.0 464.0,93.0 465.0,91.0 466.0,93.0 467.0,92.0 468.0,92.0 469.0,92.0 470.0,93.0 471.0,91.0 472.0,93.0 473.0,90.0 474.0,92.0 475.0,89.0 476.0,91.0 477.0,89.0 478.0,91.0 479.0,88.0 480.0,90.0 481.0,87.0 482.0,89.0 483.0,89.0 484.0,89.0 485.0,90.0 486.0,89.0 487.0,92.0 488.0,89.0 489.0,93.0 490.0,90.0 491.0,92.0 492.0,90.0 493.0,93.0 494.0,91.0 495.0,92.0 496.0,92.0 497.0,91.0 498.0,92.0 499.0,91.0 500.0,93.0 501.0,92.0 502.0,93.0 503.0,92.0 504.0,92.0 505.0,92.0 506.0,92.0 507.0,92.0 508.0,93.0 509.0,92.0 510.0,92.0 511.0,92.0 512.0,93.0 513.0,92.0 514.0,92.0 515.0,92.0 516.0,92.0 517.0,93.0 518.0,93.0 519.0,92.0 520.0,92.0 521.0,92.0 522.0,92.0 523.0,93.0 524.0,91.0 525.0,91.0 526.0,93.0 527.0,93.0 528.0,93.0 529.0,92.0 530.0,93.0 531.0,92.0 532.0,93.0 533.0,93.0 534.0,93.0 535.0,92.0 536.0,92.0 537.0,92.0 538.0,92.0 539.0,92.0 540.0,92.0 541.0,92.0 542.0,92.0 543.0,92.0 544.0,93.0 545.0,92.0 546.0,92.0 547.0,92.0 548.0,92.0 549.0,93.0 550.0,93.0 551.0,93.0 552.0,93.0 553.0,93.0 554.0,94.0 555.0,93.0 556.0,94.0 557.0,94.0 558.0,94.0 559.0,93.0 560.0,94.0 561.0,93.0 562.0,94.0 563.0,93.0 564.0,93.0 565.0,93.0 566.0,93.0 567.0,92.0 568.0,93.0 569.0,92.0 570.0,94.0 571.0,91.0 572.0,93.0 573.0,89.0 574.0,92.0 575.0,89.0 576.0,92.0 577.0,90.0 578.0,91.0 579.0,91.0 580.0,91.0 581.0,92.0 582.0,92.0 583.0,92.0 584.0,91.0 585.0,91.0 586.0,92.0 587.0,91.0 588.0,92.0 589.0,90.0 590.0,91.0 591.0,90.0 592.0,92.0 593.0,90.0 594.0,91.0 595.0,88.0 596.0,90.0 597.0,87.0 598.0,89.0 599.0,88.0 600.0,90.0 601.0,87.0 602.0,89.0 603.0,88.0 604.0,89.0 605.0,88.0 606.0,89.0 607.0,90.0 608.0,91.0 609.0,91.0 610.0,89.0 611.0,92.0 612.0,90.0 613.0,92.0 614.0,89.0 615.0,90.0 616.0,89.0 617.0,88.0 618.0,88.0 619.0,90.0 620.0,88.0 621.0,87.0 622.0,87.0 623.0,87.0 624.0,88.0 625.0,84.0 626.0,86.0 627.0,87.0 628.0,86.0 629.0,86.0 630.0,86.0 631.0,86.0 632.0,87.0 633.0,84.0 634.0,85.0 635.0,85.0 636.0,90.0 637.0,84.0 638.0,85.0 639.0,86.0 640.0,89.0 641.0,84.0 642.0,88.0 643.0,85.0 644.0,84.0 645.0,82.0 646.0,86.0 647.0,83.0 648.0,88.0 649.0,82.0 650.0,90.0 651.0,83.0 652.0,89.0 653.0,85.0 654.0,89.0" fill="none" stroke="#fb46bc" />
	<polyline points="55.0,78.0 56.0,93.0 57.0,85.0 58.0,92.0 59.0,82.0 60.0,90.0 61.0,86.0 62.0,93.0 63.0,88.0 64.0,90.0 65.0,85.0 66.0,93.0 67.0,89.0 68.0,97.0 69.0,88.0 70.0,93.0 71.0,86.0 72.0,96.0 73.0,83.0 74.0,94.0 75.0,87.0 76.0,93.0 77.0,87.0 78.0,94.0 79.0,89.0 80.0,91.0 81.0,85.0 82.0,91.0 83.0,83.0 84.0,95.0 85.0,83.0 86.0,96.0 87.0,85.0 88.0,95.0 89.0,84.0 90.0,95.0 91.0,81.0 92.0,95.0 93.0,77.0 94.0,93.0 95.0,76.0 96.0,94.0 97.0,70.0 98.0,95.0 99.0,62.0 100.0,92.0 101.0,56.0 102.0,88.0 103.0,44.0 104.0,84.0 105.0,33.0 106.0,78.0 107.0,22.0 108.0,70.0 109.0,21.0 110.0,80.0 111.0,35.0 112.0,107.0 113.0,51.0 114.0,123.0 115.0,53.0 116.0,121.0 117.0,56.0 118.0,126.0 119.0,62.0 120.0,128.0 121.0,60.0 122.0,121.0 123.0,62.0 124.0,119.0 125.0,70.0 126.0,116.0 127.0,70.0 128.0,111.0 129.0,82.0 130.0,105.0 131.0,84.0 132.0,102.0 133.0,90.0 134.0,98.0 135.0,86.0 136.0,101.0 137.0,90.0 138.0,99.0 139.0,87.0 140.0,99.0 141.0,87.0 142.0,96.0 143.0,87.0 144.0,96.0 145.0,85.0 146.0,100.0 147.0,87.0 148.0,96.0 149.0,91.0 150.0,95.0 151.0,95.0 152.0,91.0 153.0,92.0 154.0,92.0 155.0,94.0 156.0,94.0 157.0,97.0 158.0,93.0 159.0,90.0 160.0,88.0 161.0,90.0 162.0,93.0 163.0,92.0 164.0,91.0 165.0,93.0 166.0,95.0 167.0,84.0 168.0,94.0 169.0,87.0 170.0,94.0 171.0,86.0 172.0,95.0 173.0,80.0 174.0,89.0 175.0,85.0 176.0,92.0 177.0,84.0 178.0,96.0 179.0,82.0 180.0,94.0 181.0,87.0 182.0,97.0 183.0,87.0 184.0,98.0 185.0,84.0 186.0,92.0 187.0,84.0 188.0,93.0 189.0,87.0 190.0,93.0 191.0,86.0 192.0,91.0 193.0,88.0 194.0,90.0 195.0,91.0 196.0,92.0 197.0,88.0 198.0,90.0 199.0,87.0 200.0,91.0 201.0,91.0 202.0,93.0 203.0,87.0 204.0,91.0 205.0,90.0 206.0,93.0 207.0,86.0 208.0,88.0 209.0,89.0 210.0,93.0 211.0,94.0 212.0,90.0 213.0,91.0 214.0,89.0 215.0,90.0 216.0,89.0 217.0,90.0 218.0,88.0 219.0,91.0 220.0,87.0 221.0,90.0 222.0,86.0 223.0,91.0 224.0,90.0 225.0,92.0 226.0,86.0 227.0,93.0 228.0,85.0 229.0,93.0 230.0,83.0 231.0,86.0 232.0,83.0 233.0,90.0 234.0,82.0 235.0,93.0 236.0,79.0 237.0,90.0 238.0,78.0 239.0,87.0 240.0,80.0 241.0,85.0 242.0,82.0 243.0,83.0 244.0,83.0 245.0,79.0 246.0,79.0 247.0,75.0 248.0,80.0 249.0,69.0 250.0,82.0 251.0,67.0 252.0,83.0 253.0,59.0 254.0,75.0 255.0,52.0 256.0,74.0 257.0,44.0 258.0,73.0 259.0,34.0 260.0,71.0 261.0,24.0 262.0,81.0 263.0,31.0 264.0,108.0 265.0,48.0 266.0,131.0 267.0,52.0 268.0,135.0 269.0,45.0 270.0,146.0 271.0,40.0 272.0,168.0 273.0,37.0 274.0,181.0 275.0,32.0 276.0,191.0 277.0,32.0 278.0,216.0 279.0,30.0 280.0,234.0 281.0,26.0 282.0,251.0 283.0,23.0 284.0,264.0 285.0,22.0 286.0,261.0 287.0,21.0 288.0,223.0 289.0,28.0 290.0,179.0 291.0,47.0 292.0,132.0 293.0,57.0 294.0,110.0 295.0,65.0 296.0,96.0 297.0,70.0 298.0,95.0 299.0,72.0 300.0,91.0 301.0,70.0 302.0,89.0 303.0,82.0 304.0,91.0 305.0,82.0 306.0,86.0 307.0,81.0 308.0,83.0 309.0,78.0 310.0,90.0 311.0,91.0 312.0,80.0 313.0,86.0 314.0,80.0 315.0,96.0 316.0,83.0 317.0,88.0 318.0,79.0 319.0,88.0 320.0,79.0 321.0,94.0 322.0,78.0 323.0,97.0 324.0,79.0 325.0,97.0 326.0,78.0 327.0,98.0 328.0,77.0 329.0,99.0 330.0,76.0 331.0,97.0 332.0,77.0 333.0,100.0 334.0,76.0 335.0,104.0 336.0,73.0 337.0,100.0 338.0,74.0 339.0,101.0 340.0,75.0 341.0,98.0 342.0,68.0 343.0,97.0 344.0,71.0 345.0,100.0 346.0,68.0 347.0,95.0 348.0,64.0 349.0,96.0 350.0,63.0 351.0,100.0 352.0,63.0 353.0,103.0 354.0,57.0 355.0,99.0 356.0,50.0 357.0,103.0 358.0,45.0 359.0,98.0 360.0,36.0 361.0,97.0 362.0,28.0 363.0,94.0 364.0,20.0 365.0,88.0 366.0,16.0 367.0,82.0 368.0,21.0 369.0,73.0 370.0,42.0 371.0,56.0 372.0,62.0 373.0,45.0 374.0,105.0 375.0,46.0 376.0,122.0 377.0,48.0 378.0,128.0 379.0,56.0 380.0,129.0 381.0,59.0 382.0,119.0 383.0,63.0 384.0,118.0 385.0,69.0 386.0,112.0 387.0,76.0 388.0,101.0 389.0,77.0 390.0,104.0 391.0,83.0 392.0,107.0 393.0,82.0 394.0,102.0 395.0,83.0 396.0,98.0 397.0,90.0 398.0,98.0 399.0,94.0 400.0,97.0 401.0,92.0 402.0,94.0 403.0,95.0 404.0,90.0 405.0,97.0 406.0,96.0 407.0,97.0 408.0,97.0 409.0,92.0 410.0,98.0 411.0,95.0 412.0,93.0 413.0,98.0 414.0,95.0 415.0,97.0 416.0,96.0 417.0,98.0 418.0,98.0 419.0,100.0 420.0,99.0 421.0,92.0 422.0,97.0 423.0,90.0 424.0,92.0 425.0,89.0 426.0,93.0 427.0,93.0 428.0,87.0 429.0,90.0 430.0,91.0 431.0,96.0 432.0,90.0 433.0,94.0 434.0,89.0 435.0,95.0 436.0,90.0 437.0,91.0 438.0,98.0 439.0,90.0 440.0,97.0 441.0,91.0 442.0,101.0 443.0,89.0 444.0,99.0 445.0,86.0 446.0,99.0 447.0,88.0 448.0,99.0 449.0,84.0 450.0,97.0 451.0,87.0 452.0,98.0 453.0,87.0 454.0,98.0 455.0,81.0 456.0,99.0 457.0,84.0 458.0,98.0 459.0,83.0 460.0,104.0 461.0,80.0 462.0,104.0 463.0,74.0 464.0,103.0 465.0,70.0 466.0,101.0 467.0,70.0 468.0,108.0 469.0,64.0 470.0,107.0 471.0,55.0 472.0,108.0 473.0,48.0 474.0,114.0 475.0,38.0 476.0,109.0 477.0,27.0 478.0,104.0 479.0,20.0 480.0,89.0 481.0,20.0 482.0,76.0 483.0,32.0 484.0,60.0 485.0,52.0 486.0,45.0 487.0,90.0 488.0,43.0 489.0,136.0 490.0,42.0 491.0,156.0 492.0,35.0 493.0,166.0 494.0,34.0 495.0,176.0 496.0,37.0 497.0,174.0 498.0,38.0 499.0,171.0 500.0,42.0 501.0,159.0 502.0,49.0 503.0,152.0 504.0,53.0 505.0,138.0 506.0,56.0 507.0,139.0 508.0,56.0 509.0,136.0 510.0,60.0 511.0,135.0 512.0,60.0 513.0,124.0 514.0,62.0 515.0,123.0 516.0,71.0 517.0,118.0 518.0,70.0 519.0,117.0 520.0,70.0 521.0,115.0 522.0,71.0 523.0,117.0 524.0,74.0 525.0,109.0 526.0,73.0 527.0,112.0 528.0,77.0 529.0,108.0 530.0,77.0 531.0,109.0 532.0,76.0 533.0,116.0 534.0,76.0 535.0,116.0 536.0,74.0 537.0,114.0 538.0,71.0 539.0,114.0 540.0,72.0 541.0,118.0 542.0,70.0 543.0,114.0 544.0,69.0 545.0,111.0 546.0,73.0 547.0,115.0 548.0,72.0 549.0,109.0 550.0,76.0 551.0,107.0 552.0,79.0 553.0,103.0 554.0,81.0 555.0,104.0 556.0,84.0 557.0,94.0 558.0,82.0 559.0,93.0 560.0,86.0 561.0,94.0 562.0,85.0 563.0,88.0 564.0,81.0 565.0,83.0 566.0,83.0 567.0,78.0 568.0,85.0 569.0,68.0 570.0,79.0 571.0,56.0 572.0,71.0 573.0,46.0 574.0,66.0 575.0,43.0 576.0,64.0 577.0,64.0 578.0,60.0 579.0,86.0 580.0,52.0 581.0,117.0 582.0,49.0 583.0,142.0 584.0,44.0 585.0,150.0 586.0,43.0 587.0,168.0 588.0,43.0 589.0,179.0 590.0,41.0 591.0,181.0 592.0,39.0 593.0,190.0 594.0,40.0 595.0,205.0 596.0,39.0 597.0,208.0 598.0,37.0 599.0,217.0 600.0,35.0 601.0,211.0 602.0,36.0 603.0,202.0 604.0,35.0 605.0,192.0 606.0,38.0 607.0,174.0 608.0,44.0 609.0,146.0 610.0,54.0 611.0,122.0 612.0,64.0 613.0,110.0 614.0,72.0 615.0,102.0 616.0,78.0 617.0,93.0 618.0,82.0 619.0,92.0 620.0,86.0 621.0,88.0 622.0,87.0 623.0,83.0 624.0,88.0 625.0,87.0 626.0,88.0 627.0,89.0 628.0,93.0 629.0,82.0 630.0,90.0 631.0,82.0 632.0,92.0 633.0,84.0 634.0,92.0 635.0,78.0 636.0,92.0 637.0,74.0 638.0,94.0 639.0,72.0 640.0,98.0 641.0,73.0 642.0,95.0 643.0,68.0 644.0,95.0 645.0,65.0 646.0,93.0 647.0,59.0 648.0,92.0 649.0,55.0 650.0,92.0 651.0,49.0 652.0,87.0 653.0,43.0 654.0,85.0" fill="none" stroke="#0000ff" />
	<polyline points="55.0,92.0 56.0,92.0 57.0,92.0 58.0,92.0 59.0,93.0 60.0,91.0 61.0,90.0 62.0,90.0 63.0,89.0 64.0,91.0 65.0,92.0 66.0,91.0 67.0,90.0 68.0,91.0 69.0,92.0 70.0,91.0 71.0,90.0 72.0,91.0 73.0,93.0 74.0,91.0 75.0,91.0 76.0,91.0 77.0,91.0 78.0,89.0 79.0,92.0 80.0,91.0 81.0,93.0 82.0,91.0 83.0,90.0 84.0,91.0 85.0,91.0 86.0,92.0 87.0,91.0 88.0,89.0 89.0,92.0 90.0,93.0 91.0,91.0 92.0,91.0 93.0,91.0 94.0,91.0 95.0,90.0 96.0,91.0 97.0,89.0 98.0,90.0 99.0,90.0 100.0,90.0 101.0,89.0 102.0,88.0 103.0,85.0 104.0,87.0 105.0,86.0 106.0,86.0 107.0,79.0 108.0,81.0 109.0,77.0 110.0,81.0 111.0,83.0 112.0,84.0 113.0,88.0 114.0,87.0 115.0,86.0 116.0,87.0 117.0,87.0 118.0,89.0 119.0,88.0 120.0,85.0 121.0,85.0 122.0,84.0 123.0,86.0 124.0,81.0 125.0,82.0 126.0,80.0 127.0,77.0 128.0,75.0 129.0,73.0 130.0,72.0 131.0,73.0 132.0,69.0 133.0,65.0 134.0,71.0 135.0,63.0 136.0,65.0 137.0,63.0 138.0,65.0 139.0,63.0 140.0,59.0 141.0,61.0 142.0,65.0 143.0,63.0 144.0,67.0 145.0,66.0 146.0,61.0 147.0,71.0 148.0,67.0 149.0,68.0 150.0,67.0 151.0,64.0 152.0,70.0 153.0,66.0 154.0,71.0 155.0,70.0 156.0,69.0 157.0,70.0 158.0,72.0 159.0,70.0 160.0,73.0 161.0,72.0 162.0,72.0 163.0,70.0 164.0,77.0 165.0,70.0 166.0,74.0 167.0,77.0 168.0,76.0 169.0,78.0 170.0,77.0 171.0,80.0 172.0,79.0 173.0,81.0 174.0,83.0 175.0,84.0 176.0,84.0 177.0,86.0 178.0,84.0 179.0,86.0 180.0,86.0 181.0,87.0 182.0,87.0 183.0,88.0 184.0,86.0 185.0,89.0 186.0,88.0 187.0,91.0 188.0,89.0 189.0,90.0 190.0,91.0 191.0,91.0 192.0,92.0 193.0,92.0 194.0,92.0 195.0,92.0 196.0,93.0 197.0,94.0 198.0,96.0 199.0,95.0 200.0,95.0 201.0,96.0 202.0,96.0 203.0,97.0 204.0,97.0 205.0,97.0 206.0,97.0 207.0,97.0 208.0,96.0 209.0,96.0 210.0,96.0 211.0,97.0 212.0,96.0 213.0,96.0 214.0,96.0 215.0,96.0 216.0,96.0 217.0,96.0 218.0,96.0 219.0,96.0 220.0,96.0 221.0,96.0 222.0,96.0 223.0,96.0 224.0,96.0 225.0,96.0 226.0,95.0 227.0,96.0 228.0,96.0 229.0,96.0 230.0,96.0 231.0,96.0 232.0,95.0 233.0,96.0 234.0,95.0 235.0,96.0 236.0,96.0 237.0,95.0 238.0,95.0 239.0,95.0 240.0,95.0 241.0,95.0 242.0,95.0 243.0,95.0 244.0,95.0 245.0,95.0 246.0,95.0 247.0,94.0 248.0,95.0 249.0,94.0 250.0,94.0 251.0,94.0 252.0,94.0 253.0,93.0 254.0,94.0 255.0,92.0 256.0,93.0 257.0,92.0 258.0,92.0 259.0,91.0 260.0,92.0 261.0,90.0 262.0,92.0 263.0,90.0 264.0,92.0 265.0,91.0 266.0,93.0 267.0,92.0 268.0,93.0 269.0,92.0 270.0,93.0 271.0,93.0 272.0,93.0 273.0,93.0 274.0,93.0 275.0,93.0 276.0,93.0 277.0,93.0 278.0,92.0 279.0,93.0 280.0,92.0 281.0,92.0 282.0,91.0 283.0,92.0 284.0,90.0 285.0,93.0 286.0,90.0 287.0,93.0 288.0,91.0 289.0,93.0 290.0,92.0 291.0,93.0 292.0,92.0 293.0,93.0 294.0,93.0 295.0,93.0 296.0,93.0 297.0,93.0 298.0,93.0 299.0,94.0 300.0,93.0 301.0,94.0 302.0,94.0 303.0,95.0 304.0,94.0 305.0,95.0 306.0,94.0 307.0,95.0 308.0,94.0 309.0,95.0 310.0,94.0 311.0,95.0 312.0,94.0 313.0,95.0 314.0,94.0 315.0,95.0 316.0,94.0 317.0,95.0 318.0,94.0 319.0,95.0 320.0,94.0 321.0,95.0 322.0,94.0 323.0,95.0 324.0,95.0 325.0,95.0 326.0,95.0 327.0,95.0 328.0,95.0 329.0,95.0 330.0,94.0 331.0,95.0 332.0,95.0 333.0,95.0 334.0,94.0 335.0,95.0 336.0,94.0 337.0,95.0 338.0,94.0 339.0,94.0 340.0,94.0 341.0,94.0 342.0,94.0 343.0,94.0 344.0,93.0 345.0,94.0 346.0,93.0 347.0,94.0 348.0,94.0 349.0,94.0 350.0,92.0 351.0,94.0 352.0,93.0 353.0,93.0 354.0,92.0 355.0,93.0 356.0,92.0 357.0,92.0 358.0,90.0 359.0,92.0 360.0,90.0 361.0,91.0 362.0,89.0 363.0,91.0 364.0,88.0 365.0,89.0 366.0,88.0 367.0,90.0 368.0,88.0 369.0,90.0 370.0,90.0 371.0,89.0 372.0,89.0 373.0,91.0 374.0,91.0 375.0,91.0 376.0,92.0 377.0,93.0 378.0,93.0 379.0,93.0 380.0,93.0 381.0,93.0 382.0,93.0 383.0,93.0 384.0,92.0 385.0,94.0 386.0,94.0 387.0,94.0 388.0,93.0 389.0,93.0 390.0,93.0 391.0,93.0 392.0,93.0 393.0,94.0 394.0,93.0 395.0,93.0 396.0,94.0 397.0,94.0 398.0,93.0 399.0,93.0 400.0,92.0 401.0,93.0 402.0,93.0 403.0,93.0 404.0,93.0 405.0,92.0 406.0,92.0 407.0,92.0 408.0,92.0 409.0,92.0 410.0,92.0 411.0,92.0 412.0,92.0 413.0,91.0 414.0,92.0 415.0,91.0 416.0,91.0 417.0,90.0 418.0,91.0 419.0,91.0 420.0,90.0 421.0,92.0 422.0,90.0 423.0,91.0 424.0,89.0 425.0,90.0 426.0,91.0 427.0,90.0 428.0,91.0 429.0,89.0 430.0,90.0 431.0,90.0 432.0,89.0 433.0,90.0 434.0,92.0 435.0,91.0 436.0,91.0 437.0,89.0 438.0,89.0 439.0,90.0 440.0,90.0 441.0,90.0 442.0,90.0 443.0,87.0 444.0,91.0 445.0,89.0 446.0,91.0 447.0,90.0 448.0,92.0 449.0,88.0 450.0,90.0 451.0,91.0 452.0,90.0 453.0,89.0 454.0,91.0 455.0,90.0 456.0,91.0 457.0,89.0 458.0,91.0 459.0,91.0 460.0,92.0 461.0,91.0 462.0,91.0 463.0,91.0 464.0,91.0 465.0,91.0 466.0,92.0 467.0,91.0 468.0,92.0 469.0,87.0 470.0,87.0 471.0,91.0 472.0,91.0 473.0,88.0 474.0,91.0 475.0,87.0 476.0,91.0 477.0,85.0 478.0,88.0 479.0,85.0 480.0,88.0 481.0,86.0 482.0,87.0 483.0,88.0 484.0,87.0 485.0,89.0 486.0,88.0 487.0,93.0 488.0,88.0 489.0,94.0 490.0,91.0 491.0,93.0 492.0,91.0 493.0,92.0 494.0,92.0 495.0,91.0 496.0,92.0 497.0,92.0 498.0,92.0 499.0,92.0 500.0,92.0 501.0,91.0 502.0,92.0 503.0,91.0 504.0,92.0 505.0,93.0 506.0,92.0 507.0,92.0 508.0,92.0 509.0,91.0 510.0,92.0 511.0,92.0 512.0,93.0 513.0,92.0 514.0,92.0 515.0,91.0 516.0,92.0 517.0,92.0 518.0,92.0 519.0,91.0 520.0,90.0 521.0,91.0 522.0,90.0 523.0,90.0 524.0,91.0 525.0,89.0 526.0,89.0 527.0,88.0 528.0,89.0 529.0,91.0 530.0,90.0 531.0,90.0 532.0,89.0 533.0,90.0 534.0,90.0 535.0,90.0 536.0,89.0 537.0,89.0 538.0,91.0 539.0,90.0 540.0,90.0 541.0,90.0 542.0,90.0 543.0,90.0 544.0,90.0 545.0,89.0 546.0,88.0 547.0,86.0 548.0,87.0 549.0,87.0 550.0,85.0 551.0,83.0 552.0,81.0 553.0,80.0 554.0,81.0 555.0,77.0 556.0,76.0 557.0,77.0 558.0,81.0 559.0,74.0 560.0,75.0 561.0,72.0 562.0,75.0 563.0,69.0 564.0,74.0 565.0,71.0 566.0,76.0 567.0,69.0 568.0,78.0 569.0,67.0 570.0,75.0 571.0,60.0 572.0,75.0 573.0,55.0 574.0,72.0 575.0,50.0 576.0,71.0 577.0,58.0 578.0,70.0 579.0,66.0 580.0,63.0 581.0,78.0 582.0,68.0 583.0,72.0 584.0,70.0 585.0,77.0 586.0,75.0 587.0,73.0 588.0,78.0 589.0,77.0 590.0,78.0 591.0,77.0 592.0,81.0 593.0,78.0 594.0,77.0 595.0,76.0 596.0,83.0 597.0,78.0 598.0,78.0 599.0,78.0 600.0,81.0 601.0,79.0 602.0,81.0 603.0,82.0 604.0,83.0 605.0,88.0 606.0,83.0 607.0,87.0 608.0,85.0 609.0,86.0 610.0,88.0 611.0,95.0 612.0,90.0 613.0,98.0 614.0,93.0 615.0,96.0 616.0,94.0 617.0,96.0 618.0,95.0 619.0,95.0 620.0,96.0 621.0,95.0 622.0,95.0 623.0,95.0 624.0,95.0 625.0,95.0 626.0,95.0 627.0,95.0 628.0,95.0 629.0,95.0 630.0,96.0 631.0,95.0 632.0,96.0 633.0,95.0 634.0,96.0 635.0,95.0 636.0,96.0 637.0,94.0 638.0,97.0 639.0,94.0 640.0,96.0 641.0,94.0 642.0,97.0 643.0,94.0 644.0,96.0 645.0,93.0 646.0,96.0 647.0,92.0 648.0,96.0 649.0,92.0 650.0,96.0 651.0,92.0 652.0,96.0 653.0,91.0 654.0,96.0" fill="none" stroke="#00bfff" />
	<polyline points="55.0,93.0 56.0,92.0 57.0,94.0 58.0,93.0 59.0,92.0 60.0,92.0 61.0,93.0 62.0,93.0 63.0,92.0 64.0,93.0 65.0,93.0 66.0,93.0 67.0,93.0 68.0,93.0 69.0,93.0 70.0,92.0 71.0,92.0 72.0,94.0 73.0,92.0 74.0,92.0 75.0,92.0 76.0,93.0 77.0,93.0 78.0,93.0 79.0,93.0 80.0,93.0 81.0,93.0 82.0,93.0 83.0,92.0 84.0,94.0 85.0,92.0 86.0,93.0 87.0,93.0 88.0,94.0 89.0,93.0 90.0,93.0 91.0,93.0 92.0,93.0 93.0,93.0 94.0,93.0 95.0,92.0 96.0,92.0 97.0,92.0 98.0,92.0 99.0,91.0 100.0,92.0 101.0,90.0 102.0,90.0 103.0,90.0 104.0,90.0 105.0,87.0 106.0,88.0 107.0,84.0 108.0,86.0 109.0,84.0 110.0,85.0 111.0,87.0 112.0,89.0 113.0,92.0 114.0,91.0 115.0,92.0 116.0,92.0 117.0,92.0 118.0,92.0 119.0,93.0 120.0,92.0 121.0,93.0 122.0,93.0 123.0,93.0 124.0,93.0 125.0,93.0 126.0,93.0 127.0,94.0 128.0,93.0 129.0,93.0 130.0,94.0 131.0,94.0 132.0,94.0 133.0,94.0 134.0,94.0 135.0,94.0 136.0,94.0 137.0,94.0 138.0,95.0 139.0,94.0 140.0,95.0 141.0,95.0 142.0,95.0 143.0,95.0 144.0,95.0 145.0,94.0 146.0,94.0 147.0,94.0 148.0,94.0 149.0,94.0 150.0,94.0 151.0,94.0 152.0,94.0 153.0,94.0 154.0,94.0 155.0,94.0 156.0,95.0 157.0,94.0 158.0,94.0 159.0,94.0 160.0,94.0 161.0,94.0 162.0,94.0 163.0,94.0 164.0,94.0 165.0,93.0 166.0,94.0 167.0,93.0 168.0,93.0 169.0,92.0 170.0,93.0 171.0,93.0 172.0,94.0 173.0,93.0 174.0,92.0 175.0,92.0 176.0,92.0 177.0,93.0 178.0,92.0 179.0,93.0 180.0,92.0 181.0,93.0 182.0,92.0 183.0,93.0 184.0,93.0 185.0,93.0 186.0,92.0 187.0,93.0 188.0,92.0 189.0,92.0 190.0,92.0 191.0,92.0 192.0,92.0 193.0,91.0 194.0,92.0 195.0,92.0 196.0,92.0 197.0,93.0 198.0,91.0 199.0,92.0 200.0,93.0 201.0,92.0 202.0,92.0 203.0,92.0 204.0,91.0 205.0,92.0 206.0,92.0 207.0,91.0 208.0,91.0 209.0,91.0 210.0,90.0 211.0,91.0 212.0,91.0 213.0,92.0 214.0,90.0 215.0,92.0 216.0,90.0 217.0,90.0 218.0,91.0 219.0,90.0 220.0,90.0 221.0,90.0 222.0,89.0 223.0,88.0 224.0,87.0 225.0,89.0 226.0,88.0 227.0,86.0 228.0,90.0 229.0,89.0 230.0,88.0 231.0,89.0 232.0,88.0 233.0,91.0 234.0,87.0 235.0,87.0 236.0,89.0 237.0,89.0 238.0,89.0 239.0,89.0 240.0,89.0 241.0,89.0 242.0,89.0 243.0,88.0 244.0,90.0 245.0,88.0 246.0,90.0 247.0,89.0 248.0,90.0 249.0,88.0 250.0,90.0 251.0,88.0 252.0,88.0 253.0,86.0 254.0,89.0 255.0,86.0 256.0,88.0 257.0,85.0 258.0,87.0 259.0,84.0 260.0,86.0 261.0,83.0 262.0,86.0 263.0,84.0 264.0,86.0 265.0,88.0 266.0,88.0 267.0,90.0 268.0,89.0 269.0,88.0 270.0,88.0 271.0,90.0 272.0,86.0 273.0,87.0 274.0,86.0 275.0,89.0 276.0,85.0 277.0,89.0 278.0,82.0 279.0,87.0 280.0,81.0 281.0,85.0 282.0,79.0 283.0,85.0 284.0,82.0 285.0,86.0 286.0,82.0 287.0,88.0 288.0,85.0 289.0,90.0 290.0,88.0 291.0,88.0 292.0,90.0 293.0,87.0 294.0,91.0 295.0,89.0 296.0,92.0 297.0,90.0 298.0,90.0 299.0,89.0 300.0,88.0 301.0,90.0 302.0,90.0 303.0,86.0 304.0,83.0 305.0,92.0 306.0,90.0 307.0,89.0 308.0,90.0 309.0,91.0 310.0,90.0 311.0,90.0 312.0,90.0 313.0,90.0 314.0,89.0 315.0,89.0 316.0,87.0 317.0,88.0 318.0,87.0 319.0,89.0 320.0,88.0 321.0,87.0 322.0,89.0 323.0,89.0 324.0,89.0 325.0,88.0 326.0,89.0 327.0,91.0 328.0,90.0 329.0,89.0 330.0,89.0 331.0,90.0 332.0,90.0 333.0,90.0 334.0,89.0 335.0,89.0 336.0,90.0 337.0,90.0 338.0,88.0 339.0,89.0 340.0,90.0 341.0,88.0 342.0,88.0 343.0,88.0 344.0,87.0 345.0,87.0 346.0,87.0 347.0,89.0 348.0,89.0 349.0,89.0 350.0,87.0 351.0,89.0 352.0,88.0 353.0,88.0 354.0,85.0 355.0,86.0 356.0,85.0 357.0,86.0 358.0,86.0 359.0,86.0 360.0,83.0 361.0,85.0 362.0,81.0 363.0,86.0 364.0,82.0 365.0,85.0 366.0,82.0 367.0,85.0 368.0,83.0 369.0,87.0 370.0,89.0 371.0,87.0 372.0,88.0 373.0,87.0 374.0,92.0 375.0,91.0 376.0,92.0 377.0,93.0 378.0,93.0 379.0,93.0 380.0,91.0 381.0,94.0 382.0,92.0 383.0,94.0 384.0,93.0 385.0,93.0 386.0,93.0 387.0,94.0 388.0,93.0 389.0,93.0 390.0,93.0 391.0,94.0 392.0,93.0 393.0,94.0 394.0,93.0 395.0,94.0 396.0,93.0 397.0,93.0 398.0,93.0 399.0,94.0 400.0,93.0 401.0,93.0 402.0,93.0 403.0,93.0 404.0,93.0 405.0,93.0 406.0,92.0 407.0,92.0 408.0,93.0 409.0,93.0 410.0,93.0 411.0,92.0 412.0,92.0 413.0,93.0 414.0,93.0 415.0,93.0 416.0,93.0 417.0,92.0 418.0,93.0 419.0,93.0 420.0,92.0 421.0,92.0 422.0,92.0 423.0,93.0 424.0,92.0 425.0,93.0 426.0,93.0 427.0,92.0 428.0,92.0 429.0,92.0 430.0,92.0 431.0,92.0 432.0,92.0 433.0,93.0 434.0,92.0 435.0,93.0 436.0,92.0 437.0,92.0 438.0,93.0 439.0,92.0 440.0,92.0 441.0,92.0 442.0,92.0 443.0,92.0 444.0,92.0 445.0,92.0 446.0,92.0 447.0,92.0 448.0,93.0 449.0,92.0 450.0,92.0 451.0,92.0 452.0,92.0 453.0,92.0 454.0,92.0 455.0,91.0 456.0,92.0 457.0,92.0 458.0,91.0 459.0,90.0 460.0,91.0 461.0,90.0 462.0,90.0 463.0,89.0 464.0,90.0 465.0,89.0 466.0,91.0 467.0,90.0 468.0,90.0 469.0,89.0 470.0,91.0 471.0,89.0 472.0,90.0 473.0,89.0 474.0,90.0 475.0,88.0 476.0,89.0 477.0,87.0 478.0,89.0 479.0,85.0 480.0,88.0 481.0,85.0 482.0,87.0 483.0,87.0 484.0,86.0 485.0,89.0 486.0,87.0 487.0,91.0 488.0,88.0 489.0,93.0 490.0,89.0 491.0,91.0 492.0,90.0 493.0,91.0 494.0,91.0 495.0,91.0 496.0,92.0 497.0,91.0 498.0,92.0 499.0,92.0 500.0,92.0 501.0,91.0 502.0,92.0 503.0,92.0 504.0,92.0 505.0,92.0 506.0,92.0 507.0,92.0 508.0,92.0 509.0,92.0 510.0,92.0 511.0,92.0 512.0,93.0 513.0,92.0 514.0,92.0 515.0,92.0 516.0,92.0 517.0,92.0 518.0,91.0 519.0,92.0 520.0,91.0 521.0,92.0 522.0,92.0 523.0,91.0 524.0,92.0 525.0,93.0 526.0,93.0 527.0,93.0 528.0,93.0 529.0,93.0 530.0,93.0 531.0,94.0 532.0,94.0 533.0,94.0 534.0,94.0 535.0,93.0 536.0,93.0 537.0,93.0 538.0,93.0 539.0,93.0 540.0,93.0 541.0,93.0 542.0,94.0 543.0,93.0 544.0,93.0 545.0,93.0 546.0,93.0 547.0,93.0 548.0,93.0 549.0,92.0 550.0,93.0 551.0,93.0 552.0,93.0 553.0,92.0 554.0,93.0 555.0,92.0 556.0,93.0 557.0,92.0 558.0,93.0 559.0,92.0 560.0,92.0 561.0,92.0 562.0,93.0 563.0,92.0 564.0,92.0 565.0,91.0 566.0,92.0 567.0,91.0 568.0,93.0 569.0,90.0 570.0,93.0 571.0,89.0 572.0,93.0 573.0,88.0 574.0,91.0 575.0,88.0 576.0,92.0 577.0,89.0 578.0,91.0 579.0,90.0 580.0,91.0 581.0,92.0 582.0,91.0 583.0,91.0 584.0,92.0 585.0,91.0 586.0,91.0 587.0,91.0 588.0,92.0 589.0,90.0 590.0,91.0 591.0,90.0 592.0,91.0 593.0,89.0 594.0,90.0 595.0,88.0 596.0,90.0 597.0,89.0 598.0,90.0 599.0,87.0 600.0,89.0 601.0,87.0 602.0,88.0 603.0,88.0 604.0,87.0 605.0,88.0 606.0,90.0 607.0,88.0 608.0,89.0 609.0,93.0 610.0,90.0 611.0,92.0 612.0,89.0 613.0,93.0 614.0,90.0 615.0,92.0 616.0,90.0 617.0,92.0 618.0,91.0 619.0,91.0 620.0,91.0 621.0,90.0 622.0,91.0 623.0,91.0 624.0,91.0 625.0,91.0 626.0,90.0 627.0,89.0 628.0,91.0 629.0,90.0 630.0,92.0 631.0,91.0 632.0,90.0 633.0,91.0 634.0,91.0 635.0,89.0 636.0,91.0 637.0,89.0 638.0,92.0 639.0,89.0 640.0,92.0 641.0,89.0 642.0,89.0 643.0,88.0 644.0,91.0 645.0,88.0 646.0,91.0 647.0,88.0 648.0,91.0 649.0,86.0 650.0,90.0 651.0,86.0 652.0,90.0 653.0,84.0 654.0,89.0" fill="none" stroke="#4876ff" />
	<polyline points="55.0,81.0 56.0,90.0 57.0,79.0 58.0,91.0 59.0,83.0 60.0,89.0 61.0,81.0 62.0,90.0 63.0,87.0 64.0,90.0 65.0,85.0 66.0,90.0 67.0,84.0 68.0,88.0 69.0,83.0 70.0,88.0 71.0,83.0 72.0,90.0 73.0,86.0 74.0,96.0 75.0,81.0 76.0,91.0 77.0,76.0 78.0,93.0 79.0,80.0 80.0,99.0 81.0,77.0 82.0,101.0 83.0,72.0 84.0,96.0 85.0,75.0 86.0,96.0 87.0,76.0 88.0,104.0 89.0,72.0 90.0,101.0 91.0,66.0 92.0,109.0 93.0,67.0 94.0,114.0 95.0,65.0 96.0,121.0 97.0,55.0 98.0,127.0 99.0,49.0 100.0,140.0 101.0,41.0 102.0,162.0 103.0,31.0 104.0,177.0 105.0,21.0 106.0,202.0 107.0,13.0 108.0,230.0 109.0,11.0 110.0,218.0 111.0,15.0 112.0,147.0 113.0,43.0 114.0,102.0 115.0,72.0 116.0,86.0 117.0,82.0 118.0,75.0 119.0,86.0 120.0,73.0 121.0,96.0 122.0,74.0 123.0,94.0 124.0,78.0 125.0,92.0 126.0,75.0 127.0,98.0 128.0,77.0 129.0,97.0 130.0,78.0 131.0,92.0 132.0,85.0 133.0,91.0 134.0,79.0 135.0,93.0 136.0,83.0 137.0,88.0 138.0,78.0 139.0,91.0 140.0,85.0 141.0,92.0 142.0,82.0 143.0,92.0 144.0,80.0 145.0,88.0 146.0,87.0 147.0,82.0 148.0,86.0 149.0,82.0 150.0,85.0 151.0,82.0 152.0,86.0 153.0,82.0 154.0,84.0 155.0,81.0 156.0,88.0 157.0,87.0 158.0,83.0 159.0,84.0 160.0,85.0 161.0,87.0 162.0,86.0 163.0,89.0 164.0,82.0 165.0,92.0 166.0,83.0 167.0,89.0 168.0,81.0 169.0,86.0 170.0,85.0 171.0,84.0 172.0,88.0 173.0,87.0 174.0,87.0 175.0,87.0 176.0,89.0 177.0,85.0 178.0,86.0 179.0,83.0 180.0,89.0 181.0,83.0 182.0,89.0 183.0,76.0 184.0,87.0 185.0,80.0 186.0,96.0 187.0,83.0 188.0,85.0 189.0,79.0 190.0,88.0 191.0,82.0 192.0,88.0 193.0,82.0 194.0,83.0 195.0,79.0 196.0,81.0 197.0,85.0 198.0,87.0 199.0,87.0 200.0,89.0 201.0,87.0 202.0,81.0 203.0,85.0 204.0,81.0 205.0,87.0 206.0,85.0 207.0,86.0 208.0,100.0 209.0,82.0 210.0,90.0 211.0,74.0 212.0,95.0 213.0,75.0 214.0,97.0 215.0,73.0 216.0,98.0 217.0,70.0 218.0,100.0 219.0,72.0 220.0,101.0 221.0,74.0 222.0,102.0 223.0,68.0 224.0,102.0 225.0,67.0 226.0,112.0 227.0,65.0 228.0,118.0 229.0,63.0 230.0,116.0 231.0,57.0 232.0,112.0 233.0,59.0 234.0,123.0 235.0,58.0 236.0,125.0 237.0,56.0 238.0,128.0 239.0,54.0 240.0,128.0 241.0,50.0 242.0,130.0 243.0,51.0 244.0,136.0 245.0,48.0 246.0,142.0 247.0,42.0 248.0,141.0 249.0,40.0 250.0,149.0 251.0,36.0 252.0,155.0 253.0,31.0 254.0,172.0 255.0,25.0 256.0,180.0 257.0,19.0 258.0,194.0 259.0,13.0 260.0,212.0 261.0,6.0 262.0,205.0 263.0,12.0 264.0,152.0 265.0,30.0 266.0,106.0 267.0,60.0 268.0,87.0 269.0,79.0 270.0,75.0 271.0,87.0 272.0,59.0 273.0,96.0 274.0,53.0 275.0,115.0 276.0,44.0 277.0,123.0 278.0,35.0 279.0,129.0 280.0,29.0 281.0,148.0 282.0,20.0 283.0,159.0 284.0,18.0 285.0,175.0 286.0,16.0 287.0,174.0 288.0,23.0 289.0,174.0 290.0,29.0 291.0,162.0 292.0,33.0 293.0,156.0 294.0,37.0 295.0,147.0 296.0,40.0 297.0,147.0 298.0,42.0 299.0,134.0 300.0,45.0 301.0,137.0 302.0,50.0 303.0,122.0 304.0,52.0 305.0,124.0 306.0,52.0 307.0,124.0 308.0,55.0 309.0,118.0 310.0,58.0 311.0,109.0 312.0,65.0 313.0,109.0 314.0,61.0 315.0,97.0 316.0,69.0 317.0,105.0 318.0,72.0 319.0,98.0 320.0,72.0 321.0,102.0 322.0,70.0 323.0,96.0 324.0,73.0 325.0,93.0 326.0,71.0 327.0,93.0 328.0,72.0 329.0,95.0 330.0,76.0 331.0,98.0 332.0,72.0 333.0,94.0 334.0,70.0 335.0,93.0 336.0,67.0 337.0,99.0 338.0,69.0 339.0,104.0 340.0,67.0 341.0,105.0 342.0,65.0 343.0,109.0 344.0,60.0 345.0,111.0 346.0,55.0 347.0,117.0 348.0,56.0 349.0,121.0 350.0,53.0 351.0,117.0 352.0,47.0 353.0,124.0 354.0,42.0 355.0,133.0 356.0,35.0 357.0,142.0 358.0,31.0 359.0,156.0 360.0,23.0 361.0,161.0 362.0,16.0 363.0,175.0 364.0,12.0 365.0,199.0 366.0,8.0 367.0,209.0 368.0,8.0 369.0,216.0 370.0,10.0 371.0,232.0 372.0,12.0 373.0,234.0 374.0,17.0 375.0,200.0 376.0,28.0 377.0,158.0 378.0,47.0 379.0,126.0 380.0,51.0 381.0,111.0 382.0,60.0 383.0,109.0 384.0,63.0 385.0,100.0 386.0,67.0 387.0,95.0 388.0,70.0 389.0,94.0 390.0,78.0 391.0,88.0 392.0,72.0 393.0,84.0 394.0,78.0 395.0,90.0 396.0,78.0 397.0,86.0 398.0,81.0 399.0,82.0 400.0,80.0 401.0,82.0 402.0,84.0 403.0,82.0 404.0,91.0 405.0,84.0 406.0,84.0 407.0,82.0 408.0,80.0 409.0,84.0 410.0,85.0 411.0,89.0 412.0,85.0 413.0,83.0 414.0,85.0 415.0,84.0 416.0,89.0 417.0,82.0 418.0,85.0 419.0,78.0 420.0,84.0 421.0,81.0 422.0,85.0 423.0,86.0 424.0,86.0 425.0,83.0 426.0,85.0 427.0,82.0 428.0,92.0 429.0,86.0 430.0,91.0 431.0,81.0 432.0,89.0 433.0,82.0 434.0,89.0 435.0,82.0 436.0,85.0 437.0,82.0 438.0,85.0 439.0,85.0 440.0,90.0 441.0,79.0 442.0,84.0 443.0,84.0 444.0,89.0 445.0,81.0 446.0,88.0 447.0,78.0 448.0,90.0 449.0,76.0 450.0,94.0 451.0,80.0 452.0,92.0 453.0,80.0 454.0,89.0 455.0,75.0 456.0,91.0 457.0,77.0 458.0,97.0 459.0,74.0 460.0,97.0 461.0,67.0 462.0,102.0 463.0,64.0 464.0,105.0 465.0,58.0 466.0,111.0 467.0,56.0 468.0,113.0 469.0,55.0 470.0,118.0 471.0,49.0 472.0,124.0 473.0,40.0 474.0,135.0 475.0,29.0 476.0,146.0 477.0,20.0 478.0,167.0 479.0,13.0 480.0,196.0 481.0,10.0 482.0,216.0 483.0,11.0 484.0,242.0 485.0,13.0 486.0,252.0 487.0,14.0 488.0,234.0 489.0,22.0 490.0,184.0 491.0,36.0 492.0,151.0 493.0,40.0 494.0,137.0 495.0,41.0 496.0,135.0 497.0,40.0 498.0,129.0 499.0,38.0 500.0,128.0 501.0,44.0 502.0,131.0 503.0,47.0 504.0,128.0 505.0,48.0 506.0,127.0 507.0,52.0 508.0,127.0 509.0,53.0 510.0,126.0 511.0,50.0 512.0,120.0 513.0,55.0 514.0,119.0 515.0,58.0 516.0,110.0 517.0,56.0 518.0,114.0 519.0,62.0 520.0,113.0 521.0,61.0 522.0,108.0 523.0,64.0 524.0,107.0 525.0,66.0 526.0,106.0 527.0,65.0 528.0,109.0 529.0,68.0 530.0,107.0 531.0,69.0 532.0,110.0 533.0,64.0 534.0,110.0 535.0,64.0 536.0,114.0 537.0,63.0 538.0,112.0 539.0,65.0 540.0,121.0 541.0,60.0 542.0,113.0 543.0,61.0 544.0,117.0 545.0,67.0 546.0,115.0 547.0,65.0 548.0,109.0 549.0,63.0 550.0,110.0 551.0,62.0 552.0,111.0 553.0,65.0 554.0,110.0 555.0,64.0 556.0,111.0 557.0,66.0 558.0,110.0 559.0,65.0 560.0,116.0 561.0,61.0 562.0,122.0 563.0,58.0 564.0,126.0 565.0,50.0 566.0,135.0 567.0,43.0 568.0,140.0 569.0,35.0 570.0,149.0 571.0,26.0 572.0,166.0 573.0,17.0 574.0,183.0 575.0,13.0 576.0,187.0 577.0,16.0 578.0,192.0 579.0,21.0 580.0,192.0 581.0,25.0 582.0,182.0 583.0,25.0 584.0,176.0 585.0,30.0 586.0,168.0 587.0,31.0 588.0,159.0 589.0,28.0 590.0,161.0 591.0,30.0 592.0,152.0 593.0,29.0 594.0,157.0 595.0,27.0 596.0,159.0 597.0,25.0 598.0,163.0 599.0,24.0 600.0,164.0 601.0,23.0 602.0,161.0 603.0,24.0 604.0,165.0 605.0,28.0 606.0,161.0 607.0,29.0 608.0,154.0 609.0,38.0 610.0,145.0 611.0,43.0 612.0,129.0 613.0,50.0 614.0,113.0 615.0,61.0 616.0,105.0 617.0,66.0 618.0,101.0 619.0,72.0 620.0,95.0 621.0,73.0 622.0,93.0 623.0,79.0 624.0,91.0 625.0,74.0 626.0,91.0 627.0,74.0 628.0,89.0 629.0,78.0 630.0,91.0 631.0,77.0 632.0,92.0 633.0,73.0 634.0,91.0 635.0,68.0 636.0,95.0 637.0,70.0 638.0,97.0 639.0,66.0 640.0,97.0 641.0,62.0 642.0,103.0 643.0,58.0 644.0,105.0 645.0,56.0 646.0,107.0 647.0,49.0 648.0,105.0 649.0,45.0 650.0,112.0 651.0,41.0 652.0,119.0 653.0,36.0 654.0,121.0" fill="none" stroke="#aeeeee" />
	<polyline points="55.0,93.0 56.0,93.0 57.0,93.0 58.0,93.0 59.0,94.0 60.0,93.0 61.0,93.0 62.0,93.0 63.0,93.0 64.0,92.0 65.0,93.0 66.0,92.0 67.0,92.0 68.0,92.0 69.0,93.0 70.0,93.0 71.0,91.0 72.0,93.0 73.0,91.0 74.0,92.0 75.0,91.0 76.0,92.0 77.0,93.0 78.0,93.0 79.0,92.0 80.0,91.0 81.0,90.0 82.0,88.0 83.0,96.0 84.0,91.0 85.0,92.0 86.0,91.0 87.0,92.0 88.0,90.0 89.0,91.0 90.0,91.0 91.0,89.0 92.0,91.0 93.0,91.0 94.0,91.0 95.0,92.0 96.0,91.0 97.0,91.0 98.0,91.0 99.0,90.0 100.0,90.0 101.0,88.0 102.0,89.0 103.0,88.0 104.0,88.0 105.0,87.0 106.0,87.0 107.0,83.0 108.0,85.0 109.0,82.0 110.0,86.0 111.0,87.0 112.0,88.0 113.0,89.0 114.0,92.0 115.0,93.0 116.0,92.0 117.0,93.0 118.0,91.0 119.0,94.0 120.0,92.0 121.0,92.0 122.0,92.0 123.0,92.0 124.0,93.0 125.0,93.0 126.0,93.0 127.0,94.0 128.0,93.0 129.0,94.0 130.0,93.0 131.0,94.0 132.0,94.0 133.0,95.0 134.0,94.0 135.0,95.0 136.0,95.0 137.0,95.0 138.0,96.0 139.0,95.0 140.0,94.0 141.0,95.0 142.0,96.0 143.0,95.0 144.0,96.0 145.0,95.0 146.0,95.0 147.0,95.0 148.0,95.0 149.0,95.0 150.0,95.0 151.0,95.0 152.0,95.0 153.0,95.0 154.0,95.0 155.0,95.0 156.0,95.0 157.0,95.0 158.0,95.0 159.0,95.0 160.0,95.0 161.0,95.0 162.0,95.0 163.0,95.0 164.0,95.0 165.0,94.0 166.0,95.0 167.0,94.0 168.0,94.0 169.0,94.0 170.0,94.0 171.0,94.0 172.0,93.0 173.0,93.0 174.0,93.0 175.0,93.0 176.0,92.0 177.0,93.0 178.0,92.0 179.0,92.0 180.0,92.0 181.0,93.0 182.0,92.0 183.0,93.0 184.0,91.0 185.0,91.0 186.0,91.0 187.0,92.0 188.0,93.0 189.0,92.0 190.0,91.0 191.0,91.0 192.0,91.0 193.0,90.0 194.0,91.0 195.0,90.0 196.0,91.0 197.0,90.0 198.0,91.0 199.0,92.0 200.0,90.0 201.0,90.0 202.0,89.0 203.0,89.0 204.0,89.0 205.0,88.0 206.0,88.0 207.0,88.0 208.0,86.0 209.0,89.0 210.0,89.0 211.0,90.0 212.0,87.0 213.0,88.0 214.0,87.0 215.0,88.0 216.0,87.0 217.0,88.0 218.0,88.0 219.0,87.0 220.0,88.0 221.0,87.0 222.0,88.0 223.0,87.0 224.0,87.0 225.0,88.0 226.0,88.0 227.0,89.0 228.0,87.0 229.0,87.0 230.0,87.0 231.0,86.0 232.0,85.0 233.0,85.0 234.0,86.0 235.0,88.0 236.0,87.0 237.0,87.0 238.0,86.0 239.0,84.0 240.0,88.0 241.0,88.0 242.0,87.0 243.0,85.0 244.0,86.0 245.0,86.0 246.0,86.0 247.0,87.0 248.0,87.0 249.0,83.0 250.0,86.0 251.0,84.0 252.0,86.0 253.0,84.0 254.0,86.0 255.0,85.0 256.0,85.0 257.0,83.0 258.0,85.0 259.0,82.0 260.0,81.0 261.0,80.0 262.0,85.0 263.0,83.0 264.0,87.0 265.0,88.0 266.0,90.0 267.0,90.0 268.0,92.0 269.0,91.0 270.0,89.0 271.0,90.0 272.0,88.0 273.0,91.0 274.0,88.0 275.0,89.0 276.0,87.0 277.0,88.0 278.0,86.0 279.0,88.0 280.0,85.0 281.0,88.0 282.0,85.0 283.0,87.0 284.0,86.0 285.0,88.0 286.0,85.0 287.0,87.0 288.0,86.0 289.0,88.0 290.0,87.0 291.0,88.0 292.0,90.0 293.0,89.0 294.0,88.0 295.0,88.0 296.0,90.0 297.0,89.0 298.0,89.0 299.0,90.0 300.0,90.0 301.0,90.0 302.0,89.0 303.0,92.0 304.0,90.0 305.0,90.0 306.0,90.0 307.0,89.0 308.0,90.0 309.0,92.0 310.0,89.0 311.0,90.0 312.0,89.0 313.0,91.0 314.0,90.0 315.0,90.0 316.0,91.0 317.0,92.0 318.0,91.0 319.0,91.0 320.0,91.0 321.0,91.0 322.0,92.0 323.0,91.0 324.0,91.0 325.0,91.0 326.0,91.0 327.0,91.0 328.0,93.0 329.0,90.0 330.0,90.0 331.0,91.0 332.0,91.0 333.0,90.0 334.0,92.0 335.0,92.0 336.0,91.0 337.0,91.0 338.0,90.0 339.0,90.0 340.0,90.0 341.0,89.0 342.0,90.0 343.0,91.0 344.0,90.0 345.0,90.0 346.0,89.0 347.0,89.0 348.0,89.0 349.0,89.0 350.0,89.0 351.0,90.0 352.0,88.0 353.0,87.0 354.0,87.0 355.0,88.0 356.0,88.0 357.0,86.0 358.0,81.0 359.0,81.0 360.0,85.0 361.0,85.0 362.0,82.0 363.0,83.0 364.0,78.0 365.0,82.0 366.0,81.0 367.0,83.0 368.0,82.0 369.0,85.0 370.0,85.0 371.0,84.0 372.0,88.0 373.0,85.0 374.0,90.0 375.0,88.0 376.0,91.0 377.0,92.0 378.0,92.0 379.0,94.0 380.0,90.0 381.0,89.0 382.0,95.0 383.0,92.0 384.0,93.0 385.0,92.0 386.0,92.0 387.0,92.0 388.0,91.0 389.0,91.0 390.0,91.0 391.0,93.0 392.0,92.0 393.0,92.0 394.0,91.0 395.0,90.0 396.0,91.0 397.0,90.0 398.0,91.0 399.0,89.0 400.0,89.0 401.0,88.0 402.0,89.0 403.0,88.0 404.0,90.0 405.0,87.0 406.0,89.0 407.0,88.0 408.0,88.0 409.0,85.0 410.0,87.0 411.0,88.0 412.0,88.0 413.0,86.0 414.0,86.0 415.0,87.0 416.0,86.0 417.0,88.0 418.0,85.0 419.0,87.0 420.0,87.0 421.0,87.0 422.0,86.0 423.0,89.0 424.0,88.0 425.0,87.0 426.0,85.0 427.0,87.0 428.0,88.0 429.0,89.0 430.0,88.0 431.0,88.0 432.0,87.0 433.0,83.0 434.0,88.0 435.0,87.0 436.0,87.0 437.0,88.0 438.0,88.0 439.0,88.0 440.0,88.0 441.0,89.0 442.0,86.0 443.0,89.0 444.0,89.0 445.0,87.0 446.0,86.0 447.0,88.0 448.0,84.0 449.0,92.0 450.0,88.0 451.0,88.0 452.0,88.0 453.0,86.0 454.0,90.0 455.0,86.0 456.0,88.0 457.0,84.0 458.0,88.0 459.0,87.0 460.0,88.0 461.0,85.0 462.0,87.0 463.0,88.0 464.0,89.0 465.0,86.0 466.0,90.0 467.0,88.0 468.0,89.0 469.0,88.0 470.0,90.0 471.0,89.0 472.0,90.0 473.0,88.0 474.0,90.0 475.0,87.0 476.0,89.0 477.0,86.0 478.0,88.0 479.0,85.0 480.0,87.0 481.0,85.0 482.0,87.0 483.0,87.0 484.0,86.0 485.0,89.0 486.0,87.0 487.0,91.0 488.0,88.0 489.0,93.0 490.0,90.0 491.0,92.0 492.0,91.0 493.0,92.0 494.0,91.0 495.0,91.0 496.0,93.0 497.0,92.0 498.0,92.0 499.0,91.0 500.0,93.0 501.0,91.0 502.0,93.0 503.0,92.0 504.0,93.0 505.0,93.0 506.0,93.0 507.0,93.0 508.0,93.0 509.0,92.0 510.0,93.0 511.0,93.0 512.0,93.0 513.0,93.0 514.0,94.0 515.0,93.0 516.0,93.0 517.0,93.0 518.0,93.0 519.0,93.0 520.0,93.0 521.0,93.0 522.0,93.0 523.0,92.0 524.0,93.0 525.0,92.0 526.0,92.0 527.0,93.0 528.0,94.0 529.0,93.0 530.0,93.0 531.0,93.0 532.0,94.0 533.0,93.0 534.0,94.0 535.0,93.0 536.0,93.0 537.0,93.0 538.0,93.0 539.0,93.0 540.0,92.0 541.0,92.0 542.0,93.0 543.0,90.0 544.0,89.0 545.0,96.0 546.0,92.0 547.0,93.0 548.0,91.0 549.0,92.0 550.0,93.0 551.0,93.0 552.0,92.0 553.0,93.0 554.0,92.0 555.0,92.0 556.0,93.0 557.0,92.0 558.0,93.0 559.0,93.0 560.0,92.0 561.0,92.0 562.0,92.0 563.0,93.0 564.0,93.0 565.0,92.0 566.0,93.0 567.0,92.0 568.0,93.0 569.0,92.0 570.0,93.0 571.0,91.0 572.0,92.0 573.0,89.0 574.0,92.0 575.0,88.0 576.0,92.0 577.0,90.0 578.0,91.0 579.0,90.0 580.0,91.0 581.0,91.0 582.0,91.0 583.0,92.0 584.0,91.0 585.0,91.0 586.0,92.0 587.0,90.0 588.0,91.0 589.0,90.0 590.0,92.0 591.0,90.0 592.0,90.0 593.0,89.0 594.0,90.0 595.0,88.0 596.0,89.0 597.0,87.0 598.0,88.0 599.0,85.0 600.0,87.0 601.0,86.0 602.0,88.0 603.0,85.0 604.0,85.0 605.0,87.0 606.0,85.0 607.0,87.0 608.0,85.0 609.0,90.0 610.0,86.0 611.0,90.0 612.0,87.0 613.0,88.0 614.0,86.0 615.0,86.0 616.0,88.0 617.0,87.0 618.0,84.0 619.0,84.0 620.0,85.0 621.0,88.0 622.0,88.0 623.0,89.0 624.0,88.0 625.0,86.0 626.0,89.0 627.0,90.0 628.0,88.0 629.0,87.0 630.0,87.0 631.0,86.0 632.0,88.0 633.0,88.0 634.0,90.0 635.0,85.0 636.0,88.0 637.0,84.0 638.0,89.0 639.0,83.0 640.0,84.0 641.0,86.0 642.0,89.0 643.0,87.0 644.0,89.0 645.0,87.0 646.0,87.0 647.0,85.0 648.0,91.0 649.0,86.0 650.0,90.0 651.0,85.0 652.0,90.0 653.0,87.0 654.0,91.0" fill="none" stroke="#00ffff" />
	<polyline points="55.0,5.0 655.0,5.0" fill="none" stroke="#6d6d6d" />
	<polyline points="55.0,305.0 655.0,305.0" fill="none" stroke="#6d6d6d" />
	<polyline points="55.0,305.0 55.0,310.0" fill="none" stroke="#6d6d6d" />
	<polyline points="205.0,305.0 205.0,310.0" fill="none" stroke="#6d6d6d" />
	<polyline points="355.0,305.0 355.0,310.0" fill="none" stroke="#6d6d6d" />
	<polyline points="505.0,305.0 505.0,310.0" fill="none" stroke="#6d6d6d" />
	<polyline points="655.0,305.0 655.0,310.0" fill="none" stroke="#6d6d6d" />
	<polyline points="55.0,5.0 55.0,305.0" fill="none" stroke="#6d6d6d" />
	<polyline points="655.0,5.0 655.0,305.0" fill="none" stroke="#6d6d6d" />
	<polyline points="50.0,5.0 55.0,5.0" fill="none" stroke="#6d6d6d" />
	<polyline points="50.0,80.0 55.0,80.0" fill="none" stroke="#6d6d6d" />
	<polyline points="50.0,155.0 55.0,155.0" fill="none" stroke="#6d6d6d" />
	<polyline points="50.0,230.0 55.0,230.0" fill="none" stroke="#6d6d6d" />
	<polyline points="50.0,305.0 55.0,305.0" fill="none" stroke="#6d6d6d" />
	<text x="55.0" y="323.0" fill="#6d6d6d" font-family="Arial" font-size="9pt" text-anchor="middle">1</text>
	<text x="205.0" y="323.0" fill="#6d6d6d" font-family="Arial" font-size="9pt" text-anchor="middle">150</text>
	<text x="355.0" y="323.0" fill="#6d6d6d" font-family="Arial" font-size="9pt" text-anchor="middle">300</text>
	<text x="505.0" y="323.0" fill="#6d6d6d" font-family="Arial" font-size="9pt" text-anchor="middle">450</text>
	<text x="655.0" y="323.0" fill="#6d6d6d" font-family="Arial" font-size="9pt" text-anchor="middle">600</text>
	<text x="45.0" y="9.0" fill="#6d6d6d" font-family="Arial" font-size="9pt" text-anchor="end">0.198</text>
	<text x="45.0" y="84.0" fill="#6d6d6d" font-family="Arial" font-size="9pt" text-anchor="end">0.022</text>
	<text x="45.0" y="159.0" fill="#6d6d6d" font-family="Arial" font-size="9pt" text-anchor="end">-0.154</text>
	<text x="45.0" y="234.0" fill="#6d6d6d" font-family="Arial" font-size="9pt" text-anchor="end">-0.33</text>
	<text x="45.0" y="309.0" fill="#6d6d6d" font-family="Arial" font-size="9pt" text-anchor="end">-0.506</text>
</svg>
