<?xml version="1.0" encoding="UTF-8" standalone="no"?>
<!DOCTYPE svg PUBLIC "-//W3C//DTD SVG 1.1//EN" "http://www.w3.org/Graphics/SVG/1.1/DTD/svg11.dtd">
<svg xmlns="http://www.w3.org/2000/svg"  version="1.1" width="693.0" height="380.0" viewBox="-6.0 -12.0 687.0 368.0">
	<desc>LSD Plot - Sim_10c_teste1</desc>
	<polyline points="205.0,6.0 205.0,304.0" fill="none" stroke="#f0f0f0" />
	<polyline points="355.0,6.0 355.0,304.0" fill="none" stroke="#f0f0f0" />
	<polyline points="505.0,6.0 505.0,304.0" fill="none" stroke="#f0f0f0" />
	<polyline points="56.0,80.0 654.0,80.0" fill="none" stroke="#f0f0f0" />
	<polyline points="56.0,155.0 654.0,155.0" fill="none" stroke="#f0f0f0" />
	<polyline points="56.0,230.0 654.0,230.0" fill="none" stroke="#f0f0f0" />
	<text x="5.0" y="345.0" font-family="Arial" font-size="9pt">Y_L_1</text>
	<text x="45.0" y="345.0" fill="#ff0000" font-family="Arial" font-size="9pt">Y_L_2</text>
	<text x="85.0" y="345.0" fill="#008000" font-family="Arial" font-size="9pt">Y_L_3</text>
	<text x="125.0" y="345.0" fill="#d0d000" font-family="Arial" font-size="9pt">Y_L_4</text>
	<text x="165.0" y="345.0" fill="#fb46bc" font-family="Arial" font-size="9pt">Y_L_5</text>
	<text x="205.0" y="345.0" fill="#0000ff" font-family="Arial" font-size="9pt">Y_L_6</text>
	<text x="245.0" y="345.0" fill="#00bfff" font-family="Arial" font-size="9pt">Y_L_7</text>
	<text x="285.0" y="345.0" fill="#4876ff" font-family="Arial" font-size="9pt">Y_L_8</text>
	<text x="325.0" y="345.0" fill="#aeeeee" font-family="Arial" font-size="9pt">Y_L_9</text>
	<text x="365.0" y="345.0" fill="#00ffff" font-family="Arial" font-size="9pt">Y_L_10</text>
	<polyline points="55.0,291.0 56.0,291.0 57.0,290.0 58.0,290.0 59.0,289.0 60.0,289.0 61.0,288.0 62.0,288.0 63.0,287.0 64.0,286.0 65.0,286.0 66.0,285.0 67.0,285.0 68.0,284.0 69.0,283.0 70.0,283.0 71.0,283.0 72.0,282.0 73.0,282.0 74.0,282.0 75.0,282.0 76.0,281.0 77.0,281.0 78.0,280.0 79.0,279.0 80.0,279.0 81.0,278.0 82.0,278.0 83.0,277.0 84.0,277.0 85.0,276.0 86.0,276.0 87.0,276.0 88.0,275.0 89.0,274.0 90.0,274.0 91.0,274.0 92.0,273.0 93.0,273.0 94.0,272.0 95.0,272.0 96.0,272.0 97.0,271.0 98.0,271.0 99.0,270.0 100.0,269.0 101.0,269.0 102.0,269.0 103.0,268.0 104.0,268.0 105.0,268.0 106.0,267.0 107.0,267.0 108.0,266.0 109.0,266.0 110.0,266.0 111.0,266.0 112.0,265.0 113.0,265.0 114.0,264.0 115.0,264.0 116.0,263.0 117.0,263.0 118.0,262.0 119.0,262.0 120.0,261.0 121.0,260.0 122.0,260.0 123.0,259.0 124.0,259.0 125.0,259.0 126.0,258.0 127.0,258.0 128.0,258.0 129.0,258.0 130.0,258.0 131.0,257.0 132.0,257.0 133.0,257.0 134.0,257.0 135.0,257.0 136.0,257.0 137.0,256.0 138.0,256.0 139.0,256.0 140.0,256.0 141.0,256.0 142.0,256.0 143.0,256.0 144.0,255.0 145.0,255.0 146.0,255.0 147.0,255.0 148.0,254.0 149.0,254.0 150.0,254.0 151.0,254.0 152.0,253.0 153.0,253.0 154.0,253.0 155.0,252.0 156.0,252.0 157.0,251.0 158.0,251.0 159.0,250.0 160.0,250.0 161.0,249.0 162.0,249.0 163.0,248.0 164.0,247.0 165.0,247.0 166.0,246.0 167.0,245.0 168.0,244.0 169.0,244.0 170.0,243.0 171.0,242.0 172.0,241.0 173.0,240.0 174.0,239.0 175.0,238.0 176.0,238.0 177.0,237.0 178.0,236.0 179.0,235.0 180.0,235.0 181.0,234.0 182.0,233.0 183.0,233.0 184.0,233.0 185.0,233.0 186.0,233.0 187.0,232.0 188.0,232.0 189.0,232.0 190.0,232.0 191.0,231.0 192.0,231.0 193.0,230.0 194.0,230.0 195.0,230.0 196.0,229.0 197.0,229.0 198.0,229.0 199.0,228.0 200.0,228.0 201.0,228.0 202.0,227.0 203.0,226.0 204.0,225.0 205.0,224.0 206.0,224.0 207.0,224.0 208.0,224.0 209.0,222.0 210.0,222.0 211.0,222.0 212.0,222.0 213.0,221.0 214.0,221.0 215.0,220.0 216.0,220.0 217.0,219.0 218.0,219.0 219.0,218.0 220.0,218.0 221.0,217.0 222.0,217.0 223.0,216.0 224.0,216.0 225.0,215.0 226.0,215.0 227.0,214.0 228.0,213.0 229.0,213.0 230.0,212.0 231.0,212.0 232.0,212.0 233.0,212.0 234.0,211.0 235.0,211.0 236.0,210.0 237.0,210.0 238.0,209.0 239.0,209.0 240.0,208.0 241.0,207.0 242.0,207.0 243.0,206.0 244.0,206.0 245.0,205.0 246.0,205.0 247.0,204.0 248.0,203.0 249.0,203.0 250.0,203.0 251.0,202.0 252.0,202.0 253.0,202.0 254.0,201.0 255.0,200.0 256.0,199.0 257.0,199.0 258.0,199.0 259.0,199.0 260.0,198.0 261.0,197.0 262.0,197.0 263.0,197.0 264.0,196.0 265.0,196.0 266.0,195.0 267.0,195.0 268.0,194.0 269.0,194.0 270.0,193.0 271.0,193.0 272.0,192.0 273.0,192.0 274.0,191.0 275.0,191.0 276.0,190.0 277.0,190.0 278.0,189.0 279.0,188.0 280.0,187.0 281.0,187.0 282.0,187.0 283.0,186.0 284.0,186.0 285.0,186.0 286.0,186.0 287.0,187.0 288.0,187.0 289.0,186.0 290.0,186.0 291.0,186.0 292.0,186.0 293.0,186.0 294.0,185.0 295.0,185.0 296.0,184.0 297.0,184.0 298.0,183.0 299.0,182.0 300.0,182.0 301.0,182.0 302.0,181.0 303.0,181.0 304.0,181.0 305.0,180.0 306.0,180.0 307.0,179.0 308.0,179.0 309.0,178.0 310.0,178.0 311.0,177.0 312.0,176.0 313.0,175.0 314.0,175.0 315.0,175.0 316.0,175.0 317.0,174.0 318.0,174.0 319.0,173.0 320.0,173.0 321.0,173.0 322.0,172.0 323.0,172.0 324.0,171.0 325.0,170.0 326.0,169.0 327.0,169.0 328.0,168.0 329.0,167.0 330.0,166.0 331.0,166.0 332.0,166.0 333.0,166.0 334.0,165.0 335.0,165.0 336.0,164.0 337.0,164.0 338.0,163.0 339.0,162.0 340.0,162.0 341.0,161.0 342.0,161.0 343.0,161.0 344.0,160.0 345.0,159.0 346.0,159.0 347.0,159.0 348.0,158.0 349.0,157.0 350.0,157.0 351.0,156.0 352.0,156.0 353.0,155.0 354.0,154.0 355.0,154.0 356.0,154.0 357.0,153.0 358.0,153.0 359.0,152.0 360.0,152.0 361.0,151.0 362.0,151.0 363.0,151.0 364.0,150.0 365.0,150.0 366.0,150.0 367.0,148.0 368.0,148.0 369.0,147.0 370.0,147.0 371.0,146.0 372.0,146.0 373.0,146.0 374.0,146.0 375.0,145.0 376.0,145.0 377.0,144.0 378.0,144.0 379.0,144.0 380.0,144.0 381.0,142.0 382.0,142.0 383.0,141.0 384.0,141.0 385.0,140.0 386.0,140.0 387.0,139.0 388.0,139.0 389.0,138.0 390.0,137.0 391.0,136.0 392.0,136.0 393.0,135.0 394.0,135.0 395.0,134.0 396.0,133.0 397.0,133.0 398.0,133.0 399.0,133.0 400.0,132.0 401.0,132.0 402.0,131.0 403.0,131.0 404.0,130.0 405.0,130.0 406.0,129.0 407.0,129.0 408.0,128.0 409.0,128.0 410.0,128.0 411.0,128.0 412.0,127.0 413.0,127.0 414.0,127.0 415.0,127.0 416.0,126.0 417.0,126.0 418.0,125.0 419.0,125.0 420.0,125.0 421.0,124.0 422.0,123.0 423.0,123.0 424.0,123.0 425.0,123.0 426.0,122.0 427.0,122.0 428.0,122.0 429.0,122.0 430.0,122.0 431.0,122.0 432.0,122.0 433.0,122.0 434.0,121.0 435.0,120.0 436.0,120.0 437.0,120.0 438.0,119.0 439.0,119.0 440.0,118.0 441.0,119.0 442.0,118.0 443.0,118.0 444.0,117.0 445.0,116.0 446.0,115.0 447.0,114.0 448.0,114.0 449.0,113.0 450.0,113.0 451.0,113.0 452.0,112.0 453.0,112.0 454.0,111.0 455.0,110.0 456.0,110.0 457.0,109.0 458.0,109.0 459.0,108.0 460.0,107.0 461.0,106.0 462.0,105.0 463.0,105.0 464.0,105.0 465.0,105.0 466.0,104.0 467.0,104.0 468.0,103.0 469.0,103.0 470.0,102.0 471.0,102.0 472.0,102.0 473.0,102.0 474.0,102.0 475.0,101.0 476.0,100.0 477.0,99.0 478.0,98.0 479.0,98.0 480.0,98.0 481.0,97.0 482.0,97.0 483.0,97.0 484.0,96.0 485.0,96.0 486.0,95.0 487.0,94.0 488.0,94.0 489.0,94.0 490.0,93.0 491.0,93.0 492.0,92.0 493.0,92.0 494.0,91.0 495.0,90.0 496.0,89.0 497.0,88.0 498.0,87.0 499.0,87.0 500.0,87.0 501.0,86.0 502.0,86.0 503.0,86.0 504.0,85.0 505.0,84.0 506.0,84.0 507.0,84.0 508.0,83.0 509.0,83.0 510.0,83.0 511.0,82.0 512.0,81.0 513.0,81.0 514.0,81.0 515.0,81.0 516.0,80.0 517.0,80.0 518.0,79.0 519.0,79.0 520.0,78.0 521.0,78.0 522.0,76.0 523.0,77.0 524.0,75.0 525.0,76.0 526.0,74.0 527.0,75.0 528.0,73.0 529.0,74.0 530.0,72.0 531.0,73.0 532.0,72.0 533.0,73.0 534.0,71.0 535.0,72.0 536.0,70.0 537.0,71.0 538.0,70.0 539.0,71.0 540.0,69.0 541.0,69.0 542.0,68.0 543.0,69.0 544.0,67.0 545.0,68.0 546.0,67.0 547.0,67.0 548.0,66.0 549.0,66.0 550.0,65.0 551.0,65.0 552.0,64.0 553.0,64.0 554.0,63.0 555.0,62.0 556.0,60.0 557.0,60.0 558.0,60.0 559.0,60.0 560.0,59.0 561.0,59.0 562.0,58.0 563.0,57.0 564.0,56.0 565.0,56.0 566.0,55.0 567.0,54.0 568.0,54.0 569.0,54.0 570.0,53.0 571.0,54.0 572.0,53.0 573.0,53.0 574.0,53.0 575.0,52.0 576.0,52.0 577.0,52.0 578.0,51.0 579.0,50.0 580.0,50.0 581.0,49.0 582.0,48.0 583.0,48.0 584.0,47.0 585.0,47.0 586.0,47.0 587.0,47.0 588.0,46.0 589.0,45.0 590.0,45.0 591.0,44.0 592.0,43.0 593.0,42.0 594.0,41.0 595.0,41.0 596.0,40.0 597.0,40.0 598.0,39.0 599.0,39.0 600.0,39.0 601.0,38.0 602.0,37.0 603.0,36.0 604.0,35.0 605.0,34.0 606.0,33.0 607.0,33.0 608.0,32.0 609.0,32.0 610.0,32.0 611.0,31.0 612.0,31.0 613.0,31.0 614.0,31.0 615.0,30.0 616.0,30.0 617.0,29.0 618.0,29.0 619.0,28.0 620.0,27.0 621.0,27.0 622.0,26.0 623.0,26.0 624.0,26.0 625.0,25.0 626.0,25.0 627.0,24.0 628.0,24.0 629.0,24.0 630.0,24.0 631.0,23.0 632.0,23.0 633.0,22.0 634.0,22.0 635.0,21.0 636.0,21.0 637.0,21.0 638.0,20.0 639.0,19.0 640.0,18.0 641.0,17.0 642.0,17.0 643.0,16.0 644.0,15.0 645.0,15.0 646.0,15.0 647.0,14.0 648.0,13.0 649.0,13.0 650.0,12.0 651.0,12.0 652.0,11.0 653.0,11.0 654.0,10.0" fill="none" stroke="#000000" />
	<polyline points="55.0,291.0 56.0,291.0 57.0,291.0 58.0,291.0 59.0,291.0 60.0,290.0 61.0,290.0 62.0,290.0 63.0,289.0 64.0,289.0 65.0,288.0 66.0,288.0 67.0,287.0 68.0,287.0 69.0,286.0 70.0,286.0 71.0,286.0 72.0,285.0 73.0,285.0 74.0,285.0 75.0,284.0 76.0,284.0 77.0,284.0 78.0,283.0 79.0,283.0 80.0,282.0 81.0,282.0 82.0,282.0 83.0,281.0 84.0,281.0 85.0,280.0 86.0,279.0 87.0,279.0 88.0,279.0 89.0,279.0 90.0,279.0 91.0,279.0 92.0,279.0 93.0,278.0 94.0,278.0 95.0,278.0 96.0,277.0 97.0,276.0 98.0,276.0 99.0,275.0 100.0,274.0 101.0,273.0 102.0,273.0 103.0,272.0 104.0,271.0 105.0,270.0 106.0,269.0 107.0,268.0 108.0,268.0 109.0,267.0 110.0,266.0 111.0,265.0 112.0,265.0 113.0,265.0 114.0,264.0 115.0,263.0 116.0,262.0 117.0,262.0 118.0,262.0 119.0,262.0 120.0,262.0 121.0,261.0 122.0,261.0 123.0,261.0 124.0,260.0 125.0,260.0 126.0,260.0 127.0,260.0 128.0,259.0 129.0,258.0 130.0,258.0 131.0,258.0 132.0,257.0 133.0,256.0 134.0,256.0 135.0,256.0 136.0,256.0 137.0,255.0 138.0,255.0 139.0,255.0 140.0,255.0 141.0,254.0 142.0,254.0 143.0,253.0 144.0,253.0 145.0,252.0 146.0,251.0 147.0,250.0 148.0,250.0 149.0,249.0 150.0,248.0 151.0,248.0 152.0,248.0 153.0,247.0 154.0,246.0 155.0,246.0 156.0,245.0 157.0,244.0 158.0,244.0 159.0,243.0 160.0,242.0 161.0,242.0 162.0,241.0 163.0,240.0 164.0,240.0 165.0,239.0 166.0,239.0 167.0,238.0 168.0,237.0 169.0,237.0 170.0,236.0 171.0,236.0 172.0,236.0 173.0,235.0 174.0,235.0 175.0,234.0 176.0,233.0 177.0,233.0 178.0,233.0 179.0,233.0 180.0,233.0 181.0,233.0 182.0,233.0 183.0,232.0 184.0,232.0 185.0,231.0 186.0,231.0 187.0,231.0 188.0,230.0 189.0,231.0 190.0,230.0 191.0,230.0 192.0,230.0 193.0,230.0 194.0,230.0 195.0,230.0 196.0,229.0 197.0,228.0 198.0,228.0 199.0,227.0 200.0,227.0 201.0,226.0 202.0,225.0 203.0,224.0 204.0,223.0 205.0,223.0 206.0,222.0 207.0,222.0 208.0,222.0 209.0,221.0 210.0,221.0 211.0,220.0 212.0,220.0 213.0,219.0 214.0,219.0 215.0,219.0 216.0,218.0 217.0,218.0 218.0,217.0 219.0,217.0 220.0,216.0 221.0,216.0 222.0,215.0 223.0,214.0 224.0,213.0 225.0,212.0 226.0,212.0 227.0,211.0 228.0,210.0 229.0,210.0 230.0,209.0 231.0,209.0 232.0,209.0 233.0,208.0 234.0,208.0 235.0,208.0 236.0,207.0 237.0,206.0 238.0,206.0 239.0,205.0 240.0,205.0 241.0,205.0 242.0,204.0 243.0,204.0 244.0,203.0 245.0,203.0 246.0,202.0 247.0,202.0 248.0,201.0 249.0,201.0 250.0,200.0 251.0,199.0 252.0,199.0 253.0,199.0 254.0,199.0 255.0,198.0 256.0,198.0 257.0,198.0 258.0,198.0 259.0,197.0 260.0,197.0 261.0,197.0 262.0,196.0 263.0,196.0 264.0,196.0 265.0,196.0 266.0,196.0 267.0,196.0 268.0,196.0 269.0,195.0 270.0,194.0 271.0,192.0 272.0,192.0 273.0,191.0 274.0,191.0 275.0,190.0 276.0,190.0 277.0,189.0 278.0,188.0 279.0,188.0 280.0,187.0 281.0,187.0 282.0,187.0 283.0,186.0 284.0,186.0 285.0,185.0 286.0,185.0 287.0,184.0 288.0,183.0 289.0,183.0 290.0,182.0 291.0,182.0 292.0,181.0 293.0,181.0 294.0,180.0 295.0,180.0 296.0,180.0 297.0,179.0 298.0,179.0 299.0,178.0 300.0,177.0 301.0,177.0 302.0,177.0 303.0,176.0 304.0,175.0 305.0,175.0 306.0,174.0 307.0,174.0 308.0,173.0 309.0,173.0 310.0,172.0 311.0,172.0 312.0,172.0 313.0,171.0 314.0,171.0 315.0,171.0 316.0,171.0 317.0,171.0 318.0,170.0 319.0,170.0 320.0,169.0 321.0,169.0 322.0,168.0 323.0,168.0 324.0,168.0 325.0,168.0 326.0,167.0 327.0,167.0 328.0,166.0 329.0,166.0 330.0,165.0 331.0,165.0 332.0,164.0 333.0,164.0 334.0,164.0 335.0,164.0 336.0,163.0 337.0,163.0 338.0,162.0 339.0,161.0 340.0,161.0 341.0,160.0 342.0,160.0 343.0,159.0 344.0,158.0 345.0,158.0 346.0,157.0 347.0,157.0 348.0,156.0 349.0,156.0 350.0,155.0 351.0,155.0 352.0,155.0 353.0,154.0 354.0,153.0 355.0,153.0 356.0,152.0 357.0,152.0 358.0,151.0 359.0,150.0 360.0,150.0 361.0,150.0 362.0,149.0 363.0,149.0 364.0,149.0 365.0,148.0 366.0,148.0 367.0,147.0 368.0,147.0 369.0,146.0 370.0,146.0 371.0,146.0 372.0,146.0 373.0,146.0 374.0,145.0 375.0,144.0 376.0,144.0 377.0,143.0 378.0,143.0 379.0,143.0 380.0,142.0 381.0,142.0 382.0,142.0 383.0,141.0 384.0,141.0 385.0,140.0 386.0,140.0 387.0,140.0 388.0,140.0 389.0,139.0 390.0,139.0 391.0,139.0 392.0,138.0 393.0,138.0 394.0,138.0 395.0,137.0 396.0,136.0 397.0,135.0 398.0,134.0 399.0,134.0 400.0,133.0 401.0,133.0 402.0,132.0 403.0,131.0 404.0,131.0 405.0,130.0 406.0,130.0 407.0,130.0 408.0,128.0 409.0,128.0 410.0,128.0 411.0,128.0 412.0,127.0 413.0,127.0 414.0,127.0 415.0,127.0 416.0,126.0 417.0,126.0 418.0,125.0 419.0,125.0 420.0,125.0 421.0,124.0 422.0,124.0 423.0,123.0 424.0,123.0 425.0,122.0 426.0,122.0 427.0,121.0 428.0,121.0 429.0,121.0 430.0,120.0 431.0,120.0 432.0,119.0 433.0,119.0 434.0,119.0 435.0,119.0 436.0,119.0 437.0,118.0 438.0,118.0 439.0,118.0 440.0,117.0 441.0,116.0 442.0,115.0 443.0,114.0 444.0,113.0 445.0,110.0 446.0,109.0 447.0,108.0 448.0,107.0 449.0,107.0 450.0,106.0 451.0,106.0 452.0,105.0 453.0,104.0 454.0,103.0 455.0,103.0 456.0,103.0 457.0,102.0 458.0,102.0 459.0,101.0 460.0,101.0 461.0,100.0 462.0,100.0 463.0,100.0 464.0,99.0 465.0,99.0 466.0,99.0 467.0,98.0 468.0,98.0 469.0,98.0 470.0,97.0 471.0,97.0 472.0,96.0 473.0,96.0 474.0,96.0 475.0,95.0 476.0,95.0 477.0,95.0 478.0,94.0 479.0,94.0 480.0,94.0 481.0,93.0 482.0,93.0 483.0,93.0 484.0,92.0 485.0,92.0 486.0,91.0 487.0,91.0 488.0,90.0 489.0,90.0 490.0,89.0 491.0,88.0 492.0,88.0 493.0,88.0 494.0,87.0 495.0,86.0 496.0,86.0 497.0,85.0 498.0,85.0 499.0,85.0 500.0,84.0 501.0,84.0 502.0,83.0 503.0,83.0 504.0,82.0 505.0,82.0 506.0,81.0 507.0,80.0 508.0,80.0 509.0,79.0 510.0,79.0 511.0,79.0 512.0,78.0 513.0,77.0 514.0,77.0 515.0,76.0 516.0,76.0 517.0,76.0 518.0,75.0 519.0,75.0 520.0,75.0 521.0,74.0 522.0,74.0 523.0,74.0 524.0,73.0 525.0,73.0 526.0,73.0 527.0,72.0 528.0,72.0 529.0,71.0 530.0,71.0 531.0,70.0 532.0,69.0 533.0,68.0 534.0,68.0 535.0,67.0 536.0,67.0 537.0,66.0 538.0,66.0 539.0,65.0 540.0,65.0 541.0,64.0 542.0,64.0 543.0,64.0 544.0,64.0 545.0,64.0 546.0,63.0 547.0,63.0 548.0,63.0 549.0,63.0 550.0,63.0 551.0,62.0 552.0,61.0 553.0,60.0 554.0,60.0 555.0,59.0 556.0,59.0 557.0,58.0 558.0,58.0 559.0,57.0 560.0,57.0 561.0,57.0 562.0,56.0 563.0,55.0 564.0,54.0 565.0,54.0 566.0,53.0 567.0,52.0 568.0,52.0 569.0,51.0 570.0,50.0 571.0,50.0 572.0,50.0 573.0,49.0 574.0,49.0 575.0,48.0 576.0,48.0 577.0,48.0 578.0,47.0 579.0,47.0 580.0,47.0 581.0,46.0 582.0,46.0 583.0,45.0 584.0,45.0 585.0,45.0 586.0,44.0 587.0,44.0 588.0,44.0 589.0,43.0 590.0,43.0 591.0,42.0 592.0,42.0 593.0,41.0 594.0,40.0 595.0,40.0 596.0,40.0 597.0,40.0 598.0,40.0 599.0,39.0 600.0,38.0 601.0,38.0 602.0,38.0 603.0,37.0 604.0,37.0 605.0,37.0 606.0,37.0 607.0,37.0 608.0,36.0 609.0,36.0 610.0,36.0 611.0,35.0 612.0,35.0 613.0,35.0 614.0,34.0 615.0,33.0 616.0,32.0 617.0,31.0 618.0,31.0 619.0,30.0 620.0,29.0 621.0,28.0 622.0,27.0 623.0,26.0 624.0,26.0 625.0,25.0 626.0,25.0 627.0,24.0 628.0,24.0 629.0,23.0 630.0,23.0 631.0,23.0 632.0,23.0 633.0,23.0 634.0,23.0 635.0,22.0 636.0,22.0 637.0,22.0 638.0,22.0 639.0,22.0 640.0,21.0 641.0,21.0 642.0,21.0 643.0,20.0 644.0,20.0 645.0,19.0 646.0,19.0 647.0,18.0 648.0,17.0 649.0,17.0 650.0,16.0 651.0,16.0 652.0,15.0 653.0,15.0 654.0,15.0" fill="none" stroke="#ff0000" />
	<polyline points="55.0,293.0 56.0,292.0 57.0,292.0 58.0,291.0 59.0,291.0 60.0,290.0 61.0,290.0 62.0,290.0 63.0,289.0 64.0,289.0 65.0,288.0 66.0,287.0 67.0,287.0 68.0,287.0 69.0,287.0 70.0,286.0 71.0,285.0 72.0,285.0 73.0,285.0 74.0,284.0 75.0,284.0 76.0,284.0 77.0,283.0 78.0,282.0 79.0,282.0 80.0,281.0 81.0,281.0 82.0,280.0 83.0,280.0 84.0,280.0 85.0,280.0 86.0,279.0 87.0,278.0 88.0,278.0 89.0,277.0 90.0,277.0 91.0,277.0 92.0,276.0 93.0,276.0 94.0,275.0 95.0,274.0 96.0,274.0 97.0,273.0 98.0,272.0 99.0,271.0 100.0,271.0 101.0,271.0 102.0,270.0 103.0,269.0 104.0,269.0 105.0,268.0 106.0,268.0 107.0,268.0 108.0,267.0 109.0,267.0 110.0,266.0 111.0,266.0 112.0,265.0 113.0,265.0 114.0,264.0 115.0,264.0 116.0,264.0 117.0,263.0 118.0,263.0 119.0,262.0 120.0,262.0 121.0,261.0 122.0,261.0 123.0,260.0 124.0,260.0 125.0,260.0 126.0,259.0 127.0,258.0 128.0,258.0 129.0,257.0 130.0,257.0 131.0,256.0 132.0,256.0 133.0,256.0 134.0,256.0 135.0,256.0 136.0,255.0 137.0,255.0 138.0,254.0 139.0,254.0 140.0,254.0 141.0,253.0 142.0,253.0 143.0,253.0 144.0,252.0 145.0,251.0 146.0,251.0 147.0,250.0 148.0,250.0 149.0,249.0 150.0,249.0 151.0,248.0 152.0,248.0 153.0,247.0 154.0,246.0 155.0,246.0 156.0,246.0 157.0,245.0 158.0,245.0 159.0,245.0 160.0,245.0 161.0,244.0 162.0,243.0 163.0,243.0 164.0,243.0 165.0,242.0 166.0,242.0 167.0,241.0 168.0,240.0 169.0,240.0 170.0,239.0 171.0,238.0 172.0,238.0 173.0,238.0 174.0,238.0 175.0,237.0 176.0,236.0 177.0,236.0 178.0,236.0 179.0,236.0 180.0,236.0 181.0,235.0 182.0,235.0 183.0,235.0 184.0,235.0 185.0,234.0 186.0,233.0 187.0,232.0 188.0,231.0 189.0,230.0 190.0,230.0 191.0,228.0 192.0,228.0 193.0,227.0 194.0,227.0 195.0,227.0 196.0,227.0 197.0,226.0 198.0,226.0 199.0,226.0 200.0,226.0 201.0,225.0 202.0,225.0 203.0,225.0 204.0,224.0 205.0,224.0 206.0,223.0 207.0,223.0 208.0,222.0 209.0,221.0 210.0,221.0 211.0,220.0 212.0,219.0 213.0,219.0 214.0,219.0 215.0,219.0 216.0,218.0 217.0,218.0 218.0,217.0 219.0,217.0 220.0,217.0 221.0,217.0 222.0,216.0 223.0,216.0 224.0,215.0 225.0,215.0 226.0,214.0 227.0,214.0 228.0,214.0 229.0,213.0 230.0,212.0 231.0,212.0 232.0,212.0 233.0,211.0 234.0,211.0 235.0,210.0 236.0,210.0 237.0,209.0 238.0,209.0 239.0,209.0 240.0,209.0 241.0,208.0 242.0,208.0 243.0,207.0 244.0,207.0 245.0,206.0 246.0,205.0 247.0,204.0 248.0,204.0 249.0,204.0 250.0,203.0 251.0,203.0 252.0,203.0 253.0,202.0 254.0,202.0 255.0,201.0 256.0,201.0 257.0,200.0 258.0,199.0 259.0,198.0 260.0,198.0 261.0,197.0 262.0,197.0 263.0,196.0 264.0,195.0 265.0,194.0 266.0,194.0 267.0,194.0 268.0,194.0 269.0,193.0 270.0,193.0 271.0,193.0 272.0,193.0 273.0,192.0 274.0,191.0 275.0,191.0 276.0,190.0 277.0,189.0 278.0,189.0 279.0,189.0 280.0,188.0 281.0,188.0 282.0,188.0 283.0,188.0 284.0,187.0 285.0,187.0 286.0,187.0 287.0,186.0 288.0,186.0 289.0,185.0 290.0,185.0 291.0,184.0 292.0,184.0 293.0,183.0 294.0,182.0 295.0,182.0 296.0,181.0 297.0,181.0 298.0,180.0 299.0,180.0 300.0,179.0 301.0,179.0 302.0,178.0 303.0,178.0 304.0,177.0 305.0,177.0 306.0,176.0 307.0,176.0 308.0,175.0 309.0,174.0 310.0,174.0 311.0,174.0 312.0,173.0 313.0,173.0 314.0,172.0 315.0,172.0 316.0,171.0 317.0,171.0 318.0,171.0 319.0,170.0 320.0,170.0 321.0,170.0 322.0,169.0 323.0,169.0 324.0,168.0 325.0,168.0 326.0,167.0 327.0,167.0 328.0,166.0 329.0,166.0 330.0,165.0 331.0,165.0 332.0,164.0 333.0,164.0 334.0,163.0 335.0,163.0 336.0,162.0 337.0,162.0 338.0,161.0 339.0,160.0 340.0,160.0 341.0,159.0 342.0,158.0 343.0,158.0 344.0,157.0 345.0,157.0 346.0,157.0 347.0,157.0 348.0,157.0 349.0,157.0 350.0,156.0 351.0,156.0 352.0,155.0 353.0,155.0 354.0,154.0 355.0,155.0 356.0,154.0 357.0,155.0 358.0,154.0 359.0,153.0 360.0,152.0 361.0,152.0 362.0,150.0 363.0,150.0 364.0,149.0 365.0,149.0 366.0,148.0 367.0,148.0 368.0,147.0 369.0,147.0 370.0,146.0 371.0,146.0 372.0,145.0 373.0,145.0 374.0,144.0 375.0,144.0 376.0,144.0 377.0,143.0 378.0,143.0 379.0,142.0 380.0,142.0 381.0,141.0 382.0,140.0 383.0,140.0 384.0,139.0 385.0,139.0 386.0,138.0 387.0,138.0 388.0,138.0 389.0,138.0 390.0,137.0 391.0,137.0 392.0,136.0 393.0,136.0 394.0,136.0 395.0,135.0 396.0,135.0 397.0,135.0 398.0,134.0 399.0,133.0 400.0,133.0 401.0,132.0 402.0,131.0 403.0,131.0 404.0,130.0 405.0,129.0 406.0,129.0 407.0,128.0 408.0,128.0 409.0,127.0 410.0,127.0 411.0,126.0 412.0,126.0 413.0,126.0 414.0,125.0 415.0,125.0 416.0,124.0 417.0,123.0 418.0,123.0 419.0,122.0 420.0,122.0 421.0,121.0 422.0,121.0 423.0,120.0 424.0,120.0 425.0,120.0 426.0,120.0 427.0,119.0 428.0,119.0 429.0,119.0 430.0,119.0 431.0,118.0 432.0,118.0 433.0,118.0 434.0,117.0 435.0,116.0 436.0,116.0 437.0,115.0 438.0,114.0 439.0,113.0 440.0,112.0 441.0,111.0 442.0,111.0 443.0,111.0 444.0,110.0 445.0,110.0 446.0,110.0 447.0,110.0 448.0,109.0 449.0,109.0 450.0,108.0 451.0,108.0 452.0,107.0 453.0,107.0 454.0,106.0 455.0,106.0 456.0,106.0 457.0,106.0 458.0,105.0 459.0,105.0 460.0,105.0 461.0,104.0 462.0,104.0 463.0,103.0 464.0,103.0 465.0,102.0 466.0,101.0 467.0,101.0 468.0,100.0 469.0,100.0 470.0,99.0 471.0,98.0 472.0,98.0 473.0,98.0 474.0,97.0 475.0,96.0 476.0,96.0 477.0,95.0 478.0,95.0 479.0,95.0 480.0,94.0 481.0,94.0 482.0,94.0 483.0,93.0 484.0,92.0 485.0,92.0 486.0,92.0 487.0,91.0 488.0,91.0 489.0,91.0 490.0,90.0 491.0,89.0 492.0,89.0 493.0,89.0 494.0,88.0 495.0,88.0 496.0,87.0 497.0,87.0 498.0,86.0 499.0,86.0 500.0,85.0 501.0,85.0 502.0,85.0 503.0,85.0 504.0,84.0 505.0,84.0 506.0,83.0 507.0,83.0 508.0,82.0 509.0,81.0 510.0,81.0 511.0,80.0 512.0,79.0 513.0,79.0 514.0,78.0 515.0,78.0 516.0,77.0 517.0,76.0 518.0,76.0 519.0,75.0 520.0,75.0 521.0,74.0 522.0,74.0 523.0,74.0 524.0,74.0 525.0,73.0 526.0,73.0 527.0,73.0 528.0,72.0 529.0,72.0 530.0,72.0 531.0,72.0 532.0,72.0 533.0,71.0 534.0,71.0 535.0,71.0 536.0,70.0 537.0,69.0 538.0,69.0 539.0,69.0 540.0,68.0 541.0,67.0 542.0,66.0 543.0,64.0 544.0,64.0 545.0,64.0 546.0,63.0 547.0,62.0 548.0,62.0 549.0,61.0 550.0,61.0 551.0,61.0 552.0,60.0 553.0,59.0 554.0,58.0 555.0,58.0 556.0,57.0 557.0,57.0 558.0,57.0 559.0,56.0 560.0,56.0 561.0,56.0 562.0,55.0 563.0,55.0 564.0,55.0 565.0,55.0 566.0,55.0 567.0,54.0 568.0,54.0 569.0,53.0 570.0,53.0 571.0,52.0 572.0,52.0 573.0,52.0 574.0,51.0 575.0,50.0 576.0,49.0 577.0,49.0 578.0,49.0 579.0,49.0 580.0,48.0 581.0,48.0 582.0,47.0 583.0,47.0 584.0,46.0 585.0,46.0 586.0,46.0 587.0,45.0 588.0,45.0 589.0,45.0 590.0,45.0 591.0,44.0 592.0,44.0 593.0,44.0 594.0,43.0 595.0,42.0 596.0,42.0 597.0,41.0 598.0,41.0 599.0,40.0 600.0,40.0 601.0,39.0 602.0,39.0 603.0,39.0 604.0,38.0 605.0,37.0 606.0,37.0 607.0,36.0 608.0,36.0 609.0,36.0 610.0,35.0 611.0,35.0 612.0,34.0 613.0,34.0 614.0,33.0 615.0,33.0 616.0,32.0 617.0,31.0 618.0,31.0 619.0,30.0 620.0,29.0 621.0,29.0 622.0,28.0 623.0,28.0 624.0,27.0 625.0,26.0 626.0,26.0 627.0,25.0 628.0,25.0 629.0,24.0 630.0,24.0 631.0,24.0 632.0,23.0 633.0,22.0 634.0,22.0 635.0,21.0 636.0,21.0 637.0,20.0 638.0,20.0 639.0,19.0 640.0,19.0 641.0,18.0 642.0,18.0 643.0,18.0 644.0,18.0 645.0,17.0 646.0,17.0 647.0,16.0 648.0,16.0 649.0,15.0 650.0,15.0 651.0,14.0 652.0,14.0 653.0,13.0 654.0,12.0" fill="none" stroke="#008000" />
	<polyline points="55.0,303.0 56.0,303.0 57.0,302.0 58.0,302.0 59.0,302.0 60.0,301.0 61.0,301.0 62.0,301.0 63.0,300.0 64.0,300.0 65.0,300.0 66.0,299.0 67.0,299.0 68.0,298.0 69.0,297.0 70.0,296.0 71.0,296.0 72.0,296.0 73.0,295.0 74.0,295.0 75.0,294.0 76.0,294.0 77.0,293.0 78.0,292.0 79.0,292.0 80.0,291.0 81.0,291.0 82.0,291.0 83.0,290.0 84.0,289.0 85.0,289.0 86.0,288.0 87.0,288.0 88.0,288.0 89.0,287.0 90.0,287.0 91.0,287.0 92.0,286.0 93.0,286.0 94.0,285.0 95.0,285.0 96.0,285.0 97.0,285.0 98.0,284.0 99.0,283.0 100.0,283.0 101.0,282.0 102.0,282.0 103.0,282.0 104.0,282.0 105.0,281.0 106.0,281.0 107.0,280.0 108.0,280.0 109.0,280.0 110.0,279.0 111.0,279.0 112.0,278.0 113.0,278.0 114.0,277.0 115.0,277.0 116.0,277.0 117.0,277.0 118.0,276.0 119.0,275.0 120.0,274.0 121.0,273.0 122.0,273.0 123.0,273.0 124.0,272.0 125.0,272.0 126.0,271.0 127.0,271.0 128.0,271.0 129.0,270.0 130.0,269.0 131.0,269.0 132.0,268.0 133.0,268.0 134.0,266.0 135.0,266.0 136.0,266.0 137.0,265.0 138.0,264.0 139.0,265.0 140.0,265.0 141.0,265.0 142.0,264.0 143.0,264.0 144.0,264.0 145.0,264.0 146.0,262.0 147.0,263.0 148.0,262.0 149.0,261.0 150.0,261.0 151.0,261.0 152.0,260.0 153.0,260.0 154.0,258.0 155.0,259.0 156.0,258.0 157.0,258.0 158.0,258.0 159.0,258.0 160.0,257.0 161.0,258.0 162.0,257.0 163.0,257.0 164.0,257.0 165.0,257.0 166.0,256.0 167.0,256.0 168.0,256.0 169.0,255.0 170.0,255.0 171.0,254.0 172.0,255.0 173.0,253.0 174.0,254.0 175.0,252.0 176.0,253.0 177.0,252.0 178.0,252.0 179.0,248.0 180.0,247.0 181.0,245.0 182.0,247.0 183.0,246.0 184.0,246.0 185.0,245.0 186.0,244.0 187.0,243.0 188.0,244.0 189.0,244.0 190.0,244.0 191.0,243.0 192.0,242.0 193.0,241.0 194.0,241.0 195.0,240.0 196.0,241.0 197.0,240.0 198.0,240.0 199.0,239.0 200.0,237.0 201.0,237.0 202.0,236.0 203.0,237.0 204.0,236.0 205.0,237.0 206.0,236.0 207.0,236.0 208.0,235.0 209.0,235.0 210.0,234.0 211.0,234.0 212.0,233.0 213.0,233.0 214.0,232.0 215.0,232.0 216.0,232.0 217.0,231.0 218.0,230.0 219.0,229.0 220.0,229.0 221.0,229.0 222.0,229.0 223.0,228.0 224.0,229.0 225.0,228.0 226.0,227.0 227.0,227.0 228.0,226.0 229.0,226.0 230.0,225.0 231.0,225.0 232.0,224.0 233.0,224.0 234.0,223.0 235.0,223.0 236.0,223.0 237.0,223.0 238.0,222.0 239.0,222.0 240.0,222.0 241.0,221.0 242.0,220.0 243.0,220.0 244.0,219.0 245.0,219.0 246.0,218.0 247.0,217.0 248.0,218.0 249.0,216.0 250.0,215.0 251.0,214.0 252.0,214.0 253.0,214.0 254.0,214.0 255.0,214.0 256.0,213.0 257.0,212.0 258.0,212.0 259.0,211.0 260.0,211.0 261.0,210.0 262.0,210.0 263.0,209.0 264.0,210.0 265.0,209.0 266.0,209.0 267.0,208.0 268.0,208.0 269.0,206.0 270.0,207.0 271.0,205.0 272.0,206.0 273.0,205.0 274.0,207.0 275.0,204.0 276.0,206.0 277.0,204.0 278.0,205.0 279.0,203.0 280.0,204.0 281.0,202.0 282.0,203.0 283.0,201.0 284.0,202.0 285.0,201.0 286.0,201.0 287.0,197.0 288.0,197.0 289.0,194.0 290.0,197.0 291.0,194.0 292.0,197.0 293.0,193.0 294.0,196.0 295.0,193.0 296.0,195.0 297.0,192.0 298.0,195.0 299.0,192.0 300.0,194.0 301.0,191.0 302.0,193.0 303.0,189.0 304.0,191.0 305.0,188.0 306.0,190.0 307.0,186.0 308.0,188.0 309.0,184.0 310.0,187.0 311.0,184.0 312.0,187.0 313.0,184.0 314.0,187.0 315.0,183.0 316.0,186.0 317.0,182.0 318.0,185.0 319.0,182.0 320.0,185.0 321.0,181.0 322.0,185.0 323.0,181.0 324.0,184.0 325.0,181.0 326.0,183.0 327.0,178.0 328.0,182.0 329.0,178.0 330.0,182.0 331.0,177.0 332.0,181.0 333.0,175.0 334.0,180.0 335.0,174.0 336.0,180.0 337.0,174.0 338.0,179.0 339.0,173.0 340.0,179.0 341.0,172.0 342.0,179.0 343.0,172.0 344.0,178.0 345.0,169.0 346.0,175.0 347.0,168.0 348.0,175.0 349.0,168.0 350.0,175.0 351.0,167.0 352.0,174.0 353.0,166.0 354.0,174.0 355.0,166.0 356.0,173.0 357.0,166.0 358.0,172.0 359.0,166.0 360.0,171.0 361.0,164.0 362.0,170.0 363.0,164.0 364.0,168.0 365.0,162.0 366.0,166.0 367.0,162.0 368.0,165.0 369.0,161.0 370.0,164.0 371.0,161.0 372.0,163.0 373.0,159.0 374.0,161.0 375.0,159.0 376.0,161.0 377.0,158.0 378.0,159.0 379.0,157.0 380.0,158.0 381.0,156.0 382.0,157.0 383.0,155.0 384.0,156.0 385.0,153.0 386.0,154.0 387.0,152.0 388.0,152.0 389.0,150.0 390.0,151.0 391.0,148.0 392.0,150.0 393.0,148.0 394.0,149.0 395.0,146.0 396.0,147.0 397.0,145.0 398.0,146.0 399.0,143.0 400.0,144.0 401.0,142.0 402.0,143.0 403.0,141.0 404.0,142.0 405.0,141.0 406.0,142.0 407.0,141.0 408.0,142.0 409.0,140.0 410.0,141.0 411.0,140.0 412.0,140.0 413.0,138.0 414.0,138.0 415.0,137.0 416.0,138.0 417.0,137.0 418.0,138.0 419.0,135.0 420.0,136.0 421.0,134.0 422.0,136.0 423.0,135.0 424.0,135.0 425.0,133.0 426.0,134.0 427.0,132.0 428.0,133.0 429.0,131.0 430.0,133.0 431.0,130.0 432.0,132.0 433.0,129.0 434.0,131.0 435.0,129.0 436.0,132.0 437.0,128.0 438.0,131.0 439.0,127.0 440.0,131.0 441.0,126.0 442.0,131.0 443.0,126.0 444.0,130.0 445.0,126.0 446.0,129.0 447.0,124.0 448.0,127.0 449.0,123.0 450.0,125.0 451.0,121.0 452.0,123.0 453.0,119.0 454.0,120.0 455.0,117.0 456.0,119.0 457.0,116.0 458.0,118.0 459.0,116.0 460.0,118.0 461.0,115.0 462.0,117.0 463.0,115.0 464.0,116.0 465.0,114.0 466.0,115.0 467.0,113.0 468.0,113.0 469.0,112.0 470.0,112.0 471.0,111.0 472.0,111.0 473.0,109.0 474.0,110.0 475.0,108.0 476.0,110.0 477.0,108.0 478.0,108.0 479.0,107.0 480.0,108.0 481.0,105.0 482.0,106.0 483.0,104.0 484.0,105.0 485.0,103.0 486.0,105.0 487.0,103.0 488.0,104.0 489.0,102.0 490.0,103.0 491.0,101.0 492.0,103.0 493.0,100.0 494.0,102.0 495.0,98.0 496.0,101.0 497.0,97.0 498.0,101.0 499.0,97.0 500.0,100.0 501.0,95.0 502.0,99.0 503.0,93.0 504.0,98.0 505.0,92.0 506.0,98.0 507.0,91.0 508.0,99.0 509.0,90.0 510.0,98.0 511.0,89.0 512.0,98.0 513.0,87.0 514.0,99.0 515.0,87.0 516.0,99.0 517.0,86.0 518.0,101.0 519.0,85.0 520.0,102.0 521.0,86.0 522.0,102.0 523.0,86.0 524.0,98.0 525.0,86.0 526.0,92.0 527.0,84.0 528.0,89.0 529.0,84.0 530.0,87.0 531.0,82.0 532.0,86.0 533.0,81.0 534.0,84.0 535.0,81.0 536.0,82.0 537.0,80.0 538.0,81.0 539.0,78.0 540.0,81.0 541.0,78.0 542.0,79.0 543.0,77.0 544.0,78.0 545.0,76.0 546.0,77.0 547.0,75.0 548.0,77.0 549.0,75.0 550.0,75.0 551.0,73.0 552.0,74.0 553.0,72.0 554.0,74.0 555.0,72.0 556.0,73.0 557.0,71.0 558.0,72.0 559.0,71.0 560.0,71.0 561.0,69.0 562.0,70.0 563.0,69.0 564.0,69.0 565.0,67.0 566.0,67.0 567.0,66.0 568.0,67.0 569.0,65.0 570.0,66.0 571.0,64.0 572.0,66.0 573.0,63.0 574.0,64.0 575.0,63.0 576.0,63.0 577.0,62.0 578.0,63.0 579.0,63.0 580.0,62.0 581.0,61.0 582.0,60.0 583.0,60.0 584.0,60.0 585.0,60.0 586.0,61.0 587.0,60.0 588.0,59.0 589.0,59.0 590.0,59.0 591.0,59.0 592.0,58.0 593.0,58.0 594.0,57.0 595.0,58.0 596.0,56.0 597.0,57.0 598.0,55.0 599.0,56.0 600.0,54.0 601.0,55.0 602.0,53.0 603.0,54.0 604.0,52.0 605.0,53.0 606.0,51.0 607.0,53.0 608.0,50.0 609.0,52.0 610.0,48.0 611.0,51.0 612.0,46.0 613.0,48.0 614.0,43.0 615.0,47.0 616.0,42.0 617.0,48.0 618.0,41.0 619.0,48.0 620.0,39.0 621.0,46.0 622.0,38.0 623.0,47.0 624.0,37.0 625.0,47.0 626.0,36.0 627.0,48.0 628.0,35.0 629.0,47.0 630.0,35.0 631.0,46.0 632.0,33.0 633.0,44.0 634.0,34.0 635.0,41.0 636.0,34.0 637.0,39.0 638.0,33.0 639.0,36.0 640.0,32.0 641.0,34.0 642.0,30.0 643.0,32.0 644.0,30.0 645.0,30.0 646.0,29.0 647.0,30.0 648.0,27.0 649.0,29.0 650.0,28.0 651.0,28.0 652.0,26.0 653.0,28.0 654.0,25.0" fill="none" stroke="#d0d000" />
	<polyline points="55.0,292.0 56.0,291.0 57.0,291.0 58.0,291.0 59.0,290.0 60.0,289.0 61.0,289.0 62.0,289.0 63.0,288.0 64.0,288.0 65.0,287.0 66.0,286.0 67.0,286.0 68.0,285.0 69.0,285.0 70.0,285.0 71.0,284.0 72.0,284.0 73.0,283.0 74.0,283.0 75.0,283.0 76.0,282.0 77.0,282.0 78.0,281.0 79.0,281.0 80.0,280.0 81.0,279.0 82.0,279.0 83.0,278.0 84.0,278.0 85.0,278.0 86.0,277.0 87.0,277.0 88.0,276.0 89.0,276.0 90.0,275.0 91.0,274.0 92.0,274.0 93.0,273.0 94.0,273.0 95.0,273.0 96.0,272.0 97.0,272.0 98.0,272.0 99.0,271.0 100.0,271.0 101.0,271.0 102.0,270.0 103.0,270.0 104.0,269.0 105.0,269.0 106.0,268.0 107.0,267.0 108.0,267.0 109.0,266.0 110.0,266.0 111.0,265.0 112.0,265.0 113.0,264.0 114.0,264.0 115.0,263.0 116.0,262.0 117.0,262.0 118.0,262.0 119.0,262.0 120.0,261.0 121.0,261.0 122.0,261.0 123.0,260.0 124.0,260.0 125.0,260.0 126.0,259.0 127.0,259.0 128.0,258.0 129.0,257.0 130.0,257.0 131.0,256.0 132.0,256.0 133.0,255.0 134.0,255.0 135.0,255.0 136.0,254.0 137.0,254.0 138.0,253.0 139.0,252.0 140.0,252.0 141.0,251.0 142.0,250.0 143.0,250.0 144.0,250.0 145.0,249.0 146.0,249.0 147.0,249.0 148.0,248.0 149.0,248.0 150.0,248.0 151.0,247.0 152.0,246.0 153.0,245.0 154.0,245.0 155.0,245.0 156.0,244.0 157.0,244.0 158.0,244.0 159.0,243.0 160.0,242.0 161.0,242.0 162.0,242.0 163.0,242.0 164.0,242.0 165.0,240.0 166.0,240.0 167.0,240.0 168.0,239.0 169.0,239.0 170.0,239.0 171.0,238.0 172.0,237.0 173.0,237.0 174.0,237.0 175.0,236.0 176.0,235.0 177.0,235.0 178.0,234.0 179.0,234.0 180.0,234.0 181.0,234.0 182.0,233.0 183.0,233.0 184.0,232.0 185.0,232.0 186.0,232.0 187.0,231.0 188.0,231.0 189.0,230.0 190.0,230.0 191.0,230.0 192.0,229.0 193.0,228.0 194.0,227.0 195.0,227.0 196.0,226.0 197.0,226.0 198.0,226.0 199.0,225.0 200.0,225.0 201.0,225.0 202.0,225.0 203.0,224.0 204.0,224.0 205.0,223.0 206.0,223.0 207.0,222.0 208.0,222.0 209.0,221.0 210.0,221.0 211.0,221.0 212.0,220.0 213.0,220.0 214.0,219.0 215.0,219.0 216.0,218.0 217.0,217.0 218.0,217.0 219.0,217.0 220.0,216.0 221.0,216.0 222.0,216.0 223.0,215.0 224.0,215.0 225.0,214.0 226.0,214.0 227.0,213.0 228.0,213.0 229.0,213.0 230.0,212.0 231.0,212.0 232.0,211.0 233.0,211.0 234.0,211.0 235.0,210.0 236.0,210.0 237.0,209.0 238.0,209.0 239.0,208.0 240.0,208.0 241.0,208.0 242.0,207.0 243.0,207.0 244.0,207.0 245.0,206.0 246.0,206.0 247.0,206.0 248.0,205.0 249.0,205.0 250.0,204.0 251.0,204.0 252.0,203.0 253.0,203.0 254.0,202.0 255.0,202.0 256.0,201.0 257.0,201.0 258.0,201.0 259.0,200.0 260.0,200.0 261.0,200.0 262.0,199.0 263.0,199.0 264.0,198.0 265.0,198.0 266.0,197.0 267.0,196.0 268.0,195.0 269.0,194.0 270.0,193.0 271.0,193.0 272.0,192.0 273.0,192.0 274.0,191.0 275.0,191.0 276.0,190.0 277.0,189.0 278.0,189.0 279.0,189.0 280.0,188.0 281.0,187.0 282.0,186.0 283.0,186.0 284.0,186.0 285.0,185.0 286.0,185.0 287.0,184.0 288.0,184.0 289.0,183.0 290.0,183.0 291.0,182.0 292.0,182.0 293.0,181.0 294.0,181.0 295.0,181.0 296.0,180.0 297.0,179.0 298.0,178.0 299.0,178.0 300.0,177.0 301.0,177.0 302.0,177.0 303.0,176.0 304.0,175.0 305.0,175.0 306.0,175.0 307.0,174.0 308.0,174.0 309.0,174.0 310.0,173.0 311.0,173.0 312.0,172.0 313.0,171.0 314.0,171.0 315.0,170.0 316.0,170.0 317.0,170.0 318.0,169.0 319.0,169.0 320.0,168.0 321.0,168.0 322.0,168.0 323.0,168.0 324.0,167.0 325.0,167.0 326.0,167.0 327.0,166.0 328.0,166.0 329.0,165.0 330.0,165.0 331.0,164.0 332.0,164.0 333.0,163.0 334.0,163.0 335.0,163.0 336.0,163.0 337.0,163.0 338.0,162.0 339.0,162.0 340.0,162.0 341.0,161.0 342.0,161.0 343.0,160.0 344.0,160.0 345.0,159.0 346.0,159.0 347.0,159.0 348.0,158.0 349.0,158.0 350.0,157.0 351.0,157.0 352.0,157.0 353.0,156.0 354.0,156.0 355.0,155.0 356.0,155.0 357.0,155.0 358.0,154.0 359.0,154.0 360.0,154.0 361.0,153.0 362.0,153.0 363.0,153.0 364.0,152.0 365.0,152.0 366.0,151.0 367.0,151.0 368.0,151.0 369.0,151.0 370.0,150.0 371.0,150.0 372.0,149.0 373.0,149.0 374.0,148.0 375.0,148.0 376.0,148.0 377.0,148.0 378.0,147.0 379.0,146.0 380.0,145.0 381.0,145.0 382.0,144.0 383.0,144.0 384.0,143.0 385.0,143.0 386.0,143.0 387.0,143.0 388.0,142.0 389.0,142.0 390.0,142.0 391.0,141.0 392.0,140.0 393.0,140.0 394.0,139.0 395.0,139.0 396.0,139.0 397.0,139.0 398.0,138.0 399.0,138.0 400.0,137.0 401.0,137.0 402.0,137.0 403.0,136.0 404.0,136.0 405.0,136.0 406.0,135.0 407.0,135.0 408.0,134.0 409.0,133.0 410.0,132.0 411.0,130.0 412.0,129.0 413.0,129.0 414.0,129.0 415.0,128.0 416.0,128.0 417.0,128.0 418.0,128.0 419.0,128.0 420.0,127.0 421.0,127.0 422.0,126.0 423.0,126.0 424.0,125.0 425.0,125.0 426.0,124.0 427.0,124.0 428.0,123.0 429.0,122.0 430.0,121.0 431.0,121.0 432.0,120.0 433.0,120.0 434.0,120.0 435.0,119.0 436.0,119.0 437.0,119.0 438.0,118.0 439.0,118.0 440.0,118.0 441.0,118.0 442.0,116.0 443.0,116.0 444.0,115.0 445.0,114.0 446.0,113.0 447.0,112.0 448.0,111.0 449.0,110.0 450.0,109.0 451.0,109.0 452.0,109.0 453.0,108.0 454.0,108.0 455.0,108.0 456.0,107.0 457.0,106.0 458.0,106.0 459.0,105.0 460.0,105.0 461.0,104.0 462.0,103.0 463.0,102.0 464.0,101.0 465.0,101.0 466.0,100.0 467.0,100.0 468.0,100.0 469.0,99.0 470.0,99.0 471.0,98.0 472.0,97.0 473.0,97.0 474.0,96.0 475.0,96.0 476.0,96.0 477.0,96.0 478.0,95.0 479.0,95.0 480.0,94.0 481.0,94.0 482.0,93.0 483.0,93.0 484.0,92.0 485.0,92.0 486.0,92.0 487.0,92.0 488.0,92.0 489.0,92.0 490.0,91.0 491.0,91.0 492.0,91.0 493.0,90.0 494.0,90.0 495.0,90.0 496.0,89.0 497.0,88.0 498.0,88.0 499.0,88.0 500.0,88.0 501.0,88.0 502.0,87.0 503.0,86.0 504.0,85.0 505.0,84.0 506.0,83.0 507.0,83.0 508.0,82.0 509.0,82.0 510.0,81.0 511.0,81.0 512.0,80.0 513.0,79.0 514.0,78.0 515.0,78.0 516.0,77.0 517.0,78.0 518.0,76.0 519.0,76.0 520.0,75.0 521.0,75.0 522.0,74.0 523.0,74.0 524.0,73.0 525.0,72.0 526.0,71.0 527.0,71.0 528.0,70.0 529.0,69.0 530.0,69.0 531.0,68.0 532.0,67.0 533.0,66.0 534.0,66.0 535.0,66.0 536.0,66.0 537.0,65.0 538.0,65.0 539.0,64.0 540.0,63.0 541.0,63.0 542.0,63.0 543.0,63.0 544.0,62.0 545.0,61.0 546.0,60.0 547.0,60.0 548.0,59.0 549.0,59.0 550.0,59.0 551.0,58.0 552.0,58.0 553.0,58.0 554.0,57.0 555.0,57.0 556.0,57.0 557.0,56.0 558.0,56.0 559.0,56.0 560.0,55.0 561.0,55.0 562.0,55.0 563.0,54.0 564.0,54.0 565.0,54.0 566.0,54.0 567.0,54.0 568.0,53.0 569.0,53.0 570.0,52.0 571.0,51.0 572.0,50.0 573.0,50.0 574.0,48.0 575.0,48.0 576.0,47.0 577.0,46.0 578.0,45.0 579.0,45.0 580.0,44.0 581.0,44.0 582.0,43.0 583.0,43.0 584.0,42.0 585.0,42.0 586.0,41.0 587.0,41.0 588.0,41.0 589.0,40.0 590.0,40.0 591.0,40.0 592.0,40.0 593.0,39.0 594.0,38.0 595.0,38.0 596.0,37.0 597.0,37.0 598.0,36.0 599.0,35.0 600.0,35.0 601.0,35.0 602.0,34.0 603.0,34.0 604.0,34.0 605.0,33.0 606.0,33.0 607.0,32.0 608.0,32.0 609.0,31.0 610.0,31.0 611.0,31.0 612.0,31.0 613.0,30.0 614.0,30.0 615.0,29.0 616.0,29.0 617.0,28.0 618.0,28.0 619.0,27.0 620.0,28.0 621.0,27.0 622.0,27.0 623.0,27.0 624.0,27.0 625.0,26.0 626.0,26.0 627.0,26.0 628.0,26.0 629.0,24.0 630.0,25.0 631.0,24.0 632.0,25.0 633.0,24.0 634.0,23.0 635.0,22.0 636.0,23.0 637.0,22.0 638.0,22.0 639.0,21.0 640.0,20.0 641.0,20.0 642.0,20.0 643.0,19.0 644.0,19.0 645.0,18.0 646.0,17.0 647.0,17.0 648.0,16.0 649.0,16.0 650.0,15.0 651.0,14.0 652.0,14.0 653.0,13.0 654.0,12.0" fill="none" stroke="#fb46bc" />
	<polyline points="55.0,301.0 56.0,301.0 57.0,301.0 58.0,300.0 59.0,300.0 60.0,300.0 61.0,299.0 62.0,299.0 63.0,298.0 64.0,297.0 65.0,297.0 66.0,297.0 67.0,296.0 68.0,296.0 69.0,295.0 70.0,295.0 71.0,294.0 72.0,294.0 73.0,294.0 74.0,293.0 75.0,292.0 76.0,292.0 77.0,291.0 78.0,291.0 79.0,291.0 80.0,291.0 81.0,291.0 82.0,290.0 83.0,289.0 84.0,289.0 85.0,289.0 86.0,288.0 87.0,288.0 88.0,287.0 89.0,287.0 90.0,287.0 91.0,286.0 92.0,286.0 93.0,285.0 94.0,285.0 95.0,285.0 96.0,285.0 97.0,284.0 98.0,284.0 99.0,283.0 100.0,283.0 101.0,283.0 102.0,282.0 103.0,282.0 104.0,282.0 105.0,281.0 106.0,281.0 107.0,280.0 108.0,280.0 109.0,279.0 110.0,278.0 111.0,278.0 112.0,277.0 113.0,276.0 114.0,276.0 115.0,276.0 116.0,275.0 117.0,275.0 118.0,274.0 119.0,273.0 120.0,273.0 121.0,272.0 122.0,272.0 123.0,272.0 124.0,271.0 125.0,271.0 126.0,270.0 127.0,269.0 128.0,269.0 129.0,268.0 130.0,267.0 131.0,266.0 132.0,266.0 133.0,266.0 134.0,266.0 135.0,265.0 136.0,266.0 137.0,265.0 138.0,265.0 139.0,264.0 140.0,264.0 141.0,263.0 142.0,263.0 143.0,263.0 144.0,262.0 145.0,262.0 146.0,261.0 147.0,261.0 148.0,261.0 149.0,260.0 150.0,260.0 151.0,259.0 152.0,259.0 153.0,259.0 154.0,258.0 155.0,258.0 156.0,257.0 157.0,257.0 158.0,256.0 159.0,255.0 160.0,255.0 161.0,254.0 162.0,254.0 163.0,253.0 164.0,253.0 165.0,252.0 166.0,251.0 167.0,251.0 168.0,250.0 169.0,250.0 170.0,249.0 171.0,249.0 172.0,248.0 173.0,248.0 174.0,247.0 175.0,247.0 176.0,246.0 177.0,246.0 178.0,245.0 179.0,245.0 180.0,244.0 181.0,244.0 182.0,243.0 183.0,243.0 184.0,242.0 185.0,242.0 186.0,241.0 187.0,241.0 188.0,240.0 189.0,239.0 190.0,239.0 191.0,239.0 192.0,238.0 193.0,238.0 194.0,238.0 195.0,237.0 196.0,237.0 197.0,236.0 198.0,235.0 199.0,235.0 200.0,235.0 201.0,235.0 202.0,234.0 203.0,233.0 204.0,233.0 205.0,232.0 206.0,232.0 207.0,231.0 208.0,231.0 209.0,231.0 210.0,231.0 211.0,230.0 212.0,230.0 213.0,229.0 214.0,229.0 215.0,228.0 216.0,228.0 217.0,227.0 218.0,227.0 219.0,226.0 220.0,226.0 221.0,226.0 222.0,226.0 223.0,226.0 224.0,225.0 225.0,225.0 226.0,225.0 227.0,225.0 228.0,224.0 229.0,224.0 230.0,224.0 231.0,223.0 232.0,222.0 233.0,222.0 234.0,221.0 235.0,221.0 236.0,220.0 237.0,220.0 238.0,219.0 239.0,219.0 240.0,218.0 241.0,217.0 242.0,217.0 243.0,216.0 244.0,216.0 245.0,216.0 246.0,215.0 247.0,215.0 248.0,215.0 249.0,214.0 250.0,213.0 251.0,213.0 252.0,212.0 253.0,212.0 254.0,211.0 255.0,211.0 256.0,210.0 257.0,209.0 258.0,208.0 259.0,209.0 260.0,208.0 261.0,208.0 262.0,207.0 263.0,207.0 264.0,207.0 265.0,207.0 266.0,207.0 267.0,207.0 268.0,206.0 269.0,205.0 270.0,205.0 271.0,205.0 272.0,204.0 273.0,204.0 274.0,202.0 275.0,202.0 276.0,201.0 277.0,201.0 278.0,200.0 279.0,200.0 280.0,199.0 281.0,199.0 282.0,198.0 283.0,199.0 284.0,197.0 285.0,197.0 286.0,195.0 287.0,196.0 288.0,195.0 289.0,196.0 290.0,194.0 291.0,195.0 292.0,193.0 293.0,194.0 294.0,193.0 295.0,194.0 296.0,192.0 297.0,193.0 298.0,192.0 299.0,193.0 300.0,191.0 301.0,192.0 302.0,191.0 303.0,191.0 304.0,190.0 305.0,190.0 306.0,189.0 307.0,190.0 308.0,189.0 309.0,189.0 310.0,188.0 311.0,187.0 312.0,186.0 313.0,184.0 314.0,184.0 315.0,184.0 316.0,183.0 317.0,183.0 318.0,182.0 319.0,183.0 320.0,181.0 321.0,182.0 322.0,181.0 323.0,182.0 324.0,179.0 325.0,180.0 326.0,179.0 327.0,180.0 328.0,178.0 329.0,178.0 330.0,178.0 331.0,179.0 332.0,177.0 333.0,178.0 334.0,176.0 335.0,177.0 336.0,175.0 337.0,175.0 338.0,174.0 339.0,175.0 340.0,173.0 341.0,173.0 342.0,172.0 343.0,173.0 344.0,171.0 345.0,171.0 346.0,171.0 347.0,171.0 348.0,170.0 349.0,170.0 350.0,169.0 351.0,170.0 352.0,169.0 353.0,169.0 354.0,168.0 355.0,167.0 356.0,166.0 357.0,166.0 358.0,165.0 359.0,165.0 360.0,164.0 361.0,164.0 362.0,163.0 363.0,163.0 364.0,162.0 365.0,162.0 366.0,161.0 367.0,162.0 368.0,161.0 369.0,162.0 370.0,161.0 371.0,161.0 372.0,160.0 373.0,159.0 374.0,159.0 375.0,159.0 376.0,158.0 377.0,158.0 378.0,157.0 379.0,156.0 380.0,156.0 381.0,156.0 382.0,155.0 383.0,155.0 384.0,155.0 385.0,154.0 386.0,154.0 387.0,154.0 388.0,153.0 389.0,153.0 390.0,152.0 391.0,152.0 392.0,151.0 393.0,150.0 394.0,150.0 395.0,149.0 396.0,149.0 397.0,149.0 398.0,148.0 399.0,148.0 400.0,148.0 401.0,147.0 402.0,147.0 403.0,146.0 404.0,146.0 405.0,146.0 406.0,145.0 407.0,145.0 408.0,144.0 409.0,144.0 410.0,144.0 411.0,143.0 412.0,142.0 413.0,142.0 414.0,142.0 415.0,142.0 416.0,141.0 417.0,142.0 418.0,141.0 419.0,141.0 420.0,140.0 421.0,139.0 422.0,139.0 423.0,138.0 424.0,137.0 425.0,137.0 426.0,137.0 427.0,136.0 428.0,136.0 429.0,136.0 430.0,134.0 431.0,134.0 432.0,134.0 433.0,134.0 434.0,133.0 435.0,132.0 436.0,132.0 437.0,131.0 438.0,131.0 439.0,131.0 440.0,131.0 441.0,131.0 442.0,129.0 443.0,130.0 444.0,129.0 445.0,129.0 446.0,128.0 447.0,128.0 448.0,127.0 449.0,127.0 450.0,125.0 451.0,125.0 452.0,124.0 453.0,124.0 454.0,122.0 455.0,123.0 456.0,121.0 457.0,122.0 458.0,120.0 459.0,118.0 460.0,117.0 461.0,117.0 462.0,117.0 463.0,116.0 464.0,115.0 465.0,115.0 466.0,114.0 467.0,114.0 468.0,113.0 469.0,113.0 470.0,113.0 471.0,112.0 472.0,111.0 473.0,111.0 474.0,110.0 475.0,110.0 476.0,110.0 477.0,110.0 478.0,109.0 479.0,108.0 480.0,108.0 481.0,107.0 482.0,107.0 483.0,106.0 484.0,106.0 485.0,106.0 486.0,106.0 487.0,105.0 488.0,104.0 489.0,104.0 490.0,104.0 491.0,103.0 492.0,103.0 493.0,103.0 494.0,102.0 495.0,101.0 496.0,100.0 497.0,100.0 498.0,98.0 499.0,99.0 500.0,98.0 501.0,97.0 502.0,97.0 503.0,97.0 504.0,96.0 505.0,96.0 506.0,95.0 507.0,95.0 508.0,94.0 509.0,95.0 510.0,93.0 511.0,94.0 512.0,92.0 513.0,93.0 514.0,91.0 515.0,92.0 516.0,89.0 517.0,91.0 518.0,88.0 519.0,92.0 520.0,86.0 521.0,91.0 522.0,85.0 523.0,91.0 524.0,83.0 525.0,90.0 526.0,82.0 527.0,89.0 528.0,80.0 529.0,89.0 530.0,80.0 531.0,89.0 532.0,80.0 533.0,89.0 534.0,81.0 535.0,89.0 536.0,81.0 537.0,89.0 538.0,81.0 539.0,88.0 540.0,80.0 541.0,85.0 542.0,78.0 543.0,82.0 544.0,77.0 545.0,80.0 546.0,76.0 547.0,79.0 548.0,75.0 549.0,78.0 550.0,74.0 551.0,76.0 552.0,73.0 553.0,75.0 554.0,73.0 555.0,75.0 556.0,72.0 557.0,73.0 558.0,71.0 559.0,72.0 560.0,70.0 561.0,71.0 562.0,69.0 563.0,70.0 564.0,68.0 565.0,69.0 566.0,67.0 567.0,68.0 568.0,67.0 569.0,67.0 570.0,66.0 571.0,66.0 572.0,64.0 573.0,65.0 574.0,62.0 575.0,64.0 576.0,63.0 577.0,62.0 578.0,61.0 579.0,62.0 580.0,60.0 581.0,61.0 582.0,60.0 583.0,60.0 584.0,59.0 585.0,59.0 586.0,58.0 587.0,58.0 588.0,57.0 589.0,57.0 590.0,57.0 591.0,57.0 592.0,56.0 593.0,55.0 594.0,55.0 595.0,54.0 596.0,53.0 597.0,52.0 598.0,52.0 599.0,52.0 600.0,51.0 601.0,51.0 602.0,50.0 603.0,50.0 604.0,50.0 605.0,49.0 606.0,49.0 607.0,49.0 608.0,49.0 609.0,48.0 610.0,48.0 611.0,47.0 612.0,47.0 613.0,47.0 614.0,47.0 615.0,45.0 616.0,45.0 617.0,44.0 618.0,44.0 619.0,43.0 620.0,43.0 621.0,42.0 622.0,43.0 623.0,41.0 624.0,42.0 625.0,41.0 626.0,41.0 627.0,40.0 628.0,40.0 629.0,39.0 630.0,39.0 631.0,38.0 632.0,38.0 633.0,38.0 634.0,38.0 635.0,36.0 636.0,36.0 637.0,34.0 638.0,35.0 639.0,32.0 640.0,34.0 641.0,32.0 642.0,32.0 643.0,30.0 644.0,30.0 645.0,28.0 646.0,29.0 647.0,27.0 648.0,27.0 649.0,25.0 650.0,26.0 651.0,24.0 652.0,24.0 653.0,23.0 654.0,23.0" fill="none" stroke="#0000ff" />
	<polyline points="55.0,291.0 56.0,291.0 57.0,291.0 58.0,291.0 59.0,290.0 60.0,290.0 61.0,290.0 62.0,290.0 63.0,289.0 64.0,288.0 65.0,288.0 66.0,287.0 67.0,287.0 68.0,287.0 69.0,287.0 70.0,286.0 71.0,286.0 72.0,286.0 73.0,285.0 74.0,284.0 75.0,284.0 76.0,283.0 77.0,283.0 78.0,283.0 79.0,282.0 80.0,282.0 81.0,282.0 82.0,282.0 83.0,281.0 84.0,281.0 85.0,281.0 86.0,281.0 87.0,280.0 88.0,279.0 89.0,278.0 90.0,278.0 91.0,277.0 92.0,277.0 93.0,276.0 94.0,275.0 95.0,275.0 96.0,274.0 97.0,274.0 98.0,273.0 99.0,273.0 100.0,273.0 101.0,273.0 102.0,272.0 103.0,272.0 104.0,272.0 105.0,271.0 106.0,271.0 107.0,271.0 108.0,270.0 109.0,269.0 110.0,269.0 111.0,268.0 112.0,268.0 113.0,267.0 114.0,266.0 115.0,265.0 116.0,264.0 117.0,263.0 118.0,262.0 119.0,262.0 120.0,262.0 121.0,262.0 122.0,261.0 123.0,260.0 124.0,260.0 125.0,260.0 126.0,259.0 127.0,258.0 128.0,257.0 129.0,257.0 130.0,256.0 131.0,256.0 132.0,255.0 133.0,255.0 134.0,255.0 135.0,255.0 136.0,254.0 137.0,254.0 138.0,254.0 139.0,254.0 140.0,253.0 141.0,253.0 142.0,252.0 143.0,251.0 144.0,250.0 145.0,250.0 146.0,250.0 147.0,249.0 148.0,249.0 149.0,249.0 150.0,248.0 151.0,248.0 152.0,248.0 153.0,247.0 154.0,247.0 155.0,246.0 156.0,245.0 157.0,245.0 158.0,244.0 159.0,243.0 160.0,242.0 161.0,242.0 162.0,242.0 163.0,241.0 164.0,241.0 165.0,240.0 166.0,240.0 167.0,239.0 168.0,239.0 169.0,238.0 170.0,238.0 171.0,238.0 172.0,237.0 173.0,236.0 174.0,236.0 175.0,236.0 176.0,235.0 177.0,235.0 178.0,235.0 179.0,235.0 180.0,235.0 181.0,234.0 182.0,234.0 183.0,233.0 184.0,233.0 185.0,232.0 186.0,232.0 187.0,232.0 188.0,231.0 189.0,231.0 190.0,231.0 191.0,230.0 192.0,230.0 193.0,230.0 194.0,230.0 195.0,229.0 196.0,229.0 197.0,228.0 198.0,227.0 199.0,227.0 200.0,226.0 201.0,226.0 202.0,225.0 203.0,225.0 204.0,224.0 205.0,224.0 206.0,224.0 207.0,223.0 208.0,223.0 209.0,222.0 210.0,222.0 211.0,222.0 212.0,221.0 213.0,221.0 214.0,221.0 215.0,220.0 216.0,220.0 217.0,219.0 218.0,219.0 219.0,218.0 220.0,218.0 221.0,218.0 222.0,218.0 223.0,217.0 224.0,216.0 225.0,215.0 226.0,214.0 227.0,214.0 228.0,213.0 229.0,212.0 230.0,211.0 231.0,211.0 232.0,211.0 233.0,211.0 234.0,210.0 235.0,209.0 236.0,209.0 237.0,208.0 238.0,208.0 239.0,208.0 240.0,207.0 241.0,207.0 242.0,207.0 243.0,207.0 244.0,206.0 245.0,206.0 246.0,205.0 247.0,205.0 248.0,205.0 249.0,205.0 250.0,204.0 251.0,203.0 252.0,203.0 253.0,202.0 254.0,201.0 255.0,201.0 256.0,201.0 257.0,200.0 258.0,200.0 259.0,199.0 260.0,199.0 261.0,199.0 262.0,199.0 263.0,199.0 264.0,198.0 265.0,198.0 266.0,197.0 267.0,196.0 268.0,196.0 269.0,196.0 270.0,196.0 271.0,196.0 272.0,195.0 273.0,194.0 274.0,193.0 275.0,193.0 276.0,193.0 277.0,193.0 278.0,193.0 279.0,192.0 280.0,192.0 281.0,192.0 282.0,192.0 283.0,192.0 284.0,192.0 285.0,192.0 286.0,192.0 287.0,191.0 288.0,191.0 289.0,190.0 290.0,189.0 291.0,187.0 292.0,186.0 293.0,186.0 294.0,185.0 295.0,184.0 296.0,183.0 297.0,183.0 298.0,182.0 299.0,182.0 300.0,181.0 301.0,181.0 302.0,180.0 303.0,181.0 304.0,180.0 305.0,180.0 306.0,179.0 307.0,179.0 308.0,178.0 309.0,178.0 310.0,177.0 311.0,177.0 312.0,176.0 313.0,175.0 314.0,175.0 315.0,175.0 316.0,174.0 317.0,174.0 318.0,174.0 319.0,173.0 320.0,173.0 321.0,172.0 322.0,171.0 323.0,171.0 324.0,170.0 325.0,170.0 326.0,169.0 327.0,168.0 328.0,168.0 329.0,168.0 330.0,167.0 331.0,166.0 332.0,166.0 333.0,165.0 334.0,164.0 335.0,164.0 336.0,163.0 337.0,163.0 338.0,163.0 339.0,162.0 340.0,162.0 341.0,161.0 342.0,159.0 343.0,158.0 344.0,157.0 345.0,157.0 346.0,156.0 347.0,155.0 348.0,155.0 349.0,154.0 350.0,154.0 351.0,154.0 352.0,154.0 353.0,153.0 354.0,153.0 355.0,152.0 356.0,152.0 357.0,151.0 358.0,151.0 359.0,150.0 360.0,150.0 361.0,149.0 362.0,149.0 363.0,148.0 364.0,147.0 365.0,147.0 366.0,147.0 367.0,146.0 368.0,146.0 369.0,145.0 370.0,145.0 371.0,144.0 372.0,143.0 373.0,143.0 374.0,142.0 375.0,142.0 376.0,141.0 377.0,141.0 378.0,140.0 379.0,140.0 380.0,140.0 381.0,139.0 382.0,139.0 383.0,139.0 384.0,138.0 385.0,138.0 386.0,138.0 387.0,137.0 388.0,137.0 389.0,136.0 390.0,136.0 391.0,135.0 392.0,135.0 393.0,134.0 394.0,134.0 395.0,134.0 396.0,134.0 397.0,134.0 398.0,134.0 399.0,134.0 400.0,133.0 401.0,132.0 402.0,131.0 403.0,131.0 404.0,131.0 405.0,130.0 406.0,130.0 407.0,130.0 408.0,129.0 409.0,129.0 410.0,129.0 411.0,128.0 412.0,128.0 413.0,127.0 414.0,127.0 415.0,127.0 416.0,126.0 417.0,126.0 418.0,126.0 419.0,125.0 420.0,125.0 421.0,124.0 422.0,124.0 423.0,124.0 424.0,124.0 425.0,124.0 426.0,123.0 427.0,123.0 428.0,123.0 429.0,124.0 430.0,123.0 431.0,123.0 432.0,123.0 433.0,123.0 434.0,122.0 435.0,122.0 436.0,122.0 437.0,122.0 438.0,121.0 439.0,122.0 440.0,121.0 441.0,121.0 442.0,120.0 443.0,120.0 444.0,119.0 445.0,118.0 446.0,117.0 447.0,117.0 448.0,116.0 449.0,115.0 450.0,115.0 451.0,115.0 452.0,114.0 453.0,114.0 454.0,113.0 455.0,112.0 456.0,111.0 457.0,110.0 458.0,109.0 459.0,108.0 460.0,108.0 461.0,108.0 462.0,108.0 463.0,107.0 464.0,107.0 465.0,106.0 466.0,106.0 467.0,105.0 468.0,105.0 469.0,104.0 470.0,104.0 471.0,103.0 472.0,102.0 473.0,102.0 474.0,101.0 475.0,101.0 476.0,100.0 477.0,98.0 478.0,97.0 479.0,97.0 480.0,96.0 481.0,94.0 482.0,94.0 483.0,93.0 484.0,93.0 485.0,92.0 486.0,92.0 487.0,91.0 488.0,91.0 489.0,90.0 490.0,90.0 491.0,90.0 492.0,89.0 493.0,89.0 494.0,89.0 495.0,89.0 496.0,88.0 497.0,88.0 498.0,87.0 499.0,87.0 500.0,87.0 501.0,87.0 502.0,86.0 503.0,86.0 504.0,85.0 505.0,84.0 506.0,83.0 507.0,83.0 508.0,81.0 509.0,81.0 510.0,81.0 511.0,80.0 512.0,80.0 513.0,80.0 514.0,79.0 515.0,79.0 516.0,78.0 517.0,78.0 518.0,78.0 519.0,78.0 520.0,76.0 521.0,76.0 522.0,75.0 523.0,75.0 524.0,75.0 525.0,74.0 526.0,74.0 527.0,74.0 528.0,73.0 529.0,72.0 530.0,71.0 531.0,71.0 532.0,71.0 533.0,70.0 534.0,70.0 535.0,69.0 536.0,69.0 537.0,69.0 538.0,68.0 539.0,68.0 540.0,67.0 541.0,67.0 542.0,66.0 543.0,66.0 544.0,65.0 545.0,65.0 546.0,63.0 547.0,63.0 548.0,63.0 549.0,63.0 550.0,62.0 551.0,62.0 552.0,61.0 553.0,60.0 554.0,60.0 555.0,59.0 556.0,59.0 557.0,58.0 558.0,57.0 559.0,57.0 560.0,56.0 561.0,56.0 562.0,56.0 563.0,55.0 564.0,55.0 565.0,55.0 566.0,54.0 567.0,53.0 568.0,53.0 569.0,53.0 570.0,52.0 571.0,52.0 572.0,51.0 573.0,51.0 574.0,51.0 575.0,51.0 576.0,50.0 577.0,50.0 578.0,50.0 579.0,49.0 580.0,49.0 581.0,49.0 582.0,48.0 583.0,47.0 584.0,46.0 585.0,45.0 586.0,45.0 587.0,44.0 588.0,44.0 589.0,43.0 590.0,43.0 591.0,42.0 592.0,41.0 593.0,41.0 594.0,40.0 595.0,40.0 596.0,40.0 597.0,39.0 598.0,39.0 599.0,38.0 600.0,37.0 601.0,36.0 602.0,36.0 603.0,35.0 604.0,35.0 605.0,35.0 606.0,34.0 607.0,34.0 608.0,34.0 609.0,34.0 610.0,33.0 611.0,33.0 612.0,32.0 613.0,32.0 614.0,32.0 615.0,32.0 616.0,31.0 617.0,30.0 618.0,30.0 619.0,29.0 620.0,28.0 621.0,27.0 622.0,27.0 623.0,26.0 624.0,25.0 625.0,25.0 626.0,24.0 627.0,23.0 628.0,22.0 629.0,22.0 630.0,21.0 631.0,20.0 632.0,20.0 633.0,19.0 634.0,18.0 635.0,17.0 636.0,17.0 637.0,17.0 638.0,17.0 639.0,17.0 640.0,16.0 641.0,16.0 642.0,16.0 643.0,16.0 644.0,16.0 645.0,15.0 646.0,15.0 647.0,14.0 648.0,14.0 649.0,13.0 650.0,12.0 651.0,12.0 652.0,11.0 653.0,11.0 654.0,11.0" fill="none" stroke="#00bfff" />
	<polyline points="55.0,293.0 56.0,293.0 57.0,292.0 58.0,292.0 59.0,292.0 60.0,291.0 61.0,291.0 62.0,291.0 63.0,290.0 64.0,289.0 65.0,288.0 66.0,288.0 67.0,288.0 68.0,287.0 69.0,287.0 70.0,286.0 71.0,286.0 72.0,285.0 73.0,284.0 74.0,284.0 75.0,283.0 76.0,283.0 77.0,282.0 78.0,282.0 79.0,282.0 80.0,281.0 81.0,281.0 82.0,281.0 83.0,280.0 84.0,279.0 85.0,279.0 86.0,278.0 87.0,278.0 88.0,277.0 89.0,276.0 90.0,276.0 91.0,276.0 92.0,275.0 93.0,275.0 94.0,275.0 95.0,275.0 96.0,274.0 97.0,274.0 98.0,273.0 99.0,273.0 100.0,272.0 101.0,271.0 102.0,271.0 103.0,271.0 104.0,270.0 105.0,270.0 106.0,270.0 107.0,270.0 108.0,269.0 109.0,268.0 110.0,268.0 111.0,267.0 112.0,267.0 113.0,266.0 114.0,265.0 115.0,264.0 116.0,264.0 117.0,263.0 118.0,262.0 119.0,262.0 120.0,261.0 121.0,261.0 122.0,260.0 123.0,259.0 124.0,259.0 125.0,259.0 126.0,258.0 127.0,258.0 128.0,258.0 129.0,257.0 130.0,257.0 131.0,257.0 132.0,256.0 133.0,256.0 134.0,256.0 135.0,255.0 136.0,254.0 137.0,254.0 138.0,253.0 139.0,253.0 140.0,253.0 141.0,253.0 142.0,252.0 143.0,252.0 144.0,252.0 145.0,251.0 146.0,250.0 147.0,250.0 148.0,250.0 149.0,250.0 150.0,249.0 151.0,249.0 152.0,249.0 153.0,248.0 154.0,248.0 155.0,248.0 156.0,247.0 157.0,247.0 158.0,246.0 159.0,246.0 160.0,245.0 161.0,245.0 162.0,244.0 163.0,244.0 164.0,244.0 165.0,243.0 166.0,242.0 167.0,242.0 168.0,242.0 169.0,242.0 170.0,241.0 171.0,241.0 172.0,240.0 173.0,238.0 174.0,236.0 175.0,236.0 176.0,236.0 177.0,235.0 178.0,235.0 179.0,235.0 180.0,234.0 181.0,234.0 182.0,234.0 183.0,234.0 184.0,233.0 185.0,232.0 186.0,232.0 187.0,232.0 188.0,231.0 189.0,231.0 190.0,230.0 191.0,230.0 192.0,230.0 193.0,229.0 194.0,228.0 195.0,228.0 196.0,228.0 197.0,227.0 198.0,226.0 199.0,226.0 200.0,226.0 201.0,225.0 202.0,224.0 203.0,224.0 204.0,223.0 205.0,222.0 206.0,222.0 207.0,221.0 208.0,221.0 209.0,220.0 210.0,220.0 211.0,220.0 212.0,219.0 213.0,219.0 214.0,218.0 215.0,218.0 216.0,218.0 217.0,218.0 218.0,218.0 219.0,218.0 220.0,217.0 221.0,216.0 222.0,216.0 223.0,215.0 224.0,214.0 225.0,214.0 226.0,214.0 227.0,213.0 228.0,213.0 229.0,213.0 230.0,213.0 231.0,213.0 232.0,213.0 233.0,212.0 234.0,212.0 235.0,211.0 236.0,210.0 237.0,210.0 238.0,210.0 239.0,209.0 240.0,210.0 241.0,209.0 242.0,208.0 243.0,207.0 244.0,206.0 245.0,205.0 246.0,204.0 247.0,204.0 248.0,204.0 249.0,203.0 250.0,203.0 251.0,202.0 252.0,202.0 253.0,202.0 254.0,202.0 255.0,201.0 256.0,199.0 257.0,198.0 258.0,197.0 259.0,197.0 260.0,196.0 261.0,196.0 262.0,196.0 263.0,195.0 264.0,194.0 265.0,194.0 266.0,194.0 267.0,193.0 268.0,193.0 269.0,193.0 270.0,192.0 271.0,192.0 272.0,192.0 273.0,192.0 274.0,192.0 275.0,192.0 276.0,191.0 277.0,191.0 278.0,191.0 279.0,191.0 280.0,190.0 281.0,190.0 282.0,189.0 283.0,188.0 284.0,188.0 285.0,188.0 286.0,188.0 287.0,187.0 288.0,187.0 289.0,187.0 290.0,187.0 291.0,187.0 292.0,186.0 293.0,185.0 294.0,184.0 295.0,184.0 296.0,183.0 297.0,181.0 298.0,180.0 299.0,180.0 300.0,179.0 301.0,178.0 302.0,177.0 303.0,177.0 304.0,176.0 305.0,176.0 306.0,176.0 307.0,176.0 308.0,175.0 309.0,175.0 310.0,174.0 311.0,173.0 312.0,173.0 313.0,173.0 314.0,172.0 315.0,171.0 316.0,170.0 317.0,169.0 318.0,169.0 319.0,169.0 320.0,168.0 321.0,168.0 322.0,167.0 323.0,167.0 324.0,166.0 325.0,165.0 326.0,165.0 327.0,164.0 328.0,163.0 329.0,163.0 330.0,162.0 331.0,162.0 332.0,161.0 333.0,161.0 334.0,160.0 335.0,160.0 336.0,160.0 337.0,160.0 338.0,160.0 339.0,159.0 340.0,158.0 341.0,158.0 342.0,158.0 343.0,157.0 344.0,157.0 345.0,157.0 346.0,157.0 347.0,156.0 348.0,155.0 349.0,155.0 350.0,154.0 351.0,154.0 352.0,153.0 353.0,153.0 354.0,153.0 355.0,152.0 356.0,152.0 357.0,151.0 358.0,150.0 359.0,150.0 360.0,150.0 361.0,150.0 362.0,149.0 363.0,149.0 364.0,149.0 365.0,148.0 366.0,148.0 367.0,148.0 368.0,148.0 369.0,148.0 370.0,147.0 371.0,147.0 372.0,147.0 373.0,147.0 374.0,146.0 375.0,145.0 376.0,144.0 377.0,144.0 378.0,143.0 379.0,143.0 380.0,143.0 381.0,142.0 382.0,141.0 383.0,141.0 384.0,141.0 385.0,141.0 386.0,141.0 387.0,140.0 388.0,139.0 389.0,139.0 390.0,139.0 391.0,139.0 392.0,139.0 393.0,138.0 394.0,138.0 395.0,137.0 396.0,137.0 397.0,136.0 398.0,136.0 399.0,135.0 400.0,134.0 401.0,134.0 402.0,134.0 403.0,133.0 404.0,132.0 405.0,131.0 406.0,131.0 407.0,131.0 408.0,130.0 409.0,130.0 410.0,129.0 411.0,129.0 412.0,128.0 413.0,126.0 414.0,125.0 415.0,124.0 416.0,124.0 417.0,124.0 418.0,124.0 419.0,123.0 420.0,122.0 421.0,122.0 422.0,122.0 423.0,122.0 424.0,121.0 425.0,121.0 426.0,120.0 427.0,120.0 428.0,120.0 429.0,119.0 430.0,119.0 431.0,118.0 432.0,117.0 433.0,117.0 434.0,117.0 435.0,116.0 436.0,114.0 437.0,113.0 438.0,112.0 439.0,111.0 440.0,110.0 441.0,110.0 442.0,109.0 443.0,109.0 444.0,108.0 445.0,108.0 446.0,107.0 447.0,107.0 448.0,107.0 449.0,106.0 450.0,106.0 451.0,106.0 452.0,106.0 453.0,105.0 454.0,104.0 455.0,104.0 456.0,104.0 457.0,103.0 458.0,103.0 459.0,102.0 460.0,101.0 461.0,101.0 462.0,100.0 463.0,100.0 464.0,100.0 465.0,99.0 466.0,98.0 467.0,98.0 468.0,98.0 469.0,98.0 470.0,97.0 471.0,97.0 472.0,96.0 473.0,96.0 474.0,95.0 475.0,95.0 476.0,94.0 477.0,93.0 478.0,93.0 479.0,92.0 480.0,91.0 481.0,90.0 482.0,90.0 483.0,90.0 484.0,89.0 485.0,88.0 486.0,88.0 487.0,87.0 488.0,87.0 489.0,86.0 490.0,86.0 491.0,86.0 492.0,85.0 493.0,85.0 494.0,84.0 495.0,84.0 496.0,84.0 497.0,83.0 498.0,83.0 499.0,82.0 500.0,82.0 501.0,82.0 502.0,81.0 503.0,81.0 504.0,81.0 505.0,81.0 506.0,80.0 507.0,81.0 508.0,81.0 509.0,80.0 510.0,80.0 511.0,79.0 512.0,78.0 513.0,78.0 514.0,78.0 515.0,78.0 516.0,77.0 517.0,77.0 518.0,76.0 519.0,76.0 520.0,75.0 521.0,76.0 522.0,74.0 523.0,74.0 524.0,73.0 525.0,73.0 526.0,72.0 527.0,73.0 528.0,72.0 529.0,72.0 530.0,72.0 531.0,72.0 532.0,71.0 533.0,71.0 534.0,70.0 535.0,71.0 536.0,69.0 537.0,70.0 538.0,69.0 539.0,69.0 540.0,68.0 541.0,68.0 542.0,67.0 543.0,67.0 544.0,66.0 545.0,66.0 546.0,66.0 547.0,66.0 548.0,64.0 549.0,63.0 550.0,62.0 551.0,62.0 552.0,61.0 553.0,61.0 554.0,60.0 555.0,60.0 556.0,60.0 557.0,60.0 558.0,59.0 559.0,59.0 560.0,59.0 561.0,58.0 562.0,57.0 563.0,57.0 564.0,56.0 565.0,56.0 566.0,56.0 567.0,55.0 568.0,54.0 569.0,54.0 570.0,53.0 571.0,52.0 572.0,52.0 573.0,52.0 574.0,51.0 575.0,51.0 576.0,50.0 577.0,50.0 578.0,50.0 579.0,50.0 580.0,50.0 581.0,50.0 582.0,49.0 583.0,49.0 584.0,47.0 585.0,45.0 586.0,44.0 587.0,43.0 588.0,42.0 589.0,41.0 590.0,40.0 591.0,40.0 592.0,40.0 593.0,40.0 594.0,40.0 595.0,40.0 596.0,40.0 597.0,40.0 598.0,39.0 599.0,39.0 600.0,39.0 601.0,38.0 602.0,38.0 603.0,37.0 604.0,37.0 605.0,36.0 606.0,35.0 607.0,34.0 608.0,34.0 609.0,33.0 610.0,32.0 611.0,32.0 612.0,31.0 613.0,30.0 614.0,30.0 615.0,30.0 616.0,29.0 617.0,29.0 618.0,28.0 619.0,28.0 620.0,27.0 621.0,26.0 622.0,25.0 623.0,25.0 624.0,24.0 625.0,24.0 626.0,23.0 627.0,23.0 628.0,23.0 629.0,22.0 630.0,22.0 631.0,21.0 632.0,21.0 633.0,20.0 634.0,20.0 635.0,19.0 636.0,19.0 637.0,18.0 638.0,18.0 639.0,17.0 640.0,16.0 641.0,16.0 642.0,15.0 643.0,15.0 644.0,14.0 645.0,14.0 646.0,14.0 647.0,13.0 648.0,13.0 649.0,13.0 650.0,12.0 651.0,12.0 652.0,12.0 653.0,11.0 654.0,11.0" fill="none" stroke="#4876ff" />
	<polyline points="55.0,302.0 56.0,302.0 57.0,301.0 58.0,301.0 59.0,300.0 60.0,300.0 61.0,300.0 62.0,299.0 63.0,299.0 64.0,298.0 65.0,298.0 66.0,298.0 67.0,297.0 68.0,297.0 69.0,297.0 70.0,296.0 71.0,296.0 72.0,296.0 73.0,295.0 74.0,295.0 75.0,294.0 76.0,294.0 77.0,293.0 78.0,293.0 79.0,293.0 80.0,292.0 81.0,292.0 82.0,291.0 83.0,291.0 84.0,291.0 85.0,290.0 86.0,289.0 87.0,289.0 88.0,288.0 89.0,288.0 90.0,287.0 91.0,287.0 92.0,286.0 93.0,286.0 94.0,285.0 95.0,284.0 96.0,284.0 97.0,283.0 98.0,283.0 99.0,283.0 100.0,282.0 101.0,282.0 102.0,281.0 103.0,281.0 104.0,280.0 105.0,280.0 106.0,279.0 107.0,279.0 108.0,278.0 109.0,278.0 110.0,277.0 111.0,276.0 112.0,276.0 113.0,275.0 114.0,275.0 115.0,274.0 116.0,274.0 117.0,274.0 118.0,273.0 119.0,273.0 120.0,272.0 121.0,272.0 122.0,271.0 123.0,271.0 124.0,271.0 125.0,271.0 126.0,270.0 127.0,270.0 128.0,269.0 129.0,269.0 130.0,268.0 131.0,268.0 132.0,268.0 133.0,267.0 134.0,266.0 135.0,266.0 136.0,265.0 137.0,265.0 138.0,264.0 139.0,263.0 140.0,263.0 141.0,263.0 142.0,262.0 143.0,262.0 144.0,261.0 145.0,261.0 146.0,261.0 147.0,260.0 148.0,259.0 149.0,259.0 150.0,258.0 151.0,258.0 152.0,257.0 153.0,256.0 154.0,256.0 155.0,256.0 156.0,255.0 157.0,254.0 158.0,254.0 159.0,253.0 160.0,253.0 161.0,253.0 162.0,252.0 163.0,252.0 164.0,251.0 165.0,251.0 166.0,250.0 167.0,250.0 168.0,249.0 169.0,248.0 170.0,248.0 171.0,248.0 172.0,247.0 173.0,246.0 174.0,246.0 175.0,246.0 176.0,245.0 177.0,245.0 178.0,245.0 179.0,244.0 180.0,244.0 181.0,244.0 182.0,243.0 183.0,243.0 184.0,243.0 185.0,242.0 186.0,242.0 187.0,242.0 188.0,241.0 189.0,240.0 190.0,240.0 191.0,240.0 192.0,240.0 193.0,239.0 194.0,239.0 195.0,238.0 196.0,237.0 197.0,237.0 198.0,237.0 199.0,237.0 200.0,236.0 201.0,236.0 202.0,235.0 203.0,234.0 204.0,234.0 205.0,234.0 206.0,234.0 207.0,233.0 208.0,233.0 209.0,232.0 210.0,232.0 211.0,232.0 212.0,231.0 213.0,231.0 214.0,231.0 215.0,231.0 216.0,230.0 217.0,230.0 218.0,230.0 219.0,229.0 220.0,228.0 221.0,228.0 222.0,227.0 223.0,227.0 224.0,226.0 225.0,226.0 226.0,225.0 227.0,224.0 228.0,224.0 229.0,224.0 230.0,223.0 231.0,223.0 232.0,222.0 233.0,222.0 234.0,221.0 235.0,220.0 236.0,219.0 237.0,218.0 238.0,218.0 239.0,218.0 240.0,218.0 241.0,217.0 242.0,217.0 243.0,216.0 244.0,215.0 245.0,215.0 246.0,214.0 247.0,214.0 248.0,213.0 249.0,212.0 250.0,212.0 251.0,212.0 252.0,212.0 253.0,211.0 254.0,211.0 255.0,211.0 256.0,210.0 257.0,209.0 258.0,209.0 259.0,210.0 260.0,209.0 261.0,209.0 262.0,208.0 263.0,208.0 264.0,207.0 265.0,207.0 266.0,207.0 267.0,206.0 268.0,205.0 269.0,205.0 270.0,205.0 271.0,204.0 272.0,204.0 273.0,204.0 274.0,203.0 275.0,203.0 276.0,203.0 277.0,202.0 278.0,201.0 279.0,201.0 280.0,200.0 281.0,200.0 282.0,200.0 283.0,200.0 284.0,200.0 285.0,200.0 286.0,199.0 287.0,199.0 288.0,198.0 289.0,198.0 290.0,197.0 291.0,197.0 292.0,197.0 293.0,197.0 294.0,196.0 295.0,196.0 296.0,195.0 297.0,194.0 298.0,194.0 299.0,194.0 300.0,193.0 301.0,192.0 302.0,190.0 303.0,190.0 304.0,189.0 305.0,189.0 306.0,187.0 307.0,187.0 308.0,186.0 309.0,186.0 310.0,185.0 311.0,185.0 312.0,184.0 313.0,184.0 314.0,183.0 315.0,184.0 316.0,183.0 317.0,183.0 318.0,182.0 319.0,182.0 320.0,181.0 321.0,181.0 322.0,180.0 323.0,181.0 324.0,179.0 325.0,179.0 326.0,178.0 327.0,179.0 328.0,177.0 329.0,178.0 330.0,177.0 331.0,177.0 332.0,176.0 333.0,177.0 334.0,175.0 335.0,176.0 336.0,174.0 337.0,175.0 338.0,174.0 339.0,175.0 340.0,173.0 341.0,173.0 342.0,172.0 343.0,173.0 344.0,171.0 345.0,172.0 346.0,170.0 347.0,171.0 348.0,170.0 349.0,170.0 350.0,169.0 351.0,169.0 352.0,168.0 353.0,169.0 354.0,167.0 355.0,168.0 356.0,166.0 357.0,168.0 358.0,165.0 359.0,167.0 360.0,165.0 361.0,166.0 362.0,163.0 363.0,164.0 364.0,162.0 365.0,163.0 366.0,161.0 367.0,162.0 368.0,161.0 369.0,161.0 370.0,159.0 371.0,160.0 372.0,159.0 373.0,159.0 374.0,156.0 375.0,157.0 376.0,155.0 377.0,156.0 378.0,154.0 379.0,155.0 380.0,153.0 381.0,154.0 382.0,152.0 383.0,153.0 384.0,152.0 385.0,152.0 386.0,151.0 387.0,151.0 388.0,150.0 389.0,150.0 390.0,148.0 391.0,149.0 392.0,147.0 393.0,148.0 394.0,146.0 395.0,147.0 396.0,145.0 397.0,146.0 398.0,144.0 399.0,146.0 400.0,144.0 401.0,145.0 402.0,143.0 403.0,144.0 404.0,142.0 405.0,142.0 406.0,140.0 407.0,141.0 408.0,139.0 409.0,140.0 410.0,138.0 411.0,139.0 412.0,138.0 413.0,139.0 414.0,138.0 415.0,139.0 416.0,138.0 417.0,138.0 418.0,137.0 419.0,138.0 420.0,137.0 421.0,138.0 422.0,136.0 423.0,137.0 424.0,136.0 425.0,136.0 426.0,134.0 427.0,135.0 428.0,133.0 429.0,134.0 430.0,132.0 431.0,133.0 432.0,131.0 433.0,132.0 434.0,130.0 435.0,132.0 436.0,130.0 437.0,131.0 438.0,128.0 439.0,130.0 440.0,127.0 441.0,129.0 442.0,125.0 443.0,128.0 444.0,124.0 445.0,127.0 446.0,124.0 447.0,127.0 448.0,123.0 449.0,125.0 450.0,121.0 451.0,122.0 452.0,119.0 453.0,120.0 454.0,117.0 455.0,119.0 456.0,117.0 457.0,119.0 458.0,117.0 459.0,118.0 460.0,116.0 461.0,117.0 462.0,116.0 463.0,117.0 464.0,115.0 465.0,116.0 466.0,114.0 467.0,115.0 468.0,113.0 469.0,113.0 470.0,111.0 471.0,112.0 472.0,111.0 473.0,111.0 474.0,111.0 475.0,111.0 476.0,110.0 477.0,110.0 478.0,109.0 479.0,109.0 480.0,109.0 481.0,109.0 482.0,108.0 483.0,108.0 484.0,106.0 485.0,106.0 486.0,105.0 487.0,106.0 488.0,104.0 489.0,105.0 490.0,103.0 491.0,104.0 492.0,102.0 493.0,102.0 494.0,100.0 495.0,101.0 496.0,98.0 497.0,100.0 498.0,97.0 499.0,99.0 500.0,96.0 501.0,99.0 502.0,94.0 503.0,99.0 504.0,95.0 505.0,99.0 506.0,94.0 507.0,98.0 508.0,93.0 509.0,98.0 510.0,91.0 511.0,97.0 512.0,90.0 513.0,97.0 514.0,89.0 515.0,96.0 516.0,88.0 517.0,95.0 518.0,87.0 519.0,95.0 520.0,86.0 521.0,95.0 522.0,86.0 523.0,92.0 524.0,86.0 525.0,91.0 526.0,87.0 527.0,90.0 528.0,87.0 529.0,88.0 530.0,86.0 531.0,86.0 532.0,85.0 533.0,84.0 534.0,83.0 535.0,81.0 536.0,82.0 537.0,81.0 538.0,82.0 539.0,81.0 540.0,83.0 541.0,80.0 542.0,82.0 543.0,79.0 544.0,80.0 545.0,77.0 546.0,79.0 547.0,76.0 548.0,77.0 549.0,75.0 550.0,76.0 551.0,74.0 552.0,75.0 553.0,74.0 554.0,75.0 555.0,74.0 556.0,74.0 557.0,73.0 558.0,73.0 559.0,71.0 560.0,72.0 561.0,71.0 562.0,71.0 563.0,70.0 564.0,70.0 565.0,69.0 566.0,69.0 567.0,68.0 568.0,69.0 569.0,67.0 570.0,68.0 571.0,66.0 572.0,67.0 573.0,66.0 574.0,66.0 575.0,65.0 576.0,65.0 577.0,65.0 578.0,65.0 579.0,64.0 580.0,64.0 581.0,64.0 582.0,63.0 583.0,62.0 584.0,62.0 585.0,61.0 586.0,60.0 587.0,59.0 588.0,59.0 589.0,59.0 590.0,58.0 591.0,57.0 592.0,57.0 593.0,57.0 594.0,57.0 595.0,56.0 596.0,56.0 597.0,54.0 598.0,55.0 599.0,53.0 600.0,54.0 601.0,52.0 602.0,52.0 603.0,49.0 604.0,50.0 605.0,48.0 606.0,50.0 607.0,48.0 608.0,50.0 609.0,47.0 610.0,48.0 611.0,45.0 612.0,48.0 613.0,45.0 614.0,47.0 615.0,42.0 616.0,46.0 617.0,40.0 618.0,44.0 619.0,38.0 620.0,45.0 621.0,38.0 622.0,46.0 623.0,37.0 624.0,45.0 625.0,36.0 626.0,46.0 627.0,34.0 628.0,45.0 629.0,33.0 630.0,45.0 631.0,33.0 632.0,44.0 633.0,35.0 634.0,40.0 635.0,34.0 636.0,38.0 637.0,33.0 638.0,35.0 639.0,32.0 640.0,34.0 641.0,32.0 642.0,32.0 643.0,31.0 644.0,31.0 645.0,30.0 646.0,30.0 647.0,28.0 648.0,28.0 649.0,28.0 650.0,27.0 651.0,26.0 652.0,26.0 653.0,26.0 654.0,27.0" fill="none" stroke="#aeeeee" />
	<polyline points="55.0,292.0 56.0,291.0 57.0,291.0 58.0,291.0 59.0,290.0 60.0,289.0 61.0,289.0 62.0,289.0 63.0,288.0 64.0,288.0 65.0,287.0 66.0,287.0 67.0,287.0 68.0,286.0 69.0,286.0 70.0,285.0 71.0,284.0 72.0,283.0 73.0,283.0 74.0,283.0 75.0,283.0 76.0,282.0 77.0,282.0 78.0,281.0 79.0,281.0 80.0,281.0 81.0,281.0 82.0,280.0 83.0,280.0 84.0,279.0 85.0,279.0 86.0,278.0 87.0,277.0 88.0,277.0 89.0,277.0 90.0,276.0 91.0,276.0 92.0,275.0 93.0,275.0 94.0,275.0 95.0,274.0 96.0,274.0 97.0,273.0 98.0,273.0 99.0,273.0 100.0,272.0 101.0,272.0 102.0,271.0 103.0,271.0 104.0,270.0 105.0,270.0 106.0,269.0 107.0,269.0 108.0,268.0 109.0,268.0 110.0,267.0 111.0,267.0 112.0,266.0 113.0,265.0 114.0,265.0 115.0,265.0 116.0,264.0 117.0,264.0 118.0,263.0 119.0,263.0 120.0,263.0 121.0,263.0 122.0,263.0 123.0,263.0 124.0,263.0 125.0,263.0 126.0,263.0 127.0,263.0 128.0,262.0 129.0,262.0 130.0,262.0 131.0,262.0 132.0,261.0 133.0,260.0 134.0,260.0 135.0,259.0 136.0,259.0 137.0,259.0 138.0,259.0 139.0,259.0 140.0,258.0 141.0,258.0 142.0,258.0 143.0,258.0 144.0,257.0 145.0,257.0 146.0,256.0 147.0,256.0 148.0,256.0 149.0,256.0 150.0,255.0 151.0,254.0 152.0,254.0 153.0,254.0 154.0,253.0 155.0,252.0 156.0,252.0 157.0,251.0 158.0,250.0 159.0,249.0 160.0,249.0 161.0,248.0 162.0,247.0 163.0,247.0 164.0,247.0 165.0,246.0 166.0,246.0 167.0,245.0 168.0,244.0 169.0,242.0 170.0,242.0 171.0,241.0 172.0,241.0 173.0,240.0 174.0,240.0 175.0,239.0 176.0,239.0 177.0,238.0 178.0,237.0 179.0,236.0 180.0,236.0 181.0,236.0 182.0,235.0 183.0,235.0 184.0,235.0 185.0,235.0 186.0,234.0 187.0,234.0 188.0,234.0 189.0,233.0 190.0,233.0 191.0,232.0 192.0,232.0 193.0,232.0 194.0,231.0 195.0,231.0 196.0,231.0 197.0,230.0 198.0,230.0 199.0,229.0 200.0,228.0 201.0,228.0 202.0,227.0 203.0,227.0 204.0,226.0 205.0,225.0 206.0,225.0 207.0,224.0 208.0,223.0 209.0,223.0 210.0,222.0 211.0,221.0 212.0,221.0 213.0,220.0 214.0,220.0 215.0,219.0 216.0,218.0 217.0,218.0 218.0,217.0 219.0,216.0 220.0,216.0 221.0,216.0 222.0,215.0 223.0,215.0 224.0,214.0 225.0,214.0 226.0,214.0 227.0,213.0 228.0,213.0 229.0,213.0 230.0,212.0 231.0,212.0 232.0,212.0 233.0,211.0 234.0,211.0 235.0,211.0 236.0,210.0 237.0,210.0 238.0,209.0 239.0,209.0 240.0,208.0 241.0,208.0 242.0,207.0 243.0,207.0 244.0,206.0 245.0,206.0 246.0,205.0 247.0,204.0 248.0,204.0 249.0,203.0 250.0,203.0 251.0,202.0 252.0,202.0 253.0,201.0 254.0,200.0 255.0,200.0 256.0,200.0 257.0,200.0 258.0,199.0 259.0,199.0 260.0,198.0 261.0,198.0 262.0,197.0 263.0,197.0 264.0,197.0 265.0,196.0 266.0,195.0 267.0,195.0 268.0,194.0 269.0,193.0 270.0,193.0 271.0,192.0 272.0,192.0 273.0,191.0 274.0,191.0 275.0,190.0 276.0,189.0 277.0,189.0 278.0,188.0 279.0,188.0 280.0,187.0 281.0,187.0 282.0,186.0 283.0,186.0 284.0,186.0 285.0,186.0 286.0,186.0 287.0,185.0 288.0,185.0 289.0,185.0 290.0,185.0 291.0,184.0 292.0,184.0 293.0,184.0 294.0,184.0 295.0,184.0 296.0,183.0 297.0,183.0 298.0,183.0 299.0,182.0 300.0,182.0 301.0,181.0 302.0,181.0 303.0,181.0 304.0,181.0 305.0,180.0 306.0,180.0 307.0,179.0 308.0,178.0 309.0,177.0 310.0,177.0 311.0,177.0 312.0,176.0 313.0,175.0 314.0,175.0 315.0,175.0 316.0,175.0 317.0,175.0 318.0,174.0 319.0,174.0 320.0,173.0 321.0,173.0 322.0,172.0 323.0,172.0 324.0,171.0 325.0,170.0 326.0,169.0 327.0,169.0 328.0,168.0 329.0,168.0 330.0,168.0 331.0,168.0 332.0,167.0 333.0,166.0 334.0,165.0 335.0,165.0 336.0,164.0 337.0,163.0 338.0,162.0 339.0,162.0 340.0,161.0 341.0,160.0 342.0,159.0 343.0,159.0 344.0,158.0 345.0,158.0 346.0,158.0 347.0,158.0 348.0,157.0 349.0,157.0 350.0,157.0 351.0,157.0 352.0,157.0 353.0,156.0 354.0,156.0 355.0,156.0 356.0,156.0 357.0,156.0 358.0,156.0 359.0,155.0 360.0,154.0 361.0,154.0 362.0,153.0 363.0,152.0 364.0,152.0 365.0,151.0 366.0,151.0 367.0,150.0 368.0,150.0 369.0,149.0 370.0,148.0 371.0,148.0 372.0,147.0 373.0,147.0 374.0,146.0 375.0,145.0 376.0,145.0 377.0,144.0 378.0,144.0 379.0,143.0 380.0,142.0 381.0,142.0 382.0,141.0 383.0,140.0 384.0,139.0 385.0,139.0 386.0,139.0 387.0,138.0 388.0,138.0 389.0,138.0 390.0,137.0 391.0,137.0 392.0,136.0 393.0,136.0 394.0,135.0 395.0,135.0 396.0,134.0 397.0,132.0 398.0,132.0 399.0,131.0 400.0,131.0 401.0,131.0 402.0,131.0 403.0,131.0 404.0,130.0 405.0,130.0 406.0,129.0 407.0,128.0 408.0,127.0 409.0,127.0 410.0,127.0 411.0,127.0 412.0,127.0 413.0,127.0 414.0,127.0 415.0,126.0 416.0,125.0 417.0,125.0 418.0,125.0 419.0,125.0 420.0,124.0 421.0,124.0 422.0,124.0 423.0,123.0 424.0,123.0 425.0,122.0 426.0,121.0 427.0,121.0 428.0,121.0 429.0,121.0 430.0,120.0 431.0,120.0 432.0,119.0 433.0,119.0 434.0,119.0 435.0,119.0 436.0,118.0 437.0,118.0 438.0,118.0 439.0,118.0 440.0,117.0 441.0,117.0 442.0,116.0 443.0,116.0 444.0,115.0 445.0,115.0 446.0,114.0 447.0,114.0 448.0,113.0 449.0,113.0 450.0,112.0 451.0,112.0 452.0,111.0 453.0,110.0 454.0,110.0 455.0,109.0 456.0,109.0 457.0,108.0 458.0,108.0 459.0,107.0 460.0,107.0 461.0,107.0 462.0,106.0 463.0,106.0 464.0,106.0 465.0,105.0 466.0,104.0 467.0,103.0 468.0,102.0 469.0,100.0 470.0,100.0 471.0,99.0 472.0,99.0 473.0,99.0 474.0,99.0 475.0,99.0 476.0,99.0 477.0,99.0 478.0,99.0 479.0,99.0 480.0,98.0 481.0,98.0 482.0,97.0 483.0,97.0 484.0,96.0 485.0,95.0 486.0,94.0 487.0,93.0 488.0,92.0 489.0,92.0 490.0,91.0 491.0,90.0 492.0,90.0 493.0,89.0 494.0,88.0 495.0,87.0 496.0,87.0 497.0,87.0 498.0,86.0 499.0,86.0 500.0,85.0 501.0,84.0 502.0,83.0 503.0,82.0 504.0,82.0 505.0,82.0 506.0,81.0 507.0,82.0 508.0,81.0 509.0,81.0 510.0,80.0 511.0,81.0 512.0,80.0 513.0,80.0 514.0,80.0 515.0,80.0 516.0,80.0 517.0,81.0 518.0,79.0 519.0,80.0 520.0,78.0 521.0,78.0 522.0,77.0 523.0,77.0 524.0,76.0 525.0,75.0 526.0,75.0 527.0,73.0 528.0,73.0 529.0,72.0 530.0,72.0 531.0,71.0 532.0,71.0 533.0,70.0 534.0,69.0 535.0,68.0 536.0,68.0 537.0,67.0 538.0,66.0 539.0,66.0 540.0,66.0 541.0,65.0 542.0,65.0 543.0,65.0 544.0,65.0 545.0,64.0 546.0,64.0 547.0,63.0 548.0,63.0 549.0,63.0 550.0,62.0 551.0,62.0 552.0,61.0 553.0,61.0 554.0,60.0 555.0,60.0 556.0,59.0 557.0,59.0 558.0,58.0 559.0,57.0 560.0,57.0 561.0,57.0 562.0,56.0 563.0,56.0 564.0,56.0 565.0,55.0 566.0,55.0 567.0,54.0 568.0,54.0 569.0,53.0 570.0,53.0 571.0,52.0 572.0,51.0 573.0,51.0 574.0,51.0 575.0,51.0 576.0,50.0 577.0,50.0 578.0,50.0 579.0,50.0 580.0,49.0 581.0,49.0 582.0,49.0 583.0,47.0 584.0,46.0 585.0,45.0 586.0,45.0 587.0,45.0 588.0,44.0 589.0,44.0 590.0,43.0 591.0,43.0 592.0,41.0 593.0,39.0 594.0,38.0 595.0,37.0 596.0,37.0 597.0,36.0 598.0,36.0 599.0,35.0 600.0,35.0 601.0,34.0 602.0,33.0 603.0,33.0 604.0,33.0 605.0,32.0 606.0,32.0 607.0,32.0 608.0,32.0 609.0,31.0 610.0,31.0 611.0,30.0 612.0,29.0 613.0,29.0 614.0,28.0 615.0,28.0 616.0,28.0 617.0,28.0 618.0,28.0 619.0,27.0 620.0,26.0 621.0,26.0 622.0,26.0 623.0,25.0 624.0,25.0 625.0,24.0 626.0,25.0 627.0,24.0 628.0,24.0 629.0,23.0 630.0,23.0 631.0,22.0 632.0,22.0 633.0,22.0 634.0,22.0 635.0,21.0 636.0,20.0 637.0,20.0 638.0,19.0 639.0,19.0 640.0,19.0 641.0,19.0 642.0,19.0 643.0,18.0 644.0,17.0 645.0,17.0 646.0,16.0 647.0,15.0 648.0,14.0 649.0,14.0 650.0,13.0 651.0,13.0 652.0,13.0 653.0,13.0 654.0,13.0" fill="none" stroke="#00ffff" />
	<polyline points="55.0,5.0 655.0,5.0" fill="none" stroke="#6d6d6d" />
	<polyline points="55.0,305.0 655.0,305.0" fill="none" stroke="#6d6d6d" />
	<polyline points="55.0,305.0 55.0,310.0" fill="none" stroke="#6d6d6d" />
	<polyline points="205.0,305.0 205.0,310.0" fill="none" stroke="#6d6d6d" />
	<polyline points="355.0,305.0 355.0,310.0" fill="none" stroke="#6d6d6d" />
	<polyline points="505.0,305.0 505.0,310.0" fill="none" stroke="#6d6d6d" />
	<polyline points="655.0,305.0 655.0,310.0" fill="none" stroke="#6d6d6d" />
	<polyline points="55.0,5.0 55.0,305.0" fill="none" stroke="#6d6d6d" />
	<polyline points="655.0,5.0 655.0,305.0" fill="none" stroke="#6d6d6d" />
	<polyline points="50.0,5.0 55.0,5.0" fill="none" stroke="#6d6d6d" />
	<polyline points="50.0,80.0 55.0,80.0" fill="none" stroke="#6d6d6d" />
	<polyline points="50.0,155.0 55.0,155.0" fill="none" stroke="#6d6d6d" />
	<polyline points="50.0,230.0 55.0,230.0" fill="none" stroke="#6d6d6d" />
	<polyline points="50.0,305.0 55.0,305.0" fill="none" stroke="#6d6d6d" />
	<text x="55.0" y="323.0" fill="#6d6d6d" font-family="Arial" font-size="9pt" text-anchor="middle">1</text>
	<text x="205.0" y="323.0" fill="#6d6d6d" font-family="Arial" font-size="9pt" text-anchor="middle">150</text>
	<text x="355.0" y="323.0" fill="#6d6d6d" font-family="Arial" font-size="9pt" text-anchor="middle">300</text>
	<text x="505.0" y="323.0" fill="#6d6d6d" font-family="Arial" font-size="9pt" text-anchor="middle">450</text>
	<text x="655.0" y="323.0" fill="#6d6d6d" font-family="Arial" font-size="9pt" text-anchor="middle">600</text>
	<text x="45.0" y="9.0" fill="#6d6d6d" font-family="Arial" font-size="9pt" text-anchor="end">69.4</text>
	<text x="45.0" y="84.0" fill="#6d6d6d" font-family="Arial" font-size="9pt" text-anchor="end">60.2</text>
	<text x="45.0" y="159.0" fill="#6d6d6d" font-family="Arial" font-size="9pt" text-anchor="end">51</text>
	<text x="45.0" y="234.0" fill="#6d6d6d" font-family="Arial" font-size="9pt" text-anchor="end">41.7</text>
	<text x="45.0" y="309.0" fill="#6d6d6d" font-family="Arial" font-size="9pt" text-anchor="end">32.5</text>
</svg>
