<?xml version="1.0" encoding="UTF-8" standalone="no"?>
<!DOCTYPE svg PUBLIC "-//W3C//DTD SVG 1.1//EN" "http://www.w3.org/Graphics/SVG/1.1/DTD/svg11.dtd">
<svg xmlns="http://www.w3.org/2000/svg"  version="1.1" width="693.0" height="380.0" viewBox="-6.0 -12.0 687.0 368.0">
	<desc>LSD Plot - Sim_10c_teste1</desc>
	<polyline points="205.0,6.0 205.0,304.0" fill="none" stroke="#f0f0f0" />
	<polyline points="355.0,6.0 355.0,304.0" fill="none" stroke="#f0f0f0" />
	<polyline points="505.0,6.0 505.0,304.0" fill="none" stroke="#f0f0f0" />
	<polyline points="56.0,80.0 654.0,80.0" fill="none" stroke="#f0f0f0" />
	<polyline points="56.0,155.0 654.0,155.0" fill="none" stroke="#f0f0f0" />
	<polyline points="56.0,230.0 654.0,230.0" fill="none" stroke="#f0f0f0" />
	<text x="5.0" y="345.0" font-family="Arial" font-size="9pt">IMP_1</text>
	<text x="44.0" y="345.0" fill="#ff0000" font-family="Arial" font-size="9pt">IMP_2</text>
	<text x="83.0" y="345.0" fill="#008000" font-family="Arial" font-size="9pt">IMP_3</text>
	<text x="122.0" y="345.0" fill="#d0d000" font-family="Arial" font-size="9pt">IMP_4</text>
	<text x="161.0" y="345.0" fill="#fb46bc" font-family="Arial" font-size="9pt">IMP_5</text>
	<text x="200.0" y="345.0" fill="#0000ff" font-family="Arial" font-size="9pt">IMP_6</text>
	<text x="239.0" y="345.0" fill="#00bfff" font-family="Arial" font-size="9pt">IMP_7</text>
	<text x="278.0" y="345.0" fill="#4876ff" font-family="Arial" font-size="9pt">IMP_8</text>
	<text x="317.0" y="345.0" fill="#aeeeee" font-family="Arial" font-size="9pt">IMP_9</text>
	<text x="356.0" y="345.0" fill="#00ffff" font-family="Arial" font-size="9pt">IMP_10</text>
	<polyline points="55.0,298.0 56.0,297.0 57.0,296.0 58.0,295.0 59.0,295.0 60.0,294.0 61.0,293.0 62.0,292.0 63.0,292.0 64.0,290.0 65.0,289.0 66.0,289.0 67.0,288.0 68.0,286.0 69.0,287.0 70.0,285.0 71.0,286.0 72.0,284.0 73.0,284.0 74.0,283.0 75.0,283.0 76.0,281.0 77.0,282.0 78.0,280.0 79.0,282.0 80.0,279.0 81.0,279.0 82.0,279.0 83.0,278.0 84.0,278.0 85.0,277.0 86.0,277.0 87.0,276.0 88.0,277.0 89.0,276.0 90.0,275.0 91.0,274.0 92.0,274.0 93.0,274.0 94.0,273.0 95.0,273.0 96.0,272.0 97.0,272.0 98.0,271.0 99.0,271.0 100.0,270.0 101.0,271.0 102.0,269.0 103.0,269.0 104.0,268.0 105.0,269.0 106.0,267.0 107.0,268.0 108.0,267.0 109.0,266.0 110.0,266.0 111.0,267.0 112.0,265.0 113.0,266.0 114.0,265.0 115.0,265.0 116.0,265.0 117.0,264.0 118.0,265.0 119.0,264.0 120.0,264.0 121.0,264.0 122.0,264.0 123.0,264.0 124.0,264.0 125.0,264.0 126.0,264.0 127.0,265.0 128.0,265.0 129.0,265.0 130.0,266.0 131.0,266.0 132.0,266.0 133.0,266.0 134.0,266.0 135.0,266.0 136.0,266.0 137.0,265.0 138.0,265.0 139.0,265.0 140.0,265.0 141.0,264.0 142.0,264.0 143.0,264.0 144.0,264.0 145.0,263.0 146.0,263.0 147.0,262.0 148.0,262.0 149.0,262.0 150.0,261.0 151.0,261.0 152.0,260.0 153.0,260.0 154.0,260.0 155.0,259.0 156.0,259.0 157.0,258.0 158.0,258.0 159.0,257.0 160.0,257.0 161.0,256.0 162.0,256.0 163.0,255.0 164.0,255.0 165.0,254.0 166.0,254.0 167.0,253.0 168.0,253.0 169.0,252.0 170.0,252.0 171.0,251.0 172.0,250.0 173.0,250.0 174.0,249.0 175.0,249.0 176.0,248.0 177.0,247.0 178.0,247.0 179.0,246.0 180.0,245.0 181.0,244.0 182.0,243.0 183.0,243.0 184.0,241.0 185.0,242.0 186.0,241.0 187.0,241.0 188.0,240.0 189.0,240.0 190.0,239.0 191.0,238.0 192.0,237.0 193.0,238.0 194.0,236.0 195.0,235.0 196.0,235.0 197.0,235.0 198.0,234.0 199.0,234.0 200.0,234.0 201.0,232.0 202.0,233.0 203.0,231.0 204.0,231.0 205.0,230.0 206.0,230.0 207.0,229.0 208.0,229.0 209.0,228.0 210.0,229.0 211.0,226.0 212.0,227.0 213.0,226.0 214.0,227.0 215.0,226.0 216.0,225.0 217.0,224.0 218.0,225.0 219.0,224.0 220.0,224.0 221.0,222.0 222.0,223.0 223.0,222.0 224.0,222.0 225.0,221.0 226.0,220.0 227.0,220.0 228.0,219.0 229.0,219.0 230.0,218.0 231.0,218.0 232.0,217.0 233.0,216.0 234.0,216.0 235.0,216.0 236.0,216.0 237.0,215.0 238.0,215.0 239.0,213.0 240.0,214.0 241.0,213.0 242.0,213.0 243.0,212.0 244.0,212.0 245.0,212.0 246.0,211.0 247.0,211.0 248.0,210.0 249.0,210.0 250.0,210.0 251.0,209.0 252.0,210.0 253.0,208.0 254.0,209.0 255.0,209.0 256.0,208.0 257.0,208.0 258.0,207.0 259.0,206.0 260.0,206.0 261.0,206.0 262.0,205.0 263.0,205.0 264.0,204.0 265.0,204.0 266.0,204.0 267.0,204.0 268.0,203.0 269.0,203.0 270.0,203.0 271.0,202.0 272.0,202.0 273.0,201.0 274.0,202.0 275.0,202.0 276.0,200.0 277.0,201.0 278.0,200.0 279.0,201.0 280.0,199.0 281.0,200.0 282.0,199.0 283.0,199.0 284.0,200.0 285.0,199.0 286.0,200.0 287.0,200.0 288.0,200.0 289.0,200.0 290.0,199.0 291.0,200.0 292.0,199.0 293.0,199.0 294.0,198.0 295.0,199.0 296.0,197.0 297.0,198.0 298.0,197.0 299.0,198.0 300.0,196.0 301.0,197.0 302.0,195.0 303.0,196.0 304.0,195.0 305.0,195.0 306.0,193.0 307.0,195.0 308.0,192.0 309.0,194.0 310.0,192.0 311.0,193.0 312.0,191.0 313.0,192.0 314.0,190.0 315.0,191.0 316.0,189.0 317.0,190.0 318.0,188.0 319.0,190.0 320.0,187.0 321.0,189.0 322.0,186.0 323.0,188.0 324.0,185.0 325.0,187.0 326.0,183.0 327.0,186.0 328.0,183.0 329.0,185.0 330.0,181.0 331.0,184.0 332.0,180.0 333.0,183.0 334.0,179.0 335.0,183.0 336.0,177.0 337.0,182.0 338.0,176.0 339.0,181.0 340.0,174.0 341.0,180.0 342.0,173.0 343.0,179.0 344.0,172.0 345.0,179.0 346.0,169.0 347.0,178.0 348.0,168.0 349.0,177.0 350.0,168.0 351.0,175.0 352.0,166.0 353.0,175.0 354.0,164.0 355.0,177.0 356.0,161.0 357.0,175.0 358.0,160.0 359.0,174.0 360.0,159.0 361.0,172.0 362.0,159.0 363.0,170.0 364.0,159.0 365.0,168.0 366.0,158.0 367.0,166.0 368.0,158.0 369.0,164.0 370.0,157.0 371.0,163.0 372.0,157.0 373.0,162.0 374.0,156.0 375.0,161.0 376.0,156.0 377.0,160.0 378.0,155.0 379.0,158.0 380.0,155.0 381.0,157.0 382.0,155.0 383.0,155.0 384.0,154.0 385.0,155.0 386.0,152.0 387.0,154.0 388.0,152.0 389.0,152.0 390.0,151.0 391.0,150.0 392.0,150.0 393.0,150.0 394.0,149.0 395.0,149.0 396.0,149.0 397.0,148.0 398.0,148.0 399.0,148.0 400.0,147.0 401.0,148.0 402.0,146.0 403.0,147.0 404.0,146.0 405.0,146.0 406.0,145.0 407.0,145.0 408.0,144.0 409.0,144.0 410.0,144.0 411.0,143.0 412.0,144.0 413.0,143.0 414.0,143.0 415.0,143.0 416.0,143.0 417.0,143.0 418.0,143.0 419.0,142.0 420.0,142.0 421.0,143.0 422.0,142.0 423.0,141.0 424.0,141.0 425.0,141.0 426.0,141.0 427.0,141.0 428.0,140.0 429.0,140.0 430.0,139.0 431.0,139.0 432.0,139.0 433.0,139.0 434.0,138.0 435.0,138.0 436.0,137.0 437.0,137.0 438.0,137.0 439.0,137.0 440.0,136.0 441.0,136.0 442.0,135.0 443.0,135.0 444.0,134.0 445.0,135.0 446.0,133.0 447.0,134.0 448.0,132.0 449.0,133.0 450.0,132.0 451.0,132.0 452.0,131.0 453.0,131.0 454.0,130.0 455.0,130.0 456.0,129.0 457.0,129.0 458.0,129.0 459.0,129.0 460.0,128.0 461.0,127.0 462.0,128.0 463.0,126.0 464.0,127.0 465.0,126.0 466.0,126.0 467.0,125.0 468.0,125.0 469.0,124.0 470.0,125.0 471.0,123.0 472.0,123.0 473.0,123.0 474.0,122.0 475.0,122.0 476.0,121.0 477.0,121.0 478.0,121.0 479.0,120.0 480.0,119.0 481.0,120.0 482.0,118.0 483.0,119.0 484.0,118.0 485.0,117.0 486.0,117.0 487.0,116.0 488.0,116.0 489.0,115.0 490.0,115.0 491.0,115.0 492.0,114.0 493.0,114.0 494.0,113.0 495.0,113.0 496.0,112.0 497.0,112.0 498.0,110.0 499.0,111.0 500.0,109.0 501.0,110.0 502.0,109.0 503.0,108.0 504.0,108.0 505.0,108.0 506.0,107.0 507.0,106.0 508.0,106.0 509.0,105.0 510.0,105.0 511.0,104.0 512.0,104.0 513.0,103.0 514.0,102.0 515.0,102.0 516.0,101.0 517.0,100.0 518.0,98.0 519.0,99.0 520.0,94.0 521.0,97.0 522.0,90.0 523.0,97.0 524.0,84.0 525.0,96.0 526.0,80.0 527.0,95.0 528.0,77.0 529.0,91.0 530.0,79.0 531.0,88.0 532.0,80.0 533.0,87.0 534.0,82.0 535.0,86.0 536.0,84.0 537.0,83.0 538.0,87.0 539.0,83.0 540.0,89.0 541.0,83.0 542.0,91.0 543.0,82.0 544.0,90.0 545.0,83.0 546.0,90.0 547.0,83.0 548.0,89.0 549.0,84.0 550.0,89.0 551.0,83.0 552.0,87.0 553.0,84.0 554.0,86.0 555.0,83.0 556.0,86.0 557.0,82.0 558.0,85.0 559.0,82.0 560.0,84.0 561.0,82.0 562.0,83.0 563.0,82.0 564.0,82.0 565.0,80.0 566.0,81.0 567.0,80.0 568.0,80.0 569.0,79.0 570.0,79.0 571.0,78.0 572.0,78.0 573.0,78.0 574.0,78.0 575.0,77.0 576.0,77.0 577.0,76.0 578.0,77.0 579.0,75.0 580.0,75.0 581.0,74.0 582.0,74.0 583.0,74.0 584.0,73.0 585.0,73.0 586.0,73.0 587.0,72.0 588.0,71.0 589.0,72.0 590.0,70.0 591.0,70.0 592.0,70.0 593.0,71.0 594.0,67.0 595.0,68.0 596.0,67.0 597.0,66.0 598.0,67.0 599.0,65.0 600.0,65.0 601.0,64.0 602.0,65.0 603.0,63.0 604.0,64.0 605.0,61.0 606.0,63.0 607.0,60.0 608.0,61.0 609.0,60.0 610.0,61.0 611.0,60.0 612.0,60.0 613.0,59.0 614.0,60.0 615.0,59.0 616.0,59.0 617.0,58.0 618.0,57.0 619.0,58.0 620.0,56.0 621.0,55.0 622.0,55.0 623.0,54.0 624.0,54.0 625.0,53.0 626.0,53.0 627.0,51.0 628.0,50.0 629.0,50.0 630.0,48.0 631.0,48.0 632.0,45.0 633.0,44.0 634.0,43.0 635.0,42.0 636.0,41.0 637.0,41.0 638.0,42.0 639.0,41.0 640.0,41.0 641.0,41.0 642.0,42.0 643.0,42.0 644.0,41.0 645.0,42.0 646.0,41.0 647.0,42.0 648.0,42.0 649.0,42.0 650.0,41.0 651.0,42.0 652.0,41.0 653.0,41.0 654.0,41.0" fill="none" stroke="#000000" />
	<polyline points="55.0,300.0 56.0,300.0 57.0,299.0 58.0,300.0 59.0,299.0 60.0,299.0 61.0,299.0 62.0,297.0 63.0,298.0 64.0,297.0 65.0,297.0 66.0,296.0 67.0,296.0 68.0,296.0 69.0,295.0 70.0,295.0 71.0,294.0 72.0,294.0 73.0,294.0 74.0,293.0 75.0,293.0 76.0,292.0 77.0,293.0 78.0,291.0 79.0,292.0 80.0,290.0 81.0,291.0 82.0,290.0 83.0,289.0 84.0,289.0 85.0,289.0 86.0,288.0 87.0,288.0 88.0,287.0 89.0,287.0 90.0,287.0 91.0,286.0 92.0,286.0 93.0,285.0 94.0,286.0 95.0,284.0 96.0,284.0 97.0,284.0 98.0,283.0 99.0,282.0 100.0,282.0 101.0,281.0 102.0,281.0 103.0,280.0 104.0,280.0 105.0,279.0 106.0,278.0 107.0,278.0 108.0,278.0 109.0,277.0 110.0,276.0 111.0,276.0 112.0,275.0 113.0,275.0 114.0,275.0 115.0,274.0 116.0,274.0 117.0,273.0 118.0,272.0 119.0,273.0 120.0,272.0 121.0,272.0 122.0,272.0 123.0,272.0 124.0,272.0 125.0,271.0 126.0,271.0 127.0,270.0 128.0,270.0 129.0,270.0 130.0,270.0 131.0,269.0 132.0,269.0 133.0,269.0 134.0,268.0 135.0,267.0 136.0,268.0 137.0,267.0 138.0,267.0 139.0,266.0 140.0,266.0 141.0,265.0 142.0,265.0 143.0,264.0 144.0,264.0 145.0,263.0 146.0,263.0 147.0,262.0 148.0,262.0 149.0,261.0 150.0,260.0 151.0,260.0 152.0,259.0 153.0,259.0 154.0,258.0 155.0,258.0 156.0,257.0 157.0,256.0 158.0,256.0 159.0,255.0 160.0,255.0 161.0,254.0 162.0,254.0 163.0,253.0 164.0,253.0 165.0,251.0 166.0,252.0 167.0,250.0 168.0,251.0 169.0,250.0 170.0,250.0 171.0,248.0 172.0,248.0 173.0,248.0 174.0,248.0 175.0,247.0 176.0,247.0 177.0,247.0 178.0,246.0 179.0,246.0 180.0,246.0 181.0,245.0 182.0,245.0 183.0,245.0 184.0,243.0 185.0,245.0 186.0,243.0 187.0,243.0 188.0,243.0 189.0,242.0 190.0,242.0 191.0,242.0 192.0,241.0 193.0,241.0 194.0,241.0 195.0,240.0 196.0,240.0 197.0,241.0 198.0,238.0 199.0,239.0 200.0,238.0 201.0,238.0 202.0,237.0 203.0,236.0 204.0,236.0 205.0,235.0 206.0,236.0 207.0,234.0 208.0,235.0 209.0,233.0 210.0,234.0 211.0,232.0 212.0,232.0 213.0,231.0 214.0,231.0 215.0,230.0 216.0,231.0 217.0,229.0 218.0,229.0 219.0,228.0 220.0,228.0 221.0,228.0 222.0,226.0 223.0,227.0 224.0,225.0 225.0,225.0 226.0,224.0 227.0,224.0 228.0,223.0 229.0,221.0 230.0,221.0 231.0,221.0 232.0,221.0 233.0,221.0 234.0,220.0 235.0,219.0 236.0,220.0 237.0,219.0 238.0,219.0 239.0,218.0 240.0,218.0 241.0,216.0 242.0,217.0 243.0,217.0 244.0,216.0 245.0,216.0 246.0,215.0 247.0,215.0 248.0,215.0 249.0,214.0 250.0,214.0 251.0,214.0 252.0,214.0 253.0,212.0 254.0,213.0 255.0,212.0 256.0,213.0 257.0,211.0 258.0,213.0 259.0,212.0 260.0,211.0 261.0,211.0 262.0,210.0 263.0,211.0 264.0,209.0 265.0,210.0 266.0,209.0 267.0,210.0 268.0,209.0 269.0,208.0 270.0,208.0 271.0,208.0 272.0,205.0 273.0,206.0 274.0,205.0 275.0,206.0 276.0,204.0 277.0,205.0 278.0,203.0 279.0,204.0 280.0,202.0 281.0,203.0 282.0,201.0 283.0,202.0 284.0,201.0 285.0,200.0 286.0,199.0 287.0,200.0 288.0,198.0 289.0,199.0 290.0,197.0 291.0,198.0 292.0,195.0 293.0,197.0 294.0,195.0 295.0,195.0 296.0,194.0 297.0,195.0 298.0,193.0 299.0,194.0 300.0,192.0 301.0,193.0 302.0,190.0 303.0,193.0 304.0,190.0 305.0,191.0 306.0,189.0 307.0,190.0 308.0,188.0 309.0,188.0 310.0,188.0 311.0,188.0 312.0,186.0 313.0,189.0 314.0,185.0 315.0,187.0 316.0,185.0 317.0,186.0 318.0,184.0 319.0,187.0 320.0,183.0 321.0,185.0 322.0,181.0 323.0,184.0 324.0,181.0 325.0,184.0 326.0,180.0 327.0,182.0 328.0,180.0 329.0,182.0 330.0,179.0 331.0,180.0 332.0,177.0 333.0,181.0 334.0,175.0 335.0,179.0 336.0,175.0 337.0,178.0 338.0,174.0 339.0,178.0 340.0,171.0 341.0,176.0 342.0,170.0 343.0,176.0 344.0,168.0 345.0,174.0 346.0,167.0 347.0,173.0 348.0,165.0 349.0,173.0 350.0,163.0 351.0,174.0 352.0,161.0 353.0,171.0 354.0,161.0 355.0,170.0 356.0,159.0 357.0,170.0 358.0,157.0 359.0,170.0 360.0,154.0 361.0,168.0 362.0,154.0 363.0,167.0 364.0,154.0 365.0,164.0 366.0,154.0 367.0,164.0 368.0,154.0 369.0,163.0 370.0,153.0 371.0,160.0 372.0,153.0 373.0,160.0 374.0,153.0 375.0,159.0 376.0,153.0 377.0,157.0 378.0,154.0 379.0,155.0 380.0,154.0 381.0,155.0 382.0,152.0 383.0,155.0 384.0,151.0 385.0,154.0 386.0,151.0 387.0,153.0 388.0,151.0 389.0,151.0 390.0,151.0 391.0,150.0 392.0,149.0 393.0,149.0 394.0,148.0 395.0,148.0 396.0,148.0 397.0,147.0 398.0,147.0 399.0,146.0 400.0,145.0 401.0,145.0 402.0,144.0 403.0,144.0 404.0,144.0 405.0,143.0 406.0,143.0 407.0,142.0 408.0,143.0 409.0,143.0 410.0,140.0 411.0,141.0 412.0,141.0 413.0,140.0 414.0,141.0 415.0,139.0 416.0,140.0 417.0,138.0 418.0,140.0 419.0,137.0 420.0,138.0 421.0,137.0 422.0,137.0 423.0,137.0 424.0,136.0 425.0,136.0 426.0,135.0 427.0,134.0 428.0,134.0 429.0,133.0 430.0,132.0 431.0,134.0 432.0,131.0 433.0,133.0 434.0,130.0 435.0,131.0 436.0,130.0 437.0,131.0 438.0,130.0 439.0,129.0 440.0,128.0 441.0,130.0 442.0,128.0 443.0,128.0 444.0,125.0 445.0,127.0 446.0,125.0 447.0,125.0 448.0,121.0 449.0,125.0 450.0,120.0 451.0,123.0 452.0,120.0 453.0,122.0 454.0,119.0 455.0,121.0 456.0,118.0 457.0,119.0 458.0,118.0 459.0,117.0 460.0,118.0 461.0,116.0 462.0,117.0 463.0,116.0 464.0,116.0 465.0,115.0 466.0,114.0 467.0,114.0 468.0,115.0 469.0,113.0 470.0,113.0 471.0,113.0 472.0,113.0 473.0,113.0 474.0,111.0 475.0,112.0 476.0,111.0 477.0,111.0 478.0,110.0 479.0,110.0 480.0,110.0 481.0,109.0 482.0,108.0 483.0,109.0 484.0,107.0 485.0,108.0 486.0,106.0 487.0,106.0 488.0,105.0 489.0,106.0 490.0,105.0 491.0,105.0 492.0,104.0 493.0,103.0 494.0,103.0 495.0,103.0 496.0,101.0 497.0,103.0 498.0,101.0 499.0,101.0 500.0,100.0 501.0,101.0 502.0,99.0 503.0,100.0 504.0,98.0 505.0,99.0 506.0,98.0 507.0,97.0 508.0,97.0 509.0,96.0 510.0,95.0 511.0,96.0 512.0,94.0 513.0,95.0 514.0,91.0 515.0,94.0 516.0,89.0 517.0,93.0 518.0,86.0 519.0,95.0 520.0,81.0 521.0,94.0 522.0,77.0 523.0,97.0 524.0,72.0" fill="none" stroke="#ff0000" />
	<polyline points="528.0,68.0 523.0,63.0" fill="none" stroke="#ff0000" />
	<polyline points="528.0,64.0 523.0,69.0" fill="none" stroke="#ff0000" />
	<polyline points="530.0,67.0 525.0,62.0" fill="none" stroke="#ff0000" />
	<polyline points="530.0,63.0 525.0,68.0" fill="none" stroke="#ff0000" />
	<polyline points="530.0,65.0 531.0,91.0 532.0,66.0 533.0,83.0 534.0,67.0 535.0,79.0 536.0,70.0 537.0,76.0 538.0,72.0 539.0,74.0 540.0,73.0 541.0,73.0 542.0,75.0 543.0,73.0 544.0,77.0 545.0,74.0 546.0,78.0 547.0,75.0 548.0,77.0 549.0,76.0 550.0,77.0 551.0,76.0 552.0,77.0 553.0,76.0 554.0,77.0 555.0,76.0 556.0,76.0 557.0,76.0 558.0,77.0 559.0,75.0 560.0,76.0 561.0,75.0 562.0,74.0 563.0,74.0 564.0,74.0 565.0,71.0 566.0,73.0 567.0,72.0 568.0,71.0 569.0,70.0 570.0,70.0 571.0,70.0 572.0,69.0 573.0,69.0 574.0,69.0 575.0,69.0 576.0,67.0 577.0,69.0 578.0,66.0 579.0,68.0 580.0,66.0 581.0,68.0 582.0,65.0 583.0,66.0 584.0,65.0 585.0,64.0 586.0,64.0 587.0,65.0 588.0,63.0 589.0,63.0 590.0,62.0 591.0,63.0 592.0,62.0 593.0,60.0 594.0,62.0 595.0,60.0 596.0,60.0 597.0,59.0 598.0,59.0 599.0,59.0 600.0,58.0 601.0,58.0 602.0,57.0 603.0,58.0 604.0,58.0 605.0,55.0 606.0,57.0 607.0,56.0 608.0,56.0 609.0,55.0 610.0,56.0 611.0,55.0 612.0,55.0 613.0,53.0 614.0,55.0 615.0,52.0 616.0,54.0 617.0,51.0 618.0,53.0 619.0,51.0 620.0,52.0 621.0,51.0 622.0,52.0 623.0,49.0 624.0,52.0 625.0,49.0 626.0,50.0 627.0,49.0 628.0,49.0 629.0,47.0 630.0,48.0 631.0,46.0 632.0,46.0 633.0,45.0 634.0,44.0 635.0,43.0 636.0,44.0 637.0,43.0 638.0,45.0 639.0,43.0 640.0,45.0 641.0,43.0 642.0,45.0 643.0,44.0 644.0,45.0 645.0,44.0 646.0,44.0 647.0,44.0 648.0,44.0 649.0,44.0 650.0,44.0 651.0,43.0 652.0,43.0 653.0,43.0 654.0,42.0" fill="none" stroke="#ff0000" />
	<polyline points="55.0,302.0 56.0,301.0 57.0,301.0 58.0,300.0 59.0,300.0 60.0,299.0 61.0,299.0 62.0,298.0 63.0,299.0 64.0,298.0 65.0,298.0 66.0,297.0 67.0,297.0 68.0,296.0 69.0,296.0 70.0,296.0 71.0,296.0 72.0,294.0 73.0,294.0 74.0,294.0 75.0,294.0 76.0,293.0 77.0,292.0 78.0,292.0 79.0,291.0 80.0,291.0 81.0,290.0 82.0,290.0 83.0,289.0 84.0,289.0 85.0,288.0 86.0,288.0 87.0,287.0 88.0,286.0 89.0,286.0 90.0,286.0 91.0,285.0 92.0,285.0 93.0,284.0 94.0,283.0 95.0,284.0 96.0,283.0 97.0,282.0 98.0,282.0 99.0,280.0 100.0,281.0 101.0,279.0 102.0,279.0 103.0,280.0 104.0,278.0 105.0,278.0 106.0,278.0 107.0,277.0 108.0,277.0 109.0,277.0 110.0,276.0 111.0,275.0 112.0,276.0 113.0,275.0 114.0,275.0 115.0,274.0 116.0,273.0 117.0,273.0 118.0,274.0 119.0,272.0 120.0,273.0 121.0,272.0 122.0,272.0 123.0,271.0 124.0,271.0 125.0,270.0 126.0,270.0 127.0,269.0 128.0,269.0 129.0,268.0 130.0,268.0 131.0,267.0 132.0,267.0 133.0,267.0 134.0,267.0 135.0,266.0 136.0,266.0 137.0,265.0 138.0,266.0 139.0,264.0 140.0,264.0 141.0,263.0 142.0,263.0 143.0,262.0 144.0,262.0 145.0,262.0 146.0,261.0 147.0,261.0 148.0,260.0 149.0,259.0 150.0,258.0 151.0,258.0 152.0,257.0 153.0,257.0 154.0,257.0 155.0,255.0 156.0,255.0 157.0,254.0 158.0,255.0 159.0,253.0 160.0,254.0 161.0,253.0 162.0,254.0 163.0,251.0 164.0,252.0 165.0,251.0 166.0,252.0 167.0,250.0 168.0,251.0 169.0,249.0 170.0,250.0 171.0,249.0 172.0,248.0 173.0,247.0 174.0,248.0 175.0,247.0 176.0,248.0 177.0,247.0 178.0,246.0 179.0,246.0 180.0,246.0 181.0,245.0 182.0,245.0 183.0,244.0 184.0,244.0 185.0,244.0 186.0,243.0 187.0,243.0 188.0,241.0 189.0,241.0 190.0,240.0 191.0,240.0 192.0,240.0 193.0,237.0 194.0,238.0 195.0,238.0 196.0,237.0 197.0,237.0 198.0,237.0 199.0,237.0 200.0,236.0 201.0,236.0 202.0,236.0 203.0,235.0 204.0,236.0 205.0,234.0 206.0,234.0 207.0,234.0 208.0,233.0 209.0,233.0 210.0,232.0 211.0,231.0 212.0,231.0 213.0,230.0 214.0,230.0 215.0,229.0 216.0,230.0 217.0,228.0 218.0,229.0 219.0,227.0 220.0,228.0 221.0,226.0 222.0,227.0 223.0,226.0 224.0,226.0 225.0,225.0 226.0,226.0 227.0,224.0 228.0,224.0 229.0,224.0 230.0,224.0 231.0,223.0 232.0,222.0 233.0,223.0 234.0,221.0 235.0,221.0 236.0,221.0 237.0,220.0 238.0,220.0 239.0,219.0 240.0,219.0 241.0,218.0 242.0,219.0 243.0,217.0 244.0,219.0 245.0,216.0 246.0,217.0 247.0,216.0 248.0,215.0 249.0,215.0 250.0,215.0 251.0,214.0 252.0,214.0 253.0,213.0 254.0,214.0 255.0,212.0 256.0,212.0 257.0,211.0 258.0,211.0 259.0,210.0 260.0,210.0 261.0,209.0 262.0,209.0 263.0,208.0 264.0,208.0 265.0,206.0 266.0,206.0 267.0,205.0 268.0,205.0 269.0,205.0 270.0,205.0 271.0,204.0 272.0,204.0 273.0,203.0 274.0,204.0 275.0,203.0 276.0,202.0 277.0,203.0 278.0,201.0 279.0,202.0 280.0,201.0 281.0,201.0 282.0,200.0 283.0,201.0 284.0,199.0 285.0,200.0 286.0,198.0 287.0,200.0 288.0,198.0 289.0,198.0 290.0,197.0 291.0,197.0 292.0,196.0 293.0,196.0 294.0,195.0 295.0,196.0 296.0,193.0 297.0,195.0 298.0,193.0 299.0,194.0 300.0,192.0 301.0,193.0 302.0,191.0 303.0,193.0 304.0,190.0 305.0,192.0 306.0,189.0 307.0,191.0 308.0,188.0 309.0,190.0 310.0,187.0 311.0,188.0 312.0,187.0 313.0,188.0 314.0,186.0 315.0,188.0 316.0,184.0 317.0,187.0 318.0,184.0 319.0,186.0 320.0,183.0 321.0,185.0 322.0,182.0 323.0,185.0 324.0,181.0 325.0,183.0 326.0,180.0 327.0,182.0 328.0,180.0 329.0,182.0 330.0,180.0 331.0,181.0 332.0,178.0 333.0,180.0 334.0,177.0 335.0,179.0 336.0,176.0 337.0,178.0 338.0,175.0 339.0,177.0 340.0,173.0 341.0,175.0 342.0,173.0 343.0,175.0 344.0,171.0 345.0,175.0 346.0,169.0 347.0,174.0 348.0,168.0 349.0,173.0 350.0,168.0 351.0,172.0 352.0,167.0 353.0,171.0 354.0,166.0 355.0,170.0 356.0,164.0 357.0,171.0 358.0,163.0 359.0,171.0 360.0,162.0 361.0,169.0 362.0,160.0 363.0,169.0 364.0,159.0 365.0,167.0 366.0,159.0 367.0,166.0 368.0,158.0 369.0,164.0 370.0,157.0 371.0,163.0 372.0,157.0 373.0,162.0 374.0,156.0 375.0,161.0 376.0,156.0 377.0,160.0 378.0,156.0 379.0,158.0 380.0,156.0 381.0,156.0 382.0,156.0 383.0,156.0 384.0,155.0 385.0,154.0 386.0,154.0 387.0,154.0 388.0,153.0 389.0,152.0 390.0,153.0 391.0,151.0 392.0,152.0 393.0,151.0 394.0,150.0 395.0,151.0 396.0,149.0 397.0,149.0 398.0,149.0 399.0,148.0 400.0,147.0 401.0,147.0 402.0,146.0 403.0,145.0 404.0,144.0 405.0,144.0 406.0,144.0 407.0,142.0 408.0,142.0 409.0,141.0 410.0,141.0 411.0,140.0 412.0,141.0 413.0,139.0 414.0,139.0 415.0,138.0 416.0,137.0 417.0,137.0 418.0,135.0 419.0,135.0 420.0,134.0 421.0,134.0 422.0,133.0 423.0,133.0 424.0,132.0 425.0,132.0 426.0,131.0 427.0,132.0 428.0,130.0 429.0,131.0 430.0,129.0 431.0,130.0 432.0,129.0 433.0,129.0 434.0,127.0 435.0,128.0 436.0,126.0 437.0,127.0 438.0,125.0 439.0,125.0 440.0,125.0 441.0,126.0 442.0,122.0 443.0,124.0 444.0,122.0 445.0,124.0 446.0,121.0 447.0,124.0 448.0,122.0 449.0,123.0 450.0,121.0 451.0,123.0 452.0,120.0 453.0,121.0 454.0,120.0 455.0,121.0 456.0,118.0 457.0,119.0 458.0,119.0 459.0,119.0 460.0,120.0 461.0,117.0 462.0,119.0 463.0,118.0 464.0,118.0 465.0,117.0 466.0,117.0 467.0,116.0 468.0,116.0 469.0,116.0 470.0,115.0 471.0,115.0 472.0,115.0 473.0,113.0 474.0,114.0 475.0,113.0 476.0,113.0 477.0,112.0 478.0,112.0 479.0,111.0 480.0,110.0 481.0,111.0 482.0,110.0 483.0,109.0 484.0,110.0 485.0,108.0 486.0,108.0 487.0,108.0 488.0,107.0 489.0,107.0 490.0,106.0 491.0,106.0 492.0,105.0 493.0,105.0 494.0,104.0 495.0,104.0 496.0,103.0 497.0,103.0 498.0,102.0 499.0,102.0 500.0,101.0 501.0,102.0 502.0,99.0 503.0,99.0 504.0,99.0 505.0,98.0 506.0,97.0 507.0,98.0 508.0,96.0 509.0,97.0 510.0,95.0 511.0,94.0 512.0,93.0 513.0,94.0 514.0,89.0 515.0,93.0 516.0,87.0 517.0,92.0 518.0,83.0 519.0,91.0 520.0,80.0 521.0,92.0 522.0,74.0 523.0,109.0 524.0,68.0" fill="none" stroke="#008000" />
	<polyline points="528.0,66.0 523.0,61.0" fill="none" stroke="#008000" />
	<polyline points="528.0,62.0 523.0,67.0" fill="none" stroke="#008000" />
	<polyline points="530.0,64.0 525.0,59.0" fill="none" stroke="#008000" />
	<polyline points="530.0,60.0 525.0,65.0" fill="none" stroke="#008000" />
	<polyline points="530.0,62.0 531.0,99.0 532.0,64.0 533.0,84.0 534.0,68.0 535.0,80.0 536.0,70.0 537.0,78.0 538.0,72.0 539.0,76.0 540.0,74.0 541.0,75.0 542.0,77.0 543.0,73.0 544.0,79.0 545.0,72.0 546.0,76.0 547.0,74.0 548.0,77.0 549.0,74.0 550.0,76.0 551.0,75.0 552.0,75.0 553.0,76.0 554.0,76.0 555.0,75.0 556.0,75.0 557.0,75.0 558.0,75.0 559.0,74.0 560.0,75.0 561.0,74.0 562.0,75.0 563.0,75.0 564.0,73.0 565.0,75.0 566.0,73.0 567.0,74.0 568.0,73.0 569.0,74.0 570.0,72.0 571.0,73.0 572.0,72.0 573.0,72.0 574.0,72.0 575.0,71.0 576.0,70.0 577.0,70.0 578.0,69.0 579.0,69.0 580.0,68.0 581.0,69.0 582.0,67.0 583.0,67.0 584.0,67.0 585.0,66.0 586.0,66.0 587.0,65.0 588.0,65.0 589.0,64.0 590.0,64.0 591.0,63.0 592.0,64.0 593.0,62.0 594.0,62.0 595.0,62.0 596.0,62.0 597.0,60.0 598.0,60.0 599.0,59.0 600.0,59.0 601.0,58.0 602.0,59.0 603.0,57.0 604.0,58.0 605.0,56.0 606.0,57.0 607.0,55.0 608.0,56.0 609.0,53.0 610.0,55.0 611.0,52.0 612.0,53.0 613.0,51.0 614.0,52.0 615.0,50.0 616.0,50.0 617.0,48.0 618.0,49.0 619.0,46.0 620.0,46.0 621.0,44.0 622.0,45.0 623.0,41.0 624.0,42.0 625.0,40.0 626.0,40.0 627.0,37.0 628.0,37.0 629.0,35.0 630.0,35.0 631.0,31.0 632.0,32.0 633.0,29.0 634.0,29.0 635.0,26.0 636.0,29.0 637.0,25.0 638.0,30.0 639.0,25.0 640.0,30.0 641.0,26.0 642.0,31.0 643.0,27.0 644.0,31.0 645.0,28.0 646.0,31.0 647.0,29.0 648.0,31.0 649.0,29.0 650.0,30.0 651.0,30.0 652.0,30.0 653.0,30.0 654.0,29.0" fill="none" stroke="#008000" />
	<polyline points="55.0,287.0 56.0,286.0 57.0,286.0 58.0,285.0 59.0,286.0 60.0,284.0 61.0,284.0 62.0,284.0 63.0,283.0 64.0,283.0 65.0,282.0 66.0,282.0 67.0,281.0 68.0,281.0 69.0,280.0 70.0,280.0 71.0,279.0 72.0,280.0 73.0,279.0 74.0,278.0 75.0,279.0 76.0,277.0 77.0,278.0 78.0,276.0 79.0,276.0 80.0,276.0 81.0,275.0 82.0,275.0 83.0,274.0 84.0,274.0 85.0,274.0 86.0,273.0 87.0,273.0 88.0,272.0 89.0,272.0 90.0,272.0 91.0,271.0 92.0,271.0 93.0,270.0 94.0,270.0 95.0,270.0 96.0,269.0 97.0,268.0 98.0,268.0 99.0,268.0 100.0,267.0 101.0,266.0 102.0,266.0 103.0,265.0 104.0,266.0 105.0,265.0 106.0,264.0 107.0,264.0 108.0,264.0 109.0,263.0 110.0,263.0 111.0,262.0 112.0,262.0 113.0,260.0 114.0,261.0 115.0,259.0 116.0,260.0 117.0,259.0 118.0,259.0 119.0,259.0 120.0,258.0 121.0,257.0 122.0,258.0 123.0,256.0 124.0,257.0 125.0,256.0 126.0,256.0 127.0,254.0 128.0,256.0 129.0,253.0 130.0,255.0 131.0,252.0 132.0,254.0 133.0,251.0 134.0,253.0 135.0,251.0 136.0,252.0 137.0,250.0 138.0,251.0 139.0,249.0 140.0,251.0 141.0,248.0 142.0,250.0 143.0,247.0 144.0,249.0 145.0,246.0 146.0,248.0 147.0,246.0 148.0,247.0 149.0,244.0 150.0,247.0 151.0,244.0 152.0,246.0 153.0,242.0 154.0,245.0 155.0,241.0 156.0,245.0 157.0,241.0 158.0,244.0 159.0,239.0 160.0,244.0 161.0,239.0 162.0,242.0 163.0,238.0 164.0,241.0 165.0,237.0 166.0,239.0 167.0,237.0 168.0,238.0 169.0,237.0 170.0,235.0 171.0,237.0 172.0,235.0 173.0,236.0 174.0,234.0 175.0,234.0 176.0,233.0 177.0,234.0 178.0,232.0 179.0,235.0 180.0,229.0 181.0,233.0 182.0,229.0 183.0,232.0 184.0,229.0 185.0,231.0 186.0,228.0 187.0,230.0 188.0,227.0 189.0,230.0 190.0,226.0 191.0,229.0 192.0,225.0 193.0,228.0 194.0,224.0 195.0,226.0 196.0,224.0 197.0,226.0 198.0,223.0 199.0,224.0 200.0,224.0 201.0,221.0 202.0,223.0 203.0,221.0 204.0,223.0 205.0,220.0 206.0,222.0 207.0,219.0 208.0,222.0 209.0,218.0 210.0,220.0 211.0,217.0 212.0,219.0 213.0,217.0 214.0,218.0 215.0,217.0 216.0,216.0 217.0,216.0 218.0,216.0 219.0,215.0 220.0,214.0 221.0,214.0 222.0,214.0 223.0,213.0 224.0,213.0 225.0,212.0 226.0,212.0 227.0,211.0 228.0,211.0 229.0,210.0 230.0,211.0 231.0,209.0 232.0,210.0 233.0,208.0 234.0,209.0 235.0,207.0 236.0,209.0 237.0,206.0 238.0,208.0 239.0,205.0 240.0,208.0 241.0,204.0 242.0,206.0 243.0,203.0 244.0,205.0 245.0,203.0 246.0,204.0 247.0,203.0 248.0,202.0 249.0,202.0 250.0,203.0 251.0,200.0 252.0,201.0 253.0,200.0 254.0,200.0 255.0,200.0 256.0,199.0 257.0,199.0 258.0,197.0 259.0,199.0 260.0,196.0 261.0,198.0 262.0,195.0 263.0,197.0 264.0,194.0 265.0,196.0 266.0,194.0 267.0,196.0 268.0,192.0 269.0,195.0 270.0,191.0 271.0,195.0 272.0,190.0 273.0,194.0 274.0,189.0 275.0,193.0 276.0,188.0 277.0,193.0 278.0,187.0 279.0,192.0 280.0,186.0 281.0,191.0 282.0,185.0 283.0,189.0 284.0,185.0 285.0,188.0 286.0,184.0 287.0,191.0 288.0,181.0 289.0,191.0 290.0,179.0 291.0,192.0 292.0,178.0 293.0,192.0 294.0,177.0 295.0,192.0 296.0,176.0 297.0,192.0 298.0,175.0 299.0,190.0 300.0,175.0 301.0,188.0 302.0,174.0 303.0,187.0 304.0,173.0 305.0,187.0 306.0,172.0 307.0,187.0 308.0,170.0 309.0,190.0 310.0,169.0 311.0,188.0 312.0,169.0 313.0,188.0 314.0,168.0 315.0,192.0 316.0,166.0 317.0,199.0 318.0,165.0 319.0,195.0 320.0,164.0 321.0,196.0 322.0,163.0 323.0,194.0 324.0,162.0 325.0,200.0 326.0,161.0" fill="none" stroke="#d0d000" />
	<polyline points="330.0,162.0 325.0,157.0" fill="none" stroke="#d0d000" />
	<polyline points="330.0,158.0 325.0,163.0" fill="none" stroke="#d0d000" />
	<polyline points="332.0,160.0 327.0,155.0" fill="none" stroke="#d0d000" />
	<polyline points="332.0,156.0 327.0,161.0" fill="none" stroke="#d0d000" />
	<polyline points="334.0,159.0 329.0,154.0" fill="none" stroke="#d0d000" />
	<polyline points="334.0,155.0 329.0,160.0" fill="none" stroke="#d0d000" />
	<polyline points="336.0,158.0 331.0,153.0" fill="none" stroke="#d0d000" />
	<polyline points="336.0,154.0 331.0,159.0" fill="none" stroke="#d0d000" />
	<polyline points="338.0,156.0 333.0,151.0" fill="none" stroke="#d0d000" />
	<polyline points="338.0,152.0 333.0,157.0" fill="none" stroke="#d0d000" />
	<polyline points="340.0,154.0 335.0,149.0" fill="none" stroke="#d0d000" />
	<polyline points="340.0,150.0 335.0,155.0" fill="none" stroke="#d0d000" />
	<polyline points="342.0,153.0 337.0,148.0" fill="none" stroke="#d0d000" />
	<polyline points="342.0,149.0 337.0,154.0" fill="none" stroke="#d0d000" />
	<polyline points="344.0,152.0 339.0,147.0" fill="none" stroke="#d0d000" />
	<polyline points="344.0,148.0 339.0,153.0" fill="none" stroke="#d0d000" />
	<polyline points="346.0,151.0 341.0,146.0" fill="none" stroke="#d0d000" />
	<polyline points="346.0,147.0 341.0,152.0" fill="none" stroke="#d0d000" />
	<polyline points="348.0,147.0 343.0,142.0" fill="none" stroke="#d0d000" />
	<polyline points="348.0,143.0 343.0,148.0" fill="none" stroke="#d0d000" />
	<polyline points="350.0,147.0 345.0,142.0" fill="none" stroke="#d0d000" />
	<polyline points="350.0,143.0 345.0,148.0" fill="none" stroke="#d0d000" />
	<polyline points="352.0,145.0 347.0,140.0" fill="none" stroke="#d0d000" />
	<polyline points="352.0,141.0 347.0,146.0" fill="none" stroke="#d0d000" />
	<polyline points="354.0,144.0 349.0,139.0" fill="none" stroke="#d0d000" />
	<polyline points="354.0,140.0 349.0,145.0" fill="none" stroke="#d0d000" />
	<polyline points="356.0,142.0 351.0,137.0" fill="none" stroke="#d0d000" />
	<polyline points="356.0,138.0 351.0,143.0" fill="none" stroke="#d0d000" />
	<polyline points="358.0,141.0 353.0,136.0" fill="none" stroke="#d0d000" />
	<polyline points="358.0,137.0 353.0,142.0" fill="none" stroke="#d0d000" />
	<polyline points="360.0,140.0 355.0,135.0" fill="none" stroke="#d0d000" />
	<polyline points="360.0,136.0 355.0,141.0" fill="none" stroke="#d0d000" />
	<polyline points="362.0,140.0 357.0,135.0" fill="none" stroke="#d0d000" />
	<polyline points="362.0,136.0 357.0,141.0" fill="none" stroke="#d0d000" />
	<polyline points="364.0,140.0 359.0,135.0" fill="none" stroke="#d0d000" />
	<polyline points="364.0,136.0 359.0,141.0" fill="none" stroke="#d0d000" />
	<polyline points="366.0,141.0 361.0,136.0" fill="none" stroke="#d0d000" />
	<polyline points="366.0,137.0 361.0,142.0" fill="none" stroke="#d0d000" />
	<polyline points="368.0,141.0 363.0,136.0" fill="none" stroke="#d0d000" />
	<polyline points="368.0,137.0 363.0,142.0" fill="none" stroke="#d0d000" />
	<polyline points="370.0,142.0 365.0,137.0" fill="none" stroke="#d0d000" />
	<polyline points="370.0,138.0 365.0,143.0" fill="none" stroke="#d0d000" />
	<polyline points="370.0,140.0 371.0,167.0 372.0,141.0 373.0,160.0 374.0,141.0 375.0,155.0 376.0,142.0 377.0,152.0 378.0,141.0 379.0,151.0 380.0,140.0 381.0,150.0 382.0,140.0 383.0,149.0 384.0,140.0 385.0,148.0 386.0,139.0 387.0,145.0 388.0,139.0 389.0,144.0 390.0,138.0 391.0,144.0 392.0,137.0 393.0,143.0 394.0,136.0 395.0,142.0 396.0,135.0 397.0,141.0 398.0,134.0 399.0,140.0 400.0,134.0 401.0,138.0 402.0,133.0 403.0,137.0 404.0,133.0 405.0,135.0 406.0,133.0 407.0,134.0 408.0,132.0 409.0,133.0 410.0,132.0 411.0,132.0 412.0,131.0 413.0,132.0 414.0,129.0 415.0,130.0 416.0,128.0 417.0,131.0 418.0,127.0 419.0,131.0 420.0,125.0 421.0,130.0 422.0,124.0 423.0,130.0 424.0,123.0 425.0,129.0 426.0,123.0 427.0,129.0 428.0,121.0 429.0,128.0 430.0,120.0 431.0,129.0 432.0,118.0 433.0,129.0 434.0,117.0 435.0,128.0 436.0,116.0 437.0,130.0 438.0,114.0 439.0,131.0 440.0,112.0 441.0,134.0 442.0,111.0 443.0,134.0 444.0,110.0 445.0,135.0 446.0,109.0 447.0,143.0 448.0,108.0 449.0,134.0 450.0,107.0 451.0,127.0 452.0,107.0 453.0,118.0 454.0,107.0 455.0,116.0 456.0,107.0 457.0,113.0 458.0,108.0 459.0,112.0 460.0,107.0 461.0,111.0 462.0,107.0 463.0,110.0 464.0,107.0 465.0,108.0 466.0,106.0 467.0,108.0 468.0,105.0 469.0,107.0 470.0,104.0 471.0,108.0 472.0,102.0 473.0,107.0 474.0,101.0 475.0,107.0 476.0,101.0 477.0,106.0 478.0,100.0 479.0,104.0 480.0,100.0 481.0,104.0 482.0,98.0 483.0,103.0 484.0,97.0 485.0,102.0 486.0,97.0 487.0,101.0 488.0,95.0 489.0,101.0 490.0,94.0 491.0,101.0 492.0,93.0 493.0,102.0 494.0,91.0 495.0,102.0 496.0,89.0 497.0,103.0 498.0,89.0 499.0,102.0 500.0,87.0 501.0,104.0 502.0,86.0 503.0,108.0 504.0,84.0" fill="none" stroke="#d0d000" />
	<polyline points="508.0,84.0 503.0,79.0" fill="none" stroke="#d0d000" />
	<polyline points="508.0,80.0 503.0,85.0" fill="none" stroke="#d0d000" />
	<polyline points="510.0,82.0 505.0,77.0" fill="none" stroke="#d0d000" />
	<polyline points="510.0,78.0 505.0,83.0" fill="none" stroke="#d0d000" />
	<polyline points="512.0,80.0 507.0,75.0" fill="none" stroke="#d0d000" />
	<polyline points="512.0,76.0 507.0,81.0" fill="none" stroke="#d0d000" />
	<polyline points="514.0,76.0 509.0,71.0" fill="none" stroke="#d0d000" />
	<polyline points="514.0,72.0 509.0,77.0" fill="none" stroke="#d0d000" />
	<polyline points="516.0,72.0 511.0,67.0" fill="none" stroke="#d0d000" />
	<polyline points="516.0,68.0 511.0,73.0" fill="none" stroke="#d0d000" />
	<polyline points="518.0,67.0 513.0,62.0" fill="none" stroke="#d0d000" />
	<polyline points="518.0,63.0 513.0,68.0" fill="none" stroke="#d0d000" />
	<polyline points="520.0,62.0 515.0,57.0" fill="none" stroke="#d0d000" />
	<polyline points="520.0,58.0 515.0,63.0" fill="none" stroke="#d0d000" />
	<polyline points="522.0,57.0 517.0,52.0" fill="none" stroke="#d0d000" />
	<polyline points="522.0,53.0 517.0,58.0" fill="none" stroke="#d0d000" />
	<polyline points="524.0,51.0 519.0,46.0" fill="none" stroke="#d0d000" />
	<polyline points="524.0,47.0 519.0,52.0" fill="none" stroke="#d0d000" />
	<polyline points="526.0,46.0 521.0,41.0" fill="none" stroke="#d0d000" />
	<polyline points="526.0,42.0 521.0,47.0" fill="none" stroke="#d0d000" />
	<polyline points="528.0,45.0 523.0,40.0" fill="none" stroke="#d0d000" />
	<polyline points="528.0,41.0 523.0,46.0" fill="none" stroke="#d0d000" />
	<polyline points="530.0,48.0 525.0,43.0" fill="none" stroke="#d0d000" />
	<polyline points="530.0,44.0 525.0,49.0" fill="none" stroke="#d0d000" />
	<polyline points="532.0,51.0 527.0,46.0" fill="none" stroke="#d0d000" />
	<polyline points="532.0,47.0 527.0,52.0" fill="none" stroke="#d0d000" />
	<polyline points="532.0,53.0 533.0,98.0 534.0,56.0 535.0,78.0 536.0,59.0 537.0,72.0 538.0,62.0 539.0,69.0 540.0,65.0 541.0,68.0 542.0,66.0 543.0,68.0 544.0,66.0 545.0,69.0 546.0,67.0 547.0,69.0 548.0,67.0 549.0,69.0 550.0,67.0 551.0,69.0 552.0,67.0 553.0,69.0 554.0,67.0 555.0,69.0 556.0,67.0 557.0,68.0 558.0,67.0 559.0,68.0 560.0,65.0 561.0,68.0 562.0,64.0 563.0,67.0 564.0,64.0 565.0,66.0 566.0,63.0 567.0,65.0 568.0,62.0 569.0,65.0 570.0,62.0 571.0,64.0 572.0,62.0 573.0,63.0 574.0,60.0 575.0,61.0 576.0,60.0 577.0,61.0 578.0,59.0 579.0,60.0 580.0,59.0 581.0,58.0 582.0,58.0 583.0,58.0 584.0,57.0 585.0,57.0 586.0,57.0 587.0,56.0 588.0,56.0 589.0,54.0 590.0,56.0 591.0,53.0 592.0,55.0 593.0,51.0 594.0,55.0 595.0,50.0 596.0,55.0 597.0,49.0 598.0,54.0 599.0,48.0 600.0,53.0 601.0,47.0 602.0,53.0 603.0,45.0 604.0,53.0 605.0,44.0 606.0,53.0 607.0,43.0 608.0,53.0 609.0,42.0 610.0,54.0 611.0,40.0 612.0,59.0 613.0,37.0 614.0,58.0 615.0,36.0 616.0,57.0 617.0,35.0 618.0,68.0 619.0,33.0" fill="none" stroke="#d0d000" />
	<polyline points="623.0,32.0 618.0,27.0" fill="none" stroke="#d0d000" />
	<polyline points="623.0,28.0 618.0,33.0" fill="none" stroke="#d0d000" />
	<polyline points="625.0,30.0 620.0,25.0" fill="none" stroke="#d0d000" />
	<polyline points="625.0,26.0 620.0,31.0" fill="none" stroke="#d0d000" />
	<polyline points="627.0,26.0 622.0,21.0" fill="none" stroke="#d0d000" />
	<polyline points="627.0,22.0 622.0,27.0" fill="none" stroke="#d0d000" />
	<polyline points="629.0,23.0 624.0,18.0" fill="none" stroke="#d0d000" />
	<polyline points="629.0,19.0 624.0,24.0" fill="none" stroke="#d0d000" />
	<polyline points="631.0,19.0 626.0,14.0" fill="none" stroke="#d0d000" />
	<polyline points="631.0,15.0 626.0,20.0" fill="none" stroke="#d0d000" />
	<polyline points="633.0,16.0 628.0,11.0" fill="none" stroke="#d0d000" />
	<polyline points="633.0,12.0 628.0,17.0" fill="none" stroke="#d0d000" />
	<polyline points="635.0,14.0 630.0,9.0" fill="none" stroke="#d0d000" />
	<polyline points="635.0,10.0 630.0,15.0" fill="none" stroke="#d0d000" />
	<polyline points="637.0,14.0 632.0,9.0" fill="none" stroke="#d0d000" />
	<polyline points="637.0,10.0 632.0,15.0" fill="none" stroke="#d0d000" />
	<polyline points="637.0,14.0 638.0,38.0 639.0,17.0 640.0,33.0 641.0,19.0 642.0,30.0 643.0,22.0 644.0,29.0 645.0,23.0 646.0,30.0 647.0,23.0 648.0,29.0 649.0,24.0 650.0,29.0 651.0,24.0 652.0,28.0 653.0,23.0 654.0,28.0" fill="none" stroke="#d0d000" />
	<polyline points="55.0,300.0 56.0,300.0 57.0,299.0 58.0,298.0 59.0,298.0 60.0,298.0 61.0,297.0 62.0,296.0 63.0,296.0 64.0,296.0 65.0,296.0 66.0,295.0 67.0,294.0 68.0,294.0 69.0,293.0 70.0,293.0 71.0,293.0 72.0,293.0 73.0,291.0 74.0,292.0 75.0,290.0 76.0,290.0 77.0,291.0 78.0,289.0 79.0,289.0 80.0,288.0 81.0,288.0 82.0,287.0 83.0,287.0 84.0,286.0 85.0,286.0 86.0,286.0 87.0,285.0 88.0,285.0 89.0,283.0 90.0,284.0 91.0,283.0 92.0,283.0 93.0,281.0 94.0,281.0 95.0,281.0 96.0,280.0 97.0,280.0 98.0,279.0 99.0,279.0 100.0,279.0 101.0,278.0 102.0,278.0 103.0,277.0 104.0,276.0 105.0,277.0 106.0,275.0 107.0,275.0 108.0,274.0 109.0,274.0 110.0,273.0 111.0,272.0 112.0,272.0 113.0,272.0 114.0,271.0 115.0,270.0 116.0,271.0 117.0,268.0 118.0,269.0 119.0,268.0 120.0,268.0 121.0,268.0 122.0,267.0 123.0,267.0 124.0,268.0 125.0,267.0 126.0,266.0 127.0,266.0 128.0,265.0 129.0,266.0 130.0,266.0 131.0,263.0 132.0,264.0 133.0,264.0 134.0,263.0 135.0,263.0 136.0,262.0 137.0,263.0 138.0,261.0 139.0,261.0 140.0,261.0 141.0,260.0 142.0,260.0 143.0,258.0 144.0,259.0 145.0,258.0 146.0,258.0 147.0,258.0 148.0,257.0 149.0,258.0 150.0,255.0 151.0,256.0 152.0,255.0 153.0,255.0 154.0,255.0 155.0,253.0 156.0,253.0 157.0,253.0 158.0,253.0 159.0,253.0 160.0,252.0 161.0,253.0 162.0,251.0 163.0,250.0 164.0,251.0 165.0,250.0 166.0,252.0 167.0,247.0 168.0,250.0 169.0,248.0 170.0,248.0 171.0,248.0 172.0,249.0 173.0,246.0 174.0,247.0 175.0,246.0 176.0,246.0 177.0,246.0 178.0,244.0 179.0,245.0 180.0,244.0 181.0,245.0 182.0,243.0 183.0,244.0 184.0,242.0 185.0,243.0 186.0,241.0 187.0,241.0 188.0,242.0 189.0,241.0 190.0,240.0 191.0,241.0 192.0,240.0 193.0,239.0 194.0,241.0 195.0,236.0 196.0,238.0 197.0,236.0 198.0,237.0 199.0,236.0 200.0,237.0 201.0,236.0 202.0,236.0 203.0,236.0 204.0,235.0 205.0,235.0 206.0,234.0 207.0,234.0 208.0,234.0 209.0,233.0 210.0,234.0 211.0,232.0 212.0,233.0 213.0,232.0 214.0,232.0 215.0,231.0 216.0,231.0 217.0,231.0 218.0,231.0 219.0,230.0 220.0,230.0 221.0,230.0 222.0,229.0 223.0,229.0 224.0,229.0 225.0,228.0 226.0,228.0 227.0,228.0 228.0,227.0 229.0,227.0 230.0,227.0 231.0,226.0 232.0,225.0 233.0,226.0 234.0,224.0 235.0,224.0 236.0,224.0 237.0,223.0 238.0,223.0 239.0,222.0 240.0,222.0 241.0,221.0 242.0,221.0 243.0,221.0 244.0,220.0 245.0,219.0 246.0,220.0 247.0,218.0 248.0,218.0 249.0,218.0 250.0,217.0 251.0,217.0 252.0,216.0 253.0,215.0 254.0,215.0 255.0,214.0 256.0,214.0 257.0,213.0 258.0,213.0 259.0,212.0 260.0,213.0 261.0,212.0 262.0,212.0 263.0,211.0 264.0,211.0 265.0,210.0 266.0,209.0 267.0,208.0 268.0,209.0 269.0,205.0 270.0,207.0 271.0,205.0 272.0,205.0 273.0,204.0 274.0,204.0 275.0,203.0 276.0,202.0 277.0,202.0 278.0,200.0 279.0,199.0 280.0,198.0 281.0,199.0 282.0,195.0 283.0,196.0 284.0,192.0 285.0,194.0 286.0,191.0 287.0,192.0 288.0,190.0 289.0,190.0 290.0,188.0 291.0,188.0 292.0,188.0 293.0,187.0 294.0,185.0 295.0,188.0 296.0,184.0 297.0,187.0 298.0,183.0 299.0,186.0 300.0,181.0 301.0,186.0 302.0,180.0 303.0,184.0 304.0,180.0 305.0,184.0 306.0,179.0 307.0,183.0 308.0,178.0 309.0,183.0 310.0,176.0 311.0,183.0 312.0,175.0 313.0,182.0 314.0,175.0 315.0,180.0 316.0,175.0 317.0,179.0 318.0,174.0 319.0,179.0 320.0,173.0 321.0,179.0 322.0,172.0 323.0,178.0 324.0,172.0 325.0,177.0 326.0,171.0 327.0,176.0 328.0,171.0 329.0,176.0 330.0,170.0 331.0,176.0 332.0,170.0 333.0,175.0 334.0,169.0 335.0,175.0 336.0,169.0 337.0,176.0 338.0,168.0 339.0,176.0 340.0,168.0 341.0,176.0 342.0,168.0 343.0,176.0 344.0,167.0 345.0,177.0 346.0,166.0 347.0,177.0 348.0,165.0 349.0,176.0 350.0,166.0 351.0,175.0 352.0,165.0 353.0,175.0 354.0,164.0 355.0,175.0 356.0,163.0 357.0,174.0 358.0,163.0 359.0,174.0 360.0,162.0 361.0,172.0 362.0,162.0 363.0,171.0 364.0,162.0 365.0,170.0 366.0,161.0 367.0,169.0 368.0,162.0 369.0,168.0 370.0,162.0 371.0,167.0 372.0,162.0 373.0,166.0 374.0,162.0 375.0,165.0 376.0,161.0 377.0,164.0 378.0,162.0 379.0,163.0 380.0,161.0 381.0,162.0 382.0,160.0 383.0,162.0 384.0,160.0 385.0,161.0 386.0,159.0 387.0,160.0 388.0,158.0 389.0,160.0 390.0,158.0 391.0,158.0 392.0,158.0 393.0,157.0 394.0,157.0 395.0,157.0 396.0,156.0 397.0,156.0 398.0,156.0 399.0,155.0 400.0,155.0 401.0,154.0 402.0,154.0 403.0,153.0 404.0,153.0 405.0,152.0 406.0,152.0 407.0,152.0 408.0,151.0 409.0,150.0 410.0,150.0 411.0,148.0 412.0,149.0 413.0,147.0 414.0,147.0 415.0,147.0 416.0,146.0 417.0,146.0 418.0,146.0 419.0,145.0 420.0,145.0 421.0,145.0 422.0,144.0 423.0,144.0 424.0,143.0 425.0,143.0 426.0,142.0 427.0,142.0 428.0,141.0 429.0,141.0 430.0,140.0 431.0,140.0 432.0,139.0 433.0,139.0 434.0,138.0 435.0,138.0 436.0,137.0 437.0,136.0 438.0,136.0 439.0,136.0 440.0,135.0 441.0,135.0 442.0,134.0 443.0,134.0 444.0,133.0 445.0,133.0 446.0,132.0 447.0,132.0 448.0,131.0 449.0,130.0 450.0,130.0 451.0,130.0 452.0,128.0 453.0,129.0 454.0,128.0 455.0,128.0 456.0,127.0 457.0,127.0 458.0,126.0 459.0,126.0 460.0,125.0 461.0,126.0 462.0,125.0 463.0,124.0 464.0,124.0 465.0,124.0 466.0,122.0 467.0,123.0 468.0,122.0 469.0,122.0 470.0,122.0 471.0,121.0 472.0,121.0 473.0,120.0 474.0,120.0 475.0,119.0 476.0,118.0 477.0,118.0 478.0,118.0 479.0,118.0 480.0,118.0 481.0,116.0 482.0,117.0 483.0,115.0 484.0,116.0 485.0,115.0 486.0,114.0 487.0,114.0 488.0,114.0 489.0,113.0 490.0,113.0 491.0,112.0 492.0,112.0 493.0,112.0 494.0,111.0 495.0,110.0 496.0,110.0 497.0,110.0 498.0,108.0 499.0,108.0 500.0,108.0 501.0,107.0 502.0,107.0 503.0,107.0 504.0,106.0 505.0,104.0 506.0,104.0 507.0,103.0 508.0,102.0 509.0,102.0 510.0,101.0 511.0,100.0 512.0,100.0 513.0,99.0 514.0,97.0 515.0,97.0 516.0,95.0 517.0,95.0 518.0,93.0 519.0,94.0 520.0,89.0 521.0,91.0 522.0,84.0 523.0,91.0 524.0,77.0 525.0,95.0 526.0,71.0 527.0,94.0 528.0,68.0 529.0,89.0 530.0,70.0 531.0,84.0 532.0,72.0 533.0,82.0 534.0,74.0 535.0,80.0 536.0,77.0 537.0,80.0 538.0,79.0 539.0,78.0 540.0,82.0 541.0,76.0 542.0,83.0 543.0,77.0 544.0,82.0 545.0,78.0 546.0,83.0 547.0,78.0 548.0,82.0 549.0,78.0 550.0,82.0 551.0,80.0 552.0,82.0 553.0,79.0 554.0,82.0 555.0,79.0 556.0,81.0 557.0,79.0 558.0,82.0 559.0,79.0 560.0,81.0 561.0,79.0 562.0,80.0 563.0,79.0 564.0,79.0 565.0,78.0 566.0,79.0 567.0,78.0 568.0,79.0 569.0,77.0 570.0,77.0 571.0,77.0 572.0,76.0 573.0,76.0 574.0,76.0 575.0,75.0 576.0,74.0 577.0,74.0 578.0,73.0 579.0,72.0 580.0,72.0 581.0,72.0 582.0,71.0 583.0,72.0 584.0,70.0 585.0,70.0 586.0,70.0 587.0,69.0 588.0,70.0 589.0,69.0 590.0,68.0 591.0,68.0 592.0,68.0 593.0,67.0 594.0,68.0 595.0,66.0 596.0,67.0 597.0,66.0 598.0,66.0 599.0,65.0 600.0,65.0 601.0,64.0 602.0,64.0 603.0,63.0 604.0,64.0 605.0,62.0 606.0,63.0 607.0,62.0 608.0,62.0 609.0,60.0 610.0,61.0 611.0,60.0 612.0,60.0 613.0,59.0 614.0,60.0 615.0,58.0 616.0,59.0 617.0,57.0 618.0,58.0 619.0,57.0 620.0,56.0 621.0,56.0 622.0,56.0 623.0,55.0 624.0,55.0 625.0,54.0 626.0,54.0 627.0,52.0 628.0,52.0 629.0,52.0 630.0,49.0 631.0,49.0 632.0,47.0 633.0,46.0 634.0,45.0 635.0,44.0 636.0,43.0 637.0,43.0 638.0,44.0 639.0,42.0 640.0,44.0 641.0,42.0 642.0,44.0 643.0,43.0 644.0,44.0 645.0,43.0 646.0,44.0 647.0,43.0 648.0,43.0 649.0,43.0 650.0,43.0 651.0,43.0 652.0,42.0 653.0,43.0 654.0,42.0" fill="none" stroke="#fb46bc" />
	<polyline points="55.0,286.0 56.0,287.0 57.0,285.0 58.0,285.0 59.0,285.0 60.0,284.0 61.0,285.0 62.0,283.0 63.0,284.0 64.0,282.0 65.0,283.0 66.0,281.0 67.0,282.0 68.0,281.0 69.0,281.0 70.0,280.0 71.0,280.0 72.0,279.0 73.0,279.0 74.0,278.0 75.0,278.0 76.0,277.0 77.0,277.0 78.0,277.0 79.0,276.0 80.0,276.0 81.0,275.0 82.0,275.0 83.0,275.0 84.0,274.0 85.0,273.0 86.0,273.0 87.0,272.0 88.0,273.0 89.0,271.0 90.0,272.0 91.0,270.0 92.0,271.0 93.0,270.0 94.0,270.0 95.0,269.0 96.0,269.0 97.0,268.0 98.0,268.0 99.0,268.0 100.0,267.0 101.0,266.0 102.0,266.0 103.0,266.0 104.0,264.0 105.0,265.0 106.0,264.0 107.0,264.0 108.0,263.0 109.0,263.0 110.0,263.0 111.0,262.0 112.0,262.0 113.0,260.0 114.0,261.0 115.0,260.0 116.0,260.0 117.0,259.0 118.0,259.0 119.0,259.0 120.0,258.0 121.0,258.0 122.0,257.0 123.0,257.0 124.0,256.0 125.0,256.0 126.0,255.0 127.0,255.0 128.0,255.0 129.0,254.0 130.0,254.0 131.0,253.0 132.0,253.0 133.0,252.0 134.0,252.0 135.0,251.0 136.0,251.0 137.0,250.0 138.0,251.0 139.0,249.0 140.0,250.0 141.0,249.0 142.0,249.0 143.0,248.0 144.0,248.0 145.0,247.0 146.0,247.0 147.0,247.0 148.0,246.0 149.0,245.0 150.0,245.0 151.0,245.0 152.0,244.0 153.0,244.0 154.0,243.0 155.0,243.0 156.0,243.0 157.0,241.0 158.0,242.0 159.0,241.0 160.0,242.0 161.0,239.0 162.0,240.0 163.0,239.0 164.0,240.0 165.0,238.0 166.0,239.0 167.0,238.0 168.0,237.0 169.0,237.0 170.0,237.0 171.0,236.0 172.0,236.0 173.0,235.0 174.0,235.0 175.0,234.0 176.0,235.0 177.0,233.0 178.0,233.0 179.0,232.0 180.0,233.0 181.0,231.0 182.0,231.0 183.0,231.0 184.0,230.0 185.0,230.0 186.0,230.0 187.0,229.0 188.0,229.0 189.0,228.0 190.0,228.0 191.0,227.0 192.0,228.0 193.0,226.0 194.0,227.0 195.0,225.0 196.0,226.0 197.0,225.0 198.0,225.0 199.0,224.0 200.0,224.0 201.0,223.0 202.0,223.0 203.0,222.0 204.0,222.0 205.0,221.0 206.0,221.0 207.0,220.0 208.0,220.0 209.0,220.0 210.0,219.0 211.0,219.0 212.0,219.0 213.0,218.0 214.0,218.0 215.0,217.0 216.0,217.0 217.0,216.0 218.0,216.0 219.0,215.0 220.0,215.0 221.0,215.0 222.0,214.0 223.0,214.0 224.0,213.0 225.0,213.0 226.0,212.0 227.0,212.0 228.0,211.0 229.0,211.0 230.0,211.0 231.0,209.0 232.0,210.0 233.0,208.0 234.0,209.0 235.0,208.0 236.0,208.0 237.0,207.0 238.0,208.0 239.0,206.0 240.0,207.0 241.0,205.0 242.0,206.0 243.0,204.0 244.0,206.0 245.0,203.0 246.0,205.0 247.0,202.0 248.0,204.0 249.0,201.0 250.0,203.0 251.0,200.0 252.0,202.0 253.0,200.0 254.0,201.0 255.0,200.0 256.0,200.0 257.0,198.0 258.0,199.0 259.0,198.0 260.0,198.0 261.0,197.0 262.0,197.0 263.0,196.0 264.0,197.0 265.0,195.0 266.0,196.0 267.0,194.0 268.0,195.0 269.0,193.0 270.0,194.0 271.0,192.0 272.0,193.0 273.0,191.0 274.0,192.0 275.0,190.0 276.0,191.0 277.0,190.0 278.0,190.0 279.0,190.0 280.0,189.0 281.0,189.0 282.0,188.0 283.0,188.0 284.0,188.0 285.0,186.0 286.0,187.0 287.0,185.0 288.0,186.0 289.0,184.0 290.0,185.0 291.0,183.0 292.0,184.0 293.0,183.0 294.0,183.0 295.0,182.0 296.0,181.0 297.0,182.0 298.0,180.0 299.0,181.0 300.0,179.0 301.0,181.0 302.0,178.0 303.0,179.0 304.0,178.0 305.0,178.0 306.0,176.0 307.0,178.0 308.0,175.0 309.0,177.0 310.0,174.0 311.0,177.0 312.0,172.0 313.0,176.0 314.0,172.0 315.0,174.0 316.0,171.0 317.0,173.0 318.0,171.0 319.0,173.0 320.0,170.0 321.0,171.0 322.0,170.0 323.0,170.0 324.0,169.0 325.0,169.0 326.0,168.0 327.0,168.0 328.0,166.0 329.0,167.0 330.0,166.0 331.0,166.0 332.0,165.0 333.0,165.0 334.0,164.0 335.0,165.0 336.0,162.0 337.0,165.0 338.0,161.0 339.0,163.0 340.0,160.0 341.0,163.0 342.0,159.0 343.0,163.0 344.0,157.0 345.0,163.0 346.0,155.0 347.0,162.0 348.0,154.0 349.0,161.0 350.0,153.0 351.0,161.0 352.0,151.0 353.0,161.0 354.0,150.0 355.0,160.0 356.0,149.0 357.0,160.0 358.0,148.0 359.0,159.0 360.0,147.0 361.0,159.0 362.0,146.0 363.0,158.0 364.0,145.0 365.0,156.0 366.0,145.0 367.0,154.0 368.0,145.0 369.0,153.0 370.0,145.0 371.0,152.0 372.0,144.0 373.0,150.0 374.0,144.0 375.0,148.0 376.0,144.0 377.0,147.0 378.0,143.0 379.0,147.0 380.0,143.0 381.0,145.0 382.0,143.0 383.0,144.0 384.0,142.0 385.0,143.0 386.0,141.0 387.0,142.0 388.0,141.0 389.0,141.0 390.0,140.0 391.0,141.0 392.0,139.0 393.0,139.0 394.0,138.0 395.0,138.0 396.0,138.0 397.0,137.0 398.0,137.0 399.0,137.0 400.0,136.0 401.0,135.0 402.0,136.0 403.0,134.0 404.0,134.0 405.0,134.0 406.0,133.0 407.0,133.0 408.0,132.0 409.0,132.0 410.0,132.0 411.0,130.0 412.0,132.0 413.0,129.0 414.0,130.0 415.0,129.0 416.0,129.0 417.0,128.0 418.0,128.0 419.0,128.0 420.0,127.0 421.0,127.0 422.0,126.0 423.0,126.0 424.0,125.0 425.0,126.0 426.0,124.0 427.0,125.0 428.0,124.0 429.0,124.0 430.0,123.0 431.0,123.0 432.0,122.0 433.0,122.0 434.0,121.0 435.0,121.0 436.0,120.0 437.0,119.0 438.0,120.0 439.0,118.0 440.0,119.0 441.0,117.0 442.0,118.0 443.0,117.0 444.0,116.0 445.0,117.0 446.0,115.0 447.0,116.0 448.0,114.0 449.0,115.0 450.0,113.0 451.0,113.0 452.0,113.0 453.0,112.0 454.0,112.0 455.0,110.0 456.0,112.0 457.0,109.0 458.0,111.0 459.0,109.0 460.0,109.0 461.0,109.0 462.0,108.0 463.0,108.0 464.0,108.0 465.0,107.0 466.0,107.0 467.0,107.0 468.0,106.0 469.0,106.0 470.0,105.0 471.0,105.0 472.0,104.0 473.0,104.0 474.0,103.0 475.0,103.0 476.0,103.0 477.0,102.0 478.0,102.0 479.0,102.0 480.0,101.0 481.0,101.0 482.0,100.0 483.0,100.0 484.0,99.0 485.0,100.0 486.0,98.0 487.0,99.0 488.0,98.0 489.0,98.0 490.0,96.0 491.0,97.0 492.0,96.0 493.0,96.0 494.0,95.0 495.0,95.0 496.0,94.0 497.0,94.0 498.0,93.0 499.0,93.0 500.0,93.0 501.0,91.0 502.0,92.0 503.0,90.0 504.0,92.0 505.0,89.0 506.0,90.0 507.0,88.0 508.0,90.0 509.0,86.0 510.0,89.0 511.0,85.0 512.0,87.0 513.0,83.0 514.0,86.0 515.0,81.0 516.0,84.0 517.0,80.0 518.0,82.0 519.0,76.0 520.0,79.0 521.0,75.0 522.0,76.0 523.0,72.0 524.0,72.0 525.0,71.0 526.0,68.0 527.0,66.0 528.0,72.0 529.0,63.0 530.0,79.0 531.0,60.0" fill="none" stroke="#0000ff" />
	<polyline points="535.0,60.0 530.0,55.0" fill="none" stroke="#0000ff" />
	<polyline points="535.0,56.0 530.0,61.0" fill="none" stroke="#0000ff" />
	<polyline points="537.0,59.0 532.0,54.0" fill="none" stroke="#0000ff" />
	<polyline points="537.0,55.0 532.0,60.0" fill="none" stroke="#0000ff" />
	<polyline points="539.0,58.0 534.0,53.0" fill="none" stroke="#0000ff" />
	<polyline points="539.0,54.0 534.0,59.0" fill="none" stroke="#0000ff" />
	<polyline points="541.0,58.0 536.0,53.0" fill="none" stroke="#0000ff" />
	<polyline points="541.0,54.0 536.0,59.0" fill="none" stroke="#0000ff" />
	<polyline points="543.0,58.0 538.0,53.0" fill="none" stroke="#0000ff" />
	<polyline points="543.0,54.0 538.0,59.0" fill="none" stroke="#0000ff" />
	<polyline points="545.0,60.0 540.0,55.0" fill="none" stroke="#0000ff" />
	<polyline points="545.0,56.0 540.0,61.0" fill="none" stroke="#0000ff" />
	<polyline points="545.0,59.0 546.0,84.0 547.0,61.0 548.0,79.0 549.0,62.0 550.0,77.0 551.0,62.0 552.0,75.0 553.0,63.0 554.0,73.0 555.0,63.0 556.0,73.0 557.0,63.0 558.0,72.0 559.0,63.0 560.0,70.0 561.0,63.0 562.0,68.0 563.0,62.0 564.0,68.0 565.0,62.0 566.0,67.0 567.0,62.0 568.0,65.0 569.0,61.0 570.0,64.0 571.0,60.0 572.0,63.0 573.0,60.0 574.0,62.0 575.0,60.0 576.0,61.0 577.0,59.0 578.0,60.0 579.0,59.0 580.0,59.0 581.0,57.0 582.0,59.0 583.0,56.0 584.0,58.0 585.0,56.0 586.0,57.0 587.0,55.0 588.0,55.0 589.0,54.0 590.0,55.0 591.0,53.0 592.0,54.0 593.0,52.0 594.0,53.0 595.0,51.0 596.0,52.0 597.0,50.0 598.0,52.0 599.0,49.0 600.0,52.0 601.0,48.0 602.0,50.0 603.0,47.0 604.0,49.0 605.0,47.0 606.0,48.0 607.0,46.0 608.0,47.0 609.0,45.0 610.0,46.0 611.0,45.0 612.0,45.0 613.0,44.0 614.0,44.0 615.0,43.0 616.0,43.0 617.0,41.0 618.0,41.0 619.0,41.0 620.0,40.0 621.0,39.0 622.0,39.0 623.0,38.0 624.0,37.0 625.0,37.0 626.0,35.0 627.0,35.0 628.0,33.0 629.0,33.0 630.0,31.0 631.0,31.0 632.0,28.0 633.0,28.0 634.0,26.0 635.0,27.0 636.0,24.0 637.0,27.0 638.0,23.0 639.0,27.0 640.0,24.0 641.0,28.0 642.0,24.0 643.0,28.0 644.0,23.0 645.0,28.0 646.0,24.0 647.0,30.0 648.0,23.0 649.0,30.0 650.0,23.0 651.0,28.0 652.0,23.0 653.0,27.0 654.0,23.0" fill="none" stroke="#0000ff" />
	<polyline points="55.0,300.0 56.0,300.0 57.0,299.0 58.0,300.0 59.0,299.0 60.0,299.0 61.0,299.0 62.0,298.0 63.0,298.0 64.0,297.0 65.0,297.0 66.0,297.0 67.0,297.0 68.0,296.0 69.0,296.0 70.0,295.0 71.0,295.0 72.0,295.0 73.0,294.0 74.0,294.0 75.0,293.0 76.0,293.0 77.0,293.0 78.0,292.0 79.0,292.0 80.0,292.0 81.0,291.0 82.0,291.0 83.0,291.0 84.0,290.0 85.0,289.0 86.0,289.0 87.0,289.0 88.0,288.0 89.0,289.0 90.0,286.0 91.0,287.0 92.0,286.0 93.0,286.0 94.0,286.0 95.0,284.0 96.0,285.0 97.0,284.0 98.0,283.0 99.0,283.0 100.0,283.0 101.0,282.0 102.0,282.0 103.0,282.0 104.0,281.0 105.0,281.0 106.0,280.0 107.0,280.0 108.0,279.0 109.0,279.0 110.0,278.0 111.0,278.0 112.0,278.0 113.0,276.0 114.0,276.0 115.0,274.0 116.0,275.0 117.0,270.0 118.0,272.0 119.0,268.0 120.0,269.0 121.0,267.0 122.0,266.0 123.0,265.0 124.0,265.0 125.0,262.0 126.0,262.0 127.0,261.0 128.0,260.0 129.0,260.0 130.0,257.0 131.0,259.0 132.0,257.0 133.0,256.0 134.0,257.0 135.0,255.0 136.0,255.0 137.0,256.0 138.0,254.0 139.0,253.0 140.0,253.0 141.0,255.0 142.0,251.0 143.0,253.0 144.0,252.0 145.0,251.0 146.0,250.0 147.0,251.0 148.0,249.0 149.0,250.0 150.0,248.0 151.0,248.0 152.0,248.0 153.0,247.0 154.0,247.0 155.0,246.0 156.0,246.0 157.0,245.0 158.0,246.0 159.0,244.0 160.0,246.0 161.0,243.0 162.0,244.0 163.0,243.0 164.0,244.0 165.0,242.0 166.0,243.0 167.0,241.0 168.0,243.0 169.0,240.0 170.0,242.0 171.0,240.0 172.0,240.0 173.0,240.0 174.0,240.0 175.0,238.0 176.0,239.0 177.0,239.0 178.0,238.0 179.0,237.0 180.0,238.0 181.0,237.0 182.0,237.0 183.0,237.0 184.0,237.0 185.0,236.0 186.0,235.0 187.0,236.0 188.0,235.0 189.0,236.0 190.0,234.0 191.0,234.0 192.0,234.0 193.0,234.0 194.0,233.0 195.0,234.0 196.0,233.0 197.0,232.0 198.0,233.0 199.0,232.0 200.0,231.0 201.0,232.0 202.0,232.0 203.0,230.0 204.0,231.0 205.0,230.0 206.0,231.0 207.0,230.0 208.0,231.0 209.0,230.0 210.0,230.0 211.0,230.0 212.0,229.0 213.0,229.0 214.0,229.0 215.0,228.0 216.0,229.0 217.0,227.0 218.0,229.0 219.0,227.0 220.0,227.0 221.0,227.0 222.0,227.0 223.0,226.0 224.0,226.0 225.0,226.0 226.0,226.0 227.0,225.0 228.0,224.0 229.0,224.0 230.0,225.0 231.0,223.0 232.0,223.0 233.0,222.0 234.0,222.0 235.0,222.0 236.0,221.0 237.0,221.0 238.0,220.0 239.0,220.0 240.0,220.0 241.0,219.0 242.0,219.0 243.0,219.0 244.0,218.0 245.0,218.0 246.0,217.0 247.0,217.0 248.0,217.0 249.0,216.0 250.0,216.0 251.0,216.0 252.0,215.0 253.0,214.0 254.0,214.0 255.0,213.0 256.0,213.0 257.0,212.0 258.0,212.0 259.0,212.0 260.0,210.0 261.0,211.0 262.0,210.0 263.0,210.0 264.0,209.0 265.0,210.0 266.0,207.0 267.0,208.0 268.0,206.0 269.0,206.0 270.0,206.0 271.0,206.0 272.0,205.0 273.0,205.0 274.0,205.0 275.0,203.0 276.0,203.0 277.0,203.0 278.0,202.0 279.0,203.0 280.0,202.0 281.0,203.0 282.0,201.0 283.0,202.0 284.0,201.0 285.0,202.0 286.0,201.0 287.0,201.0 288.0,201.0 289.0,201.0 290.0,199.0 291.0,200.0 292.0,199.0 293.0,198.0 294.0,198.0 295.0,199.0 296.0,196.0 297.0,197.0 298.0,196.0 299.0,197.0 300.0,195.0 301.0,196.0 302.0,195.0 303.0,195.0 304.0,194.0 305.0,195.0 306.0,193.0 307.0,194.0 308.0,192.0 309.0,193.0 310.0,191.0 311.0,193.0 312.0,190.0 313.0,192.0 314.0,188.0 315.0,191.0 316.0,188.0 317.0,190.0 318.0,187.0 319.0,189.0 320.0,186.0 321.0,188.0 322.0,185.0 323.0,186.0 324.0,183.0 325.0,186.0 326.0,181.0 327.0,185.0 328.0,180.0 329.0,183.0 330.0,178.0 331.0,181.0 332.0,177.0 333.0,179.0 334.0,175.0 335.0,179.0 336.0,172.0 337.0,178.0 338.0,170.0 339.0,176.0 340.0,169.0 341.0,175.0 342.0,166.0 343.0,176.0 344.0,163.0 345.0,173.0 346.0,162.0 347.0,173.0 348.0,160.0 349.0,170.0 350.0,159.0 351.0,170.0 352.0,158.0 353.0,169.0 354.0,157.0 355.0,168.0 356.0,155.0 357.0,169.0 358.0,154.0 359.0,166.0 360.0,153.0 361.0,167.0 362.0,152.0 363.0,166.0 364.0,152.0 365.0,165.0 366.0,151.0 367.0,164.0 368.0,152.0 369.0,160.0 370.0,153.0 371.0,160.0 372.0,152.0 373.0,159.0 374.0,152.0 375.0,158.0 376.0,152.0 377.0,157.0 378.0,153.0 379.0,156.0 380.0,152.0 381.0,154.0 382.0,152.0 383.0,155.0 384.0,152.0 385.0,155.0 386.0,152.0 387.0,153.0 388.0,152.0 389.0,153.0 390.0,151.0 391.0,152.0 392.0,151.0 393.0,151.0 394.0,151.0 395.0,150.0 396.0,150.0 397.0,150.0 398.0,150.0 399.0,150.0 400.0,150.0 401.0,150.0 402.0,149.0 403.0,148.0 404.0,148.0 405.0,148.0 406.0,147.0 407.0,147.0 408.0,147.0 409.0,147.0 410.0,146.0 411.0,147.0 412.0,146.0 413.0,145.0 414.0,146.0 415.0,145.0 416.0,146.0 417.0,145.0 418.0,144.0 419.0,145.0 420.0,144.0 421.0,144.0 422.0,143.0 423.0,143.0 424.0,143.0 425.0,142.0 426.0,142.0 427.0,142.0 428.0,141.0 429.0,141.0 430.0,141.0 431.0,141.0 432.0,140.0 433.0,140.0 434.0,139.0 435.0,139.0 436.0,138.0 437.0,138.0 438.0,137.0 439.0,137.0 440.0,137.0 441.0,136.0 442.0,136.0 443.0,135.0 444.0,135.0 445.0,135.0 446.0,134.0 447.0,134.0 448.0,133.0 449.0,134.0 450.0,132.0 451.0,133.0 452.0,131.0 453.0,131.0 454.0,130.0 455.0,130.0 456.0,129.0 457.0,129.0 458.0,128.0 459.0,128.0 460.0,127.0 461.0,127.0 462.0,127.0 463.0,126.0 464.0,126.0 465.0,125.0 466.0,126.0 467.0,125.0 468.0,124.0 469.0,124.0 470.0,123.0 471.0,123.0 472.0,122.0 473.0,122.0 474.0,122.0 475.0,121.0 476.0,120.0 477.0,122.0 478.0,118.0 479.0,120.0 480.0,118.0 481.0,119.0 482.0,117.0 483.0,117.0 484.0,117.0 485.0,116.0 486.0,116.0 487.0,115.0 488.0,115.0 489.0,114.0 490.0,114.0 491.0,113.0 492.0,113.0 493.0,112.0 494.0,112.0 495.0,111.0 496.0,111.0 497.0,110.0 498.0,109.0 499.0,110.0 500.0,108.0 501.0,108.0 502.0,107.0 503.0,107.0 504.0,106.0 505.0,105.0 506.0,104.0 507.0,104.0 508.0,103.0 509.0,103.0 510.0,101.0 511.0,101.0 512.0,100.0 513.0,99.0 514.0,99.0 515.0,98.0 516.0,97.0 517.0,97.0 518.0,93.0 519.0,95.0 520.0,90.0 521.0,93.0 522.0,85.0 523.0,91.0 524.0,79.0 525.0,91.0 526.0,73.0 527.0,90.0 528.0,72.0 529.0,89.0 530.0,71.0 531.0,88.0 532.0,72.0 533.0,84.0 534.0,75.0 535.0,82.0 536.0,78.0 537.0,80.0 538.0,82.0 539.0,79.0 540.0,83.0 541.0,79.0 542.0,85.0 543.0,78.0 544.0,86.0 545.0,79.0 546.0,85.0 547.0,79.0 548.0,85.0 549.0,79.0 550.0,85.0 551.0,80.0 552.0,84.0 553.0,80.0 554.0,83.0 555.0,80.0 556.0,83.0 557.0,80.0 558.0,82.0 559.0,79.0 560.0,82.0 561.0,79.0 562.0,81.0 563.0,79.0 564.0,80.0 565.0,78.0 566.0,79.0 567.0,78.0 568.0,78.0 569.0,77.0 570.0,77.0 571.0,76.0 572.0,76.0 573.0,75.0 574.0,75.0 575.0,74.0 576.0,74.0 577.0,74.0 578.0,73.0 579.0,73.0 580.0,73.0 581.0,73.0 582.0,71.0 583.0,73.0 584.0,70.0 585.0,71.0 586.0,71.0 587.0,71.0 588.0,71.0 589.0,71.0 590.0,71.0 591.0,71.0 592.0,70.0 593.0,70.0 594.0,69.0 595.0,69.0 596.0,68.0 597.0,68.0 598.0,68.0 599.0,66.0 600.0,67.0 601.0,65.0 602.0,65.0 603.0,65.0 604.0,65.0 605.0,63.0 606.0,64.0 607.0,63.0 608.0,63.0 609.0,63.0 610.0,62.0 611.0,62.0 612.0,62.0 613.0,60.0 614.0,61.0 615.0,59.0 616.0,59.0 617.0,59.0 618.0,58.0 619.0,57.0 620.0,57.0 621.0,55.0 622.0,56.0 623.0,53.0 624.0,54.0 625.0,52.0 626.0,51.0 627.0,50.0 628.0,49.0 629.0,47.0 630.0,46.0 631.0,44.0 632.0,42.0 633.0,41.0 634.0,40.0 635.0,38.0 636.0,38.0 637.0,37.0 638.0,39.0 639.0,38.0 640.0,39.0 641.0,39.0 642.0,41.0 643.0,39.0 644.0,41.0 645.0,40.0 646.0,41.0 647.0,40.0 648.0,42.0 649.0,41.0 650.0,41.0 651.0,41.0 652.0,40.0 653.0,40.0 654.0,40.0" fill="none" stroke="#00bfff" />
	<polyline points="55.0,301.0 56.0,301.0 57.0,301.0 58.0,300.0 59.0,300.0 60.0,299.0 61.0,299.0 62.0,298.0 63.0,299.0 64.0,297.0 65.0,297.0 66.0,296.0 67.0,296.0 68.0,295.0 69.0,296.0 70.0,295.0 71.0,294.0 72.0,294.0 73.0,293.0 74.0,292.0 75.0,292.0 76.0,291.0 77.0,291.0 78.0,291.0 79.0,290.0 80.0,290.0 81.0,290.0 82.0,288.0 83.0,289.0 84.0,288.0 85.0,287.0 86.0,287.0 87.0,287.0 88.0,286.0 89.0,286.0 90.0,285.0 91.0,284.0 92.0,284.0 93.0,284.0 94.0,283.0 95.0,283.0 96.0,283.0 97.0,282.0 98.0,282.0 99.0,282.0 100.0,281.0 101.0,281.0 102.0,280.0 103.0,279.0 104.0,279.0 105.0,279.0 106.0,278.0 107.0,279.0 108.0,277.0 109.0,278.0 110.0,277.0 111.0,276.0 112.0,276.0 113.0,276.0 114.0,275.0 115.0,275.0 116.0,274.0 117.0,274.0 118.0,274.0 119.0,273.0 120.0,272.0 121.0,272.0 122.0,272.0 123.0,271.0 124.0,270.0 125.0,270.0 126.0,269.0 127.0,269.0 128.0,269.0 129.0,268.0 130.0,268.0 131.0,267.0 132.0,267.0 133.0,268.0 134.0,265.0 135.0,266.0 136.0,265.0 137.0,265.0 138.0,264.0 139.0,264.0 140.0,264.0 141.0,263.0 142.0,263.0 143.0,262.0 144.0,262.0 145.0,261.0 146.0,261.0 147.0,260.0 148.0,260.0 149.0,259.0 150.0,259.0 151.0,259.0 152.0,258.0 153.0,258.0 154.0,258.0 155.0,257.0 156.0,257.0 157.0,256.0 158.0,256.0 159.0,255.0 160.0,255.0 161.0,254.0 162.0,254.0 163.0,253.0 164.0,254.0 165.0,252.0 166.0,253.0 167.0,251.0 168.0,252.0 169.0,250.0 170.0,251.0 171.0,250.0 172.0,250.0 173.0,249.0 174.0,250.0 175.0,246.0 176.0,247.0 177.0,246.0 178.0,247.0 179.0,245.0 180.0,246.0 181.0,246.0 182.0,244.0 183.0,244.0 184.0,244.0 185.0,243.0 186.0,243.0 187.0,243.0 188.0,242.0 189.0,242.0 190.0,241.0 191.0,242.0 192.0,240.0 193.0,242.0 194.0,240.0 195.0,239.0 196.0,239.0 197.0,238.0 198.0,239.0 199.0,238.0 200.0,237.0 201.0,237.0 202.0,236.0 203.0,236.0 204.0,234.0 205.0,235.0 206.0,234.0 207.0,234.0 208.0,233.0 209.0,233.0 210.0,232.0 211.0,231.0 212.0,232.0 213.0,231.0 214.0,231.0 215.0,230.0 216.0,230.0 217.0,230.0 218.0,229.0 219.0,229.0 220.0,228.0 221.0,229.0 222.0,227.0 223.0,226.0 224.0,228.0 225.0,225.0 226.0,226.0 227.0,225.0 228.0,226.0 229.0,225.0 230.0,225.0 231.0,225.0 232.0,224.0 233.0,224.0 234.0,223.0 235.0,223.0 236.0,222.0 237.0,221.0 238.0,221.0 239.0,221.0 240.0,220.0 241.0,220.0 242.0,220.0 243.0,218.0 244.0,220.0 245.0,217.0 246.0,217.0 247.0,217.0 248.0,216.0 249.0,215.0 250.0,216.0 251.0,215.0 252.0,215.0 253.0,214.0 254.0,214.0 255.0,214.0 256.0,213.0 257.0,214.0 258.0,211.0 259.0,212.0 260.0,210.0 261.0,211.0 262.0,210.0 263.0,211.0 264.0,209.0 265.0,209.0 266.0,208.0 267.0,208.0 268.0,208.0 269.0,208.0 270.0,206.0 271.0,208.0 272.0,206.0 273.0,206.0 274.0,206.0 275.0,206.0 276.0,205.0 277.0,206.0 278.0,204.0 279.0,205.0 280.0,204.0 281.0,204.0 282.0,203.0 283.0,203.0 284.0,201.0 285.0,202.0 286.0,201.0 287.0,201.0 288.0,201.0 289.0,200.0 290.0,200.0 291.0,200.0 292.0,199.0 293.0,199.0 294.0,197.0 295.0,197.0 296.0,196.0 297.0,196.0 298.0,194.0 299.0,195.0 300.0,192.0 301.0,194.0 302.0,190.0 303.0,193.0 304.0,189.0 305.0,191.0 306.0,188.0 307.0,189.0 308.0,187.0 309.0,189.0 310.0,186.0 311.0,189.0 312.0,184.0 313.0,186.0 314.0,184.0 315.0,186.0 316.0,183.0 317.0,184.0 318.0,182.0 319.0,182.0 320.0,181.0 321.0,182.0 322.0,179.0 323.0,183.0 324.0,178.0 325.0,181.0 326.0,177.0 327.0,179.0 328.0,176.0 329.0,179.0 330.0,175.0 331.0,178.0 332.0,175.0 333.0,177.0 334.0,173.0 335.0,177.0 336.0,172.0 337.0,176.0 338.0,172.0 339.0,175.0 340.0,171.0 341.0,174.0 342.0,169.0 343.0,174.0 344.0,168.0 345.0,174.0 346.0,167.0 347.0,173.0 348.0,166.0 349.0,171.0 350.0,165.0 351.0,171.0 352.0,164.0 353.0,170.0 354.0,162.0 355.0,170.0 356.0,162.0 357.0,169.0 358.0,161.0 359.0,170.0 360.0,159.0 361.0,169.0 362.0,159.0 363.0,168.0 364.0,158.0 365.0,167.0 366.0,159.0 367.0,166.0 368.0,159.0 369.0,165.0 370.0,159.0 371.0,165.0 372.0,158.0 373.0,164.0 374.0,159.0 375.0,163.0 376.0,158.0 377.0,161.0 378.0,158.0 379.0,160.0 380.0,157.0 381.0,159.0 382.0,157.0 383.0,158.0 384.0,157.0 385.0,157.0 386.0,156.0 387.0,157.0 388.0,155.0 389.0,156.0 390.0,154.0 391.0,154.0 392.0,154.0 393.0,154.0 394.0,153.0 395.0,153.0 396.0,152.0 397.0,151.0 398.0,151.0 399.0,150.0 400.0,152.0 401.0,148.0 402.0,149.0 403.0,148.0 404.0,148.0 405.0,147.0 406.0,147.0 407.0,145.0 408.0,146.0 409.0,145.0 410.0,145.0 411.0,145.0 412.0,144.0 413.0,144.0 414.0,140.0 415.0,141.0 416.0,139.0 417.0,139.0 418.0,139.0 419.0,137.0 420.0,138.0 421.0,135.0 422.0,136.0 423.0,135.0 424.0,133.0 425.0,135.0 426.0,132.0 427.0,134.0 428.0,131.0 429.0,132.0 430.0,132.0 431.0,130.0 432.0,131.0 433.0,129.0 434.0,129.0 435.0,128.0 436.0,127.0 437.0,128.0 438.0,125.0 439.0,126.0 440.0,124.0 441.0,126.0 442.0,124.0 443.0,124.0 444.0,123.0 445.0,124.0 446.0,122.0 447.0,124.0 448.0,121.0 449.0,123.0 450.0,121.0 451.0,122.0 452.0,120.0 453.0,122.0 454.0,119.0 455.0,120.0 456.0,118.0 457.0,119.0 458.0,118.0 459.0,117.0 460.0,118.0 461.0,117.0 462.0,117.0 463.0,117.0 464.0,115.0 465.0,115.0 466.0,116.0 467.0,115.0 468.0,114.0 469.0,115.0 470.0,114.0 471.0,114.0 472.0,114.0 473.0,113.0 474.0,113.0 475.0,113.0 476.0,112.0 477.0,112.0 478.0,111.0 479.0,111.0 480.0,110.0 481.0,110.0 482.0,110.0 483.0,109.0 484.0,109.0 485.0,109.0 486.0,109.0 487.0,108.0 488.0,108.0 489.0,108.0 490.0,107.0 491.0,107.0 492.0,106.0 493.0,106.0 494.0,106.0 495.0,105.0 496.0,105.0 497.0,105.0 498.0,104.0 499.0,105.0 500.0,104.0 501.0,103.0 502.0,103.0 503.0,103.0 504.0,103.0 505.0,103.0 506.0,103.0 507.0,101.0 508.0,102.0 509.0,101.0 510.0,102.0 511.0,100.0 512.0,101.0 513.0,98.0 514.0,100.0 515.0,98.0 516.0,98.0 517.0,97.0 518.0,95.0 519.0,96.0 520.0,92.0 521.0,95.0 522.0,87.0 523.0,95.0 524.0,81.0 525.0,95.0 526.0,76.0 527.0,95.0 528.0,74.0 529.0,90.0 530.0,76.0 531.0,87.0 532.0,78.0 533.0,86.0 534.0,80.0 535.0,84.0 536.0,83.0 537.0,83.0 538.0,85.0 539.0,82.0 540.0,87.0 541.0,81.0 542.0,87.0 543.0,82.0 544.0,88.0 545.0,82.0 546.0,87.0 547.0,82.0 548.0,86.0 549.0,84.0 550.0,85.0 551.0,82.0 552.0,85.0 553.0,83.0 554.0,85.0 555.0,83.0 556.0,84.0 557.0,82.0 558.0,84.0 559.0,82.0 560.0,83.0 561.0,81.0 562.0,83.0 563.0,81.0 564.0,81.0 565.0,81.0 566.0,81.0 567.0,79.0 568.0,81.0 569.0,79.0 570.0,79.0 571.0,78.0 572.0,78.0 573.0,77.0 574.0,78.0 575.0,77.0 576.0,76.0 577.0,76.0 578.0,75.0 579.0,75.0 580.0,75.0 581.0,74.0 582.0,74.0 583.0,73.0 584.0,72.0 585.0,74.0 586.0,68.0 587.0,70.0 588.0,69.0 589.0,70.0 590.0,67.0 591.0,68.0 592.0,67.0 593.0,67.0 594.0,67.0 595.0,67.0 596.0,67.0 597.0,66.0 598.0,66.0 599.0,65.0 600.0,65.0 601.0,64.0 602.0,64.0 603.0,63.0 604.0,62.0 605.0,62.0 606.0,61.0 607.0,61.0 608.0,59.0 609.0,59.0 610.0,58.0 611.0,58.0 612.0,56.0 613.0,57.0 614.0,56.0 615.0,55.0 616.0,56.0 617.0,54.0 618.0,54.0 619.0,52.0 620.0,54.0 621.0,52.0 622.0,52.0 623.0,50.0 624.0,50.0 625.0,49.0 626.0,49.0 627.0,48.0 628.0,47.0 629.0,45.0 630.0,44.0 631.0,43.0 632.0,41.0 633.0,40.0 634.0,38.0 635.0,37.0 636.0,39.0 637.0,36.0 638.0,39.0 639.0,37.0 640.0,39.0 641.0,38.0 642.0,39.0 643.0,39.0 644.0,40.0 645.0,39.0 646.0,40.0 647.0,40.0 648.0,41.0 649.0,40.0 650.0,41.0 651.0,41.0 652.0,41.0 653.0,41.0 654.0,40.0" fill="none" stroke="#4876ff" />
	<polyline points="55.0,286.0 56.0,286.0 57.0,285.0 58.0,285.0 59.0,285.0 60.0,284.0 61.0,284.0 62.0,283.0 63.0,283.0 64.0,282.0 65.0,282.0 66.0,281.0 67.0,281.0 68.0,281.0 69.0,280.0 70.0,280.0 71.0,279.0 72.0,279.0 73.0,278.0 74.0,278.0 75.0,277.0 76.0,277.0 77.0,277.0 78.0,276.0 79.0,276.0 80.0,275.0 81.0,275.0 82.0,274.0 83.0,275.0 84.0,274.0 85.0,273.0 86.0,273.0 87.0,272.0 88.0,272.0 89.0,272.0 90.0,271.0 91.0,271.0 92.0,270.0 93.0,270.0 94.0,269.0 95.0,269.0 96.0,269.0 97.0,268.0 98.0,268.0 99.0,267.0 100.0,267.0 101.0,266.0 102.0,266.0 103.0,266.0 104.0,264.0 105.0,265.0 106.0,263.0 107.0,264.0 108.0,263.0 109.0,263.0 110.0,262.0 111.0,262.0 112.0,261.0 113.0,261.0 114.0,261.0 115.0,260.0 116.0,260.0 117.0,259.0 118.0,259.0 119.0,258.0 120.0,259.0 121.0,257.0 122.0,257.0 123.0,257.0 124.0,256.0 125.0,256.0 126.0,255.0 127.0,255.0 128.0,255.0 129.0,253.0 130.0,254.0 131.0,253.0 132.0,252.0 133.0,252.0 134.0,252.0 135.0,251.0 136.0,251.0 137.0,250.0 138.0,251.0 139.0,249.0 140.0,250.0 141.0,248.0 142.0,249.0 143.0,248.0 144.0,248.0 145.0,247.0 146.0,247.0 147.0,246.0 148.0,246.0 149.0,245.0 150.0,245.0 151.0,244.0 152.0,245.0 153.0,243.0 154.0,244.0 155.0,242.0 156.0,243.0 157.0,241.0 158.0,243.0 159.0,241.0 160.0,241.0 161.0,240.0 162.0,241.0 163.0,239.0 164.0,240.0 165.0,238.0 166.0,239.0 167.0,237.0 168.0,238.0 169.0,237.0 170.0,237.0 171.0,236.0 172.0,236.0 173.0,235.0 174.0,234.0 175.0,235.0 176.0,234.0 177.0,234.0 178.0,233.0 179.0,233.0 180.0,232.0 181.0,232.0 182.0,231.0 183.0,231.0 184.0,230.0 185.0,230.0 186.0,230.0 187.0,229.0 188.0,228.0 189.0,229.0 190.0,228.0 191.0,228.0 192.0,227.0 193.0,227.0 194.0,226.0 195.0,226.0 196.0,225.0 197.0,225.0 198.0,224.0 199.0,224.0 200.0,223.0 201.0,223.0 202.0,223.0 203.0,222.0 204.0,222.0 205.0,221.0 206.0,221.0 207.0,220.0 208.0,221.0 209.0,219.0 210.0,219.0 211.0,218.0 212.0,219.0 213.0,217.0 214.0,218.0 215.0,216.0 216.0,217.0 217.0,216.0 218.0,216.0 219.0,215.0 220.0,215.0 221.0,214.0 222.0,214.0 223.0,213.0 224.0,213.0 225.0,212.0 226.0,213.0 227.0,211.0 228.0,211.0 229.0,211.0 230.0,210.0 231.0,211.0 232.0,209.0 233.0,210.0 234.0,208.0 235.0,209.0 236.0,208.0 237.0,207.0 238.0,207.0 239.0,206.0 240.0,206.0 241.0,206.0 242.0,205.0 243.0,205.0 244.0,205.0 245.0,204.0 246.0,204.0 247.0,203.0 248.0,203.0 249.0,202.0 250.0,203.0 251.0,200.0 252.0,202.0 253.0,200.0 254.0,201.0 255.0,199.0 256.0,200.0 257.0,199.0 258.0,199.0 259.0,197.0 260.0,198.0 261.0,197.0 262.0,197.0 263.0,196.0 264.0,196.0 265.0,195.0 266.0,195.0 267.0,194.0 268.0,194.0 269.0,194.0 270.0,193.0 271.0,193.0 272.0,192.0 273.0,191.0 274.0,191.0 275.0,192.0 276.0,190.0 277.0,190.0 278.0,189.0 279.0,189.0 280.0,188.0 281.0,189.0 282.0,187.0 283.0,188.0 284.0,186.0 285.0,187.0 286.0,185.0 287.0,186.0 288.0,185.0 289.0,185.0 290.0,183.0 291.0,184.0 292.0,182.0 293.0,184.0 294.0,181.0 295.0,183.0 296.0,179.0 297.0,182.0 298.0,179.0 299.0,181.0 300.0,179.0 301.0,180.0 302.0,178.0 303.0,179.0 304.0,177.0 305.0,178.0 306.0,175.0 307.0,178.0 308.0,175.0 309.0,177.0 310.0,175.0 311.0,175.0 312.0,174.0 313.0,175.0 314.0,173.0 315.0,174.0 316.0,172.0 317.0,173.0 318.0,171.0 319.0,173.0 320.0,169.0 321.0,173.0 322.0,168.0 323.0,172.0 324.0,167.0 325.0,170.0 326.0,168.0 327.0,169.0 328.0,166.0 329.0,168.0 330.0,166.0 331.0,167.0 332.0,165.0 333.0,167.0 334.0,163.0 335.0,166.0 336.0,162.0 337.0,166.0 338.0,160.0 339.0,165.0 340.0,159.0 341.0,164.0 342.0,158.0 343.0,164.0 344.0,157.0 345.0,162.0 346.0,156.0 347.0,162.0 348.0,155.0 349.0,161.0 350.0,154.0 351.0,160.0 352.0,152.0 353.0,159.0 354.0,151.0 355.0,158.0 356.0,151.0 357.0,158.0 358.0,149.0 359.0,158.0 360.0,148.0 361.0,158.0 362.0,147.0 363.0,158.0 364.0,146.0 365.0,154.0 366.0,146.0 367.0,154.0 368.0,145.0 369.0,154.0 370.0,144.0 371.0,151.0 372.0,145.0 373.0,150.0 374.0,145.0 375.0,147.0 376.0,145.0 377.0,147.0 378.0,145.0 379.0,146.0 380.0,144.0 381.0,145.0 382.0,144.0 383.0,143.0 384.0,144.0 385.0,142.0 386.0,144.0 387.0,140.0 388.0,144.0 389.0,139.0 390.0,142.0 391.0,139.0 392.0,141.0 393.0,138.0 394.0,140.0 395.0,137.0 396.0,140.0 397.0,136.0 398.0,140.0 399.0,135.0 400.0,139.0 401.0,134.0 402.0,138.0 403.0,133.0 404.0,138.0 405.0,131.0 406.0,137.0 407.0,131.0 408.0,136.0 409.0,130.0 410.0,135.0 411.0,129.0 412.0,134.0 413.0,128.0 414.0,132.0 415.0,128.0 416.0,131.0 417.0,127.0 418.0,130.0 419.0,126.0 420.0,129.0 421.0,126.0 422.0,127.0 423.0,126.0 424.0,126.0 425.0,124.0 426.0,126.0 427.0,123.0 428.0,126.0 429.0,121.0 430.0,126.0 431.0,120.0 432.0,125.0 433.0,120.0 434.0,124.0 435.0,119.0 436.0,123.0 437.0,118.0 438.0,123.0 439.0,116.0 440.0,122.0 441.0,115.0 442.0,121.0 443.0,114.0 444.0,119.0 445.0,114.0 446.0,118.0 447.0,114.0 448.0,117.0 449.0,113.0 450.0,114.0 451.0,112.0 452.0,114.0 453.0,110.0 454.0,114.0 455.0,109.0 456.0,114.0 457.0,108.0 458.0,114.0 459.0,107.0 460.0,113.0 461.0,106.0 462.0,112.0 463.0,106.0 464.0,111.0 465.0,105.0 466.0,109.0 467.0,105.0 468.0,108.0 469.0,104.0 470.0,107.0 471.0,104.0 472.0,106.0 473.0,103.0 474.0,105.0 475.0,103.0 476.0,104.0 477.0,102.0 478.0,103.0 479.0,101.0 480.0,103.0 481.0,100.0 482.0,103.0 483.0,98.0 484.0,102.0 485.0,97.0 486.0,101.0 487.0,96.0 488.0,101.0 489.0,95.0 490.0,100.0 491.0,95.0 492.0,99.0 493.0,94.0 494.0,98.0 495.0,92.0 496.0,97.0 497.0,91.0 498.0,98.0 499.0,89.0 500.0,100.0 501.0,87.0 502.0,102.0 503.0,86.0 504.0,103.0 505.0,84.0 506.0,102.0 507.0,83.0 508.0,116.0 509.0,80.0" fill="none" stroke="#aeeeee" />
	<polyline points="513.0,81.0 508.0,76.0" fill="none" stroke="#aeeeee" />
	<polyline points="513.0,77.0 508.0,82.0" fill="none" stroke="#aeeeee" />
	<polyline points="515.0,79.0 510.0,74.0" fill="none" stroke="#aeeeee" />
	<polyline points="515.0,75.0 510.0,80.0" fill="none" stroke="#aeeeee" />
	<polyline points="517.0,77.0 512.0,72.0" fill="none" stroke="#aeeeee" />
	<polyline points="517.0,73.0 512.0,78.0" fill="none" stroke="#aeeeee" />
	<polyline points="519.0,74.0 514.0,69.0" fill="none" stroke="#aeeeee" />
	<polyline points="519.0,70.0 514.0,75.0" fill="none" stroke="#aeeeee" />
	<polyline points="519.0,70.0 520.0,116.0 521.0,68.0 522.0,85.0 523.0,68.0 524.0,73.0 525.0,71.0 526.0,65.0 527.0,77.0 528.0,60.0 529.0,80.0 530.0,59.0 531.0,77.0 532.0,59.0 533.0,73.0 534.0,60.0 535.0,71.0 536.0,62.0 537.0,70.0 538.0,64.0 539.0,69.0 540.0,65.0 541.0,68.0 542.0,66.0 543.0,68.0 544.0,66.0 545.0,68.0 546.0,66.0 547.0,68.0 548.0,66.0 549.0,69.0 550.0,66.0 551.0,68.0 552.0,67.0 553.0,68.0 554.0,67.0 555.0,67.0 556.0,67.0 557.0,67.0 558.0,66.0 559.0,67.0 560.0,65.0 561.0,66.0 562.0,65.0 563.0,66.0 564.0,64.0 565.0,65.0 566.0,63.0 567.0,65.0 568.0,62.0 569.0,64.0 570.0,62.0 571.0,63.0 572.0,61.0 573.0,62.0 574.0,60.0 575.0,61.0 576.0,59.0 577.0,60.0 578.0,58.0 579.0,59.0 580.0,58.0 581.0,58.0 582.0,57.0 583.0,57.0 584.0,56.0 585.0,56.0 586.0,55.0 587.0,55.0 588.0,54.0 589.0,55.0 590.0,53.0 591.0,54.0 592.0,53.0 593.0,53.0 594.0,52.0 595.0,53.0 596.0,50.0 597.0,52.0 598.0,49.0 599.0,51.0 600.0,48.0 601.0,50.0 602.0,48.0 603.0,49.0 604.0,47.0 605.0,48.0 606.0,45.0 607.0,49.0 608.0,44.0 609.0,49.0 610.0,43.0 611.0,48.0 612.0,41.0 613.0,49.0 614.0,39.0 615.0,49.0 616.0,37.0 617.0,53.0 618.0,35.0 619.0,60.0 620.0,33.0" fill="none" stroke="#aeeeee" />
	<polyline points="624.0,32.0 619.0,27.0" fill="none" stroke="#aeeeee" />
	<polyline points="624.0,28.0 619.0,33.0" fill="none" stroke="#aeeeee" />
	<polyline points="626.0,29.0 621.0,24.0" fill="none" stroke="#aeeeee" />
	<polyline points="626.0,25.0 621.0,30.0" fill="none" stroke="#aeeeee" />
	<polyline points="628.0,26.0 623.0,21.0" fill="none" stroke="#aeeeee" />
	<polyline points="628.0,22.0 623.0,27.0" fill="none" stroke="#aeeeee" />
	<polyline points="630.0,22.0 625.0,17.0" fill="none" stroke="#aeeeee" />
	<polyline points="630.0,18.0 625.0,23.0" fill="none" stroke="#aeeeee" />
	<polyline points="632.0,18.0 627.0,13.0" fill="none" stroke="#aeeeee" />
	<polyline points="632.0,14.0 627.0,19.0" fill="none" stroke="#aeeeee" />
	<polyline points="634.0,16.0 629.0,11.0" fill="none" stroke="#aeeeee" />
	<polyline points="634.0,12.0 629.0,17.0" fill="none" stroke="#aeeeee" />
	<polyline points="634.0,14.0 635.0,39.0 636.0,17.0 637.0,30.0 638.0,21.0 639.0,27.0 640.0,23.0 641.0,26.0 642.0,25.0 643.0,26.0 644.0,25.0 645.0,27.0 646.0,25.0 647.0,26.0 648.0,25.0 649.0,26.0 650.0,26.0 651.0,26.0 652.0,25.0 653.0,26.0 654.0,25.0" fill="none" stroke="#aeeeee" />
	<polyline points="55.0,290.0 56.0,291.0 57.0,290.0 58.0,289.0 59.0,290.0 60.0,289.0 61.0,289.0 62.0,288.0 63.0,288.0 64.0,288.0 65.0,288.0 66.0,287.0 67.0,288.0 68.0,288.0 69.0,287.0 70.0,288.0 71.0,287.0 72.0,288.0 73.0,288.0 74.0,287.0 75.0,288.0 76.0,287.0 77.0,288.0 78.0,288.0 79.0,287.0 80.0,287.0 81.0,288.0 82.0,287.0 83.0,288.0 84.0,287.0 85.0,286.0 86.0,287.0 87.0,285.0 88.0,286.0 89.0,284.0 90.0,284.0 91.0,284.0 92.0,283.0 93.0,283.0 94.0,283.0 95.0,283.0 96.0,282.0 97.0,282.0 98.0,281.0 99.0,281.0 100.0,281.0 101.0,279.0 102.0,280.0 103.0,278.0 104.0,278.0 105.0,278.0 106.0,277.0 107.0,277.0 108.0,275.0 109.0,276.0 110.0,275.0 111.0,274.0 112.0,274.0 113.0,273.0 114.0,272.0 115.0,271.0 116.0,272.0 117.0,271.0 118.0,271.0 119.0,271.0 120.0,270.0 121.0,271.0 122.0,270.0 123.0,270.0 124.0,270.0 125.0,270.0 126.0,270.0 127.0,269.0 128.0,270.0 129.0,269.0 130.0,269.0 131.0,269.0 132.0,268.0 133.0,268.0 134.0,267.0 135.0,267.0 136.0,267.0 137.0,266.0 138.0,266.0 139.0,265.0 140.0,265.0 141.0,265.0 142.0,265.0 143.0,264.0 144.0,264.0 145.0,263.0 146.0,263.0 147.0,262.0 148.0,262.0 149.0,261.0 150.0,261.0 151.0,261.0 152.0,260.0 153.0,260.0 154.0,260.0 155.0,259.0 156.0,258.0 157.0,258.0 158.0,258.0 159.0,257.0 160.0,256.0 161.0,256.0 162.0,256.0 163.0,254.0 164.0,255.0 165.0,254.0 166.0,254.0 167.0,252.0 168.0,253.0 169.0,252.0 170.0,251.0 171.0,251.0 172.0,251.0 173.0,249.0 174.0,249.0 175.0,248.0 176.0,249.0 177.0,247.0 178.0,247.0 179.0,247.0 180.0,246.0 181.0,245.0 182.0,244.0 183.0,244.0 184.0,243.0 185.0,243.0 186.0,242.0 187.0,242.0 188.0,241.0 189.0,241.0 190.0,241.0 191.0,240.0 192.0,239.0 193.0,239.0 194.0,238.0 195.0,238.0 196.0,237.0 197.0,237.0 198.0,236.0 199.0,235.0 200.0,235.0 201.0,233.0 202.0,234.0 203.0,233.0 204.0,233.0 205.0,232.0 206.0,232.0 207.0,230.0 208.0,230.0 209.0,229.0 210.0,228.0 211.0,228.0 212.0,227.0 213.0,226.0 214.0,226.0 215.0,225.0 216.0,225.0 217.0,224.0 218.0,224.0 219.0,223.0 220.0,223.0 221.0,222.0 222.0,222.0 223.0,222.0 224.0,222.0 225.0,222.0 226.0,221.0 227.0,221.0 228.0,221.0 229.0,220.0 230.0,220.0 231.0,220.0 232.0,220.0 233.0,219.0 234.0,219.0 235.0,218.0 236.0,218.0 237.0,217.0 238.0,217.0 239.0,217.0 240.0,217.0 241.0,215.0 242.0,217.0 243.0,214.0 244.0,215.0 245.0,214.0 246.0,213.0 247.0,213.0 248.0,212.0 249.0,211.0 250.0,212.0 251.0,210.0 252.0,211.0 253.0,209.0 254.0,210.0 255.0,208.0 256.0,209.0 257.0,207.0 258.0,208.0 259.0,207.0 260.0,206.0 261.0,207.0 262.0,205.0 263.0,206.0 264.0,204.0 265.0,205.0 266.0,204.0 267.0,203.0 268.0,203.0 269.0,203.0 270.0,202.0 271.0,202.0 272.0,200.0 273.0,201.0 274.0,199.0 275.0,200.0 276.0,199.0 277.0,199.0 278.0,198.0 279.0,199.0 280.0,197.0 281.0,199.0 282.0,197.0 283.0,198.0 284.0,197.0 285.0,199.0 286.0,199.0 287.0,199.0 288.0,198.0 289.0,199.0 290.0,198.0 291.0,199.0 292.0,198.0 293.0,198.0 294.0,197.0 295.0,198.0 296.0,197.0 297.0,198.0 298.0,196.0 299.0,197.0 300.0,196.0 301.0,196.0 302.0,195.0 303.0,196.0 304.0,194.0 305.0,195.0 306.0,193.0 307.0,194.0 308.0,192.0 309.0,193.0 310.0,191.0 311.0,192.0 312.0,190.0 313.0,191.0 314.0,189.0 315.0,190.0 316.0,188.0 317.0,190.0 318.0,188.0 319.0,188.0 320.0,187.0 321.0,188.0 322.0,185.0 323.0,187.0 324.0,184.0 325.0,186.0 326.0,183.0 327.0,185.0 328.0,182.0 329.0,184.0 330.0,181.0 331.0,183.0 332.0,180.0 333.0,182.0 334.0,179.0 335.0,181.0 336.0,177.0 337.0,180.0 338.0,175.0 339.0,180.0 340.0,173.0 341.0,179.0 342.0,171.0 343.0,178.0 344.0,170.0 345.0,178.0 346.0,169.0 347.0,177.0 348.0,168.0 349.0,177.0 350.0,166.0 351.0,176.0 352.0,166.0 353.0,176.0 354.0,164.0 355.0,176.0 356.0,163.0 357.0,175.0 358.0,163.0 359.0,174.0 360.0,162.0 361.0,172.0 362.0,161.0 363.0,171.0 364.0,160.0 365.0,170.0 366.0,159.0 367.0,169.0 368.0,158.0 369.0,168.0 370.0,158.0 371.0,166.0 372.0,157.0 373.0,164.0 374.0,157.0 375.0,163.0 376.0,156.0 377.0,160.0 378.0,156.0 379.0,159.0 380.0,156.0 381.0,159.0 382.0,154.0 383.0,157.0 384.0,154.0 385.0,155.0 386.0,153.0 387.0,154.0 388.0,152.0 389.0,153.0 390.0,152.0 391.0,152.0 392.0,152.0 393.0,151.0 394.0,150.0 395.0,151.0 396.0,150.0 397.0,150.0 398.0,149.0 399.0,148.0 400.0,148.0 401.0,147.0 402.0,147.0 403.0,147.0 404.0,147.0 405.0,147.0 406.0,146.0 407.0,146.0 408.0,145.0 409.0,144.0 410.0,144.0 411.0,144.0 412.0,144.0 413.0,143.0 414.0,144.0 415.0,143.0 416.0,145.0 417.0,143.0 418.0,143.0 419.0,143.0 420.0,142.0 421.0,143.0 422.0,142.0 423.0,143.0 424.0,141.0 425.0,142.0 426.0,141.0 427.0,141.0 428.0,140.0 429.0,140.0 430.0,140.0 431.0,139.0 432.0,139.0 433.0,138.0 434.0,138.0 435.0,138.0 436.0,137.0 437.0,137.0 438.0,136.0 439.0,136.0 440.0,136.0 441.0,136.0 442.0,135.0 443.0,135.0 444.0,134.0 445.0,134.0 446.0,133.0 447.0,133.0 448.0,132.0 449.0,133.0 450.0,131.0 451.0,132.0 452.0,130.0 453.0,131.0 454.0,129.0 455.0,129.0 456.0,128.0 457.0,129.0 458.0,128.0 459.0,127.0 460.0,127.0 461.0,127.0 462.0,127.0 463.0,126.0 464.0,126.0 465.0,125.0 466.0,125.0 467.0,124.0 468.0,125.0 469.0,122.0 470.0,123.0 471.0,122.0 472.0,122.0 473.0,121.0 474.0,121.0 475.0,121.0 476.0,121.0 477.0,120.0 478.0,120.0 479.0,120.0 480.0,119.0 481.0,119.0 482.0,118.0 483.0,118.0 484.0,117.0 485.0,117.0 486.0,115.0 487.0,116.0 488.0,114.0 489.0,115.0 490.0,114.0 491.0,114.0 492.0,113.0 493.0,112.0 494.0,112.0 495.0,112.0 496.0,111.0 497.0,110.0 498.0,110.0 499.0,110.0 500.0,108.0 501.0,109.0 502.0,107.0 503.0,107.0 504.0,106.0 505.0,106.0 506.0,107.0 507.0,104.0 508.0,105.0 509.0,104.0 510.0,104.0 511.0,103.0 512.0,103.0 513.0,102.0 514.0,101.0 515.0,101.0 516.0,99.0 517.0,100.0 518.0,97.0 519.0,99.0 520.0,93.0 521.0,97.0 522.0,88.0 523.0,95.0 524.0,83.0 525.0,96.0 526.0,76.0 527.0,97.0 528.0,73.0 529.0,94.0 530.0,73.0 531.0,90.0 532.0,74.0 533.0,86.0 534.0,77.0 535.0,83.0 536.0,79.0 537.0,82.0 538.0,80.0 539.0,80.0 540.0,82.0 541.0,80.0 542.0,83.0 543.0,80.0 544.0,84.0 545.0,80.0 546.0,85.0 547.0,80.0 548.0,84.0 549.0,81.0 550.0,84.0 551.0,81.0 552.0,83.0 553.0,81.0 554.0,82.0 555.0,81.0 556.0,81.0 557.0,81.0 558.0,81.0 559.0,80.0 560.0,81.0 561.0,79.0 562.0,80.0 563.0,78.0 564.0,79.0 565.0,77.0 566.0,78.0 567.0,77.0 568.0,77.0 569.0,76.0 570.0,76.0 571.0,76.0 572.0,75.0 573.0,74.0 574.0,74.0 575.0,74.0 576.0,73.0 577.0,74.0 578.0,72.0 579.0,73.0 580.0,72.0 581.0,72.0 582.0,71.0 583.0,70.0 584.0,72.0 585.0,67.0 586.0,69.0 587.0,67.0 588.0,68.0 589.0,67.0 590.0,67.0 591.0,66.0 592.0,66.0 593.0,67.0 594.0,63.0 595.0,62.0 596.0,64.0 597.0,63.0 598.0,62.0 599.0,62.0 600.0,62.0 601.0,61.0 602.0,62.0 603.0,59.0 604.0,60.0 605.0,60.0 606.0,60.0 607.0,58.0 608.0,60.0 609.0,59.0 610.0,58.0 611.0,59.0 612.0,58.0 613.0,57.0 614.0,57.0 615.0,56.0 616.0,56.0 617.0,56.0 618.0,56.0 619.0,56.0 620.0,56.0 621.0,54.0 622.0,55.0 623.0,54.0 624.0,54.0 625.0,52.0 626.0,52.0 627.0,51.0 628.0,51.0 629.0,49.0 630.0,49.0 631.0,47.0 632.0,46.0 633.0,44.0 634.0,43.0 635.0,42.0 636.0,42.0 637.0,41.0 638.0,42.0 639.0,41.0 640.0,42.0 641.0,41.0 642.0,43.0 643.0,42.0 644.0,44.0 645.0,42.0 646.0,43.0 647.0,42.0 648.0,42.0 649.0,42.0 650.0,41.0 651.0,43.0 652.0,41.0 653.0,43.0 654.0,41.0" fill="none" stroke="#00ffff" />
	<polyline points="55.0,5.0 655.0,5.0" fill="none" stroke="#6d6d6d" />
	<polyline points="55.0,305.0 655.0,305.0" fill="none" stroke="#6d6d6d" />
	<polyline points="55.0,305.0 55.0,310.0" fill="none" stroke="#6d6d6d" />
	<polyline points="205.0,305.0 205.0,310.0" fill="none" stroke="#6d6d6d" />
	<polyline points="355.0,305.0 355.0,310.0" fill="none" stroke="#6d6d6d" />
	<polyline points="505.0,305.0 505.0,310.0" fill="none" stroke="#6d6d6d" />
	<polyline points="655.0,305.0 655.0,310.0" fill="none" stroke="#6d6d6d" />
	<polyline points="55.0,5.0 55.0,305.0" fill="none" stroke="#6d6d6d" />
	<polyline points="655.0,5.0 655.0,305.0" fill="none" stroke="#6d6d6d" />
	<polyline points="50.0,5.0 55.0,5.0" fill="none" stroke="#6d6d6d" />
	<polyline points="50.0,80.0 55.0,80.0" fill="none" stroke="#6d6d6d" />
	<polyline points="50.0,155.0 55.0,155.0" fill="none" stroke="#6d6d6d" />
	<polyline points="50.0,230.0 55.0,230.0" fill="none" stroke="#6d6d6d" />
	<polyline points="50.0,305.0 55.0,305.0" fill="none" stroke="#6d6d6d" />
	<text x="55.0" y="323.0" fill="#6d6d6d" font-family="Arial" font-size="9pt" text-anchor="middle">1</text>
	<text x="205.0" y="323.0" fill="#6d6d6d" font-family="Arial" font-size="9pt" text-anchor="middle">150</text>
	<text x="355.0" y="323.0" fill="#6d6d6d" font-family="Arial" font-size="9pt" text-anchor="middle">300</text>
	<text x="505.0" y="323.0" fill="#6d6d6d" font-family="Arial" font-size="9pt" text-anchor="middle">450</text>
	<text x="655.0" y="323.0" fill="#6d6d6d" font-family="Arial" font-size="9pt" text-anchor="middle">600</text>
	<text x="45.0" y="9.0" fill="#6d6d6d" font-family="Arial" font-size="9pt" text-anchor="end">69.2</text>
	<text x="45.0" y="84.0" fill="#6d6d6d" font-family="Arial" font-size="9pt" text-anchor="end">60.7</text>
	<text x="45.0" y="159.0" fill="#6d6d6d" font-family="Arial" font-size="9pt" text-anchor="end">52.2</text>
	<text x="45.0" y="234.0" fill="#6d6d6d" font-family="Arial" font-size="9pt" text-anchor="end">43.8</text>
	<text x="45.0" y="309.0" fill="#6d6d6d" font-family="Arial" font-size="9pt" text-anchor="end">35.3</text>
</svg>
