<?xml version="1.0" encoding="UTF-8" standalone="no"?>
<!DOCTYPE svg PUBLIC "-//W3C//DTD SVG 1.1//EN" "http://www.w3.org/Graphics/SVG/1.1/DTD/svg11.dtd">
<svg xmlns="http://www.w3.org/2000/svg"  version="1.1" width="693.0" height="380.0" viewBox="-6.0 -12.0 687.0 368.0">
	<desc>LSD Plot - Sim_10c_teste1</desc>
	<polyline points="205.0,6.0 205.0,304.0" fill="none" stroke="#f0f0f0" />
	<polyline points="355.0,6.0 355.0,304.0" fill="none" stroke="#f0f0f0" />
	<polyline points="505.0,6.0 505.0,304.0" fill="none" stroke="#f0f0f0" />
	<polyline points="56.0,80.0 654.0,80.0" fill="none" stroke="#f0f0f0" />
	<polyline points="56.0,155.0 654.0,155.0" fill="none" stroke="#f0f0f0" />
	<polyline points="56.0,230.0 654.0,230.0" fill="none" stroke="#f0f0f0" />
	<text x="5.0" y="345.0" font-family="Arial" font-size="9pt">EXP_1</text>
	<text x="47.0" y="345.0" fill="#ff0000" font-family="Arial" font-size="9pt">EXP_2</text>
	<text x="89.0" y="345.0" fill="#008000" font-family="Arial" font-size="9pt">EXP_3</text>
	<text x="131.0" y="345.0" fill="#d0d000" font-family="Arial" font-size="9pt">EXP_4</text>
	<text x="173.0" y="345.0" fill="#fb46bc" font-family="Arial" font-size="9pt">EXP_5</text>
	<text x="215.0" y="345.0" fill="#0000ff" font-family="Arial" font-size="9pt">EXP_6</text>
	<text x="257.0" y="345.0" fill="#00bfff" font-family="Arial" font-size="9pt">EXP_7</text>
	<text x="299.0" y="345.0" fill="#4876ff" font-family="Arial" font-size="9pt">EXP_8</text>
	<text x="341.0" y="345.0" fill="#aeeeee" font-family="Arial" font-size="9pt">EXP_9</text>
	<text x="383.0" y="345.0" fill="#00ffff" font-family="Arial" font-size="9pt">EXP_10</text>
	<polyline points="55.0,294.0 56.0,293.0 57.0,292.0 58.0,291.0 59.0,290.0 60.0,289.0 61.0,288.0 62.0,288.0 63.0,286.0 64.0,285.0 65.0,284.0 66.0,283.0 67.0,282.0 68.0,282.0 69.0,280.0 70.0,280.0 71.0,279.0 72.0,279.0 73.0,278.0 74.0,278.0 75.0,277.0 76.0,277.0 77.0,275.0 78.0,276.0 79.0,274.0 80.0,274.0 81.0,274.0 82.0,273.0 83.0,273.0 84.0,272.0 85.0,272.0 86.0,272.0 87.0,272.0 88.0,271.0 89.0,270.0 90.0,270.0 91.0,270.0 92.0,270.0 93.0,269.0 94.0,268.0 95.0,268.0 96.0,267.0 97.0,267.0 98.0,267.0 99.0,266.0 100.0,266.0 101.0,265.0 102.0,265.0 103.0,264.0 104.0,265.0 105.0,263.0 106.0,264.0 107.0,264.0 108.0,262.0 109.0,263.0 110.0,263.0 111.0,262.0 112.0,262.0 113.0,261.0 114.0,261.0 115.0,262.0 116.0,261.0 117.0,262.0 118.0,261.0 119.0,262.0 120.0,261.0 121.0,262.0 122.0,261.0 123.0,262.0 124.0,263.0 125.0,263.0 126.0,265.0 127.0,265.0 128.0,265.0 129.0,267.0 130.0,267.0 131.0,268.0 132.0,268.0 133.0,268.0 134.0,268.0 135.0,269.0 136.0,269.0 137.0,269.0 138.0,269.0 139.0,269.0 140.0,268.0 141.0,269.0 142.0,269.0 143.0,269.0 144.0,268.0 145.0,268.0 146.0,267.0 147.0,267.0 148.0,267.0 149.0,267.0 150.0,266.0 151.0,266.0 152.0,265.0 153.0,265.0 154.0,264.0 155.0,264.0 156.0,263.0 157.0,263.0 158.0,262.0 159.0,262.0 160.0,261.0 161.0,261.0 162.0,259.0 163.0,260.0 164.0,258.0 165.0,258.0 166.0,256.0 167.0,257.0 168.0,256.0 169.0,255.0 170.0,254.0 171.0,253.0 172.0,252.0 173.0,251.0 174.0,251.0 175.0,249.0 176.0,248.0 177.0,248.0 178.0,247.0 179.0,246.0 180.0,244.0 181.0,244.0 182.0,243.0 183.0,241.0 184.0,242.0 185.0,240.0 186.0,241.0 187.0,239.0 188.0,239.0 189.0,239.0 190.0,238.0 191.0,237.0 192.0,238.0 193.0,235.0 194.0,234.0 195.0,234.0 196.0,234.0 197.0,232.0 198.0,233.0 199.0,233.0 200.0,231.0 201.0,232.0 202.0,230.0 203.0,230.0 204.0,229.0 205.0,228.0 206.0,227.0 207.0,227.0 208.0,226.0 209.0,228.0 210.0,224.0 211.0,226.0 212.0,225.0 213.0,226.0 214.0,224.0 215.0,224.0 216.0,223.0 217.0,223.0 218.0,222.0 219.0,222.0 220.0,221.0 221.0,221.0 222.0,220.0 223.0,220.0 224.0,219.0 225.0,219.0 226.0,218.0 227.0,217.0 228.0,217.0 229.0,216.0 230.0,216.0 231.0,215.0 232.0,214.0 233.0,214.0 234.0,214.0 235.0,214.0 236.0,213.0 237.0,213.0 238.0,211.0 239.0,212.0 240.0,211.0 241.0,211.0 242.0,210.0 243.0,210.0 244.0,210.0 245.0,209.0 246.0,209.0 247.0,209.0 248.0,209.0 249.0,208.0 250.0,207.0 251.0,208.0 252.0,207.0 253.0,207.0 254.0,207.0 255.0,206.0 256.0,206.0 257.0,205.0 258.0,205.0 259.0,205.0 260.0,205.0 261.0,204.0 262.0,204.0 263.0,203.0 264.0,203.0 265.0,203.0 266.0,203.0 267.0,202.0 268.0,202.0 269.0,201.0 270.0,201.0 271.0,201.0 272.0,200.0 273.0,201.0 274.0,200.0 275.0,199.0 276.0,200.0 277.0,200.0 278.0,200.0 279.0,199.0 280.0,199.0 281.0,199.0 282.0,200.0 283.0,201.0 284.0,200.0 285.0,201.0 286.0,202.0 287.0,202.0 288.0,204.0 289.0,202.0 290.0,203.0 291.0,202.0 292.0,204.0 293.0,203.0 294.0,203.0 295.0,201.0 296.0,203.0 297.0,201.0 298.0,203.0 299.0,200.0 300.0,202.0 301.0,200.0 302.0,201.0 303.0,199.0 304.0,200.0 305.0,198.0 306.0,200.0 307.0,196.0 308.0,199.0 309.0,196.0 310.0,198.0 311.0,195.0 312.0,196.0 313.0,194.0 314.0,196.0 315.0,193.0 316.0,195.0 317.0,192.0 318.0,194.0 319.0,191.0 320.0,193.0 321.0,190.0 322.0,192.0 323.0,189.0 324.0,190.0 325.0,187.0 326.0,189.0 327.0,186.0 328.0,187.0 329.0,184.0 330.0,185.0 331.0,183.0 332.0,185.0 333.0,181.0 334.0,184.0 335.0,179.0 336.0,183.0 337.0,178.0 338.0,182.0 339.0,175.0 340.0,179.0 341.0,174.0 342.0,179.0 343.0,173.0 344.0,178.0 345.0,170.0 346.0,176.0 347.0,169.0 348.0,176.0 349.0,168.0 350.0,173.0 351.0,167.0 352.0,172.0 353.0,165.0 354.0,171.0 355.0,161.0 356.0,170.0 357.0,161.0 358.0,170.0 359.0,159.0 360.0,167.0 361.0,159.0 362.0,166.0 363.0,159.0 364.0,165.0 365.0,158.0 366.0,165.0 367.0,158.0 368.0,161.0 369.0,157.0 370.0,162.0 371.0,156.0 372.0,160.0 373.0,156.0 374.0,160.0 375.0,156.0 376.0,159.0 377.0,155.0 378.0,158.0 379.0,155.0 380.0,157.0 381.0,154.0 382.0,154.0 383.0,154.0 384.0,154.0 385.0,152.0 386.0,153.0 387.0,151.0 388.0,151.0 389.0,151.0 390.0,149.0 391.0,149.0 392.0,149.0 393.0,149.0 394.0,149.0 395.0,149.0 396.0,148.0 397.0,147.0 398.0,148.0 399.0,147.0 400.0,147.0 401.0,146.0 402.0,147.0 403.0,145.0 404.0,146.0 405.0,145.0 406.0,145.0 407.0,144.0 408.0,144.0 409.0,144.0 410.0,144.0 411.0,145.0 412.0,144.0 413.0,145.0 414.0,144.0 415.0,145.0 416.0,145.0 417.0,145.0 418.0,144.0 419.0,145.0 420.0,145.0 421.0,144.0 422.0,144.0 423.0,144.0 424.0,144.0 425.0,145.0 426.0,144.0 427.0,144.0 428.0,144.0 429.0,143.0 430.0,144.0 431.0,143.0 432.0,144.0 433.0,143.0 434.0,143.0 435.0,142.0 436.0,142.0 437.0,142.0 438.0,142.0 439.0,141.0 440.0,141.0 441.0,140.0 442.0,141.0 443.0,139.0 444.0,140.0 445.0,137.0 446.0,139.0 447.0,136.0 448.0,138.0 449.0,137.0 450.0,137.0 451.0,136.0 452.0,137.0 453.0,134.0 454.0,135.0 455.0,134.0 456.0,134.0 457.0,133.0 458.0,134.0 459.0,133.0 460.0,132.0 461.0,132.0 462.0,131.0 463.0,132.0 464.0,131.0 465.0,131.0 466.0,130.0 467.0,130.0 468.0,129.0 469.0,130.0 470.0,128.0 471.0,128.0 472.0,128.0 473.0,128.0 474.0,127.0 475.0,126.0 476.0,126.0 477.0,125.0 478.0,125.0 479.0,124.0 480.0,124.0 481.0,123.0 482.0,124.0 483.0,123.0 484.0,122.0 485.0,122.0 486.0,121.0 487.0,120.0 488.0,120.0 489.0,120.0 490.0,120.0 491.0,118.0 492.0,118.0 493.0,118.0 494.0,117.0 495.0,115.0 496.0,115.0 497.0,114.0 498.0,114.0 499.0,113.0 500.0,114.0 501.0,112.0 502.0,112.0 503.0,112.0 504.0,111.0 505.0,110.0 506.0,109.0 507.0,109.0 508.0,109.0 509.0,108.0 510.0,107.0 511.0,106.0 512.0,105.0 513.0,104.0 514.0,104.0 515.0,102.0 516.0,102.0 517.0,100.0 518.0,100.0 519.0,95.0 520.0,97.0 521.0,91.0 522.0,95.0 523.0,84.0 524.0,92.0 525.0,80.0 526.0,91.0 527.0,77.0 528.0,89.0 529.0,78.0 530.0,87.0 531.0,80.0 532.0,87.0 533.0,81.0 534.0,86.0 535.0,83.0 536.0,84.0 537.0,85.0 538.0,84.0 539.0,87.0 540.0,84.0 541.0,88.0 542.0,83.0 543.0,89.0 544.0,85.0 545.0,89.0 546.0,85.0 547.0,89.0 548.0,86.0 549.0,89.0 550.0,86.0 551.0,89.0 552.0,87.0 553.0,88.0 554.0,87.0 555.0,88.0 556.0,85.0 557.0,87.0 558.0,85.0 559.0,87.0 560.0,85.0 561.0,86.0 562.0,85.0 563.0,85.0 564.0,83.0 565.0,84.0 566.0,82.0 567.0,82.0 568.0,82.0 569.0,82.0 570.0,81.0 571.0,82.0 572.0,82.0 573.0,81.0 574.0,80.0 575.0,81.0 576.0,80.0 577.0,80.0 578.0,79.0 579.0,79.0 580.0,78.0 581.0,78.0 582.0,76.0 583.0,76.0 584.0,76.0 585.0,76.0 586.0,76.0 587.0,75.0 588.0,75.0 589.0,73.0 590.0,74.0 591.0,73.0 592.0,74.0 593.0,70.0 594.0,71.0 595.0,70.0 596.0,69.0 597.0,69.0 598.0,68.0 599.0,68.0 600.0,67.0 601.0,67.0 602.0,65.0 603.0,65.0 604.0,62.0 605.0,66.0 606.0,62.0 607.0,63.0 608.0,62.0 609.0,63.0 610.0,62.0 611.0,62.0 612.0,62.0 613.0,63.0 614.0,62.0 615.0,61.0 616.0,61.0 617.0,60.0 618.0,61.0 619.0,59.0 620.0,58.0 621.0,58.0 622.0,57.0 623.0,56.0 624.0,55.0 625.0,55.0 626.0,53.0 627.0,52.0 628.0,52.0 629.0,50.0 630.0,49.0 631.0,46.0 632.0,45.0 633.0,44.0 634.0,42.0 635.0,41.0 636.0,42.0 637.0,43.0 638.0,41.0 639.0,42.0 640.0,42.0 641.0,43.0 642.0,42.0 643.0,42.0 644.0,43.0 645.0,42.0 646.0,43.0 647.0,44.0 648.0,43.0 649.0,43.0 650.0,44.0 651.0,43.0 652.0,43.0 653.0,44.0 654.0,43.0" fill="none" stroke="#000000" />
	<polyline points="55.0,300.0 56.0,299.0 57.0,299.0 58.0,298.0 59.0,298.0 60.0,299.0 61.0,297.0 62.0,297.0 63.0,297.0 64.0,297.0 65.0,296.0 66.0,296.0 67.0,295.0 68.0,295.0 69.0,294.0 70.0,294.0 71.0,294.0 72.0,294.0 73.0,292.0 74.0,293.0 75.0,293.0 76.0,293.0 77.0,291.0 78.0,292.0 79.0,290.0 80.0,291.0 81.0,290.0 82.0,289.0 83.0,290.0 84.0,289.0 85.0,287.0 86.0,287.0 87.0,287.0 88.0,287.0 89.0,287.0 90.0,286.0 91.0,285.0 92.0,286.0 93.0,286.0 94.0,284.0 95.0,284.0 96.0,284.0 97.0,282.0 98.0,282.0 99.0,282.0 100.0,281.0 101.0,281.0 102.0,279.0 103.0,279.0 104.0,278.0 105.0,277.0 106.0,277.0 107.0,277.0 108.0,275.0 109.0,275.0 110.0,274.0 111.0,274.0 112.0,274.0 113.0,274.0 114.0,273.0 115.0,273.0 116.0,272.0 117.0,271.0 118.0,272.0 119.0,271.0 120.0,271.0 121.0,272.0 122.0,271.0 123.0,272.0 124.0,270.0 125.0,270.0 126.0,270.0 127.0,271.0 128.0,270.0 129.0,269.0 130.0,269.0 131.0,270.0 132.0,270.0 133.0,268.0 134.0,268.0 135.0,268.0 136.0,267.0 137.0,268.0 138.0,267.0 139.0,267.0 140.0,266.0 141.0,265.0 142.0,265.0 143.0,265.0 144.0,264.0 145.0,264.0 146.0,262.0 147.0,262.0 148.0,261.0 149.0,259.0 150.0,259.0 151.0,258.0 152.0,258.0 153.0,258.0 154.0,257.0 155.0,256.0 156.0,256.0 157.0,255.0 158.0,254.0 159.0,253.0 160.0,253.0 161.0,253.0 162.0,252.0 163.0,251.0 164.0,250.0 165.0,250.0 166.0,249.0 167.0,250.0 168.0,248.0 169.0,248.0 170.0,246.0 171.0,247.0 172.0,247.0 173.0,247.0 174.0,246.0 175.0,246.0 176.0,245.0 177.0,245.0 178.0,245.0 179.0,245.0 180.0,245.0 181.0,244.0 182.0,244.0 183.0,242.0 184.0,244.0 185.0,241.0 186.0,242.0 187.0,242.0 188.0,242.0 189.0,241.0 190.0,242.0 191.0,241.0 192.0,241.0 193.0,241.0 194.0,240.0 195.0,240.0 196.0,241.0 197.0,238.0 198.0,239.0 199.0,238.0 200.0,238.0 201.0,237.0 202.0,235.0 203.0,235.0 204.0,234.0 205.0,235.0 206.0,233.0 207.0,234.0 208.0,233.0 209.0,233.0 210.0,231.0 211.0,231.0 212.0,230.0 213.0,230.0 214.0,230.0 215.0,230.0 216.0,228.0 217.0,228.0 218.0,227.0 219.0,227.0 220.0,226.0 221.0,225.0 222.0,226.0 223.0,223.0 224.0,223.0 225.0,222.0 226.0,222.0 227.0,221.0 228.0,219.0 229.0,219.0 230.0,220.0 231.0,219.0 232.0,219.0 233.0,219.0 234.0,217.0 235.0,218.0 236.0,217.0 237.0,217.0 238.0,216.0 239.0,216.0 240.0,215.0 241.0,216.0 242.0,216.0 243.0,214.0 244.0,215.0 245.0,214.0 246.0,214.0 247.0,213.0 248.0,213.0 249.0,213.0 250.0,213.0 251.0,213.0 252.0,211.0 253.0,212.0 254.0,211.0 255.0,212.0 256.0,210.0 257.0,212.0 258.0,211.0 259.0,211.0 260.0,210.0 261.0,210.0 262.0,211.0 263.0,209.0 264.0,210.0 265.0,209.0 266.0,210.0 267.0,209.0 268.0,209.0 269.0,209.0 270.0,208.0 271.0,205.0 272.0,206.0 273.0,204.0 274.0,205.0 275.0,203.0 276.0,205.0 277.0,203.0 278.0,203.0 279.0,202.0 280.0,202.0 281.0,200.0 282.0,202.0 283.0,200.0 284.0,199.0 285.0,199.0 286.0,200.0 287.0,198.0 288.0,198.0 289.0,196.0 290.0,197.0 291.0,194.0 292.0,196.0 293.0,194.0 294.0,194.0 295.0,193.0 296.0,193.0 297.0,192.0 298.0,193.0 299.0,191.0 300.0,192.0 301.0,190.0 302.0,192.0 303.0,189.0 304.0,189.0 305.0,188.0 306.0,189.0 307.0,187.0 308.0,187.0 309.0,187.0 310.0,186.0 311.0,185.0 312.0,187.0 313.0,184.0 314.0,186.0 315.0,185.0 316.0,185.0 317.0,184.0 318.0,186.0 319.0,182.0 320.0,184.0 321.0,181.0 322.0,183.0 323.0,180.0 324.0,183.0 325.0,179.0 326.0,182.0 327.0,180.0 328.0,181.0 329.0,178.0 330.0,178.0 331.0,177.0 332.0,179.0 333.0,175.0 334.0,178.0 335.0,175.0 336.0,176.0 337.0,173.0 338.0,175.0 339.0,170.0 340.0,174.0 341.0,169.0 342.0,173.0 343.0,167.0 344.0,172.0 345.0,166.0 346.0,169.0 347.0,164.0 348.0,169.0 349.0,162.0 350.0,169.0 351.0,159.0 352.0,167.0 353.0,160.0 354.0,165.0 355.0,158.0 356.0,165.0 357.0,156.0 358.0,163.0 359.0,153.0 360.0,163.0 361.0,153.0 362.0,162.0 363.0,153.0 364.0,160.0 365.0,153.0 366.0,160.0 367.0,152.0 368.0,159.0 369.0,152.0 370.0,157.0 371.0,152.0 372.0,157.0 373.0,152.0 374.0,157.0 375.0,152.0 376.0,155.0 377.0,153.0 378.0,153.0 379.0,153.0 380.0,153.0 381.0,151.0 382.0,153.0 383.0,150.0 384.0,153.0 385.0,150.0 386.0,151.0 387.0,150.0 388.0,150.0 389.0,150.0 390.0,148.0 391.0,148.0 392.0,148.0 393.0,147.0 394.0,147.0 395.0,147.0 396.0,145.0 397.0,145.0 398.0,144.0 399.0,143.0 400.0,144.0 401.0,143.0 402.0,143.0 403.0,143.0 404.0,141.0 405.0,142.0 406.0,142.0 407.0,142.0 408.0,141.0 409.0,139.0 410.0,140.0 411.0,139.0 412.0,140.0 413.0,140.0 414.0,138.0 415.0,139.0 416.0,137.0 417.0,139.0 418.0,136.0 419.0,137.0 420.0,136.0 421.0,136.0 422.0,136.0 423.0,135.0 424.0,135.0 425.0,134.0 426.0,133.0 427.0,133.0 428.0,132.0 429.0,132.0 430.0,133.0 431.0,130.0 432.0,131.0 433.0,130.0 434.0,130.0 435.0,130.0 436.0,130.0 437.0,130.0 438.0,129.0 439.0,128.0 440.0,129.0 441.0,127.0 442.0,127.0 443.0,125.0 444.0,126.0 445.0,124.0 446.0,123.0 447.0,121.0 448.0,123.0 449.0,119.0 450.0,122.0 451.0,119.0 452.0,120.0 453.0,118.0 454.0,119.0 455.0,116.0 456.0,118.0 457.0,117.0 458.0,116.0 459.0,117.0 460.0,115.0 461.0,116.0 462.0,114.0 463.0,114.0 464.0,114.0 465.0,113.0 466.0,113.0 467.0,113.0 468.0,112.0 469.0,112.0 470.0,112.0 471.0,112.0 472.0,111.0 473.0,110.0 474.0,110.0 475.0,110.0 476.0,109.0 477.0,109.0 478.0,109.0 479.0,109.0 480.0,107.0 481.0,107.0 482.0,108.0 483.0,106.0 484.0,107.0 485.0,106.0 486.0,105.0 487.0,104.0 488.0,105.0 489.0,104.0 490.0,104.0 491.0,103.0 492.0,103.0 493.0,103.0 494.0,102.0 495.0,100.0 496.0,102.0 497.0,100.0 498.0,100.0 499.0,99.0 500.0,100.0 501.0,98.0 502.0,99.0 503.0,97.0 504.0,98.0 505.0,97.0 506.0,97.0 507.0,96.0 508.0,95.0 509.0,94.0 510.0,95.0 511.0,94.0 512.0,94.0 513.0,91.0 514.0,93.0 515.0,89.0 516.0,90.0 517.0,86.0 518.0,90.0 519.0,81.0 520.0,88.0 521.0,76.0 522.0,85.0 523.0,72.0 524.0,83.0 525.0,66.0 526.0,82.0 527.0,65.0 528.0,80.0 529.0,65.0 530.0,79.0 531.0,66.0 532.0,77.0 533.0,66.0 534.0,75.0 535.0,69.0 536.0,74.0 537.0,71.0 538.0,72.0 539.0,72.0 540.0,72.0 541.0,73.0 542.0,72.0 543.0,75.0 544.0,73.0 545.0,76.0 546.0,75.0 547.0,76.0 548.0,76.0 549.0,76.0 550.0,76.0 551.0,77.0 552.0,75.0 553.0,76.0 554.0,76.0 555.0,75.0 556.0,76.0 557.0,76.0 558.0,75.0 559.0,76.0 560.0,75.0 561.0,74.0 562.0,75.0 563.0,74.0 564.0,71.0 565.0,73.0 566.0,71.0 567.0,71.0 568.0,70.0 569.0,70.0 570.0,70.0 571.0,69.0 572.0,69.0 573.0,69.0 574.0,69.0 575.0,67.0 576.0,69.0 577.0,67.0 578.0,68.0 579.0,66.0 580.0,68.0 581.0,65.0 582.0,66.0 583.0,65.0 584.0,64.0 585.0,65.0 586.0,65.0 587.0,63.0 588.0,63.0 589.0,63.0 590.0,63.0 591.0,61.0 592.0,61.0 593.0,62.0 594.0,60.0 595.0,60.0 596.0,60.0 597.0,60.0 598.0,60.0 599.0,59.0 600.0,58.0 601.0,57.0 602.0,58.0 603.0,57.0 604.0,56.0 605.0,58.0 606.0,56.0 607.0,57.0 608.0,56.0 609.0,57.0 610.0,56.0 611.0,55.0 612.0,55.0 613.0,55.0 614.0,53.0 615.0,54.0 616.0,52.0 617.0,53.0 618.0,52.0 619.0,53.0 620.0,53.0 621.0,53.0 622.0,50.0 623.0,53.0 624.0,50.0 625.0,52.0 626.0,51.0 627.0,51.0 628.0,49.0 629.0,50.0 630.0,47.0 631.0,48.0 632.0,46.0 633.0,45.0 634.0,45.0 635.0,46.0 636.0,45.0 637.0,47.0 638.0,45.0 639.0,48.0 640.0,46.0 641.0,48.0 642.0,47.0 643.0,48.0 644.0,48.0 645.0,48.0 646.0,49.0 647.0,49.0 648.0,48.0 649.0,49.0 650.0,49.0 651.0,49.0 652.0,49.0 653.0,48.0 654.0,49.0" fill="none" stroke="#ff0000" />
	<polyline points="55.0,302.0 56.0,301.0 57.0,301.0 58.0,300.0 59.0,299.0 60.0,300.0 61.0,299.0 62.0,299.0 63.0,298.0 64.0,299.0 65.0,298.0 66.0,298.0 67.0,296.0 68.0,297.0 69.0,297.0 70.0,297.0 71.0,294.0 72.0,295.0 73.0,294.0 74.0,294.0 75.0,293.0 76.0,293.0 77.0,292.0 78.0,291.0 79.0,290.0 80.0,290.0 81.0,290.0 82.0,288.0 83.0,288.0 84.0,288.0 85.0,288.0 86.0,287.0 87.0,286.0 88.0,286.0 89.0,286.0 90.0,284.0 91.0,284.0 92.0,284.0 93.0,282.0 94.0,283.0 95.0,282.0 96.0,281.0 97.0,281.0 98.0,278.0 99.0,279.0 100.0,278.0 101.0,278.0 102.0,278.0 103.0,277.0 104.0,277.0 105.0,276.0 106.0,275.0 107.0,276.0 108.0,276.0 109.0,275.0 110.0,274.0 111.0,275.0 112.0,274.0 113.0,274.0 114.0,273.0 115.0,272.0 116.0,272.0 117.0,273.0 118.0,271.0 119.0,272.0 120.0,271.0 121.0,271.0 122.0,270.0 123.0,270.0 124.0,269.0 125.0,269.0 126.0,269.0 127.0,268.0 128.0,267.0 129.0,267.0 130.0,266.0 131.0,266.0 132.0,266.0 133.0,266.0 134.0,265.0 135.0,265.0 136.0,264.0 137.0,265.0 138.0,263.0 139.0,264.0 140.0,263.0 141.0,263.0 142.0,262.0 143.0,262.0 144.0,261.0 145.0,260.0 146.0,260.0 147.0,259.0 148.0,258.0 149.0,257.0 150.0,257.0 151.0,256.0 152.0,256.0 153.0,256.0 154.0,253.0 155.0,253.0 156.0,253.0 157.0,253.0 158.0,252.0 159.0,252.0 160.0,252.0 161.0,252.0 162.0,249.0 163.0,251.0 164.0,250.0 165.0,251.0 166.0,249.0 167.0,250.0 168.0,247.0 169.0,249.0 170.0,247.0 171.0,246.0 172.0,246.0 173.0,247.0 174.0,246.0 175.0,247.0 176.0,245.0 177.0,244.0 178.0,245.0 179.0,245.0 180.0,244.0 181.0,244.0 182.0,243.0 183.0,243.0 184.0,243.0 185.0,242.0 186.0,242.0 187.0,240.0 188.0,239.0 189.0,238.0 190.0,239.0 191.0,238.0 192.0,235.0 193.0,237.0 194.0,237.0 195.0,235.0 196.0,236.0 197.0,236.0 198.0,236.0 199.0,235.0 200.0,235.0 201.0,234.0 202.0,234.0 203.0,235.0 204.0,233.0 205.0,233.0 206.0,233.0 207.0,231.0 208.0,232.0 209.0,231.0 210.0,230.0 211.0,230.0 212.0,228.0 213.0,229.0 214.0,228.0 215.0,228.0 216.0,227.0 217.0,227.0 218.0,226.0 219.0,226.0 220.0,225.0 221.0,226.0 222.0,224.0 223.0,225.0 224.0,224.0 225.0,225.0 226.0,223.0 227.0,223.0 228.0,223.0 229.0,223.0 230.0,222.0 231.0,221.0 232.0,221.0 233.0,220.0 234.0,221.0 235.0,220.0 236.0,219.0 237.0,219.0 238.0,218.0 239.0,218.0 240.0,218.0 241.0,218.0 242.0,216.0 243.0,217.0 244.0,215.0 245.0,216.0 246.0,215.0 247.0,213.0 248.0,213.0 249.0,213.0 250.0,213.0 251.0,213.0 252.0,212.0 253.0,212.0 254.0,211.0 255.0,211.0 256.0,210.0 257.0,210.0 258.0,208.0 259.0,209.0 260.0,207.0 261.0,207.0 262.0,207.0 263.0,206.0 264.0,204.0 265.0,204.0 266.0,203.0 267.0,203.0 268.0,203.0 269.0,203.0 270.0,202.0 271.0,203.0 272.0,202.0 273.0,203.0 274.0,202.0 275.0,201.0 276.0,201.0 277.0,200.0 278.0,201.0 279.0,199.0 280.0,200.0 281.0,199.0 282.0,200.0 283.0,198.0 284.0,199.0 285.0,197.0 286.0,199.0 287.0,197.0 288.0,197.0 289.0,197.0 290.0,196.0 291.0,195.0 292.0,195.0 293.0,194.0 294.0,195.0 295.0,192.0 296.0,194.0 297.0,192.0 298.0,193.0 299.0,191.0 300.0,192.0 301.0,190.0 302.0,192.0 303.0,189.0 304.0,191.0 305.0,188.0 306.0,189.0 307.0,187.0 308.0,189.0 309.0,186.0 310.0,188.0 311.0,186.0 312.0,187.0 313.0,185.0 314.0,187.0 315.0,184.0 316.0,186.0 317.0,184.0 318.0,185.0 319.0,183.0 320.0,184.0 321.0,182.0 322.0,184.0 323.0,181.0 324.0,183.0 325.0,180.0 326.0,182.0 327.0,179.0 328.0,181.0 329.0,179.0 330.0,180.0 331.0,178.0 332.0,180.0 333.0,177.0 334.0,179.0 335.0,175.0 336.0,177.0 337.0,174.0 338.0,176.0 339.0,173.0 340.0,174.0 341.0,172.0 342.0,173.0 343.0,170.0 344.0,173.0 345.0,169.0 346.0,172.0 347.0,168.0 348.0,172.0 349.0,167.0 350.0,170.0 351.0,167.0 352.0,169.0 353.0,165.0 354.0,168.0 355.0,164.0 356.0,169.0 357.0,163.0 358.0,169.0 359.0,161.0 360.0,167.0 361.0,160.0 362.0,166.0 363.0,158.0 364.0,164.0 365.0,158.0 366.0,164.0 367.0,157.0 368.0,163.0 369.0,156.0 370.0,161.0 371.0,156.0 372.0,160.0 373.0,155.0 374.0,159.0 375.0,155.0 376.0,159.0 377.0,156.0 378.0,157.0 379.0,155.0 380.0,155.0 381.0,155.0 382.0,155.0 383.0,154.0 384.0,153.0 385.0,153.0 386.0,153.0 387.0,152.0 388.0,152.0 389.0,152.0 390.0,150.0 391.0,151.0 392.0,149.0 393.0,149.0 394.0,149.0 395.0,147.0 396.0,148.0 397.0,147.0 398.0,146.0 399.0,145.0 400.0,146.0 401.0,145.0 402.0,144.0 403.0,143.0 404.0,143.0 405.0,142.0 406.0,141.0 407.0,141.0 408.0,140.0 409.0,140.0 410.0,139.0 411.0,139.0 412.0,137.0 413.0,138.0 414.0,136.0 415.0,135.0 416.0,136.0 417.0,134.0 418.0,134.0 419.0,132.0 420.0,133.0 421.0,132.0 422.0,131.0 423.0,131.0 424.0,131.0 425.0,130.0 426.0,131.0 427.0,129.0 428.0,129.0 429.0,128.0 430.0,128.0 431.0,128.0 432.0,127.0 433.0,126.0 434.0,126.0 435.0,125.0 436.0,125.0 437.0,124.0 438.0,124.0 439.0,123.0 440.0,123.0 441.0,120.0 442.0,123.0 443.0,121.0 444.0,121.0 445.0,120.0 446.0,122.0 447.0,121.0 448.0,121.0 449.0,120.0 450.0,121.0 451.0,119.0 452.0,119.0 453.0,119.0 454.0,119.0 455.0,117.0 456.0,118.0 457.0,118.0 458.0,118.0 459.0,119.0 460.0,117.0 461.0,118.0 462.0,117.0 463.0,117.0 464.0,117.0 465.0,117.0 466.0,115.0 467.0,115.0 468.0,115.0 469.0,114.0 470.0,114.0 471.0,114.0 472.0,112.0 473.0,113.0 474.0,112.0 475.0,112.0 476.0,112.0 477.0,111.0 478.0,110.0 479.0,110.0 480.0,110.0 481.0,110.0 482.0,109.0 483.0,109.0 484.0,107.0 485.0,108.0 486.0,108.0 487.0,107.0 488.0,106.0 489.0,106.0 490.0,106.0 491.0,105.0 492.0,104.0 493.0,104.0 494.0,104.0 495.0,103.0 496.0,103.0 497.0,101.0 498.0,102.0 499.0,100.0 500.0,101.0 501.0,99.0 502.0,99.0 503.0,99.0 504.0,98.0 505.0,97.0 506.0,96.0 507.0,95.0 508.0,97.0 509.0,94.0 510.0,93.0 511.0,92.0 512.0,92.0 513.0,89.0 514.0,91.0 515.0,87.0 516.0,89.0 517.0,83.0 518.0,87.0 519.0,79.0 520.0,84.0 521.0,73.0 522.0,83.0 523.0,68.0 524.0,81.0 525.0,64.0 526.0,79.0 527.0,62.0 528.0,79.0 529.0,62.0 530.0,78.0 531.0,64.0 532.0,77.0 533.0,67.0 534.0,76.0 535.0,69.0 536.0,76.0 537.0,71.0 538.0,75.0 539.0,72.0 540.0,74.0 541.0,75.0 542.0,72.0 543.0,76.0 544.0,71.0 545.0,75.0 546.0,74.0 547.0,75.0 548.0,73.0 549.0,75.0 550.0,74.0 551.0,75.0 552.0,75.0 553.0,75.0 554.0,75.0 555.0,75.0 556.0,75.0 557.0,75.0 558.0,74.0 559.0,75.0 560.0,73.0 561.0,75.0 562.0,74.0 563.0,74.0 564.0,75.0 565.0,73.0 566.0,74.0 567.0,74.0 568.0,74.0 569.0,73.0 570.0,73.0 571.0,73.0 572.0,72.0 573.0,73.0 574.0,71.0 575.0,71.0 576.0,71.0 577.0,69.0 578.0,69.0 579.0,69.0 580.0,69.0 581.0,68.0 582.0,68.0 583.0,67.0 584.0,67.0 585.0,66.0 586.0,66.0 587.0,66.0 588.0,65.0 589.0,65.0 590.0,64.0 591.0,64.0 592.0,63.0 593.0,63.0 594.0,63.0 595.0,62.0 596.0,61.0 597.0,61.0 598.0,60.0 599.0,60.0 600.0,59.0 601.0,59.0 602.0,58.0 603.0,59.0 604.0,56.0 605.0,57.0 606.0,55.0 607.0,57.0 608.0,54.0 609.0,56.0 610.0,53.0 611.0,53.0 612.0,52.0 613.0,52.0 614.0,50.0 615.0,50.0 616.0,49.0 617.0,49.0 618.0,46.0 619.0,46.0 620.0,44.0 621.0,44.0 622.0,41.0 623.0,42.0 624.0,40.0 625.0,39.0 626.0,36.0 627.0,36.0 628.0,34.0 629.0,34.0 630.0,30.0 631.0,31.0 632.0,28.0 633.0,27.0 634.0,26.0 635.0,27.0 636.0,24.0 637.0,27.0 638.0,25.0 639.0,28.0 640.0,26.0 641.0,29.0 642.0,27.0 643.0,30.0 644.0,28.0 645.0,30.0 646.0,28.0 647.0,30.0 648.0,29.0 649.0,30.0 650.0,29.0 651.0,29.0 652.0,29.0 653.0,29.0 654.0,29.0" fill="none" stroke="#008000" />
	<polyline points="55.0,284.0 56.0,284.0 57.0,283.0 58.0,284.0 59.0,282.0 60.0,282.0 61.0,281.0 62.0,281.0 63.0,281.0 64.0,280.0 65.0,280.0 66.0,279.0 67.0,279.0 68.0,278.0 69.0,278.0 70.0,277.0 71.0,278.0 72.0,277.0 73.0,276.0 74.0,276.0 75.0,275.0 76.0,275.0 77.0,274.0 78.0,275.0 79.0,274.0 80.0,274.0 81.0,273.0 82.0,272.0 83.0,272.0 84.0,272.0 85.0,271.0 86.0,271.0 87.0,270.0 88.0,270.0 89.0,270.0 90.0,269.0 91.0,269.0 92.0,269.0 93.0,268.0 94.0,268.0 95.0,267.0 96.0,267.0 97.0,266.0 98.0,266.0 99.0,265.0 100.0,265.0 101.0,265.0 102.0,264.0 103.0,264.0 104.0,263.0 105.0,263.0 106.0,262.0 107.0,262.0 108.0,262.0 109.0,262.0 110.0,260.0 111.0,260.0 112.0,259.0 113.0,260.0 114.0,258.0 115.0,259.0 116.0,258.0 117.0,258.0 118.0,257.0 119.0,256.0 120.0,256.0 121.0,256.0 122.0,255.0 123.0,255.0 124.0,255.0 125.0,255.0 126.0,253.0 127.0,254.0 128.0,252.0 129.0,253.0 130.0,251.0 131.0,252.0 132.0,250.0 133.0,251.0 134.0,250.0 135.0,251.0 136.0,248.0 137.0,250.0 138.0,248.0 139.0,249.0 140.0,247.0 141.0,248.0 142.0,246.0 143.0,248.0 144.0,245.0 145.0,246.0 146.0,244.0 147.0,245.0 148.0,243.0 149.0,246.0 150.0,243.0 151.0,244.0 152.0,241.0 153.0,243.0 154.0,241.0 155.0,243.0 156.0,240.0 157.0,242.0 158.0,239.0 159.0,242.0 160.0,238.0 161.0,240.0 162.0,237.0 163.0,240.0 164.0,236.0 165.0,238.0 166.0,237.0 167.0,237.0 168.0,236.0 169.0,234.0 170.0,236.0 171.0,234.0 172.0,235.0 173.0,233.0 174.0,233.0 175.0,232.0 176.0,233.0 177.0,232.0 178.0,231.0 179.0,227.0 180.0,231.0 181.0,229.0 182.0,231.0 183.0,228.0 184.0,229.0 185.0,227.0 186.0,229.0 187.0,227.0 188.0,229.0 189.0,226.0 190.0,227.0 191.0,224.0 192.0,226.0 193.0,223.0 194.0,225.0 195.0,223.0 196.0,225.0 197.0,223.0 198.0,224.0 199.0,222.0 200.0,220.0 201.0,222.0 202.0,221.0 203.0,222.0 204.0,220.0 205.0,221.0 206.0,219.0 207.0,220.0 208.0,217.0 209.0,220.0 210.0,217.0 211.0,218.0 212.0,216.0 213.0,217.0 214.0,216.0 215.0,216.0 216.0,215.0 217.0,215.0 218.0,214.0 219.0,214.0 220.0,214.0 221.0,213.0 222.0,213.0 223.0,213.0 224.0,212.0 225.0,211.0 226.0,210.0 227.0,211.0 228.0,210.0 229.0,210.0 230.0,208.0 231.0,209.0 232.0,208.0 233.0,209.0 234.0,207.0 235.0,208.0 236.0,205.0 237.0,207.0 238.0,205.0 239.0,207.0 240.0,204.0 241.0,205.0 242.0,203.0 243.0,204.0 244.0,203.0 245.0,203.0 246.0,202.0 247.0,202.0 248.0,202.0 249.0,201.0 250.0,199.0 251.0,200.0 252.0,200.0 253.0,200.0 254.0,199.0 255.0,198.0 256.0,199.0 257.0,197.0 258.0,198.0 259.0,196.0 260.0,198.0 261.0,195.0 262.0,197.0 263.0,194.0 264.0,196.0 265.0,194.0 266.0,195.0 267.0,192.0 268.0,194.0 269.0,192.0 270.0,194.0 271.0,190.0 272.0,193.0 273.0,189.0 274.0,192.0 275.0,189.0 276.0,192.0 277.0,187.0 278.0,191.0 279.0,186.0 280.0,190.0 281.0,185.0 282.0,188.0 283.0,185.0 284.0,188.0 285.0,185.0 286.0,187.0 287.0,180.0 288.0,187.0 289.0,180.0 290.0,188.0 291.0,179.0 292.0,187.0 293.0,178.0 294.0,186.0 295.0,177.0 296.0,186.0 297.0,176.0 298.0,186.0 299.0,175.0 300.0,184.0 301.0,174.0 302.0,182.0 303.0,173.0 304.0,182.0 305.0,172.0 306.0,180.0 307.0,171.0 308.0,180.0 309.0,170.0 310.0,180.0 311.0,169.0 312.0,180.0 313.0,168.0 314.0,179.0 315.0,167.0 316.0,179.0 317.0,166.0 318.0,178.0 319.0,165.0 320.0,177.0 321.0,164.0 322.0,176.0 323.0,163.0 324.0,176.0 325.0,161.0 326.0,175.0 327.0,161.0 328.0,174.0 329.0,159.0 330.0,174.0 331.0,158.0 332.0,173.0 333.0,156.0 334.0,173.0 335.0,155.0 336.0,173.0 337.0,153.0 338.0,173.0 339.0,151.0 340.0,172.0 341.0,150.0 342.0,172.0 343.0,149.0 344.0,170.0 345.0,146.0 346.0,170.0 347.0,145.0 348.0,171.0 349.0,143.0 350.0,170.0 351.0,142.0 352.0,170.0 353.0,140.0 354.0,169.0 355.0,139.0 356.0,167.0 357.0,138.0 358.0,166.0 359.0,138.0 360.0,163.0 361.0,138.0 362.0,162.0 363.0,139.0 364.0,160.0 365.0,138.0 366.0,158.0 367.0,139.0 368.0,156.0 369.0,140.0 370.0,154.0 371.0,140.0 372.0,152.0 373.0,141.0 374.0,151.0 375.0,142.0 376.0,149.0 377.0,141.0 378.0,148.0 379.0,141.0 380.0,148.0 381.0,140.0 382.0,147.0 383.0,140.0 384.0,146.0 385.0,139.0 386.0,145.0 387.0,139.0 388.0,143.0 389.0,138.0 390.0,143.0 391.0,137.0 392.0,142.0 393.0,137.0 394.0,141.0 395.0,136.0 396.0,140.0 397.0,135.0 398.0,139.0 399.0,134.0 400.0,138.0 401.0,133.0 402.0,137.0 403.0,133.0 404.0,135.0 405.0,133.0 406.0,134.0 407.0,132.0 408.0,133.0 409.0,132.0 410.0,133.0 411.0,131.0 412.0,131.0 413.0,129.0 414.0,131.0 415.0,129.0 416.0,131.0 417.0,127.0 418.0,130.0 419.0,126.0 420.0,130.0 421.0,125.0 422.0,130.0 423.0,124.0 424.0,129.0 425.0,123.0 426.0,127.0 427.0,122.0 428.0,127.0 429.0,121.0 430.0,127.0 431.0,119.0 432.0,126.0 433.0,118.0 434.0,126.0 435.0,117.0 436.0,126.0 437.0,115.0 438.0,125.0 439.0,113.0 440.0,125.0 441.0,112.0 442.0,125.0 443.0,111.0 444.0,124.0 445.0,110.0 446.0,123.0 447.0,109.0 448.0,121.0 449.0,108.0 450.0,119.0 451.0,107.0 452.0,117.0 453.0,107.0 454.0,115.0 455.0,107.0 456.0,114.0 457.0,108.0 458.0,113.0 459.0,107.0 460.0,112.0 461.0,107.0 462.0,111.0 463.0,107.0 464.0,109.0 465.0,107.0 466.0,108.0 467.0,106.0 468.0,108.0 469.0,105.0 470.0,107.0 471.0,103.0 472.0,107.0 473.0,103.0 474.0,107.0 475.0,102.0 476.0,106.0 477.0,101.0 478.0,105.0 479.0,101.0 480.0,104.0 481.0,99.0 482.0,103.0 483.0,98.0 484.0,102.0 485.0,98.0 486.0,101.0 487.0,97.0 488.0,102.0 489.0,95.0 490.0,101.0 491.0,95.0 492.0,100.0 493.0,92.0 494.0,99.0 495.0,91.0 496.0,100.0 497.0,90.0 498.0,99.0 499.0,89.0 500.0,98.0 501.0,87.0 502.0,97.0 503.0,85.0 504.0,98.0 505.0,83.0 506.0,99.0 507.0,81.0 508.0,99.0 509.0,79.0 510.0,99.0 511.0,75.0 512.0,100.0 513.0,71.0 514.0,102.0 515.0,66.0 516.0,104.0 517.0,61.0 518.0,105.0 519.0,55.0 520.0,107.0 521.0,49.0 522.0,106.0 523.0,43.0 524.0,101.0 525.0,42.0 526.0,89.0 527.0,45.0 528.0,81.0 529.0,49.0 530.0,77.0 531.0,52.0 532.0,73.0 533.0,56.0 534.0,72.0 535.0,58.0 536.0,69.0 537.0,60.0 538.0,68.0 539.0,63.0 540.0,68.0 541.0,64.0 542.0,68.0 543.0,64.0 544.0,68.0 545.0,65.0 546.0,69.0 547.0,66.0 548.0,69.0 549.0,66.0 550.0,69.0 551.0,67.0 552.0,69.0 553.0,67.0 554.0,70.0 555.0,67.0 556.0,69.0 557.0,67.0 558.0,68.0 559.0,66.0 560.0,68.0 561.0,65.0 562.0,68.0 563.0,65.0 564.0,67.0 565.0,64.0 566.0,66.0 567.0,63.0 568.0,66.0 569.0,63.0 570.0,65.0 571.0,63.0 572.0,63.0 573.0,61.0 574.0,63.0 575.0,62.0 576.0,63.0 577.0,61.0 578.0,61.0 579.0,60.0 580.0,59.0 581.0,59.0 582.0,59.0 583.0,58.0 584.0,59.0 585.0,58.0 586.0,57.0 587.0,57.0 588.0,56.0 589.0,57.0 590.0,55.0 591.0,56.0 592.0,53.0 593.0,57.0 594.0,52.0 595.0,55.0 596.0,51.0 597.0,54.0 598.0,50.0 599.0,54.0 600.0,49.0 601.0,54.0 602.0,48.0 603.0,53.0 604.0,46.0 605.0,53.0 606.0,45.0 607.0,52.0 608.0,44.0 609.0,52.0 610.0,42.0 611.0,51.0 612.0,39.0 613.0,51.0 614.0,38.0 615.0,51.0 616.0,37.0 617.0,51.0 618.0,34.0 619.0,51.0 620.0,31.0 621.0,51.0 622.0,30.0 623.0,52.0 624.0,25.0 625.0,52.0 626.0,22.0 627.0,52.0 628.0,18.0 629.0,52.0 630.0,14.0 631.0,48.0 632.0,11.0 633.0,43.0 634.0,12.0 635.0,38.0 636.0,14.0 637.0,33.0 638.0,17.0 639.0,30.0 640.0,19.0 641.0,29.0 642.0,22.0 643.0,29.0 644.0,23.0 645.0,29.0 646.0,23.0 647.0,30.0 648.0,25.0 649.0,30.0 650.0,25.0 651.0,29.0 652.0,25.0 653.0,29.0 654.0,24.0" fill="none" stroke="#d0d000" />
	<polyline points="55.0,299.0 56.0,297.0 57.0,297.0 58.0,297.0 59.0,296.0 60.0,295.0 61.0,295.0 62.0,295.0 63.0,295.0 64.0,294.0 65.0,294.0 66.0,293.0 67.0,292.0 68.0,292.0 69.0,292.0 70.0,292.0 71.0,291.0 72.0,289.0 73.0,290.0 74.0,288.0 75.0,289.0 76.0,289.0 77.0,287.0 78.0,288.0 79.0,287.0 80.0,287.0 81.0,285.0 82.0,285.0 83.0,284.0 84.0,284.0 85.0,284.0 86.0,283.0 87.0,282.0 88.0,281.0 89.0,282.0 90.0,281.0 91.0,280.0 92.0,279.0 93.0,279.0 94.0,278.0 95.0,278.0 96.0,277.0 97.0,277.0 98.0,277.0 99.0,276.0 100.0,276.0 101.0,276.0 102.0,275.0 103.0,274.0 104.0,274.0 105.0,273.0 106.0,273.0 107.0,271.0 108.0,271.0 109.0,270.0 110.0,269.0 111.0,269.0 112.0,269.0 113.0,268.0 114.0,267.0 115.0,267.0 116.0,265.0 117.0,266.0 118.0,265.0 119.0,266.0 120.0,265.0 121.0,265.0 122.0,265.0 123.0,265.0 124.0,264.0 125.0,264.0 126.0,264.0 127.0,263.0 128.0,264.0 129.0,263.0 130.0,261.0 131.0,262.0 132.0,261.0 133.0,261.0 134.0,260.0 135.0,260.0 136.0,260.0 137.0,259.0 138.0,259.0 139.0,258.0 140.0,257.0 141.0,258.0 142.0,256.0 143.0,257.0 144.0,256.0 145.0,255.0 146.0,256.0 147.0,255.0 148.0,255.0 149.0,253.0 150.0,254.0 151.0,253.0 152.0,253.0 153.0,252.0 154.0,251.0 155.0,251.0 156.0,251.0 157.0,251.0 158.0,251.0 159.0,250.0 160.0,251.0 161.0,249.0 162.0,248.0 163.0,249.0 164.0,248.0 165.0,250.0 166.0,245.0 167.0,248.0 168.0,246.0 169.0,246.0 170.0,247.0 171.0,247.0 172.0,244.0 173.0,245.0 174.0,244.0 175.0,245.0 176.0,244.0 177.0,242.0 178.0,244.0 179.0,242.0 180.0,243.0 181.0,241.0 182.0,242.0 183.0,240.0 184.0,242.0 185.0,239.0 186.0,240.0 187.0,240.0 188.0,239.0 189.0,239.0 190.0,239.0 191.0,238.0 192.0,238.0 193.0,239.0 194.0,234.0 195.0,237.0 196.0,235.0 197.0,236.0 198.0,235.0 199.0,235.0 200.0,234.0 201.0,235.0 202.0,235.0 203.0,233.0 204.0,234.0 205.0,234.0 206.0,234.0 207.0,233.0 208.0,232.0 209.0,234.0 210.0,232.0 211.0,233.0 212.0,232.0 213.0,232.0 214.0,231.0 215.0,231.0 216.0,231.0 217.0,230.0 218.0,230.0 219.0,231.0 220.0,230.0 221.0,230.0 222.0,230.0 223.0,229.0 224.0,229.0 225.0,229.0 226.0,228.0 227.0,227.0 228.0,228.0 229.0,228.0 230.0,226.0 231.0,226.0 232.0,226.0 233.0,224.0 234.0,225.0 235.0,225.0 236.0,223.0 237.0,224.0 238.0,223.0 239.0,223.0 240.0,221.0 241.0,221.0 242.0,221.0 243.0,220.0 244.0,219.0 245.0,220.0 246.0,219.0 247.0,219.0 248.0,218.0 249.0,217.0 250.0,218.0 251.0,216.0 252.0,215.0 253.0,215.0 254.0,214.0 255.0,214.0 256.0,213.0 257.0,213.0 258.0,212.0 259.0,213.0 260.0,212.0 261.0,212.0 262.0,211.0 263.0,211.0 264.0,210.0 265.0,209.0 266.0,209.0 267.0,208.0 268.0,204.0 269.0,206.0 270.0,204.0 271.0,204.0 272.0,203.0 273.0,203.0 274.0,201.0 275.0,200.0 276.0,199.0 277.0,198.0 278.0,197.0 279.0,195.0 280.0,196.0 281.0,192.0 282.0,192.0 283.0,189.0 284.0,190.0 285.0,188.0 286.0,188.0 287.0,186.0 288.0,186.0 289.0,184.0 290.0,184.0 291.0,184.0 292.0,183.0 293.0,182.0 294.0,183.0 295.0,181.0 296.0,182.0 297.0,180.0 298.0,182.0 299.0,179.0 300.0,181.0 301.0,178.0 302.0,180.0 303.0,177.0 304.0,179.0 305.0,176.0 306.0,179.0 307.0,176.0 308.0,178.0 309.0,174.0 310.0,178.0 311.0,173.0 312.0,178.0 313.0,173.0 314.0,176.0 315.0,173.0 316.0,175.0 317.0,172.0 318.0,175.0 319.0,171.0 320.0,174.0 321.0,170.0 322.0,174.0 323.0,170.0 324.0,173.0 325.0,170.0 326.0,172.0 327.0,169.0 328.0,172.0 329.0,168.0 330.0,172.0 331.0,169.0 332.0,171.0 333.0,167.0 334.0,171.0 335.0,168.0 336.0,171.0 337.0,167.0 338.0,171.0 339.0,167.0 340.0,172.0 341.0,167.0 342.0,172.0 343.0,167.0 344.0,173.0 345.0,167.0 346.0,174.0 347.0,166.0 348.0,173.0 349.0,166.0 350.0,172.0 351.0,166.0 352.0,173.0 353.0,165.0 354.0,172.0 355.0,164.0 356.0,172.0 357.0,163.0 358.0,172.0 359.0,163.0 360.0,172.0 361.0,163.0 362.0,171.0 363.0,164.0 364.0,171.0 365.0,163.0 366.0,170.0 367.0,163.0 368.0,169.0 369.0,164.0 370.0,169.0 371.0,164.0 372.0,169.0 373.0,164.0 374.0,168.0 375.0,165.0 376.0,168.0 377.0,165.0 378.0,168.0 379.0,165.0 380.0,166.0 381.0,165.0 382.0,166.0 383.0,164.0 384.0,165.0 385.0,164.0 386.0,165.0 387.0,163.0 388.0,164.0 389.0,163.0 390.0,163.0 391.0,163.0 392.0,162.0 393.0,161.0 394.0,162.0 395.0,161.0 396.0,162.0 397.0,161.0 398.0,161.0 399.0,160.0 400.0,160.0 401.0,159.0 402.0,159.0 403.0,158.0 404.0,158.0 405.0,158.0 406.0,157.0 407.0,156.0 408.0,155.0 409.0,155.0 410.0,152.0 411.0,153.0 412.0,151.0 413.0,151.0 414.0,151.0 415.0,151.0 416.0,150.0 417.0,150.0 418.0,150.0 419.0,149.0 420.0,149.0 421.0,148.0 422.0,148.0 423.0,147.0 424.0,147.0 425.0,146.0 426.0,146.0 427.0,145.0 428.0,145.0 429.0,143.0 430.0,143.0 431.0,142.0 432.0,142.0 433.0,141.0 434.0,141.0 435.0,140.0 436.0,140.0 437.0,140.0 438.0,139.0 439.0,139.0 440.0,138.0 441.0,138.0 442.0,138.0 443.0,136.0 444.0,136.0 445.0,135.0 446.0,135.0 447.0,133.0 448.0,133.0 449.0,133.0 450.0,133.0 451.0,131.0 452.0,132.0 453.0,130.0 454.0,131.0 455.0,130.0 456.0,129.0 457.0,128.0 458.0,129.0 459.0,128.0 460.0,128.0 461.0,127.0 462.0,127.0 463.0,126.0 464.0,126.0 465.0,125.0 466.0,126.0 467.0,124.0 468.0,125.0 469.0,125.0 470.0,124.0 471.0,123.0 472.0,122.0 473.0,122.0 474.0,122.0 475.0,121.0 476.0,121.0 477.0,120.0 478.0,121.0 479.0,120.0 480.0,119.0 481.0,120.0 482.0,117.0 483.0,118.0 484.0,117.0 485.0,116.0 486.0,116.0 487.0,116.0 488.0,116.0 489.0,116.0 490.0,114.0 491.0,114.0 492.0,114.0 493.0,113.0 494.0,112.0 495.0,112.0 496.0,111.0 497.0,110.0 498.0,110.0 499.0,110.0 500.0,109.0 501.0,109.0 502.0,109.0 503.0,107.0 504.0,105.0 505.0,105.0 506.0,104.0 507.0,103.0 508.0,103.0 509.0,102.0 510.0,101.0 511.0,101.0 512.0,99.0 513.0,98.0 514.0,97.0 515.0,95.0 516.0,95.0 517.0,93.0 518.0,93.0 519.0,89.0 520.0,90.0 521.0,84.0 522.0,87.0 523.0,77.0 524.0,86.0 525.0,70.0 526.0,84.0 527.0,68.0 528.0,83.0 529.0,70.0 530.0,80.0 531.0,72.0 532.0,80.0 533.0,73.0 534.0,79.0 535.0,76.0 536.0,79.0 537.0,78.0 538.0,78.0 539.0,80.0 540.0,76.0 541.0,81.0 542.0,77.0 543.0,81.0 544.0,78.0 545.0,82.0 546.0,78.0 547.0,82.0 548.0,79.0 549.0,82.0 550.0,80.0 551.0,82.0 552.0,80.0 553.0,83.0 554.0,80.0 555.0,82.0 556.0,81.0 557.0,83.0 558.0,81.0 559.0,82.0 560.0,81.0 561.0,81.0 562.0,81.0 563.0,81.0 564.0,80.0 565.0,81.0 566.0,80.0 567.0,81.0 568.0,79.0 569.0,79.0 570.0,79.0 571.0,79.0 572.0,78.0 573.0,78.0 574.0,77.0 575.0,76.0 576.0,76.0 577.0,75.0 578.0,74.0 579.0,74.0 580.0,74.0 581.0,73.0 582.0,74.0 583.0,72.0 584.0,72.0 585.0,71.0 586.0,71.0 587.0,72.0 588.0,70.0 589.0,70.0 590.0,71.0 591.0,70.0 592.0,70.0 593.0,71.0 594.0,69.0 595.0,69.0 596.0,68.0 597.0,68.0 598.0,67.0 599.0,67.0 600.0,66.0 601.0,67.0 602.0,66.0 603.0,66.0 604.0,64.0 605.0,65.0 606.0,65.0 607.0,65.0 608.0,63.0 609.0,64.0 610.0,63.0 611.0,63.0 612.0,62.0 613.0,63.0 614.0,61.0 615.0,62.0 616.0,60.0 617.0,61.0 618.0,60.0 619.0,59.0 620.0,59.0 621.0,60.0 622.0,58.0 623.0,58.0 624.0,57.0 625.0,57.0 626.0,54.0 627.0,55.0 628.0,54.0 629.0,51.0 630.0,50.0 631.0,49.0 632.0,47.0 633.0,46.0 634.0,44.0 635.0,43.0 636.0,44.0 637.0,45.0 638.0,43.0 639.0,46.0 640.0,44.0 641.0,46.0 642.0,45.0 643.0,46.0 644.0,45.0 645.0,46.0 646.0,46.0 647.0,46.0 648.0,46.0 649.0,46.0 650.0,46.0 651.0,45.0 652.0,46.0 653.0,45.0 654.0,45.0" fill="none" stroke="#fb46bc" />
	<polyline points="55.0,284.0 56.0,283.0 57.0,283.0 58.0,283.0 59.0,282.0 60.0,282.0 61.0,281.0 62.0,281.0 63.0,280.0 64.0,281.0 65.0,279.0 66.0,279.0 67.0,278.0 68.0,279.0 69.0,278.0 70.0,277.0 71.0,277.0 72.0,277.0 73.0,276.0 74.0,276.0 75.0,275.0 76.0,275.0 77.0,275.0 78.0,274.0 79.0,274.0 80.0,273.0 81.0,273.0 82.0,273.0 83.0,272.0 84.0,271.0 85.0,271.0 86.0,271.0 87.0,271.0 88.0,269.0 89.0,270.0 90.0,269.0 91.0,269.0 92.0,268.0 93.0,268.0 94.0,267.0 95.0,267.0 96.0,266.0 97.0,266.0 98.0,266.0 99.0,265.0 100.0,265.0 101.0,264.0 102.0,264.0 103.0,263.0 104.0,263.0 105.0,262.0 106.0,263.0 107.0,262.0 108.0,261.0 109.0,261.0 110.0,260.0 111.0,260.0 112.0,259.0 113.0,260.0 114.0,258.0 115.0,258.0 116.0,258.0 117.0,257.0 118.0,257.0 119.0,256.0 120.0,256.0 121.0,255.0 122.0,255.0 123.0,255.0 124.0,254.0 125.0,254.0 126.0,253.0 127.0,253.0 128.0,252.0 129.0,252.0 130.0,251.0 131.0,252.0 132.0,250.0 133.0,250.0 134.0,250.0 135.0,249.0 136.0,249.0 137.0,249.0 138.0,248.0 139.0,249.0 140.0,247.0 141.0,247.0 142.0,246.0 143.0,247.0 144.0,246.0 145.0,245.0 146.0,246.0 147.0,244.0 148.0,244.0 149.0,244.0 150.0,244.0 151.0,243.0 152.0,243.0 153.0,241.0 154.0,242.0 155.0,241.0 156.0,240.0 157.0,241.0 158.0,240.0 159.0,240.0 160.0,238.0 161.0,239.0 162.0,238.0 163.0,238.0 164.0,236.0 165.0,237.0 166.0,236.0 167.0,236.0 168.0,236.0 169.0,235.0 170.0,234.0 171.0,235.0 172.0,233.0 173.0,234.0 174.0,232.0 175.0,233.0 176.0,231.0 177.0,232.0 178.0,231.0 179.0,231.0 180.0,229.0 181.0,229.0 182.0,229.0 183.0,229.0 184.0,229.0 185.0,228.0 186.0,227.0 187.0,227.0 188.0,226.0 189.0,227.0 190.0,226.0 191.0,226.0 192.0,225.0 193.0,225.0 194.0,224.0 195.0,225.0 196.0,223.0 197.0,223.0 198.0,223.0 199.0,223.0 200.0,222.0 201.0,222.0 202.0,221.0 203.0,221.0 204.0,220.0 205.0,220.0 206.0,219.0 207.0,219.0 208.0,219.0 209.0,218.0 210.0,218.0 211.0,218.0 212.0,217.0 213.0,216.0 214.0,216.0 215.0,215.0 216.0,215.0 217.0,215.0 218.0,214.0 219.0,214.0 220.0,213.0 221.0,213.0 222.0,213.0 223.0,212.0 224.0,212.0 225.0,211.0 226.0,211.0 227.0,211.0 228.0,210.0 229.0,210.0 230.0,209.0 231.0,209.0 232.0,208.0 233.0,208.0 234.0,207.0 235.0,207.0 236.0,206.0 237.0,206.0 238.0,205.0 239.0,206.0 240.0,204.0 241.0,205.0 242.0,203.0 243.0,205.0 244.0,202.0 245.0,204.0 246.0,201.0 247.0,203.0 248.0,200.0 249.0,201.0 250.0,200.0 251.0,201.0 252.0,199.0 253.0,200.0 254.0,199.0 255.0,198.0 256.0,198.0 257.0,198.0 258.0,198.0 259.0,197.0 260.0,197.0 261.0,196.0 262.0,196.0 263.0,196.0 264.0,194.0 265.0,195.0 266.0,193.0 267.0,194.0 268.0,192.0 269.0,194.0 270.0,191.0 271.0,192.0 272.0,190.0 273.0,191.0 274.0,190.0 275.0,191.0 276.0,189.0 277.0,189.0 278.0,189.0 279.0,188.0 280.0,188.0 281.0,188.0 282.0,187.0 283.0,187.0 284.0,186.0 285.0,186.0 286.0,185.0 287.0,186.0 288.0,184.0 289.0,185.0 290.0,183.0 291.0,184.0 292.0,182.0 293.0,183.0 294.0,181.0 295.0,182.0 296.0,181.0 297.0,180.0 298.0,180.0 299.0,179.0 300.0,180.0 301.0,178.0 302.0,179.0 303.0,178.0 304.0,177.0 305.0,176.0 306.0,177.0 307.0,175.0 308.0,176.0 309.0,174.0 310.0,175.0 311.0,172.0 312.0,174.0 313.0,172.0 314.0,173.0 315.0,172.0 316.0,173.0 317.0,172.0 318.0,172.0 319.0,170.0 320.0,171.0 321.0,170.0 322.0,169.0 323.0,169.0 324.0,168.0 325.0,168.0 326.0,167.0 327.0,167.0 328.0,167.0 329.0,167.0 330.0,165.0 331.0,165.0 332.0,165.0 333.0,165.0 334.0,164.0 335.0,163.0 336.0,163.0 337.0,162.0 338.0,162.0 339.0,161.0 340.0,161.0 341.0,160.0 342.0,161.0 343.0,157.0 344.0,161.0 345.0,156.0 346.0,159.0 347.0,155.0 348.0,158.0 349.0,154.0 350.0,158.0 351.0,152.0 352.0,157.0 353.0,151.0 354.0,156.0 355.0,150.0 356.0,155.0 357.0,148.0 358.0,154.0 359.0,147.0 360.0,154.0 361.0,146.0 362.0,153.0 363.0,146.0 364.0,153.0 365.0,146.0 366.0,151.0 367.0,145.0 368.0,151.0 369.0,145.0 370.0,150.0 371.0,145.0 372.0,149.0 373.0,145.0 374.0,148.0 375.0,145.0 376.0,147.0 377.0,144.0 378.0,147.0 379.0,144.0 380.0,145.0 381.0,144.0 382.0,145.0 383.0,142.0 384.0,144.0 385.0,142.0 386.0,143.0 387.0,142.0 388.0,141.0 389.0,141.0 390.0,142.0 391.0,140.0 392.0,140.0 393.0,139.0 394.0,139.0 395.0,139.0 396.0,138.0 397.0,138.0 398.0,138.0 399.0,136.0 400.0,136.0 401.0,136.0 402.0,135.0 403.0,135.0 404.0,135.0 405.0,134.0 406.0,134.0 407.0,133.0 408.0,133.0 409.0,133.0 410.0,131.0 411.0,133.0 412.0,130.0 413.0,131.0 414.0,130.0 415.0,130.0 416.0,129.0 417.0,130.0 418.0,129.0 419.0,128.0 420.0,128.0 421.0,127.0 422.0,127.0 423.0,126.0 424.0,127.0 425.0,125.0 426.0,126.0 427.0,125.0 428.0,124.0 429.0,123.0 430.0,124.0 431.0,123.0 432.0,123.0 433.0,122.0 434.0,121.0 435.0,121.0 436.0,120.0 437.0,121.0 438.0,119.0 439.0,120.0 440.0,118.0 441.0,119.0 442.0,118.0 443.0,117.0 444.0,117.0 445.0,116.0 446.0,117.0 447.0,115.0 448.0,115.0 449.0,114.0 450.0,114.0 451.0,114.0 452.0,112.0 453.0,112.0 454.0,111.0 455.0,112.0 456.0,110.0 457.0,111.0 458.0,109.0 459.0,110.0 460.0,110.0 461.0,109.0 462.0,109.0 463.0,109.0 464.0,108.0 465.0,108.0 466.0,108.0 467.0,107.0 468.0,107.0 469.0,106.0 470.0,106.0 471.0,106.0 472.0,105.0 473.0,104.0 474.0,104.0 475.0,104.0 476.0,103.0 477.0,103.0 478.0,103.0 479.0,102.0 480.0,103.0 481.0,101.0 482.0,101.0 483.0,100.0 484.0,101.0 485.0,100.0 486.0,100.0 487.0,99.0 488.0,99.0 489.0,98.0 490.0,98.0 491.0,97.0 492.0,97.0 493.0,96.0 494.0,96.0 495.0,95.0 496.0,95.0 497.0,94.0 498.0,94.0 499.0,94.0 500.0,92.0 501.0,93.0 502.0,91.0 503.0,93.0 504.0,90.0 505.0,91.0 506.0,89.0 507.0,90.0 508.0,88.0 509.0,89.0 510.0,85.0 511.0,88.0 512.0,84.0 513.0,86.0 514.0,81.0 515.0,85.0 516.0,79.0 517.0,82.0 518.0,75.0 519.0,79.0 520.0,73.0 521.0,75.0 522.0,69.0 523.0,71.0 524.0,65.0 525.0,67.0 526.0,62.0 527.0,69.0 528.0,61.0 529.0,70.0 530.0,59.0 531.0,71.0 532.0,58.0 533.0,75.0 534.0,57.0 535.0,75.0 536.0,56.0 537.0,78.0 538.0,56.0 539.0,77.0 540.0,57.0 541.0,77.0 542.0,58.0 543.0,76.0 544.0,60.0 545.0,74.0 546.0,61.0 547.0,74.0 548.0,62.0 549.0,73.0 550.0,63.0 551.0,72.0 552.0,64.0 553.0,72.0 554.0,65.0 555.0,72.0 556.0,64.0 557.0,71.0 558.0,64.0 559.0,71.0 560.0,65.0 561.0,69.0 562.0,64.0 563.0,69.0 564.0,64.0 565.0,68.0 566.0,64.0 567.0,66.0 568.0,63.0 569.0,65.0 570.0,62.0 571.0,65.0 572.0,62.0 573.0,64.0 574.0,63.0 575.0,63.0 576.0,61.0 577.0,62.0 578.0,61.0 579.0,61.0 580.0,60.0 581.0,60.0 582.0,59.0 583.0,60.0 584.0,58.0 585.0,58.0 586.0,57.0 587.0,57.0 588.0,57.0 589.0,57.0 590.0,56.0 591.0,56.0 592.0,54.0 593.0,55.0 594.0,53.0 595.0,54.0 596.0,52.0 597.0,54.0 598.0,52.0 599.0,53.0 600.0,50.0 601.0,52.0 602.0,50.0 603.0,51.0 604.0,49.0 605.0,50.0 606.0,49.0 607.0,49.0 608.0,47.0 609.0,48.0 610.0,47.0 611.0,47.0 612.0,46.0 613.0,46.0 614.0,44.0 615.0,44.0 616.0,43.0 617.0,43.0 618.0,43.0 619.0,42.0 620.0,41.0 621.0,40.0 622.0,39.0 623.0,38.0 624.0,38.0 625.0,37.0 626.0,36.0 627.0,34.0 628.0,34.0 629.0,31.0 630.0,30.0 631.0,27.0 632.0,27.0 633.0,25.0 634.0,25.0 635.0,23.0 636.0,25.0 637.0,23.0 638.0,26.0 639.0,24.0 640.0,27.0 641.0,24.0 642.0,27.0 643.0,24.0 644.0,28.0 645.0,26.0 646.0,29.0 647.0,25.0 648.0,29.0 649.0,25.0 650.0,29.0 651.0,25.0 652.0,29.0 653.0,26.0 654.0,29.0" fill="none" stroke="#0000ff" />
	<polyline points="55.0,299.0 56.0,299.0 57.0,299.0 58.0,299.0 59.0,299.0 60.0,299.0 61.0,299.0 62.0,298.0 63.0,298.0 64.0,298.0 65.0,297.0 66.0,297.0 67.0,296.0 68.0,297.0 69.0,296.0 70.0,296.0 71.0,296.0 72.0,295.0 73.0,295.0 74.0,294.0 75.0,294.0 76.0,294.0 77.0,293.0 78.0,293.0 79.0,293.0 80.0,292.0 81.0,292.0 82.0,292.0 83.0,291.0 84.0,291.0 85.0,290.0 86.0,291.0 87.0,289.0 88.0,290.0 89.0,287.0 90.0,288.0 91.0,287.0 92.0,287.0 93.0,287.0 94.0,285.0 95.0,285.0 96.0,285.0 97.0,284.0 98.0,284.0 99.0,284.0 100.0,283.0 101.0,283.0 102.0,283.0 103.0,283.0 104.0,282.0 105.0,282.0 106.0,281.0 107.0,281.0 108.0,280.0 109.0,279.0 110.0,279.0 111.0,278.0 112.0,276.0 113.0,275.0 114.0,273.0 115.0,272.0 116.0,268.0 117.0,269.0 118.0,265.0 119.0,265.0 120.0,263.0 121.0,262.0 122.0,261.0 123.0,260.0 124.0,257.0 125.0,257.0 126.0,257.0 127.0,255.0 128.0,255.0 129.0,253.0 130.0,254.0 131.0,252.0 132.0,251.0 133.0,252.0 134.0,250.0 135.0,251.0 136.0,251.0 137.0,249.0 138.0,249.0 139.0,249.0 140.0,249.0 141.0,247.0 142.0,249.0 143.0,247.0 144.0,247.0 145.0,246.0 146.0,246.0 147.0,245.0 148.0,245.0 149.0,244.0 150.0,244.0 151.0,244.0 152.0,243.0 153.0,243.0 154.0,242.0 155.0,242.0 156.0,242.0 157.0,242.0 158.0,240.0 159.0,242.0 160.0,239.0 161.0,240.0 162.0,239.0 163.0,240.0 164.0,238.0 165.0,240.0 166.0,237.0 167.0,239.0 168.0,237.0 169.0,238.0 170.0,236.0 171.0,237.0 172.0,237.0 173.0,237.0 174.0,235.0 175.0,236.0 176.0,236.0 177.0,235.0 178.0,234.0 179.0,235.0 180.0,234.0 181.0,234.0 182.0,234.0 183.0,234.0 184.0,233.0 185.0,232.0 186.0,233.0 187.0,232.0 188.0,233.0 189.0,231.0 190.0,232.0 191.0,232.0 192.0,231.0 193.0,231.0 194.0,232.0 195.0,231.0 196.0,230.0 197.0,231.0 198.0,230.0 199.0,229.0 200.0,230.0 201.0,229.0 202.0,229.0 203.0,230.0 204.0,229.0 205.0,229.0 206.0,229.0 207.0,230.0 208.0,229.0 209.0,230.0 210.0,229.0 211.0,228.0 212.0,229.0 213.0,229.0 214.0,228.0 215.0,230.0 216.0,227.0 217.0,229.0 218.0,228.0 219.0,228.0 220.0,228.0 221.0,227.0 222.0,227.0 223.0,227.0 224.0,227.0 225.0,227.0 226.0,225.0 227.0,225.0 228.0,225.0 229.0,226.0 230.0,223.0 231.0,225.0 232.0,224.0 233.0,224.0 234.0,223.0 235.0,222.0 236.0,222.0 237.0,221.0 238.0,221.0 239.0,221.0 240.0,221.0 241.0,220.0 242.0,220.0 243.0,220.0 244.0,219.0 245.0,218.0 246.0,219.0 247.0,218.0 248.0,218.0 249.0,218.0 250.0,217.0 251.0,217.0 252.0,215.0 253.0,215.0 254.0,214.0 255.0,214.0 256.0,213.0 257.0,213.0 258.0,213.0 259.0,211.0 260.0,212.0 261.0,210.0 262.0,211.0 263.0,210.0 264.0,210.0 265.0,208.0 266.0,209.0 267.0,206.0 268.0,207.0 269.0,206.0 270.0,207.0 271.0,205.0 272.0,206.0 273.0,205.0 274.0,202.0 275.0,204.0 276.0,203.0 277.0,203.0 278.0,203.0 279.0,203.0 280.0,203.0 281.0,202.0 282.0,204.0 283.0,203.0 284.0,204.0 285.0,204.0 286.0,204.0 287.0,204.0 288.0,204.0 289.0,202.0 290.0,203.0 291.0,201.0 292.0,201.0 293.0,201.0 294.0,202.0 295.0,199.0 296.0,200.0 297.0,199.0 298.0,200.0 299.0,198.0 300.0,200.0 301.0,198.0 302.0,199.0 303.0,197.0 304.0,199.0 305.0,196.0 306.0,198.0 307.0,196.0 308.0,197.0 309.0,194.0 310.0,197.0 311.0,193.0 312.0,195.0 313.0,191.0 314.0,194.0 315.0,191.0 316.0,193.0 317.0,190.0 318.0,192.0 319.0,188.0 320.0,191.0 321.0,186.0 322.0,188.0 323.0,185.0 324.0,187.0 325.0,183.0 326.0,186.0 327.0,180.0 328.0,183.0 329.0,179.0 330.0,181.0 331.0,177.0 332.0,178.0 333.0,175.0 334.0,177.0 335.0,171.0 336.0,176.0 337.0,169.0 338.0,174.0 339.0,168.0 340.0,172.0 341.0,166.0 342.0,171.0 343.0,162.0 344.0,169.0 345.0,161.0 346.0,167.0 347.0,159.0 348.0,165.0 349.0,158.0 350.0,164.0 351.0,157.0 352.0,164.0 353.0,156.0 354.0,163.0 355.0,154.0 356.0,163.0 357.0,153.0 358.0,160.0 359.0,152.0 360.0,161.0 361.0,151.0 362.0,160.0 363.0,151.0 364.0,159.0 365.0,150.0 366.0,159.0 367.0,151.0 368.0,157.0 369.0,152.0 370.0,157.0 371.0,151.0 372.0,157.0 373.0,151.0 374.0,156.0 375.0,151.0 376.0,155.0 377.0,152.0 378.0,155.0 379.0,151.0 380.0,153.0 381.0,152.0 382.0,154.0 383.0,152.0 384.0,155.0 385.0,151.0 386.0,153.0 387.0,152.0 388.0,153.0 389.0,151.0 390.0,152.0 391.0,151.0 392.0,151.0 393.0,151.0 394.0,151.0 395.0,151.0 396.0,151.0 397.0,151.0 398.0,151.0 399.0,152.0 400.0,151.0 401.0,150.0 402.0,149.0 403.0,149.0 404.0,150.0 405.0,148.0 406.0,149.0 407.0,149.0 408.0,149.0 409.0,148.0 410.0,149.0 411.0,148.0 412.0,147.0 413.0,149.0 414.0,147.0 415.0,149.0 416.0,148.0 417.0,148.0 418.0,149.0 419.0,148.0 420.0,147.0 421.0,147.0 422.0,147.0 423.0,147.0 424.0,147.0 425.0,147.0 426.0,146.0 427.0,146.0 428.0,146.0 429.0,146.0 430.0,146.0 431.0,145.0 432.0,145.0 433.0,144.0 434.0,145.0 435.0,144.0 436.0,144.0 437.0,143.0 438.0,143.0 439.0,142.0 440.0,142.0 441.0,141.0 442.0,141.0 443.0,140.0 444.0,140.0 445.0,138.0 446.0,139.0 447.0,137.0 448.0,139.0 449.0,136.0 450.0,138.0 451.0,135.0 452.0,136.0 453.0,134.0 454.0,135.0 455.0,133.0 456.0,133.0 457.0,132.0 458.0,132.0 459.0,131.0 460.0,131.0 461.0,131.0 462.0,131.0 463.0,131.0 464.0,130.0 465.0,130.0 466.0,129.0 467.0,129.0 468.0,128.0 469.0,127.0 470.0,128.0 471.0,126.0 472.0,126.0 473.0,126.0 474.0,125.0 475.0,125.0 476.0,126.0 477.0,121.0 478.0,123.0 479.0,121.0 480.0,122.0 481.0,120.0 482.0,120.0 483.0,120.0 484.0,119.0 485.0,119.0 486.0,118.0 487.0,117.0 488.0,117.0 489.0,117.0 490.0,116.0 491.0,116.0 492.0,114.0 493.0,115.0 494.0,114.0 495.0,114.0 496.0,112.0 497.0,112.0 498.0,112.0 499.0,110.0 500.0,111.0 501.0,109.0 502.0,109.0 503.0,108.0 504.0,107.0 505.0,106.0 506.0,105.0 507.0,104.0 508.0,103.0 509.0,102.0 510.0,102.0 511.0,101.0 512.0,100.0 513.0,100.0 514.0,98.0 515.0,97.0 516.0,97.0 517.0,93.0 518.0,94.0 519.0,90.0 520.0,92.0 521.0,84.0 522.0,88.0 523.0,79.0 524.0,86.0 525.0,73.0 526.0,84.0 527.0,71.0 528.0,83.0 529.0,71.0 530.0,83.0 531.0,72.0 532.0,81.0 533.0,75.0 534.0,81.0 535.0,77.0 536.0,80.0 537.0,80.0 538.0,79.0 539.0,81.0 540.0,79.0 541.0,82.0 542.0,79.0 543.0,84.0 544.0,79.0 545.0,83.0 546.0,79.0 547.0,83.0 548.0,80.0 549.0,84.0 550.0,81.0 551.0,84.0 552.0,81.0 553.0,83.0 554.0,81.0 555.0,83.0 556.0,81.0 557.0,83.0 558.0,81.0 559.0,82.0 560.0,80.0 561.0,82.0 562.0,81.0 563.0,81.0 564.0,80.0 565.0,81.0 566.0,79.0 567.0,79.0 568.0,79.0 569.0,79.0 570.0,77.0 571.0,78.0 572.0,77.0 573.0,76.0 574.0,76.0 575.0,76.0 576.0,76.0 577.0,75.0 578.0,75.0 579.0,75.0 580.0,75.0 581.0,74.0 582.0,74.0 583.0,72.0 584.0,73.0 585.0,74.0 586.0,74.0 587.0,74.0 588.0,74.0 589.0,75.0 590.0,74.0 591.0,73.0 592.0,73.0 593.0,72.0 594.0,72.0 595.0,71.0 596.0,71.0 597.0,71.0 598.0,70.0 599.0,70.0 600.0,68.0 601.0,68.0 602.0,68.0 603.0,68.0 604.0,66.0 605.0,67.0 606.0,67.0 607.0,66.0 608.0,66.0 609.0,65.0 610.0,65.0 611.0,65.0 612.0,63.0 613.0,64.0 614.0,63.0 615.0,63.0 616.0,62.0 617.0,61.0 618.0,59.0 619.0,60.0 620.0,57.0 621.0,58.0 622.0,55.0 623.0,56.0 624.0,54.0 625.0,52.0 626.0,52.0 627.0,51.0 628.0,48.0 629.0,47.0 630.0,45.0 631.0,43.0 632.0,41.0 633.0,40.0 634.0,38.0 635.0,37.0 636.0,37.0 637.0,39.0 638.0,38.0 639.0,40.0 640.0,40.0 641.0,41.0 642.0,40.0 643.0,42.0 644.0,42.0 645.0,43.0 646.0,42.0 647.0,43.0 648.0,42.0 649.0,43.0 650.0,42.0 651.0,42.0 652.0,42.0 653.0,42.0 654.0,43.0" fill="none" stroke="#00bfff" />
	<polyline points="55.0,301.0 56.0,301.0 57.0,300.0 58.0,300.0 59.0,300.0 60.0,300.0 61.0,299.0 62.0,299.0 63.0,297.0 64.0,297.0 65.0,296.0 66.0,296.0 67.0,296.0 68.0,296.0 69.0,295.0 70.0,293.0 71.0,294.0 72.0,293.0 73.0,292.0 74.0,292.0 75.0,290.0 76.0,291.0 77.0,290.0 78.0,289.0 79.0,289.0 80.0,289.0 81.0,288.0 82.0,288.0 83.0,288.0 84.0,287.0 85.0,286.0 86.0,286.0 87.0,285.0 88.0,285.0 89.0,284.0 90.0,283.0 91.0,284.0 92.0,284.0 93.0,282.0 94.0,283.0 95.0,283.0 96.0,281.0 97.0,282.0 98.0,281.0 99.0,280.0 100.0,280.0 101.0,279.0 102.0,279.0 103.0,279.0 104.0,278.0 105.0,278.0 106.0,278.0 107.0,277.0 108.0,278.0 109.0,276.0 110.0,276.0 111.0,276.0 112.0,276.0 113.0,274.0 114.0,275.0 115.0,273.0 116.0,273.0 117.0,274.0 118.0,272.0 119.0,272.0 120.0,271.0 121.0,271.0 122.0,270.0 123.0,269.0 124.0,269.0 125.0,268.0 126.0,269.0 127.0,268.0 128.0,267.0 129.0,267.0 130.0,267.0 131.0,267.0 132.0,267.0 133.0,264.0 134.0,265.0 135.0,264.0 136.0,264.0 137.0,263.0 138.0,263.0 139.0,263.0 140.0,262.0 141.0,263.0 142.0,261.0 143.0,261.0 144.0,260.0 145.0,261.0 146.0,259.0 147.0,259.0 148.0,258.0 149.0,259.0 150.0,258.0 151.0,257.0 152.0,257.0 153.0,257.0 154.0,257.0 155.0,257.0 156.0,256.0 157.0,256.0 158.0,255.0 159.0,255.0 160.0,254.0 161.0,254.0 162.0,253.0 163.0,252.0 164.0,251.0 165.0,252.0 166.0,250.0 167.0,251.0 168.0,249.0 169.0,250.0 170.0,250.0 171.0,249.0 172.0,249.0 173.0,249.0 174.0,244.0 175.0,246.0 176.0,245.0 177.0,246.0 178.0,244.0 179.0,245.0 180.0,244.0 181.0,243.0 182.0,244.0 183.0,243.0 184.0,242.0 185.0,242.0 186.0,241.0 187.0,241.0 188.0,241.0 189.0,240.0 190.0,241.0 191.0,239.0 192.0,241.0 193.0,239.0 194.0,239.0 195.0,239.0 196.0,237.0 197.0,238.0 198.0,236.0 199.0,236.0 200.0,236.0 201.0,236.0 202.0,235.0 203.0,233.0 204.0,234.0 205.0,233.0 206.0,232.0 207.0,232.0 208.0,231.0 209.0,231.0 210.0,231.0 211.0,231.0 212.0,230.0 213.0,230.0 214.0,228.0 215.0,229.0 216.0,229.0 217.0,228.0 218.0,228.0 219.0,228.0 220.0,228.0 221.0,226.0 222.0,226.0 223.0,227.0 224.0,224.0 225.0,225.0 226.0,225.0 227.0,225.0 228.0,224.0 229.0,224.0 230.0,224.0 231.0,223.0 232.0,224.0 233.0,223.0 234.0,222.0 235.0,221.0 236.0,221.0 237.0,220.0 238.0,220.0 239.0,220.0 240.0,220.0 241.0,220.0 242.0,218.0 243.0,219.0 244.0,215.0 245.0,216.0 246.0,216.0 247.0,215.0 248.0,215.0 249.0,216.0 250.0,214.0 251.0,214.0 252.0,214.0 253.0,214.0 254.0,214.0 255.0,213.0 256.0,213.0 257.0,210.0 258.0,211.0 259.0,209.0 260.0,211.0 261.0,209.0 262.0,210.0 263.0,209.0 264.0,208.0 265.0,208.0 266.0,208.0 267.0,208.0 268.0,207.0 269.0,206.0 270.0,208.0 271.0,206.0 272.0,206.0 273.0,206.0 274.0,206.0 275.0,206.0 276.0,206.0 277.0,205.0 278.0,206.0 279.0,204.0 280.0,205.0 281.0,204.0 282.0,203.0 283.0,201.0 284.0,203.0 285.0,202.0 286.0,202.0 287.0,201.0 288.0,200.0 289.0,200.0 290.0,200.0 291.0,199.0 292.0,199.0 293.0,197.0 294.0,197.0 295.0,196.0 296.0,196.0 297.0,194.0 298.0,194.0 299.0,191.0 300.0,193.0 301.0,190.0 302.0,192.0 303.0,188.0 304.0,190.0 305.0,187.0 306.0,188.0 307.0,186.0 308.0,187.0 309.0,185.0 310.0,187.0 311.0,182.0 312.0,185.0 313.0,183.0 314.0,184.0 315.0,182.0 316.0,183.0 317.0,180.0 318.0,181.0 319.0,180.0 320.0,180.0 321.0,178.0 322.0,181.0 323.0,176.0 324.0,179.0 325.0,175.0 326.0,177.0 327.0,175.0 328.0,176.0 329.0,173.0 330.0,176.0 331.0,173.0 332.0,175.0 333.0,172.0 334.0,175.0 335.0,171.0 336.0,173.0 337.0,171.0 338.0,173.0 339.0,170.0 340.0,172.0 341.0,168.0 342.0,171.0 343.0,167.0 344.0,171.0 345.0,166.0 346.0,171.0 347.0,165.0 348.0,168.0 349.0,164.0 350.0,168.0 351.0,162.0 352.0,166.0 353.0,162.0 354.0,167.0 355.0,161.0 356.0,166.0 357.0,160.0 358.0,165.0 359.0,158.0 360.0,165.0 361.0,159.0 362.0,165.0 363.0,158.0 364.0,165.0 365.0,158.0 366.0,163.0 367.0,159.0 368.0,164.0 369.0,159.0 370.0,164.0 371.0,158.0 372.0,163.0 373.0,159.0 374.0,162.0 375.0,158.0 376.0,160.0 377.0,158.0 378.0,160.0 379.0,157.0 380.0,159.0 381.0,157.0 382.0,158.0 383.0,157.0 384.0,157.0 385.0,156.0 386.0,157.0 387.0,156.0 388.0,156.0 389.0,154.0 390.0,155.0 391.0,154.0 392.0,154.0 393.0,153.0 394.0,153.0 395.0,151.0 396.0,151.0 397.0,151.0 398.0,151.0 399.0,152.0 400.0,147.0 401.0,149.0 402.0,148.0 403.0,148.0 404.0,147.0 405.0,146.0 406.0,145.0 407.0,146.0 408.0,145.0 409.0,145.0 410.0,144.0 411.0,142.0 412.0,143.0 413.0,139.0 414.0,140.0 415.0,137.0 416.0,137.0 417.0,137.0 418.0,136.0 419.0,136.0 420.0,133.0 421.0,134.0 422.0,133.0 423.0,132.0 424.0,133.0 425.0,130.0 426.0,132.0 427.0,129.0 428.0,130.0 429.0,130.0 430.0,128.0 431.0,129.0 432.0,127.0 433.0,127.0 434.0,127.0 435.0,126.0 436.0,126.0 437.0,124.0 438.0,125.0 439.0,123.0 440.0,124.0 441.0,123.0 442.0,123.0 443.0,121.0 444.0,123.0 445.0,120.0 446.0,122.0 447.0,120.0 448.0,121.0 449.0,120.0 450.0,120.0 451.0,119.0 452.0,120.0 453.0,117.0 454.0,119.0 455.0,117.0 456.0,118.0 457.0,117.0 458.0,116.0 459.0,117.0 460.0,115.0 461.0,116.0 462.0,116.0 463.0,114.0 464.0,115.0 465.0,115.0 466.0,114.0 467.0,113.0 468.0,114.0 469.0,113.0 470.0,114.0 471.0,114.0 472.0,112.0 473.0,113.0 474.0,112.0 475.0,111.0 476.0,112.0 477.0,111.0 478.0,111.0 479.0,110.0 480.0,110.0 481.0,109.0 482.0,109.0 483.0,109.0 484.0,109.0 485.0,108.0 486.0,107.0 487.0,108.0 488.0,107.0 489.0,106.0 490.0,106.0 491.0,106.0 492.0,106.0 493.0,106.0 494.0,105.0 495.0,106.0 496.0,105.0 497.0,105.0 498.0,105.0 499.0,104.0 500.0,103.0 501.0,104.0 502.0,103.0 503.0,103.0 504.0,104.0 505.0,103.0 506.0,102.0 507.0,103.0 508.0,102.0 509.0,103.0 510.0,101.0 511.0,102.0 512.0,99.0 513.0,101.0 514.0,98.0 515.0,98.0 516.0,98.0 517.0,95.0 518.0,96.0 519.0,92.0 520.0,93.0 521.0,87.0 522.0,92.0 523.0,81.0 524.0,89.0 525.0,76.0 526.0,88.0 527.0,74.0 528.0,87.0 529.0,75.0 530.0,85.0 531.0,77.0 532.0,85.0 533.0,79.0 534.0,84.0 535.0,82.0 536.0,83.0 537.0,83.0 538.0,82.0 539.0,85.0 540.0,82.0 541.0,86.0 542.0,83.0 543.0,87.0 544.0,83.0 545.0,88.0 546.0,84.0 547.0,88.0 548.0,85.0 549.0,86.0 550.0,84.0 551.0,87.0 552.0,85.0 553.0,87.0 554.0,85.0 555.0,86.0 556.0,85.0 557.0,86.0 558.0,85.0 559.0,86.0 560.0,84.0 561.0,85.0 562.0,84.0 563.0,84.0 564.0,84.0 565.0,83.0 566.0,83.0 567.0,84.0 568.0,82.0 569.0,82.0 570.0,81.0 571.0,80.0 572.0,80.0 573.0,81.0 574.0,80.0 575.0,79.0 576.0,79.0 577.0,78.0 578.0,78.0 579.0,78.0 580.0,77.0 581.0,77.0 582.0,77.0 583.0,76.0 584.0,76.0 585.0,69.0 586.0,72.0 587.0,71.0 588.0,71.0 589.0,69.0 590.0,69.0 591.0,68.0 592.0,69.0 593.0,69.0 594.0,69.0 595.0,69.0 596.0,68.0 597.0,68.0 598.0,68.0 599.0,67.0 600.0,66.0 601.0,67.0 602.0,65.0 603.0,64.0 604.0,64.0 605.0,63.0 606.0,62.0 607.0,60.0 608.0,60.0 609.0,59.0 610.0,58.0 611.0,57.0 612.0,58.0 613.0,56.0 614.0,56.0 615.0,56.0 616.0,55.0 617.0,55.0 618.0,54.0 619.0,55.0 620.0,52.0 621.0,53.0 622.0,51.0 623.0,51.0 624.0,50.0 625.0,49.0 626.0,48.0 627.0,48.0 628.0,46.0 629.0,45.0 630.0,44.0 631.0,41.0 632.0,40.0 633.0,38.0 634.0,37.0 635.0,39.0 636.0,36.0 637.0,39.0 638.0,37.0 639.0,39.0 640.0,39.0 641.0,40.0 642.0,40.0 643.0,41.0 644.0,40.0 645.0,42.0 646.0,42.0 647.0,42.0 648.0,42.0 649.0,43.0 650.0,43.0 651.0,43.0 652.0,43.0 653.0,42.0 654.0,43.0" fill="none" stroke="#4876ff" />
	<polyline points="55.0,284.0 56.0,283.0 57.0,283.0 58.0,283.0 59.0,282.0 60.0,282.0 61.0,281.0 62.0,281.0 63.0,280.0 64.0,281.0 65.0,279.0 66.0,279.0 67.0,279.0 68.0,278.0 69.0,278.0 70.0,277.0 71.0,277.0 72.0,276.0 73.0,276.0 74.0,276.0 75.0,276.0 76.0,275.0 77.0,274.0 78.0,274.0 79.0,274.0 80.0,273.0 81.0,273.0 82.0,273.0 83.0,272.0 84.0,271.0 85.0,271.0 86.0,270.0 87.0,271.0 88.0,270.0 89.0,269.0 90.0,269.0 91.0,268.0 92.0,269.0 93.0,268.0 94.0,267.0 95.0,267.0 96.0,266.0 97.0,266.0 98.0,265.0 99.0,265.0 100.0,265.0 101.0,264.0 102.0,264.0 103.0,263.0 104.0,264.0 105.0,262.0 106.0,263.0 107.0,261.0 108.0,261.0 109.0,260.0 110.0,261.0 111.0,259.0 112.0,259.0 113.0,259.0 114.0,258.0 115.0,259.0 116.0,257.0 117.0,257.0 118.0,257.0 119.0,257.0 120.0,255.0 121.0,256.0 122.0,255.0 123.0,254.0 124.0,254.0 125.0,254.0 126.0,253.0 127.0,253.0 128.0,252.0 129.0,252.0 130.0,252.0 131.0,250.0 132.0,250.0 133.0,250.0 134.0,249.0 135.0,249.0 136.0,249.0 137.0,249.0 138.0,248.0 139.0,248.0 140.0,247.0 141.0,248.0 142.0,246.0 143.0,246.0 144.0,246.0 145.0,246.0 146.0,245.0 147.0,245.0 148.0,244.0 149.0,244.0 150.0,243.0 151.0,243.0 152.0,242.0 153.0,242.0 154.0,241.0 155.0,242.0 156.0,240.0 157.0,241.0 158.0,239.0 159.0,239.0 160.0,239.0 161.0,239.0 162.0,237.0 163.0,238.0 164.0,237.0 165.0,237.0 166.0,236.0 167.0,236.0 168.0,235.0 169.0,235.0 170.0,235.0 171.0,234.0 172.0,234.0 173.0,233.0 174.0,233.0 175.0,233.0 176.0,232.0 177.0,232.0 178.0,231.0 179.0,231.0 180.0,230.0 181.0,230.0 182.0,229.0 183.0,229.0 184.0,229.0 185.0,228.0 186.0,228.0 187.0,227.0 188.0,227.0 189.0,226.0 190.0,227.0 191.0,226.0 192.0,225.0 193.0,225.0 194.0,225.0 195.0,224.0 196.0,223.0 197.0,223.0 198.0,223.0 199.0,222.0 200.0,222.0 201.0,221.0 202.0,221.0 203.0,221.0 204.0,220.0 205.0,220.0 206.0,219.0 207.0,219.0 208.0,218.0 209.0,218.0 210.0,217.0 211.0,218.0 212.0,217.0 213.0,217.0 214.0,216.0 215.0,216.0 216.0,215.0 217.0,215.0 218.0,214.0 219.0,214.0 220.0,213.0 221.0,213.0 222.0,212.0 223.0,213.0 224.0,211.0 225.0,212.0 226.0,211.0 227.0,211.0 228.0,210.0 229.0,210.0 230.0,210.0 231.0,208.0 232.0,209.0 233.0,207.0 234.0,208.0 235.0,206.0 236.0,206.0 237.0,206.0 238.0,206.0 239.0,205.0 240.0,205.0 241.0,204.0 242.0,204.0 243.0,203.0 244.0,203.0 245.0,203.0 246.0,202.0 247.0,202.0 248.0,201.0 249.0,202.0 250.0,200.0 251.0,201.0 252.0,199.0 253.0,200.0 254.0,199.0 255.0,200.0 256.0,198.0 257.0,198.0 258.0,197.0 259.0,197.0 260.0,197.0 261.0,197.0 262.0,195.0 263.0,196.0 264.0,195.0 265.0,194.0 266.0,194.0 267.0,194.0 268.0,193.0 269.0,192.0 270.0,192.0 271.0,192.0 272.0,191.0 273.0,191.0 274.0,191.0 275.0,190.0 276.0,190.0 277.0,189.0 278.0,189.0 279.0,188.0 280.0,189.0 281.0,187.0 282.0,188.0 283.0,186.0 284.0,187.0 285.0,185.0 286.0,186.0 287.0,185.0 288.0,185.0 289.0,183.0 290.0,183.0 291.0,182.0 292.0,183.0 293.0,181.0 294.0,183.0 295.0,179.0 296.0,182.0 297.0,179.0 298.0,180.0 299.0,179.0 300.0,179.0 301.0,178.0 302.0,178.0 303.0,176.0 304.0,177.0 305.0,175.0 306.0,177.0 307.0,175.0 308.0,176.0 309.0,175.0 310.0,174.0 311.0,174.0 312.0,174.0 313.0,173.0 314.0,173.0 315.0,172.0 316.0,173.0 317.0,171.0 318.0,172.0 319.0,170.0 320.0,171.0 321.0,169.0 322.0,171.0 323.0,168.0 324.0,169.0 325.0,168.0 326.0,168.0 327.0,167.0 328.0,167.0 329.0,166.0 330.0,166.0 331.0,165.0 332.0,165.0 333.0,164.0 334.0,165.0 335.0,162.0 336.0,165.0 337.0,161.0 338.0,163.0 339.0,160.0 340.0,162.0 341.0,159.0 342.0,161.0 343.0,158.0 344.0,160.0 345.0,157.0 346.0,159.0 347.0,155.0 348.0,158.0 349.0,155.0 350.0,157.0 351.0,153.0 352.0,156.0 353.0,152.0 354.0,155.0 355.0,151.0 356.0,154.0 357.0,150.0 358.0,154.0 359.0,148.0 360.0,153.0 361.0,147.0 362.0,153.0 363.0,146.0 364.0,151.0 365.0,147.0 366.0,151.0 367.0,146.0 368.0,150.0 369.0,145.0 370.0,149.0 371.0,145.0 372.0,149.0 373.0,145.0 374.0,147.0 375.0,146.0 376.0,146.0 377.0,146.0 378.0,145.0 379.0,145.0 380.0,145.0 381.0,144.0 382.0,143.0 383.0,144.0 384.0,143.0 385.0,144.0 386.0,141.0 387.0,144.0 388.0,140.0 389.0,142.0 390.0,139.0 391.0,141.0 392.0,139.0 393.0,141.0 394.0,138.0 395.0,140.0 396.0,137.0 397.0,140.0 398.0,136.0 399.0,139.0 400.0,135.0 401.0,138.0 402.0,134.0 403.0,137.0 404.0,132.0 405.0,137.0 406.0,132.0 407.0,135.0 408.0,131.0 409.0,134.0 410.0,131.0 411.0,134.0 412.0,130.0 413.0,133.0 414.0,130.0 415.0,131.0 416.0,128.0 417.0,131.0 418.0,128.0 419.0,130.0 420.0,127.0 421.0,128.0 422.0,127.0 423.0,127.0 424.0,126.0 425.0,127.0 426.0,124.0 427.0,126.0 428.0,123.0 429.0,126.0 430.0,121.0 431.0,125.0 432.0,121.0 433.0,124.0 434.0,120.0 435.0,124.0 436.0,119.0 437.0,123.0 438.0,117.0 439.0,122.0 440.0,116.0 441.0,121.0 442.0,115.0 443.0,120.0 444.0,115.0 445.0,119.0 446.0,114.0 447.0,118.0 448.0,113.0 449.0,115.0 450.0,112.0 451.0,115.0 452.0,110.0 453.0,113.0 454.0,109.0 455.0,114.0 456.0,109.0 457.0,114.0 458.0,108.0 459.0,113.0 460.0,107.0 461.0,112.0 462.0,107.0 463.0,111.0 464.0,106.0 465.0,110.0 466.0,106.0 467.0,109.0 468.0,105.0 469.0,108.0 470.0,105.0 471.0,107.0 472.0,105.0 473.0,106.0 474.0,104.0 475.0,105.0 476.0,104.0 477.0,104.0 478.0,102.0 479.0,104.0 480.0,101.0 481.0,104.0 482.0,100.0 483.0,102.0 484.0,98.0 485.0,101.0 486.0,98.0 487.0,101.0 488.0,97.0 489.0,101.0 490.0,97.0 491.0,99.0 492.0,95.0 493.0,98.0 494.0,94.0 495.0,98.0 496.0,92.0 497.0,97.0 498.0,91.0 499.0,97.0 500.0,89.0 501.0,97.0 502.0,88.0 503.0,97.0 504.0,86.0 505.0,97.0 506.0,84.0 507.0,95.0 508.0,82.0 509.0,96.0 510.0,80.0 511.0,95.0 512.0,78.0 513.0,94.0 514.0,75.0 515.0,92.0 516.0,72.0 517.0,90.0 518.0,70.0 519.0,86.0 520.0,67.0 521.0,82.0 522.0,65.0 523.0,74.0 524.0,64.0 525.0,67.0 526.0,66.0 527.0,61.0 528.0,66.0 529.0,59.0 530.0,67.0 531.0,59.0 532.0,67.0 533.0,60.0 534.0,68.0 535.0,62.0 536.0,68.0 537.0,63.0 538.0,68.0 539.0,64.0 540.0,68.0 541.0,65.0 542.0,68.0 543.0,65.0 544.0,68.0 545.0,66.0 546.0,68.0 547.0,66.0 548.0,69.0 549.0,66.0 550.0,69.0 551.0,67.0 552.0,70.0 553.0,68.0 554.0,69.0 555.0,68.0 556.0,68.0 557.0,67.0 558.0,69.0 559.0,66.0 560.0,68.0 561.0,67.0 562.0,68.0 563.0,66.0 564.0,67.0 565.0,65.0 566.0,67.0 567.0,64.0 568.0,66.0 569.0,64.0 570.0,65.0 571.0,63.0 572.0,65.0 573.0,62.0 574.0,64.0 575.0,61.0 576.0,63.0 577.0,61.0 578.0,62.0 579.0,61.0 580.0,61.0 581.0,59.0 582.0,59.0 583.0,58.0 584.0,59.0 585.0,58.0 586.0,58.0 587.0,57.0 588.0,57.0 589.0,56.0 590.0,56.0 591.0,55.0 592.0,56.0 593.0,54.0 594.0,55.0 595.0,53.0 596.0,55.0 597.0,51.0 598.0,53.0 599.0,51.0 600.0,53.0 601.0,49.0 602.0,50.0 603.0,49.0 604.0,50.0 605.0,48.0 606.0,51.0 607.0,47.0 608.0,51.0 609.0,45.0 610.0,50.0 611.0,44.0 612.0,50.0 613.0,41.0 614.0,49.0 615.0,40.0 616.0,49.0 617.0,37.0 618.0,50.0 619.0,35.0 620.0,51.0 621.0,32.0 622.0,51.0 623.0,29.0 624.0,50.0 625.0,26.0 626.0,50.0 627.0,22.0 628.0,51.0 629.0,17.0 630.0,49.0 631.0,14.0 632.0,45.0 633.0,14.0 634.0,37.0 635.0,16.0 636.0,30.0 637.0,20.0 638.0,28.0 639.0,22.0 640.0,26.0 641.0,24.0 642.0,27.0 643.0,25.0 644.0,27.0 645.0,25.0 646.0,27.0 647.0,26.0 648.0,28.0 649.0,27.0 650.0,27.0 651.0,26.0 652.0,28.0 653.0,26.0 654.0,28.0" fill="none" stroke="#aeeeee" />
	<polyline points="55.0,287.0 56.0,286.0 57.0,285.0 58.0,286.0 59.0,285.0 60.0,285.0 61.0,284.0 62.0,285.0 63.0,284.0 64.0,285.0 65.0,284.0 66.0,285.0 67.0,285.0 68.0,285.0 69.0,286.0 70.0,285.0 71.0,286.0 72.0,286.0 73.0,285.0 74.0,287.0 75.0,286.0 76.0,287.0 77.0,287.0 78.0,286.0 79.0,287.0 80.0,288.0 81.0,288.0 82.0,288.0 83.0,287.0 84.0,287.0 85.0,287.0 86.0,286.0 87.0,286.0 88.0,284.0 89.0,285.0 90.0,285.0 91.0,284.0 92.0,284.0 93.0,284.0 94.0,284.0 95.0,283.0 96.0,283.0 97.0,282.0 98.0,282.0 99.0,282.0 100.0,281.0 101.0,281.0 102.0,279.0 103.0,279.0 104.0,279.0 105.0,277.0 106.0,278.0 107.0,275.0 108.0,276.0 109.0,275.0 110.0,274.0 111.0,274.0 112.0,273.0 113.0,271.0 114.0,271.0 115.0,272.0 116.0,272.0 117.0,272.0 118.0,271.0 119.0,271.0 120.0,271.0 121.0,271.0 122.0,271.0 123.0,271.0 124.0,272.0 125.0,272.0 126.0,272.0 127.0,273.0 128.0,272.0 129.0,272.0 130.0,272.0 131.0,273.0 132.0,272.0 133.0,271.0 134.0,271.0 135.0,271.0 136.0,271.0 137.0,271.0 138.0,270.0 139.0,270.0 140.0,269.0 141.0,269.0 142.0,269.0 143.0,269.0 144.0,267.0 145.0,268.0 146.0,267.0 147.0,267.0 148.0,266.0 149.0,266.0 150.0,265.0 151.0,265.0 152.0,265.0 153.0,264.0 154.0,263.0 155.0,263.0 156.0,262.0 157.0,262.0 158.0,260.0 159.0,260.0 160.0,259.0 161.0,260.0 162.0,257.0 163.0,258.0 164.0,257.0 165.0,258.0 166.0,255.0 167.0,256.0 168.0,255.0 169.0,252.0 170.0,253.0 171.0,253.0 172.0,251.0 173.0,251.0 174.0,250.0 175.0,250.0 176.0,248.0 177.0,248.0 178.0,247.0 179.0,246.0 180.0,245.0 181.0,244.0 182.0,244.0 183.0,243.0 184.0,243.0 185.0,242.0 186.0,242.0 187.0,241.0 188.0,241.0 189.0,241.0 190.0,240.0 191.0,239.0 192.0,238.0 193.0,238.0 194.0,237.0 195.0,236.0 196.0,236.0 197.0,235.0 198.0,234.0 199.0,234.0 200.0,232.0 201.0,232.0 202.0,232.0 203.0,231.0 204.0,230.0 205.0,230.0 206.0,229.0 207.0,228.0 208.0,227.0 209.0,226.0 210.0,226.0 211.0,225.0 212.0,224.0 213.0,224.0 214.0,223.0 215.0,223.0 216.0,222.0 217.0,222.0 218.0,221.0 219.0,221.0 220.0,220.0 221.0,220.0 222.0,220.0 223.0,220.0 224.0,220.0 225.0,219.0 226.0,219.0 227.0,220.0 228.0,218.0 229.0,219.0 230.0,219.0 231.0,218.0 232.0,218.0 233.0,218.0 234.0,216.0 235.0,217.0 236.0,216.0 237.0,216.0 238.0,216.0 239.0,215.0 240.0,214.0 241.0,215.0 242.0,212.0 243.0,214.0 244.0,212.0 245.0,212.0 246.0,211.0 247.0,211.0 248.0,210.0 249.0,210.0 250.0,209.0 251.0,209.0 252.0,207.0 253.0,209.0 254.0,206.0 255.0,207.0 256.0,206.0 257.0,206.0 258.0,206.0 259.0,205.0 260.0,205.0 261.0,204.0 262.0,205.0 263.0,203.0 264.0,204.0 265.0,203.0 266.0,202.0 267.0,202.0 268.0,202.0 269.0,201.0 270.0,200.0 271.0,199.0 272.0,200.0 273.0,198.0 274.0,199.0 275.0,198.0 276.0,198.0 277.0,197.0 278.0,198.0 279.0,196.0 280.0,198.0 281.0,197.0 282.0,198.0 283.0,197.0 284.0,199.0 285.0,200.0 286.0,200.0 287.0,200.0 288.0,201.0 289.0,200.0 290.0,201.0 291.0,200.0 292.0,202.0 293.0,200.0 294.0,202.0 295.0,200.0 296.0,202.0 297.0,199.0 298.0,202.0 299.0,199.0 300.0,201.0 301.0,198.0 302.0,201.0 303.0,198.0 304.0,200.0 305.0,197.0 306.0,199.0 307.0,196.0 308.0,197.0 309.0,194.0 310.0,196.0 311.0,194.0 312.0,196.0 313.0,192.0 314.0,195.0 315.0,192.0 316.0,195.0 317.0,191.0 318.0,193.0 319.0,190.0 320.0,192.0 321.0,189.0 322.0,192.0 323.0,187.0 324.0,190.0 325.0,186.0 326.0,188.0 327.0,185.0 328.0,187.0 329.0,184.0 330.0,186.0 331.0,182.0 332.0,185.0 333.0,181.0 334.0,183.0 335.0,178.0 336.0,181.0 337.0,177.0 338.0,180.0 339.0,174.0 340.0,179.0 341.0,172.0 342.0,177.0 343.0,171.0 344.0,177.0 345.0,169.0 346.0,176.0 347.0,169.0 348.0,175.0 349.0,167.0 350.0,174.0 351.0,167.0 352.0,173.0 353.0,165.0 354.0,173.0 355.0,164.0 356.0,172.0 357.0,163.0 358.0,172.0 359.0,163.0 360.0,169.0 361.0,162.0 362.0,169.0 363.0,160.0 364.0,167.0 365.0,159.0 366.0,167.0 367.0,159.0 368.0,166.0 369.0,158.0 370.0,165.0 371.0,158.0 372.0,163.0 373.0,158.0 374.0,162.0 375.0,156.0 376.0,160.0 377.0,157.0 378.0,159.0 379.0,156.0 380.0,159.0 381.0,154.0 382.0,157.0 383.0,154.0 384.0,154.0 385.0,153.0 386.0,154.0 387.0,152.0 388.0,153.0 389.0,152.0 390.0,152.0 391.0,152.0 392.0,151.0 393.0,150.0 394.0,151.0 395.0,150.0 396.0,151.0 397.0,148.0 398.0,148.0 399.0,148.0 400.0,147.0 401.0,147.0 402.0,147.0 403.0,147.0 404.0,147.0 405.0,146.0 406.0,146.0 407.0,144.0 408.0,144.0 409.0,144.0 410.0,144.0 411.0,144.0 412.0,144.0 413.0,145.0 414.0,145.0 415.0,146.0 416.0,144.0 417.0,145.0 418.0,145.0 419.0,145.0 420.0,146.0 421.0,145.0 422.0,146.0 423.0,144.0 424.0,145.0 425.0,144.0 426.0,144.0 427.0,143.0 428.0,144.0 429.0,143.0 430.0,143.0 431.0,142.0 432.0,142.0 433.0,142.0 434.0,142.0 435.0,141.0 436.0,141.0 437.0,140.0 438.0,141.0 439.0,140.0 440.0,140.0 441.0,139.0 442.0,139.0 443.0,138.0 444.0,138.0 445.0,137.0 446.0,138.0 447.0,136.0 448.0,137.0 449.0,135.0 450.0,136.0 451.0,134.0 452.0,135.0 453.0,132.0 454.0,133.0 455.0,132.0 456.0,133.0 457.0,131.0 458.0,131.0 459.0,131.0 460.0,131.0 461.0,131.0 462.0,130.0 463.0,131.0 464.0,129.0 465.0,129.0 466.0,128.0 467.0,129.0 468.0,125.0 469.0,126.0 470.0,125.0 471.0,126.0 472.0,125.0 473.0,125.0 474.0,125.0 475.0,124.0 476.0,124.0 477.0,124.0 478.0,124.0 479.0,123.0 480.0,123.0 481.0,122.0 482.0,122.0 483.0,121.0 484.0,120.0 485.0,119.0 486.0,120.0 487.0,118.0 488.0,119.0 489.0,117.0 490.0,117.0 491.0,116.0 492.0,116.0 493.0,116.0 494.0,115.0 495.0,114.0 496.0,112.0 497.0,113.0 498.0,113.0 499.0,111.0 500.0,112.0 501.0,109.0 502.0,109.0 503.0,108.0 504.0,108.0 505.0,108.0 506.0,106.0 507.0,107.0 508.0,106.0 509.0,105.0 510.0,105.0 511.0,104.0 512.0,104.0 513.0,102.0 514.0,103.0 515.0,100.0 516.0,101.0 517.0,98.0 518.0,99.0 519.0,93.0 520.0,96.0 521.0,88.0 522.0,93.0 523.0,83.0 524.0,91.0 525.0,75.0 526.0,89.0 527.0,72.0 528.0,88.0 529.0,73.0 530.0,86.0 531.0,74.0 532.0,85.0 533.0,76.0 534.0,82.0 535.0,78.0 536.0,82.0 537.0,79.0 538.0,80.0 539.0,81.0 540.0,80.0 541.0,82.0 542.0,80.0 543.0,83.0 544.0,80.0 545.0,84.0 546.0,81.0 547.0,84.0 548.0,81.0 549.0,84.0 550.0,82.0 551.0,84.0 552.0,82.0 553.0,84.0 554.0,82.0 555.0,83.0 556.0,83.0 557.0,82.0 558.0,81.0 559.0,82.0 560.0,80.0 561.0,81.0 562.0,79.0 563.0,80.0 564.0,79.0 565.0,79.0 566.0,78.0 567.0,78.0 568.0,78.0 569.0,77.0 570.0,77.0 571.0,76.0 572.0,75.0 573.0,75.0 574.0,75.0 575.0,75.0 576.0,75.0 577.0,73.0 578.0,74.0 579.0,73.0 580.0,74.0 581.0,72.0 582.0,72.0 583.0,73.0 584.0,67.0 585.0,71.0 586.0,68.0 587.0,69.0 588.0,68.0 589.0,68.0 590.0,67.0 591.0,68.0 592.0,68.0 593.0,63.0 594.0,63.0 595.0,65.0 596.0,63.0 597.0,63.0 598.0,63.0 599.0,63.0 600.0,62.0 601.0,62.0 602.0,60.0 603.0,62.0 604.0,62.0 605.0,61.0 606.0,60.0 607.0,61.0 608.0,61.0 609.0,60.0 610.0,61.0 611.0,60.0 612.0,59.0 613.0,59.0 614.0,58.0 615.0,58.0 616.0,58.0 617.0,58.0 618.0,59.0 619.0,58.0 620.0,57.0 621.0,58.0 622.0,56.0 623.0,56.0 624.0,55.0 625.0,54.0 626.0,53.0 627.0,53.0 628.0,51.0 629.0,50.0 630.0,48.0 631.0,47.0 632.0,45.0 633.0,44.0 634.0,43.0 635.0,43.0 636.0,41.0 637.0,42.0 638.0,41.0 639.0,43.0 640.0,42.0 641.0,44.0 642.0,44.0 643.0,45.0 644.0,43.0 645.0,46.0 646.0,44.0 647.0,44.0 648.0,44.0 649.0,44.0 650.0,45.0 651.0,44.0 652.0,45.0 653.0,44.0 654.0,45.0" fill="none" stroke="#00ffff" />
	<polyline points="55.0,5.0 655.0,5.0" fill="none" stroke="#6d6d6d" />
	<polyline points="55.0,305.0 655.0,305.0" fill="none" stroke="#6d6d6d" />
	<polyline points="55.0,305.0 55.0,310.0" fill="none" stroke="#6d6d6d" />
	<polyline points="205.0,305.0 205.0,310.0" fill="none" stroke="#6d6d6d" />
	<polyline points="355.0,305.0 355.0,310.0" fill="none" stroke="#6d6d6d" />
	<polyline points="505.0,305.0 505.0,310.0" fill="none" stroke="#6d6d6d" />
	<polyline points="655.0,305.0 655.0,310.0" fill="none" stroke="#6d6d6d" />
	<polyline points="55.0,5.0 55.0,305.0" fill="none" stroke="#6d6d6d" />
	<polyline points="655.0,5.0 655.0,305.0" fill="none" stroke="#6d6d6d" />
	<polyline points="50.0,5.0 55.0,5.0" fill="none" stroke="#6d6d6d" />
	<polyline points="50.0,80.0 55.0,80.0" fill="none" stroke="#6d6d6d" />
	<polyline points="50.0,155.0 55.0,155.0" fill="none" stroke="#6d6d6d" />
	<polyline points="50.0,230.0 55.0,230.0" fill="none" stroke="#6d6d6d" />
	<polyline points="50.0,305.0 55.0,305.0" fill="none" stroke="#6d6d6d" />
	<text x="55.0" y="323.0" fill="#6d6d6d" font-family="Arial" font-size="9pt" text-anchor="middle">1</text>
	<text x="205.0" y="323.0" fill="#6d6d6d" font-family="Arial" font-size="9pt" text-anchor="middle">150</text>
	<text x="355.0" y="323.0" fill="#6d6d6d" font-family="Arial" font-size="9pt" text-anchor="middle">300</text>
	<text x="505.0" y="323.0" fill="#6d6d6d" font-family="Arial" font-size="9pt" text-anchor="middle">450</text>
	<text x="655.0" y="323.0" fill="#6d6d6d" font-family="Arial" font-size="9pt" text-anchor="middle">600</text>
	<text x="45.0" y="9.0" fill="#6d6d6d" font-family="Arial" font-size="9pt" text-anchor="end">69.5</text>
	<text x="45.0" y="84.0" fill="#6d6d6d" font-family="Arial" font-size="9pt" text-anchor="end">60.9</text>
	<text x="45.0" y="159.0" fill="#6d6d6d" font-family="Arial" font-size="9pt" text-anchor="end">52.2</text>
	<text x="45.0" y="234.0" fill="#6d6d6d" font-family="Arial" font-size="9pt" text-anchor="end">43.6</text>
	<text x="45.0" y="309.0" fill="#6d6d6d" font-family="Arial" font-size="9pt" text-anchor="end">35</text>
</svg>
