<?xml version="1.0" encoding="UTF-8" standalone="no"?>
<!DOCTYPE svg PUBLIC "-//W3C//DTD SVG 1.1//EN" "http://www.w3.org/Graphics/SVG/1.1/DTD/svg11.dtd">
<svg xmlns="http://www.w3.org/2000/svg"  version="1.1" width="693.0" height="380.0" viewBox="-6.0 -12.0 687.0 368.0">
	<desc>LSD Plot - Sim_10c_teste1</desc>
	<polyline points="205.0,6.0 205.0,304.0" fill="none" stroke="#f0f0f0" />
	<polyline points="355.0,6.0 355.0,304.0" fill="none" stroke="#f0f0f0" />
	<polyline points="505.0,6.0 505.0,304.0" fill="none" stroke="#f0f0f0" />
	<polyline points="56.0,80.0 654.0,80.0" fill="none" stroke="#f0f0f0" />
	<polyline points="56.0,155.0 654.0,155.0" fill="none" stroke="#f0f0f0" />
	<polyline points="56.0,230.0 654.0,230.0" fill="none" stroke="#f0f0f0" />
	<text x="5.0" y="345.0" font-family="Arial" font-size="9pt">Y_r_1</text>
	<text x="42.0" y="345.0" fill="#ff0000" font-family="Arial" font-size="9pt">Y_r_2</text>
	<text x="79.0" y="345.0" fill="#008000" font-family="Arial" font-size="9pt">Y_r_3</text>
	<text x="116.0" y="345.0" fill="#d0d000" font-family="Arial" font-size="9pt">Y_r_4</text>
	<text x="153.0" y="345.0" fill="#fb46bc" font-family="Arial" font-size="9pt">Y_r_5</text>
	<text x="190.0" y="345.0" fill="#0000ff" font-family="Arial" font-size="9pt">Y_r_6</text>
	<text x="227.0" y="345.0" fill="#00bfff" font-family="Arial" font-size="9pt">Y_r_7</text>
	<text x="264.0" y="345.0" fill="#4876ff" font-family="Arial" font-size="9pt">Y_r_8</text>
	<text x="301.0" y="345.0" fill="#aeeeee" font-family="Arial" font-size="9pt">Y_r_9</text>
	<text x="338.0" y="345.0" fill="#00ffff" font-family="Arial" font-size="9pt">Y_r_10</text>
	<polyline points="55.0,291.0 56.0,290.0 57.0,289.0 58.0,288.0 59.0,287.0 60.0,286.0 61.0,285.0 62.0,284.0 63.0,282.0 64.0,282.0 65.0,281.0 66.0,280.0 67.0,279.0 68.0,278.0 69.0,277.0 70.0,277.0 71.0,276.0 72.0,276.0 73.0,275.0 74.0,275.0 75.0,274.0 76.0,274.0 77.0,272.0 78.0,273.0 79.0,271.0 80.0,271.0 81.0,271.0 82.0,270.0 83.0,270.0 84.0,269.0 85.0,269.0 86.0,269.0 87.0,269.0 88.0,268.0 89.0,267.0 90.0,267.0 91.0,267.0 92.0,267.0 93.0,266.0 94.0,265.0 95.0,265.0 96.0,265.0 97.0,265.0 98.0,264.0 99.0,263.0 100.0,263.0 101.0,263.0 102.0,263.0 103.0,262.0 104.0,262.0 105.0,261.0 106.0,262.0 107.0,261.0 108.0,261.0 109.0,261.0 110.0,261.0 111.0,261.0 112.0,261.0 113.0,260.0 114.0,260.0 115.0,260.0 116.0,260.0 117.0,260.0 118.0,260.0 119.0,260.0 120.0,260.0 121.0,261.0 122.0,260.0 123.0,261.0 124.0,262.0 125.0,263.0 126.0,264.0 127.0,265.0 128.0,265.0 129.0,268.0 130.0,268.0 131.0,269.0 132.0,269.0 133.0,270.0 134.0,270.0 135.0,271.0 136.0,271.0 137.0,272.0 138.0,272.0 139.0,272.0 140.0,272.0 141.0,273.0 142.0,273.0 143.0,273.0 144.0,272.0 145.0,273.0 146.0,272.0 147.0,272.0 148.0,272.0 149.0,272.0 150.0,271.0 151.0,271.0 152.0,270.0 153.0,270.0 154.0,269.0 155.0,269.0 156.0,267.0 157.0,267.0 158.0,265.0 159.0,265.0 160.0,264.0 161.0,265.0 162.0,263.0 163.0,263.0 164.0,261.0 165.0,261.0 166.0,259.0 167.0,259.0 168.0,258.0 169.0,257.0 170.0,256.0 171.0,254.0 172.0,253.0 173.0,252.0 174.0,252.0 175.0,249.0 176.0,248.0 177.0,248.0 178.0,247.0 179.0,246.0 180.0,244.0 181.0,243.0 182.0,242.0 183.0,240.0 184.0,241.0 185.0,240.0 186.0,240.0 187.0,238.0 188.0,238.0 189.0,238.0 190.0,236.0 191.0,236.0 192.0,236.0 193.0,233.0 194.0,233.0 195.0,232.0 196.0,232.0 197.0,230.0 198.0,231.0 199.0,230.0 200.0,229.0 201.0,229.0 202.0,227.0 203.0,227.0 204.0,226.0 205.0,225.0 206.0,224.0 207.0,224.0 208.0,223.0 209.0,224.0 210.0,221.0 211.0,223.0 212.0,222.0 213.0,222.0 214.0,220.0 215.0,220.0 216.0,219.0 217.0,219.0 218.0,218.0 219.0,218.0 220.0,217.0 221.0,217.0 222.0,216.0 223.0,215.0 224.0,214.0 225.0,214.0 226.0,213.0 227.0,213.0 228.0,212.0 229.0,211.0 230.0,211.0 231.0,211.0 232.0,210.0 233.0,210.0 234.0,209.0 235.0,209.0 236.0,208.0 237.0,208.0 238.0,207.0 239.0,207.0 240.0,206.0 241.0,206.0 242.0,205.0 243.0,205.0 244.0,205.0 245.0,205.0 246.0,204.0 247.0,204.0 248.0,203.0 249.0,203.0 250.0,203.0 251.0,203.0 252.0,202.0 253.0,202.0 254.0,202.0 255.0,201.0 256.0,201.0 257.0,200.0 258.0,200.0 259.0,200.0 260.0,200.0 261.0,198.0 262.0,199.0 263.0,198.0 264.0,198.0 265.0,198.0 266.0,197.0 267.0,197.0 268.0,197.0 269.0,196.0 270.0,196.0 271.0,196.0 272.0,195.0 273.0,196.0 274.0,195.0 275.0,194.0 276.0,195.0 277.0,194.0 278.0,195.0 279.0,194.0 280.0,194.0 281.0,194.0 282.0,195.0 283.0,196.0 284.0,196.0 285.0,197.0 286.0,199.0 287.0,199.0 288.0,201.0 289.0,200.0 290.0,201.0 291.0,200.0 292.0,203.0 293.0,202.0 294.0,203.0 295.0,201.0 296.0,202.0 297.0,200.0 298.0,202.0 299.0,200.0 300.0,202.0 301.0,200.0 302.0,202.0 303.0,200.0 304.0,201.0 305.0,198.0 306.0,200.0 307.0,196.0 308.0,199.0 309.0,196.0 310.0,197.0 311.0,194.0 312.0,195.0 313.0,192.0 314.0,195.0 315.0,192.0 316.0,193.0 317.0,191.0 318.0,192.0 319.0,189.0 320.0,191.0 321.0,188.0 322.0,190.0 323.0,185.0 324.0,187.0 325.0,183.0 326.0,186.0 327.0,181.0 328.0,183.0 329.0,179.0 330.0,181.0 331.0,177.0 332.0,180.0 333.0,176.0 334.0,179.0 335.0,174.0 336.0,178.0 337.0,172.0 338.0,176.0 339.0,169.0 340.0,174.0 341.0,168.0 342.0,173.0 343.0,167.0 344.0,172.0 345.0,164.0 346.0,171.0 347.0,163.0 348.0,170.0 349.0,161.0 350.0,167.0 351.0,159.0 352.0,166.0 353.0,157.0 354.0,164.0 355.0,153.0 356.0,163.0 357.0,153.0 358.0,163.0 359.0,151.0 360.0,161.0 361.0,151.0 362.0,160.0 363.0,150.0 364.0,158.0 365.0,150.0 366.0,157.0 367.0,149.0 368.0,154.0 369.0,148.0 370.0,154.0 371.0,148.0 372.0,153.0 373.0,148.0 374.0,152.0 375.0,148.0 376.0,151.0 377.0,147.0 378.0,150.0 379.0,147.0 380.0,149.0 381.0,146.0 382.0,147.0 383.0,145.0 384.0,145.0 385.0,143.0 386.0,145.0 387.0,143.0 388.0,143.0 389.0,142.0 390.0,141.0 391.0,141.0 392.0,141.0 393.0,140.0 394.0,141.0 395.0,140.0 396.0,139.0 397.0,139.0 398.0,139.0 399.0,139.0 400.0,139.0 401.0,138.0 402.0,138.0 403.0,137.0 404.0,137.0 405.0,137.0 406.0,136.0 407.0,136.0 408.0,136.0 409.0,136.0 410.0,136.0 411.0,137.0 412.0,136.0 413.0,137.0 414.0,137.0 415.0,137.0 416.0,138.0 417.0,138.0 418.0,137.0 419.0,138.0 420.0,139.0 421.0,138.0 422.0,138.0 423.0,138.0 424.0,139.0 425.0,139.0 426.0,139.0 427.0,139.0 428.0,139.0 429.0,139.0 430.0,139.0 431.0,139.0 432.0,140.0 433.0,139.0 434.0,139.0 435.0,138.0 436.0,138.0 437.0,138.0 438.0,138.0 439.0,137.0 440.0,137.0 441.0,137.0 442.0,137.0 443.0,136.0 444.0,136.0 445.0,133.0 446.0,134.0 447.0,132.0 448.0,133.0 449.0,132.0 450.0,133.0 451.0,131.0 452.0,132.0 453.0,130.0 454.0,130.0 455.0,129.0 456.0,129.0 457.0,128.0 458.0,128.0 459.0,127.0 460.0,127.0 461.0,126.0 462.0,125.0 463.0,126.0 464.0,125.0 465.0,125.0 466.0,124.0 467.0,124.0 468.0,123.0 469.0,123.0 470.0,122.0 471.0,122.0 472.0,122.0 473.0,121.0 474.0,121.0 475.0,119.0 476.0,119.0 477.0,118.0 478.0,117.0 479.0,117.0 480.0,117.0 481.0,116.0 482.0,116.0 483.0,116.0 484.0,115.0 485.0,114.0 486.0,113.0 487.0,113.0 488.0,112.0 489.0,112.0 490.0,112.0 491.0,110.0 492.0,110.0 493.0,109.0 494.0,109.0 495.0,107.0 496.0,107.0 497.0,106.0 498.0,106.0 499.0,104.0 500.0,105.0 501.0,103.0 502.0,103.0 503.0,103.0 504.0,102.0 505.0,101.0 506.0,100.0 507.0,101.0 508.0,100.0 509.0,100.0 510.0,99.0 511.0,98.0 512.0,97.0 513.0,96.0 514.0,96.0 515.0,94.0 516.0,94.0 517.0,92.0 518.0,92.0 519.0,88.0 520.0,89.0 521.0,83.0 522.0,86.0 523.0,77.0 524.0,84.0 525.0,71.0 526.0,81.0 527.0,68.0 528.0,79.0 529.0,69.0 530.0,77.0 531.0,71.0 532.0,76.0 533.0,72.0 534.0,76.0 535.0,74.0 536.0,74.0 537.0,76.0 538.0,74.0 539.0,78.0 540.0,73.0 541.0,79.0 542.0,73.0 543.0,80.0 544.0,74.0 545.0,80.0 546.0,74.0 547.0,80.0 548.0,76.0 549.0,80.0 550.0,75.0 551.0,80.0 552.0,76.0 553.0,78.0 554.0,76.0 555.0,77.0 556.0,74.0 557.0,77.0 558.0,74.0 559.0,77.0 560.0,74.0 561.0,75.0 562.0,74.0 563.0,74.0 564.0,72.0 565.0,73.0 566.0,71.0 567.0,71.0 568.0,70.0 569.0,71.0 570.0,70.0 571.0,71.0 572.0,70.0 573.0,70.0 574.0,69.0 575.0,70.0 576.0,69.0 577.0,69.0 578.0,68.0 579.0,67.0 580.0,66.0 581.0,66.0 582.0,65.0 583.0,64.0 584.0,64.0 585.0,64.0 586.0,64.0 587.0,64.0 588.0,63.0 589.0,61.0 590.0,62.0 591.0,61.0 592.0,61.0 593.0,57.0 594.0,58.0 595.0,58.0 596.0,57.0 597.0,57.0 598.0,55.0 599.0,55.0 600.0,55.0 601.0,54.0 602.0,53.0 603.0,52.0 604.0,50.0 605.0,52.0 606.0,48.0 607.0,50.0 608.0,49.0 609.0,50.0 610.0,49.0 611.0,50.0 612.0,49.0 613.0,50.0 614.0,49.0 615.0,49.0 616.0,48.0 617.0,47.0 618.0,48.0 619.0,46.0 620.0,46.0 621.0,46.0 622.0,45.0 623.0,44.0 624.0,44.0 625.0,43.0 626.0,42.0 627.0,41.0 628.0,40.0 629.0,38.0 630.0,37.0 631.0,34.0 632.0,33.0 633.0,31.0 634.0,30.0 635.0,29.0 636.0,30.0 637.0,30.0 638.0,29.0 639.0,29.0 640.0,29.0 641.0,30.0 642.0,29.0 643.0,29.0 644.0,30.0 645.0,29.0 646.0,30.0 647.0,30.0 648.0,30.0 649.0,29.0 650.0,31.0 651.0,29.0 652.0,30.0 653.0,30.0 654.0,30.0" fill="none" stroke="#000000" />
	<polyline points="55.0,299.0 56.0,298.0 57.0,299.0 58.0,297.0 59.0,298.0 60.0,298.0 61.0,296.0 62.0,297.0 63.0,296.0 64.0,296.0 65.0,295.0 66.0,295.0 67.0,294.0 68.0,294.0 69.0,294.0 70.0,293.0 71.0,293.0 72.0,292.0 73.0,292.0 74.0,292.0 75.0,292.0 76.0,292.0 77.0,291.0 78.0,291.0 79.0,289.0 80.0,289.0 81.0,288.0 82.0,288.0 83.0,288.0 84.0,287.0 85.0,286.0 86.0,286.0 87.0,285.0 88.0,285.0 89.0,285.0 90.0,285.0 91.0,284.0 92.0,284.0 93.0,284.0 94.0,282.0 95.0,283.0 96.0,282.0 97.0,281.0 98.0,280.0 99.0,280.0 100.0,279.0 101.0,278.0 102.0,277.0 103.0,277.0 104.0,275.0 105.0,274.0 106.0,274.0 107.0,274.0 108.0,273.0 109.0,272.0 110.0,272.0 111.0,271.0 112.0,271.0 113.0,271.0 114.0,270.0 115.0,270.0 116.0,269.0 117.0,269.0 118.0,269.0 119.0,269.0 120.0,269.0 121.0,269.0 122.0,269.0 123.0,269.0 124.0,268.0 125.0,268.0 126.0,268.0 127.0,268.0 128.0,268.0 129.0,267.0 130.0,267.0 131.0,268.0 132.0,267.0 133.0,266.0 134.0,266.0 135.0,266.0 136.0,265.0 137.0,266.0 138.0,264.0 139.0,265.0 140.0,264.0 141.0,263.0 142.0,263.0 143.0,262.0 144.0,261.0 145.0,261.0 146.0,259.0 147.0,259.0 148.0,258.0 149.0,257.0 150.0,256.0 151.0,255.0 152.0,255.0 153.0,254.0 154.0,253.0 155.0,252.0 156.0,252.0 157.0,251.0 158.0,250.0 159.0,250.0 160.0,249.0 161.0,249.0 162.0,247.0 163.0,247.0 164.0,246.0 165.0,246.0 166.0,245.0 167.0,245.0 168.0,244.0 169.0,244.0 170.0,242.0 171.0,243.0 172.0,243.0 173.0,242.0 174.0,242.0 175.0,241.0 176.0,240.0 177.0,240.0 178.0,241.0 179.0,241.0 180.0,240.0 181.0,240.0 182.0,239.0 183.0,238.0 184.0,239.0 185.0,237.0 186.0,237.0 187.0,237.0 188.0,237.0 189.0,237.0 190.0,237.0 191.0,237.0 192.0,237.0 193.0,237.0 194.0,236.0 195.0,236.0 196.0,236.0 197.0,233.0 198.0,234.0 199.0,233.0 200.0,233.0 201.0,232.0 202.0,230.0 203.0,230.0 204.0,229.0 205.0,229.0 206.0,228.0 207.0,229.0 208.0,228.0 209.0,228.0 210.0,226.0 211.0,226.0 212.0,225.0 213.0,225.0 214.0,224.0 215.0,224.0 216.0,222.0 217.0,222.0 218.0,222.0 219.0,221.0 220.0,220.0 221.0,219.0 222.0,219.0 223.0,217.0 224.0,216.0 225.0,215.0 226.0,215.0 227.0,214.0 228.0,213.0 229.0,213.0 230.0,213.0 231.0,213.0 232.0,213.0 233.0,212.0 234.0,211.0 235.0,212.0 236.0,211.0 237.0,211.0 238.0,209.0 239.0,209.0 240.0,208.0 241.0,210.0 242.0,209.0 243.0,208.0 244.0,208.0 245.0,207.0 246.0,207.0 247.0,207.0 248.0,206.0 249.0,206.0 250.0,206.0 251.0,206.0 252.0,204.0 253.0,205.0 254.0,205.0 255.0,205.0 256.0,204.0 257.0,206.0 258.0,204.0 259.0,205.0 260.0,204.0 261.0,204.0 262.0,204.0 263.0,202.0 264.0,204.0 265.0,203.0 266.0,203.0 267.0,202.0 268.0,203.0 269.0,202.0 270.0,201.0 271.0,198.0 272.0,199.0 273.0,198.0 274.0,198.0 275.0,197.0 276.0,197.0 277.0,196.0 278.0,196.0 279.0,194.0 280.0,195.0 281.0,193.0 282.0,195.0 283.0,193.0 284.0,192.0 285.0,192.0 286.0,192.0 287.0,190.0 288.0,191.0 289.0,189.0 290.0,189.0 291.0,187.0 292.0,188.0 293.0,186.0 294.0,187.0 295.0,186.0 296.0,186.0 297.0,184.0 298.0,185.0 299.0,183.0 300.0,184.0 301.0,182.0 302.0,184.0 303.0,181.0 304.0,182.0 305.0,180.0 306.0,181.0 307.0,179.0 308.0,179.0 309.0,178.0 310.0,179.0 311.0,178.0 312.0,179.0 313.0,176.0 314.0,178.0 315.0,176.0 316.0,178.0 317.0,176.0 318.0,178.0 319.0,174.0 320.0,176.0 321.0,173.0 322.0,175.0 323.0,172.0 324.0,175.0 325.0,171.0 326.0,174.0 327.0,171.0 328.0,173.0 329.0,170.0 330.0,171.0 331.0,169.0 332.0,171.0 333.0,167.0 334.0,170.0 335.0,166.0 336.0,168.0 337.0,164.0 338.0,167.0 339.0,161.0 340.0,165.0 341.0,160.0 342.0,164.0 343.0,158.0 344.0,163.0 345.0,157.0 346.0,161.0 347.0,154.0 348.0,160.0 349.0,153.0 350.0,160.0 351.0,150.0 352.0,158.0 353.0,149.0 354.0,156.0 355.0,148.0 356.0,155.0 357.0,146.0 358.0,154.0 359.0,143.0 360.0,153.0 361.0,143.0 362.0,152.0 363.0,143.0 364.0,151.0 365.0,143.0 366.0,151.0 367.0,142.0 368.0,149.0 369.0,142.0 370.0,148.0 371.0,143.0 372.0,148.0 373.0,143.0 374.0,147.0 375.0,142.0 376.0,145.0 377.0,143.0 378.0,144.0 379.0,143.0 380.0,144.0 381.0,142.0 382.0,144.0 383.0,141.0 384.0,143.0 385.0,140.0 386.0,142.0 387.0,140.0 388.0,141.0 389.0,140.0 390.0,139.0 391.0,138.0 392.0,138.0 393.0,137.0 394.0,137.0 395.0,136.0 396.0,136.0 397.0,135.0 398.0,134.0 399.0,133.0 400.0,134.0 401.0,133.0 402.0,133.0 403.0,132.0 404.0,131.0 405.0,132.0 406.0,132.0 407.0,132.0 408.0,131.0 409.0,129.0 410.0,130.0 411.0,130.0 412.0,130.0 413.0,130.0 414.0,128.0 415.0,129.0 416.0,127.0 417.0,128.0 418.0,126.0 419.0,127.0 420.0,126.0 421.0,126.0 422.0,126.0 423.0,125.0 424.0,125.0 425.0,124.0 426.0,123.0 427.0,122.0 428.0,122.0 429.0,122.0 430.0,122.0 431.0,120.0 432.0,121.0 433.0,119.0 434.0,120.0 435.0,119.0 436.0,120.0 437.0,119.0 438.0,119.0 439.0,118.0 440.0,118.0 441.0,116.0 442.0,116.0 443.0,114.0 444.0,115.0 445.0,112.0 446.0,112.0 447.0,109.0 448.0,112.0 449.0,108.0 450.0,111.0 451.0,107.0 452.0,109.0 453.0,106.0 454.0,108.0 455.0,105.0 456.0,107.0 457.0,106.0 458.0,105.0 459.0,105.0 460.0,104.0 461.0,104.0 462.0,103.0 463.0,103.0 464.0,103.0 465.0,102.0 466.0,102.0 467.0,102.0 468.0,101.0 469.0,101.0 470.0,101.0 471.0,101.0 472.0,100.0 473.0,99.0 474.0,99.0 475.0,98.0 476.0,99.0 477.0,98.0 478.0,98.0 479.0,97.0 480.0,96.0 481.0,96.0 482.0,96.0 483.0,95.0 484.0,96.0 485.0,94.0 486.0,94.0 487.0,93.0 488.0,93.0 489.0,93.0 490.0,92.0 491.0,91.0 492.0,92.0 493.0,91.0 494.0,91.0 495.0,89.0 496.0,90.0 497.0,89.0 498.0,89.0 499.0,88.0 500.0,89.0 501.0,87.0 502.0,88.0 503.0,86.0 504.0,87.0 505.0,86.0 506.0,86.0 507.0,85.0 508.0,84.0 509.0,83.0 510.0,84.0 511.0,82.0 512.0,83.0 513.0,80.0 514.0,82.0 515.0,77.0 516.0,80.0 517.0,74.0 518.0,79.0 519.0,69.0 520.0,77.0 521.0,65.0 522.0,75.0 523.0,60.0 524.0,73.0 525.0,54.0 526.0,72.0 527.0,52.0 528.0,70.0 529.0,53.0 530.0,68.0 531.0,54.0 532.0,66.0 533.0,54.0 534.0,63.0 535.0,57.0 536.0,62.0 537.0,58.0 538.0,60.0 539.0,60.0 540.0,60.0 541.0,62.0 542.0,61.0 543.0,63.0 544.0,62.0 545.0,64.0 546.0,63.0 547.0,64.0 548.0,64.0 549.0,65.0 550.0,65.0 551.0,65.0 552.0,64.0 553.0,65.0 554.0,64.0 555.0,64.0 556.0,65.0 557.0,64.0 558.0,63.0 559.0,64.0 560.0,63.0 561.0,62.0 562.0,63.0 563.0,61.0 564.0,60.0 565.0,61.0 566.0,60.0 567.0,59.0 568.0,58.0 569.0,58.0 570.0,58.0 571.0,57.0 572.0,58.0 573.0,57.0 574.0,57.0 575.0,56.0 576.0,57.0 577.0,55.0 578.0,57.0 579.0,55.0 580.0,56.0 581.0,54.0 582.0,54.0 583.0,53.0 584.0,53.0 585.0,53.0 586.0,53.0 587.0,52.0 588.0,52.0 589.0,51.0 590.0,51.0 591.0,49.0 592.0,49.0 593.0,50.0 594.0,48.0 595.0,48.0 596.0,48.0 597.0,48.0 598.0,48.0 599.0,47.0 600.0,46.0 601.0,46.0 602.0,46.0 603.0,45.0 604.0,44.0 605.0,46.0 606.0,45.0 607.0,45.0 608.0,45.0 609.0,45.0 610.0,44.0 611.0,44.0 612.0,43.0 613.0,43.0 614.0,41.0 615.0,42.0 616.0,39.0 617.0,40.0 618.0,39.0 619.0,40.0 620.0,40.0 621.0,40.0 622.0,38.0 623.0,40.0 624.0,38.0 625.0,40.0 626.0,38.0 627.0,39.0 628.0,38.0 629.0,38.0 630.0,36.0 631.0,37.0 632.0,35.0 633.0,35.0 634.0,34.0 635.0,35.0 636.0,34.0 637.0,37.0 638.0,35.0 639.0,37.0 640.0,36.0 641.0,38.0 642.0,37.0 643.0,38.0 644.0,38.0 645.0,38.0 646.0,38.0 647.0,38.0 648.0,38.0 649.0,38.0 650.0,38.0 651.0,39.0 652.0,39.0 653.0,39.0 654.0,40.0" fill="none" stroke="#ff0000" />
	<polyline points="55.0,302.0 56.0,301.0 57.0,301.0 58.0,300.0 59.0,299.0 60.0,300.0 61.0,298.0 62.0,299.0 63.0,298.0 64.0,298.0 65.0,297.0 66.0,297.0 67.0,296.0 68.0,297.0 69.0,297.0 70.0,296.0 71.0,294.0 72.0,294.0 73.0,293.0 74.0,293.0 75.0,292.0 76.0,292.0 77.0,291.0 78.0,290.0 79.0,289.0 80.0,288.0 81.0,288.0 82.0,287.0 83.0,287.0 84.0,287.0 85.0,286.0 86.0,285.0 87.0,284.0 88.0,284.0 89.0,284.0 90.0,282.0 91.0,282.0 92.0,282.0 93.0,281.0 94.0,281.0 95.0,279.0 96.0,278.0 97.0,278.0 98.0,276.0 99.0,277.0 100.0,275.0 101.0,276.0 102.0,276.0 103.0,274.0 104.0,274.0 105.0,273.0 106.0,273.0 107.0,273.0 108.0,273.0 109.0,272.0 110.0,272.0 111.0,272.0 112.0,271.0 113.0,271.0 114.0,270.0 115.0,270.0 116.0,270.0 117.0,270.0 118.0,269.0 119.0,269.0 120.0,268.0 121.0,268.0 122.0,267.0 123.0,267.0 124.0,266.0 125.0,266.0 126.0,266.0 127.0,265.0 128.0,264.0 129.0,264.0 130.0,263.0 131.0,263.0 132.0,263.0 133.0,263.0 134.0,262.0 135.0,262.0 136.0,261.0 137.0,261.0 138.0,260.0 139.0,260.0 140.0,259.0 141.0,259.0 142.0,258.0 143.0,258.0 144.0,257.0 145.0,256.0 146.0,256.0 147.0,255.0 148.0,254.0 149.0,253.0 150.0,253.0 151.0,252.0 152.0,251.0 153.0,251.0 154.0,249.0 155.0,249.0 156.0,248.0 157.0,249.0 158.0,247.0 159.0,248.0 160.0,247.0 161.0,248.0 162.0,245.0 163.0,247.0 164.0,246.0 165.0,246.0 166.0,244.0 167.0,245.0 168.0,243.0 169.0,244.0 170.0,243.0 171.0,242.0 172.0,242.0 173.0,242.0 174.0,242.0 175.0,242.0 176.0,241.0 177.0,240.0 178.0,240.0 179.0,240.0 180.0,240.0 181.0,239.0 182.0,238.0 183.0,238.0 184.0,238.0 185.0,237.0 186.0,237.0 187.0,235.0 188.0,234.0 189.0,233.0 190.0,234.0 191.0,232.0 192.0,230.0 193.0,231.0 194.0,231.0 195.0,230.0 196.0,231.0 197.0,231.0 198.0,231.0 199.0,229.0 200.0,230.0 201.0,229.0 202.0,229.0 203.0,229.0 204.0,227.0 205.0,227.0 206.0,227.0 207.0,226.0 208.0,226.0 209.0,225.0 210.0,224.0 211.0,223.0 212.0,222.0 213.0,223.0 214.0,222.0 215.0,222.0 216.0,221.0 217.0,221.0 218.0,220.0 219.0,221.0 220.0,219.0 221.0,220.0 222.0,218.0 223.0,218.0 224.0,218.0 225.0,218.0 226.0,217.0 227.0,217.0 228.0,217.0 229.0,216.0 230.0,215.0 231.0,215.0 232.0,215.0 233.0,214.0 234.0,214.0 235.0,213.0 236.0,213.0 237.0,212.0 238.0,211.0 239.0,212.0 240.0,211.0 241.0,211.0 242.0,210.0 243.0,211.0 244.0,208.0 245.0,209.0 246.0,208.0 247.0,207.0 248.0,206.0 249.0,206.0 250.0,206.0 251.0,206.0 252.0,205.0 253.0,205.0 254.0,204.0 255.0,204.0 256.0,202.0 257.0,203.0 258.0,201.0 259.0,201.0 260.0,200.0 261.0,200.0 262.0,199.0 263.0,198.0 264.0,197.0 265.0,197.0 266.0,196.0 267.0,196.0 268.0,196.0 269.0,196.0 270.0,195.0 271.0,196.0 272.0,195.0 273.0,195.0 274.0,194.0 275.0,193.0 276.0,193.0 277.0,192.0 278.0,193.0 279.0,192.0 280.0,193.0 281.0,192.0 282.0,193.0 283.0,191.0 284.0,192.0 285.0,190.0 286.0,191.0 287.0,189.0 288.0,190.0 289.0,189.0 290.0,189.0 291.0,187.0 292.0,188.0 293.0,186.0 294.0,187.0 295.0,185.0 296.0,187.0 297.0,184.0 298.0,185.0 299.0,183.0 300.0,184.0 301.0,182.0 302.0,184.0 303.0,182.0 304.0,183.0 305.0,180.0 306.0,181.0 307.0,179.0 308.0,180.0 309.0,178.0 310.0,180.0 311.0,179.0 312.0,179.0 313.0,177.0 314.0,178.0 315.0,176.0 316.0,178.0 317.0,176.0 318.0,177.0 319.0,175.0 320.0,176.0 321.0,174.0 322.0,175.0 323.0,173.0 324.0,175.0 325.0,172.0 326.0,173.0 327.0,171.0 328.0,173.0 329.0,171.0 330.0,172.0 331.0,170.0 332.0,171.0 333.0,169.0 334.0,171.0 335.0,167.0 336.0,169.0 337.0,166.0 338.0,168.0 339.0,164.0 340.0,166.0 341.0,164.0 342.0,165.0 343.0,162.0 344.0,164.0 345.0,160.0 346.0,164.0 347.0,160.0 348.0,164.0 349.0,159.0 350.0,162.0 351.0,158.0 352.0,161.0 353.0,156.0 354.0,160.0 355.0,155.0 356.0,160.0 357.0,154.0 358.0,160.0 359.0,152.0 360.0,158.0 361.0,151.0 362.0,157.0 363.0,148.0 364.0,155.0 365.0,149.0 366.0,154.0 367.0,148.0 368.0,153.0 369.0,147.0 370.0,152.0 371.0,147.0 372.0,150.0 373.0,146.0 374.0,150.0 375.0,146.0 376.0,149.0 377.0,146.0 378.0,148.0 379.0,145.0 380.0,146.0 381.0,145.0 382.0,145.0 383.0,144.0 384.0,143.0 385.0,143.0 386.0,143.0 387.0,142.0 388.0,142.0 389.0,142.0 390.0,141.0 391.0,141.0 392.0,140.0 393.0,140.0 394.0,139.0 395.0,138.0 396.0,138.0 397.0,137.0 398.0,136.0 399.0,136.0 400.0,135.0 401.0,134.0 402.0,133.0 403.0,132.0 404.0,132.0 405.0,131.0 406.0,130.0 407.0,131.0 408.0,130.0 409.0,129.0 410.0,128.0 411.0,128.0 412.0,127.0 413.0,127.0 414.0,126.0 415.0,125.0 416.0,124.0 417.0,123.0 418.0,123.0 419.0,122.0 420.0,122.0 421.0,121.0 422.0,121.0 423.0,120.0 424.0,120.0 425.0,119.0 426.0,120.0 427.0,118.0 428.0,118.0 429.0,117.0 430.0,117.0 431.0,117.0 432.0,116.0 433.0,115.0 434.0,115.0 435.0,114.0 436.0,114.0 437.0,112.0 438.0,113.0 439.0,112.0 440.0,111.0 441.0,109.0 442.0,112.0 443.0,110.0 444.0,111.0 445.0,109.0 446.0,111.0 447.0,109.0 448.0,111.0 449.0,109.0 450.0,110.0 451.0,107.0 452.0,109.0 453.0,108.0 454.0,108.0 455.0,106.0 456.0,108.0 457.0,107.0 458.0,108.0 459.0,108.0 460.0,106.0 461.0,107.0 462.0,106.0 463.0,106.0 464.0,106.0 465.0,106.0 466.0,104.0 467.0,105.0 468.0,104.0 469.0,103.0 470.0,103.0 471.0,103.0 472.0,101.0 473.0,102.0 474.0,101.0 475.0,101.0 476.0,101.0 477.0,100.0 478.0,100.0 479.0,99.0 480.0,99.0 481.0,99.0 482.0,98.0 483.0,98.0 484.0,96.0 485.0,97.0 486.0,96.0 487.0,95.0 488.0,95.0 489.0,95.0 490.0,94.0 491.0,93.0 492.0,93.0 493.0,93.0 494.0,93.0 495.0,91.0 496.0,91.0 497.0,90.0 498.0,91.0 499.0,89.0 500.0,89.0 501.0,87.0 502.0,88.0 503.0,87.0 504.0,86.0 505.0,85.0 506.0,85.0 507.0,84.0 508.0,85.0 509.0,82.0 510.0,82.0 511.0,80.0 512.0,80.0 513.0,78.0 514.0,80.0 515.0,75.0 516.0,77.0 517.0,71.0 518.0,75.0 519.0,67.0 520.0,73.0 521.0,62.0 522.0,72.0 523.0,56.0 524.0,70.0 525.0,51.0 526.0,68.0 527.0,49.0 528.0,68.0 529.0,50.0 530.0,67.0 531.0,52.0 532.0,66.0 533.0,55.0 534.0,64.0 535.0,57.0 536.0,64.0 537.0,59.0 538.0,62.0 539.0,61.0 540.0,62.0 541.0,63.0 542.0,60.0 543.0,63.0 544.0,59.0 545.0,63.0 546.0,62.0 547.0,63.0 548.0,61.0 549.0,63.0 550.0,62.0 551.0,63.0 552.0,63.0 553.0,63.0 554.0,62.0 555.0,63.0 556.0,63.0 557.0,63.0 558.0,62.0 559.0,63.0 560.0,62.0 561.0,63.0 562.0,63.0 563.0,62.0 564.0,63.0 565.0,62.0 566.0,63.0 567.0,62.0 568.0,62.0 569.0,61.0 570.0,62.0 571.0,61.0 572.0,61.0 573.0,61.0 574.0,60.0 575.0,59.0 576.0,59.0 577.0,58.0 578.0,58.0 579.0,58.0 580.0,58.0 581.0,56.0 582.0,56.0 583.0,56.0 584.0,55.0 585.0,55.0 586.0,54.0 587.0,54.0 588.0,53.0 589.0,53.0 590.0,52.0 591.0,52.0 592.0,51.0 593.0,51.0 594.0,51.0 595.0,50.0 596.0,49.0 597.0,49.0 598.0,48.0 599.0,48.0 600.0,47.0 601.0,47.0 602.0,46.0 603.0,47.0 604.0,44.0 605.0,45.0 606.0,43.0 607.0,44.0 608.0,42.0 609.0,43.0 610.0,41.0 611.0,41.0 612.0,40.0 613.0,40.0 614.0,37.0 615.0,38.0 616.0,36.0 617.0,36.0 618.0,34.0 619.0,33.0 620.0,31.0 621.0,31.0 622.0,28.0 623.0,29.0 624.0,27.0 625.0,26.0 626.0,24.0 627.0,24.0 628.0,22.0 629.0,21.0 630.0,18.0 631.0,18.0 632.0,15.0 633.0,14.0 634.0,12.0 635.0,13.0 636.0,11.0 637.0,14.0 638.0,12.0 639.0,15.0 640.0,13.0 641.0,15.0 642.0,13.0 643.0,17.0 644.0,15.0 645.0,17.0 646.0,16.0 647.0,17.0 648.0,16.0 649.0,16.0 650.0,16.0 651.0,16.0 652.0,16.0 653.0,16.0 654.0,16.0" fill="none" stroke="#008000" />
	<polyline points="55.0,294.0 56.0,293.0 57.0,293.0 58.0,293.0 59.0,292.0 60.0,292.0 61.0,291.0 62.0,291.0 63.0,291.0 64.0,290.0 65.0,290.0 66.0,289.0 67.0,289.0 68.0,287.0 69.0,287.0 70.0,286.0 71.0,287.0 72.0,286.0 73.0,286.0 74.0,285.0 75.0,284.0 76.0,285.0 77.0,284.0 78.0,284.0 79.0,283.0 80.0,283.0 81.0,282.0 82.0,282.0 83.0,281.0 84.0,281.0 85.0,281.0 86.0,280.0 87.0,280.0 88.0,280.0 89.0,279.0 90.0,279.0 91.0,278.0 92.0,277.0 93.0,278.0 94.0,277.0 95.0,276.0 96.0,276.0 97.0,276.0 98.0,275.0 99.0,274.0 100.0,274.0 101.0,274.0 102.0,273.0 103.0,273.0 104.0,272.0 105.0,272.0 106.0,271.0 107.0,271.0 108.0,270.0 109.0,271.0 110.0,269.0 111.0,269.0 112.0,268.0 113.0,269.0 114.0,267.0 115.0,268.0 116.0,267.0 117.0,267.0 118.0,266.0 119.0,265.0 120.0,265.0 121.0,265.0 122.0,264.0 123.0,264.0 124.0,263.0 125.0,263.0 126.0,262.0 127.0,263.0 128.0,261.0 129.0,262.0 130.0,260.0 131.0,261.0 132.0,258.0 133.0,260.0 134.0,258.0 135.0,259.0 136.0,257.0 137.0,258.0 138.0,256.0 139.0,258.0 140.0,256.0 141.0,257.0 142.0,255.0 143.0,256.0 144.0,254.0 145.0,255.0 146.0,253.0 147.0,254.0 148.0,252.0 149.0,253.0 150.0,251.0 151.0,252.0 152.0,250.0 153.0,252.0 154.0,249.0 155.0,251.0 156.0,248.0 157.0,250.0 158.0,247.0 159.0,250.0 160.0,246.0 161.0,249.0 162.0,246.0 163.0,248.0 164.0,245.0 165.0,247.0 166.0,245.0 167.0,246.0 168.0,244.0 169.0,243.0 170.0,244.0 171.0,242.0 172.0,243.0 173.0,241.0 174.0,242.0 175.0,241.0 176.0,241.0 177.0,240.0 178.0,240.0 179.0,235.0 180.0,238.0 181.0,236.0 182.0,239.0 183.0,236.0 184.0,238.0 185.0,235.0 186.0,236.0 187.0,235.0 188.0,236.0 189.0,234.0 190.0,235.0 191.0,233.0 192.0,234.0 193.0,231.0 194.0,233.0 195.0,231.0 196.0,233.0 197.0,230.0 198.0,232.0 199.0,229.0 200.0,228.0 201.0,229.0 202.0,228.0 203.0,230.0 204.0,228.0 205.0,229.0 206.0,226.0 207.0,228.0 208.0,225.0 209.0,227.0 210.0,225.0 211.0,226.0 212.0,223.0 213.0,224.0 214.0,223.0 215.0,223.0 216.0,223.0 217.0,222.0 218.0,221.0 219.0,221.0 220.0,221.0 221.0,220.0 222.0,220.0 223.0,220.0 224.0,219.0 225.0,219.0 226.0,218.0 227.0,218.0 228.0,217.0 229.0,217.0 230.0,215.0 231.0,216.0 232.0,215.0 233.0,216.0 234.0,214.0 235.0,215.0 236.0,213.0 237.0,214.0 238.0,212.0 239.0,214.0 240.0,211.0 241.0,212.0 242.0,210.0 243.0,211.0 244.0,210.0 245.0,210.0 246.0,209.0 247.0,209.0 248.0,209.0 249.0,208.0 250.0,206.0 251.0,207.0 252.0,206.0 253.0,207.0 254.0,206.0 255.0,206.0 256.0,205.0 257.0,204.0 258.0,205.0 259.0,203.0 260.0,204.0 261.0,201.0 262.0,203.0 263.0,201.0 264.0,203.0 265.0,200.0 266.0,202.0 267.0,199.0 268.0,201.0 269.0,198.0 270.0,200.0 271.0,197.0 272.0,199.0 273.0,196.0 274.0,199.0 275.0,195.0 276.0,198.0 277.0,194.0 278.0,198.0 279.0,193.0 280.0,196.0 281.0,192.0 282.0,195.0 283.0,191.0 284.0,194.0 285.0,191.0 286.0,193.0 287.0,186.0 288.0,192.0 289.0,186.0 290.0,194.0 291.0,185.0 292.0,193.0 293.0,184.0 294.0,192.0 295.0,183.0 296.0,192.0 297.0,182.0 298.0,191.0 299.0,181.0 300.0,190.0 301.0,180.0 302.0,188.0 303.0,179.0 304.0,187.0 305.0,178.0 306.0,186.0 307.0,177.0 308.0,186.0 309.0,175.0 310.0,185.0 311.0,175.0 312.0,185.0 313.0,174.0 314.0,185.0 315.0,173.0 316.0,184.0 317.0,171.0 318.0,183.0 319.0,171.0 320.0,183.0 321.0,170.0 322.0,182.0 323.0,169.0 324.0,181.0 325.0,168.0 326.0,180.0 327.0,166.0 328.0,179.0 329.0,165.0 330.0,179.0 331.0,164.0 332.0,179.0 333.0,162.0 334.0,178.0 335.0,161.0 336.0,178.0 337.0,159.0 338.0,178.0 339.0,157.0 340.0,177.0 341.0,156.0 342.0,177.0 343.0,155.0 344.0,175.0 345.0,151.0 346.0,174.0 347.0,151.0 348.0,175.0 349.0,150.0 350.0,174.0 351.0,148.0 352.0,174.0 353.0,146.0 354.0,173.0 355.0,145.0 356.0,171.0 357.0,144.0 358.0,170.0 359.0,144.0 360.0,167.0 361.0,144.0 362.0,166.0 363.0,144.0 364.0,164.0 365.0,144.0 366.0,162.0 367.0,145.0 368.0,161.0 369.0,146.0 370.0,159.0 371.0,146.0 372.0,157.0 373.0,146.0 374.0,156.0 375.0,147.0 376.0,154.0 377.0,146.0 378.0,153.0 379.0,146.0 380.0,152.0 381.0,145.0 382.0,151.0 383.0,145.0 384.0,150.0 385.0,143.0 386.0,148.0 387.0,143.0 388.0,146.0 389.0,142.0 390.0,146.0 391.0,141.0 392.0,146.0 393.0,140.0 394.0,144.0 395.0,139.0 396.0,143.0 397.0,138.0 398.0,143.0 399.0,137.0 400.0,141.0 401.0,137.0 402.0,140.0 403.0,137.0 404.0,139.0 405.0,137.0 406.0,138.0 407.0,136.0 408.0,137.0 409.0,136.0 410.0,136.0 411.0,134.0 412.0,135.0 413.0,133.0 414.0,134.0 415.0,133.0 416.0,135.0 417.0,131.0 418.0,133.0 419.0,129.0 420.0,133.0 421.0,129.0 422.0,133.0 423.0,128.0 424.0,132.0 425.0,127.0 426.0,130.0 427.0,125.0 428.0,130.0 429.0,125.0 430.0,130.0 431.0,123.0 432.0,129.0 433.0,122.0 434.0,129.0 435.0,121.0 436.0,129.0 437.0,119.0 438.0,128.0 439.0,117.0 440.0,128.0 441.0,116.0 442.0,128.0 443.0,115.0 444.0,126.0 445.0,114.0 446.0,125.0 447.0,112.0 448.0,124.0 449.0,111.0 450.0,122.0 451.0,111.0 452.0,119.0 453.0,111.0 454.0,117.0 455.0,111.0 456.0,117.0 457.0,111.0 458.0,115.0 459.0,111.0 460.0,115.0 461.0,111.0 462.0,114.0 463.0,110.0 464.0,112.0 465.0,110.0 466.0,112.0 467.0,109.0 468.0,110.0 469.0,108.0 470.0,110.0 471.0,106.0 472.0,109.0 473.0,105.0 474.0,109.0 475.0,105.0 476.0,109.0 477.0,104.0 478.0,107.0 479.0,103.0 480.0,106.0 481.0,102.0 482.0,105.0 483.0,101.0 484.0,105.0 485.0,101.0 486.0,104.0 487.0,100.0 488.0,104.0 489.0,98.0 490.0,102.0 491.0,97.0 492.0,103.0 493.0,95.0 494.0,101.0 495.0,93.0 496.0,101.0 497.0,93.0 498.0,101.0 499.0,91.0 500.0,100.0 501.0,89.0 502.0,99.0 503.0,88.0 504.0,100.0 505.0,86.0 506.0,100.0 507.0,83.0 508.0,101.0 509.0,81.0 510.0,99.0 511.0,78.0 512.0,100.0 513.0,73.0 514.0,101.0 515.0,69.0 516.0,102.0 517.0,64.0 518.0,102.0 519.0,58.0 520.0,103.0 521.0,53.0 522.0,100.0 523.0,48.0 524.0,93.0 525.0,45.0 526.0,83.0 527.0,47.0 528.0,78.0 529.0,51.0 530.0,75.0 531.0,54.0 532.0,73.0 533.0,57.0 534.0,71.0 535.0,60.0 536.0,69.0 537.0,62.0 538.0,68.0 539.0,64.0 540.0,68.0 541.0,66.0 542.0,68.0 543.0,66.0 544.0,69.0 545.0,67.0 546.0,69.0 547.0,68.0 548.0,70.0 549.0,68.0 550.0,69.0 551.0,68.0 552.0,71.0 553.0,69.0 554.0,71.0 555.0,69.0 556.0,70.0 557.0,68.0 558.0,69.0 559.0,68.0 560.0,69.0 561.0,67.0 562.0,69.0 563.0,66.0 564.0,68.0 565.0,65.0 566.0,67.0 567.0,65.0 568.0,67.0 569.0,64.0 570.0,67.0 571.0,64.0 572.0,65.0 573.0,62.0 574.0,64.0 575.0,63.0 576.0,64.0 577.0,61.0 578.0,63.0 579.0,61.0 580.0,61.0 581.0,60.0 582.0,60.0 583.0,60.0 584.0,60.0 585.0,59.0 586.0,59.0 587.0,58.0 588.0,57.0 589.0,58.0 590.0,56.0 591.0,58.0 592.0,54.0 593.0,57.0 594.0,53.0 595.0,57.0 596.0,52.0 597.0,56.0 598.0,51.0 599.0,55.0 600.0,50.0 601.0,54.0 602.0,49.0 603.0,54.0 604.0,48.0 605.0,53.0 606.0,46.0 607.0,53.0 608.0,45.0 609.0,52.0 610.0,43.0 611.0,52.0 612.0,40.0 613.0,51.0 614.0,39.0 615.0,51.0 616.0,38.0 617.0,51.0 618.0,36.0 619.0,51.0 620.0,32.0 621.0,50.0 622.0,31.0 623.0,51.0 624.0,27.0 625.0,50.0 626.0,23.0 627.0,50.0 628.0,20.0 629.0,48.0 630.0,16.0 631.0,44.0 632.0,14.0 633.0,39.0 634.0,15.0 635.0,35.0 636.0,16.0 637.0,32.0 638.0,18.0 639.0,29.0 640.0,20.0 641.0,29.0 642.0,22.0 643.0,29.0 644.0,24.0 645.0,29.0 646.0,24.0 647.0,29.0 648.0,25.0 649.0,30.0 650.0,26.0 651.0,29.0 652.0,25.0 653.0,29.0 654.0,25.0" fill="none" stroke="#d0d000" />
	<polyline points="55.0,298.0 56.0,296.0 57.0,296.0 58.0,296.0 59.0,294.0 60.0,294.0 61.0,293.0 62.0,294.0 63.0,293.0 64.0,292.0 65.0,292.0 66.0,291.0 67.0,290.0 68.0,290.0 69.0,290.0 70.0,290.0 71.0,289.0 72.0,288.0 73.0,288.0 74.0,286.0 75.0,287.0 76.0,287.0 77.0,285.0 78.0,286.0 79.0,284.0 80.0,284.0 81.0,283.0 82.0,282.0 83.0,282.0 84.0,282.0 85.0,281.0 86.0,280.0 87.0,280.0 88.0,279.0 89.0,279.0 90.0,278.0 91.0,277.0 92.0,276.0 93.0,276.0 94.0,275.0 95.0,275.0 96.0,274.0 97.0,274.0 98.0,274.0 99.0,273.0 100.0,273.0 101.0,272.0 102.0,272.0 103.0,271.0 104.0,271.0 105.0,269.0 106.0,269.0 107.0,267.0 108.0,267.0 109.0,266.0 110.0,265.0 111.0,265.0 112.0,265.0 113.0,264.0 114.0,263.0 115.0,263.0 116.0,261.0 117.0,262.0 118.0,261.0 119.0,262.0 120.0,261.0 121.0,261.0 122.0,261.0 123.0,261.0 124.0,260.0 125.0,260.0 126.0,260.0 127.0,259.0 128.0,260.0 129.0,258.0 130.0,257.0 131.0,258.0 132.0,257.0 133.0,257.0 134.0,256.0 135.0,256.0 136.0,256.0 137.0,255.0 138.0,255.0 139.0,254.0 140.0,253.0 141.0,253.0 142.0,251.0 143.0,252.0 144.0,251.0 145.0,251.0 146.0,251.0 147.0,250.0 148.0,251.0 149.0,249.0 150.0,249.0 151.0,249.0 152.0,248.0 153.0,247.0 154.0,246.0 155.0,247.0 156.0,247.0 157.0,247.0 158.0,246.0 159.0,246.0 160.0,245.0 161.0,244.0 162.0,244.0 163.0,245.0 164.0,244.0 165.0,244.0 166.0,241.0 167.0,243.0 168.0,241.0 169.0,242.0 170.0,242.0 171.0,241.0 172.0,239.0 173.0,240.0 174.0,239.0 175.0,240.0 176.0,239.0 177.0,238.0 178.0,238.0 179.0,237.0 180.0,238.0 181.0,236.0 182.0,237.0 183.0,235.0 184.0,236.0 185.0,234.0 186.0,235.0 187.0,235.0 188.0,234.0 189.0,234.0 190.0,234.0 191.0,233.0 192.0,233.0 193.0,233.0 194.0,229.0 195.0,231.0 196.0,229.0 197.0,230.0 198.0,230.0 199.0,230.0 200.0,229.0 201.0,230.0 202.0,229.0 203.0,228.0 204.0,228.0 205.0,228.0 206.0,228.0 207.0,228.0 208.0,227.0 209.0,228.0 210.0,226.0 211.0,227.0 212.0,226.0 213.0,226.0 214.0,226.0 215.0,226.0 216.0,226.0 217.0,225.0 218.0,225.0 219.0,226.0 220.0,225.0 221.0,225.0 222.0,225.0 223.0,224.0 224.0,224.0 225.0,224.0 226.0,223.0 227.0,222.0 228.0,223.0 229.0,222.0 230.0,221.0 231.0,221.0 232.0,221.0 233.0,219.0 234.0,220.0 235.0,219.0 236.0,218.0 237.0,218.0 238.0,217.0 239.0,217.0 240.0,216.0 241.0,216.0 242.0,215.0 243.0,214.0 244.0,214.0 245.0,214.0 246.0,213.0 247.0,213.0 248.0,212.0 249.0,211.0 250.0,211.0 251.0,210.0 252.0,209.0 253.0,208.0 254.0,207.0 255.0,207.0 256.0,206.0 257.0,206.0 258.0,206.0 259.0,206.0 260.0,205.0 261.0,205.0 262.0,204.0 263.0,204.0 264.0,203.0 265.0,202.0 266.0,201.0 267.0,200.0 268.0,197.0 269.0,198.0 270.0,196.0 271.0,196.0 272.0,195.0 273.0,195.0 274.0,193.0 275.0,192.0 276.0,191.0 277.0,189.0 278.0,189.0 279.0,187.0 280.0,186.0 281.0,183.0 282.0,183.0 283.0,180.0 284.0,181.0 285.0,178.0 286.0,178.0 287.0,176.0 288.0,176.0 289.0,175.0 290.0,175.0 291.0,174.0 292.0,173.0 293.0,172.0 294.0,173.0 295.0,171.0 296.0,173.0 297.0,170.0 298.0,172.0 299.0,169.0 300.0,171.0 301.0,168.0 302.0,171.0 303.0,168.0 304.0,170.0 305.0,168.0 306.0,170.0 307.0,167.0 308.0,169.0 309.0,166.0 310.0,169.0 311.0,165.0 312.0,169.0 313.0,164.0 314.0,167.0 315.0,164.0 316.0,166.0 317.0,163.0 318.0,166.0 319.0,163.0 320.0,166.0 321.0,162.0 322.0,166.0 323.0,161.0 324.0,165.0 325.0,161.0 326.0,164.0 327.0,161.0 328.0,164.0 329.0,160.0 330.0,163.0 331.0,160.0 332.0,162.0 333.0,159.0 334.0,163.0 335.0,159.0 336.0,163.0 337.0,159.0 338.0,163.0 339.0,159.0 340.0,164.0 341.0,159.0 342.0,164.0 343.0,159.0 344.0,165.0 345.0,159.0 346.0,166.0 347.0,158.0 348.0,166.0 349.0,158.0 350.0,166.0 351.0,158.0 352.0,166.0 353.0,157.0 354.0,166.0 355.0,157.0 356.0,166.0 357.0,156.0 358.0,166.0 359.0,156.0 360.0,166.0 361.0,156.0 362.0,165.0 363.0,157.0 364.0,165.0 365.0,156.0 366.0,164.0 367.0,157.0 368.0,164.0 369.0,158.0 370.0,164.0 371.0,158.0 372.0,163.0 373.0,158.0 374.0,162.0 375.0,159.0 376.0,162.0 377.0,160.0 378.0,162.0 379.0,159.0 380.0,160.0 381.0,158.0 382.0,160.0 383.0,158.0 384.0,159.0 385.0,157.0 386.0,159.0 387.0,157.0 388.0,158.0 389.0,156.0 390.0,157.0 391.0,156.0 392.0,155.0 393.0,155.0 394.0,155.0 395.0,155.0 396.0,155.0 397.0,154.0 398.0,154.0 399.0,153.0 400.0,153.0 401.0,152.0 402.0,152.0 403.0,151.0 404.0,151.0 405.0,151.0 406.0,150.0 407.0,149.0 408.0,149.0 409.0,148.0 410.0,145.0 411.0,145.0 412.0,144.0 413.0,144.0 414.0,144.0 415.0,144.0 416.0,144.0 417.0,143.0 418.0,143.0 419.0,143.0 420.0,142.0 421.0,142.0 422.0,142.0 423.0,141.0 424.0,140.0 425.0,140.0 426.0,140.0 427.0,139.0 428.0,138.0 429.0,136.0 430.0,136.0 431.0,135.0 432.0,135.0 433.0,135.0 434.0,135.0 435.0,133.0 436.0,133.0 437.0,133.0 438.0,133.0 439.0,133.0 440.0,132.0 441.0,132.0 442.0,131.0 443.0,130.0 444.0,130.0 445.0,128.0 446.0,128.0 447.0,127.0 448.0,127.0 449.0,126.0 450.0,126.0 451.0,124.0 452.0,126.0 453.0,123.0 454.0,124.0 455.0,123.0 456.0,122.0 457.0,121.0 458.0,122.0 459.0,121.0 460.0,121.0 461.0,119.0 462.0,119.0 463.0,119.0 464.0,118.0 465.0,117.0 466.0,117.0 467.0,116.0 468.0,117.0 469.0,117.0 470.0,115.0 471.0,114.0 472.0,114.0 473.0,114.0 474.0,113.0 475.0,112.0 476.0,112.0 477.0,112.0 478.0,112.0 479.0,111.0 480.0,110.0 481.0,111.0 482.0,108.0 483.0,109.0 484.0,108.0 485.0,107.0 486.0,107.0 487.0,107.0 488.0,107.0 489.0,106.0 490.0,105.0 491.0,105.0 492.0,105.0 493.0,103.0 494.0,103.0 495.0,102.0 496.0,101.0 497.0,100.0 498.0,100.0 499.0,100.0 500.0,99.0 501.0,99.0 502.0,98.0 503.0,96.0 504.0,94.0 505.0,95.0 506.0,93.0 507.0,92.0 508.0,92.0 509.0,91.0 510.0,90.0 511.0,90.0 512.0,87.0 513.0,87.0 514.0,86.0 515.0,84.0 516.0,84.0 517.0,82.0 518.0,82.0 519.0,78.0 520.0,79.0 521.0,73.0 522.0,76.0 523.0,66.0 524.0,74.0 525.0,58.0 526.0,72.0 527.0,56.0 528.0,70.0 529.0,57.0 530.0,68.0 531.0,59.0 532.0,68.0 533.0,61.0 534.0,67.0 535.0,64.0 536.0,67.0 537.0,66.0 538.0,65.0 539.0,68.0 540.0,64.0 541.0,69.0 542.0,65.0 543.0,70.0 544.0,66.0 545.0,70.0 546.0,66.0 547.0,70.0 548.0,67.0 549.0,71.0 550.0,68.0 551.0,70.0 552.0,68.0 553.0,71.0 554.0,68.0 555.0,71.0 556.0,69.0 557.0,71.0 558.0,69.0 559.0,71.0 560.0,69.0 561.0,70.0 562.0,69.0 563.0,69.0 564.0,69.0 565.0,69.0 566.0,68.0 567.0,69.0 568.0,67.0 569.0,68.0 570.0,67.0 571.0,67.0 572.0,66.0 573.0,66.0 574.0,65.0 575.0,64.0 576.0,64.0 577.0,62.0 578.0,62.0 579.0,62.0 580.0,62.0 581.0,60.0 582.0,61.0 583.0,60.0 584.0,60.0 585.0,59.0 586.0,59.0 587.0,59.0 588.0,58.0 589.0,58.0 590.0,58.0 591.0,58.0 592.0,57.0 593.0,58.0 594.0,56.0 595.0,57.0 596.0,56.0 597.0,56.0 598.0,55.0 599.0,55.0 600.0,54.0 601.0,54.0 602.0,53.0 603.0,53.0 604.0,52.0 605.0,53.0 606.0,52.0 607.0,52.0 608.0,50.0 609.0,51.0 610.0,50.0 611.0,50.0 612.0,50.0 613.0,51.0 614.0,49.0 615.0,49.0 616.0,48.0 617.0,48.0 618.0,47.0 619.0,47.0 620.0,48.0 621.0,48.0 622.0,47.0 623.0,47.0 624.0,47.0 625.0,46.0 626.0,44.0 627.0,44.0 628.0,43.0 629.0,40.0 630.0,40.0 631.0,38.0 632.0,37.0 633.0,35.0 634.0,34.0 635.0,32.0 636.0,33.0 637.0,33.0 638.0,32.0 639.0,34.0 640.0,32.0 641.0,35.0 642.0,33.0 643.0,34.0 644.0,33.0 645.0,34.0 646.0,33.0 647.0,33.0 648.0,34.0 649.0,33.0 650.0,34.0 651.0,33.0 652.0,33.0 653.0,32.0 654.0,32.0" fill="none" stroke="#fb46bc" />
	<polyline points="55.0,293.0 56.0,293.0 57.0,293.0 58.0,292.0 59.0,291.0 60.0,291.0 61.0,290.0 62.0,290.0 63.0,289.0 64.0,289.0 65.0,288.0 66.0,288.0 67.0,287.0 68.0,287.0 69.0,286.0 70.0,286.0 71.0,286.0 72.0,286.0 73.0,285.0 74.0,285.0 75.0,284.0 76.0,284.0 77.0,283.0 78.0,283.0 79.0,283.0 80.0,282.0 81.0,282.0 82.0,282.0 83.0,281.0 84.0,281.0 85.0,280.0 86.0,280.0 87.0,279.0 88.0,279.0 89.0,279.0 90.0,278.0 91.0,278.0 92.0,277.0 93.0,277.0 94.0,276.0 95.0,276.0 96.0,275.0 97.0,275.0 98.0,275.0 99.0,274.0 100.0,274.0 101.0,273.0 102.0,273.0 103.0,272.0 104.0,272.0 105.0,271.0 106.0,271.0 107.0,270.0 108.0,270.0 109.0,269.0 110.0,269.0 111.0,269.0 112.0,268.0 113.0,268.0 114.0,267.0 115.0,267.0 116.0,266.0 117.0,266.0 118.0,265.0 119.0,265.0 120.0,265.0 121.0,264.0 122.0,264.0 123.0,263.0 124.0,263.0 125.0,262.0 126.0,262.0 127.0,261.0 128.0,261.0 129.0,260.0 130.0,260.0 131.0,260.0 132.0,259.0 133.0,259.0 134.0,258.0 135.0,258.0 136.0,258.0 137.0,258.0 138.0,257.0 139.0,257.0 140.0,255.0 141.0,255.0 142.0,255.0 143.0,255.0 144.0,254.0 145.0,254.0 146.0,253.0 147.0,253.0 148.0,252.0 149.0,252.0 150.0,252.0 151.0,251.0 152.0,250.0 153.0,250.0 154.0,250.0 155.0,249.0 156.0,248.0 157.0,249.0 158.0,247.0 159.0,247.0 160.0,246.0 161.0,247.0 162.0,245.0 163.0,246.0 164.0,244.0 165.0,245.0 166.0,243.0 167.0,243.0 168.0,243.0 169.0,242.0 170.0,242.0 171.0,242.0 172.0,241.0 173.0,241.0 174.0,240.0 175.0,240.0 176.0,239.0 177.0,239.0 178.0,238.0 179.0,238.0 180.0,237.0 181.0,236.0 182.0,236.0 183.0,235.0 184.0,235.0 185.0,235.0 186.0,234.0 187.0,234.0 188.0,233.0 189.0,233.0 190.0,232.0 191.0,233.0 192.0,232.0 193.0,232.0 194.0,231.0 195.0,231.0 196.0,229.0 197.0,230.0 198.0,229.0 199.0,229.0 200.0,228.0 201.0,228.0 202.0,227.0 203.0,227.0 204.0,226.0 205.0,226.0 206.0,225.0 207.0,225.0 208.0,225.0 209.0,224.0 210.0,224.0 211.0,224.0 212.0,223.0 213.0,222.0 214.0,222.0 215.0,221.0 216.0,221.0 217.0,221.0 218.0,220.0 219.0,220.0 220.0,219.0 221.0,219.0 222.0,219.0 223.0,218.0 224.0,218.0 225.0,218.0 226.0,217.0 227.0,217.0 228.0,216.0 229.0,216.0 230.0,215.0 231.0,215.0 232.0,214.0 233.0,214.0 234.0,213.0 235.0,213.0 236.0,212.0 237.0,212.0 238.0,211.0 239.0,211.0 240.0,210.0 241.0,210.0 242.0,209.0 243.0,210.0 244.0,208.0 245.0,209.0 246.0,207.0 247.0,208.0 248.0,206.0 249.0,207.0 250.0,205.0 251.0,206.0 252.0,204.0 253.0,205.0 254.0,204.0 255.0,204.0 256.0,203.0 257.0,203.0 258.0,202.0 259.0,203.0 260.0,202.0 261.0,201.0 262.0,201.0 263.0,201.0 264.0,200.0 265.0,200.0 266.0,199.0 267.0,200.0 268.0,198.0 269.0,198.0 270.0,197.0 271.0,198.0 272.0,196.0 273.0,197.0 274.0,195.0 275.0,196.0 276.0,194.0 277.0,194.0 278.0,194.0 279.0,193.0 280.0,193.0 281.0,193.0 282.0,192.0 283.0,192.0 284.0,191.0 285.0,191.0 286.0,189.0 287.0,191.0 288.0,189.0 289.0,190.0 290.0,188.0 291.0,189.0 292.0,187.0 293.0,188.0 294.0,187.0 295.0,187.0 296.0,186.0 297.0,186.0 298.0,186.0 299.0,185.0 300.0,186.0 301.0,183.0 302.0,185.0 303.0,183.0 304.0,183.0 305.0,182.0 306.0,182.0 307.0,181.0 308.0,182.0 309.0,179.0 310.0,181.0 311.0,177.0 312.0,179.0 313.0,176.0 314.0,179.0 315.0,177.0 316.0,178.0 317.0,176.0 318.0,177.0 319.0,175.0 320.0,176.0 321.0,175.0 322.0,175.0 323.0,174.0 324.0,174.0 325.0,173.0 326.0,173.0 327.0,172.0 328.0,172.0 329.0,171.0 330.0,171.0 331.0,171.0 332.0,170.0 333.0,169.0 334.0,169.0 335.0,168.0 336.0,169.0 337.0,166.0 338.0,168.0 339.0,166.0 340.0,167.0 341.0,164.0 342.0,166.0 343.0,163.0 344.0,166.0 345.0,161.0 346.0,166.0 347.0,160.0 348.0,164.0 349.0,159.0 350.0,164.0 351.0,157.0 352.0,163.0 353.0,156.0 354.0,162.0 355.0,154.0 356.0,161.0 357.0,153.0 358.0,160.0 359.0,152.0 360.0,160.0 361.0,151.0 362.0,159.0 363.0,151.0 364.0,159.0 365.0,150.0 366.0,157.0 367.0,151.0 368.0,157.0 369.0,151.0 370.0,156.0 371.0,150.0 372.0,155.0 373.0,150.0 374.0,153.0 375.0,150.0 376.0,152.0 377.0,150.0 378.0,152.0 379.0,149.0 380.0,151.0 381.0,149.0 382.0,150.0 383.0,148.0 384.0,149.0 385.0,147.0 386.0,148.0 387.0,146.0 388.0,147.0 389.0,146.0 390.0,146.0 391.0,144.0 392.0,145.0 393.0,143.0 394.0,144.0 395.0,143.0 396.0,143.0 397.0,142.0 398.0,142.0 399.0,141.0 400.0,141.0 401.0,141.0 402.0,140.0 403.0,140.0 404.0,139.0 405.0,139.0 406.0,139.0 407.0,138.0 408.0,138.0 409.0,138.0 410.0,136.0 411.0,137.0 412.0,135.0 413.0,136.0 414.0,135.0 415.0,135.0 416.0,134.0 417.0,134.0 418.0,133.0 419.0,133.0 420.0,132.0 421.0,131.0 422.0,131.0 423.0,130.0 424.0,130.0 425.0,129.0 426.0,130.0 427.0,129.0 428.0,129.0 429.0,128.0 430.0,127.0 431.0,126.0 432.0,127.0 433.0,126.0 434.0,125.0 435.0,124.0 436.0,124.0 437.0,124.0 438.0,123.0 439.0,124.0 440.0,122.0 441.0,122.0 442.0,121.0 443.0,121.0 444.0,120.0 445.0,120.0 446.0,120.0 447.0,119.0 448.0,119.0 449.0,117.0 450.0,117.0 451.0,116.0 452.0,115.0 453.0,116.0 454.0,114.0 455.0,115.0 456.0,113.0 457.0,114.0 458.0,112.0 459.0,112.0 460.0,112.0 461.0,112.0 462.0,112.0 463.0,112.0 464.0,111.0 465.0,111.0 466.0,110.0 467.0,110.0 468.0,110.0 469.0,109.0 470.0,109.0 471.0,108.0 472.0,108.0 473.0,107.0 474.0,107.0 475.0,107.0 476.0,107.0 477.0,106.0 478.0,106.0 479.0,105.0 480.0,105.0 481.0,104.0 482.0,104.0 483.0,103.0 484.0,104.0 485.0,102.0 486.0,103.0 487.0,101.0 488.0,101.0 489.0,100.0 490.0,101.0 491.0,100.0 492.0,99.0 493.0,98.0 494.0,98.0 495.0,97.0 496.0,97.0 497.0,96.0 498.0,96.0 499.0,96.0 500.0,95.0 501.0,95.0 502.0,93.0 503.0,94.0 504.0,92.0 505.0,93.0 506.0,91.0 507.0,92.0 508.0,90.0 509.0,91.0 510.0,88.0 511.0,89.0 512.0,87.0 513.0,88.0 514.0,84.0 515.0,86.0 516.0,82.0 517.0,83.0 518.0,78.0 519.0,81.0 520.0,75.0 521.0,77.0 522.0,72.0 523.0,73.0 524.0,68.0 525.0,68.0 526.0,65.0 527.0,68.0 528.0,63.0 529.0,70.0 530.0,62.0 531.0,72.0 532.0,61.0 533.0,74.0 534.0,61.0 535.0,76.0 536.0,60.0 537.0,78.0 538.0,60.0 539.0,78.0 540.0,60.0 541.0,77.0 542.0,60.0 543.0,76.0 544.0,62.0 545.0,75.0 546.0,63.0 547.0,75.0 548.0,65.0 549.0,74.0 550.0,65.0 551.0,74.0 552.0,66.0 553.0,74.0 554.0,67.0 555.0,74.0 556.0,66.0 557.0,72.0 558.0,66.0 559.0,72.0 560.0,67.0 561.0,70.0 562.0,66.0 563.0,69.0 564.0,65.0 565.0,69.0 566.0,65.0 567.0,68.0 568.0,65.0 569.0,67.0 570.0,64.0 571.0,66.0 572.0,63.0 573.0,65.0 574.0,62.0 575.0,64.0 576.0,62.0 577.0,63.0 578.0,62.0 579.0,62.0 580.0,61.0 581.0,62.0 582.0,60.0 583.0,61.0 584.0,59.0 585.0,60.0 586.0,58.0 587.0,59.0 588.0,58.0 589.0,58.0 590.0,57.0 591.0,57.0 592.0,55.0 593.0,56.0 594.0,54.0 595.0,55.0 596.0,53.0 597.0,54.0 598.0,52.0 599.0,54.0 600.0,51.0 601.0,53.0 602.0,50.0 603.0,51.0 604.0,50.0 605.0,51.0 606.0,49.0 607.0,50.0 608.0,48.0 609.0,48.0 610.0,48.0 611.0,48.0 612.0,47.0 613.0,46.0 614.0,45.0 615.0,44.0 616.0,44.0 617.0,44.0 618.0,43.0 619.0,42.0 620.0,42.0 621.0,41.0 622.0,40.0 623.0,39.0 624.0,39.0 625.0,37.0 626.0,37.0 627.0,35.0 628.0,34.0 629.0,32.0 630.0,31.0 631.0,29.0 632.0,28.0 633.0,26.0 634.0,26.0 635.0,24.0 636.0,25.0 637.0,23.0 638.0,26.0 639.0,24.0 640.0,27.0 641.0,25.0 642.0,27.0 643.0,25.0 644.0,28.0 645.0,26.0 646.0,29.0 647.0,25.0 648.0,29.0 649.0,25.0 650.0,29.0 651.0,25.0 652.0,29.0 653.0,26.0 654.0,28.0" fill="none" stroke="#0000ff" />
	<polyline points="55.0,298.0 56.0,298.0 57.0,298.0 58.0,298.0 59.0,298.0 60.0,298.0 61.0,298.0 62.0,298.0 63.0,297.0 64.0,297.0 65.0,296.0 66.0,296.0 67.0,295.0 68.0,296.0 69.0,295.0 70.0,296.0 71.0,295.0 72.0,294.0 73.0,294.0 74.0,293.0 75.0,293.0 76.0,293.0 77.0,292.0 78.0,292.0 79.0,291.0 80.0,291.0 81.0,291.0 82.0,291.0 83.0,290.0 84.0,290.0 85.0,289.0 86.0,289.0 87.0,288.0 88.0,289.0 89.0,286.0 90.0,286.0 91.0,286.0 92.0,285.0 93.0,285.0 94.0,283.0 95.0,284.0 96.0,283.0 97.0,282.0 98.0,282.0 99.0,282.0 100.0,281.0 101.0,282.0 102.0,281.0 103.0,281.0 104.0,281.0 105.0,280.0 106.0,279.0 107.0,279.0 108.0,278.0 109.0,277.0 110.0,277.0 111.0,275.0 112.0,274.0 113.0,272.0 114.0,270.0 115.0,269.0 116.0,265.0 117.0,265.0 118.0,262.0 119.0,261.0 120.0,259.0 121.0,258.0 122.0,257.0 123.0,255.0 124.0,253.0 125.0,253.0 126.0,252.0 127.0,250.0 128.0,249.0 129.0,248.0 130.0,248.0 131.0,247.0 132.0,246.0 133.0,247.0 134.0,246.0 135.0,246.0 136.0,245.0 137.0,244.0 138.0,244.0 139.0,244.0 140.0,244.0 141.0,243.0 142.0,243.0 143.0,242.0 144.0,241.0 145.0,241.0 146.0,241.0 147.0,240.0 148.0,241.0 149.0,240.0 150.0,240.0 151.0,240.0 152.0,239.0 153.0,239.0 154.0,238.0 155.0,238.0 156.0,237.0 157.0,238.0 158.0,236.0 159.0,237.0 160.0,235.0 161.0,237.0 162.0,236.0 163.0,236.0 164.0,235.0 165.0,236.0 166.0,234.0 167.0,235.0 168.0,233.0 169.0,235.0 170.0,233.0 171.0,234.0 172.0,234.0 173.0,233.0 174.0,232.0 175.0,233.0 176.0,232.0 177.0,231.0 178.0,231.0 179.0,232.0 180.0,231.0 181.0,231.0 182.0,231.0 183.0,230.0 184.0,230.0 185.0,229.0 186.0,230.0 187.0,229.0 188.0,229.0 189.0,228.0 190.0,229.0 191.0,229.0 192.0,228.0 193.0,228.0 194.0,228.0 195.0,228.0 196.0,227.0 197.0,228.0 198.0,227.0 199.0,226.0 200.0,227.0 201.0,226.0 202.0,225.0 203.0,226.0 204.0,226.0 205.0,227.0 206.0,226.0 207.0,227.0 208.0,226.0 209.0,227.0 210.0,226.0 211.0,226.0 212.0,227.0 213.0,226.0 214.0,226.0 215.0,227.0 216.0,225.0 217.0,227.0 218.0,225.0 219.0,226.0 220.0,226.0 221.0,225.0 222.0,225.0 223.0,225.0 224.0,224.0 225.0,224.0 226.0,223.0 227.0,222.0 228.0,223.0 229.0,222.0 230.0,221.0 231.0,222.0 232.0,221.0 233.0,221.0 234.0,220.0 235.0,219.0 236.0,219.0 237.0,218.0 238.0,218.0 239.0,218.0 240.0,217.0 241.0,218.0 242.0,217.0 243.0,217.0 244.0,216.0 245.0,215.0 246.0,215.0 247.0,215.0 248.0,215.0 249.0,215.0 250.0,214.0 251.0,213.0 252.0,212.0 253.0,211.0 254.0,210.0 255.0,210.0 256.0,210.0 257.0,210.0 258.0,209.0 259.0,207.0 260.0,208.0 261.0,206.0 262.0,207.0 263.0,206.0 264.0,206.0 265.0,203.0 266.0,204.0 267.0,202.0 268.0,202.0 269.0,202.0 270.0,202.0 271.0,201.0 272.0,201.0 273.0,200.0 274.0,198.0 275.0,199.0 276.0,199.0 277.0,198.0 278.0,199.0 279.0,198.0 280.0,198.0 281.0,197.0 282.0,199.0 283.0,199.0 284.0,200.0 285.0,199.0 286.0,200.0 287.0,200.0 288.0,200.0 289.0,198.0 290.0,200.0 291.0,198.0 292.0,198.0 293.0,198.0 294.0,199.0 295.0,196.0 296.0,198.0 297.0,197.0 298.0,198.0 299.0,197.0 300.0,199.0 301.0,197.0 302.0,198.0 303.0,196.0 304.0,198.0 305.0,195.0 306.0,196.0 307.0,194.0 308.0,195.0 309.0,192.0 310.0,194.0 311.0,190.0 312.0,192.0 313.0,188.0 314.0,191.0 315.0,187.0 316.0,190.0 317.0,186.0 318.0,189.0 319.0,184.0 320.0,187.0 321.0,181.0 322.0,183.0 323.0,180.0 324.0,181.0 325.0,177.0 326.0,180.0 327.0,174.0 328.0,177.0 329.0,172.0 330.0,175.0 331.0,170.0 332.0,172.0 333.0,168.0 334.0,170.0 335.0,164.0 336.0,169.0 337.0,162.0 338.0,167.0 339.0,160.0 340.0,165.0 341.0,158.0 342.0,162.0 343.0,153.0 344.0,161.0 345.0,153.0 346.0,159.0 347.0,151.0 348.0,157.0 349.0,150.0 350.0,157.0 351.0,149.0 352.0,157.0 353.0,148.0 354.0,155.0 355.0,146.0 356.0,155.0 357.0,144.0 358.0,153.0 359.0,144.0 360.0,153.0 361.0,143.0 362.0,152.0 363.0,142.0 364.0,151.0 365.0,142.0 366.0,151.0 367.0,142.0 368.0,150.0 369.0,143.0 370.0,149.0 371.0,143.0 372.0,148.0 373.0,142.0 374.0,148.0 375.0,143.0 376.0,147.0 377.0,144.0 378.0,146.0 379.0,143.0 380.0,146.0 381.0,144.0 382.0,146.0 383.0,144.0 384.0,147.0 385.0,143.0 386.0,145.0 387.0,144.0 388.0,145.0 389.0,143.0 390.0,145.0 391.0,143.0 392.0,143.0 393.0,143.0 394.0,143.0 395.0,143.0 396.0,144.0 397.0,144.0 398.0,144.0 399.0,145.0 400.0,144.0 401.0,143.0 402.0,142.0 403.0,142.0 404.0,142.0 405.0,141.0 406.0,142.0 407.0,142.0 408.0,142.0 409.0,141.0 410.0,142.0 411.0,141.0 412.0,140.0 413.0,142.0 414.0,141.0 415.0,142.0 416.0,141.0 417.0,142.0 418.0,143.0 419.0,142.0 420.0,141.0 421.0,142.0 422.0,142.0 423.0,142.0 424.0,142.0 425.0,142.0 426.0,142.0 427.0,142.0 428.0,142.0 429.0,142.0 430.0,142.0 431.0,141.0 432.0,141.0 433.0,141.0 434.0,141.0 435.0,140.0 436.0,140.0 437.0,139.0 438.0,140.0 439.0,140.0 440.0,139.0 441.0,139.0 442.0,138.0 443.0,137.0 444.0,136.0 445.0,135.0 446.0,135.0 447.0,133.0 448.0,135.0 449.0,132.0 450.0,134.0 451.0,131.0 452.0,132.0 453.0,130.0 454.0,130.0 455.0,128.0 456.0,128.0 457.0,127.0 458.0,126.0 459.0,125.0 460.0,125.0 461.0,126.0 462.0,125.0 463.0,125.0 464.0,124.0 465.0,124.0 466.0,123.0 467.0,122.0 468.0,122.0 469.0,121.0 470.0,121.0 471.0,119.0 472.0,119.0 473.0,118.0 474.0,117.0 475.0,118.0 476.0,117.0 477.0,113.0 478.0,115.0 479.0,113.0 480.0,114.0 481.0,111.0 482.0,111.0 483.0,111.0 484.0,110.0 485.0,110.0 486.0,109.0 487.0,108.0 488.0,108.0 489.0,108.0 490.0,107.0 491.0,106.0 492.0,105.0 493.0,105.0 494.0,104.0 495.0,104.0 496.0,103.0 497.0,102.0 498.0,102.0 499.0,100.0 500.0,100.0 501.0,99.0 502.0,99.0 503.0,98.0 504.0,96.0 505.0,95.0 506.0,94.0 507.0,94.0 508.0,92.0 509.0,91.0 510.0,91.0 511.0,90.0 512.0,89.0 513.0,89.0 514.0,87.0 515.0,86.0 516.0,85.0 517.0,83.0 518.0,83.0 519.0,79.0 520.0,80.0 521.0,73.0 522.0,77.0 523.0,67.0 524.0,75.0 525.0,61.0 526.0,73.0 527.0,59.0 528.0,71.0 529.0,59.0 530.0,70.0 531.0,59.0 532.0,69.0 533.0,62.0 534.0,68.0 535.0,65.0 536.0,67.0 537.0,68.0 538.0,66.0 539.0,69.0 540.0,66.0 541.0,70.0 542.0,66.0 543.0,72.0 544.0,66.0 545.0,71.0 546.0,66.0 547.0,71.0 548.0,68.0 549.0,72.0 550.0,68.0 551.0,72.0 552.0,68.0 553.0,71.0 554.0,69.0 555.0,71.0 556.0,69.0 557.0,71.0 558.0,68.0 559.0,70.0 560.0,68.0 561.0,70.0 562.0,68.0 563.0,69.0 564.0,68.0 565.0,69.0 566.0,67.0 567.0,67.0 568.0,66.0 569.0,66.0 570.0,65.0 571.0,65.0 572.0,64.0 573.0,64.0 574.0,64.0 575.0,63.0 576.0,63.0 577.0,62.0 578.0,63.0 579.0,62.0 580.0,62.0 581.0,61.0 582.0,61.0 583.0,59.0 584.0,61.0 585.0,61.0 586.0,62.0 587.0,62.0 588.0,61.0 589.0,62.0 590.0,62.0 591.0,61.0 592.0,60.0 593.0,60.0 594.0,60.0 595.0,60.0 596.0,59.0 597.0,59.0 598.0,57.0 599.0,58.0 600.0,55.0 601.0,56.0 602.0,56.0 603.0,56.0 604.0,54.0 605.0,55.0 606.0,54.0 607.0,54.0 608.0,53.0 609.0,53.0 610.0,52.0 611.0,52.0 612.0,51.0 613.0,52.0 614.0,50.0 615.0,51.0 616.0,49.0 617.0,48.0 618.0,47.0 619.0,47.0 620.0,45.0 621.0,46.0 622.0,43.0 623.0,44.0 624.0,41.0 625.0,40.0 626.0,39.0 627.0,38.0 628.0,35.0 629.0,34.0 630.0,32.0 631.0,30.0 632.0,28.0 633.0,26.0 634.0,24.0 635.0,23.0 636.0,23.0 637.0,25.0 638.0,24.0 639.0,26.0 640.0,26.0 641.0,27.0 642.0,26.0 643.0,29.0 644.0,28.0 645.0,29.0 646.0,28.0 647.0,30.0 648.0,28.0 649.0,29.0 650.0,28.0 651.0,28.0 652.0,28.0 653.0,28.0 654.0,29.0" fill="none" stroke="#00bfff" />
	<polyline points="55.0,301.0 56.0,300.0 57.0,299.0 58.0,299.0 59.0,299.0 60.0,299.0 61.0,298.0 62.0,298.0 63.0,296.0 64.0,296.0 65.0,295.0 66.0,295.0 67.0,295.0 68.0,295.0 69.0,294.0 70.0,292.0 71.0,292.0 72.0,291.0 73.0,291.0 74.0,290.0 75.0,289.0 76.0,289.0 77.0,288.0 78.0,288.0 79.0,288.0 80.0,287.0 81.0,286.0 82.0,287.0 83.0,286.0 84.0,285.0 85.0,284.0 86.0,284.0 87.0,283.0 88.0,283.0 89.0,282.0 90.0,281.0 91.0,282.0 92.0,281.0 93.0,280.0 94.0,281.0 95.0,280.0 96.0,279.0 97.0,280.0 98.0,279.0 99.0,278.0 100.0,278.0 101.0,277.0 102.0,277.0 103.0,276.0 104.0,276.0 105.0,276.0 106.0,276.0 107.0,275.0 108.0,276.0 109.0,274.0 110.0,274.0 111.0,273.0 112.0,273.0 113.0,272.0 114.0,272.0 115.0,271.0 116.0,271.0 117.0,271.0 118.0,269.0 119.0,269.0 120.0,268.0 121.0,268.0 122.0,268.0 123.0,267.0 124.0,266.0 125.0,266.0 126.0,266.0 127.0,265.0 128.0,264.0 129.0,264.0 130.0,264.0 131.0,264.0 132.0,263.0 133.0,262.0 134.0,262.0 135.0,261.0 136.0,260.0 137.0,260.0 138.0,259.0 139.0,259.0 140.0,259.0 141.0,259.0 142.0,258.0 143.0,257.0 144.0,256.0 145.0,257.0 146.0,255.0 147.0,255.0 148.0,255.0 149.0,255.0 150.0,254.0 151.0,253.0 152.0,254.0 153.0,253.0 154.0,253.0 155.0,253.0 156.0,252.0 157.0,252.0 158.0,251.0 159.0,251.0 160.0,250.0 161.0,250.0 162.0,249.0 163.0,248.0 164.0,247.0 165.0,248.0 166.0,246.0 167.0,247.0 168.0,245.0 169.0,246.0 170.0,246.0 171.0,245.0 172.0,245.0 173.0,244.0 174.0,239.0 175.0,241.0 176.0,241.0 177.0,242.0 178.0,240.0 179.0,241.0 180.0,240.0 181.0,239.0 182.0,239.0 183.0,239.0 184.0,237.0 185.0,237.0 186.0,237.0 187.0,236.0 188.0,237.0 189.0,236.0 190.0,236.0 191.0,235.0 192.0,236.0 193.0,234.0 194.0,234.0 195.0,233.0 196.0,233.0 197.0,233.0 198.0,231.0 199.0,231.0 200.0,231.0 201.0,230.0 202.0,229.0 203.0,228.0 204.0,229.0 205.0,227.0 206.0,227.0 207.0,226.0 208.0,226.0 209.0,225.0 210.0,225.0 211.0,226.0 212.0,225.0 213.0,225.0 214.0,223.0 215.0,224.0 216.0,223.0 217.0,223.0 218.0,223.0 219.0,223.0 220.0,222.0 221.0,220.0 222.0,220.0 223.0,221.0 224.0,218.0 225.0,219.0 226.0,219.0 227.0,219.0 228.0,218.0 229.0,219.0 230.0,219.0 231.0,218.0 232.0,218.0 233.0,217.0 234.0,216.0 235.0,215.0 236.0,215.0 237.0,214.0 238.0,214.0 239.0,214.0 240.0,214.0 241.0,214.0 242.0,212.0 243.0,212.0 244.0,209.0 245.0,210.0 246.0,209.0 247.0,209.0 248.0,209.0 249.0,209.0 250.0,208.0 251.0,208.0 252.0,208.0 253.0,208.0 254.0,207.0 255.0,206.0 256.0,206.0 257.0,203.0 258.0,204.0 259.0,203.0 260.0,204.0 261.0,203.0 262.0,204.0 263.0,202.0 264.0,202.0 265.0,201.0 266.0,201.0 267.0,201.0 268.0,200.0 269.0,200.0 270.0,201.0 271.0,199.0 272.0,200.0 273.0,199.0 274.0,199.0 275.0,199.0 276.0,200.0 277.0,199.0 278.0,199.0 279.0,198.0 280.0,198.0 281.0,197.0 282.0,197.0 283.0,195.0 284.0,196.0 285.0,195.0 286.0,195.0 287.0,194.0 288.0,193.0 289.0,193.0 290.0,193.0 291.0,192.0 292.0,192.0 293.0,190.0 294.0,190.0 295.0,189.0 296.0,188.0 297.0,186.0 298.0,186.0 299.0,184.0 300.0,185.0 301.0,182.0 302.0,183.0 303.0,179.0 304.0,182.0 305.0,179.0 306.0,180.0 307.0,178.0 308.0,179.0 309.0,177.0 310.0,178.0 311.0,174.0 312.0,177.0 313.0,175.0 314.0,176.0 315.0,173.0 316.0,174.0 317.0,172.0 318.0,172.0 319.0,171.0 320.0,172.0 321.0,170.0 322.0,172.0 323.0,168.0 324.0,170.0 325.0,166.0 326.0,168.0 327.0,166.0 328.0,167.0 329.0,164.0 330.0,167.0 331.0,164.0 332.0,166.0 333.0,164.0 334.0,166.0 335.0,162.0 336.0,165.0 337.0,162.0 338.0,165.0 339.0,161.0 340.0,163.0 341.0,159.0 342.0,163.0 343.0,158.0 344.0,162.0 345.0,158.0 346.0,162.0 347.0,156.0 348.0,160.0 349.0,155.0 350.0,159.0 351.0,153.0 352.0,158.0 353.0,153.0 354.0,158.0 355.0,152.0 356.0,157.0 357.0,150.0 358.0,156.0 359.0,149.0 360.0,157.0 361.0,150.0 362.0,156.0 363.0,149.0 364.0,156.0 365.0,149.0 366.0,155.0 367.0,150.0 368.0,155.0 369.0,150.0 370.0,155.0 371.0,150.0 372.0,155.0 373.0,150.0 374.0,153.0 375.0,149.0 376.0,151.0 377.0,149.0 378.0,150.0 379.0,148.0 380.0,151.0 381.0,148.0 382.0,149.0 383.0,148.0 384.0,148.0 385.0,148.0 386.0,148.0 387.0,147.0 388.0,146.0 389.0,145.0 390.0,146.0 391.0,145.0 392.0,145.0 393.0,144.0 394.0,144.0 395.0,142.0 396.0,141.0 397.0,142.0 398.0,141.0 399.0,141.0 400.0,138.0 401.0,139.0 402.0,139.0 403.0,139.0 404.0,137.0 405.0,136.0 406.0,135.0 407.0,136.0 408.0,135.0 409.0,135.0 410.0,133.0 411.0,132.0 412.0,131.0 413.0,128.0 414.0,128.0 415.0,126.0 416.0,126.0 417.0,126.0 418.0,125.0 419.0,125.0 420.0,122.0 421.0,123.0 422.0,122.0 423.0,122.0 424.0,122.0 425.0,120.0 426.0,121.0 427.0,119.0 428.0,120.0 429.0,119.0 430.0,118.0 431.0,118.0 432.0,116.0 433.0,117.0 434.0,116.0 435.0,115.0 436.0,114.0 437.0,113.0 438.0,113.0 439.0,112.0 440.0,113.0 441.0,112.0 442.0,112.0 443.0,111.0 444.0,111.0 445.0,110.0 446.0,111.0 447.0,109.0 448.0,110.0 449.0,109.0 450.0,110.0 451.0,108.0 452.0,109.0 453.0,107.0 454.0,108.0 455.0,106.0 456.0,107.0 457.0,105.0 458.0,106.0 459.0,106.0 460.0,104.0 461.0,105.0 462.0,104.0 463.0,103.0 464.0,104.0 465.0,104.0 466.0,103.0 467.0,103.0 468.0,103.0 469.0,103.0 470.0,103.0 471.0,103.0 472.0,102.0 473.0,102.0 474.0,101.0 475.0,100.0 476.0,100.0 477.0,99.0 478.0,99.0 479.0,98.0 480.0,98.0 481.0,98.0 482.0,98.0 483.0,98.0 484.0,98.0 485.0,97.0 486.0,96.0 487.0,96.0 488.0,96.0 489.0,95.0 490.0,95.0 491.0,95.0 492.0,95.0 493.0,95.0 494.0,94.0 495.0,94.0 496.0,94.0 497.0,93.0 498.0,93.0 499.0,92.0 500.0,92.0 501.0,93.0 502.0,92.0 503.0,93.0 504.0,93.0 505.0,92.0 506.0,91.0 507.0,92.0 508.0,92.0 509.0,92.0 510.0,91.0 511.0,91.0 512.0,89.0 513.0,90.0 514.0,88.0 515.0,89.0 516.0,87.0 517.0,86.0 518.0,86.0 519.0,82.0 520.0,83.0 521.0,77.0 522.0,82.0 523.0,71.0 524.0,79.0 525.0,66.0 526.0,78.0 527.0,63.0 528.0,76.0 529.0,65.0 530.0,75.0 531.0,67.0 532.0,75.0 533.0,69.0 534.0,73.0 535.0,72.0 536.0,73.0 537.0,74.0 538.0,72.0 539.0,75.0 540.0,71.0 541.0,77.0 542.0,72.0 543.0,77.0 544.0,72.0 545.0,78.0 546.0,73.0 547.0,78.0 548.0,74.0 549.0,76.0 550.0,73.0 551.0,76.0 552.0,74.0 553.0,76.0 554.0,74.0 555.0,75.0 556.0,75.0 557.0,76.0 558.0,74.0 559.0,75.0 560.0,74.0 561.0,75.0 562.0,73.0 563.0,73.0 564.0,73.0 565.0,73.0 566.0,72.0 567.0,73.0 568.0,71.0 569.0,71.0 570.0,69.0 571.0,69.0 572.0,69.0 573.0,69.0 574.0,68.0 575.0,67.0 576.0,66.0 577.0,66.0 578.0,66.0 579.0,65.0 580.0,65.0 581.0,65.0 582.0,64.0 583.0,64.0 584.0,63.0 585.0,56.0 586.0,59.0 587.0,58.0 588.0,58.0 589.0,55.0 590.0,56.0 591.0,55.0 592.0,56.0 593.0,56.0 594.0,56.0 595.0,56.0 596.0,55.0 597.0,55.0 598.0,54.0 599.0,54.0 600.0,53.0 601.0,53.0 602.0,51.0 603.0,51.0 604.0,50.0 605.0,49.0 606.0,47.0 607.0,46.0 608.0,45.0 609.0,45.0 610.0,44.0 611.0,43.0 612.0,43.0 613.0,42.0 614.0,42.0 615.0,42.0 616.0,40.0 617.0,40.0 618.0,39.0 619.0,40.0 620.0,38.0 621.0,38.0 622.0,37.0 623.0,36.0 624.0,36.0 625.0,35.0 626.0,34.0 627.0,34.0 628.0,32.0 629.0,31.0 630.0,30.0 631.0,28.0 632.0,26.0 633.0,25.0 634.0,24.0 635.0,24.0 636.0,22.0 637.0,24.0 638.0,23.0 639.0,25.0 640.0,24.0 641.0,26.0 642.0,26.0 643.0,27.0 644.0,27.0 645.0,28.0 646.0,28.0 647.0,29.0 648.0,29.0 649.0,29.0 650.0,29.0 651.0,30.0 652.0,30.0 653.0,29.0 654.0,29.0" fill="none" stroke="#4876ff" />
	<polyline points="55.0,293.0 56.0,293.0 57.0,293.0 58.0,292.0 59.0,291.0 60.0,292.0 61.0,291.0 62.0,291.0 63.0,290.0 64.0,290.0 65.0,289.0 66.0,289.0 67.0,288.0 68.0,288.0 69.0,287.0 70.0,287.0 71.0,287.0 72.0,286.0 73.0,286.0 74.0,285.0 75.0,285.0 76.0,284.0 77.0,284.0 78.0,284.0 79.0,283.0 80.0,283.0 81.0,282.0 82.0,282.0 83.0,281.0 84.0,281.0 85.0,280.0 86.0,279.0 87.0,280.0 88.0,279.0 89.0,278.0 90.0,278.0 91.0,277.0 92.0,277.0 93.0,276.0 94.0,276.0 95.0,276.0 96.0,275.0 97.0,275.0 98.0,274.0 99.0,274.0 100.0,274.0 101.0,273.0 102.0,273.0 103.0,272.0 104.0,272.0 105.0,271.0 106.0,271.0 107.0,270.0 108.0,270.0 109.0,269.0 110.0,269.0 111.0,268.0 112.0,268.0 113.0,267.0 114.0,267.0 115.0,267.0 116.0,266.0 117.0,266.0 118.0,265.0 119.0,265.0 120.0,264.0 121.0,264.0 122.0,263.0 123.0,263.0 124.0,263.0 125.0,262.0 126.0,262.0 127.0,262.0 128.0,261.0 129.0,261.0 130.0,260.0 131.0,259.0 132.0,259.0 133.0,259.0 134.0,258.0 135.0,258.0 136.0,257.0 137.0,257.0 138.0,256.0 139.0,256.0 140.0,255.0 141.0,256.0 142.0,254.0 143.0,254.0 144.0,254.0 145.0,254.0 146.0,253.0 147.0,253.0 148.0,252.0 149.0,251.0 150.0,251.0 151.0,251.0 152.0,250.0 153.0,250.0 154.0,249.0 155.0,249.0 156.0,247.0 157.0,248.0 158.0,247.0 159.0,247.0 160.0,246.0 161.0,246.0 162.0,245.0 163.0,246.0 164.0,244.0 165.0,245.0 166.0,243.0 167.0,243.0 168.0,242.0 169.0,242.0 170.0,242.0 171.0,241.0 172.0,241.0 173.0,240.0 174.0,240.0 175.0,239.0 176.0,239.0 177.0,238.0 178.0,238.0 179.0,238.0 180.0,237.0 181.0,236.0 182.0,236.0 183.0,236.0 184.0,236.0 185.0,235.0 186.0,234.0 187.0,234.0 188.0,234.0 189.0,233.0 190.0,233.0 191.0,232.0 192.0,232.0 193.0,232.0 194.0,231.0 195.0,231.0 196.0,230.0 197.0,230.0 198.0,230.0 199.0,229.0 200.0,229.0 201.0,228.0 202.0,228.0 203.0,227.0 204.0,227.0 205.0,227.0 206.0,226.0 207.0,226.0 208.0,225.0 209.0,225.0 210.0,224.0 211.0,225.0 212.0,224.0 213.0,224.0 214.0,223.0 215.0,223.0 216.0,222.0 217.0,222.0 218.0,221.0 219.0,221.0 220.0,220.0 221.0,219.0 222.0,219.0 223.0,219.0 224.0,218.0 225.0,218.0 226.0,217.0 227.0,217.0 228.0,216.0 229.0,216.0 230.0,216.0 231.0,215.0 232.0,215.0 233.0,213.0 234.0,214.0 235.0,212.0 236.0,212.0 237.0,212.0 238.0,212.0 239.0,212.0 240.0,211.0 241.0,211.0 242.0,210.0 243.0,209.0 244.0,209.0 245.0,209.0 246.0,208.0 247.0,208.0 248.0,207.0 249.0,207.0 250.0,206.0 251.0,207.0 252.0,205.0 253.0,206.0 254.0,205.0 255.0,205.0 256.0,204.0 257.0,204.0 258.0,203.0 259.0,204.0 260.0,203.0 261.0,203.0 262.0,202.0 263.0,202.0 264.0,200.0 265.0,201.0 266.0,200.0 267.0,200.0 268.0,199.0 269.0,198.0 270.0,199.0 271.0,198.0 272.0,197.0 273.0,197.0 274.0,197.0 275.0,196.0 276.0,196.0 277.0,195.0 278.0,195.0 279.0,194.0 280.0,194.0 281.0,193.0 282.0,194.0 283.0,193.0 284.0,193.0 285.0,192.0 286.0,193.0 287.0,191.0 288.0,191.0 289.0,190.0 290.0,190.0 291.0,189.0 292.0,190.0 293.0,188.0 294.0,189.0 295.0,186.0 296.0,188.0 297.0,185.0 298.0,187.0 299.0,185.0 300.0,186.0 301.0,184.0 302.0,184.0 303.0,182.0 304.0,183.0 305.0,181.0 306.0,182.0 307.0,180.0 308.0,182.0 309.0,180.0 310.0,180.0 311.0,179.0 312.0,179.0 313.0,178.0 314.0,178.0 315.0,178.0 316.0,178.0 317.0,176.0 318.0,177.0 319.0,175.0 320.0,177.0 321.0,174.0 322.0,176.0 323.0,173.0 324.0,175.0 325.0,173.0 326.0,173.0 327.0,172.0 328.0,172.0 329.0,171.0 330.0,171.0 331.0,170.0 332.0,171.0 333.0,169.0 334.0,170.0 335.0,168.0 336.0,169.0 337.0,166.0 338.0,169.0 339.0,165.0 340.0,168.0 341.0,164.0 342.0,167.0 343.0,163.0 344.0,166.0 345.0,162.0 346.0,165.0 347.0,160.0 348.0,164.0 349.0,159.0 350.0,163.0 351.0,158.0 352.0,162.0 353.0,157.0 354.0,161.0 355.0,156.0 356.0,160.0 357.0,155.0 358.0,159.0 359.0,153.0 360.0,158.0 361.0,152.0 362.0,158.0 363.0,151.0 364.0,157.0 365.0,152.0 366.0,156.0 367.0,151.0 368.0,156.0 369.0,150.0 370.0,155.0 371.0,150.0 372.0,154.0 373.0,150.0 374.0,151.0 375.0,150.0 376.0,151.0 377.0,150.0 378.0,150.0 379.0,149.0 380.0,150.0 381.0,149.0 382.0,148.0 383.0,149.0 384.0,148.0 385.0,149.0 386.0,146.0 387.0,148.0 388.0,145.0 389.0,147.0 390.0,144.0 391.0,146.0 392.0,144.0 393.0,145.0 394.0,143.0 395.0,145.0 396.0,142.0 397.0,144.0 398.0,140.0 399.0,144.0 400.0,140.0 401.0,143.0 402.0,138.0 403.0,141.0 404.0,137.0 405.0,141.0 406.0,136.0 407.0,140.0 408.0,136.0 409.0,139.0 410.0,135.0 411.0,139.0 412.0,135.0 413.0,138.0 414.0,134.0 415.0,136.0 416.0,133.0 417.0,136.0 418.0,133.0 419.0,135.0 420.0,132.0 421.0,133.0 422.0,131.0 423.0,132.0 424.0,131.0 425.0,131.0 426.0,128.0 427.0,131.0 428.0,127.0 429.0,130.0 430.0,126.0 431.0,129.0 432.0,125.0 433.0,128.0 434.0,124.0 435.0,128.0 436.0,124.0 437.0,127.0 438.0,122.0 439.0,126.0 440.0,120.0 441.0,125.0 442.0,119.0 443.0,123.0 444.0,118.0 445.0,123.0 446.0,118.0 447.0,121.0 448.0,117.0 449.0,119.0 450.0,116.0 451.0,117.0 452.0,114.0 453.0,117.0 454.0,113.0 455.0,117.0 456.0,113.0 457.0,117.0 458.0,112.0 459.0,116.0 460.0,111.0 461.0,115.0 462.0,111.0 463.0,115.0 464.0,110.0 465.0,113.0 466.0,109.0 467.0,112.0 468.0,109.0 469.0,111.0 470.0,108.0 471.0,110.0 472.0,108.0 473.0,109.0 474.0,107.0 475.0,108.0 476.0,106.0 477.0,107.0 478.0,105.0 479.0,107.0 480.0,105.0 481.0,106.0 482.0,103.0 483.0,105.0 484.0,101.0 485.0,104.0 486.0,101.0 487.0,104.0 488.0,100.0 489.0,103.0 490.0,99.0 491.0,102.0 492.0,97.0 493.0,100.0 494.0,97.0 495.0,100.0 496.0,95.0 497.0,99.0 498.0,94.0 499.0,99.0 500.0,92.0 501.0,100.0 502.0,90.0 503.0,100.0 504.0,89.0 505.0,99.0 506.0,87.0 507.0,97.0 508.0,85.0 509.0,97.0 510.0,83.0 511.0,97.0 512.0,81.0 513.0,95.0 514.0,78.0 515.0,93.0 516.0,76.0 517.0,91.0 518.0,73.0 519.0,87.0 520.0,71.0 521.0,82.0 522.0,69.0 523.0,75.0 524.0,69.0 525.0,68.0 526.0,70.0 527.0,63.0 528.0,70.0 529.0,62.0 530.0,70.0 531.0,62.0 532.0,70.0 533.0,63.0 534.0,70.0 535.0,64.0 536.0,70.0 537.0,66.0 538.0,70.0 539.0,68.0 540.0,70.0 541.0,68.0 542.0,71.0 543.0,69.0 544.0,70.0 545.0,69.0 546.0,71.0 547.0,69.0 548.0,71.0 549.0,70.0 550.0,72.0 551.0,70.0 552.0,72.0 553.0,71.0 554.0,71.0 555.0,71.0 556.0,71.0 557.0,70.0 558.0,71.0 559.0,69.0 560.0,70.0 561.0,69.0 562.0,70.0 563.0,69.0 564.0,69.0 565.0,67.0 566.0,69.0 567.0,67.0 568.0,68.0 569.0,66.0 570.0,67.0 571.0,65.0 572.0,67.0 573.0,64.0 574.0,66.0 575.0,64.0 576.0,65.0 577.0,63.0 578.0,64.0 579.0,63.0 580.0,63.0 581.0,62.0 582.0,61.0 583.0,60.0 584.0,61.0 585.0,60.0 586.0,60.0 587.0,59.0 588.0,59.0 589.0,58.0 590.0,58.0 591.0,57.0 592.0,58.0 593.0,57.0 594.0,57.0 595.0,55.0 596.0,56.0 597.0,53.0 598.0,55.0 599.0,52.0 600.0,54.0 601.0,51.0 602.0,52.0 603.0,50.0 604.0,52.0 605.0,50.0 606.0,53.0 607.0,49.0 608.0,52.0 609.0,47.0 610.0,51.0 611.0,45.0 612.0,51.0 613.0,43.0 614.0,50.0 615.0,41.0 616.0,49.0 617.0,38.0 618.0,49.0 619.0,36.0 620.0,51.0 621.0,34.0 622.0,50.0 623.0,30.0 624.0,49.0 625.0,27.0 626.0,49.0 627.0,23.0 628.0,48.0 629.0,19.0 630.0,46.0 631.0,17.0 632.0,42.0 633.0,17.0 634.0,34.0 635.0,18.0 636.0,29.0 637.0,21.0 638.0,27.0 639.0,23.0 640.0,27.0 641.0,25.0 642.0,27.0 643.0,26.0 644.0,27.0 645.0,26.0 646.0,28.0 647.0,27.0 648.0,28.0 649.0,28.0 650.0,28.0 651.0,27.0 652.0,28.0 653.0,27.0 654.0,29.0" fill="none" stroke="#aeeeee" />
	<polyline points="55.0,287.0 56.0,286.0 57.0,286.0 58.0,285.0 59.0,285.0 60.0,285.0 61.0,284.0 62.0,285.0 63.0,284.0 64.0,285.0 65.0,284.0 66.0,285.0 67.0,285.0 68.0,285.0 69.0,286.0 70.0,286.0 71.0,286.0 72.0,286.0 73.0,286.0 74.0,287.0 75.0,287.0 76.0,288.0 77.0,288.0 78.0,287.0 79.0,288.0 80.0,289.0 81.0,289.0 82.0,289.0 83.0,289.0 84.0,289.0 85.0,288.0 86.0,287.0 87.0,287.0 88.0,285.0 89.0,287.0 90.0,287.0 91.0,285.0 92.0,285.0 93.0,285.0 94.0,285.0 95.0,285.0 96.0,285.0 97.0,284.0 98.0,284.0 99.0,283.0 100.0,282.0 101.0,282.0 102.0,280.0 103.0,280.0 104.0,280.0 105.0,278.0 106.0,279.0 107.0,276.0 108.0,277.0 109.0,276.0 110.0,275.0 111.0,274.0 112.0,273.0 113.0,272.0 114.0,272.0 115.0,273.0 116.0,273.0 117.0,273.0 118.0,272.0 119.0,273.0 120.0,273.0 121.0,273.0 122.0,273.0 123.0,274.0 124.0,275.0 125.0,275.0 126.0,275.0 127.0,276.0 128.0,276.0 129.0,276.0 130.0,276.0 131.0,277.0 132.0,276.0 133.0,275.0 134.0,275.0 135.0,275.0 136.0,275.0 137.0,275.0 138.0,275.0 139.0,275.0 140.0,274.0 141.0,275.0 142.0,274.0 143.0,274.0 144.0,272.0 145.0,273.0 146.0,272.0 147.0,273.0 148.0,271.0 149.0,271.0 150.0,270.0 151.0,269.0 152.0,269.0 153.0,268.0 154.0,267.0 155.0,266.0 156.0,265.0 157.0,264.0 158.0,262.0 159.0,262.0 160.0,261.0 161.0,261.0 162.0,259.0 163.0,260.0 164.0,258.0 165.0,258.0 166.0,256.0 167.0,257.0 168.0,254.0 169.0,252.0 170.0,253.0 171.0,252.0 172.0,250.0 173.0,250.0 174.0,249.0 175.0,249.0 176.0,247.0 177.0,247.0 178.0,246.0 179.0,244.0 180.0,243.0 181.0,243.0 182.0,242.0 183.0,241.0 184.0,241.0 185.0,240.0 186.0,240.0 187.0,239.0 188.0,239.0 189.0,238.0 190.0,237.0 191.0,236.0 192.0,236.0 193.0,235.0 194.0,234.0 195.0,234.0 196.0,233.0 197.0,232.0 198.0,231.0 199.0,231.0 200.0,229.0 201.0,229.0 202.0,228.0 203.0,227.0 204.0,226.0 205.0,226.0 206.0,225.0 207.0,224.0 208.0,223.0 209.0,222.0 210.0,222.0 211.0,221.0 212.0,220.0 213.0,220.0 214.0,219.0 215.0,219.0 216.0,218.0 217.0,218.0 218.0,217.0 219.0,217.0 220.0,216.0 221.0,216.0 222.0,216.0 223.0,216.0 224.0,216.0 225.0,215.0 226.0,215.0 227.0,215.0 228.0,214.0 229.0,214.0 230.0,214.0 231.0,214.0 232.0,213.0 233.0,213.0 234.0,212.0 235.0,212.0 236.0,211.0 237.0,212.0 238.0,211.0 239.0,210.0 240.0,209.0 241.0,210.0 242.0,208.0 243.0,209.0 244.0,207.0 245.0,207.0 246.0,206.0 247.0,206.0 248.0,205.0 249.0,205.0 250.0,204.0 251.0,204.0 252.0,202.0 253.0,203.0 254.0,201.0 255.0,202.0 256.0,201.0 257.0,202.0 258.0,201.0 259.0,200.0 260.0,200.0 261.0,199.0 262.0,199.0 263.0,198.0 264.0,198.0 265.0,197.0 266.0,197.0 267.0,197.0 268.0,196.0 269.0,195.0 270.0,195.0 271.0,194.0 272.0,194.0 273.0,193.0 274.0,194.0 275.0,193.0 276.0,193.0 277.0,192.0 278.0,193.0 279.0,191.0 280.0,193.0 281.0,192.0 282.0,194.0 283.0,193.0 284.0,195.0 285.0,196.0 286.0,196.0 287.0,197.0 288.0,198.0 289.0,197.0 290.0,199.0 291.0,198.0 292.0,200.0 293.0,199.0 294.0,201.0 295.0,199.0 296.0,201.0 297.0,198.0 298.0,202.0 299.0,199.0 300.0,201.0 301.0,199.0 302.0,201.0 303.0,198.0 304.0,201.0 305.0,198.0 306.0,199.0 307.0,196.0 308.0,197.0 309.0,193.0 310.0,196.0 311.0,194.0 312.0,196.0 313.0,191.0 314.0,195.0 315.0,191.0 316.0,195.0 317.0,190.0 318.0,192.0 319.0,189.0 320.0,191.0 321.0,187.0 322.0,189.0 323.0,185.0 324.0,188.0 325.0,182.0 326.0,185.0 327.0,181.0 328.0,183.0 329.0,179.0 330.0,182.0 331.0,178.0 332.0,181.0 333.0,176.0 334.0,178.0 335.0,173.0 336.0,176.0 337.0,171.0 338.0,174.0 339.0,168.0 340.0,172.0 341.0,165.0 342.0,171.0 343.0,164.0 344.0,171.0 345.0,163.0 346.0,170.0 347.0,162.0 348.0,169.0 349.0,160.0 350.0,169.0 351.0,159.0 352.0,167.0 353.0,158.0 354.0,166.0 355.0,157.0 356.0,166.0 357.0,156.0 358.0,166.0 359.0,155.0 360.0,163.0 361.0,154.0 362.0,162.0 363.0,152.0 364.0,160.0 365.0,152.0 366.0,160.0 367.0,151.0 368.0,159.0 369.0,150.0 370.0,157.0 371.0,150.0 372.0,156.0 373.0,150.0 374.0,155.0 375.0,148.0 376.0,153.0 377.0,149.0 378.0,152.0 379.0,148.0 380.0,150.0 381.0,146.0 382.0,149.0 383.0,146.0 384.0,146.0 385.0,145.0 386.0,146.0 387.0,144.0 388.0,145.0 389.0,144.0 390.0,144.0 391.0,144.0 392.0,143.0 393.0,142.0 394.0,143.0 395.0,142.0 396.0,142.0 397.0,139.0 398.0,139.0 399.0,140.0 400.0,139.0 401.0,139.0 402.0,139.0 403.0,139.0 404.0,139.0 405.0,138.0 406.0,137.0 407.0,136.0 408.0,136.0 409.0,136.0 410.0,136.0 411.0,136.0 412.0,136.0 413.0,137.0 414.0,137.0 415.0,138.0 416.0,136.0 417.0,138.0 418.0,137.0 419.0,138.0 420.0,138.0 421.0,138.0 422.0,138.0 423.0,137.0 424.0,138.0 425.0,137.0 426.0,137.0 427.0,136.0 428.0,137.0 429.0,137.0 430.0,136.0 431.0,136.0 432.0,136.0 433.0,136.0 434.0,136.0 435.0,135.0 436.0,135.0 437.0,134.0 438.0,135.0 439.0,134.0 440.0,135.0 441.0,134.0 442.0,134.0 443.0,132.0 444.0,133.0 445.0,131.0 446.0,132.0 447.0,130.0 448.0,132.0 449.0,129.0 450.0,131.0 451.0,128.0 452.0,129.0 453.0,127.0 454.0,127.0 455.0,126.0 456.0,127.0 457.0,125.0 458.0,125.0 459.0,125.0 460.0,125.0 461.0,124.0 462.0,124.0 463.0,124.0 464.0,123.0 465.0,122.0 466.0,122.0 467.0,122.0 468.0,118.0 469.0,118.0 470.0,117.0 471.0,118.0 472.0,117.0 473.0,117.0 474.0,117.0 475.0,117.0 476.0,116.0 477.0,116.0 478.0,116.0 479.0,115.0 480.0,115.0 481.0,114.0 482.0,114.0 483.0,113.0 484.0,112.0 485.0,111.0 486.0,111.0 487.0,109.0 488.0,110.0 489.0,108.0 490.0,109.0 491.0,107.0 492.0,107.0 493.0,107.0 494.0,106.0 495.0,105.0 496.0,103.0 497.0,104.0 498.0,103.0 499.0,102.0 500.0,103.0 501.0,100.0 502.0,99.0 503.0,98.0 504.0,99.0 505.0,99.0 506.0,97.0 507.0,98.0 508.0,96.0 509.0,96.0 510.0,95.0 511.0,95.0 512.0,94.0 513.0,93.0 514.0,93.0 515.0,92.0 516.0,92.0 517.0,89.0 518.0,90.0 519.0,85.0 520.0,86.0 521.0,79.0 522.0,84.0 523.0,73.0 524.0,81.0 525.0,65.0 526.0,79.0 527.0,61.0 528.0,77.0 529.0,61.0 530.0,75.0 531.0,63.0 532.0,74.0 533.0,65.0 534.0,71.0 535.0,67.0 536.0,71.0 537.0,68.0 538.0,69.0 539.0,70.0 540.0,68.0 541.0,71.0 542.0,69.0 543.0,73.0 544.0,69.0 545.0,73.0 546.0,69.0 547.0,73.0 548.0,70.0 549.0,73.0 550.0,71.0 551.0,72.0 552.0,70.0 553.0,72.0 554.0,71.0 555.0,71.0 556.0,71.0 557.0,71.0 558.0,69.0 559.0,70.0 560.0,68.0 561.0,69.0 562.0,67.0 563.0,68.0 564.0,67.0 565.0,67.0 566.0,66.0 567.0,66.0 568.0,65.0 569.0,65.0 570.0,65.0 571.0,64.0 572.0,63.0 573.0,63.0 574.0,63.0 575.0,63.0 576.0,63.0 577.0,61.0 578.0,62.0 579.0,61.0 580.0,61.0 581.0,59.0 582.0,59.0 583.0,59.0 584.0,55.0 585.0,57.0 586.0,55.0 587.0,56.0 588.0,55.0 589.0,55.0 590.0,54.0 591.0,54.0 592.0,53.0 593.0,49.0 594.0,50.0 595.0,51.0 596.0,50.0 597.0,50.0 598.0,50.0 599.0,50.0 600.0,48.0 601.0,48.0 602.0,47.0 603.0,48.0 604.0,48.0 605.0,47.0 606.0,46.0 607.0,48.0 608.0,47.0 609.0,47.0 610.0,47.0 611.0,47.0 612.0,46.0 613.0,46.0 614.0,45.0 615.0,45.0 616.0,45.0 617.0,45.0 618.0,46.0 619.0,45.0 620.0,44.0 621.0,45.0 622.0,44.0 623.0,44.0 624.0,43.0 625.0,43.0 626.0,42.0 627.0,42.0 628.0,39.0 629.0,38.0 630.0,36.0 631.0,35.0 632.0,33.0 633.0,32.0 634.0,31.0 635.0,30.0 636.0,29.0 637.0,29.0 638.0,29.0 639.0,30.0 640.0,30.0 641.0,32.0 642.0,31.0 643.0,32.0 644.0,31.0 645.0,32.0 646.0,31.0 647.0,30.0 648.0,30.0 649.0,30.0 650.0,32.0 651.0,30.0 652.0,32.0 653.0,31.0 654.0,32.0" fill="none" stroke="#00ffff" />
	<polyline points="55.0,5.0 655.0,5.0" fill="none" stroke="#6d6d6d" />
	<polyline points="55.0,305.0 655.0,305.0" fill="none" stroke="#6d6d6d" />
	<polyline points="55.0,305.0 55.0,310.0" fill="none" stroke="#6d6d6d" />
	<polyline points="205.0,305.0 205.0,310.0" fill="none" stroke="#6d6d6d" />
	<polyline points="355.0,305.0 355.0,310.0" fill="none" stroke="#6d6d6d" />
	<polyline points="505.0,305.0 505.0,310.0" fill="none" stroke="#6d6d6d" />
	<polyline points="655.0,305.0 655.0,310.0" fill="none" stroke="#6d6d6d" />
	<polyline points="55.0,5.0 55.0,305.0" fill="none" stroke="#6d6d6d" />
	<polyline points="655.0,5.0 655.0,305.0" fill="none" stroke="#6d6d6d" />
	<polyline points="50.0,5.0 55.0,5.0" fill="none" stroke="#6d6d6d" />
	<polyline points="50.0,80.0 55.0,80.0" fill="none" stroke="#6d6d6d" />
	<polyline points="50.0,155.0 55.0,155.0" fill="none" stroke="#6d6d6d" />
	<polyline points="50.0,230.0 55.0,230.0" fill="none" stroke="#6d6d6d" />
	<polyline points="50.0,305.0 55.0,305.0" fill="none" stroke="#6d6d6d" />
	<text x="55.0" y="323.0" fill="#6d6d6d" font-family="Arial" font-size="9pt" text-anchor="middle">1</text>
	<text x="205.0" y="323.0" fill="#6d6d6d" font-family="Arial" font-size="9pt" text-anchor="middle">150</text>
	<text x="355.0" y="323.0" fill="#6d6d6d" font-family="Arial" font-size="9pt" text-anchor="middle">300</text>
	<text x="505.0" y="323.0" fill="#6d6d6d" font-family="Arial" font-size="9pt" text-anchor="middle">450</text>
	<text x="655.0" y="323.0" fill="#6d6d6d" font-family="Arial" font-size="9pt" text-anchor="middle">600</text>
	<text x="45.0" y="9.0" fill="#6d6d6d" font-family="Arial" font-size="9pt" text-anchor="end">66.7</text>
	<text x="45.0" y="84.0" fill="#6d6d6d" font-family="Arial" font-size="9pt" text-anchor="end">58.5</text>
	<text x="45.0" y="159.0" fill="#6d6d6d" font-family="Arial" font-size="9pt" text-anchor="end">50.2</text>
	<text x="45.0" y="234.0" fill="#6d6d6d" font-family="Arial" font-size="9pt" text-anchor="end">42</text>
	<text x="45.0" y="309.0" fill="#6d6d6d" font-family="Arial" font-size="9pt" text-anchor="end">33.8</text>
</svg>
