<?xml version="1.0" encoding="UTF-8" standalone="no"?>
<!DOCTYPE svg PUBLIC "-//W3C//DTD SVG 1.1//EN" "http://www.w3.org/Graphics/SVG/1.1/DTD/svg11.dtd">
<svg xmlns="http://www.w3.org/2000/svg"  version="1.1" width="693.0" height="380.0" viewBox="-6.0 -12.0 687.0 368.0">
	<desc>LSD Plot - Sim_10c_teste1</desc>
	<polyline points="205.0,6.0 205.0,304.0" fill="none" stroke="#f0f0f0" />
	<polyline points="355.0,6.0 355.0,304.0" fill="none" stroke="#f0f0f0" />
	<polyline points="505.0,6.0 505.0,304.0" fill="none" stroke="#f0f0f0" />
	<polyline points="56.0,80.0 654.0,80.0" fill="none" stroke="#f0f0f0" />
	<polyline points="56.0,155.0 654.0,155.0" fill="none" stroke="#f0f0f0" />
	<polyline points="56.0,230.0 654.0,230.0" fill="none" stroke="#f0f0f0" />
	<text x="5.0" y="345.0" font-family="Arial" font-size="9pt">e_1</text>
	<text x="31.0" y="345.0" fill="#ff0000" font-family="Arial" font-size="9pt">e_2</text>
	<text x="57.0" y="345.0" fill="#008000" font-family="Arial" font-size="9pt">e_3</text>
	<text x="83.0" y="345.0" fill="#d0d000" font-family="Arial" font-size="9pt">e_4</text>
	<text x="109.0" y="345.0" fill="#fb46bc" font-family="Arial" font-size="9pt">e_5</text>
	<text x="135.0" y="345.0" fill="#0000ff" font-family="Arial" font-size="9pt">e_6</text>
	<text x="161.0" y="345.0" fill="#00bfff" font-family="Arial" font-size="9pt">e_7</text>
	<text x="187.0" y="345.0" fill="#4876ff" font-family="Arial" font-size="9pt">e_8</text>
	<text x="213.0" y="345.0" fill="#aeeeee" font-family="Arial" font-size="9pt">e_9</text>
	<text x="239.0" y="345.0" fill="#00ffff" font-family="Arial" font-size="9pt">e_10</text>
	<polyline points="55.0,273.0 56.0,272.0 57.0,272.0 58.0,272.0 59.0,272.0 60.0,272.0 61.0,272.0 62.0,272.0 63.0,271.0 64.0,270.0 65.0,270.0 66.0,269.0 67.0,269.0 68.0,268.0 69.0,268.0 70.0,267.0 71.0,267.0 72.0,266.0 73.0,265.0 74.0,265.0 75.0,264.0 76.0,263.0 77.0,263.0 78.0,262.0 79.0,261.0 80.0,260.0 81.0,259.0 82.0,258.0 83.0,257.0 84.0,257.0 85.0,257.0 86.0,256.0 87.0,255.0 88.0,255.0 89.0,254.0 90.0,254.0 91.0,253.0 92.0,253.0 93.0,252.0 94.0,252.0 95.0,251.0 96.0,251.0 97.0,251.0 98.0,251.0 99.0,250.0 100.0,249.0 101.0,249.0 102.0,248.0 103.0,248.0 104.0,247.0 105.0,247.0 106.0,247.0 107.0,246.0 108.0,246.0 109.0,245.0 110.0,245.0 111.0,245.0 112.0,245.0 113.0,244.0 114.0,244.0 115.0,244.0 116.0,244.0 117.0,244.0 118.0,244.0 119.0,244.0 120.0,244.0 121.0,244.0 122.0,244.0 123.0,244.0 124.0,244.0 125.0,244.0 126.0,244.0 127.0,244.0 128.0,245.0 129.0,245.0 130.0,245.0 131.0,246.0 132.0,246.0 133.0,246.0 134.0,247.0 135.0,247.0 136.0,247.0 137.0,248.0 138.0,248.0 139.0,248.0 140.0,248.0 141.0,249.0 142.0,250.0 143.0,250.0 144.0,251.0 145.0,251.0 146.0,251.0 147.0,251.0 148.0,252.0 149.0,252.0 150.0,253.0 151.0,253.0 152.0,254.0 153.0,254.0 154.0,254.0 155.0,254.0 156.0,255.0 157.0,255.0 158.0,255.0 159.0,256.0 160.0,256.0 161.0,256.0 162.0,256.0 163.0,256.0 164.0,257.0 165.0,257.0 166.0,258.0 167.0,258.0 168.0,258.0 169.0,259.0 170.0,259.0 171.0,259.0 172.0,259.0 173.0,259.0 174.0,259.0 175.0,259.0 176.0,260.0 177.0,260.0 178.0,260.0 179.0,261.0 180.0,261.0 181.0,260.0 182.0,261.0 183.0,260.0 184.0,260.0 185.0,260.0 186.0,260.0 187.0,260.0 188.0,260.0 189.0,260.0 190.0,260.0 191.0,261.0 192.0,261.0 193.0,261.0 194.0,261.0 195.0,261.0 196.0,261.0 197.0,261.0 198.0,261.0 199.0,261.0 200.0,261.0 201.0,261.0 202.0,261.0 203.0,261.0 204.0,260.0 205.0,260.0 206.0,260.0 207.0,260.0 208.0,260.0 209.0,260.0 210.0,260.0 211.0,260.0 212.0,260.0 213.0,260.0 214.0,261.0 215.0,261.0 216.0,261.0 217.0,260.0 218.0,260.0 219.0,260.0 220.0,260.0 221.0,261.0 222.0,261.0 223.0,261.0 224.0,261.0 225.0,261.0 226.0,261.0 227.0,261.0 228.0,261.0 229.0,261.0 230.0,261.0 231.0,261.0 232.0,261.0 233.0,261.0 234.0,261.0 235.0,261.0 236.0,260.0 237.0,260.0 238.0,260.0 239.0,260.0 240.0,259.0 241.0,259.0 242.0,259.0 243.0,259.0 244.0,259.0 245.0,259.0 246.0,258.0 247.0,258.0 248.0,258.0 249.0,258.0 250.0,258.0 251.0,258.0 252.0,258.0 253.0,258.0 254.0,258.0 255.0,258.0 256.0,257.0 257.0,258.0 258.0,258.0 259.0,258.0 260.0,258.0 261.0,258.0 262.0,257.0 263.0,257.0 264.0,257.0 265.0,257.0 266.0,258.0 267.0,258.0 268.0,258.0 269.0,258.0 270.0,258.0 271.0,259.0 272.0,258.0 273.0,259.0 274.0,259.0 275.0,259.0 276.0,259.0 277.0,259.0 278.0,258.0 279.0,259.0 280.0,259.0 281.0,259.0 282.0,259.0 283.0,259.0 284.0,260.0 285.0,260.0 286.0,260.0 287.0,260.0 288.0,261.0 289.0,261.0 290.0,262.0 291.0,262.0 292.0,262.0 293.0,263.0 294.0,263.0 295.0,264.0 296.0,265.0 297.0,265.0 298.0,266.0 299.0,266.0 300.0,266.0 301.0,266.0 302.0,265.0 303.0,266.0 304.0,266.0 305.0,266.0 306.0,266.0 307.0,267.0 308.0,267.0 309.0,267.0 310.0,267.0 311.0,268.0 312.0,268.0 313.0,268.0 314.0,268.0 315.0,268.0 316.0,268.0 317.0,268.0 318.0,269.0 319.0,269.0 320.0,269.0 321.0,270.0 322.0,270.0 323.0,270.0 324.0,270.0 325.0,271.0 326.0,271.0 327.0,271.0 328.0,271.0 329.0,271.0 330.0,272.0 331.0,272.0 332.0,272.0 333.0,273.0 334.0,272.0 335.0,272.0 336.0,273.0 337.0,273.0 338.0,273.0 339.0,273.0 340.0,273.0 341.0,274.0 342.0,274.0 343.0,274.0 344.0,274.0 345.0,274.0 346.0,274.0 347.0,274.0 348.0,274.0 349.0,274.0 350.0,274.0 351.0,274.0 352.0,274.0 353.0,274.0 354.0,274.0 355.0,274.0 356.0,274.0 357.0,274.0 358.0,274.0 359.0,273.0 360.0,273.0 361.0,273.0 362.0,273.0 363.0,274.0 364.0,274.0 365.0,275.0 366.0,274.0 367.0,274.0 368.0,274.0 369.0,274.0 370.0,275.0 371.0,275.0 372.0,274.0 373.0,274.0 374.0,274.0 375.0,274.0 376.0,274.0 377.0,274.0 378.0,274.0 379.0,274.0 380.0,274.0 381.0,273.0 382.0,273.0 383.0,273.0 384.0,273.0 385.0,273.0 386.0,273.0 387.0,273.0 388.0,273.0 389.0,273.0 390.0,272.0 391.0,272.0 392.0,272.0 393.0,272.0 394.0,272.0 395.0,272.0 396.0,272.0 397.0,272.0 398.0,272.0 399.0,272.0 400.0,272.0 401.0,272.0 402.0,272.0 403.0,272.0 404.0,272.0 405.0,272.0 406.0,272.0 407.0,272.0 408.0,272.0 409.0,272.0 410.0,272.0 411.0,272.0 412.0,272.0 413.0,272.0 414.0,272.0 415.0,272.0 416.0,272.0 417.0,272.0 418.0,272.0 419.0,272.0 420.0,273.0 421.0,273.0 422.0,273.0 423.0,273.0 424.0,274.0 425.0,274.0 426.0,274.0 427.0,274.0 428.0,274.0 429.0,274.0 430.0,275.0 431.0,274.0 432.0,275.0 433.0,275.0 434.0,275.0 435.0,275.0 436.0,276.0 437.0,276.0 438.0,276.0 439.0,276.0 440.0,276.0 441.0,276.0 442.0,277.0 443.0,277.0 444.0,277.0 445.0,277.0 446.0,277.0 447.0,277.0 448.0,277.0 449.0,278.0 450.0,278.0 451.0,279.0 452.0,279.0 453.0,279.0 454.0,279.0 455.0,279.0 456.0,280.0 457.0,280.0 458.0,280.0 459.0,280.0 460.0,280.0 461.0,280.0 462.0,281.0 463.0,281.0 464.0,281.0 465.0,282.0 466.0,282.0 467.0,282.0 468.0,283.0 469.0,283.0 470.0,283.0 471.0,283.0 472.0,283.0 473.0,283.0 474.0,283.0 475.0,283.0 476.0,284.0 477.0,284.0 478.0,284.0 479.0,285.0 480.0,285.0 481.0,285.0 482.0,285.0 483.0,285.0 484.0,285.0 485.0,285.0 486.0,285.0 487.0,285.0 488.0,285.0 489.0,285.0 490.0,286.0 491.0,286.0 492.0,285.0 493.0,285.0 494.0,285.0 495.0,285.0 496.0,285.0 497.0,285.0 498.0,285.0 499.0,285.0 500.0,286.0 501.0,286.0 502.0,286.0 503.0,286.0 504.0,286.0 505.0,287.0 506.0,287.0 507.0,287.0 508.0,287.0 509.0,287.0 510.0,287.0 511.0,287.0 512.0,288.0 513.0,288.0 514.0,289.0 515.0,289.0 516.0,289.0 517.0,289.0 518.0,289.0 519.0,289.0 520.0,289.0 521.0,288.0 522.0,288.0 523.0,288.0 524.0,288.0 525.0,288.0 526.0,288.0 527.0,288.0 528.0,289.0 529.0,289.0 530.0,289.0 531.0,290.0 532.0,290.0 533.0,290.0 534.0,289.0 535.0,289.0 536.0,289.0 537.0,289.0 538.0,289.0 539.0,289.0 540.0,288.0 541.0,288.0 542.0,288.0 543.0,288.0 544.0,288.0 545.0,288.0 546.0,288.0 547.0,288.0 548.0,289.0 549.0,289.0 550.0,289.0 551.0,290.0 552.0,289.0 553.0,290.0 554.0,290.0 555.0,290.0 556.0,290.0 557.0,290.0 558.0,290.0 559.0,290.0 560.0,290.0 561.0,291.0 562.0,291.0 563.0,291.0 564.0,291.0 565.0,291.0 566.0,291.0 567.0,291.0 568.0,291.0 569.0,292.0 570.0,291.0 571.0,291.0 572.0,291.0 573.0,291.0 574.0,291.0 575.0,291.0 576.0,291.0 577.0,291.0 578.0,291.0 579.0,292.0 580.0,292.0 581.0,292.0 582.0,293.0 583.0,293.0 584.0,292.0 585.0,293.0 586.0,293.0 587.0,294.0 588.0,293.0 589.0,294.0 590.0,294.0 591.0,294.0 592.0,294.0 593.0,294.0 594.0,294.0 595.0,294.0 596.0,294.0 597.0,294.0 598.0,294.0 599.0,294.0 600.0,294.0 601.0,294.0 602.0,294.0 603.0,293.0 604.0,293.0 605.0,294.0 606.0,294.0 607.0,294.0 608.0,295.0 609.0,295.0 610.0,295.0 611.0,296.0 612.0,296.0 613.0,296.0 614.0,296.0 615.0,296.0 616.0,296.0 617.0,296.0 618.0,296.0 619.0,296.0 620.0,296.0 621.0,296.0 622.0,296.0 623.0,296.0 624.0,296.0 625.0,296.0 626.0,296.0 627.0,296.0 628.0,296.0 629.0,296.0 630.0,297.0 631.0,297.0 632.0,296.0 633.0,296.0 634.0,296.0 635.0,296.0 636.0,296.0 637.0,297.0 638.0,297.0 639.0,298.0 640.0,298.0 641.0,298.0 642.0,298.0 643.0,298.0 644.0,298.0 645.0,298.0 646.0,297.0 647.0,297.0 648.0,297.0 649.0,297.0 650.0,297.0 651.0,298.0 652.0,298.0 653.0,297.0 654.0,298.0" fill="none" stroke="#000000" />
	<polyline points="55.0,283.0 56.0,283.0 57.0,283.0 58.0,283.0 59.0,283.0 60.0,283.0 61.0,283.0 62.0,283.0 63.0,284.0 64.0,284.0 65.0,284.0 66.0,284.0 67.0,284.0 68.0,284.0 69.0,284.0 70.0,284.0 71.0,285.0 72.0,285.0 73.0,285.0 74.0,285.0 75.0,285.0 76.0,286.0 77.0,286.0 78.0,287.0 79.0,287.0 80.0,286.0 81.0,287.0 82.0,287.0 83.0,288.0 84.0,288.0 85.0,288.0 86.0,288.0 87.0,288.0 88.0,289.0 89.0,289.0 90.0,289.0 91.0,289.0 92.0,289.0 93.0,289.0 94.0,289.0 95.0,289.0 96.0,289.0 97.0,289.0 98.0,289.0 99.0,289.0 100.0,289.0 101.0,289.0 102.0,289.0 103.0,289.0 104.0,288.0 105.0,288.0 106.0,288.0 107.0,289.0 108.0,288.0 109.0,288.0 110.0,289.0 111.0,288.0 112.0,288.0 113.0,288.0 114.0,288.0 115.0,288.0 116.0,288.0 117.0,288.0 118.0,288.0 119.0,288.0 120.0,288.0 121.0,288.0 122.0,288.0 123.0,288.0 124.0,288.0 125.0,289.0 126.0,289.0 127.0,290.0 128.0,290.0 129.0,289.0 130.0,289.0 131.0,289.0 132.0,289.0 133.0,289.0 134.0,289.0 135.0,290.0 136.0,289.0 137.0,290.0 138.0,289.0 139.0,290.0 140.0,290.0 141.0,290.0 142.0,290.0 143.0,291.0 144.0,292.0 145.0,292.0 146.0,292.0 147.0,293.0 148.0,292.0 149.0,293.0 150.0,293.0 151.0,293.0 152.0,293.0 153.0,294.0 154.0,294.0 155.0,294.0 156.0,294.0 157.0,293.0 158.0,293.0 159.0,293.0 160.0,293.0 161.0,293.0 162.0,294.0 163.0,293.0 164.0,293.0 165.0,294.0 166.0,294.0 167.0,294.0 168.0,294.0 169.0,294.0 170.0,294.0 171.0,295.0 172.0,294.0 173.0,295.0 174.0,295.0 175.0,294.0 176.0,294.0 177.0,294.0 178.0,295.0 179.0,295.0 180.0,296.0 181.0,296.0 182.0,296.0 183.0,295.0 184.0,295.0 185.0,295.0 186.0,295.0 187.0,296.0 188.0,296.0 189.0,296.0 190.0,295.0 191.0,296.0 192.0,296.0 193.0,296.0 194.0,296.0 195.0,296.0 196.0,296.0 197.0,296.0 198.0,297.0 199.0,296.0 200.0,297.0 201.0,297.0 202.0,297.0 203.0,297.0 204.0,298.0 205.0,298.0 206.0,298.0 207.0,298.0 208.0,299.0 209.0,299.0 210.0,299.0 211.0,298.0 212.0,298.0 213.0,298.0 214.0,299.0 215.0,298.0 216.0,298.0 217.0,299.0 218.0,299.0 219.0,299.0 220.0,299.0 221.0,299.0 222.0,298.0 223.0,299.0 224.0,299.0 225.0,299.0 226.0,299.0 227.0,299.0 228.0,299.0 229.0,298.0 230.0,298.0 231.0,298.0 232.0,298.0 233.0,298.0 234.0,298.0 235.0,298.0 236.0,298.0 237.0,298.0 238.0,298.0 239.0,298.0 240.0,298.0 241.0,298.0 242.0,298.0 243.0,299.0 244.0,299.0 245.0,299.0 246.0,298.0 247.0,298.0 248.0,299.0 249.0,299.0 250.0,299.0 251.0,299.0 252.0,299.0 253.0,299.0 254.0,299.0 255.0,299.0 256.0,300.0 257.0,300.0 258.0,300.0 259.0,300.0 260.0,300.0 261.0,300.0 262.0,300.0 263.0,300.0 264.0,300.0 265.0,301.0 266.0,301.0 267.0,301.0 268.0,302.0 269.0,302.0 270.0,302.0 271.0,301.0 272.0,301.0 273.0,302.0 274.0,302.0 275.0,302.0 276.0,302.0 277.0,302.0 278.0,302.0 279.0,301.0 280.0,301.0 281.0,302.0 282.0,302.0 283.0,302.0 284.0,301.0 285.0,301.0 286.0,301.0 287.0,301.0 288.0,301.0 289.0,301.0 290.0,301.0 291.0,301.0 292.0,302.0 293.0,301.0 294.0,301.0 295.0,301.0 296.0,301.0 297.0,301.0 298.0,301.0 299.0,302.0 300.0,302.0 301.0,301.0 302.0,301.0 303.0,301.0 304.0,301.0 305.0,301.0 306.0,300.0 307.0,301.0 308.0,301.0 309.0,301.0 310.0,300.0 311.0,300.0 312.0,300.0 313.0,300.0 314.0,301.0 315.0,301.0 316.0,301.0 317.0,301.0 318.0,302.0 319.0,301.0 320.0,301.0 321.0,301.0 322.0,301.0 323.0,301.0 324.0,301.0 325.0,301.0 326.0,302.0 327.0,301.0 328.0,301.0 329.0,301.0 330.0,301.0 331.0,301.0 332.0,301.0 333.0,302.0 334.0,302.0 335.0,302.0 336.0,302.0 337.0,302.0 338.0,303.0 339.0,303.0 340.0,304.0 341.0,304.0 342.0,303.0 343.0,303.0 344.0,303.0 345.0,303.0 346.0,303.0 347.0,302.0 348.0,302.0 349.0,302.0 350.0,302.0 351.0,302.0 352.0,301.0 353.0,301.0 354.0,302.0 355.0,302.0 356.0,302.0 357.0,301.0 358.0,301.0 359.0,301.0 360.0,301.0 361.0,300.0 362.0,300.0 363.0,300.0 364.0,299.0 365.0,299.0 366.0,299.0 367.0,299.0 368.0,299.0 369.0,298.0 370.0,298.0 371.0,298.0 372.0,298.0 373.0,298.0 374.0,298.0 375.0,298.0 376.0,297.0 377.0,297.0 378.0,297.0 379.0,297.0 380.0,297.0 381.0,297.0 382.0,296.0 383.0,296.0 384.0,296.0 385.0,295.0 386.0,295.0 387.0,295.0 388.0,295.0 389.0,295.0 390.0,295.0 391.0,295.0 392.0,295.0 393.0,295.0 394.0,295.0 395.0,295.0 396.0,294.0 397.0,294.0 398.0,295.0 399.0,294.0 400.0,294.0 401.0,294.0 402.0,294.0 403.0,293.0 404.0,293.0 405.0,293.0 406.0,293.0 407.0,293.0 408.0,293.0 409.0,292.0 410.0,292.0 411.0,292.0 412.0,292.0 413.0,292.0 414.0,292.0 415.0,292.0 416.0,292.0 417.0,292.0 418.0,292.0 419.0,291.0 420.0,291.0 421.0,292.0 422.0,292.0 423.0,292.0 424.0,292.0 425.0,292.0 426.0,292.0 427.0,291.0 428.0,291.0 429.0,291.0 430.0,292.0 431.0,292.0 432.0,292.0 433.0,292.0 434.0,292.0 435.0,292.0 436.0,291.0 437.0,292.0 438.0,291.0 439.0,291.0 440.0,291.0 441.0,291.0 442.0,291.0 443.0,291.0 444.0,290.0 445.0,290.0 446.0,291.0 447.0,290.0 448.0,290.0 449.0,290.0 450.0,290.0 451.0,289.0 452.0,289.0 453.0,288.0 454.0,288.0 455.0,288.0 456.0,288.0 457.0,289.0 458.0,288.0 459.0,288.0 460.0,288.0 461.0,288.0 462.0,288.0 463.0,288.0 464.0,287.0 465.0,287.0 466.0,287.0 467.0,287.0 468.0,287.0 469.0,286.0 470.0,286.0 471.0,286.0 472.0,285.0 473.0,285.0 474.0,285.0 475.0,285.0 476.0,285.0 477.0,285.0 478.0,285.0 479.0,285.0 480.0,284.0 481.0,283.0 482.0,283.0 483.0,282.0 484.0,282.0 485.0,281.0 486.0,281.0 487.0,281.0 488.0,280.0 489.0,280.0 490.0,280.0 491.0,279.0 492.0,279.0 493.0,278.0 494.0,278.0 495.0,278.0 496.0,277.0 497.0,277.0 498.0,276.0 499.0,276.0 500.0,275.0 501.0,275.0 502.0,275.0 503.0,275.0 504.0,275.0 505.0,275.0 506.0,275.0 507.0,274.0 508.0,275.0 509.0,275.0 510.0,274.0 511.0,274.0 512.0,274.0 513.0,274.0 514.0,274.0 515.0,274.0 516.0,274.0 517.0,273.0 518.0,273.0 519.0,272.0 520.0,272.0 521.0,271.0 522.0,271.0 523.0,270.0 524.0,270.0 525.0,269.0 526.0,269.0 527.0,269.0 528.0,269.0 529.0,269.0 530.0,269.0 531.0,269.0 532.0,268.0 533.0,268.0 534.0,268.0 535.0,267.0 536.0,268.0 537.0,268.0 538.0,267.0 539.0,267.0 540.0,267.0 541.0,267.0 542.0,267.0 543.0,267.0 544.0,267.0 545.0,267.0 546.0,267.0 547.0,267.0 548.0,267.0 549.0,267.0 550.0,267.0 551.0,267.0 552.0,267.0 553.0,267.0 554.0,267.0 555.0,267.0 556.0,267.0 557.0,267.0 558.0,267.0 559.0,266.0 560.0,266.0 561.0,266.0 562.0,266.0 563.0,266.0 564.0,266.0 565.0,266.0 566.0,265.0 567.0,265.0 568.0,264.0 569.0,264.0 570.0,264.0 571.0,263.0 572.0,263.0 573.0,263.0 574.0,263.0 575.0,263.0 576.0,262.0 577.0,263.0 578.0,263.0 579.0,262.0 580.0,262.0 581.0,262.0 582.0,261.0 583.0,261.0 584.0,261.0 585.0,261.0 586.0,261.0 587.0,261.0 588.0,260.0 589.0,261.0 590.0,261.0 591.0,260.0 592.0,260.0 593.0,260.0 594.0,260.0 595.0,260.0 596.0,259.0 597.0,259.0 598.0,259.0 599.0,259.0 600.0,259.0 601.0,259.0 602.0,259.0 603.0,259.0 604.0,259.0 605.0,259.0 606.0,259.0 607.0,259.0 608.0,259.0 609.0,259.0 610.0,259.0 611.0,259.0 612.0,259.0 613.0,258.0 614.0,258.0 615.0,258.0 616.0,257.0 617.0,257.0 618.0,258.0 619.0,258.0 620.0,258.0 621.0,258.0 622.0,257.0 623.0,258.0 624.0,258.0 625.0,257.0 626.0,257.0 627.0,257.0 628.0,257.0 629.0,257.0 630.0,257.0 631.0,257.0 632.0,258.0 633.0,258.0 634.0,258.0 635.0,258.0 636.0,258.0 637.0,258.0 638.0,259.0 639.0,259.0 640.0,259.0 641.0,259.0 642.0,259.0 643.0,259.0 644.0,259.0 645.0,259.0 646.0,260.0 647.0,260.0 648.0,260.0 649.0,260.0 650.0,260.0 651.0,260.0 652.0,260.0 653.0,260.0 654.0,261.0" fill="none" stroke="#ff0000" />
	<polyline points="55.0,280.0 56.0,280.0 57.0,280.0 58.0,280.0 59.0,280.0 60.0,280.0 61.0,281.0 62.0,281.0 63.0,282.0 64.0,282.0 65.0,282.0 66.0,282.0 67.0,283.0 68.0,283.0 69.0,284.0 70.0,284.0 71.0,284.0 72.0,285.0 73.0,285.0 74.0,284.0 75.0,285.0 76.0,285.0 77.0,285.0 78.0,286.0 79.0,286.0 80.0,286.0 81.0,286.0 82.0,286.0 83.0,286.0 84.0,286.0 85.0,286.0 86.0,286.0 87.0,287.0 88.0,287.0 89.0,287.0 90.0,287.0 91.0,287.0 92.0,288.0 93.0,288.0 94.0,288.0 95.0,288.0 96.0,288.0 97.0,288.0 98.0,288.0 99.0,288.0 100.0,288.0 101.0,288.0 102.0,288.0 103.0,288.0 104.0,288.0 105.0,288.0 106.0,288.0 107.0,288.0 108.0,289.0 109.0,289.0 110.0,289.0 111.0,289.0 112.0,290.0 113.0,291.0 114.0,290.0 115.0,291.0 116.0,290.0 117.0,290.0 118.0,290.0 119.0,290.0 120.0,291.0 121.0,291.0 122.0,291.0 123.0,291.0 124.0,291.0 125.0,292.0 126.0,292.0 127.0,292.0 128.0,292.0 129.0,292.0 130.0,292.0 131.0,291.0 132.0,292.0 133.0,292.0 134.0,292.0 135.0,292.0 136.0,292.0 137.0,292.0 138.0,292.0 139.0,292.0 140.0,292.0 141.0,292.0 142.0,292.0 143.0,292.0 144.0,292.0 145.0,292.0 146.0,293.0 147.0,293.0 148.0,293.0 149.0,293.0 150.0,294.0 151.0,294.0 152.0,294.0 153.0,294.0 154.0,294.0 155.0,294.0 156.0,293.0 157.0,293.0 158.0,293.0 159.0,293.0 160.0,293.0 161.0,293.0 162.0,293.0 163.0,293.0 164.0,293.0 165.0,292.0 166.0,292.0 167.0,292.0 168.0,292.0 169.0,291.0 170.0,292.0 171.0,292.0 172.0,292.0 173.0,292.0 174.0,292.0 175.0,292.0 176.0,292.0 177.0,292.0 178.0,292.0 179.0,292.0 180.0,292.0 181.0,292.0 182.0,292.0 183.0,293.0 184.0,293.0 185.0,293.0 186.0,293.0 187.0,294.0 188.0,294.0 189.0,294.0 190.0,295.0 191.0,295.0 192.0,294.0 193.0,294.0 194.0,295.0 195.0,294.0 196.0,295.0 197.0,295.0 198.0,295.0 199.0,295.0 200.0,295.0 201.0,295.0 202.0,295.0 203.0,295.0 204.0,296.0 205.0,296.0 206.0,296.0 207.0,296.0 208.0,296.0 209.0,296.0 210.0,296.0 211.0,296.0 212.0,296.0 213.0,296.0 214.0,296.0 215.0,296.0 216.0,296.0 217.0,296.0 218.0,296.0 219.0,296.0 220.0,296.0 221.0,296.0 222.0,297.0 223.0,297.0 224.0,296.0 225.0,296.0 226.0,297.0 227.0,297.0 228.0,297.0 229.0,297.0 230.0,297.0 231.0,297.0 232.0,297.0 233.0,297.0 234.0,297.0 235.0,297.0 236.0,297.0 237.0,297.0 238.0,297.0 239.0,298.0 240.0,298.0 241.0,298.0 242.0,298.0 243.0,298.0 244.0,298.0 245.0,298.0 246.0,299.0 247.0,300.0 248.0,300.0 249.0,300.0 250.0,300.0 251.0,300.0 252.0,300.0 253.0,300.0 254.0,300.0 255.0,300.0 256.0,301.0 257.0,301.0 258.0,301.0 259.0,301.0 260.0,301.0 261.0,301.0 262.0,301.0 263.0,301.0 264.0,301.0 265.0,301.0 266.0,301.0 267.0,301.0 268.0,300.0 269.0,300.0 270.0,300.0 271.0,300.0 272.0,300.0 273.0,299.0 274.0,299.0 275.0,299.0 276.0,299.0 277.0,299.0 278.0,299.0 279.0,299.0 280.0,299.0 281.0,299.0 282.0,300.0 283.0,300.0 284.0,300.0 285.0,300.0 286.0,301.0 287.0,301.0 288.0,301.0 289.0,301.0 290.0,300.0 291.0,300.0 292.0,299.0 293.0,299.0 294.0,299.0 295.0,299.0 296.0,299.0 297.0,299.0 298.0,300.0 299.0,299.0 300.0,300.0 301.0,299.0 302.0,299.0 303.0,299.0 304.0,299.0 305.0,299.0 306.0,299.0 307.0,299.0 308.0,299.0 309.0,299.0 310.0,299.0 311.0,299.0 312.0,299.0 313.0,299.0 314.0,299.0 315.0,299.0 316.0,299.0 317.0,299.0 318.0,298.0 319.0,299.0 320.0,299.0 321.0,299.0 322.0,299.0 323.0,299.0 324.0,299.0 325.0,299.0 326.0,299.0 327.0,299.0 328.0,299.0 329.0,299.0 330.0,299.0 331.0,299.0 332.0,299.0 333.0,299.0 334.0,299.0 335.0,300.0 336.0,300.0 337.0,299.0 338.0,299.0 339.0,299.0 340.0,299.0 341.0,300.0 342.0,300.0 343.0,299.0 344.0,300.0 345.0,300.0 346.0,300.0 347.0,301.0 348.0,300.0 349.0,300.0 350.0,300.0 351.0,300.0 352.0,300.0 353.0,300.0 354.0,299.0 355.0,300.0 356.0,300.0 357.0,300.0 358.0,300.0 359.0,300.0 360.0,300.0 361.0,299.0 362.0,300.0 363.0,300.0 364.0,300.0 365.0,300.0 366.0,300.0 367.0,300.0 368.0,300.0 369.0,300.0 370.0,300.0 371.0,300.0 372.0,300.0 373.0,300.0 374.0,300.0 375.0,300.0 376.0,300.0 377.0,300.0 378.0,300.0 379.0,300.0 380.0,299.0 381.0,299.0 382.0,300.0 383.0,300.0 384.0,300.0 385.0,299.0 386.0,299.0 387.0,298.0 388.0,298.0 389.0,298.0 390.0,298.0 391.0,298.0 392.0,298.0 393.0,298.0 394.0,298.0 395.0,298.0 396.0,298.0 397.0,298.0 398.0,298.0 399.0,298.0 400.0,297.0 401.0,298.0 402.0,298.0 403.0,298.0 404.0,297.0 405.0,297.0 406.0,297.0 407.0,297.0 408.0,297.0 409.0,297.0 410.0,297.0 411.0,297.0 412.0,296.0 413.0,296.0 414.0,296.0 415.0,296.0 416.0,296.0 417.0,295.0 418.0,294.0 419.0,294.0 420.0,294.0 421.0,294.0 422.0,294.0 423.0,293.0 424.0,293.0 425.0,292.0 426.0,292.0 427.0,292.0 428.0,292.0 429.0,292.0 430.0,292.0 431.0,292.0 432.0,291.0 433.0,291.0 434.0,290.0 435.0,290.0 436.0,289.0 437.0,289.0 438.0,289.0 439.0,288.0 440.0,288.0 441.0,287.0 442.0,287.0 443.0,287.0 444.0,287.0 445.0,287.0 446.0,286.0 447.0,286.0 448.0,285.0 449.0,285.0 450.0,285.0 451.0,284.0 452.0,285.0 453.0,284.0 454.0,284.0 455.0,283.0 456.0,283.0 457.0,282.0 458.0,283.0 459.0,282.0 460.0,282.0 461.0,282.0 462.0,282.0 463.0,282.0 464.0,282.0 465.0,282.0 466.0,282.0 467.0,281.0 468.0,281.0 469.0,281.0 470.0,281.0 471.0,281.0 472.0,280.0 473.0,280.0 474.0,280.0 475.0,280.0 476.0,280.0 477.0,280.0 478.0,280.0 479.0,280.0 480.0,280.0 481.0,280.0 482.0,280.0 483.0,280.0 484.0,280.0 485.0,280.0 486.0,280.0 487.0,280.0 488.0,280.0 489.0,280.0 490.0,280.0 491.0,279.0 492.0,279.0 493.0,279.0 494.0,279.0 495.0,279.0 496.0,278.0 497.0,278.0 498.0,278.0 499.0,278.0 500.0,278.0 501.0,279.0 502.0,279.0 503.0,278.0 504.0,278.0 505.0,278.0 506.0,278.0 507.0,278.0 508.0,278.0 509.0,278.0 510.0,277.0 511.0,277.0 512.0,276.0 513.0,276.0 514.0,276.0 515.0,276.0 516.0,275.0 517.0,274.0 518.0,273.0 519.0,272.0 520.0,272.0 521.0,271.0 522.0,270.0 523.0,269.0 524.0,269.0 525.0,269.0 526.0,268.0 527.0,268.0 528.0,268.0 529.0,268.0 530.0,268.0 531.0,267.0 532.0,267.0 533.0,267.0 534.0,267.0 535.0,267.0 536.0,266.0 537.0,267.0 538.0,266.0 539.0,266.0 540.0,266.0 541.0,267.0 542.0,267.0 543.0,266.0 544.0,266.0 545.0,266.0 546.0,266.0 547.0,266.0 548.0,266.0 549.0,266.0 550.0,266.0 551.0,266.0 552.0,266.0 553.0,265.0 554.0,265.0 555.0,266.0 556.0,265.0 557.0,265.0 558.0,265.0 559.0,265.0 560.0,264.0 561.0,264.0 562.0,264.0 563.0,264.0 564.0,264.0 565.0,265.0 566.0,264.0 567.0,265.0 568.0,265.0 569.0,264.0 570.0,263.0 571.0,263.0 572.0,263.0 573.0,263.0 574.0,263.0 575.0,263.0 576.0,262.0 577.0,262.0 578.0,261.0 579.0,261.0 580.0,261.0 581.0,261.0 582.0,261.0 583.0,261.0 584.0,261.0 585.0,261.0 586.0,261.0 587.0,261.0 588.0,261.0 589.0,261.0 590.0,261.0 591.0,261.0 592.0,261.0 593.0,260.0 594.0,261.0 595.0,261.0 596.0,261.0 597.0,260.0 598.0,260.0 599.0,260.0 600.0,260.0 601.0,260.0 602.0,260.0 603.0,260.0 604.0,259.0 605.0,259.0 606.0,259.0 607.0,259.0 608.0,258.0 609.0,258.0 610.0,258.0 611.0,258.0 612.0,258.0 613.0,258.0 614.0,258.0 615.0,258.0 616.0,258.0 617.0,257.0 618.0,257.0 619.0,256.0 620.0,256.0 621.0,256.0 622.0,255.0 623.0,255.0 624.0,254.0 625.0,254.0 626.0,252.0 627.0,251.0 628.0,251.0 629.0,250.0 630.0,249.0 631.0,248.0 632.0,246.0 633.0,245.0 634.0,244.0 635.0,243.0 636.0,242.0 637.0,241.0 638.0,241.0 639.0,241.0 640.0,240.0 641.0,240.0 642.0,239.0 643.0,239.0 644.0,239.0 645.0,238.0 646.0,238.0 647.0,238.0 648.0,238.0 649.0,238.0 650.0,238.0 651.0,237.0 652.0,237.0 653.0,236.0 654.0,236.0" fill="none" stroke="#008000" />
	<polyline points="55.0,54.0 56.0,54.0 57.0,53.0 58.0,54.0 59.0,54.0 60.0,54.0 61.0,54.0 62.0,53.0 63.0,53.0 64.0,53.0 65.0,52.0 66.0,52.0 67.0,52.0 68.0,52.0 69.0,52.0 70.0,52.0 71.0,52.0 72.0,52.0 73.0,52.0 74.0,52.0 75.0,51.0 76.0,51.0 77.0,51.0 78.0,51.0 79.0,51.0 80.0,51.0 81.0,51.0 82.0,50.0 83.0,50.0 84.0,50.0 85.0,50.0 86.0,50.0 87.0,49.0 88.0,49.0 89.0,49.0 90.0,48.0 91.0,48.0 92.0,48.0 93.0,48.0 94.0,48.0 95.0,48.0 96.0,47.0 97.0,48.0 98.0,48.0 99.0,48.0 100.0,48.0 101.0,48.0 102.0,48.0 103.0,47.0 104.0,47.0 105.0,47.0 106.0,47.0 107.0,47.0 108.0,47.0 109.0,47.0 110.0,47.0 111.0,47.0 112.0,47.0 113.0,46.0 114.0,46.0 115.0,46.0 116.0,46.0 117.0,46.0 118.0,45.0 119.0,46.0 120.0,46.0 121.0,46.0 122.0,46.0 123.0,46.0 124.0,46.0 125.0,45.0 126.0,45.0 127.0,45.0 128.0,45.0 129.0,45.0 130.0,45.0 131.0,45.0 132.0,45.0 133.0,45.0 134.0,44.0 135.0,44.0 136.0,44.0 137.0,44.0 138.0,43.0 139.0,43.0 140.0,44.0 141.0,43.0 142.0,43.0 143.0,43.0 144.0,43.0 145.0,43.0 146.0,43.0 147.0,44.0 148.0,44.0 149.0,44.0 150.0,44.0 151.0,44.0 152.0,44.0 153.0,44.0 154.0,44.0 155.0,43.0 156.0,43.0 157.0,42.0 158.0,42.0 159.0,42.0 160.0,42.0 161.0,42.0 162.0,42.0 163.0,42.0 164.0,41.0 165.0,41.0 166.0,40.0 167.0,40.0 168.0,40.0 169.0,40.0 170.0,39.0 171.0,40.0 172.0,39.0 173.0,39.0 174.0,39.0 175.0,39.0 176.0,39.0 177.0,39.0 178.0,39.0 179.0,38.0 180.0,38.0 181.0,39.0 182.0,39.0 183.0,40.0 184.0,40.0 185.0,40.0 186.0,39.0 187.0,39.0 188.0,39.0 189.0,39.0 190.0,39.0 191.0,39.0 192.0,39.0 193.0,39.0 194.0,39.0 195.0,39.0 196.0,39.0 197.0,39.0 198.0,39.0 199.0,38.0 200.0,38.0 201.0,38.0 202.0,38.0 203.0,38.0 204.0,38.0 205.0,38.0 206.0,38.0 207.0,38.0 208.0,37.0 209.0,37.0 210.0,37.0 211.0,37.0 212.0,37.0 213.0,37.0 214.0,37.0 215.0,37.0 216.0,37.0 217.0,37.0 218.0,37.0 219.0,37.0 220.0,37.0 221.0,37.0 222.0,37.0 223.0,37.0 224.0,37.0 225.0,37.0 226.0,37.0 227.0,37.0 228.0,36.0 229.0,36.0 230.0,36.0 231.0,36.0 232.0,36.0 233.0,36.0 234.0,37.0 235.0,37.0 236.0,37.0 237.0,37.0 238.0,36.0 239.0,36.0 240.0,36.0 241.0,36.0 242.0,36.0 243.0,36.0 244.0,36.0 245.0,36.0 246.0,36.0 247.0,36.0 248.0,37.0 249.0,36.0 250.0,36.0 251.0,36.0 252.0,37.0 253.0,37.0 254.0,37.0 255.0,36.0 256.0,36.0 257.0,36.0 258.0,35.0 259.0,35.0 260.0,35.0 261.0,35.0 262.0,34.0 263.0,34.0 264.0,34.0 265.0,34.0 266.0,33.0 267.0,33.0 268.0,33.0 269.0,33.0 270.0,33.0 271.0,33.0 272.0,32.0 273.0,32.0 274.0,32.0 275.0,32.0 276.0,32.0 277.0,32.0 278.0,32.0 279.0,32.0 280.0,32.0 281.0,33.0 282.0,32.0 283.0,32.0 284.0,33.0 285.0,33.0 286.0,33.0 287.0,33.0 288.0,32.0 289.0,33.0 290.0,32.0 291.0,33.0 292.0,33.0 293.0,34.0 294.0,33.0 295.0,33.0 296.0,33.0 297.0,33.0 298.0,32.0 299.0,33.0 300.0,32.0 301.0,33.0 302.0,32.0 303.0,32.0 304.0,31.0 305.0,31.0 306.0,31.0 307.0,32.0 308.0,32.0 309.0,32.0 310.0,31.0 311.0,32.0 312.0,32.0 313.0,33.0 314.0,32.0 315.0,33.0 316.0,32.0 317.0,32.0 318.0,32.0 319.0,33.0 320.0,32.0 321.0,33.0 322.0,32.0 323.0,33.0 324.0,33.0 325.0,33.0 326.0,33.0 327.0,33.0 328.0,32.0 329.0,33.0 330.0,32.0 331.0,33.0 332.0,32.0 333.0,33.0 334.0,32.0 335.0,34.0 336.0,33.0 337.0,34.0 338.0,33.0 339.0,35.0 340.0,33.0 341.0,35.0 342.0,34.0 343.0,36.0 344.0,35.0 345.0,37.0 346.0,36.0 347.0,38.0 348.0,38.0 349.0,40.0 350.0,39.0 351.0,41.0 352.0,40.0 353.0,42.0 354.0,41.0 355.0,44.0 356.0,42.0 357.0,45.0 358.0,43.0 359.0,46.0 360.0,45.0 361.0,47.0 362.0,45.0 363.0,47.0 364.0,46.0 365.0,47.0 366.0,46.0 367.0,47.0 368.0,47.0 369.0,48.0 370.0,47.0 371.0,47.0 372.0,47.0 373.0,47.0 374.0,46.0 375.0,47.0 376.0,46.0 377.0,46.0 378.0,46.0 379.0,46.0 380.0,45.0 381.0,46.0 382.0,46.0 383.0,46.0 384.0,45.0 385.0,45.0 386.0,44.0 387.0,45.0 388.0,44.0 389.0,44.0 390.0,44.0 391.0,45.0 392.0,44.0 393.0,45.0 394.0,44.0 395.0,44.0 396.0,43.0 397.0,43.0 398.0,43.0 399.0,43.0 400.0,43.0 401.0,43.0 402.0,43.0 403.0,44.0 404.0,43.0 405.0,43.0 406.0,42.0 407.0,42.0 408.0,41.0 409.0,41.0 410.0,40.0 411.0,40.0 412.0,39.0 413.0,39.0 414.0,39.0 415.0,38.0 416.0,38.0 417.0,38.0 418.0,37.0 419.0,38.0 420.0,38.0 421.0,38.0 422.0,37.0 423.0,38.0 424.0,37.0 425.0,37.0 426.0,37.0 427.0,37.0 428.0,36.0 429.0,37.0 430.0,37.0 431.0,37.0 432.0,36.0 433.0,37.0 434.0,35.0 435.0,36.0 436.0,36.0 437.0,36.0 438.0,35.0 439.0,36.0 440.0,35.0 441.0,36.0 442.0,35.0 443.0,36.0 444.0,35.0 445.0,36.0 446.0,35.0 447.0,36.0 448.0,35.0 449.0,36.0 450.0,35.0 451.0,36.0 452.0,36.0 453.0,37.0 454.0,36.0 455.0,37.0 456.0,36.0 457.0,37.0 458.0,36.0 459.0,36.0 460.0,36.0 461.0,36.0 462.0,36.0 463.0,36.0 464.0,35.0 465.0,35.0 466.0,35.0 467.0,35.0 468.0,35.0 469.0,36.0 470.0,35.0 471.0,35.0 472.0,35.0 473.0,35.0 474.0,35.0 475.0,35.0 476.0,34.0 477.0,34.0 478.0,34.0 479.0,35.0 480.0,34.0 481.0,34.0 482.0,34.0 483.0,34.0 484.0,33.0 485.0,34.0 486.0,33.0 487.0,34.0 488.0,33.0 489.0,33.0 490.0,33.0 491.0,33.0 492.0,33.0 493.0,33.0 494.0,32.0 495.0,33.0 496.0,32.0 497.0,33.0 498.0,32.0 499.0,33.0 500.0,32.0 501.0,32.0 502.0,32.0 503.0,32.0 504.0,32.0 505.0,33.0 506.0,32.0 507.0,34.0 508.0,33.0 509.0,35.0 510.0,33.0 511.0,35.0 512.0,33.0 513.0,36.0 514.0,34.0 515.0,37.0 516.0,35.0 517.0,40.0 518.0,38.0 519.0,43.0 520.0,41.0 521.0,47.0 522.0,44.0 523.0,51.0 524.0,49.0 525.0,56.0 526.0,54.0 527.0,60.0 528.0,58.0 529.0,62.0 530.0,60.0 531.0,62.0 532.0,60.0 533.0,62.0 534.0,60.0 535.0,61.0 536.0,60.0 537.0,60.0 538.0,59.0 539.0,59.0 540.0,58.0 541.0,59.0 542.0,58.0 543.0,58.0 544.0,57.0 545.0,57.0 546.0,56.0 547.0,57.0 548.0,56.0 549.0,56.0 550.0,55.0 551.0,55.0 552.0,55.0 553.0,55.0 554.0,55.0 555.0,55.0 556.0,54.0 557.0,54.0 558.0,54.0 559.0,54.0 560.0,53.0 561.0,53.0 562.0,52.0 563.0,51.0 564.0,51.0 565.0,51.0 566.0,51.0 567.0,50.0 568.0,50.0 569.0,50.0 570.0,50.0 571.0,49.0 572.0,48.0 573.0,48.0 574.0,48.0 575.0,48.0 576.0,48.0 577.0,48.0 578.0,47.0 579.0,46.0 580.0,46.0 581.0,45.0 582.0,45.0 583.0,44.0 584.0,44.0 585.0,44.0 586.0,43.0 587.0,43.0 588.0,42.0 589.0,42.0 590.0,42.0 591.0,41.0 592.0,42.0 593.0,41.0 594.0,41.0 595.0,40.0 596.0,41.0 597.0,40.0 598.0,40.0 599.0,40.0 600.0,40.0 601.0,40.0 602.0,40.0 603.0,40.0 604.0,40.0 605.0,40.0 606.0,40.0 607.0,39.0 608.0,40.0 609.0,39.0 610.0,40.0 611.0,39.0 612.0,40.0 613.0,39.0 614.0,40.0 615.0,40.0 616.0,41.0 617.0,40.0 618.0,41.0 619.0,39.0 620.0,41.0 621.0,40.0 622.0,42.0 623.0,40.0 624.0,43.0 625.0,42.0 626.0,45.0 627.0,43.0 628.0,46.0 629.0,44.0 630.0,49.0 631.0,46.0 632.0,50.0 633.0,48.0 634.0,52.0 635.0,50.0 636.0,54.0 637.0,52.0 638.0,55.0 639.0,53.0 640.0,55.0 641.0,54.0 642.0,55.0 643.0,54.0 644.0,55.0 645.0,54.0 646.0,54.0 647.0,54.0 648.0,54.0 649.0,53.0 650.0,54.0 651.0,53.0 652.0,53.0 653.0,52.0 654.0,52.0" fill="none" stroke="#d0d000" />
	<polyline points="55.0,283.0 56.0,283.0 57.0,283.0 58.0,283.0 59.0,283.0 60.0,284.0 61.0,284.0 62.0,284.0 63.0,284.0 64.0,285.0 65.0,285.0 66.0,284.0 67.0,284.0 68.0,285.0 69.0,285.0 70.0,285.0 71.0,285.0 72.0,285.0 73.0,285.0 74.0,286.0 75.0,286.0 76.0,286.0 77.0,286.0 78.0,286.0 79.0,286.0 80.0,286.0 81.0,286.0 82.0,286.0 83.0,286.0 84.0,286.0 85.0,287.0 86.0,287.0 87.0,287.0 88.0,288.0 89.0,287.0 90.0,287.0 91.0,288.0 92.0,288.0 93.0,288.0 94.0,288.0 95.0,287.0 96.0,287.0 97.0,287.0 98.0,288.0 99.0,288.0 100.0,288.0 101.0,288.0 102.0,288.0 103.0,289.0 104.0,289.0 105.0,289.0 106.0,289.0 107.0,289.0 108.0,289.0 109.0,290.0 110.0,289.0 111.0,289.0 112.0,289.0 113.0,289.0 114.0,289.0 115.0,289.0 116.0,289.0 117.0,289.0 118.0,289.0 119.0,289.0 120.0,288.0 121.0,288.0 122.0,288.0 123.0,288.0 124.0,288.0 125.0,288.0 126.0,288.0 127.0,288.0 128.0,288.0 129.0,288.0 130.0,288.0 131.0,288.0 132.0,288.0 133.0,288.0 134.0,288.0 135.0,288.0 136.0,288.0 137.0,289.0 138.0,288.0 139.0,288.0 140.0,289.0 141.0,289.0 142.0,289.0 143.0,289.0 144.0,289.0 145.0,289.0 146.0,289.0 147.0,290.0 148.0,290.0 149.0,289.0 150.0,289.0 151.0,289.0 152.0,289.0 153.0,289.0 154.0,289.0 155.0,289.0 156.0,289.0 157.0,290.0 158.0,290.0 159.0,290.0 160.0,290.0 161.0,291.0 162.0,290.0 163.0,290.0 164.0,291.0 165.0,291.0 166.0,291.0 167.0,291.0 168.0,291.0 169.0,291.0 170.0,291.0 171.0,291.0 172.0,292.0 173.0,291.0 174.0,292.0 175.0,292.0 176.0,291.0 177.0,291.0 178.0,291.0 179.0,292.0 180.0,292.0 181.0,292.0 182.0,292.0 183.0,292.0 184.0,292.0 185.0,292.0 186.0,292.0 187.0,292.0 188.0,292.0 189.0,292.0 190.0,292.0 191.0,292.0 192.0,292.0 193.0,292.0 194.0,292.0 195.0,292.0 196.0,292.0 197.0,292.0 198.0,292.0 199.0,293.0 200.0,292.0 201.0,292.0 202.0,292.0 203.0,292.0 204.0,292.0 205.0,292.0 206.0,292.0 207.0,292.0 208.0,292.0 209.0,292.0 210.0,292.0 211.0,292.0 212.0,292.0 213.0,292.0 214.0,292.0 215.0,292.0 216.0,292.0 217.0,292.0 218.0,293.0 219.0,293.0 220.0,293.0 221.0,294.0 222.0,294.0 223.0,293.0 224.0,294.0 225.0,294.0 226.0,294.0 227.0,295.0 228.0,295.0 229.0,295.0 230.0,296.0 231.0,296.0 232.0,296.0 233.0,297.0 234.0,297.0 235.0,297.0 236.0,297.0 237.0,297.0 238.0,297.0 239.0,297.0 240.0,297.0 241.0,297.0 242.0,297.0 243.0,298.0 244.0,298.0 245.0,298.0 246.0,299.0 247.0,299.0 248.0,299.0 249.0,299.0 250.0,300.0 251.0,300.0 252.0,300.0 253.0,300.0 254.0,300.0 255.0,300.0 256.0,300.0 257.0,300.0 258.0,301.0 259.0,301.0 260.0,301.0 261.0,301.0 262.0,301.0 263.0,301.0 264.0,301.0 265.0,301.0 266.0,301.0 267.0,301.0 268.0,301.0 269.0,301.0 270.0,301.0 271.0,302.0 272.0,302.0 273.0,301.0 274.0,302.0 275.0,301.0 276.0,301.0 277.0,301.0 278.0,300.0 279.0,300.0 280.0,299.0 281.0,299.0 282.0,298.0 283.0,298.0 284.0,298.0 285.0,297.0 286.0,296.0 287.0,295.0 288.0,294.0 289.0,294.0 290.0,293.0 291.0,293.0 292.0,292.0 293.0,291.0 294.0,290.0 295.0,289.0 296.0,288.0 297.0,288.0 298.0,287.0 299.0,287.0 300.0,285.0 301.0,284.0 302.0,284.0 303.0,283.0 304.0,283.0 305.0,281.0 306.0,281.0 307.0,280.0 308.0,279.0 309.0,279.0 310.0,278.0 311.0,277.0 312.0,277.0 313.0,276.0 314.0,276.0 315.0,275.0 316.0,275.0 317.0,274.0 318.0,273.0 319.0,273.0 320.0,273.0 321.0,272.0 322.0,272.0 323.0,271.0 324.0,270.0 325.0,270.0 326.0,270.0 327.0,270.0 328.0,269.0 329.0,268.0 330.0,268.0 331.0,268.0 332.0,268.0 333.0,267.0 334.0,267.0 335.0,266.0 336.0,267.0 337.0,267.0 338.0,267.0 339.0,267.0 340.0,267.0 341.0,267.0 342.0,267.0 343.0,267.0 344.0,267.0 345.0,267.0 346.0,268.0 347.0,267.0 348.0,268.0 349.0,267.0 350.0,268.0 351.0,268.0 352.0,268.0 353.0,268.0 354.0,268.0 355.0,268.0 356.0,269.0 357.0,269.0 358.0,269.0 359.0,269.0 360.0,268.0 361.0,268.0 362.0,268.0 363.0,269.0 364.0,269.0 365.0,269.0 366.0,269.0 367.0,269.0 368.0,269.0 369.0,269.0 370.0,269.0 371.0,269.0 372.0,269.0 373.0,270.0 374.0,270.0 375.0,270.0 376.0,271.0 377.0,271.0 378.0,271.0 379.0,271.0 380.0,271.0 381.0,272.0 382.0,272.0 383.0,273.0 384.0,273.0 385.0,273.0 386.0,273.0 387.0,274.0 388.0,274.0 389.0,275.0 390.0,274.0 391.0,274.0 392.0,274.0 393.0,275.0 394.0,275.0 395.0,275.0 396.0,276.0 397.0,276.0 398.0,276.0 399.0,276.0 400.0,276.0 401.0,276.0 402.0,277.0 403.0,277.0 404.0,278.0 405.0,278.0 406.0,278.0 407.0,279.0 408.0,278.0 409.0,279.0 410.0,278.0 411.0,278.0 412.0,279.0 413.0,279.0 414.0,280.0 415.0,280.0 416.0,280.0 417.0,279.0 418.0,280.0 419.0,280.0 420.0,280.0 421.0,280.0 422.0,280.0 423.0,280.0 424.0,280.0 425.0,280.0 426.0,280.0 427.0,280.0 428.0,280.0 429.0,280.0 430.0,280.0 431.0,281.0 432.0,281.0 433.0,281.0 434.0,281.0 435.0,281.0 436.0,281.0 437.0,281.0 438.0,281.0 439.0,280.0 440.0,280.0 441.0,281.0 442.0,281.0 443.0,281.0 444.0,281.0 445.0,282.0 446.0,281.0 447.0,282.0 448.0,282.0 449.0,281.0 450.0,282.0 451.0,283.0 452.0,282.0 453.0,283.0 454.0,283.0 455.0,283.0 456.0,283.0 457.0,283.0 458.0,283.0 459.0,283.0 460.0,284.0 461.0,284.0 462.0,284.0 463.0,284.0 464.0,284.0 465.0,284.0 466.0,284.0 467.0,284.0 468.0,285.0 469.0,285.0 470.0,285.0 471.0,285.0 472.0,284.0 473.0,285.0 474.0,284.0 475.0,285.0 476.0,285.0 477.0,286.0 478.0,286.0 479.0,286.0 480.0,287.0 481.0,287.0 482.0,287.0 483.0,288.0 484.0,287.0 485.0,288.0 486.0,288.0 487.0,288.0 488.0,288.0 489.0,288.0 490.0,288.0 491.0,288.0 492.0,288.0 493.0,288.0 494.0,288.0 495.0,288.0 496.0,289.0 497.0,289.0 498.0,289.0 499.0,289.0 500.0,289.0 501.0,289.0 502.0,289.0 503.0,289.0 504.0,289.0 505.0,290.0 506.0,290.0 507.0,290.0 508.0,289.0 509.0,289.0 510.0,289.0 511.0,289.0 512.0,289.0 513.0,289.0 514.0,289.0 515.0,289.0 516.0,289.0 517.0,289.0 518.0,289.0 519.0,288.0 520.0,289.0 521.0,288.0 522.0,288.0 523.0,288.0 524.0,288.0 525.0,288.0 526.0,288.0 527.0,288.0 528.0,288.0 529.0,288.0 530.0,288.0 531.0,288.0 532.0,288.0 533.0,288.0 534.0,288.0 535.0,288.0 536.0,289.0 537.0,289.0 538.0,289.0 539.0,289.0 540.0,288.0 541.0,289.0 542.0,289.0 543.0,289.0 544.0,289.0 545.0,289.0 546.0,289.0 547.0,289.0 548.0,289.0 549.0,289.0 550.0,290.0 551.0,290.0 552.0,289.0 553.0,290.0 554.0,290.0 555.0,289.0 556.0,289.0 557.0,290.0 558.0,289.0 559.0,289.0 560.0,289.0 561.0,289.0 562.0,289.0 563.0,290.0 564.0,290.0 565.0,290.0 566.0,289.0 567.0,290.0 568.0,290.0 569.0,290.0 570.0,291.0 571.0,291.0 572.0,291.0 573.0,291.0 574.0,291.0 575.0,291.0 576.0,290.0 577.0,290.0 578.0,290.0 579.0,290.0 580.0,290.0 581.0,290.0 582.0,290.0 583.0,290.0 584.0,290.0 585.0,290.0 586.0,290.0 587.0,290.0 588.0,290.0 589.0,290.0 590.0,290.0 591.0,291.0 592.0,290.0 593.0,291.0 594.0,291.0 595.0,292.0 596.0,292.0 597.0,292.0 598.0,292.0 599.0,292.0 600.0,293.0 601.0,293.0 602.0,294.0 603.0,295.0 604.0,295.0 605.0,295.0 606.0,294.0 607.0,294.0 608.0,294.0 609.0,294.0 610.0,295.0 611.0,295.0 612.0,295.0 613.0,295.0 614.0,295.0 615.0,294.0 616.0,294.0 617.0,294.0 618.0,295.0 619.0,295.0 620.0,295.0 621.0,296.0 622.0,296.0 623.0,295.0 624.0,296.0 625.0,295.0 626.0,295.0 627.0,296.0 628.0,296.0 629.0,296.0 630.0,296.0 631.0,296.0 632.0,297.0 633.0,296.0 634.0,296.0 635.0,296.0 636.0,296.0 637.0,297.0 638.0,297.0 639.0,297.0 640.0,297.0 641.0,298.0 642.0,298.0 643.0,298.0 644.0,298.0 645.0,299.0 646.0,299.0 647.0,299.0 648.0,299.0 649.0,300.0 650.0,300.0 651.0,300.0 652.0,300.0 653.0,299.0 654.0,299.0" fill="none" stroke="#fb46bc" />
	<polyline points="55.0,79.0 56.0,79.0 57.0,79.0 58.0,79.0 59.0,79.0 60.0,79.0 61.0,79.0 62.0,79.0 63.0,79.0 64.0,78.0 65.0,78.0 66.0,78.0 67.0,78.0 68.0,79.0 69.0,79.0 70.0,79.0 71.0,79.0 72.0,79.0 73.0,79.0 74.0,79.0 75.0,78.0 76.0,77.0 77.0,77.0 78.0,77.0 79.0,77.0 80.0,77.0 81.0,77.0 82.0,76.0 83.0,76.0 84.0,76.0 85.0,76.0 86.0,75.0 87.0,75.0 88.0,75.0 89.0,75.0 90.0,76.0 91.0,76.0 92.0,75.0 93.0,75.0 94.0,76.0 95.0,75.0 96.0,76.0 97.0,76.0 98.0,76.0 99.0,75.0 100.0,75.0 101.0,75.0 102.0,75.0 103.0,74.0 104.0,74.0 105.0,74.0 106.0,74.0 107.0,74.0 108.0,74.0 109.0,73.0 110.0,73.0 111.0,73.0 112.0,73.0 113.0,73.0 114.0,73.0 115.0,73.0 116.0,73.0 117.0,73.0 118.0,73.0 119.0,72.0 120.0,72.0 121.0,72.0 122.0,72.0 123.0,72.0 124.0,72.0 125.0,72.0 126.0,71.0 127.0,71.0 128.0,72.0 129.0,71.0 130.0,72.0 131.0,72.0 132.0,71.0 133.0,72.0 134.0,72.0 135.0,72.0 136.0,72.0 137.0,72.0 138.0,72.0 139.0,71.0 140.0,71.0 141.0,71.0 142.0,71.0 143.0,71.0 144.0,71.0 145.0,71.0 146.0,71.0 147.0,71.0 148.0,71.0 149.0,71.0 150.0,71.0 151.0,71.0 152.0,71.0 153.0,72.0 154.0,72.0 155.0,72.0 156.0,71.0 157.0,71.0 158.0,71.0 159.0,72.0 160.0,71.0 161.0,71.0 162.0,71.0 163.0,71.0 164.0,71.0 165.0,71.0 166.0,71.0 167.0,71.0 168.0,71.0 169.0,71.0 170.0,70.0 171.0,70.0 172.0,70.0 173.0,69.0 174.0,69.0 175.0,69.0 176.0,69.0 177.0,68.0 178.0,68.0 179.0,67.0 180.0,68.0 181.0,67.0 182.0,67.0 183.0,67.0 184.0,67.0 185.0,67.0 186.0,67.0 187.0,67.0 188.0,67.0 189.0,67.0 190.0,67.0 191.0,67.0 192.0,67.0 193.0,67.0 194.0,66.0 195.0,66.0 196.0,67.0 197.0,67.0 198.0,66.0 199.0,66.0 200.0,66.0 201.0,66.0 202.0,66.0 203.0,65.0 204.0,65.0 205.0,65.0 206.0,65.0 207.0,65.0 208.0,65.0 209.0,65.0 210.0,65.0 211.0,65.0 212.0,65.0 213.0,65.0 214.0,65.0 215.0,65.0 216.0,65.0 217.0,65.0 218.0,65.0 219.0,65.0 220.0,64.0 221.0,64.0 222.0,65.0 223.0,65.0 224.0,65.0 225.0,65.0 226.0,65.0 227.0,64.0 228.0,64.0 229.0,64.0 230.0,64.0 231.0,64.0 232.0,64.0 233.0,63.0 234.0,63.0 235.0,63.0 236.0,63.0 237.0,63.0 238.0,63.0 239.0,63.0 240.0,63.0 241.0,63.0 242.0,63.0 243.0,63.0 244.0,62.0 245.0,62.0 246.0,62.0 247.0,62.0 248.0,61.0 249.0,60.0 250.0,61.0 251.0,61.0 252.0,61.0 253.0,61.0 254.0,61.0 255.0,61.0 256.0,61.0 257.0,60.0 258.0,60.0 259.0,60.0 260.0,59.0 261.0,59.0 262.0,59.0 263.0,59.0 264.0,59.0 265.0,59.0 266.0,59.0 267.0,58.0 268.0,59.0 269.0,58.0 270.0,58.0 271.0,58.0 272.0,58.0 273.0,58.0 274.0,58.0 275.0,58.0 276.0,58.0 277.0,57.0 278.0,57.0 279.0,56.0 280.0,56.0 281.0,56.0 282.0,55.0 283.0,54.0 284.0,55.0 285.0,55.0 286.0,54.0 287.0,53.0 288.0,53.0 289.0,53.0 290.0,53.0 291.0,53.0 292.0,53.0 293.0,52.0 294.0,53.0 295.0,52.0 296.0,52.0 297.0,51.0 298.0,52.0 299.0,51.0 300.0,52.0 301.0,52.0 302.0,52.0 303.0,51.0 304.0,51.0 305.0,50.0 306.0,50.0 307.0,50.0 308.0,50.0 309.0,50.0 310.0,50.0 311.0,50.0 312.0,50.0 313.0,49.0 314.0,50.0 315.0,49.0 316.0,50.0 317.0,50.0 318.0,49.0 319.0,49.0 320.0,49.0 321.0,48.0 322.0,48.0 323.0,47.0 324.0,48.0 325.0,47.0 326.0,47.0 327.0,47.0 328.0,48.0 329.0,47.0 330.0,47.0 331.0,47.0 332.0,47.0 333.0,46.0 334.0,46.0 335.0,46.0 336.0,46.0 337.0,45.0 338.0,45.0 339.0,45.0 340.0,45.0 341.0,44.0 342.0,44.0 343.0,43.0 344.0,43.0 345.0,43.0 346.0,43.0 347.0,42.0 348.0,42.0 349.0,41.0 350.0,42.0 351.0,41.0 352.0,41.0 353.0,40.0 354.0,40.0 355.0,39.0 356.0,39.0 357.0,38.0 358.0,38.0 359.0,37.0 360.0,38.0 361.0,37.0 362.0,37.0 363.0,37.0 364.0,37.0 365.0,37.0 366.0,37.0 367.0,37.0 368.0,37.0 369.0,37.0 370.0,37.0 371.0,37.0 372.0,37.0 373.0,37.0 374.0,37.0 375.0,36.0 376.0,37.0 377.0,37.0 378.0,37.0 379.0,37.0 380.0,37.0 381.0,37.0 382.0,38.0 383.0,38.0 384.0,38.0 385.0,38.0 386.0,38.0 387.0,38.0 388.0,38.0 389.0,38.0 390.0,38.0 391.0,38.0 392.0,38.0 393.0,37.0 394.0,38.0 395.0,38.0 396.0,37.0 397.0,37.0 398.0,37.0 399.0,38.0 400.0,37.0 401.0,37.0 402.0,36.0 403.0,37.0 404.0,37.0 405.0,37.0 406.0,37.0 407.0,37.0 408.0,36.0 409.0,37.0 410.0,37.0 411.0,37.0 412.0,37.0 413.0,36.0 414.0,36.0 415.0,37.0 416.0,36.0 417.0,36.0 418.0,37.0 419.0,37.0 420.0,37.0 421.0,37.0 422.0,38.0 423.0,38.0 424.0,38.0 425.0,38.0 426.0,38.0 427.0,38.0 428.0,38.0 429.0,38.0 430.0,38.0 431.0,38.0 432.0,38.0 433.0,39.0 434.0,39.0 435.0,39.0 436.0,38.0 437.0,39.0 438.0,39.0 439.0,38.0 440.0,38.0 441.0,38.0 442.0,38.0 443.0,38.0 444.0,38.0 445.0,37.0 446.0,38.0 447.0,38.0 448.0,37.0 449.0,37.0 450.0,37.0 451.0,37.0 452.0,37.0 453.0,37.0 454.0,37.0 455.0,36.0 456.0,37.0 457.0,36.0 458.0,36.0 459.0,36.0 460.0,36.0 461.0,36.0 462.0,36.0 463.0,37.0 464.0,37.0 465.0,36.0 466.0,36.0 467.0,36.0 468.0,36.0 469.0,35.0 470.0,34.0 471.0,34.0 472.0,34.0 473.0,34.0 474.0,34.0 475.0,34.0 476.0,34.0 477.0,33.0 478.0,33.0 479.0,33.0 480.0,33.0 481.0,32.0 482.0,33.0 483.0,33.0 484.0,33.0 485.0,33.0 486.0,33.0 487.0,33.0 488.0,33.0 489.0,33.0 490.0,33.0 491.0,33.0 492.0,33.0 493.0,33.0 494.0,32.0 495.0,32.0 496.0,32.0 497.0,32.0 498.0,32.0 499.0,32.0 500.0,33.0 501.0,32.0 502.0,32.0 503.0,32.0 504.0,32.0 505.0,32.0 506.0,32.0 507.0,31.0 508.0,32.0 509.0,31.0 510.0,31.0 511.0,30.0 512.0,30.0 513.0,29.0 514.0,29.0 515.0,28.0 516.0,28.0 517.0,27.0 518.0,27.0 519.0,25.0 520.0,26.0 521.0,23.0 522.0,23.0 523.0,21.0 524.0,22.0 525.0,19.0 526.0,21.0 527.0,20.0 528.0,22.0 529.0,20.0 530.0,22.0 531.0,20.0 532.0,22.0 533.0,21.0 534.0,25.0 535.0,23.0 536.0,26.0 537.0,23.0 538.0,27.0 539.0,25.0 540.0,28.0 541.0,27.0 542.0,29.0 543.0,28.0 544.0,30.0 545.0,29.0 546.0,31.0 547.0,30.0 548.0,32.0 549.0,30.0 550.0,32.0 551.0,31.0 552.0,32.0 553.0,31.0 554.0,32.0 555.0,32.0 556.0,32.0 557.0,32.0 558.0,32.0 559.0,31.0 560.0,32.0 561.0,32.0 562.0,32.0 563.0,32.0 564.0,32.0 565.0,33.0 566.0,33.0 567.0,32.0 568.0,32.0 569.0,31.0 570.0,31.0 571.0,31.0 572.0,32.0 573.0,31.0 574.0,31.0 575.0,31.0 576.0,31.0 577.0,30.0 578.0,30.0 579.0,30.0 580.0,30.0 581.0,30.0 582.0,30.0 583.0,29.0 584.0,29.0 585.0,28.0 586.0,29.0 587.0,29.0 588.0,29.0 589.0,29.0 590.0,29.0 591.0,29.0 592.0,30.0 593.0,29.0 594.0,29.0 595.0,29.0 596.0,30.0 597.0,29.0 598.0,30.0 599.0,29.0 600.0,29.0 601.0,29.0 602.0,29.0 603.0,29.0 604.0,29.0 605.0,29.0 606.0,29.0 607.0,29.0 608.0,28.0 609.0,29.0 610.0,29.0 611.0,29.0 612.0,29.0 613.0,28.0 614.0,28.0 615.0,28.0 616.0,27.0 617.0,27.0 618.0,27.0 619.0,27.0 620.0,26.0 621.0,26.0 622.0,25.0 623.0,25.0 624.0,24.0 625.0,23.0 626.0,23.0 627.0,23.0 628.0,21.0 629.0,21.0 630.0,20.0 631.0,18.0 632.0,17.0 633.0,16.0 634.0,15.0 635.0,14.0 636.0,12.0 637.0,12.0 638.0,11.0 639.0,11.0 640.0,10.0 641.0,10.0 642.0,9.0 643.0,9.0 644.0,9.0 645.0,10.0 646.0,9.0 647.0,10.0 648.0,9.0 649.0,10.0 650.0,9.0 651.0,9.0 652.0,9.0 653.0,9.0 654.0,9.0" fill="none" stroke="#0000ff" />
	<polyline points="55.0,276.0 56.0,276.0 57.0,277.0 58.0,277.0 59.0,277.0 60.0,277.0 61.0,278.0 62.0,277.0 63.0,277.0 64.0,278.0 65.0,277.0 66.0,278.0 67.0,277.0 68.0,277.0 69.0,277.0 70.0,278.0 71.0,278.0 72.0,279.0 73.0,278.0 74.0,279.0 75.0,279.0 76.0,279.0 77.0,279.0 78.0,279.0 79.0,280.0 80.0,280.0 81.0,281.0 82.0,281.0 83.0,281.0 84.0,280.0 85.0,281.0 86.0,281.0 87.0,282.0 88.0,282.0 89.0,282.0 90.0,282.0 91.0,282.0 92.0,282.0 93.0,282.0 94.0,282.0 95.0,282.0 96.0,282.0 97.0,282.0 98.0,282.0 99.0,281.0 100.0,282.0 101.0,282.0 102.0,282.0 103.0,283.0 104.0,283.0 105.0,283.0 106.0,283.0 107.0,283.0 108.0,283.0 109.0,283.0 110.0,283.0 111.0,284.0 112.0,284.0 113.0,284.0 114.0,283.0 115.0,283.0 116.0,283.0 117.0,283.0 118.0,283.0 119.0,282.0 120.0,283.0 121.0,283.0 122.0,282.0 123.0,281.0 124.0,281.0 125.0,280.0 126.0,279.0 127.0,278.0 128.0,278.0 129.0,277.0 130.0,276.0 131.0,276.0 132.0,276.0 133.0,275.0 134.0,274.0 135.0,273.0 136.0,273.0 137.0,272.0 138.0,272.0 139.0,271.0 140.0,270.0 141.0,270.0 142.0,269.0 143.0,269.0 144.0,268.0 145.0,267.0 146.0,266.0 147.0,266.0 148.0,265.0 149.0,265.0 150.0,264.0 151.0,263.0 152.0,263.0 153.0,262.0 154.0,262.0 155.0,261.0 156.0,260.0 157.0,259.0 158.0,259.0 159.0,259.0 160.0,258.0 161.0,258.0 162.0,257.0 163.0,257.0 164.0,257.0 165.0,256.0 166.0,256.0 167.0,256.0 168.0,255.0 169.0,255.0 170.0,255.0 171.0,254.0 172.0,254.0 173.0,253.0 174.0,253.0 175.0,253.0 176.0,253.0 177.0,252.0 178.0,252.0 179.0,252.0 180.0,251.0 181.0,251.0 182.0,251.0 183.0,251.0 184.0,251.0 185.0,251.0 186.0,250.0 187.0,250.0 188.0,250.0 189.0,249.0 190.0,249.0 191.0,249.0 192.0,249.0 193.0,250.0 194.0,250.0 195.0,250.0 196.0,250.0 197.0,251.0 198.0,251.0 199.0,250.0 200.0,250.0 201.0,250.0 202.0,250.0 203.0,250.0 204.0,251.0 205.0,251.0 206.0,251.0 207.0,251.0 208.0,251.0 209.0,251.0 210.0,252.0 211.0,252.0 212.0,252.0 213.0,252.0 214.0,252.0 215.0,252.0 216.0,252.0 217.0,253.0 218.0,253.0 219.0,253.0 220.0,253.0 221.0,254.0 222.0,253.0 223.0,254.0 224.0,254.0 225.0,254.0 226.0,254.0 227.0,254.0 228.0,255.0 229.0,255.0 230.0,255.0 231.0,255.0 232.0,256.0 233.0,256.0 234.0,256.0 235.0,256.0 236.0,257.0 237.0,257.0 238.0,257.0 239.0,257.0 240.0,257.0 241.0,258.0 242.0,258.0 243.0,259.0 244.0,258.0 245.0,258.0 246.0,259.0 247.0,259.0 248.0,259.0 249.0,260.0 250.0,260.0 251.0,260.0 252.0,260.0 253.0,261.0 254.0,262.0 255.0,262.0 256.0,262.0 257.0,262.0 258.0,262.0 259.0,262.0 260.0,262.0 261.0,262.0 262.0,262.0 263.0,262.0 264.0,263.0 265.0,263.0 266.0,262.0 267.0,262.0 268.0,262.0 269.0,262.0 270.0,262.0 271.0,262.0 272.0,263.0 273.0,263.0 274.0,263.0 275.0,263.0 276.0,264.0 277.0,264.0 278.0,264.0 279.0,264.0 280.0,264.0 281.0,265.0 282.0,265.0 283.0,265.0 284.0,265.0 285.0,265.0 286.0,266.0 287.0,266.0 288.0,267.0 289.0,267.0 290.0,267.0 291.0,267.0 292.0,268.0 293.0,268.0 294.0,268.0 295.0,269.0 296.0,269.0 297.0,269.0 298.0,269.0 299.0,269.0 300.0,270.0 301.0,270.0 302.0,270.0 303.0,271.0 304.0,271.0 305.0,271.0 306.0,272.0 307.0,272.0 308.0,273.0 309.0,273.0 310.0,274.0 311.0,274.0 312.0,274.0 313.0,274.0 314.0,274.0 315.0,274.0 316.0,274.0 317.0,274.0 318.0,275.0 319.0,276.0 320.0,276.0 321.0,277.0 322.0,277.0 323.0,277.0 324.0,277.0 325.0,278.0 326.0,278.0 327.0,278.0 328.0,278.0 329.0,278.0 330.0,278.0 331.0,278.0 332.0,278.0 333.0,278.0 334.0,278.0 335.0,278.0 336.0,277.0 337.0,277.0 338.0,277.0 339.0,276.0 340.0,276.0 341.0,276.0 342.0,276.0 343.0,276.0 344.0,276.0 345.0,275.0 346.0,275.0 347.0,274.0 348.0,274.0 349.0,273.0 350.0,273.0 351.0,273.0 352.0,273.0 353.0,273.0 354.0,274.0 355.0,273.0 356.0,273.0 357.0,273.0 358.0,273.0 359.0,272.0 360.0,272.0 361.0,272.0 362.0,272.0 363.0,272.0 364.0,272.0 365.0,271.0 366.0,272.0 367.0,272.0 368.0,271.0 369.0,271.0 370.0,271.0 371.0,271.0 372.0,271.0 373.0,271.0 374.0,270.0 375.0,270.0 376.0,270.0 377.0,271.0 378.0,270.0 379.0,270.0 380.0,270.0 381.0,269.0 382.0,270.0 383.0,270.0 384.0,270.0 385.0,270.0 386.0,270.0 387.0,270.0 388.0,271.0 389.0,271.0 390.0,271.0 391.0,271.0 392.0,271.0 393.0,271.0 394.0,271.0 395.0,270.0 396.0,270.0 397.0,270.0 398.0,270.0 399.0,270.0 400.0,270.0 401.0,270.0 402.0,270.0 403.0,270.0 404.0,270.0 405.0,270.0 406.0,271.0 407.0,271.0 408.0,271.0 409.0,272.0 410.0,272.0 411.0,272.0 412.0,272.0 413.0,272.0 414.0,272.0 415.0,273.0 416.0,273.0 417.0,274.0 418.0,273.0 419.0,274.0 420.0,274.0 421.0,275.0 422.0,275.0 423.0,275.0 424.0,276.0 425.0,276.0 426.0,277.0 427.0,276.0 428.0,276.0 429.0,276.0 430.0,276.0 431.0,276.0 432.0,276.0 433.0,276.0 434.0,276.0 435.0,277.0 436.0,277.0 437.0,277.0 438.0,277.0 439.0,277.0 440.0,277.0 441.0,278.0 442.0,278.0 443.0,279.0 444.0,279.0 445.0,280.0 446.0,280.0 447.0,280.0 448.0,281.0 449.0,281.0 450.0,281.0 451.0,282.0 452.0,282.0 453.0,282.0 454.0,282.0 455.0,282.0 456.0,282.0 457.0,282.0 458.0,282.0 459.0,282.0 460.0,282.0 461.0,283.0 462.0,283.0 463.0,283.0 464.0,283.0 465.0,284.0 466.0,284.0 467.0,284.0 468.0,284.0 469.0,284.0 470.0,284.0 471.0,284.0 472.0,284.0 473.0,285.0 474.0,285.0 475.0,285.0 476.0,285.0 477.0,286.0 478.0,286.0 479.0,286.0 480.0,286.0 481.0,286.0 482.0,286.0 483.0,286.0 484.0,286.0 485.0,287.0 486.0,287.0 487.0,287.0 488.0,287.0 489.0,288.0 490.0,289.0 491.0,289.0 492.0,289.0 493.0,288.0 494.0,289.0 495.0,289.0 496.0,289.0 497.0,289.0 498.0,290.0 499.0,290.0 500.0,290.0 501.0,290.0 502.0,290.0 503.0,290.0 504.0,290.0 505.0,290.0 506.0,291.0 507.0,291.0 508.0,291.0 509.0,291.0 510.0,292.0 511.0,291.0 512.0,291.0 513.0,291.0 514.0,291.0 515.0,291.0 516.0,291.0 517.0,291.0 518.0,291.0 519.0,291.0 520.0,291.0 521.0,290.0 522.0,291.0 523.0,291.0 524.0,290.0 525.0,291.0 526.0,291.0 527.0,290.0 528.0,290.0 529.0,290.0 530.0,290.0 531.0,291.0 532.0,290.0 533.0,291.0 534.0,291.0 535.0,291.0 536.0,291.0 537.0,291.0 538.0,290.0 539.0,290.0 540.0,289.0 541.0,289.0 542.0,289.0 543.0,290.0 544.0,289.0 545.0,290.0 546.0,290.0 547.0,290.0 548.0,290.0 549.0,290.0 550.0,290.0 551.0,290.0 552.0,291.0 553.0,291.0 554.0,291.0 555.0,291.0 556.0,290.0 557.0,290.0 558.0,290.0 559.0,289.0 560.0,290.0 561.0,290.0 562.0,290.0 563.0,290.0 564.0,291.0 565.0,291.0 566.0,291.0 567.0,291.0 568.0,291.0 569.0,291.0 570.0,292.0 571.0,291.0 572.0,292.0 573.0,292.0 574.0,292.0 575.0,292.0 576.0,292.0 577.0,292.0 578.0,292.0 579.0,292.0 580.0,292.0 581.0,292.0 582.0,292.0 583.0,292.0 584.0,292.0 585.0,292.0 586.0,293.0 587.0,293.0 588.0,293.0 589.0,293.0 590.0,294.0 591.0,294.0 592.0,294.0 593.0,294.0 594.0,294.0 595.0,294.0 596.0,293.0 597.0,293.0 598.0,293.0 599.0,293.0 600.0,293.0 601.0,294.0 602.0,295.0 603.0,295.0 604.0,295.0 605.0,296.0 606.0,296.0 607.0,296.0 608.0,296.0 609.0,296.0 610.0,296.0 611.0,296.0 612.0,296.0 613.0,297.0 614.0,297.0 615.0,297.0 616.0,297.0 617.0,297.0 618.0,297.0 619.0,298.0 620.0,298.0 621.0,299.0 622.0,299.0 623.0,299.0 624.0,299.0 625.0,298.0 626.0,298.0 627.0,298.0 628.0,298.0 629.0,298.0 630.0,298.0 631.0,297.0 632.0,297.0 633.0,297.0 634.0,297.0 635.0,297.0 636.0,297.0 637.0,297.0 638.0,297.0 639.0,297.0 640.0,297.0 641.0,297.0 642.0,297.0 643.0,297.0 644.0,297.0 645.0,297.0 646.0,297.0 647.0,297.0 648.0,297.0 649.0,297.0 650.0,298.0 651.0,298.0 652.0,298.0 653.0,299.0 654.0,299.0" fill="none" stroke="#00bfff" />
	<polyline points="55.0,279.0 56.0,279.0 57.0,279.0 58.0,278.0 59.0,279.0 60.0,279.0 61.0,279.0 62.0,279.0 63.0,280.0 64.0,280.0 65.0,280.0 66.0,280.0 67.0,280.0 68.0,281.0 69.0,281.0 70.0,281.0 71.0,281.0 72.0,282.0 73.0,282.0 74.0,282.0 75.0,282.0 76.0,282.0 77.0,281.0 78.0,282.0 79.0,281.0 80.0,281.0 81.0,281.0 82.0,282.0 83.0,282.0 84.0,282.0 85.0,282.0 86.0,282.0 87.0,283.0 88.0,284.0 89.0,284.0 90.0,284.0 91.0,284.0 92.0,285.0 93.0,286.0 94.0,286.0 95.0,286.0 96.0,285.0 97.0,285.0 98.0,286.0 99.0,286.0 100.0,286.0 101.0,286.0 102.0,286.0 103.0,286.0 104.0,286.0 105.0,287.0 106.0,287.0 107.0,286.0 108.0,286.0 109.0,286.0 110.0,287.0 111.0,287.0 112.0,287.0 113.0,287.0 114.0,287.0 115.0,288.0 116.0,288.0 117.0,288.0 118.0,288.0 119.0,288.0 120.0,288.0 121.0,289.0 122.0,289.0 123.0,289.0 124.0,289.0 125.0,289.0 126.0,289.0 127.0,290.0 128.0,290.0 129.0,289.0 130.0,289.0 131.0,289.0 132.0,289.0 133.0,289.0 134.0,290.0 135.0,290.0 136.0,290.0 137.0,290.0 138.0,290.0 139.0,290.0 140.0,290.0 141.0,290.0 142.0,290.0 143.0,290.0 144.0,290.0 145.0,290.0 146.0,290.0 147.0,290.0 148.0,289.0 149.0,289.0 150.0,289.0 151.0,289.0 152.0,289.0 153.0,289.0 154.0,289.0 155.0,289.0 156.0,289.0 157.0,290.0 158.0,290.0 159.0,290.0 160.0,290.0 161.0,290.0 162.0,290.0 163.0,290.0 164.0,290.0 165.0,290.0 166.0,290.0 167.0,290.0 168.0,290.0 169.0,290.0 170.0,290.0 171.0,291.0 172.0,291.0 173.0,292.0 174.0,291.0 175.0,292.0 176.0,292.0 177.0,293.0 178.0,293.0 179.0,293.0 180.0,293.0 181.0,293.0 182.0,293.0 183.0,293.0 184.0,294.0 185.0,294.0 186.0,294.0 187.0,294.0 188.0,294.0 189.0,293.0 190.0,293.0 191.0,293.0 192.0,294.0 193.0,294.0 194.0,294.0 195.0,294.0 196.0,294.0 197.0,294.0 198.0,295.0 199.0,296.0 200.0,296.0 201.0,296.0 202.0,295.0 203.0,296.0 204.0,295.0 205.0,294.0 206.0,295.0 207.0,295.0 208.0,295.0 209.0,295.0 210.0,295.0 211.0,295.0 212.0,295.0 213.0,295.0 214.0,295.0 215.0,295.0 216.0,295.0 217.0,295.0 218.0,295.0 219.0,295.0 220.0,296.0 221.0,296.0 222.0,296.0 223.0,296.0 224.0,296.0 225.0,296.0 226.0,296.0 227.0,297.0 228.0,297.0 229.0,297.0 230.0,298.0 231.0,298.0 232.0,298.0 233.0,298.0 234.0,298.0 235.0,298.0 236.0,298.0 237.0,298.0 238.0,298.0 239.0,298.0 240.0,299.0 241.0,299.0 242.0,299.0 243.0,298.0 244.0,298.0 245.0,298.0 246.0,298.0 247.0,298.0 248.0,298.0 249.0,298.0 250.0,299.0 251.0,298.0 252.0,299.0 253.0,299.0 254.0,299.0 255.0,299.0 256.0,300.0 257.0,299.0 258.0,299.0 259.0,300.0 260.0,300.0 261.0,300.0 262.0,300.0 263.0,300.0 264.0,300.0 265.0,300.0 266.0,300.0 267.0,300.0 268.0,300.0 269.0,299.0 270.0,300.0 271.0,299.0 272.0,300.0 273.0,300.0 274.0,300.0 275.0,300.0 276.0,300.0 277.0,300.0 278.0,301.0 279.0,300.0 280.0,300.0 281.0,300.0 282.0,300.0 283.0,300.0 284.0,301.0 285.0,301.0 286.0,301.0 287.0,301.0 288.0,301.0 289.0,301.0 290.0,301.0 291.0,301.0 292.0,302.0 293.0,302.0 294.0,302.0 295.0,302.0 296.0,302.0 297.0,302.0 298.0,302.0 299.0,302.0 300.0,302.0 301.0,303.0 302.0,303.0 303.0,303.0 304.0,303.0 305.0,303.0 306.0,303.0 307.0,303.0 308.0,303.0 309.0,303.0 310.0,303.0 311.0,303.0 312.0,303.0 313.0,303.0 314.0,303.0 315.0,303.0 316.0,303.0 317.0,302.0 318.0,302.0 319.0,302.0 320.0,302.0 321.0,302.0 322.0,302.0 323.0,301.0 324.0,301.0 325.0,301.0 326.0,301.0 327.0,301.0 328.0,301.0 329.0,301.0 330.0,300.0 331.0,300.0 332.0,300.0 333.0,299.0 334.0,299.0 335.0,299.0 336.0,299.0 337.0,299.0 338.0,299.0 339.0,299.0 340.0,299.0 341.0,299.0 342.0,299.0 343.0,299.0 344.0,299.0 345.0,299.0 346.0,299.0 347.0,299.0 348.0,299.0 349.0,298.0 350.0,298.0 351.0,297.0 352.0,297.0 353.0,297.0 354.0,297.0 355.0,297.0 356.0,297.0 357.0,296.0 358.0,296.0 359.0,296.0 360.0,297.0 361.0,296.0 362.0,296.0 363.0,296.0 364.0,297.0 365.0,297.0 366.0,297.0 367.0,297.0 368.0,297.0 369.0,297.0 370.0,297.0 371.0,296.0 372.0,296.0 373.0,297.0 374.0,297.0 375.0,297.0 376.0,297.0 377.0,297.0 378.0,297.0 379.0,297.0 380.0,297.0 381.0,297.0 382.0,297.0 383.0,296.0 384.0,296.0 385.0,296.0 386.0,296.0 387.0,296.0 388.0,296.0 389.0,296.0 390.0,296.0 391.0,296.0 392.0,296.0 393.0,297.0 394.0,297.0 395.0,297.0 396.0,297.0 397.0,297.0 398.0,297.0 399.0,297.0 400.0,297.0 401.0,297.0 402.0,296.0 403.0,297.0 404.0,296.0 405.0,297.0 406.0,297.0 407.0,297.0 408.0,296.0 409.0,296.0 410.0,296.0 411.0,296.0 412.0,297.0 413.0,296.0 414.0,296.0 415.0,296.0 416.0,296.0 417.0,296.0 418.0,295.0 419.0,295.0 420.0,295.0 421.0,295.0 422.0,295.0 423.0,295.0 424.0,294.0 425.0,295.0 426.0,294.0 427.0,294.0 428.0,294.0 429.0,294.0 430.0,293.0 431.0,293.0 432.0,293.0 433.0,293.0 434.0,293.0 435.0,292.0 436.0,292.0 437.0,292.0 438.0,292.0 439.0,292.0 440.0,291.0 441.0,292.0 442.0,291.0 443.0,291.0 444.0,292.0 445.0,291.0 446.0,291.0 447.0,290.0 448.0,290.0 449.0,290.0 450.0,289.0 451.0,289.0 452.0,289.0 453.0,289.0 454.0,289.0 455.0,289.0 456.0,289.0 457.0,289.0 458.0,289.0 459.0,288.0 460.0,289.0 461.0,289.0 462.0,289.0 463.0,289.0 464.0,288.0 465.0,288.0 466.0,288.0 467.0,288.0 468.0,288.0 469.0,287.0 470.0,287.0 471.0,286.0 472.0,286.0 473.0,286.0 474.0,286.0 475.0,286.0 476.0,285.0 477.0,285.0 478.0,285.0 479.0,285.0 480.0,285.0 481.0,285.0 482.0,285.0 483.0,285.0 484.0,285.0 485.0,285.0 486.0,284.0 487.0,285.0 488.0,285.0 489.0,285.0 490.0,284.0 491.0,285.0 492.0,284.0 493.0,284.0 494.0,284.0 495.0,284.0 496.0,284.0 497.0,284.0 498.0,284.0 499.0,284.0 500.0,284.0 501.0,284.0 502.0,284.0 503.0,283.0 504.0,284.0 505.0,284.0 506.0,284.0 507.0,284.0 508.0,285.0 509.0,285.0 510.0,285.0 511.0,285.0 512.0,285.0 513.0,285.0 514.0,285.0 515.0,286.0 516.0,286.0 517.0,286.0 518.0,286.0 519.0,287.0 520.0,287.0 521.0,287.0 522.0,287.0 523.0,287.0 524.0,287.0 525.0,287.0 526.0,287.0 527.0,287.0 528.0,288.0 529.0,288.0 530.0,288.0 531.0,289.0 532.0,288.0 533.0,288.0 534.0,288.0 535.0,288.0 536.0,288.0 537.0,288.0 538.0,288.0 539.0,288.0 540.0,288.0 541.0,288.0 542.0,288.0 543.0,288.0 544.0,288.0 545.0,288.0 546.0,288.0 547.0,288.0 548.0,288.0 549.0,288.0 550.0,288.0 551.0,288.0 552.0,288.0 553.0,289.0 554.0,289.0 555.0,289.0 556.0,289.0 557.0,289.0 558.0,289.0 559.0,289.0 560.0,290.0 561.0,290.0 562.0,290.0 563.0,290.0 564.0,290.0 565.0,290.0 566.0,290.0 567.0,291.0 568.0,291.0 569.0,291.0 570.0,291.0 571.0,291.0 572.0,291.0 573.0,291.0 574.0,291.0 575.0,291.0 576.0,291.0 577.0,291.0 578.0,291.0 579.0,290.0 580.0,291.0 581.0,291.0 582.0,291.0 583.0,291.0 584.0,291.0 585.0,291.0 586.0,291.0 587.0,291.0 588.0,291.0 589.0,290.0 590.0,290.0 591.0,289.0 592.0,290.0 593.0,290.0 594.0,289.0 595.0,290.0 596.0,290.0 597.0,291.0 598.0,291.0 599.0,291.0 600.0,290.0 601.0,291.0 602.0,291.0 603.0,291.0 604.0,291.0 605.0,291.0 606.0,291.0 607.0,290.0 608.0,290.0 609.0,291.0 610.0,291.0 611.0,291.0 612.0,291.0 613.0,291.0 614.0,290.0 615.0,290.0 616.0,291.0 617.0,290.0 618.0,290.0 619.0,291.0 620.0,290.0 621.0,291.0 622.0,291.0 623.0,291.0 624.0,291.0 625.0,291.0 626.0,291.0 627.0,292.0 628.0,292.0 629.0,291.0 630.0,291.0 631.0,291.0 632.0,291.0 633.0,291.0 634.0,291.0 635.0,290.0 636.0,290.0 637.0,290.0 638.0,290.0 639.0,290.0 640.0,290.0 641.0,290.0 642.0,290.0 643.0,290.0 644.0,290.0 645.0,290.0 646.0,291.0 647.0,291.0 648.0,291.0 649.0,291.0 650.0,292.0 651.0,292.0 652.0,292.0 653.0,292.0 654.0,292.0" fill="none" stroke="#4876ff" />
	<polyline points="55.0,77.0 56.0,77.0 57.0,77.0 58.0,77.0 59.0,77.0 60.0,76.0 61.0,76.0 62.0,76.0 63.0,76.0 64.0,76.0 65.0,76.0 66.0,76.0 67.0,76.0 68.0,75.0 69.0,75.0 70.0,75.0 71.0,76.0 72.0,75.0 73.0,76.0 74.0,76.0 75.0,76.0 76.0,76.0 77.0,75.0 78.0,75.0 79.0,75.0 80.0,76.0 81.0,76.0 82.0,76.0 83.0,76.0 84.0,76.0 85.0,76.0 86.0,76.0 87.0,75.0 88.0,75.0 89.0,75.0 90.0,75.0 91.0,75.0 92.0,75.0 93.0,74.0 94.0,74.0 95.0,74.0 96.0,74.0 97.0,73.0 98.0,73.0 99.0,73.0 100.0,73.0 101.0,73.0 102.0,73.0 103.0,72.0 104.0,72.0 105.0,72.0 106.0,72.0 107.0,72.0 108.0,72.0 109.0,71.0 110.0,71.0 111.0,71.0 112.0,71.0 113.0,71.0 114.0,71.0 115.0,71.0 116.0,71.0 117.0,70.0 118.0,70.0 119.0,71.0 120.0,71.0 121.0,70.0 122.0,71.0 123.0,70.0 124.0,70.0 125.0,69.0 126.0,69.0 127.0,69.0 128.0,69.0 129.0,68.0 130.0,68.0 131.0,68.0 132.0,68.0 133.0,68.0 134.0,67.0 135.0,68.0 136.0,68.0 137.0,68.0 138.0,68.0 139.0,68.0 140.0,68.0 141.0,68.0 142.0,68.0 143.0,67.0 144.0,68.0 145.0,67.0 146.0,67.0 147.0,67.0 148.0,67.0 149.0,66.0 150.0,67.0 151.0,66.0 152.0,66.0 153.0,66.0 154.0,66.0 155.0,66.0 156.0,65.0 157.0,65.0 158.0,66.0 159.0,65.0 160.0,65.0 161.0,65.0 162.0,65.0 163.0,65.0 164.0,64.0 165.0,64.0 166.0,64.0 167.0,64.0 168.0,64.0 169.0,64.0 170.0,63.0 171.0,64.0 172.0,63.0 173.0,63.0 174.0,63.0 175.0,63.0 176.0,63.0 177.0,63.0 178.0,62.0 179.0,62.0 180.0,62.0 181.0,62.0 182.0,62.0 183.0,61.0 184.0,61.0 185.0,61.0 186.0,61.0 187.0,61.0 188.0,61.0 189.0,60.0 190.0,61.0 191.0,61.0 192.0,60.0 193.0,60.0 194.0,60.0 195.0,60.0 196.0,60.0 197.0,60.0 198.0,60.0 199.0,60.0 200.0,59.0 201.0,59.0 202.0,59.0 203.0,59.0 204.0,59.0 205.0,59.0 206.0,59.0 207.0,59.0 208.0,58.0 209.0,59.0 210.0,59.0 211.0,59.0 212.0,58.0 213.0,58.0 214.0,58.0 215.0,58.0 216.0,58.0 217.0,57.0 218.0,57.0 219.0,57.0 220.0,58.0 221.0,57.0 222.0,57.0 223.0,57.0 224.0,56.0 225.0,56.0 226.0,57.0 227.0,56.0 228.0,56.0 229.0,56.0 230.0,57.0 231.0,56.0 232.0,56.0 233.0,56.0 234.0,55.0 235.0,55.0 236.0,55.0 237.0,55.0 238.0,55.0 239.0,55.0 240.0,54.0 241.0,54.0 242.0,53.0 243.0,53.0 244.0,53.0 245.0,53.0 246.0,53.0 247.0,52.0 248.0,52.0 249.0,52.0 250.0,52.0 251.0,51.0 252.0,52.0 253.0,51.0 254.0,51.0 255.0,51.0 256.0,51.0 257.0,50.0 258.0,50.0 259.0,50.0 260.0,49.0 261.0,49.0 262.0,49.0 263.0,49.0 264.0,48.0 265.0,48.0 266.0,48.0 267.0,48.0 268.0,48.0 269.0,48.0 270.0,48.0 271.0,48.0 272.0,47.0 273.0,47.0 274.0,47.0 275.0,47.0 276.0,47.0 277.0,47.0 278.0,47.0 279.0,47.0 280.0,47.0 281.0,47.0 282.0,47.0 283.0,47.0 284.0,47.0 285.0,46.0 286.0,47.0 287.0,47.0 288.0,47.0 289.0,47.0 290.0,47.0 291.0,46.0 292.0,47.0 293.0,46.0 294.0,46.0 295.0,46.0 296.0,46.0 297.0,46.0 298.0,46.0 299.0,46.0 300.0,47.0 301.0,46.0 302.0,47.0 303.0,47.0 304.0,47.0 305.0,47.0 306.0,47.0 307.0,47.0 308.0,47.0 309.0,47.0 310.0,47.0 311.0,46.0 312.0,47.0 313.0,46.0 314.0,46.0 315.0,45.0 316.0,46.0 317.0,46.0 318.0,46.0 319.0,45.0 320.0,45.0 321.0,44.0 322.0,44.0 323.0,44.0 324.0,44.0 325.0,44.0 326.0,44.0 327.0,43.0 328.0,44.0 329.0,43.0 330.0,43.0 331.0,43.0 332.0,43.0 333.0,43.0 334.0,42.0 335.0,42.0 336.0,42.0 337.0,41.0 338.0,41.0 339.0,40.0 340.0,40.0 341.0,40.0 342.0,40.0 343.0,39.0 344.0,40.0 345.0,39.0 346.0,40.0 347.0,39.0 348.0,40.0 349.0,39.0 350.0,39.0 351.0,38.0 352.0,38.0 353.0,37.0 354.0,37.0 355.0,37.0 356.0,37.0 357.0,36.0 358.0,37.0 359.0,36.0 360.0,36.0 361.0,35.0 362.0,36.0 363.0,35.0 364.0,36.0 365.0,34.0 366.0,35.0 367.0,34.0 368.0,34.0 369.0,34.0 370.0,34.0 371.0,35.0 372.0,35.0 373.0,35.0 374.0,35.0 375.0,35.0 376.0,35.0 377.0,35.0 378.0,35.0 379.0,35.0 380.0,35.0 381.0,34.0 382.0,34.0 383.0,33.0 384.0,33.0 385.0,33.0 386.0,33.0 387.0,32.0 388.0,32.0 389.0,31.0 390.0,31.0 391.0,31.0 392.0,31.0 393.0,31.0 394.0,31.0 395.0,31.0 396.0,32.0 397.0,31.0 398.0,31.0 399.0,31.0 400.0,31.0 401.0,31.0 402.0,31.0 403.0,30.0 404.0,30.0 405.0,30.0 406.0,31.0 407.0,31.0 408.0,31.0 409.0,30.0 410.0,30.0 411.0,30.0 412.0,30.0 413.0,30.0 414.0,30.0 415.0,29.0 416.0,29.0 417.0,29.0 418.0,29.0 419.0,29.0 420.0,30.0 421.0,29.0 422.0,29.0 423.0,29.0 424.0,29.0 425.0,29.0 426.0,29.0 427.0,30.0 428.0,30.0 429.0,30.0 430.0,31.0 431.0,30.0 432.0,31.0 433.0,31.0 434.0,31.0 435.0,31.0 436.0,31.0 437.0,31.0 438.0,31.0 439.0,30.0 440.0,31.0 441.0,30.0 442.0,31.0 443.0,31.0 444.0,31.0 445.0,30.0 446.0,31.0 447.0,31.0 448.0,31.0 449.0,31.0 450.0,31.0 451.0,30.0 452.0,31.0 453.0,31.0 454.0,31.0 455.0,31.0 456.0,31.0 457.0,31.0 458.0,31.0 459.0,31.0 460.0,30.0 461.0,30.0 462.0,30.0 463.0,30.0 464.0,30.0 465.0,30.0 466.0,30.0 467.0,30.0 468.0,30.0 469.0,30.0 470.0,30.0 471.0,30.0 472.0,30.0 473.0,30.0 474.0,30.0 475.0,30.0 476.0,30.0 477.0,30.0 478.0,30.0 479.0,29.0 480.0,30.0 481.0,29.0 482.0,30.0 483.0,30.0 484.0,30.0 485.0,29.0 486.0,29.0 487.0,29.0 488.0,29.0 489.0,29.0 490.0,29.0 491.0,28.0 492.0,29.0 493.0,28.0 494.0,28.0 495.0,27.0 496.0,28.0 497.0,27.0 498.0,27.0 499.0,26.0 500.0,27.0 501.0,27.0 502.0,28.0 503.0,27.0 504.0,28.0 505.0,27.0 506.0,28.0 507.0,27.0 508.0,28.0 509.0,27.0 510.0,28.0 511.0,27.0 512.0,28.0 513.0,26.0 514.0,28.0 515.0,25.0 516.0,28.0 517.0,26.0 518.0,29.0 519.0,27.0 520.0,29.0 521.0,27.0 522.0,30.0 523.0,27.0 524.0,30.0 525.0,27.0 526.0,29.0 527.0,27.0 528.0,28.0 529.0,26.0 530.0,26.0 531.0,25.0 532.0,25.0 533.0,24.0 534.0,23.0 535.0,24.0 536.0,23.0 537.0,23.0 538.0,21.0 539.0,22.0 540.0,20.0 541.0,21.0 542.0,20.0 543.0,21.0 544.0,20.0 545.0,20.0 546.0,19.0 547.0,19.0 548.0,19.0 549.0,20.0 550.0,19.0 551.0,19.0 552.0,19.0 553.0,19.0 554.0,19.0 555.0,19.0 556.0,19.0 557.0,19.0 558.0,18.0 559.0,18.0 560.0,18.0 561.0,19.0 562.0,18.0 563.0,19.0 564.0,19.0 565.0,19.0 566.0,18.0 567.0,19.0 568.0,19.0 569.0,19.0 570.0,19.0 571.0,19.0 572.0,19.0 573.0,19.0 574.0,19.0 575.0,19.0 576.0,19.0 577.0,19.0 578.0,19.0 579.0,19.0 580.0,19.0 581.0,19.0 582.0,19.0 583.0,19.0 584.0,20.0 585.0,20.0 586.0,20.0 587.0,20.0 588.0,20.0 589.0,20.0 590.0,20.0 591.0,20.0 592.0,20.0 593.0,20.0 594.0,20.0 595.0,21.0 596.0,21.0 597.0,20.0 598.0,20.0 599.0,20.0 600.0,20.0 601.0,20.0 602.0,19.0 603.0,20.0 604.0,20.0 605.0,20.0 606.0,20.0 607.0,20.0 608.0,20.0 609.0,21.0 610.0,20.0 611.0,20.0 612.0,20.0 613.0,20.0 614.0,19.0 615.0,19.0 616.0,19.0 617.0,19.0 618.0,18.0 619.0,20.0 620.0,19.0 621.0,22.0 622.0,20.0 623.0,22.0 624.0,20.0 625.0,22.0 626.0,21.0 627.0,24.0 628.0,22.0 629.0,26.0 630.0,24.0 631.0,28.0 632.0,26.0 633.0,30.0 634.0,28.0 635.0,32.0 636.0,29.0 637.0,31.0 638.0,30.0 639.0,30.0 640.0,30.0 641.0,30.0 642.0,29.0 643.0,29.0 644.0,28.0 645.0,29.0 646.0,28.0 647.0,29.0 648.0,28.0 649.0,29.0 650.0,28.0 651.0,28.0 652.0,28.0 653.0,28.0 654.0,28.0" fill="none" stroke="#aeeeee" />
	<polyline points="55.0,242.0 56.0,242.0 57.0,241.0 58.0,241.0 59.0,240.0 60.0,240.0 61.0,239.0 62.0,239.0 63.0,239.0 64.0,239.0 65.0,239.0 66.0,239.0 67.0,239.0 68.0,239.0 69.0,239.0 70.0,239.0 71.0,239.0 72.0,239.0 73.0,240.0 74.0,240.0 75.0,240.0 76.0,240.0 77.0,240.0 78.0,240.0 79.0,240.0 80.0,240.0 81.0,240.0 82.0,241.0 83.0,242.0 84.0,242.0 85.0,242.0 86.0,242.0 87.0,243.0 88.0,243.0 89.0,243.0 90.0,243.0 91.0,244.0 92.0,244.0 93.0,243.0 94.0,244.0 95.0,244.0 96.0,243.0 97.0,243.0 98.0,243.0 99.0,244.0 100.0,244.0 101.0,244.0 102.0,244.0 103.0,244.0 104.0,244.0 105.0,245.0 106.0,244.0 107.0,244.0 108.0,244.0 109.0,244.0 110.0,244.0 111.0,244.0 112.0,244.0 113.0,244.0 114.0,243.0 115.0,243.0 116.0,244.0 117.0,245.0 118.0,245.0 119.0,245.0 120.0,245.0 121.0,246.0 122.0,246.0 123.0,246.0 124.0,247.0 125.0,247.0 126.0,247.0 127.0,247.0 128.0,248.0 129.0,248.0 130.0,249.0 131.0,249.0 132.0,249.0 133.0,249.0 134.0,249.0 135.0,250.0 136.0,250.0 137.0,250.0 138.0,250.0 139.0,251.0 140.0,251.0 141.0,251.0 142.0,252.0 143.0,252.0 144.0,251.0 145.0,252.0 146.0,252.0 147.0,253.0 148.0,253.0 149.0,253.0 150.0,254.0 151.0,254.0 152.0,254.0 153.0,255.0 154.0,255.0 155.0,255.0 156.0,255.0 157.0,255.0 158.0,255.0 159.0,256.0 160.0,256.0 161.0,256.0 162.0,257.0 163.0,257.0 164.0,257.0 165.0,257.0 166.0,257.0 167.0,257.0 168.0,258.0 169.0,258.0 170.0,258.0 171.0,257.0 172.0,258.0 173.0,258.0 174.0,258.0 175.0,259.0 176.0,259.0 177.0,259.0 178.0,259.0 179.0,259.0 180.0,259.0 181.0,259.0 182.0,260.0 183.0,259.0 184.0,259.0 185.0,260.0 186.0,260.0 187.0,260.0 188.0,260.0 189.0,260.0 190.0,260.0 191.0,260.0 192.0,260.0 193.0,259.0 194.0,260.0 195.0,259.0 196.0,259.0 197.0,259.0 198.0,260.0 199.0,260.0 200.0,261.0 201.0,260.0 202.0,261.0 203.0,261.0 204.0,261.0 205.0,261.0 206.0,260.0 207.0,261.0 208.0,260.0 209.0,260.0 210.0,260.0 211.0,260.0 212.0,260.0 213.0,260.0 214.0,260.0 215.0,260.0 216.0,260.0 217.0,259.0 218.0,259.0 219.0,259.0 220.0,259.0 221.0,259.0 222.0,260.0 223.0,260.0 224.0,260.0 225.0,260.0 226.0,259.0 227.0,259.0 228.0,259.0 229.0,259.0 230.0,259.0 231.0,259.0 232.0,259.0 233.0,259.0 234.0,259.0 235.0,259.0 236.0,259.0 237.0,260.0 238.0,260.0 239.0,260.0 240.0,260.0 241.0,260.0 242.0,260.0 243.0,260.0 244.0,260.0 245.0,261.0 246.0,261.0 247.0,261.0 248.0,260.0 249.0,260.0 250.0,261.0 251.0,260.0 252.0,260.0 253.0,260.0 254.0,260.0 255.0,260.0 256.0,260.0 257.0,260.0 258.0,260.0 259.0,260.0 260.0,260.0 261.0,259.0 262.0,259.0 263.0,259.0 264.0,260.0 265.0,260.0 266.0,259.0 267.0,259.0 268.0,259.0 269.0,259.0 270.0,259.0 271.0,259.0 272.0,259.0 273.0,259.0 274.0,259.0 275.0,260.0 276.0,260.0 277.0,260.0 278.0,260.0 279.0,260.0 280.0,260.0 281.0,261.0 282.0,261.0 283.0,261.0 284.0,262.0 285.0,262.0 286.0,262.0 287.0,263.0 288.0,263.0 289.0,263.0 290.0,264.0 291.0,264.0 292.0,264.0 293.0,264.0 294.0,264.0 295.0,264.0 296.0,265.0 297.0,265.0 298.0,265.0 299.0,266.0 300.0,266.0 301.0,266.0 302.0,266.0 303.0,266.0 304.0,266.0 305.0,266.0 306.0,266.0 307.0,267.0 308.0,267.0 309.0,267.0 310.0,268.0 311.0,268.0 312.0,268.0 313.0,268.0 314.0,268.0 315.0,267.0 316.0,268.0 317.0,268.0 318.0,268.0 319.0,268.0 320.0,269.0 321.0,269.0 322.0,269.0 323.0,269.0 324.0,269.0 325.0,270.0 326.0,269.0 327.0,269.0 328.0,270.0 329.0,271.0 330.0,271.0 331.0,271.0 332.0,271.0 333.0,271.0 334.0,272.0 335.0,272.0 336.0,272.0 337.0,272.0 338.0,272.0 339.0,273.0 340.0,273.0 341.0,272.0 342.0,273.0 343.0,272.0 344.0,272.0 345.0,272.0 346.0,272.0 347.0,272.0 348.0,272.0 349.0,272.0 350.0,272.0 351.0,272.0 352.0,273.0 353.0,272.0 354.0,272.0 355.0,272.0 356.0,273.0 357.0,273.0 358.0,273.0 359.0,273.0 360.0,273.0 361.0,273.0 362.0,273.0 363.0,273.0 364.0,273.0 365.0,273.0 366.0,273.0 367.0,273.0 368.0,273.0 369.0,273.0 370.0,273.0 371.0,273.0 372.0,273.0 373.0,273.0 374.0,274.0 375.0,274.0 376.0,274.0 377.0,274.0 378.0,274.0 379.0,274.0 380.0,274.0 381.0,273.0 382.0,274.0 383.0,274.0 384.0,273.0 385.0,273.0 386.0,273.0 387.0,273.0 388.0,272.0 389.0,272.0 390.0,272.0 391.0,272.0 392.0,272.0 393.0,273.0 394.0,273.0 395.0,273.0 396.0,273.0 397.0,273.0 398.0,273.0 399.0,273.0 400.0,273.0 401.0,273.0 402.0,273.0 403.0,273.0 404.0,273.0 405.0,273.0 406.0,273.0 407.0,273.0 408.0,273.0 409.0,273.0 410.0,274.0 411.0,274.0 412.0,274.0 413.0,274.0 414.0,274.0 415.0,275.0 416.0,275.0 417.0,276.0 418.0,276.0 419.0,276.0 420.0,276.0 421.0,276.0 422.0,276.0 423.0,276.0 424.0,276.0 425.0,277.0 426.0,277.0 427.0,277.0 428.0,277.0 429.0,278.0 430.0,278.0 431.0,278.0 432.0,278.0 433.0,278.0 434.0,278.0 435.0,278.0 436.0,277.0 437.0,277.0 438.0,278.0 439.0,278.0 440.0,278.0 441.0,278.0 442.0,278.0 443.0,278.0 444.0,278.0 445.0,278.0 446.0,277.0 447.0,278.0 448.0,278.0 449.0,278.0 450.0,278.0 451.0,279.0 452.0,279.0 453.0,280.0 454.0,280.0 455.0,279.0 456.0,279.0 457.0,279.0 458.0,279.0 459.0,280.0 460.0,280.0 461.0,280.0 462.0,281.0 463.0,281.0 464.0,282.0 465.0,282.0 466.0,283.0 467.0,283.0 468.0,283.0 469.0,283.0 470.0,284.0 471.0,284.0 472.0,284.0 473.0,284.0 474.0,284.0 475.0,284.0 476.0,284.0 477.0,284.0 478.0,285.0 479.0,285.0 480.0,285.0 481.0,285.0 482.0,285.0 483.0,285.0 484.0,285.0 485.0,285.0 486.0,286.0 487.0,286.0 488.0,286.0 489.0,286.0 490.0,286.0 491.0,287.0 492.0,287.0 493.0,287.0 494.0,288.0 495.0,288.0 496.0,288.0 497.0,289.0 498.0,289.0 499.0,288.0 500.0,289.0 501.0,289.0 502.0,289.0 503.0,290.0 504.0,290.0 505.0,290.0 506.0,290.0 507.0,291.0 508.0,291.0 509.0,291.0 510.0,291.0 511.0,291.0 512.0,292.0 513.0,292.0 514.0,292.0 515.0,292.0 516.0,292.0 517.0,292.0 518.0,292.0 519.0,292.0 520.0,291.0 521.0,291.0 522.0,291.0 523.0,291.0 524.0,291.0 525.0,291.0 526.0,291.0 527.0,290.0 528.0,290.0 529.0,290.0 530.0,290.0 531.0,290.0 532.0,291.0 533.0,290.0 534.0,290.0 535.0,290.0 536.0,291.0 537.0,291.0 538.0,291.0 539.0,291.0 540.0,290.0 541.0,290.0 542.0,290.0 543.0,291.0 544.0,291.0 545.0,291.0 546.0,291.0 547.0,291.0 548.0,292.0 549.0,292.0 550.0,292.0 551.0,292.0 552.0,292.0 553.0,292.0 554.0,292.0 555.0,292.0 556.0,293.0 557.0,293.0 558.0,293.0 559.0,293.0 560.0,293.0 561.0,293.0 562.0,293.0 563.0,293.0 564.0,293.0 565.0,293.0 566.0,293.0 567.0,292.0 568.0,292.0 569.0,293.0 570.0,293.0 571.0,293.0 572.0,293.0 573.0,293.0 574.0,293.0 575.0,293.0 576.0,293.0 577.0,293.0 578.0,293.0 579.0,293.0 580.0,293.0 581.0,293.0 582.0,294.0 583.0,294.0 584.0,293.0 585.0,293.0 586.0,293.0 587.0,293.0 588.0,293.0 589.0,292.0 590.0,292.0 591.0,293.0 592.0,293.0 593.0,293.0 594.0,293.0 595.0,293.0 596.0,294.0 597.0,294.0 598.0,294.0 599.0,294.0 600.0,293.0 601.0,293.0 602.0,294.0 603.0,294.0 604.0,294.0 605.0,294.0 606.0,293.0 607.0,293.0 608.0,293.0 609.0,293.0 610.0,294.0 611.0,294.0 612.0,294.0 613.0,294.0 614.0,293.0 615.0,294.0 616.0,294.0 617.0,294.0 618.0,294.0 619.0,294.0 620.0,294.0 621.0,295.0 622.0,295.0 623.0,296.0 624.0,296.0 625.0,296.0 626.0,296.0 627.0,297.0 628.0,297.0 629.0,297.0 630.0,297.0 631.0,298.0 632.0,298.0 633.0,298.0 634.0,298.0 635.0,299.0 636.0,299.0 637.0,299.0 638.0,299.0 639.0,300.0 640.0,300.0 641.0,300.0 642.0,300.0 643.0,300.0 644.0,300.0 645.0,301.0 646.0,301.0 647.0,301.0 648.0,301.0 649.0,301.0 650.0,301.0 651.0,301.0 652.0,301.0 653.0,301.0 654.0,301.0" fill="none" stroke="#00ffff" />
	<polyline points="55.0,5.0 655.0,5.0" fill="none" stroke="#6d6d6d" />
	<polyline points="55.0,305.0 655.0,305.0" fill="none" stroke="#6d6d6d" />
	<polyline points="55.0,305.0 55.0,310.0" fill="none" stroke="#6d6d6d" />
	<polyline points="205.0,305.0 205.0,310.0" fill="none" stroke="#6d6d6d" />
	<polyline points="355.0,305.0 355.0,310.0" fill="none" stroke="#6d6d6d" />
	<polyline points="505.0,305.0 505.0,310.0" fill="none" stroke="#6d6d6d" />
	<polyline points="655.0,305.0 655.0,310.0" fill="none" stroke="#6d6d6d" />
	<polyline points="55.0,5.0 55.0,305.0" fill="none" stroke="#6d6d6d" />
	<polyline points="655.0,5.0 655.0,305.0" fill="none" stroke="#6d6d6d" />
	<polyline points="50.0,5.0 55.0,5.0" fill="none" stroke="#6d6d6d" />
	<polyline points="50.0,80.0 55.0,80.0" fill="none" stroke="#6d6d6d" />
	<polyline points="50.0,155.0 55.0,155.0" fill="none" stroke="#6d6d6d" />
	<polyline points="50.0,230.0 55.0,230.0" fill="none" stroke="#6d6d6d" />
	<polyline points="50.0,305.0 55.0,305.0" fill="none" stroke="#6d6d6d" />
	<text x="55.0" y="323.0" fill="#6d6d6d" font-family="Arial" font-size="9pt" text-anchor="middle">1</text>
	<text x="205.0" y="323.0" fill="#6d6d6d" font-family="Arial" font-size="9pt" text-anchor="middle">150</text>
	<text x="355.0" y="323.0" fill="#6d6d6d" font-family="Arial" font-size="9pt" text-anchor="middle">300</text>
	<text x="505.0" y="323.0" fill="#6d6d6d" font-family="Arial" font-size="9pt" text-anchor="middle">450</text>
	<text x="655.0" y="323.0" fill="#6d6d6d" font-family="Arial" font-size="9pt" text-anchor="middle">600</text>
	<text x="45.0" y="9.0" fill="#6d6d6d" font-family="Arial" font-size="9pt" text-anchor="end">3.08</text>
	<text x="45.0" y="84.0" fill="#6d6d6d" font-family="Arial" font-size="9pt" text-anchor="end">2.55</text>
	<text x="45.0" y="159.0" fill="#6d6d6d" font-family="Arial" font-size="9pt" text-anchor="end">2.01</text>
	<text x="45.0" y="234.0" fill="#6d6d6d" font-family="Arial" font-size="9pt" text-anchor="end">1.48</text>
	<text x="45.0" y="309.0" fill="#6d6d6d" font-family="Arial" font-size="9pt" text-anchor="end">0.95</text>
</svg>
