<?xml version="1.0" encoding="UTF-8" standalone="no"?>
<!DOCTYPE svg PUBLIC "-//W3C//DTD SVG 1.1//EN" "http://www.w3.org/Graphics/SVG/1.1/DTD/svg11.dtd">
<svg xmlns="http://www.w3.org/2000/svg"  version="1.1" width="693.0" height="380.0" viewBox="-6.0 -12.0 687.0 368.0">
	<desc>LSD Plot - Sim_10c_teste1</desc>
	<polyline points="205.0,6.0 205.0,304.0" fill="none" stroke="#f0f0f0" />
	<polyline points="355.0,6.0 355.0,304.0" fill="none" stroke="#f0f0f0" />
	<polyline points="505.0,6.0 505.0,304.0" fill="none" stroke="#f0f0f0" />
	<polyline points="56.0,80.0 654.0,80.0" fill="none" stroke="#f0f0f0" />
	<polyline points="56.0,155.0 654.0,155.0" fill="none" stroke="#f0f0f0" />
	<polyline points="56.0,230.0 654.0,230.0" fill="none" stroke="#f0f0f0" />
	<text x="5.0" y="345.0" font-family="Arial" font-size="9pt">TB_Y_1</text>
	<text x="53.0" y="345.0" fill="#ff0000" font-family="Arial" font-size="9pt">TB_Y_2</text>
	<text x="101.0" y="345.0" fill="#008000" font-family="Arial" font-size="9pt">TB_Y_3</text>
	<text x="149.0" y="345.0" fill="#d0d000" font-family="Arial" font-size="9pt">TB_Y_4</text>
	<text x="197.0" y="345.0" fill="#fb46bc" font-family="Arial" font-size="9pt">TB_Y_5</text>
	<text x="245.0" y="345.0" fill="#0000ff" font-family="Arial" font-size="9pt">TB_Y_6</text>
	<text x="293.0" y="345.0" fill="#00bfff" font-family="Arial" font-size="9pt">TB_Y_7</text>
	<text x="341.0" y="345.0" fill="#4876ff" font-family="Arial" font-size="9pt">TB_Y_8</text>
	<text x="389.0" y="345.0" fill="#aeeeee" font-family="Arial" font-size="9pt">TB_Y_9</text>
	<text x="437.0" y="345.0" fill="#00ffff" font-family="Arial" font-size="9pt">TB_Y_10</text>
	<polyline points="55.0,81.0 56.0,81.0 57.0,79.0 58.0,78.0 59.0,78.0 60.0,78.0 61.0,76.0 62.0,73.0 63.0,72.0 64.0,72.0 65.0,71.0 66.0,68.0 67.0,70.0 68.0,69.0 69.0,66.0 70.0,70.0 71.0,67.0 72.0,70.0 73.0,67.0 74.0,67.0 75.0,65.0 76.0,67.0 77.0,64.0 78.0,67.0 79.0,62.0 80.0,68.0 81.0,67.0 82.0,64.0 83.0,67.0 84.0,67.0 85.0,68.0 86.0,67.0 87.0,67.0 88.0,64.0 89.0,65.0 90.0,68.0 91.0,69.0 92.0,67.0 93.0,65.0 94.0,68.0 95.0,69.0 96.0,70.0 97.0,67.0 98.0,67.0 99.0,68.0 100.0,71.0 101.0,68.0 102.0,73.0 103.0,70.0 104.0,72.0 105.0,71.0 106.0,75.0 107.0,72.0 108.0,72.0 109.0,79.0 110.0,77.0 111.0,75.0 112.0,79.0 113.0,76.0 114.0,81.0 115.0,78.0 116.0,81.0 117.0,84.0 118.0,83.0 119.0,85.0 120.0,85.0 121.0,87.0 122.0,87.0 123.0,91.0 124.0,92.0 125.0,92.0 126.0,94.0 127.0,93.0 128.0,95.0 129.0,95.0 130.0,94.0 131.0,94.0 132.0,94.0 133.0,93.0 134.0,94.0 135.0,94.0 136.0,94.0 137.0,94.0 138.0,94.0 139.0,94.0 140.0,95.0 141.0,94.0 142.0,94.0 143.0,94.0 144.0,94.0 145.0,94.0 146.0,94.0 147.0,94.0 148.0,94.0 149.0,94.0 150.0,94.0 151.0,93.0 152.0,94.0 153.0,93.0 154.0,94.0 155.0,93.0 156.0,93.0 157.0,93.0 158.0,94.0 159.0,93.0 160.0,94.0 161.0,93.0 162.0,93.0 163.0,93.0 164.0,93.0 165.0,92.0 166.0,93.0 167.0,93.0 168.0,93.0 169.0,92.0 170.0,92.0 171.0,91.0 172.0,91.0 173.0,91.0 174.0,91.0 175.0,90.0 176.0,91.0 177.0,91.0 178.0,90.0 179.0,89.0 180.0,87.0 181.0,89.0 182.0,87.0 183.0,89.0 184.0,90.0 185.0,89.0 186.0,89.0 187.0,88.0 188.0,88.0 189.0,88.0 190.0,86.0 191.0,88.0 192.0,87.0 193.0,84.0 194.0,85.0 195.0,87.0 196.0,86.0 197.0,85.0 198.0,87.0 199.0,85.0 200.0,85.0 201.0,85.0 202.0,84.0 203.0,84.0 204.0,84.0 205.0,83.0 206.0,84.0 207.0,84.0 208.0,85.0 209.0,82.0 210.0,81.0 211.0,88.0 212.0,85.0 213.0,84.0 214.0,81.0 215.0,83.0 216.0,83.0 217.0,84.0 218.0,83.0 219.0,84.0 220.0,82.0 221.0,84.0 222.0,80.0 223.0,83.0 224.0,82.0 225.0,83.0 226.0,82.0 227.0,81.0 228.0,81.0 229.0,80.0 230.0,83.0 231.0,80.0 232.0,81.0 233.0,83.0 234.0,82.0 235.0,81.0 236.0,82.0 237.0,80.0 238.0,81.0 239.0,83.0 240.0,82.0 241.0,82.0 242.0,82.0 243.0,82.0 244.0,85.0 245.0,82.0 246.0,84.0 247.0,83.0 248.0,84.0 249.0,82.0 250.0,84.0 251.0,83.0 252.0,85.0 253.0,86.0 254.0,85.0 255.0,83.0 256.0,85.0 257.0,83.0 258.0,86.0 259.0,85.0 260.0,83.0 261.0,83.0 262.0,84.0 263.0,85.0 264.0,86.0 265.0,86.0 266.0,85.0 267.0,85.0 268.0,86.0 269.0,85.0 270.0,87.0 271.0,87.0 272.0,86.0 273.0,88.0 274.0,85.0 275.0,88.0 276.0,89.0 277.0,89.0 278.0,87.0 279.0,89.0 280.0,89.0 281.0,91.0 282.0,92.0 283.0,93.0 284.0,92.0 285.0,94.0 286.0,93.0 287.0,94.0 288.0,92.0 289.0,93.0 290.0,92.0 291.0,94.0 292.0,93.0 293.0,93.0 294.0,92.0 295.0,94.0 296.0,92.0 297.0,94.0 298.0,92.0 299.0,94.0 300.0,92.0 301.0,94.0 302.0,92.0 303.0,93.0 304.0,92.0 305.0,93.0 306.0,92.0 307.0,93.0 308.0,92.0 309.0,93.0 310.0,91.0 311.0,93.0 312.0,91.0 313.0,93.0 314.0,91.0 315.0,93.0 316.0,91.0 317.0,93.0 318.0,91.0 319.0,93.0 320.0,91.0 321.0,93.0 322.0,90.0 323.0,92.0 324.0,90.0 325.0,92.0 326.0,90.0 327.0,91.0 328.0,89.0 329.0,91.0 330.0,89.0 331.0,92.0 332.0,89.0 333.0,91.0 334.0,88.0 335.0,91.0 336.0,88.0 337.0,91.0 338.0,87.0 339.0,89.0 340.0,87.0 341.0,91.0 342.0,88.0 343.0,91.0 344.0,86.0 345.0,90.0 346.0,86.0 347.0,90.0 348.0,86.0 349.0,89.0 350.0,84.0 351.0,90.0 352.0,83.0 353.0,90.0 354.0,82.0 355.0,88.0 356.0,85.0 357.0,89.0 358.0,84.0 359.0,88.0 360.0,84.0 361.0,89.0 362.0,84.0 363.0,89.0 364.0,84.0 365.0,89.0 366.0,84.0 367.0,86.0 368.0,82.0 369.0,90.0 370.0,85.0 371.0,87.0 372.0,84.0 373.0,88.0 374.0,86.0 375.0,87.0 376.0,84.0 377.0,86.0 378.0,87.0 379.0,87.0 380.0,85.0 381.0,85.0 382.0,84.0 383.0,87.0 384.0,83.0 385.0,86.0 386.0,85.0 387.0,85.0 388.0,84.0 389.0,84.0 390.0,83.0 391.0,87.0 392.0,85.0 393.0,87.0 394.0,86.0 395.0,85.0 396.0,84.0 397.0,87.0 398.0,87.0 399.0,88.0 400.0,86.0 401.0,86.0 402.0,88.0 403.0,85.0 404.0,88.0 405.0,86.0 406.0,87.0 407.0,86.0 408.0,89.0 409.0,89.0 410.0,89.0 411.0,89.0 412.0,90.0 413.0,91.0 414.0,91.0 415.0,91.0 416.0,92.0 417.0,91.0 418.0,91.0 419.0,93.0 420.0,91.0 421.0,91.0 422.0,91.0 423.0,92.0 424.0,92.0 425.0,92.0 426.0,91.0 427.0,92.0 428.0,91.0 429.0,92.0 430.0,92.0 431.0,93.0 432.0,92.0 433.0,92.0 434.0,91.0 435.0,92.0 436.0,92.0 437.0,92.0 438.0,92.0 439.0,92.0 440.0,91.0 441.0,92.0 442.0,91.0 443.0,92.0 444.0,91.0 445.0,92.0 446.0,91.0 447.0,92.0 448.0,91.0 449.0,92.0 450.0,91.0 451.0,92.0 452.0,91.0 453.0,91.0 454.0,91.0 455.0,91.0 456.0,91.0 457.0,91.0 458.0,92.0 459.0,91.0 460.0,92.0 461.0,91.0 462.0,92.0 463.0,92.0 464.0,92.0 465.0,91.0 466.0,91.0 467.0,91.0 468.0,91.0 469.0,91.0 470.0,91.0 471.0,92.0 472.0,91.0 473.0,91.0 474.0,91.0 475.0,91.0 476.0,91.0 477.0,91.0 478.0,91.0 479.0,92.0 480.0,91.0 481.0,91.0 482.0,91.0 483.0,91.0 484.0,91.0 485.0,91.0 486.0,91.0 487.0,91.0 488.0,91.0 489.0,91.0 490.0,91.0 491.0,91.0 492.0,91.0 493.0,91.0 494.0,90.0 495.0,90.0 496.0,90.0 497.0,91.0 498.0,90.0 499.0,90.0 500.0,90.0 501.0,90.0 502.0,90.0 503.0,90.0 504.0,90.0 505.0,90.0 506.0,90.0 507.0,90.0 508.0,90.0 509.0,90.0 510.0,89.0 511.0,89.0 512.0,88.0 513.0,89.0 514.0,88.0 515.0,89.0 516.0,87.0 517.0,88.0 518.0,86.0 519.0,87.0 520.0,85.0 521.0,87.0 522.0,84.0 523.0,86.0 524.0,84.0 525.0,86.0 526.0,85.0 527.0,86.0 528.0,87.0 529.0,86.0 530.0,87.0 531.0,87.0 532.0,88.0 533.0,86.0 534.0,89.0 535.0,86.0 536.0,89.0 537.0,87.0 538.0,89.0 539.0,87.0 540.0,89.0 541.0,87.0 542.0,89.0 543.0,89.0 544.0,89.0 545.0,88.0 546.0,89.0 547.0,90.0 548.0,89.0 549.0,89.0 550.0,89.0 551.0,90.0 552.0,89.0 553.0,89.0 554.0,90.0 555.0,89.0 556.0,89.0 557.0,90.0 558.0,90.0 559.0,90.0 560.0,90.0 561.0,89.0 562.0,89.0 563.0,89.0 564.0,89.0 565.0,89.0 566.0,89.0 567.0,89.0 568.0,90.0 569.0,90.0 570.0,90.0 571.0,90.0 572.0,90.0 573.0,90.0 574.0,90.0 575.0,90.0 576.0,90.0 577.0,90.0 578.0,89.0 579.0,90.0 580.0,89.0 581.0,89.0 582.0,89.0 583.0,90.0 584.0,90.0 585.0,90.0 586.0,90.0 587.0,90.0 588.0,89.0 589.0,89.0 590.0,90.0 591.0,89.0 592.0,89.0 593.0,88.0 594.0,91.0 595.0,88.0 596.0,89.0 597.0,88.0 598.0,88.0 599.0,89.0 600.0,89.0 601.0,88.0 602.0,87.0 603.0,87.0 604.0,88.0 605.0,88.0 606.0,87.0 607.0,89.0 608.0,89.0 609.0,89.0 610.0,89.0 611.0,89.0 612.0,90.0 613.0,89.0 614.0,89.0 615.0,88.0 616.0,89.0 617.0,89.0 618.0,89.0 619.0,88.0 620.0,89.0 621.0,88.0 622.0,88.0 623.0,88.0 624.0,88.0 625.0,87.0 626.0,87.0 627.0,87.0 628.0,86.0 629.0,86.0 630.0,85.0 631.0,85.0 632.0,85.0 633.0,85.0 634.0,85.0 635.0,86.0 636.0,88.0 637.0,87.0 638.0,87.0 639.0,87.0 640.0,89.0 641.0,88.0 642.0,88.0 643.0,88.0 644.0,88.0 645.0,88.0 646.0,89.0 647.0,89.0 648.0,88.0 649.0,89.0 650.0,89.0 651.0,88.0 652.0,88.0 653.0,90.0 654.0,89.0" fill="none" stroke="#000000" />
	<polyline points="55.0,91.0 56.0,90.0 57.0,90.0 58.0,89.0 59.0,92.0 60.0,90.0 61.0,89.0 62.0,91.0 63.0,91.0 64.0,90.0 65.0,91.0 66.0,90.0 67.0,90.0 68.0,90.0 69.0,90.0 70.0,91.0 71.0,91.0 72.0,90.0 73.0,90.0 74.0,91.0 75.0,90.0 76.0,90.0 77.0,90.0 78.0,90.0 79.0,90.0 80.0,91.0 81.0,90.0 82.0,90.0 83.0,91.0 84.0,89.0 85.0,89.0 86.0,90.0 87.0,90.0 88.0,91.0 89.0,90.0 90.0,90.0 91.0,90.0 92.0,91.0 93.0,90.0 94.0,90.0 95.0,91.0 96.0,90.0 97.0,89.0 98.0,91.0 99.0,90.0 100.0,89.0 101.0,90.0 102.0,89.0 103.0,89.0 104.0,88.0 105.0,89.0 106.0,89.0 107.0,89.0 108.0,88.0 109.0,89.0 110.0,89.0 111.0,89.0 112.0,90.0 113.0,89.0 114.0,89.0 115.0,89.0 116.0,89.0 117.0,89.0 118.0,90.0 119.0,90.0 120.0,91.0 121.0,90.0 122.0,90.0 123.0,90.0 124.0,90.0 125.0,91.0 126.0,91.0 127.0,91.0 128.0,91.0 129.0,90.0 130.0,91.0 131.0,91.0 132.0,91.0 133.0,90.0 134.0,91.0 135.0,91.0 136.0,91.0 137.0,91.0 138.0,91.0 139.0,91.0 140.0,91.0 141.0,90.0 142.0,91.0 143.0,90.0 144.0,90.0 145.0,90.0 146.0,89.0 147.0,89.0 148.0,89.0 149.0,89.0 150.0,90.0 151.0,89.0 152.0,89.0 153.0,88.0 154.0,89.0 155.0,88.0 156.0,89.0 157.0,87.0 158.0,88.0 159.0,87.0 160.0,89.0 161.0,87.0 162.0,87.0 163.0,87.0 164.0,88.0 165.0,87.0 166.0,88.0 167.0,87.0 168.0,87.0 169.0,86.0 170.0,87.0 171.0,89.0 172.0,88.0 173.0,88.0 174.0,87.0 175.0,87.0 176.0,87.0 177.0,89.0 178.0,90.0 179.0,89.0 180.0,88.0 181.0,88.0 182.0,87.0 183.0,88.0 184.0,88.0 185.0,87.0 186.0,89.0 187.0,89.0 188.0,89.0 189.0,90.0 190.0,89.0 191.0,89.0 192.0,90.0 193.0,89.0 194.0,89.0 195.0,90.0 196.0,88.0 197.0,88.0 198.0,90.0 199.0,89.0 200.0,88.0 201.0,87.0 202.0,87.0 203.0,88.0 204.0,88.0 205.0,88.0 206.0,88.0 207.0,89.0 208.0,88.0 209.0,88.0 210.0,87.0 211.0,87.0 212.0,88.0 213.0,88.0 214.0,88.0 215.0,87.0 216.0,86.0 217.0,87.0 218.0,87.0 219.0,86.0 220.0,86.0 221.0,85.0 222.0,86.0 223.0,83.0 224.0,85.0 225.0,85.0 226.0,86.0 227.0,83.0 228.0,84.0 229.0,87.0 230.0,86.0 231.0,85.0 232.0,86.0 233.0,85.0 234.0,85.0 235.0,87.0 236.0,85.0 237.0,85.0 238.0,85.0 239.0,85.0 240.0,86.0 241.0,88.0 242.0,86.0 243.0,85.0 244.0,87.0 245.0,85.0 246.0,87.0 247.0,86.0 248.0,87.0 249.0,87.0 250.0,88.0 251.0,85.0 252.0,86.0 253.0,88.0 254.0,88.0 255.0,88.0 256.0,88.0 257.0,90.0 258.0,88.0 259.0,88.0 260.0,88.0 261.0,89.0 262.0,88.0 263.0,88.0 264.0,90.0 265.0,89.0 266.0,89.0 267.0,89.0 268.0,89.0 269.0,88.0 270.0,86.0 271.0,86.0 272.0,89.0 273.0,88.0 274.0,88.0 275.0,88.0 276.0,88.0 277.0,87.0 278.0,87.0 279.0,88.0 280.0,87.0 281.0,88.0 282.0,88.0 283.0,86.0 284.0,86.0 285.0,88.0 286.0,87.0 287.0,86.0 288.0,86.0 289.0,86.0 290.0,86.0 291.0,86.0 292.0,87.0 293.0,87.0 294.0,86.0 295.0,88.0 296.0,85.0 297.0,88.0 298.0,85.0 299.0,87.0 300.0,86.0 301.0,87.0 302.0,86.0 303.0,85.0 304.0,85.0 305.0,87.0 306.0,85.0 307.0,86.0 308.0,85.0 309.0,88.0 310.0,85.0 311.0,88.0 312.0,86.0 313.0,86.0 314.0,87.0 315.0,88.0 316.0,86.0 317.0,89.0 318.0,86.0 319.0,86.0 320.0,85.0 321.0,87.0 322.0,86.0 323.0,88.0 324.0,86.0 325.0,87.0 326.0,87.0 327.0,87.0 328.0,85.0 329.0,86.0 330.0,85.0 331.0,89.0 332.0,85.0 333.0,86.0 334.0,86.0 335.0,86.0 336.0,83.0 337.0,87.0 338.0,81.0 339.0,85.0 340.0,83.0 341.0,86.0 342.0,82.0 343.0,84.0 344.0,82.0 345.0,84.0 346.0,79.0 347.0,85.0 348.0,80.0 349.0,85.0 350.0,80.0 351.0,82.0 352.0,82.0 353.0,82.0 354.0,77.0 355.0,84.0 356.0,77.0 357.0,81.0 358.0,76.0 359.0,82.0 360.0,82.0 361.0,82.0 362.0,80.0 363.0,81.0 364.0,81.0 365.0,85.0 366.0,80.0 367.0,81.0 368.0,81.0 369.0,80.0 370.0,83.0 371.0,84.0 372.0,83.0 373.0,83.0 374.0,82.0 375.0,80.0 376.0,83.0 377.0,83.0 378.0,81.0 379.0,85.0 380.0,80.0 381.0,84.0 382.0,83.0 383.0,82.0 384.0,84.0 385.0,82.0 386.0,82.0 387.0,83.0 388.0,84.0 389.0,81.0 390.0,80.0 391.0,84.0 392.0,82.0 393.0,82.0 394.0,81.0 395.0,82.0 396.0,79.0 397.0,81.0 398.0,78.0 399.0,83.0 400.0,82.0 401.0,81.0 402.0,81.0 403.0,80.0 404.0,81.0 405.0,85.0 406.0,85.0 407.0,83.0 408.0,79.0 409.0,80.0 410.0,86.0 411.0,82.0 412.0,85.0 413.0,81.0 414.0,81.0 415.0,83.0 416.0,83.0 417.0,84.0 418.0,81.0 419.0,85.0 420.0,83.0 421.0,85.0 422.0,82.0 423.0,83.0 424.0,81.0 425.0,82.0 426.0,81.0 427.0,82.0 428.0,81.0 429.0,85.0 430.0,82.0 431.0,80.0 432.0,83.0 433.0,82.0 434.0,84.0 435.0,85.0 436.0,84.0 437.0,84.0 438.0,81.0 439.0,85.0 440.0,83.0 441.0,82.0 442.0,80.0 443.0,84.0 444.0,81.0 445.0,79.0 446.0,74.0 447.0,82.0 448.0,77.0 449.0,79.0 450.0,78.0 451.0,79.0 452.0,76.0 453.0,77.0 454.0,78.0 455.0,77.0 456.0,81.0 457.0,77.0 458.0,78.0 459.0,79.0 460.0,76.0 461.0,78.0 462.0,76.0 463.0,78.0 464.0,78.0 465.0,77.0 466.0,80.0 467.0,77.0 468.0,76.0 469.0,80.0 470.0,79.0 471.0,79.0 472.0,75.0 473.0,77.0 474.0,79.0 475.0,79.0 476.0,79.0 477.0,81.0 478.0,77.0 479.0,79.0 480.0,76.0 481.0,81.0 482.0,78.0 483.0,77.0 484.0,80.0 485.0,76.0 486.0,78.0 487.0,80.0 488.0,80.0 489.0,79.0 490.0,77.0 491.0,79.0 492.0,80.0 493.0,81.0 494.0,76.0 495.0,79.0 496.0,80.0 497.0,79.0 498.0,80.0 499.0,81.0 500.0,81.0 501.0,79.0 502.0,80.0 503.0,79.0 504.0,82.0 505.0,80.0 506.0,79.0 507.0,80.0 508.0,76.0 509.0,81.0 510.0,81.0 511.0,81.0 512.0,76.0 513.0,79.0 514.0,76.0 515.0,79.0 516.0,73.0 517.0,81.0 518.0,70.0 519.0,77.0 520.0,70.0 521.0,77.0 522.0,68.0 523.0,79.0 524.0,66.0 525.0,80.0 526.0,75.0 527.0,79.0 528.0,80.0 529.0,80.0 530.0,80.0 531.0,77.0 532.0,81.0 533.0,75.0 534.0,86.0 535.0,76.0 536.0,83.0 537.0,75.0 538.0,83.0 539.0,78.0 540.0,84.0 541.0,80.0 542.0,84.0 543.0,84.0 544.0,84.0 545.0,85.0 546.0,82.0 547.0,83.0 548.0,84.0 549.0,83.0 550.0,83.0 551.0,81.0 552.0,81.0 553.0,84.0 554.0,83.0 555.0,83.0 556.0,85.0 557.0,81.0 558.0,81.0 559.0,83.0 560.0,79.0 561.0,81.0 562.0,82.0 563.0,77.0 564.0,77.0 565.0,83.0 566.0,76.0 567.0,79.0 568.0,78.0 569.0,82.0 570.0,78.0 571.0,80.0 572.0,81.0 573.0,81.0 574.0,78.0 575.0,80.0 576.0,83.0 577.0,80.0 578.0,82.0 579.0,79.0 580.0,82.0 581.0,78.0 582.0,82.0 583.0,80.0 584.0,80.0 585.0,84.0 586.0,80.0 587.0,79.0 588.0,82.0 589.0,81.0 590.0,80.0 591.0,77.0 592.0,82.0 593.0,81.0 594.0,78.0 595.0,82.0 596.0,83.0 597.0,82.0 598.0,82.0 599.0,79.0 600.0,82.0 601.0,81.0 602.0,84.0 603.0,79.0 604.0,85.0 605.0,85.0 606.0,84.0 607.0,84.0 608.0,84.0 609.0,83.0 610.0,84.0 611.0,82.0 612.0,85.0 613.0,82.0 614.0,83.0 615.0,84.0 616.0,83.0 617.0,86.0 618.0,85.0 619.0,88.0 620.0,88.0 621.0,85.0 622.0,86.0 623.0,88.0 624.0,87.0 625.0,88.0 626.0,87.0 627.0,86.0 628.0,87.0 629.0,87.0 630.0,86.0 631.0,86.0 632.0,86.0 633.0,86.0 634.0,88.0 635.0,87.0 636.0,88.0 637.0,88.0 638.0,89.0 639.0,89.0 640.0,89.0 641.0,89.0 642.0,89.0 643.0,89.0 644.0,90.0 645.0,90.0 646.0,90.0 647.0,90.0 648.0,91.0 649.0,91.0 650.0,91.0 651.0,91.0 652.0,91.0 653.0,92.0 654.0,92.0" fill="none" stroke="#ff0000" />
	<polyline points="55.0,91.0 56.0,91.0 57.0,91.0 58.0,91.0 59.0,91.0 60.0,91.0 61.0,91.0 62.0,91.0 63.0,91.0 64.0,91.0 65.0,91.0 66.0,91.0 67.0,91.0 68.0,92.0 69.0,91.0 70.0,90.0 71.0,90.0 72.0,91.0 73.0,91.0 74.0,91.0 75.0,90.0 76.0,91.0 77.0,90.0 78.0,89.0 79.0,90.0 80.0,90.0 81.0,90.0 82.0,90.0 83.0,90.0 84.0,90.0 85.0,90.0 86.0,90.0 87.0,89.0 88.0,90.0 89.0,89.0 90.0,89.0 91.0,90.0 92.0,89.0 93.0,89.0 94.0,90.0 95.0,88.0 96.0,89.0 97.0,88.0 98.0,87.0 99.0,90.0 100.0,88.0 101.0,90.0 102.0,88.0 103.0,88.0 104.0,89.0 105.0,88.0 106.0,88.0 107.0,91.0 108.0,89.0 109.0,88.0 110.0,89.0 111.0,90.0 112.0,89.0 113.0,88.0 114.0,89.0 115.0,89.0 116.0,91.0 117.0,90.0 118.0,89.0 119.0,90.0 120.0,89.0 121.0,89.0 122.0,89.0 123.0,90.0 124.0,89.0 125.0,89.0 126.0,89.0 127.0,89.0 128.0,89.0 129.0,89.0 130.0,89.0 131.0,89.0 132.0,90.0 133.0,89.0 134.0,89.0 135.0,89.0 136.0,89.0 137.0,89.0 138.0,88.0 139.0,89.0 140.0,89.0 141.0,88.0 142.0,89.0 143.0,88.0 144.0,88.0 145.0,88.0 146.0,88.0 147.0,87.0 148.0,87.0 149.0,87.0 150.0,88.0 151.0,86.0 152.0,87.0 153.0,86.0 154.0,85.0 155.0,87.0 156.0,88.0 157.0,87.0 158.0,87.0 159.0,88.0 160.0,88.0 161.0,86.0 162.0,86.0 163.0,89.0 164.0,88.0 165.0,87.0 166.0,87.0 167.0,87.0 168.0,87.0 169.0,89.0 170.0,86.0 171.0,87.0 172.0,88.0 173.0,89.0 174.0,88.0 175.0,88.0 176.0,87.0 177.0,88.0 178.0,89.0 179.0,88.0 180.0,87.0 181.0,88.0 182.0,87.0 183.0,88.0 184.0,88.0 185.0,88.0 186.0,87.0 187.0,85.0 188.0,86.0 189.0,87.0 190.0,87.0 191.0,84.0 192.0,84.0 193.0,90.0 194.0,86.0 195.0,86.0 196.0,88.0 197.0,87.0 198.0,87.0 199.0,87.0 200.0,88.0 201.0,87.0 202.0,88.0 203.0,87.0 204.0,86.0 205.0,88.0 206.0,87.0 207.0,86.0 208.0,87.0 209.0,85.0 210.0,85.0 211.0,85.0 212.0,86.0 213.0,87.0 214.0,87.0 215.0,86.0 216.0,86.0 217.0,86.0 218.0,86.0 219.0,87.0 220.0,86.0 221.0,86.0 222.0,86.0 223.0,87.0 224.0,87.0 225.0,88.0 226.0,86.0 227.0,87.0 228.0,87.0 229.0,87.0 230.0,86.0 231.0,87.0 232.0,86.0 233.0,87.0 234.0,87.0 235.0,87.0 236.0,86.0 237.0,86.0 238.0,87.0 239.0,88.0 240.0,87.0 241.0,86.0 242.0,86.0 243.0,87.0 244.0,86.0 245.0,88.0 246.0,85.0 247.0,85.0 248.0,87.0 249.0,87.0 250.0,87.0 251.0,86.0 252.0,87.0 253.0,85.0 254.0,85.0 255.0,86.0 256.0,86.0 257.0,86.0 258.0,85.0 259.0,86.0 260.0,84.0 261.0,86.0 262.0,84.0 263.0,83.0 264.0,83.0 265.0,85.0 266.0,84.0 267.0,86.0 268.0,85.0 269.0,86.0 270.0,86.0 271.0,87.0 272.0,86.0 273.0,86.0 274.0,84.0 275.0,86.0 276.0,86.0 277.0,86.0 278.0,87.0 279.0,86.0 280.0,87.0 281.0,88.0 282.0,86.0 283.0,86.0 284.0,87.0 285.0,87.0 286.0,87.0 287.0,86.0 288.0,87.0 289.0,87.0 290.0,86.0 291.0,87.0 292.0,87.0 293.0,88.0 294.0,86.0 295.0,86.0 296.0,86.0 297.0,86.0 298.0,87.0 299.0,87.0 300.0,86.0 301.0,87.0 302.0,87.0 303.0,87.0 304.0,86.0 305.0,85.0 306.0,86.0 307.0,86.0 308.0,86.0 309.0,86.0 310.0,88.0 311.0,87.0 312.0,86.0 313.0,87.0 314.0,86.0 315.0,86.0 316.0,87.0 317.0,88.0 318.0,87.0 319.0,86.0 320.0,86.0 321.0,88.0 322.0,86.0 323.0,87.0 324.0,87.0 325.0,87.0 326.0,87.0 327.0,88.0 328.0,88.0 329.0,87.0 330.0,86.0 331.0,88.0 332.0,87.0 333.0,87.0 334.0,86.0 335.0,86.0 336.0,85.0 337.0,87.0 338.0,85.0 339.0,86.0 340.0,85.0 341.0,87.0 342.0,84.0 343.0,87.0 344.0,85.0 345.0,87.0 346.0,85.0 347.0,87.0 348.0,85.0 349.0,86.0 350.0,85.0 351.0,87.0 352.0,84.0 353.0,87.0 354.0,84.0 355.0,88.0 356.0,85.0 357.0,87.0 358.0,84.0 359.0,86.0 360.0,84.0 361.0,86.0 362.0,83.0 363.0,85.0 364.0,85.0 365.0,86.0 366.0,84.0 367.0,84.0 368.0,85.0 369.0,85.0 370.0,84.0 371.0,84.0 372.0,83.0 373.0,84.0 374.0,86.0 375.0,84.0 376.0,86.0 377.0,84.0 378.0,85.0 379.0,84.0 380.0,84.0 381.0,85.0 382.0,82.0 383.0,83.0 384.0,84.0 385.0,85.0 386.0,84.0 387.0,83.0 388.0,85.0 389.0,83.0 390.0,83.0 391.0,83.0 392.0,82.0 393.0,84.0 394.0,83.0 395.0,81.0 396.0,84.0 397.0,81.0 398.0,81.0 399.0,82.0 400.0,82.0 401.0,80.0 402.0,80.0 403.0,82.0 404.0,82.0 405.0,78.0 406.0,81.0 407.0,82.0 408.0,80.0 409.0,79.0 410.0,80.0 411.0,77.0 412.0,78.0 413.0,77.0 414.0,75.0 415.0,75.0 416.0,75.0 417.0,72.0 418.0,76.0 419.0,75.0 420.0,76.0 421.0,74.0 422.0,74.0 423.0,78.0 424.0,75.0 425.0,78.0 426.0,74.0 427.0,72.0 428.0,73.0 429.0,74.0 430.0,77.0 431.0,75.0 432.0,72.0 433.0,73.0 434.0,73.0 435.0,74.0 436.0,73.0 437.0,76.0 438.0,74.0 439.0,76.0 440.0,69.0 441.0,74.0 442.0,80.0 443.0,76.0 444.0,74.0 445.0,81.0 446.0,80.0 447.0,80.0 448.0,77.0 449.0,80.0 450.0,76.0 451.0,78.0 452.0,78.0 453.0,80.0 454.0,78.0 455.0,79.0 456.0,83.0 457.0,82.0 458.0,84.0 459.0,81.0 460.0,81.0 461.0,84.0 462.0,81.0 463.0,83.0 464.0,83.0 465.0,80.0 466.0,81.0 467.0,82.0 468.0,81.0 469.0,80.0 470.0,81.0 471.0,80.0 472.0,81.0 473.0,85.0 474.0,80.0 475.0,83.0 476.0,80.0 477.0,81.0 478.0,80.0 479.0,83.0 480.0,83.0 481.0,81.0 482.0,80.0 483.0,79.0 484.0,79.0 485.0,84.0 486.0,81.0 487.0,79.0 488.0,81.0 489.0,82.0 490.0,81.0 491.0,81.0 492.0,80.0 493.0,81.0 494.0,80.0 495.0,79.0 496.0,79.0 497.0,81.0 498.0,80.0 499.0,79.0 500.0,79.0 501.0,76.0 502.0,80.0 503.0,78.0 504.0,76.0 505.0,79.0 506.0,77.0 507.0,80.0 508.0,78.0 509.0,74.0 510.0,74.0 511.0,77.0 512.0,71.0 513.0,77.0 514.0,71.0 515.0,74.0 516.0,65.0 517.0,74.0 518.0,63.0 519.0,73.0 520.0,59.0 521.0,74.0 522.0,59.0 523.0,74.0 524.0,61.0 525.0,75.0 526.0,65.0 527.0,80.0 528.0,76.0 529.0,77.0 530.0,85.0 531.0,78.0 532.0,86.0 533.0,77.0 534.0,85.0 535.0,79.0 536.0,87.0 537.0,77.0 538.0,85.0 539.0,79.0 540.0,87.0 541.0,77.0 542.0,79.0 543.0,80.0 544.0,74.0 545.0,88.0 546.0,80.0 547.0,79.0 548.0,78.0 549.0,83.0 550.0,79.0 551.0,83.0 552.0,82.0 553.0,79.0 554.0,81.0 555.0,81.0 556.0,82.0 557.0,81.0 558.0,81.0 559.0,83.0 560.0,80.0 561.0,85.0 562.0,81.0 563.0,85.0 564.0,84.0 565.0,82.0 566.0,85.0 567.0,85.0 568.0,83.0 569.0,83.0 570.0,85.0 571.0,84.0 572.0,84.0 573.0,84.0 574.0,81.0 575.0,83.0 576.0,82.0 577.0,83.0 578.0,84.0 579.0,84.0 580.0,83.0 581.0,82.0 582.0,84.0 583.0,83.0 584.0,82.0 585.0,83.0 586.0,82.0 587.0,83.0 588.0,82.0 589.0,83.0 590.0,83.0 591.0,84.0 592.0,83.0 593.0,84.0 594.0,84.0 595.0,81.0 596.0,81.0 597.0,81.0 598.0,82.0 599.0,83.0 600.0,83.0 601.0,82.0 602.0,83.0 603.0,82.0 604.0,81.0 605.0,82.0 606.0,82.0 607.0,82.0 608.0,80.0 609.0,81.0 610.0,77.0 611.0,79.0 612.0,79.0 613.0,75.0 614.0,77.0 615.0,75.0 616.0,76.0 617.0,72.0 618.0,69.0 619.0,68.0 620.0,68.0 621.0,64.0 622.0,64.0 623.0,68.0 624.0,60.0 625.0,58.0 626.0,60.0 627.0,59.0 628.0,57.0 629.0,52.0 630.0,52.0 631.0,53.0 632.0,52.0 633.0,53.0 634.0,64.0 635.0,62.0 636.0,73.0 637.0,72.0 638.0,75.0 639.0,73.0 640.0,73.0 641.0,73.0 642.0,76.0 643.0,79.0 644.0,74.0 645.0,76.0 646.0,72.0 647.0,73.0 648.0,70.0 649.0,73.0 650.0,73.0 651.0,70.0 652.0,72.0 653.0,68.0 654.0,72.0" fill="none" stroke="#008000" />
	<polyline points="55.0,77.0 56.0,83.0 57.0,79.0 58.0,83.0 59.0,79.0 60.0,81.0 61.0,82.0 62.0,80.0 63.0,86.0 64.0,78.0 65.0,84.0 66.0,77.0 67.0,84.0 68.0,79.0 69.0,85.0 70.0,80.0 71.0,82.0 72.0,78.0 73.0,82.0 74.0,80.0 75.0,80.0 76.0,82.0 77.0,81.0 78.0,84.0 79.0,81.0 80.0,79.0 81.0,80.0 82.0,79.0 83.0,84.0 84.0,81.0 85.0,79.0 86.0,82.0 87.0,81.0 88.0,84.0 89.0,80.0 90.0,80.0 91.0,81.0 92.0,82.0 93.0,82.0 94.0,81.0 95.0,79.0 96.0,83.0 97.0,82.0 98.0,84.0 99.0,82.0 100.0,81.0 101.0,83.0 102.0,81.0 103.0,84.0 104.0,78.0 105.0,85.0 106.0,80.0 107.0,86.0 108.0,80.0 109.0,83.0 110.0,78.0 111.0,84.0 112.0,81.0 113.0,86.0 114.0,83.0 115.0,84.0 116.0,81.0 117.0,80.0 118.0,81.0 119.0,81.0 120.0,84.0 121.0,85.0 122.0,81.0 123.0,84.0 124.0,82.0 125.0,80.0 126.0,79.0 127.0,85.0 128.0,80.0 129.0,85.0 130.0,77.0 131.0,87.0 132.0,80.0 133.0,88.0 134.0,81.0 135.0,85.0 136.0,79.0 137.0,88.0 138.0,82.0 139.0,83.0 140.0,79.0 141.0,83.0 142.0,81.0 143.0,89.0 144.0,81.0 145.0,85.0 146.0,79.0 147.0,86.0 148.0,81.0 149.0,88.0 150.0,75.0 151.0,85.0 152.0,78.0 153.0,92.0 154.0,80.0 155.0,86.0 156.0,76.0 157.0,85.0 158.0,77.0 159.0,86.0 160.0,75.0 161.0,86.0 162.0,76.0 163.0,85.0 164.0,78.0 165.0,87.0 166.0,83.0 167.0,81.0 168.0,81.0 169.0,80.0 170.0,89.0 171.0,78.0 172.0,86.0 173.0,79.0 174.0,88.0 175.0,82.0 176.0,87.0 177.0,80.0 178.0,81.0 179.0,81.0 180.0,106.0 181.0,83.0 182.0,89.0 183.0,75.0 184.0,87.0 185.0,81.0 186.0,87.0 187.0,80.0 188.0,84.0 189.0,76.0 190.0,86.0 191.0,78.0 192.0,90.0 193.0,79.0 194.0,91.0 195.0,80.0 196.0,89.0 197.0,76.0 198.0,85.0 199.0,76.0 200.0,83.0 201.0,93.0 202.0,86.0 203.0,85.0 204.0,78.0 205.0,85.0 206.0,79.0 207.0,86.0 208.0,78.0 209.0,90.0 210.0,78.0 211.0,86.0 212.0,80.0 213.0,87.0 214.0,82.0 215.0,83.0 216.0,84.0 217.0,82.0 218.0,85.0 219.0,82.0 220.0,87.0 221.0,82.0 222.0,82.0 223.0,82.0 224.0,81.0 225.0,81.0 226.0,84.0 227.0,86.0 228.0,83.0 229.0,82.0 230.0,82.0 231.0,88.0 232.0,83.0 233.0,86.0 234.0,78.0 235.0,85.0 236.0,77.0 237.0,86.0 238.0,78.0 239.0,87.0 240.0,74.0 241.0,84.0 242.0,82.0 243.0,90.0 244.0,84.0 245.0,82.0 246.0,83.0 247.0,81.0 248.0,82.0 249.0,77.0 250.0,84.0 251.0,90.0 252.0,87.0 253.0,80.0 254.0,80.0 255.0,80.0 256.0,85.0 257.0,79.0 258.0,88.0 259.0,78.0 260.0,88.0 261.0,78.0 262.0,89.0 263.0,81.0 264.0,89.0 265.0,77.0 266.0,88.0 267.0,79.0 268.0,91.0 269.0,78.0 270.0,91.0 271.0,75.0 272.0,90.0 273.0,74.0 274.0,91.0 275.0,76.0 276.0,91.0 277.0,76.0 278.0,93.0 279.0,74.0 280.0,92.0 281.0,77.0 282.0,91.0 283.0,80.0 284.0,89.0 285.0,77.0 286.0,85.0 287.0,77.0 288.0,110.0 289.0,78.0 290.0,107.0 291.0,66.0 292.0,104.0 293.0,66.0 294.0,104.0 295.0,67.0 296.0,103.0 297.0,68.0 298.0,103.0 299.0,64.0 300.0,100.0 301.0,68.0 302.0,99.0 303.0,73.0 304.0,103.0 305.0,67.0 306.0,104.0 307.0,70.0 308.0,105.0 309.0,68.0 310.0,106.0 311.0,66.0 312.0,102.0 313.0,63.0 314.0,102.0 315.0,64.0 316.0,110.0 317.0,63.0 318.0,114.0 319.0,63.0 320.0,111.0 321.0,62.0 322.0,114.0 323.0,65.0 324.0,111.0 325.0,60.0 326.0,118.0 327.0,61.0 328.0,118.0 329.0,60.0 330.0,124.0 331.0,58.0 332.0,128.0 333.0,58.0 334.0,130.0 335.0,59.0 336.0,131.0 337.0,56.0 338.0,137.0 339.0,53.0 340.0,142.0 341.0,55.0 342.0,144.0 343.0,55.0 344.0,132.0 345.0,56.0 346.0,159.0 347.0,55.0 348.0,152.0 349.0,49.0 350.0,158.0 351.0,49.0 352.0,156.0 353.0,46.0 354.0,163.0 355.0,47.0 356.0,161.0 357.0,48.0 358.0,161.0 359.0,48.0 360.0,146.0 361.0,54.0 362.0,140.0 363.0,53.0 364.0,124.0 365.0,52.0 366.0,127.0 367.0,58.0 368.0,116.0 369.0,58.0 370.0,105.0 371.0,61.0 372.0,101.0 373.0,65.0 374.0,98.0 375.0,63.0 376.0,90.0 377.0,66.0 378.0,93.0 379.0,69.0 380.0,96.0 381.0,66.0 382.0,93.0 383.0,66.0 384.0,92.0 385.0,67.0 386.0,95.0 387.0,67.0 388.0,90.0 389.0,70.0 390.0,92.0 391.0,67.0 392.0,91.0 393.0,65.0 394.0,89.0 395.0,67.0 396.0,93.0 397.0,65.0 398.0,94.0 399.0,65.0 400.0,93.0 401.0,67.0 402.0,91.0 403.0,65.0 404.0,86.0 405.0,70.0 406.0,83.0 407.0,71.0 408.0,83.0 409.0,73.0 410.0,79.0 411.0,69.0 412.0,86.0 413.0,74.0 414.0,94.0 415.0,76.0 416.0,84.0 417.0,67.0 418.0,89.0 419.0,70.0 420.0,95.0 421.0,69.0 422.0,90.0 423.0,65.0 424.0,90.0 425.0,68.0 426.0,90.0 427.0,71.0 428.0,96.0 429.0,68.0 430.0,97.0 431.0,64.0 432.0,102.0 433.0,66.0 434.0,107.0 435.0,61.0 436.0,104.0 437.0,56.0 438.0,112.0 439.0,56.0 440.0,119.0 441.0,54.0 442.0,117.0 443.0,53.0 444.0,118.0 445.0,54.0 446.0,120.0 447.0,54.0 448.0,123.0 449.0,57.0 450.0,117.0 451.0,57.0 452.0,119.0 453.0,61.0 454.0,108.0 455.0,62.0 456.0,105.0 457.0,64.0 458.0,93.0 459.0,64.0 460.0,96.0 461.0,66.0 462.0,91.0 463.0,68.0 464.0,90.0 465.0,74.0 466.0,88.0 467.0,73.0 468.0,88.0 469.0,73.0 470.0,84.0 471.0,70.0 472.0,94.0 473.0,70.0 474.0,92.0 475.0,69.0 476.0,90.0 477.0,70.0 478.0,91.0 479.0,71.0 480.0,89.0 481.0,73.0 482.0,93.0 483.0,72.0 484.0,96.0 485.0,70.0 486.0,90.0 487.0,69.0 488.0,92.0 489.0,65.0 490.0,95.0 491.0,67.0 492.0,95.0 493.0,62.0 494.0,103.0 495.0,65.0 496.0,108.0 497.0,59.0 498.0,107.0 499.0,58.0 500.0,110.0 501.0,57.0 502.0,119.0 503.0,55.0 504.0,127.0 505.0,48.0 506.0,136.0 507.0,42.0 508.0,144.0 509.0,38.0 510.0,154.0 511.0,36.0 512.0,179.0 513.0,31.0 514.0,200.0 515.0,25.0 516.0,227.0 517.0,20.0 518.0,251.0 519.0,17.0 520.0,275.0 521.0,12.0 522.0,293.0 523.0,9.0 524.0,303.0 525.0,6.0 526.0,260.0 527.0,14.0 528.0,203.0 529.0,23.0 530.0,165.0 531.0,27.0 532.0,140.0 533.0,34.0 534.0,122.0 535.0,33.0 536.0,117.0 537.0,41.0 538.0,118.0 539.0,45.0 540.0,101.0 541.0,47.0 542.0,103.0 543.0,50.0 544.0,101.0 545.0,52.0 546.0,96.0 547.0,56.0 548.0,88.0 549.0,60.0 550.0,92.0 551.0,65.0 552.0,89.0 553.0,62.0 554.0,87.0 555.0,63.0 556.0,86.0 557.0,65.0 558.0,83.0 559.0,65.0 560.0,88.0 561.0,67.0 562.0,87.0 563.0,68.0 564.0,87.0 565.0,70.0 566.0,86.0 567.0,74.0 568.0,84.0 569.0,71.0 570.0,81.0 571.0,67.0 572.0,75.0 573.0,75.0 574.0,85.0 575.0,77.0 576.0,76.0 577.0,72.0 578.0,76.0 579.0,76.0 580.0,79.0 581.0,82.0 582.0,78.0 583.0,77.0 584.0,80.0 585.0,72.0 586.0,75.0 587.0,77.0 588.0,79.0 589.0,81.0 590.0,75.0 591.0,82.0 592.0,76.0 593.0,87.0 594.0,70.0 595.0,86.0 596.0,71.0 597.0,90.0 598.0,72.0 599.0,92.0 600.0,72.0 601.0,92.0 602.0,67.0 603.0,91.0 604.0,65.0 605.0,93.0 606.0,66.0 607.0,98.0 608.0,66.0 609.0,102.0 610.0,62.0 611.0,110.0 612.0,59.0 613.0,126.0 614.0,57.0 615.0,125.0 616.0,51.0 617.0,121.0 618.0,44.0 619.0,138.0 620.0,42.0 621.0,158.0 622.0,37.0 623.0,157.0 624.0,28.0 625.0,184.0 626.0,24.0 627.0,202.0 628.0,18.0 629.0,226.0 630.0,12.0 631.0,239.0 632.0,11.0 633.0,237.0 634.0,15.0 635.0,203.0 636.0,23.0 637.0,161.0 638.0,35.0 639.0,135.0 640.0,51.0 641.0,120.0 642.0,59.0 643.0,102.0 644.0,60.0 645.0,97.0 646.0,62.0 647.0,101.0 648.0,62.0 649.0,92.0 650.0,60.0 651.0,91.0 652.0,65.0 653.0,93.0 654.0,65.0" fill="none" stroke="#d0d000" />
	<polyline points="55.0,88.0 56.0,88.0 57.0,89.0 58.0,89.0 59.0,88.0 60.0,88.0 61.0,89.0 62.0,89.0 63.0,89.0 64.0,88.0 65.0,88.0 66.0,88.0 67.0,88.0 68.0,88.0 69.0,89.0 70.0,89.0 71.0,87.0 72.0,88.0 73.0,88.0 74.0,87.0 75.0,90.0 76.0,87.0 77.0,87.0 78.0,88.0 79.0,87.0 80.0,87.0 81.0,87.0 82.0,87.0 83.0,88.0 84.0,88.0 85.0,87.0 86.0,87.0 87.0,86.0 88.0,87.0 89.0,87.0 90.0,86.0 91.0,86.0 92.0,85.0 93.0,86.0 94.0,86.0 95.0,86.0 96.0,87.0 97.0,87.0 98.0,86.0 99.0,85.0 100.0,86.0 101.0,85.0 102.0,85.0 103.0,85.0 104.0,85.0 105.0,84.0 106.0,83.0 107.0,83.0 108.0,83.0 109.0,82.0 110.0,82.0 111.0,84.0 112.0,83.0 113.0,81.0 114.0,83.0 115.0,82.0 116.0,82.0 117.0,85.0 118.0,83.0 119.0,86.0 120.0,85.0 121.0,84.0 122.0,86.0 123.0,85.0 124.0,84.0 125.0,86.0 126.0,85.0 127.0,85.0 128.0,87.0 129.0,82.0 130.0,84.0 131.0,87.0 132.0,85.0 133.0,84.0 134.0,85.0 135.0,86.0 136.0,86.0 137.0,83.0 138.0,86.0 139.0,83.0 140.0,85.0 141.0,83.0 142.0,84.0 143.0,86.0 144.0,84.0 145.0,85.0 146.0,86.0 147.0,85.0 148.0,85.0 149.0,83.0 150.0,87.0 151.0,84.0 152.0,84.0 153.0,83.0 154.0,84.0 155.0,86.0 156.0,87.0 157.0,85.0 158.0,86.0 159.0,85.0 160.0,86.0 161.0,83.0 162.0,87.0 163.0,87.0 164.0,87.0 165.0,84.0 166.0,84.0 167.0,89.0 168.0,85.0 169.0,87.0 170.0,87.0 171.0,84.0 172.0,84.0 173.0,88.0 174.0,86.0 175.0,87.0 176.0,85.0 177.0,85.0 178.0,88.0 179.0,85.0 180.0,86.0 181.0,85.0 182.0,86.0 183.0,86.0 184.0,87.0 185.0,85.0 186.0,88.0 187.0,87.0 188.0,86.0 189.0,88.0 190.0,87.0 191.0,86.0 192.0,87.0 193.0,85.0 194.0,83.0 195.0,89.0 196.0,86.0 197.0,88.0 198.0,87.0 199.0,88.0 200.0,87.0 201.0,88.0 202.0,87.0 203.0,87.0 204.0,89.0 205.0,88.0 206.0,89.0 207.0,88.0 208.0,89.0 209.0,89.0 210.0,88.0 211.0,89.0 212.0,89.0 213.0,89.0 214.0,90.0 215.0,89.0 216.0,90.0 217.0,89.0 218.0,90.0 219.0,90.0 220.0,90.0 221.0,90.0 222.0,89.0 223.0,89.0 224.0,90.0 225.0,90.0 226.0,89.0 227.0,89.0 228.0,90.0 229.0,89.0 230.0,89.0 231.0,89.0 232.0,89.0 233.0,89.0 234.0,90.0 235.0,89.0 236.0,89.0 237.0,89.0 238.0,89.0 239.0,88.0 240.0,89.0 241.0,89.0 242.0,89.0 243.0,88.0 244.0,89.0 245.0,89.0 246.0,89.0 247.0,89.0 248.0,89.0 249.0,88.0 250.0,89.0 251.0,87.0 252.0,88.0 253.0,87.0 254.0,88.0 255.0,88.0 256.0,88.0 257.0,89.0 258.0,89.0 259.0,89.0 260.0,88.0 261.0,88.0 262.0,88.0 263.0,88.0 264.0,87.0 265.0,87.0 266.0,86.0 267.0,84.0 268.0,83.0 269.0,88.0 270.0,84.0 271.0,85.0 272.0,84.0 273.0,83.0 274.0,81.0 275.0,81.0 276.0,78.0 277.0,78.0 278.0,76.0 279.0,76.0 280.0,70.0 281.0,66.0 282.0,67.0 283.0,64.0 284.0,65.0 285.0,62.0 286.0,63.0 287.0,59.0 288.0,59.0 289.0,63.0 290.0,61.0 291.0,63.0 292.0,55.0 293.0,68.0 294.0,63.0 295.0,65.0 296.0,61.0 297.0,64.0 298.0,61.0 299.0,65.0 300.0,66.0 301.0,68.0 302.0,69.0 303.0,66.0 304.0,66.0 305.0,68.0 306.0,68.0 307.0,69.0 308.0,66.0 309.0,70.0 310.0,71.0 311.0,68.0 312.0,71.0 313.0,66.0 314.0,69.0 315.0,70.0 316.0,67.0 317.0,74.0 318.0,69.0 319.0,72.0 320.0,70.0 321.0,73.0 322.0,73.0 323.0,72.0 324.0,74.0 325.0,76.0 326.0,73.0 327.0,76.0 328.0,73.0 329.0,78.0 330.0,75.0 331.0,77.0 332.0,73.0 333.0,82.0 334.0,79.0 335.0,84.0 336.0,79.0 337.0,85.0 338.0,81.0 339.0,87.0 340.0,83.0 341.0,87.0 342.0,85.0 343.0,90.0 344.0,86.0 345.0,89.0 346.0,84.0 347.0,89.0 348.0,87.0 349.0,90.0 350.0,85.0 351.0,91.0 352.0,85.0 353.0,91.0 354.0,87.0 355.0,91.0 356.0,86.0 357.0,91.0 358.0,87.0 359.0,91.0 360.0,87.0 361.0,91.0 362.0,88.0 363.0,92.0 364.0,88.0 365.0,91.0 366.0,89.0 367.0,92.0 368.0,89.0 369.0,92.0 370.0,89.0 371.0,92.0 372.0,90.0 373.0,91.0 374.0,90.0 375.0,92.0 376.0,91.0 377.0,92.0 378.0,91.0 379.0,91.0 380.0,90.0 381.0,92.0 382.0,91.0 383.0,91.0 384.0,91.0 385.0,92.0 386.0,91.0 387.0,91.0 388.0,91.0 389.0,91.0 390.0,92.0 391.0,91.0 392.0,91.0 393.0,92.0 394.0,91.0 395.0,92.0 396.0,91.0 397.0,91.0 398.0,91.0 399.0,91.0 400.0,91.0 401.0,91.0 402.0,91.0 403.0,91.0 404.0,91.0 405.0,91.0 406.0,91.0 407.0,91.0 408.0,91.0 409.0,90.0 410.0,90.0 411.0,91.0 412.0,91.0 413.0,91.0 414.0,91.0 415.0,91.0 416.0,91.0 417.0,91.0 418.0,91.0 419.0,91.0 420.0,91.0 421.0,91.0 422.0,91.0 423.0,91.0 424.0,91.0 425.0,92.0 426.0,91.0 427.0,91.0 428.0,90.0 429.0,90.0 430.0,91.0 431.0,91.0 432.0,91.0 433.0,91.0 434.0,90.0 435.0,90.0 436.0,91.0 437.0,91.0 438.0,91.0 439.0,91.0 440.0,90.0 441.0,91.0 442.0,90.0 443.0,91.0 444.0,90.0 445.0,91.0 446.0,90.0 447.0,91.0 448.0,90.0 449.0,91.0 450.0,89.0 451.0,91.0 452.0,90.0 453.0,90.0 454.0,90.0 455.0,90.0 456.0,89.0 457.0,90.0 458.0,91.0 459.0,90.0 460.0,91.0 461.0,89.0 462.0,90.0 463.0,90.0 464.0,90.0 465.0,90.0 466.0,90.0 467.0,90.0 468.0,91.0 469.0,90.0 470.0,89.0 471.0,89.0 472.0,90.0 473.0,90.0 474.0,89.0 475.0,90.0 476.0,90.0 477.0,90.0 478.0,90.0 479.0,89.0 480.0,89.0 481.0,90.0 482.0,88.0 483.0,90.0 484.0,88.0 485.0,90.0 486.0,90.0 487.0,90.0 488.0,90.0 489.0,89.0 490.0,89.0 491.0,90.0 492.0,89.0 493.0,88.0 494.0,89.0 495.0,89.0 496.0,87.0 497.0,88.0 498.0,89.0 499.0,89.0 500.0,88.0 501.0,88.0 502.0,87.0 503.0,86.0 504.0,87.0 505.0,87.0 506.0,86.0 507.0,86.0 508.0,87.0 509.0,85.0 510.0,86.0 511.0,85.0 512.0,84.0 513.0,85.0 514.0,84.0 515.0,83.0 516.0,84.0 517.0,83.0 518.0,82.0 519.0,81.0 520.0,80.0 521.0,82.0 522.0,78.0 523.0,81.0 524.0,76.0 525.0,81.0 526.0,81.0 527.0,81.0 528.0,86.0 529.0,81.0 530.0,87.0 531.0,84.0 532.0,87.0 533.0,82.0 534.0,90.0 535.0,85.0 536.0,89.0 537.0,82.0 538.0,88.0 539.0,84.0 540.0,87.0 541.0,87.0 542.0,87.0 543.0,86.0 544.0,87.0 545.0,85.0 546.0,86.0 547.0,87.0 548.0,88.0 549.0,89.0 550.0,87.0 551.0,87.0 552.0,88.0 553.0,88.0 554.0,87.0 555.0,88.0 556.0,89.0 557.0,88.0 558.0,88.0 559.0,89.0 560.0,88.0 561.0,88.0 562.0,88.0 563.0,88.0 564.0,89.0 565.0,89.0 566.0,89.0 567.0,89.0 568.0,88.0 569.0,89.0 570.0,89.0 571.0,89.0 572.0,89.0 573.0,89.0 574.0,88.0 575.0,88.0 576.0,88.0 577.0,87.0 578.0,88.0 579.0,89.0 580.0,88.0 581.0,88.0 582.0,88.0 583.0,87.0 584.0,89.0 585.0,88.0 586.0,89.0 587.0,89.0 588.0,88.0 589.0,89.0 590.0,89.0 591.0,89.0 592.0,90.0 593.0,89.0 594.0,88.0 595.0,89.0 596.0,89.0 597.0,88.0 598.0,89.0 599.0,89.0 600.0,89.0 601.0,89.0 602.0,89.0 603.0,88.0 604.0,89.0 605.0,89.0 606.0,89.0 607.0,88.0 608.0,89.0 609.0,90.0 610.0,89.0 611.0,89.0 612.0,90.0 613.0,89.0 614.0,89.0 615.0,89.0 616.0,89.0 617.0,90.0 618.0,89.0 619.0,90.0 620.0,90.0 621.0,89.0 622.0,89.0 623.0,89.0 624.0,89.0 625.0,88.0 626.0,87.0 627.0,88.0 628.0,87.0 629.0,86.0 630.0,87.0 631.0,86.0 632.0,86.0 633.0,86.0 634.0,86.0 635.0,87.0 636.0,89.0 637.0,88.0 638.0,88.0 639.0,89.0 640.0,89.0 641.0,89.0 642.0,89.0 643.0,89.0 644.0,89.0 645.0,89.0 646.0,89.0 647.0,90.0 648.0,90.0 649.0,90.0 650.0,89.0 651.0,89.0 652.0,90.0 653.0,89.0 654.0,90.0" fill="none" stroke="#fb46bc" />
	<polyline points="55.0,83.0 56.0,80.0 57.0,83.0 58.0,79.0 59.0,82.0 60.0,81.0 61.0,79.0 62.0,82.0 63.0,78.0 64.0,83.0 65.0,79.0 66.0,83.0 67.0,79.0 68.0,82.0 69.0,77.0 70.0,79.0 71.0,81.0 72.0,83.0 73.0,79.0 74.0,80.0 75.0,79.0 76.0,83.0 77.0,83.0 78.0,78.0 79.0,84.0 80.0,81.0 81.0,81.0 82.0,83.0 83.0,80.0 84.0,82.0 85.0,83.0 86.0,81.0 87.0,82.0 88.0,81.0 89.0,86.0 90.0,79.0 91.0,84.0 92.0,80.0 93.0,85.0 94.0,81.0 95.0,83.0 96.0,80.0 97.0,83.0 98.0,82.0 99.0,79.0 100.0,83.0 101.0,82.0 102.0,82.0 103.0,80.0 104.0,85.0 105.0,82.0 106.0,81.0 107.0,81.0 108.0,82.0 109.0,83.0 110.0,81.0 111.0,84.0 112.0,80.0 113.0,84.0 114.0,79.0 115.0,84.0 116.0,83.0 117.0,80.0 118.0,83.0 119.0,79.0 120.0,85.0 121.0,79.0 122.0,85.0 123.0,82.0 124.0,83.0 125.0,81.0 126.0,84.0 127.0,83.0 128.0,84.0 129.0,83.0 130.0,82.0 131.0,83.0 132.0,79.0 133.0,80.0 134.0,83.0 135.0,80.0 136.0,84.0 137.0,82.0 138.0,81.0 139.0,81.0 140.0,81.0 141.0,82.0 142.0,82.0 143.0,83.0 144.0,80.0 145.0,82.0 146.0,85.0 147.0,79.0 148.0,84.0 149.0,82.0 150.0,82.0 151.0,78.0 152.0,86.0 153.0,78.0 154.0,87.0 155.0,77.0 156.0,83.0 157.0,83.0 158.0,83.0 159.0,78.0 160.0,82.0 161.0,83.0 162.0,83.0 163.0,79.0 164.0,83.0 165.0,81.0 166.0,84.0 167.0,78.0 168.0,84.0 169.0,77.0 170.0,81.0 171.0,84.0 172.0,78.0 173.0,85.0 174.0,77.0 175.0,81.0 176.0,79.0 177.0,85.0 178.0,79.0 179.0,81.0 180.0,71.0 181.0,84.0 182.0,79.0 183.0,84.0 184.0,80.0 185.0,82.0 186.0,77.0 187.0,82.0 188.0,79.0 189.0,87.0 190.0,75.0 191.0,85.0 192.0,75.0 193.0,82.0 194.0,77.0 195.0,81.0 196.0,75.0 197.0,83.0 198.0,80.0 199.0,83.0 200.0,78.0 201.0,78.0 202.0,77.0 203.0,80.0 204.0,80.0 205.0,78.0 206.0,82.0 207.0,80.0 208.0,83.0 209.0,77.0 210.0,84.0 211.0,77.0 212.0,81.0 213.0,77.0 214.0,82.0 215.0,79.0 216.0,83.0 217.0,80.0 218.0,78.0 219.0,79.0 220.0,80.0 221.0,80.0 222.0,80.0 223.0,80.0 224.0,83.0 225.0,79.0 226.0,81.0 227.0,79.0 228.0,80.0 229.0,79.0 230.0,80.0 231.0,82.0 232.0,77.0 233.0,84.0 234.0,78.0 235.0,84.0 236.0,81.0 237.0,80.0 238.0,80.0 239.0,80.0 240.0,81.0 241.0,81.0 242.0,79.0 243.0,81.0 244.0,77.0 245.0,84.0 246.0,76.0 247.0,84.0 248.0,75.0 249.0,85.0 250.0,80.0 251.0,80.0 252.0,77.0 253.0,82.0 254.0,80.0 255.0,79.0 256.0,81.0 257.0,83.0 258.0,78.0 259.0,78.0 260.0,78.0 261.0,81.0 262.0,77.0 263.0,83.0 264.0,75.0 265.0,83.0 266.0,75.0 267.0,84.0 268.0,76.0 269.0,84.0 270.0,74.0 271.0,86.0 272.0,75.0 273.0,88.0 274.0,76.0 275.0,87.0 276.0,74.0 277.0,86.0 278.0,76.0 279.0,84.0 280.0,77.0 281.0,86.0 282.0,75.0 283.0,83.0 284.0,73.0 285.0,86.0 286.0,75.0 287.0,90.0 288.0,69.0 289.0,85.0 290.0,69.0 291.0,90.0 292.0,71.0 293.0,90.0 294.0,70.0 295.0,93.0 296.0,70.0 297.0,91.0 298.0,75.0 299.0,89.0 300.0,75.0 301.0,85.0 302.0,76.0 303.0,87.0 304.0,71.0 305.0,92.0 306.0,73.0 307.0,88.0 308.0,75.0 309.0,88.0 310.0,73.0 311.0,88.0 312.0,82.0 313.0,92.0 314.0,78.0 315.0,90.0 316.0,74.0 317.0,88.0 318.0,68.0 319.0,89.0 320.0,72.0 321.0,93.0 322.0,68.0 323.0,97.0 324.0,67.0 325.0,95.0 326.0,68.0 327.0,96.0 328.0,70.0 329.0,94.0 330.0,66.0 331.0,97.0 332.0,67.0 333.0,95.0 334.0,62.0 335.0,95.0 336.0,65.0 337.0,97.0 338.0,62.0 339.0,100.0 340.0,59.0 341.0,98.0 342.0,60.0 343.0,99.0 344.0,66.0 345.0,93.0 346.0,61.0 347.0,97.0 348.0,61.0 349.0,100.0 350.0,60.0 351.0,96.0 352.0,63.0 353.0,94.0 354.0,61.0 355.0,95.0 356.0,59.0 357.0,97.0 358.0,62.0 359.0,96.0 360.0,64.0 361.0,92.0 362.0,68.0 363.0,97.0 364.0,72.0 365.0,91.0 366.0,72.0 367.0,96.0 368.0,75.0 369.0,93.0 370.0,75.0 371.0,89.0 372.0,79.0 373.0,91.0 374.0,78.0 375.0,92.0 376.0,82.0 377.0,89.0 378.0,84.0 379.0,85.0 380.0,82.0 381.0,89.0 382.0,82.0 383.0,87.0 384.0,85.0 385.0,86.0 386.0,84.0 387.0,86.0 388.0,84.0 389.0,86.0 390.0,84.0 391.0,80.0 392.0,85.0 393.0,87.0 394.0,84.0 395.0,88.0 396.0,82.0 397.0,87.0 398.0,84.0 399.0,83.0 400.0,86.0 401.0,86.0 402.0,82.0 403.0,89.0 404.0,85.0 405.0,82.0 406.0,87.0 407.0,81.0 408.0,89.0 409.0,84.0 410.0,85.0 411.0,89.0 412.0,81.0 413.0,88.0 414.0,84.0 415.0,88.0 416.0,86.0 417.0,88.0 418.0,84.0 419.0,85.0 420.0,85.0 421.0,86.0 422.0,85.0 423.0,88.0 424.0,83.0 425.0,86.0 426.0,86.0 427.0,84.0 428.0,81.0 429.0,84.0 430.0,84.0 431.0,84.0 432.0,82.0 433.0,82.0 434.0,76.0 435.0,87.0 436.0,81.0 437.0,91.0 438.0,74.0 439.0,87.0 440.0,71.0 441.0,90.0 442.0,71.0 443.0,88.0 444.0,75.0 445.0,88.0 446.0,75.0 447.0,85.0 448.0,72.0 449.0,87.0 450.0,74.0 451.0,89.0 452.0,71.0 453.0,91.0 454.0,75.0 455.0,91.0 456.0,74.0 457.0,90.0 458.0,81.0 459.0,90.0 460.0,88.0 461.0,82.0 462.0,88.0 463.0,83.0 464.0,84.0 465.0,81.0 466.0,85.0 467.0,81.0 468.0,83.0 469.0,80.0 470.0,86.0 471.0,83.0 472.0,82.0 473.0,85.0 474.0,83.0 475.0,85.0 476.0,81.0 477.0,89.0 478.0,79.0 479.0,82.0 480.0,83.0 481.0,81.0 482.0,85.0 483.0,83.0 484.0,83.0 485.0,78.0 486.0,83.0 487.0,81.0 488.0,84.0 489.0,84.0 490.0,85.0 491.0,85.0 492.0,81.0 493.0,84.0 494.0,81.0 495.0,84.0 496.0,79.0 497.0,85.0 498.0,77.0 499.0,83.0 500.0,77.0 501.0,85.0 502.0,72.0 503.0,84.0 504.0,71.0 505.0,85.0 506.0,71.0 507.0,84.0 508.0,66.0 509.0,81.0 510.0,62.0 511.0,85.0 512.0,57.0 513.0,83.0 514.0,46.0 515.0,86.0 516.0,37.0 517.0,81.0 518.0,29.0 519.0,94.0 520.0,22.0 521.0,93.0 522.0,16.0 523.0,107.0 524.0,12.0 525.0,130.0 526.0,19.0 527.0,157.0 528.0,22.0 529.0,166.0 530.0,25.0 531.0,172.0 532.0,27.0 533.0,174.0 534.0,26.0 535.0,179.0 536.0,32.0 537.0,186.0 538.0,32.0 539.0,169.0 540.0,36.0 541.0,161.0 542.0,41.0 543.0,148.0 544.0,48.0 545.0,133.0 546.0,54.0 547.0,126.0 548.0,56.0 549.0,118.0 550.0,59.0 551.0,114.0 552.0,66.0 553.0,112.0 554.0,67.0 555.0,104.0 556.0,65.0 557.0,106.0 558.0,69.0 559.0,102.0 560.0,67.0 561.0,96.0 562.0,73.0 563.0,100.0 564.0,70.0 565.0,95.0 566.0,70.0 567.0,91.0 568.0,74.0 569.0,95.0 570.0,77.0 571.0,96.0 572.0,76.0 573.0,89.0 574.0,74.0 575.0,84.0 576.0,78.0 577.0,89.0 578.0,80.0 579.0,87.0 580.0,81.0 581.0,88.0 582.0,78.0 583.0,88.0 584.0,78.0 585.0,84.0 586.0,80.0 587.0,86.0 588.0,81.0 589.0,82.0 590.0,79.0 591.0,83.0 592.0,80.0 593.0,84.0 594.0,84.0 595.0,86.0 596.0,83.0 597.0,85.0 598.0,80.0 599.0,83.0 600.0,77.0 601.0,86.0 602.0,81.0 603.0,80.0 604.0,81.0 605.0,79.0 606.0,82.0 607.0,78.0 608.0,82.0 609.0,81.0 610.0,83.0 611.0,76.0 612.0,80.0 613.0,72.0 614.0,78.0 615.0,73.0 616.0,83.0 617.0,77.0 618.0,77.0 619.0,70.0 620.0,75.0 621.0,67.0 622.0,75.0 623.0,66.0 624.0,68.0 625.0,59.0 626.0,63.0 627.0,51.0 628.0,57.0 629.0,45.0 630.0,52.0 631.0,41.0 632.0,52.0 633.0,44.0 634.0,61.0 635.0,51.0 636.0,81.0 637.0,59.0 638.0,96.0 639.0,65.0 640.0,93.0 641.0,65.0 642.0,97.0 643.0,72.0 644.0,102.0 645.0,71.0 646.0,93.0 647.0,68.0 648.0,103.0 649.0,71.0 650.0,101.0 651.0,74.0 652.0,96.0 653.0,75.0 654.0,92.0" fill="none" stroke="#0000ff" />
	<polyline points="55.0,90.0 56.0,90.0 57.0,91.0 58.0,90.0 59.0,91.0 60.0,90.0 61.0,91.0 62.0,90.0 63.0,91.0 64.0,90.0 65.0,91.0 66.0,91.0 67.0,91.0 68.0,91.0 69.0,91.0 70.0,91.0 71.0,90.0 72.0,91.0 73.0,91.0 74.0,90.0 75.0,91.0 76.0,91.0 77.0,90.0 78.0,91.0 79.0,91.0 80.0,91.0 81.0,91.0 82.0,91.0 83.0,90.0 84.0,91.0 85.0,91.0 86.0,91.0 87.0,90.0 88.0,91.0 89.0,89.0 90.0,91.0 91.0,90.0 92.0,91.0 93.0,90.0 94.0,90.0 95.0,91.0 96.0,90.0 97.0,90.0 98.0,91.0 99.0,91.0 100.0,90.0 101.0,91.0 102.0,90.0 103.0,91.0 104.0,90.0 105.0,90.0 106.0,90.0 107.0,91.0 108.0,90.0 109.0,90.0 110.0,90.0 111.0,88.0 112.0,88.0 113.0,87.0 114.0,85.0 115.0,82.0 116.0,80.0 117.0,81.0 118.0,76.0 119.0,77.0 120.0,73.0 121.0,72.0 122.0,70.0 123.0,65.0 124.0,64.0 125.0,67.0 126.0,64.0 127.0,61.0 128.0,61.0 129.0,59.0 130.0,68.0 131.0,59.0 132.0,65.0 133.0,65.0 134.0,62.0 135.0,65.0 136.0,63.0 137.0,60.0 138.0,66.0 139.0,67.0 140.0,65.0 141.0,60.0 142.0,70.0 143.0,58.0 144.0,66.0 145.0,65.0 146.0,68.0 147.0,64.0 148.0,69.0 149.0,64.0 150.0,72.0 151.0,69.0 152.0,68.0 153.0,68.0 154.0,69.0 155.0,71.0 156.0,71.0 157.0,69.0 158.0,73.0 159.0,72.0 160.0,68.0 161.0,74.0 162.0,74.0 163.0,71.0 164.0,72.0 165.0,73.0 166.0,71.0 167.0,76.0 168.0,73.0 169.0,79.0 170.0,71.0 171.0,79.0 172.0,75.0 173.0,72.0 174.0,73.0 175.0,80.0 176.0,76.0 177.0,75.0 178.0,78.0 179.0,81.0 180.0,76.0 181.0,79.0 182.0,80.0 183.0,81.0 184.0,76.0 185.0,80.0 186.0,81.0 187.0,82.0 188.0,81.0 189.0,81.0 190.0,85.0 191.0,83.0 192.0,81.0 193.0,85.0 194.0,84.0 195.0,83.0 196.0,84.0 197.0,85.0 198.0,82.0 199.0,87.0 200.0,87.0 201.0,83.0 202.0,87.0 203.0,88.0 204.0,88.0 205.0,89.0 206.0,89.0 207.0,88.0 208.0,88.0 209.0,90.0 210.0,89.0 211.0,89.0 212.0,91.0 213.0,89.0 214.0,90.0 215.0,91.0 216.0,90.0 217.0,91.0 218.0,89.0 219.0,91.0 220.0,91.0 221.0,90.0 222.0,91.0 223.0,91.0 224.0,91.0 225.0,90.0 226.0,90.0 227.0,91.0 228.0,92.0 229.0,90.0 230.0,90.0 231.0,92.0 232.0,90.0 233.0,91.0 234.0,90.0 235.0,90.0 236.0,90.0 237.0,90.0 238.0,92.0 239.0,90.0 240.0,92.0 241.0,90.0 242.0,91.0 243.0,90.0 244.0,91.0 245.0,90.0 246.0,92.0 247.0,90.0 248.0,91.0 249.0,91.0 250.0,91.0 251.0,89.0 252.0,90.0 253.0,89.0 254.0,90.0 255.0,90.0 256.0,91.0 257.0,90.0 258.0,89.0 259.0,89.0 260.0,90.0 261.0,90.0 262.0,90.0 263.0,89.0 264.0,89.0 265.0,88.0 266.0,89.0 267.0,88.0 268.0,89.0 269.0,90.0 270.0,89.0 271.0,89.0 272.0,89.0 273.0,87.0 274.0,87.0 275.0,92.0 276.0,89.0 277.0,90.0 278.0,89.0 279.0,91.0 280.0,90.0 281.0,92.0 282.0,92.0 283.0,92.0 284.0,92.0 285.0,92.0 286.0,92.0 287.0,93.0 288.0,91.0 289.0,92.0 290.0,92.0 291.0,93.0 292.0,91.0 293.0,93.0 294.0,91.0 295.0,92.0 296.0,92.0 297.0,94.0 298.0,92.0 299.0,93.0 300.0,92.0 301.0,93.0 302.0,91.0 303.0,93.0 304.0,91.0 305.0,92.0 306.0,91.0 307.0,92.0 308.0,91.0 309.0,93.0 310.0,91.0 311.0,92.0 312.0,90.0 313.0,92.0 314.0,91.0 315.0,92.0 316.0,90.0 317.0,92.0 318.0,90.0 319.0,91.0 320.0,89.0 321.0,90.0 322.0,88.0 323.0,91.0 324.0,88.0 325.0,90.0 326.0,87.0 327.0,87.0 328.0,87.0 329.0,88.0 330.0,85.0 331.0,86.0 332.0,84.0 333.0,87.0 334.0,81.0 335.0,84.0 336.0,81.0 337.0,83.0 338.0,82.0 339.0,83.0 340.0,79.0 341.0,82.0 342.0,76.0 343.0,77.0 344.0,81.0 345.0,81.0 346.0,74.0 347.0,78.0 348.0,75.0 349.0,82.0 350.0,75.0 351.0,82.0 352.0,76.0 353.0,80.0 354.0,73.0 355.0,81.0 356.0,75.0 357.0,76.0 358.0,75.0 359.0,84.0 360.0,77.0 361.0,80.0 362.0,78.0 363.0,81.0 364.0,78.0 365.0,81.0 366.0,83.0 367.0,80.0 368.0,83.0 369.0,84.0 370.0,80.0 371.0,84.0 372.0,80.0 373.0,82.0 374.0,85.0 375.0,84.0 376.0,86.0 377.0,84.0 378.0,83.0 379.0,83.0 380.0,85.0 381.0,88.0 382.0,86.0 383.0,88.0 384.0,86.0 385.0,84.0 386.0,87.0 387.0,87.0 388.0,86.0 389.0,87.0 390.0,88.0 391.0,87.0 392.0,87.0 393.0,88.0 394.0,88.0 395.0,90.0 396.0,90.0 397.0,90.0 398.0,90.0 399.0,90.0 400.0,88.0 401.0,88.0 402.0,89.0 403.0,89.0 404.0,90.0 405.0,89.0 406.0,91.0 407.0,90.0 408.0,91.0 409.0,90.0 410.0,92.0 411.0,89.0 412.0,92.0 413.0,92.0 414.0,92.0 415.0,92.0 416.0,91.0 417.0,92.0 418.0,92.0 419.0,91.0 420.0,92.0 421.0,92.0 422.0,92.0 423.0,93.0 424.0,92.0 425.0,92.0 426.0,92.0 427.0,92.0 428.0,92.0 429.0,92.0 430.0,92.0 431.0,92.0 432.0,92.0 433.0,92.0 434.0,92.0 435.0,92.0 436.0,92.0 437.0,92.0 438.0,92.0 439.0,92.0 440.0,91.0 441.0,92.0 442.0,91.0 443.0,92.0 444.0,91.0 445.0,92.0 446.0,91.0 447.0,92.0 448.0,91.0 449.0,92.0 450.0,91.0 451.0,91.0 452.0,91.0 453.0,91.0 454.0,91.0 455.0,91.0 456.0,91.0 457.0,91.0 458.0,91.0 459.0,91.0 460.0,92.0 461.0,91.0 462.0,91.0 463.0,91.0 464.0,91.0 465.0,91.0 466.0,91.0 467.0,91.0 468.0,91.0 469.0,91.0 470.0,91.0 471.0,91.0 472.0,91.0 473.0,91.0 474.0,91.0 475.0,92.0 476.0,90.0 477.0,90.0 478.0,92.0 479.0,91.0 480.0,90.0 481.0,90.0 482.0,91.0 483.0,90.0 484.0,90.0 485.0,90.0 486.0,89.0 487.0,90.0 488.0,90.0 489.0,90.0 490.0,89.0 491.0,90.0 492.0,89.0 493.0,90.0 494.0,89.0 495.0,89.0 496.0,88.0 497.0,90.0 498.0,88.0 499.0,88.0 500.0,89.0 501.0,88.0 502.0,88.0 503.0,87.0 504.0,87.0 505.0,87.0 506.0,88.0 507.0,87.0 508.0,86.0 509.0,86.0 510.0,87.0 511.0,85.0 512.0,86.0 513.0,86.0 514.0,84.0 515.0,85.0 516.0,83.0 517.0,84.0 518.0,83.0 519.0,83.0 520.0,80.0 521.0,81.0 522.0,79.0 523.0,82.0 524.0,78.0 525.0,82.0 526.0,81.0 527.0,83.0 528.0,84.0 529.0,83.0 530.0,86.0 531.0,82.0 532.0,89.0 533.0,83.0 534.0,88.0 535.0,83.0 536.0,89.0 537.0,83.0 538.0,88.0 539.0,85.0 540.0,88.0 541.0,84.0 542.0,88.0 543.0,85.0 544.0,86.0 545.0,85.0 546.0,87.0 547.0,87.0 548.0,88.0 549.0,87.0 550.0,87.0 551.0,86.0 552.0,86.0 553.0,87.0 554.0,87.0 555.0,88.0 556.0,87.0 557.0,87.0 558.0,87.0 559.0,87.0 560.0,87.0 561.0,88.0 562.0,87.0 563.0,88.0 564.0,88.0 565.0,87.0 566.0,87.0 567.0,87.0 568.0,87.0 569.0,87.0 570.0,87.0 571.0,87.0 572.0,87.0 573.0,87.0 574.0,88.0 575.0,88.0 576.0,87.0 577.0,88.0 578.0,88.0 579.0,88.0 580.0,88.0 581.0,87.0 582.0,88.0 583.0,88.0 584.0,92.0 585.0,91.0 586.0,91.0 587.0,90.0 588.0,90.0 589.0,90.0 590.0,89.0 591.0,89.0 592.0,90.0 593.0,89.0 594.0,90.0 595.0,89.0 596.0,90.0 597.0,89.0 598.0,89.0 599.0,89.0 600.0,89.0 601.0,90.0 602.0,90.0 603.0,88.0 604.0,89.0 605.0,89.0 606.0,89.0 607.0,89.0 608.0,90.0 609.0,89.0 610.0,90.0 611.0,88.0 612.0,89.0 613.0,89.0 614.0,89.0 615.0,89.0 616.0,89.0 617.0,88.0 618.0,89.0 619.0,88.0 620.0,88.0 621.0,88.0 622.0,87.0 623.0,87.0 624.0,86.0 625.0,85.0 626.0,86.0 627.0,84.0 628.0,84.0 629.0,83.0 630.0,83.0 631.0,82.0 632.0,82.0 633.0,81.0 634.0,82.0 635.0,84.0 636.0,88.0 637.0,87.0 638.0,88.0 639.0,87.0 640.0,89.0 641.0,87.0 642.0,88.0 643.0,89.0 644.0,88.0 645.0,88.0 646.0,88.0 647.0,89.0 648.0,87.0 649.0,89.0 650.0,87.0 651.0,88.0 652.0,88.0 653.0,89.0 654.0,89.0" fill="none" stroke="#00bfff" />
	<polyline points="55.0,91.0 56.0,91.0 57.0,90.0 58.0,91.0 59.0,91.0 60.0,91.0 61.0,91.0 62.0,90.0 63.0,90.0 64.0,90.0 65.0,91.0 66.0,91.0 67.0,91.0 68.0,91.0 69.0,89.0 70.0,90.0 71.0,90.0 72.0,89.0 73.0,90.0 74.0,90.0 75.0,89.0 76.0,90.0 77.0,90.0 78.0,90.0 79.0,90.0 80.0,89.0 81.0,90.0 82.0,90.0 83.0,89.0 84.0,89.0 85.0,89.0 86.0,90.0 87.0,89.0 88.0,90.0 89.0,89.0 90.0,89.0 91.0,90.0 92.0,89.0 93.0,89.0 94.0,91.0 95.0,89.0 96.0,89.0 97.0,90.0 98.0,89.0 99.0,89.0 100.0,89.0 101.0,89.0 102.0,90.0 103.0,90.0 104.0,89.0 105.0,90.0 106.0,90.0 107.0,90.0 108.0,90.0 109.0,89.0 110.0,90.0 111.0,90.0 112.0,90.0 113.0,89.0 114.0,90.0 115.0,89.0 116.0,91.0 117.0,90.0 118.0,89.0 119.0,89.0 120.0,90.0 121.0,89.0 122.0,89.0 123.0,88.0 124.0,89.0 125.0,89.0 126.0,90.0 127.0,88.0 128.0,89.0 129.0,89.0 130.0,90.0 131.0,89.0 132.0,89.0 133.0,88.0 134.0,90.0 135.0,88.0 136.0,89.0 137.0,88.0 138.0,89.0 139.0,89.0 140.0,90.0 141.0,88.0 142.0,88.0 143.0,88.0 144.0,89.0 145.0,89.0 146.0,88.0 147.0,89.0 148.0,89.0 149.0,89.0 150.0,88.0 151.0,88.0 152.0,90.0 153.0,89.0 154.0,90.0 155.0,89.0 156.0,89.0 157.0,89.0 158.0,89.0 159.0,88.0 160.0,89.0 161.0,88.0 162.0,89.0 163.0,88.0 164.0,89.0 165.0,89.0 166.0,88.0 167.0,89.0 168.0,89.0 169.0,90.0 170.0,89.0 171.0,89.0 172.0,88.0 173.0,86.0 174.0,85.0 175.0,90.0 176.0,90.0 177.0,88.0 178.0,87.0 179.0,89.0 180.0,87.0 181.0,87.0 182.0,89.0 183.0,88.0 184.0,87.0 185.0,88.0 186.0,88.0 187.0,89.0 188.0,89.0 189.0,88.0 190.0,89.0 191.0,88.0 192.0,89.0 193.0,87.0 194.0,88.0 195.0,88.0 196.0,88.0 197.0,88.0 198.0,86.0 199.0,88.0 200.0,88.0 201.0,86.0 202.0,86.0 203.0,87.0 204.0,89.0 205.0,86.0 206.0,87.0 207.0,86.0 208.0,87.0 209.0,87.0 210.0,89.0 211.0,88.0 212.0,88.0 213.0,87.0 214.0,87.0 215.0,88.0 216.0,88.0 217.0,88.0 218.0,89.0 219.0,88.0 220.0,87.0 221.0,86.0 222.0,88.0 223.0,87.0 224.0,86.0 225.0,89.0 226.0,89.0 227.0,88.0 228.0,88.0 229.0,89.0 230.0,88.0 231.0,88.0 232.0,88.0 233.0,87.0 234.0,87.0 235.0,87.0 236.0,88.0 237.0,88.0 238.0,88.0 239.0,88.0 240.0,89.0 241.0,87.0 242.0,87.0 243.0,86.0 244.0,85.0 245.0,89.0 246.0,88.0 247.0,87.0 248.0,89.0 249.0,88.0 250.0,87.0 251.0,88.0 252.0,89.0 253.0,88.0 254.0,88.0 255.0,87.0 256.0,87.0 257.0,86.0 258.0,88.0 259.0,88.0 260.0,89.0 261.0,88.0 262.0,88.0 263.0,87.0 264.0,87.0 265.0,88.0 266.0,89.0 267.0,88.0 268.0,87.0 269.0,89.0 270.0,89.0 271.0,88.0 272.0,89.0 273.0,89.0 274.0,89.0 275.0,90.0 276.0,89.0 277.0,89.0 278.0,89.0 279.0,89.0 280.0,89.0 281.0,89.0 282.0,88.0 283.0,89.0 284.0,90.0 285.0,89.0 286.0,89.0 287.0,88.0 288.0,88.0 289.0,89.0 290.0,88.0 291.0,89.0 292.0,87.0 293.0,88.0 294.0,87.0 295.0,89.0 296.0,86.0 297.0,86.0 298.0,85.0 299.0,87.0 300.0,86.0 301.0,85.0 302.0,85.0 303.0,84.0 304.0,86.0 305.0,84.0 306.0,84.0 307.0,86.0 308.0,84.0 309.0,85.0 310.0,83.0 311.0,83.0 312.0,86.0 313.0,86.0 314.0,83.0 315.0,83.0 316.0,83.0 317.0,83.0 318.0,83.0 319.0,86.0 320.0,82.0 321.0,85.0 322.0,81.0 323.0,81.0 324.0,83.0 325.0,81.0 326.0,83.0 327.0,82.0 328.0,82.0 329.0,83.0 330.0,85.0 331.0,82.0 332.0,83.0 333.0,84.0 334.0,82.0 335.0,82.0 336.0,83.0 337.0,86.0 338.0,83.0 339.0,84.0 340.0,81.0 341.0,84.0 342.0,82.0 343.0,85.0 344.0,83.0 345.0,85.0 346.0,82.0 347.0,82.0 348.0,82.0 349.0,85.0 350.0,82.0 351.0,84.0 352.0,82.0 353.0,87.0 354.0,83.0 355.0,84.0 356.0,82.0 357.0,85.0 358.0,83.0 359.0,86.0 360.0,85.0 361.0,86.0 362.0,84.0 363.0,87.0 364.0,86.0 365.0,86.0 366.0,85.0 367.0,89.0 368.0,86.0 369.0,88.0 370.0,86.0 371.0,87.0 372.0,87.0 373.0,87.0 374.0,86.0 375.0,86.0 376.0,86.0 377.0,87.0 378.0,86.0 379.0,88.0 380.0,87.0 381.0,86.0 382.0,86.0 383.0,87.0 384.0,87.0 385.0,88.0 386.0,87.0 387.0,86.0 388.0,86.0 389.0,86.0 390.0,88.0 391.0,87.0 392.0,86.0 393.0,86.0 394.0,86.0 395.0,84.0 396.0,86.0 397.0,87.0 398.0,87.0 399.0,84.0 400.0,83.0 401.0,88.0 402.0,87.0 403.0,85.0 404.0,84.0 405.0,84.0 406.0,86.0 407.0,85.0 408.0,85.0 409.0,84.0 410.0,83.0 411.0,81.0 412.0,80.0 413.0,76.0 414.0,81.0 415.0,77.0 416.0,82.0 417.0,79.0 418.0,79.0 419.0,77.0 420.0,76.0 421.0,81.0 422.0,77.0 423.0,79.0 424.0,78.0 425.0,76.0 426.0,80.0 427.0,75.0 428.0,81.0 429.0,76.0 430.0,75.0 431.0,78.0 432.0,74.0 433.0,82.0 434.0,78.0 435.0,77.0 436.0,76.0 437.0,76.0 438.0,81.0 439.0,77.0 440.0,81.0 441.0,75.0 442.0,77.0 443.0,78.0 444.0,78.0 445.0,76.0 446.0,79.0 447.0,78.0 448.0,80.0 449.0,79.0 450.0,77.0 451.0,81.0 452.0,78.0 453.0,76.0 454.0,80.0 455.0,77.0 456.0,81.0 457.0,78.0 458.0,82.0 459.0,80.0 460.0,78.0 461.0,81.0 462.0,79.0 463.0,79.0 464.0,84.0 465.0,81.0 466.0,78.0 467.0,82.0 468.0,84.0 469.0,82.0 470.0,83.0 471.0,82.0 472.0,81.0 473.0,82.0 474.0,80.0 475.0,82.0 476.0,83.0 477.0,81.0 478.0,82.0 479.0,82.0 480.0,82.0 481.0,83.0 482.0,84.0 483.0,84.0 484.0,82.0 485.0,82.0 486.0,82.0 487.0,84.0 488.0,82.0 489.0,83.0 490.0,84.0 491.0,85.0 492.0,85.0 493.0,84.0 494.0,84.0 495.0,87.0 496.0,84.0 497.0,85.0 498.0,85.0 499.0,85.0 500.0,86.0 501.0,87.0 502.0,87.0 503.0,87.0 504.0,87.0 505.0,86.0 506.0,87.0 507.0,88.0 508.0,88.0 509.0,87.0 510.0,87.0 511.0,87.0 512.0,87.0 513.0,88.0 514.0,85.0 515.0,87.0 516.0,85.0 517.0,86.0 518.0,85.0 519.0,85.0 520.0,83.0 521.0,85.0 522.0,82.0 523.0,83.0 524.0,82.0 525.0,85.0 526.0,84.0 527.0,84.0 528.0,87.0 529.0,85.0 530.0,88.0 531.0,86.0 532.0,88.0 533.0,85.0 534.0,89.0 535.0,86.0 536.0,88.0 537.0,86.0 538.0,89.0 539.0,86.0 540.0,89.0 541.0,88.0 542.0,89.0 543.0,87.0 544.0,89.0 545.0,89.0 546.0,89.0 547.0,89.0 548.0,88.0 549.0,88.0 550.0,90.0 551.0,90.0 552.0,89.0 553.0,89.0 554.0,89.0 555.0,90.0 556.0,90.0 557.0,89.0 558.0,90.0 559.0,89.0 560.0,90.0 561.0,90.0 562.0,89.0 563.0,90.0 564.0,90.0 565.0,89.0 566.0,90.0 567.0,90.0 568.0,88.0 569.0,89.0 570.0,89.0 571.0,89.0 572.0,90.0 573.0,89.0 574.0,88.0 575.0,89.0 576.0,89.0 577.0,89.0 578.0,89.0 579.0,89.0 580.0,89.0 581.0,89.0 582.0,88.0 583.0,88.0 584.0,85.0 585.0,84.0 586.0,91.0 587.0,87.0 588.0,86.0 589.0,85.0 590.0,88.0 591.0,87.0 592.0,89.0 593.0,88.0 594.0,89.0 595.0,88.0 596.0,88.0 597.0,87.0 598.0,87.0 599.0,86.0 600.0,88.0 601.0,87.0 602.0,86.0 603.0,85.0 604.0,86.0 605.0,83.0 606.0,83.0 607.0,83.0 608.0,85.0 609.0,83.0 610.0,84.0 611.0,84.0 612.0,85.0 613.0,83.0 614.0,85.0 615.0,83.0 616.0,84.0 617.0,84.0 618.0,84.0 619.0,85.0 620.0,83.0 621.0,84.0 622.0,84.0 623.0,84.0 624.0,84.0 625.0,83.0 626.0,84.0 627.0,83.0 628.0,82.0 629.0,82.0 630.0,81.0 631.0,80.0 632.0,80.0 633.0,81.0 634.0,84.0 635.0,84.0 636.0,85.0 637.0,86.0 638.0,87.0 639.0,88.0 640.0,88.0 641.0,87.0 642.0,89.0 643.0,88.0 644.0,88.0 645.0,89.0 646.0,88.0 647.0,88.0 648.0,88.0 649.0,89.0 650.0,89.0 651.0,89.0 652.0,88.0 653.0,88.0 654.0,89.0" fill="none" stroke="#4876ff" />
	<polyline points="55.0,84.0 56.0,84.0 57.0,83.0 58.0,83.0 59.0,82.0 60.0,85.0 61.0,82.0 62.0,83.0 63.0,80.0 64.0,85.0 65.0,81.0 66.0,84.0 67.0,81.0 68.0,81.0 69.0,84.0 70.0,83.0 71.0,82.0 72.0,83.0 73.0,83.0 74.0,82.0 75.0,85.0 76.0,78.0 77.0,85.0 78.0,82.0 79.0,83.0 80.0,82.0 81.0,82.0 82.0,84.0 83.0,80.0 84.0,83.0 85.0,83.0 86.0,82.0 87.0,86.0 88.0,82.0 89.0,81.0 90.0,86.0 91.0,79.0 92.0,85.0 93.0,81.0 94.0,83.0 95.0,85.0 96.0,81.0 97.0,83.0 98.0,82.0 99.0,86.0 100.0,81.0 101.0,81.0 102.0,83.0 103.0,81.0 104.0,83.0 105.0,79.0 106.0,85.0 107.0,80.0 108.0,86.0 109.0,79.0 110.0,84.0 111.0,78.0 112.0,83.0 113.0,81.0 114.0,81.0 115.0,81.0 116.0,80.0 117.0,81.0 118.0,85.0 119.0,81.0 120.0,77.0 121.0,83.0 122.0,80.0 123.0,80.0 124.0,85.0 125.0,81.0 126.0,82.0 127.0,81.0 128.0,80.0 129.0,83.0 130.0,82.0 131.0,77.0 132.0,86.0 133.0,80.0 134.0,82.0 135.0,80.0 136.0,83.0 137.0,83.0 138.0,80.0 139.0,81.0 140.0,83.0 141.0,87.0 142.0,78.0 143.0,81.0 144.0,84.0 145.0,80.0 146.0,80.0 147.0,84.0 148.0,79.0 149.0,81.0 150.0,82.0 151.0,83.0 152.0,81.0 153.0,80.0 154.0,81.0 155.0,81.0 156.0,80.0 157.0,81.0 158.0,80.0 159.0,80.0 160.0,86.0 161.0,78.0 162.0,82.0 163.0,80.0 164.0,81.0 165.0,79.0 166.0,80.0 167.0,79.0 168.0,82.0 169.0,80.0 170.0,77.0 171.0,79.0 172.0,79.0 173.0,81.0 174.0,82.0 175.0,75.0 176.0,79.0 177.0,80.0 178.0,80.0 179.0,78.0 180.0,74.0 181.0,78.0 182.0,77.0 183.0,83.0 184.0,79.0 185.0,81.0 186.0,77.0 187.0,81.0 188.0,80.0 189.0,79.0 190.0,80.0 191.0,80.0 192.0,80.0 193.0,80.0 194.0,79.0 195.0,79.0 196.0,80.0 197.0,83.0 198.0,81.0 199.0,82.0 200.0,81.0 201.0,77.0 202.0,82.0 203.0,80.0 204.0,84.0 205.0,81.0 206.0,81.0 207.0,80.0 208.0,81.0 209.0,81.0 210.0,85.0 211.0,81.0 212.0,81.0 213.0,80.0 214.0,81.0 215.0,83.0 216.0,81.0 217.0,81.0 218.0,82.0 219.0,82.0 220.0,80.0 221.0,82.0 222.0,84.0 223.0,84.0 224.0,81.0 225.0,83.0 226.0,79.0 227.0,82.0 228.0,81.0 229.0,81.0 230.0,81.0 231.0,77.0 232.0,85.0 233.0,75.0 234.0,88.0 235.0,74.0 236.0,85.0 237.0,81.0 238.0,85.0 239.0,79.0 240.0,84.0 241.0,78.0 242.0,83.0 243.0,75.0 244.0,83.0 245.0,78.0 246.0,82.0 247.0,83.0 248.0,82.0 249.0,81.0 250.0,79.0 251.0,80.0 252.0,77.0 253.0,83.0 254.0,83.0 255.0,84.0 256.0,77.0 257.0,81.0 258.0,79.0 259.0,86.0 260.0,79.0 261.0,84.0 262.0,77.0 263.0,85.0 264.0,79.0 265.0,85.0 266.0,82.0 267.0,82.0 268.0,80.0 269.0,80.0 270.0,82.0 271.0,83.0 272.0,80.0 273.0,85.0 274.0,82.0 275.0,80.0 276.0,82.0 277.0,83.0 278.0,80.0 279.0,87.0 280.0,80.0 281.0,85.0 282.0,83.0 283.0,84.0 284.0,84.0 285.0,83.0 286.0,88.0 287.0,84.0 288.0,75.0 289.0,84.0 290.0,79.0 291.0,90.0 292.0,83.0 293.0,85.0 294.0,81.0 295.0,83.0 296.0,84.0 297.0,86.0 298.0,78.0 299.0,92.0 300.0,77.0 301.0,91.0 302.0,74.0 303.0,90.0 304.0,78.0 305.0,89.0 306.0,77.0 307.0,87.0 308.0,76.0 309.0,87.0 310.0,70.0 311.0,92.0 312.0,67.0 313.0,92.0 314.0,71.0 315.0,92.0 316.0,71.0 317.0,89.0 318.0,72.0 319.0,91.0 320.0,74.0 321.0,88.0 322.0,74.0 323.0,86.0 324.0,75.0 325.0,92.0 326.0,68.0 327.0,90.0 328.0,70.0 329.0,91.0 330.0,66.0 331.0,92.0 332.0,67.0 333.0,91.0 334.0,68.0 335.0,93.0 336.0,68.0 337.0,90.0 338.0,67.0 339.0,93.0 340.0,65.0 341.0,92.0 342.0,64.0 343.0,94.0 344.0,64.0 345.0,97.0 346.0,55.0 347.0,97.0 348.0,58.0 349.0,96.0 350.0,55.0 351.0,100.0 352.0,56.0 353.0,104.0 354.0,55.0 355.0,102.0 356.0,53.0 357.0,105.0 358.0,53.0 359.0,101.0 360.0,58.0 361.0,102.0 362.0,62.0 363.0,96.0 364.0,67.0 365.0,100.0 366.0,62.0 367.0,97.0 368.0,68.0 369.0,93.0 370.0,77.0 371.0,95.0 372.0,74.0 373.0,90.0 374.0,74.0 375.0,97.0 376.0,74.0 377.0,93.0 378.0,74.0 379.0,92.0 380.0,76.0 381.0,90.0 382.0,75.0 383.0,94.0 384.0,75.0 385.0,93.0 386.0,71.0 387.0,96.0 388.0,72.0 389.0,97.0 390.0,75.0 391.0,97.0 392.0,76.0 393.0,92.0 394.0,75.0 395.0,95.0 396.0,75.0 397.0,96.0 398.0,72.0 399.0,98.0 400.0,73.0 401.0,95.0 402.0,74.0 403.0,96.0 404.0,75.0 405.0,100.0 406.0,73.0 407.0,98.0 408.0,76.0 409.0,94.0 410.0,77.0 411.0,94.0 412.0,78.0 413.0,91.0 414.0,71.0 415.0,87.0 416.0,78.0 417.0,96.0 418.0,77.0 419.0,92.0 420.0,72.0 421.0,90.0 422.0,77.0 423.0,91.0 424.0,78.0 425.0,92.0 426.0,76.0 427.0,99.0 428.0,75.0 429.0,98.0 430.0,70.0 431.0,102.0 432.0,71.0 433.0,100.0 434.0,69.0 435.0,101.0 436.0,68.0 437.0,101.0 438.0,64.0 439.0,103.0 440.0,64.0 441.0,108.0 442.0,63.0 443.0,107.0 444.0,63.0 445.0,105.0 446.0,61.0 447.0,103.0 448.0,60.0 449.0,102.0 450.0,68.0 451.0,101.0 452.0,67.0 453.0,102.0 454.0,70.0 455.0,102.0 456.0,65.0 457.0,97.0 458.0,67.0 459.0,94.0 460.0,67.0 461.0,98.0 462.0,70.0 463.0,96.0 464.0,69.0 465.0,95.0 466.0,76.0 467.0,92.0 468.0,75.0 469.0,92.0 470.0,75.0 471.0,93.0 472.0,76.0 473.0,87.0 474.0,76.0 475.0,90.0 476.0,76.0 477.0,86.0 478.0,78.0 479.0,92.0 480.0,77.0 481.0,90.0 482.0,70.0 483.0,93.0 484.0,72.0 485.0,100.0 486.0,75.0 487.0,96.0 488.0,70.0 489.0,97.0 490.0,69.0 491.0,93.0 492.0,71.0 493.0,98.0 494.0,70.0 495.0,98.0 496.0,66.0 497.0,103.0 498.0,65.0 499.0,109.0 500.0,60.0 501.0,112.0 502.0,57.0 503.0,116.0 504.0,54.0 505.0,122.0 506.0,49.0 507.0,124.0 508.0,49.0 509.0,142.0 510.0,43.0 511.0,139.0 512.0,36.0 513.0,145.0 514.0,29.0 515.0,156.0 516.0,24.0 517.0,167.0 518.0,17.0 519.0,168.0 520.0,11.0 521.0,174.0 522.0,8.0 523.0,164.0 524.0,8.0 525.0,140.0 526.0,18.0 527.0,101.0 528.0,38.0 529.0,83.0 530.0,59.0 531.0,73.0 532.0,75.0 533.0,68.0 534.0,89.0 535.0,58.0 536.0,89.0 537.0,49.0 538.0,91.0 539.0,52.0 540.0,101.0 541.0,54.0 542.0,102.0 543.0,55.0 544.0,104.0 545.0,59.0 546.0,101.0 547.0,65.0 548.0,103.0 549.0,66.0 550.0,98.0 551.0,69.0 552.0,92.0 553.0,71.0 554.0,91.0 555.0,78.0 556.0,89.0 557.0,78.0 558.0,94.0 559.0,76.0 560.0,95.0 561.0,79.0 562.0,89.0 563.0,79.0 564.0,89.0 565.0,80.0 566.0,92.0 567.0,80.0 568.0,92.0 569.0,78.0 570.0,89.0 571.0,82.0 572.0,92.0 573.0,80.0 574.0,92.0 575.0,84.0 576.0,92.0 577.0,86.0 578.0,88.0 579.0,83.0 580.0,86.0 581.0,83.0 582.0,89.0 583.0,86.0 584.0,91.0 585.0,84.0 586.0,88.0 587.0,84.0 588.0,88.0 589.0,83.0 590.0,91.0 591.0,86.0 592.0,90.0 593.0,80.0 594.0,88.0 595.0,76.0 596.0,92.0 597.0,74.0 598.0,95.0 599.0,77.0 600.0,96.0 601.0,72.0 602.0,97.0 603.0,82.0 604.0,100.0 605.0,77.0 606.0,99.0 607.0,70.0 608.0,98.0 609.0,66.0 610.0,104.0 611.0,67.0 612.0,106.0 613.0,60.0 614.0,116.0 615.0,57.0 616.0,119.0 617.0,56.0 618.0,136.0 619.0,50.0 620.0,139.0 621.0,39.0 622.0,153.0 623.0,36.0 624.0,173.0 625.0,30.0 626.0,186.0 627.0,24.0 628.0,207.0 629.0,18.0 630.0,228.0 631.0,13.0 632.0,232.0 633.0,12.0 634.0,200.0 635.0,21.0 636.0,150.0 637.0,36.0 638.0,117.0 639.0,50.0 640.0,101.0 641.0,63.0 642.0,88.0 643.0,67.0 644.0,84.0 645.0,74.0 646.0,92.0 647.0,75.0 648.0,85.0 649.0,77.0 650.0,81.0 651.0,81.0 652.0,85.0 653.0,77.0 654.0,84.0" fill="none" stroke="#aeeeee" />
	<polyline points="55.0,75.0 56.0,73.0 57.0,76.0 58.0,77.0 59.0,76.0 60.0,77.0 61.0,81.0 62.0,82.0 63.0,83.0 64.0,84.0 65.0,85.0 66.0,87.0 67.0,86.0 68.0,88.0 69.0,89.0 70.0,89.0 71.0,91.0 72.0,89.0 73.0,90.0 74.0,93.0 75.0,90.0 76.0,92.0 77.0,91.0 78.0,91.0 79.0,94.0 80.0,93.0 81.0,93.0 82.0,93.0 83.0,92.0 84.0,92.0 85.0,92.0 86.0,91.0 87.0,92.0 88.0,92.0 89.0,94.0 90.0,92.0 91.0,91.0 92.0,93.0 93.0,93.0 94.0,92.0 95.0,92.0 96.0,93.0 97.0,92.0 98.0,93.0 99.0,92.0 100.0,92.0 101.0,92.0 102.0,91.0 103.0,92.0 104.0,91.0 105.0,91.0 106.0,90.0 107.0,90.0 108.0,91.0 109.0,90.0 110.0,90.0 111.0,90.0 112.0,90.0 113.0,90.0 114.0,92.0 115.0,92.0 116.0,93.0 117.0,92.0 118.0,92.0 119.0,93.0 120.0,93.0 121.0,92.0 122.0,94.0 123.0,94.0 124.0,94.0 125.0,94.0 126.0,94.0 127.0,94.0 128.0,94.0 129.0,94.0 130.0,94.0 131.0,94.0 132.0,94.0 133.0,93.0 134.0,94.0 135.0,94.0 136.0,94.0 137.0,94.0 138.0,94.0 139.0,94.0 140.0,95.0 141.0,94.0 142.0,94.0 143.0,94.0 144.0,94.0 145.0,94.0 146.0,94.0 147.0,94.0 148.0,94.0 149.0,94.0 150.0,94.0 151.0,94.0 152.0,94.0 153.0,93.0 154.0,93.0 155.0,93.0 156.0,93.0 157.0,92.0 158.0,93.0 159.0,93.0 160.0,94.0 161.0,92.0 162.0,93.0 163.0,93.0 164.0,93.0 165.0,92.0 166.0,92.0 167.0,92.0 168.0,91.0 169.0,91.0 170.0,93.0 171.0,91.0 172.0,91.0 173.0,92.0 174.0,91.0 175.0,90.0 176.0,90.0 177.0,91.0 178.0,89.0 179.0,89.0 180.0,88.0 181.0,90.0 182.0,89.0 183.0,90.0 184.0,89.0 185.0,90.0 186.0,89.0 187.0,89.0 188.0,89.0 189.0,88.0 190.0,87.0 191.0,89.0 192.0,88.0 193.0,88.0 194.0,87.0 195.0,88.0 196.0,88.0 197.0,87.0 198.0,86.0 199.0,87.0 200.0,85.0 201.0,87.0 202.0,86.0 203.0,85.0 204.0,86.0 205.0,84.0 206.0,83.0 207.0,83.0 208.0,82.0 209.0,83.0 210.0,84.0 211.0,81.0 212.0,82.0 213.0,82.0 214.0,82.0 215.0,82.0 216.0,82.0 217.0,83.0 218.0,81.0 219.0,83.0 220.0,83.0 221.0,86.0 222.0,84.0 223.0,84.0 224.0,84.0 225.0,83.0 226.0,86.0 227.0,85.0 228.0,84.0 229.0,87.0 230.0,86.0 231.0,85.0 232.0,85.0 233.0,85.0 234.0,84.0 235.0,86.0 236.0,86.0 237.0,86.0 238.0,86.0 239.0,84.0 240.0,86.0 241.0,86.0 242.0,84.0 243.0,85.0 244.0,84.0 245.0,84.0 246.0,85.0 247.0,83.0 248.0,85.0 249.0,84.0 250.0,83.0 251.0,82.0 252.0,84.0 253.0,84.0 254.0,83.0 255.0,85.0 256.0,84.0 257.0,85.0 258.0,83.0 259.0,83.0 260.0,84.0 261.0,84.0 262.0,85.0 263.0,83.0 264.0,86.0 265.0,83.0 266.0,84.0 267.0,86.0 268.0,84.0 269.0,83.0 270.0,83.0 271.0,84.0 272.0,84.0 273.0,84.0 274.0,86.0 275.0,84.0 276.0,84.0 277.0,87.0 278.0,86.0 279.0,88.0 280.0,89.0 281.0,90.0 282.0,91.0 283.0,93.0 284.0,93.0 285.0,93.0 286.0,92.0 287.0,93.0 288.0,92.0 289.0,93.0 290.0,92.0 291.0,93.0 292.0,93.0 293.0,93.0 294.0,92.0 295.0,94.0 296.0,92.0 297.0,94.0 298.0,92.0 299.0,93.0 300.0,92.0 301.0,94.0 302.0,92.0 303.0,93.0 304.0,92.0 305.0,93.0 306.0,91.0 307.0,93.0 308.0,91.0 309.0,93.0 310.0,92.0 311.0,93.0 312.0,91.0 313.0,93.0 314.0,92.0 315.0,93.0 316.0,91.0 317.0,93.0 318.0,91.0 319.0,93.0 320.0,90.0 321.0,93.0 322.0,90.0 323.0,92.0 324.0,90.0 325.0,91.0 326.0,90.0 327.0,92.0 328.0,90.0 329.0,92.0 330.0,89.0 331.0,91.0 332.0,89.0 333.0,90.0 334.0,87.0 335.0,91.0 336.0,87.0 337.0,90.0 338.0,86.0 339.0,89.0 340.0,85.0 341.0,89.0 342.0,87.0 343.0,90.0 344.0,87.0 345.0,90.0 346.0,86.0 347.0,90.0 348.0,86.0 349.0,90.0 350.0,86.0 351.0,90.0 352.0,85.0 353.0,90.0 354.0,85.0 355.0,90.0 356.0,86.0 357.0,91.0 358.0,85.0 359.0,89.0 360.0,85.0 361.0,90.0 362.0,85.0 363.0,89.0 364.0,86.0 365.0,90.0 366.0,86.0 367.0,89.0 368.0,87.0 369.0,88.0 370.0,87.0 371.0,88.0 372.0,88.0 373.0,88.0 374.0,86.0 375.0,86.0 376.0,88.0 377.0,88.0 378.0,87.0 379.0,87.0 380.0,85.0 381.0,86.0 382.0,87.0 383.0,85.0 384.0,85.0 385.0,88.0 386.0,85.0 387.0,86.0 388.0,88.0 389.0,86.0 390.0,86.0 391.0,88.0 392.0,86.0 393.0,88.0 394.0,87.0 395.0,87.0 396.0,85.0 397.0,84.0 398.0,87.0 399.0,87.0 400.0,86.0 401.0,88.0 402.0,88.0 403.0,88.0 404.0,88.0 405.0,86.0 406.0,86.0 407.0,85.0 408.0,88.0 409.0,88.0 410.0,90.0 411.0,88.0 412.0,91.0 413.0,91.0 414.0,91.0 415.0,90.0 416.0,89.0 417.0,92.0 418.0,91.0 419.0,91.0 420.0,91.0 421.0,91.0 422.0,91.0 423.0,91.0 424.0,91.0 425.0,91.0 426.0,91.0 427.0,91.0 428.0,91.0 429.0,91.0 430.0,91.0 431.0,91.0 432.0,91.0 433.0,92.0 434.0,91.0 435.0,91.0 436.0,91.0 437.0,92.0 438.0,91.0 439.0,92.0 440.0,91.0 441.0,91.0 442.0,91.0 443.0,91.0 444.0,91.0 445.0,92.0 446.0,91.0 447.0,92.0 448.0,91.0 449.0,92.0 450.0,90.0 451.0,91.0 452.0,90.0 453.0,91.0 454.0,91.0 455.0,91.0 456.0,91.0 457.0,91.0 458.0,91.0 459.0,91.0 460.0,91.0 461.0,91.0 462.0,91.0 463.0,91.0 464.0,91.0 465.0,91.0 466.0,91.0 467.0,91.0 468.0,90.0 469.0,91.0 470.0,91.0 471.0,91.0 472.0,91.0 473.0,91.0 474.0,91.0 475.0,91.0 476.0,91.0 477.0,91.0 478.0,91.0 479.0,91.0 480.0,91.0 481.0,91.0 482.0,91.0 483.0,91.0 484.0,91.0 485.0,91.0 486.0,91.0 487.0,90.0 488.0,91.0 489.0,90.0 490.0,90.0 491.0,90.0 492.0,90.0 493.0,90.0 494.0,89.0 495.0,90.0 496.0,89.0 497.0,91.0 498.0,89.0 499.0,89.0 500.0,89.0 501.0,88.0 502.0,89.0 503.0,89.0 504.0,90.0 505.0,88.0 506.0,88.0 507.0,89.0 508.0,88.0 509.0,88.0 510.0,89.0 511.0,88.0 512.0,88.0 513.0,88.0 514.0,87.0 515.0,87.0 516.0,87.0 517.0,87.0 518.0,85.0 519.0,85.0 520.0,84.0 521.0,85.0 522.0,83.0 523.0,85.0 524.0,81.0 525.0,85.0 526.0,83.0 527.0,85.0 528.0,87.0 529.0,85.0 530.0,88.0 531.0,86.0 532.0,89.0 533.0,85.0 534.0,88.0 535.0,86.0 536.0,88.0 537.0,84.0 538.0,89.0 539.0,86.0 540.0,89.0 541.0,87.0 542.0,89.0 543.0,87.0 544.0,88.0 545.0,88.0 546.0,87.0 547.0,88.0 548.0,88.0 549.0,88.0 550.0,88.0 551.0,87.0 552.0,88.0 553.0,88.0 554.0,88.0 555.0,88.0 556.0,89.0 557.0,86.0 558.0,88.0 559.0,86.0 560.0,87.0 561.0,88.0 562.0,86.0 563.0,87.0 564.0,88.0 565.0,87.0 566.0,87.0 567.0,87.0 568.0,87.0 569.0,87.0 570.0,88.0 571.0,86.0 572.0,87.0 573.0,88.0 574.0,88.0 575.0,88.0 576.0,87.0 577.0,87.0 578.0,88.0 579.0,87.0 580.0,87.0 581.0,86.0 582.0,87.0 583.0,84.0 584.0,83.0 585.0,90.0 586.0,85.0 587.0,87.0 588.0,86.0 589.0,87.0 590.0,87.0 591.0,86.0 592.0,83.0 593.0,80.0 594.0,90.0 595.0,87.0 596.0,85.0 597.0,86.0 598.0,87.0 599.0,85.0 600.0,85.0 601.0,84.0 602.0,86.0 603.0,88.0 604.0,87.0 605.0,85.0 606.0,88.0 607.0,89.0 608.0,87.0 609.0,87.0 610.0,89.0 611.0,86.0 612.0,87.0 613.0,87.0 614.0,88.0 615.0,88.0 616.0,89.0 617.0,89.0 618.0,89.0 619.0,88.0 620.0,89.0 621.0,89.0 622.0,88.0 623.0,88.0 624.0,87.0 625.0,88.0 626.0,88.0 627.0,87.0 628.0,86.0 629.0,86.0 630.0,85.0 631.0,85.0 632.0,85.0 633.0,85.0 634.0,86.0 635.0,86.0 636.0,87.0 637.0,87.0 638.0,88.0 639.0,88.0 640.0,90.0 641.0,89.0 642.0,89.0 643.0,88.0 644.0,88.0 645.0,89.0 646.0,87.0 647.0,88.0 648.0,89.0 649.0,90.0 650.0,90.0 651.0,89.0 652.0,89.0 653.0,89.0 654.0,90.0" fill="none" stroke="#00ffff" />
	<polyline points="55.0,5.0 655.0,5.0" fill="none" stroke="#6d6d6d" />
	<polyline points="55.0,305.0 655.0,305.0" fill="none" stroke="#6d6d6d" />
	<polyline points="55.0,305.0 55.0,310.0" fill="none" stroke="#6d6d6d" />
	<polyline points="205.0,305.0 205.0,310.0" fill="none" stroke="#6d6d6d" />
	<polyline points="355.0,305.0 355.0,310.0" fill="none" stroke="#6d6d6d" />
	<polyline points="505.0,305.0 505.0,310.0" fill="none" stroke="#6d6d6d" />
	<polyline points="655.0,305.0 655.0,310.0" fill="none" stroke="#6d6d6d" />
	<polyline points="55.0,5.0 55.0,305.0" fill="none" stroke="#6d6d6d" />
	<polyline points="655.0,5.0 655.0,305.0" fill="none" stroke="#6d6d6d" />
	<polyline points="50.0,5.0 55.0,5.0" fill="none" stroke="#6d6d6d" />
	<polyline points="50.0,80.0 55.0,80.0" fill="none" stroke="#6d6d6d" />
	<polyline points="50.0,155.0 55.0,155.0" fill="none" stroke="#6d6d6d" />
	<polyline points="50.0,230.0 55.0,230.0" fill="none" stroke="#6d6d6d" />
	<polyline points="50.0,305.0 55.0,305.0" fill="none" stroke="#6d6d6d" />
	<text x="55.0" y="323.0" fill="#6d6d6d" font-family="Arial" font-size="9pt" text-anchor="middle">1</text>
	<text x="205.0" y="323.0" fill="#6d6d6d" font-family="Arial" font-size="9pt" text-anchor="middle">150</text>
	<text x="355.0" y="323.0" fill="#6d6d6d" font-family="Arial" font-size="9pt" text-anchor="middle">300</text>
	<text x="505.0" y="323.0" fill="#6d6d6d" font-family="Arial" font-size="9pt" text-anchor="middle">450</text>
	<text x="655.0" y="323.0" fill="#6d6d6d" font-family="Arial" font-size="9pt" text-anchor="middle">600</text>
	<text x="45.0" y="9.0" fill="#6d6d6d" font-family="Arial" font-size="9pt" text-anchor="end">0.185</text>
	<text x="45.0" y="84.0" fill="#6d6d6d" font-family="Arial" font-size="9pt" text-anchor="end">0.0118</text>
	<text x="45.0" y="159.0" fill="#6d6d6d" font-family="Arial" font-size="9pt" text-anchor="end">-0.161</text>
	<text x="45.0" y="234.0" fill="#6d6d6d" font-family="Arial" font-size="9pt" text-anchor="end">-0.335</text>
	<text x="45.0" y="309.0" fill="#6d6d6d" font-family="Arial" font-size="9pt" text-anchor="end">-0.508</text>
</svg>
