<?xml version="1.0" encoding="UTF-8" standalone="no"?>
<!DOCTYPE svg PUBLIC "-//W3C//DTD SVG 1.1//EN" "http://www.w3.org/Graphics/SVG/1.1/DTD/svg11.dtd">
<svg xmlns="http://www.w3.org/2000/svg"  version="1.1" width="693.0" height="380.0" viewBox="-6.0 -12.0 687.0 368.0">
	<desc>LSD Plot - Sim_10c_teste1</desc>
	<polyline points="205.0,6.0 205.0,304.0" fill="none" stroke="#f0f0f0" />
	<polyline points="355.0,6.0 355.0,304.0" fill="none" stroke="#f0f0f0" />
	<polyline points="505.0,6.0 505.0,304.0" fill="none" stroke="#f0f0f0" />
	<polyline points="56.0,80.0 654.0,80.0" fill="none" stroke="#f0f0f0" />
	<polyline points="56.0,155.0 654.0,155.0" fill="none" stroke="#f0f0f0" />
	<polyline points="56.0,230.0 654.0,230.0" fill="none" stroke="#f0f0f0" />
	<text x="5.0" y="345.0" font-family="Arial" font-size="9pt">AvgProd_1</text>
	<text x="69.0" y="345.0" fill="#ff0000" font-family="Arial" font-size="9pt">AvgProd_2</text>
	<text x="133.0" y="345.0" fill="#008000" font-family="Arial" font-size="9pt">AvgProd_3</text>
	<text x="197.0" y="345.0" fill="#d0d000" font-family="Arial" font-size="9pt">AvgProd_4</text>
	<text x="261.0" y="345.0" fill="#fb46bc" font-family="Arial" font-size="9pt">AvgProd_5</text>
	<text x="325.0" y="345.0" fill="#0000ff" font-family="Arial" font-size="9pt">AvgProd_6</text>
	<text x="389.0" y="345.0" fill="#00bfff" font-family="Arial" font-size="9pt">AvgProd_7</text>
	<text x="453.0" y="345.0" fill="#4876ff" font-family="Arial" font-size="9pt">AvgProd_8</text>
	<text x="517.0" y="345.0" fill="#aeeeee" font-family="Arial" font-size="9pt">AvgProd_9</text>
	<text x="581.0" y="345.0" fill="#00ffff" font-family="Arial" font-size="9pt">AvgProd_10</text>
	<polyline points="55.0,290.0 56.0,290.0 57.0,289.0 58.0,289.0 59.0,288.0 60.0,288.0 61.0,287.0 62.0,287.0 63.0,286.0 64.0,286.0 65.0,285.0 66.0,284.0 67.0,284.0 68.0,283.0 69.0,283.0 70.0,282.0 71.0,282.0 72.0,282.0 73.0,282.0 74.0,281.0 75.0,281.0 76.0,281.0 77.0,280.0 78.0,279.0 79.0,279.0 80.0,279.0 81.0,278.0 82.0,277.0 83.0,277.0 84.0,276.0 85.0,276.0 86.0,276.0 87.0,275.0 88.0,275.0 89.0,274.0 90.0,274.0 91.0,274.0 92.0,273.0 93.0,272.0 94.0,272.0 95.0,272.0 96.0,271.0 97.0,271.0 98.0,270.0 99.0,270.0 100.0,269.0 101.0,269.0 102.0,268.0 103.0,268.0 104.0,267.0 105.0,267.0 106.0,267.0 107.0,266.0 108.0,266.0 109.0,266.0 110.0,265.0 111.0,265.0 112.0,265.0 113.0,264.0 114.0,264.0 115.0,263.0 116.0,263.0 117.0,262.0 118.0,262.0 119.0,261.0 120.0,261.0 121.0,260.0 122.0,259.0 123.0,259.0 124.0,258.0 125.0,258.0 126.0,258.0 127.0,257.0 128.0,257.0 129.0,256.0 130.0,256.0 131.0,255.0 132.0,255.0 133.0,254.0 134.0,254.0 135.0,254.0 136.0,253.0 137.0,253.0 138.0,252.0 139.0,252.0 140.0,252.0 141.0,252.0 142.0,251.0 143.0,251.0 144.0,250.0 145.0,250.0 146.0,250.0 147.0,249.0 148.0,249.0 149.0,249.0 150.0,249.0 151.0,248.0 152.0,248.0 153.0,248.0 154.0,247.0 155.0,247.0 156.0,247.0 157.0,246.0 158.0,246.0 159.0,245.0 160.0,245.0 161.0,245.0 162.0,244.0 163.0,244.0 164.0,243.0 165.0,242.0 166.0,242.0 167.0,241.0 168.0,241.0 169.0,240.0 170.0,240.0 171.0,239.0 172.0,238.0 173.0,238.0 174.0,237.0 175.0,236.0 176.0,236.0 177.0,235.0 178.0,234.0 179.0,234.0 180.0,233.0 181.0,233.0 182.0,232.0 183.0,232.0 184.0,232.0 185.0,232.0 186.0,232.0 187.0,231.0 188.0,231.0 189.0,231.0 190.0,231.0 191.0,231.0 192.0,230.0 193.0,229.0 194.0,229.0 195.0,229.0 196.0,229.0 197.0,229.0 198.0,229.0 199.0,228.0 200.0,228.0 201.0,227.0 202.0,226.0 203.0,226.0 204.0,225.0 205.0,224.0 206.0,224.0 207.0,223.0 208.0,223.0 209.0,222.0 210.0,222.0 211.0,222.0 212.0,221.0 213.0,221.0 214.0,220.0 215.0,220.0 216.0,219.0 217.0,219.0 218.0,218.0 219.0,218.0 220.0,218.0 221.0,217.0 222.0,217.0 223.0,216.0 224.0,216.0 225.0,215.0 226.0,215.0 227.0,214.0 228.0,213.0 229.0,213.0 230.0,212.0 231.0,212.0 232.0,212.0 233.0,212.0 234.0,211.0 235.0,211.0 236.0,210.0 237.0,210.0 238.0,209.0 239.0,209.0 240.0,208.0 241.0,207.0 242.0,207.0 243.0,206.0 244.0,206.0 245.0,205.0 246.0,205.0 247.0,204.0 248.0,203.0 249.0,203.0 250.0,203.0 251.0,202.0 252.0,202.0 253.0,202.0 254.0,201.0 255.0,200.0 256.0,199.0 257.0,199.0 258.0,199.0 259.0,199.0 260.0,198.0 261.0,197.0 262.0,197.0 263.0,197.0 264.0,196.0 265.0,196.0 266.0,195.0 267.0,195.0 268.0,194.0 269.0,193.0 270.0,193.0 271.0,192.0 272.0,192.0 273.0,192.0 274.0,191.0 275.0,191.0 276.0,190.0 277.0,190.0 278.0,189.0 279.0,188.0 280.0,187.0 281.0,186.0 282.0,186.0 283.0,185.0 284.0,185.0 285.0,185.0 286.0,185.0 287.0,185.0 288.0,184.0 289.0,184.0 290.0,183.0 291.0,183.0 292.0,182.0 293.0,182.0 294.0,181.0 295.0,180.0 296.0,180.0 297.0,179.0 298.0,178.0 299.0,178.0 300.0,177.0 301.0,177.0 302.0,177.0 303.0,176.0 304.0,175.0 305.0,175.0 306.0,175.0 307.0,174.0 308.0,174.0 309.0,173.0 310.0,173.0 311.0,172.0 312.0,172.0 313.0,171.0 314.0,171.0 315.0,171.0 316.0,171.0 317.0,170.0 318.0,170.0 319.0,170.0 320.0,170.0 321.0,169.0 322.0,169.0 323.0,168.0 324.0,167.0 325.0,167.0 326.0,167.0 327.0,166.0 328.0,165.0 329.0,164.0 330.0,164.0 331.0,164.0 332.0,164.0 333.0,164.0 334.0,163.0 335.0,163.0 336.0,162.0 337.0,162.0 338.0,161.0 339.0,161.0 340.0,161.0 341.0,161.0 342.0,160.0 343.0,160.0 344.0,158.0 345.0,158.0 346.0,158.0 347.0,158.0 348.0,158.0 349.0,157.0 350.0,157.0 351.0,156.0 352.0,156.0 353.0,155.0 354.0,154.0 355.0,153.0 356.0,153.0 357.0,153.0 358.0,153.0 359.0,152.0 360.0,152.0 361.0,151.0 362.0,151.0 363.0,151.0 364.0,150.0 365.0,150.0 366.0,150.0 367.0,148.0 368.0,148.0 369.0,148.0 370.0,147.0 371.0,147.0 372.0,147.0 373.0,146.0 374.0,146.0 375.0,146.0 376.0,145.0 377.0,145.0 378.0,144.0 379.0,144.0 380.0,144.0 381.0,143.0 382.0,142.0 383.0,142.0 384.0,141.0 385.0,141.0 386.0,140.0 387.0,139.0 388.0,139.0 389.0,138.0 390.0,137.0 391.0,137.0 392.0,136.0 393.0,136.0 394.0,135.0 395.0,134.0 396.0,134.0 397.0,133.0 398.0,133.0 399.0,133.0 400.0,132.0 401.0,132.0 402.0,131.0 403.0,131.0 404.0,131.0 405.0,130.0 406.0,129.0 407.0,129.0 408.0,129.0 409.0,128.0 410.0,128.0 411.0,128.0 412.0,128.0 413.0,127.0 414.0,127.0 415.0,126.0 416.0,126.0 417.0,125.0 418.0,124.0 419.0,124.0 420.0,123.0 421.0,123.0 422.0,122.0 423.0,122.0 424.0,121.0 425.0,121.0 426.0,120.0 427.0,120.0 428.0,120.0 429.0,119.0 430.0,119.0 431.0,119.0 432.0,119.0 433.0,118.0 434.0,117.0 435.0,117.0 436.0,116.0 437.0,116.0 438.0,115.0 439.0,115.0 440.0,115.0 441.0,114.0 442.0,114.0 443.0,114.0 444.0,113.0 445.0,112.0 446.0,111.0 447.0,110.0 448.0,110.0 449.0,109.0 450.0,109.0 451.0,109.0 452.0,108.0 453.0,107.0 454.0,107.0 455.0,106.0 456.0,106.0 457.0,105.0 458.0,105.0 459.0,104.0 460.0,103.0 461.0,102.0 462.0,102.0 463.0,102.0 464.0,102.0 465.0,101.0 466.0,101.0 467.0,100.0 468.0,100.0 469.0,99.0 470.0,99.0 471.0,99.0 472.0,99.0 473.0,99.0 474.0,98.0 475.0,97.0 476.0,97.0 477.0,96.0 478.0,96.0 479.0,95.0 480.0,95.0 481.0,94.0 482.0,94.0 483.0,94.0 484.0,93.0 485.0,93.0 486.0,92.0 487.0,92.0 488.0,91.0 489.0,91.0 490.0,90.0 491.0,90.0 492.0,90.0 493.0,89.0 494.0,88.0 495.0,87.0 496.0,87.0 497.0,86.0 498.0,85.0 499.0,85.0 500.0,85.0 501.0,84.0 502.0,84.0 503.0,84.0 504.0,83.0 505.0,82.0 506.0,82.0 507.0,82.0 508.0,82.0 509.0,81.0 510.0,81.0 511.0,80.0 512.0,79.0 513.0,79.0 514.0,79.0 515.0,78.0 516.0,78.0 517.0,77.0 518.0,77.0 519.0,76.0 520.0,76.0 521.0,75.0 522.0,75.0 523.0,74.0 524.0,74.0 525.0,73.0 526.0,73.0 527.0,73.0 528.0,73.0 529.0,72.0 530.0,72.0 531.0,71.0 532.0,71.0 533.0,71.0 534.0,70.0 535.0,70.0 536.0,70.0 537.0,69.0 538.0,69.0 539.0,69.0 540.0,68.0 541.0,67.0 542.0,67.0 543.0,67.0 544.0,67.0 545.0,66.0 546.0,66.0 547.0,65.0 548.0,65.0 549.0,64.0 550.0,64.0 551.0,63.0 552.0,63.0 553.0,62.0 554.0,62.0 555.0,60.0 556.0,60.0 557.0,59.0 558.0,59.0 559.0,59.0 560.0,58.0 561.0,58.0 562.0,57.0 563.0,56.0 564.0,56.0 565.0,55.0 566.0,54.0 567.0,54.0 568.0,54.0 569.0,53.0 570.0,53.0 571.0,53.0 572.0,53.0 573.0,52.0 574.0,52.0 575.0,52.0 576.0,51.0 577.0,51.0 578.0,50.0 579.0,50.0 580.0,49.0 581.0,48.0 582.0,48.0 583.0,47.0 584.0,47.0 585.0,47.0 586.0,47.0 587.0,47.0 588.0,45.0 589.0,45.0 590.0,44.0 591.0,44.0 592.0,42.0 593.0,41.0 594.0,41.0 595.0,41.0 596.0,40.0 597.0,40.0 598.0,40.0 599.0,39.0 600.0,39.0 601.0,38.0 602.0,37.0 603.0,36.0 604.0,36.0 605.0,34.0 606.0,34.0 607.0,33.0 608.0,33.0 609.0,32.0 610.0,32.0 611.0,32.0 612.0,32.0 613.0,31.0 614.0,31.0 615.0,30.0 616.0,29.0 617.0,29.0 618.0,28.0 619.0,27.0 620.0,27.0 621.0,26.0 622.0,26.0 623.0,25.0 624.0,25.0 625.0,25.0 626.0,24.0 627.0,24.0 628.0,23.0 629.0,23.0 630.0,23.0 631.0,22.0 632.0,22.0 633.0,22.0 634.0,21.0 635.0,21.0 636.0,21.0 637.0,20.0 638.0,19.0 639.0,19.0 640.0,18.0 641.0,17.0 642.0,16.0 643.0,16.0 644.0,15.0 645.0,15.0 646.0,15.0 647.0,14.0 648.0,14.0 649.0,13.0 650.0,13.0 651.0,12.0 652.0,12.0 653.0,11.0 654.0,11.0" fill="none" stroke="#000000" />
	<polyline points="55.0,289.0 56.0,289.0 57.0,288.0 58.0,288.0 59.0,288.0 60.0,288.0 61.0,287.0 62.0,287.0 63.0,287.0 64.0,286.0 65.0,286.0 66.0,285.0 67.0,284.0 68.0,284.0 69.0,284.0 70.0,283.0 71.0,283.0 72.0,282.0 73.0,282.0 74.0,282.0 75.0,282.0 76.0,281.0 77.0,281.0 78.0,280.0 79.0,280.0 80.0,280.0 81.0,279.0 82.0,279.0 83.0,279.0 84.0,278.0 85.0,277.0 86.0,277.0 87.0,277.0 88.0,277.0 89.0,277.0 90.0,276.0 91.0,276.0 92.0,276.0 93.0,276.0 94.0,275.0 95.0,275.0 96.0,274.0 97.0,274.0 98.0,273.0 99.0,272.0 100.0,272.0 101.0,271.0 102.0,270.0 103.0,269.0 104.0,268.0 105.0,268.0 106.0,267.0 107.0,266.0 108.0,265.0 109.0,265.0 110.0,264.0 111.0,264.0 112.0,264.0 113.0,263.0 114.0,262.0 115.0,261.0 116.0,260.0 117.0,260.0 118.0,260.0 119.0,260.0 120.0,259.0 121.0,259.0 122.0,259.0 123.0,258.0 124.0,258.0 125.0,258.0 126.0,257.0 127.0,257.0 128.0,256.0 129.0,255.0 130.0,255.0 131.0,255.0 132.0,254.0 133.0,254.0 134.0,253.0 135.0,253.0 136.0,253.0 137.0,252.0 138.0,252.0 139.0,252.0 140.0,251.0 141.0,251.0 142.0,251.0 143.0,250.0 144.0,250.0 145.0,249.0 146.0,248.0 147.0,248.0 148.0,247.0 149.0,247.0 150.0,246.0 151.0,246.0 152.0,246.0 153.0,245.0 154.0,244.0 155.0,244.0 156.0,243.0 157.0,243.0 158.0,242.0 159.0,241.0 160.0,241.0 161.0,240.0 162.0,239.0 163.0,239.0 164.0,238.0 165.0,238.0 166.0,237.0 167.0,237.0 168.0,236.0 169.0,235.0 170.0,235.0 171.0,235.0 172.0,235.0 173.0,234.0 174.0,233.0 175.0,233.0 176.0,232.0 177.0,232.0 178.0,232.0 179.0,232.0 180.0,232.0 181.0,232.0 182.0,231.0 183.0,231.0 184.0,230.0 185.0,230.0 186.0,229.0 187.0,229.0 188.0,229.0 189.0,229.0 190.0,229.0 191.0,229.0 192.0,229.0 193.0,228.0 194.0,228.0 195.0,228.0 196.0,227.0 197.0,226.0 198.0,226.0 199.0,226.0 200.0,225.0 201.0,224.0 202.0,223.0 203.0,222.0 204.0,222.0 205.0,221.0 206.0,221.0 207.0,221.0 208.0,221.0 209.0,220.0 210.0,219.0 211.0,219.0 212.0,219.0 213.0,218.0 214.0,218.0 215.0,217.0 216.0,217.0 217.0,217.0 218.0,216.0 219.0,216.0 220.0,215.0 221.0,215.0 222.0,214.0 223.0,213.0 224.0,212.0 225.0,212.0 226.0,211.0 227.0,210.0 228.0,210.0 229.0,209.0 230.0,209.0 231.0,209.0 232.0,209.0 233.0,208.0 234.0,208.0 235.0,207.0 236.0,207.0 237.0,206.0 238.0,205.0 239.0,205.0 240.0,204.0 241.0,204.0 242.0,204.0 243.0,204.0 244.0,203.0 245.0,202.0 246.0,202.0 247.0,201.0 248.0,200.0 249.0,200.0 250.0,199.0 251.0,199.0 252.0,198.0 253.0,198.0 254.0,198.0 255.0,198.0 256.0,198.0 257.0,197.0 258.0,197.0 259.0,196.0 260.0,196.0 261.0,196.0 262.0,195.0 263.0,195.0 264.0,195.0 265.0,195.0 266.0,195.0 267.0,195.0 268.0,195.0 269.0,194.0 270.0,192.0 271.0,191.0 272.0,191.0 273.0,190.0 274.0,190.0 275.0,190.0 276.0,189.0 277.0,188.0 278.0,187.0 279.0,187.0 280.0,186.0 281.0,186.0 282.0,186.0 283.0,185.0 284.0,185.0 285.0,185.0 286.0,184.0 287.0,183.0 288.0,183.0 289.0,182.0 290.0,181.0 291.0,181.0 292.0,181.0 293.0,180.0 294.0,180.0 295.0,179.0 296.0,179.0 297.0,179.0 298.0,178.0 299.0,177.0 300.0,177.0 301.0,177.0 302.0,176.0 303.0,175.0 304.0,175.0 305.0,174.0 306.0,174.0 307.0,173.0 308.0,173.0 309.0,172.0 310.0,172.0 311.0,172.0 312.0,171.0 313.0,171.0 314.0,171.0 315.0,170.0 316.0,170.0 317.0,170.0 318.0,170.0 319.0,169.0 320.0,169.0 321.0,168.0 322.0,168.0 323.0,168.0 324.0,167.0 325.0,167.0 326.0,167.0 327.0,166.0 328.0,166.0 329.0,165.0 330.0,165.0 331.0,165.0 332.0,164.0 333.0,164.0 334.0,164.0 335.0,163.0 336.0,163.0 337.0,162.0 338.0,161.0 339.0,161.0 340.0,161.0 341.0,160.0 342.0,160.0 343.0,159.0 344.0,159.0 345.0,158.0 346.0,157.0 347.0,157.0 348.0,156.0 349.0,156.0 350.0,155.0 351.0,155.0 352.0,155.0 353.0,154.0 354.0,154.0 355.0,153.0 356.0,153.0 357.0,152.0 358.0,151.0 359.0,151.0 360.0,151.0 361.0,151.0 362.0,150.0 363.0,149.0 364.0,149.0 365.0,149.0 366.0,148.0 367.0,148.0 368.0,147.0 369.0,146.0 370.0,146.0 371.0,146.0 372.0,146.0 373.0,146.0 374.0,146.0 375.0,145.0 376.0,145.0 377.0,144.0 378.0,144.0 379.0,143.0 380.0,143.0 381.0,143.0 382.0,142.0 383.0,142.0 384.0,141.0 385.0,141.0 386.0,141.0 387.0,141.0 388.0,140.0 389.0,140.0 390.0,139.0 391.0,139.0 392.0,139.0 393.0,138.0 394.0,138.0 395.0,137.0 396.0,137.0 397.0,135.0 398.0,135.0 399.0,134.0 400.0,134.0 401.0,134.0 402.0,133.0 403.0,132.0 404.0,131.0 405.0,131.0 406.0,131.0 407.0,130.0 408.0,129.0 409.0,129.0 410.0,128.0 411.0,128.0 412.0,128.0 413.0,128.0 414.0,128.0 415.0,127.0 416.0,127.0 417.0,126.0 418.0,126.0 419.0,126.0 420.0,125.0 421.0,125.0 422.0,124.0 423.0,124.0 424.0,123.0 425.0,123.0 426.0,123.0 427.0,122.0 428.0,122.0 429.0,122.0 430.0,121.0 431.0,121.0 432.0,120.0 433.0,120.0 434.0,120.0 435.0,120.0 436.0,119.0 437.0,119.0 438.0,119.0 439.0,118.0 440.0,118.0 441.0,116.0 442.0,115.0 443.0,114.0 444.0,113.0 445.0,111.0 446.0,110.0 447.0,109.0 448.0,108.0 449.0,108.0 450.0,108.0 451.0,107.0 452.0,106.0 453.0,105.0 454.0,105.0 455.0,104.0 456.0,104.0 457.0,103.0 458.0,103.0 459.0,103.0 460.0,102.0 461.0,102.0 462.0,101.0 463.0,101.0 464.0,100.0 465.0,100.0 466.0,100.0 467.0,99.0 468.0,99.0 469.0,99.0 470.0,99.0 471.0,98.0 472.0,98.0 473.0,97.0 474.0,97.0 475.0,96.0 476.0,96.0 477.0,96.0 478.0,96.0 479.0,95.0 480.0,95.0 481.0,95.0 482.0,94.0 483.0,94.0 484.0,94.0 485.0,93.0 486.0,92.0 487.0,92.0 488.0,92.0 489.0,91.0 490.0,90.0 491.0,90.0 492.0,90.0 493.0,89.0 494.0,88.0 495.0,88.0 496.0,87.0 497.0,87.0 498.0,86.0 499.0,86.0 500.0,86.0 501.0,85.0 502.0,85.0 503.0,84.0 504.0,84.0 505.0,83.0 506.0,83.0 507.0,82.0 508.0,81.0 509.0,81.0 510.0,80.0 511.0,80.0 512.0,79.0 513.0,79.0 514.0,78.0 515.0,78.0 516.0,77.0 517.0,77.0 518.0,77.0 519.0,76.0 520.0,76.0 521.0,75.0 522.0,75.0 523.0,75.0 524.0,75.0 525.0,75.0 526.0,74.0 527.0,74.0 528.0,73.0 529.0,73.0 530.0,72.0 531.0,72.0 532.0,71.0 533.0,70.0 534.0,70.0 535.0,69.0 536.0,68.0 537.0,68.0 538.0,67.0 539.0,67.0 540.0,66.0 541.0,66.0 542.0,66.0 543.0,66.0 544.0,65.0 545.0,65.0 546.0,65.0 547.0,65.0 548.0,64.0 549.0,64.0 550.0,64.0 551.0,63.0 552.0,63.0 553.0,62.0 554.0,61.0 555.0,61.0 556.0,60.0 557.0,60.0 558.0,60.0 559.0,59.0 560.0,58.0 561.0,58.0 562.0,58.0 563.0,56.0 564.0,56.0 565.0,56.0 566.0,55.0 567.0,54.0 568.0,54.0 569.0,53.0 570.0,52.0 571.0,52.0 572.0,51.0 573.0,51.0 574.0,50.0 575.0,50.0 576.0,50.0 577.0,50.0 578.0,49.0 579.0,49.0 580.0,48.0 581.0,48.0 582.0,48.0 583.0,47.0 584.0,47.0 585.0,47.0 586.0,46.0 587.0,46.0 588.0,45.0 589.0,45.0 590.0,44.0 591.0,44.0 592.0,44.0 593.0,43.0 594.0,42.0 595.0,42.0 596.0,42.0 597.0,42.0 598.0,41.0 599.0,41.0 600.0,40.0 601.0,40.0 602.0,39.0 603.0,39.0 604.0,39.0 605.0,39.0 606.0,38.0 607.0,38.0 608.0,38.0 609.0,38.0 610.0,37.0 611.0,37.0 612.0,37.0 613.0,36.0 614.0,36.0 615.0,35.0 616.0,34.0 617.0,33.0 618.0,32.0 619.0,32.0 620.0,30.0 621.0,29.0 622.0,28.0 623.0,27.0 624.0,27.0 625.0,26.0 626.0,26.0 627.0,25.0 628.0,24.0 629.0,24.0 630.0,24.0 631.0,23.0 632.0,23.0 633.0,23.0 634.0,22.0 635.0,22.0 636.0,22.0 637.0,21.0 638.0,21.0 639.0,21.0 640.0,20.0 641.0,20.0 642.0,20.0 643.0,19.0 644.0,19.0 645.0,18.0 646.0,18.0 647.0,17.0 648.0,17.0 649.0,16.0 650.0,15.0 651.0,15.0 652.0,14.0 653.0,14.0 654.0,14.0" fill="none" stroke="#ff0000" />
	<polyline points="55.0,290.0 56.0,289.0 57.0,289.0 58.0,288.0 59.0,288.0 60.0,287.0 61.0,287.0 62.0,286.0 63.0,286.0 64.0,285.0 65.0,285.0 66.0,284.0 67.0,284.0 68.0,284.0 69.0,284.0 70.0,283.0 71.0,282.0 72.0,282.0 73.0,282.0 74.0,281.0 75.0,281.0 76.0,281.0 77.0,280.0 78.0,280.0 79.0,279.0 80.0,279.0 81.0,278.0 82.0,278.0 83.0,278.0 84.0,278.0 85.0,277.0 86.0,276.0 87.0,276.0 88.0,276.0 89.0,275.0 90.0,275.0 91.0,275.0 92.0,274.0 93.0,274.0 94.0,273.0 95.0,272.0 96.0,272.0 97.0,271.0 98.0,270.0 99.0,269.0 100.0,269.0 101.0,269.0 102.0,268.0 103.0,268.0 104.0,267.0 105.0,266.0 106.0,266.0 107.0,266.0 108.0,266.0 109.0,265.0 110.0,265.0 111.0,264.0 112.0,264.0 113.0,263.0 114.0,262.0 115.0,262.0 116.0,262.0 117.0,261.0 118.0,261.0 119.0,260.0 120.0,260.0 121.0,259.0 122.0,259.0 123.0,258.0 124.0,258.0 125.0,258.0 126.0,257.0 127.0,256.0 128.0,256.0 129.0,255.0 130.0,255.0 131.0,254.0 132.0,254.0 133.0,254.0 134.0,254.0 135.0,254.0 136.0,254.0 137.0,253.0 138.0,253.0 139.0,253.0 140.0,252.0 141.0,252.0 142.0,251.0 143.0,251.0 144.0,250.0 145.0,250.0 146.0,249.0 147.0,249.0 148.0,248.0 149.0,248.0 150.0,248.0 151.0,247.0 152.0,247.0 153.0,246.0 154.0,245.0 155.0,245.0 156.0,245.0 157.0,244.0 158.0,244.0 159.0,244.0 160.0,244.0 161.0,242.0 162.0,242.0 163.0,242.0 164.0,242.0 165.0,241.0 166.0,240.0 167.0,239.0 168.0,239.0 169.0,239.0 170.0,238.0 171.0,237.0 172.0,237.0 173.0,237.0 174.0,237.0 175.0,236.0 176.0,235.0 177.0,235.0 178.0,235.0 179.0,234.0 180.0,234.0 181.0,234.0 182.0,234.0 183.0,234.0 184.0,233.0 185.0,233.0 186.0,231.0 187.0,230.0 188.0,230.0 189.0,229.0 190.0,229.0 191.0,227.0 192.0,227.0 193.0,227.0 194.0,226.0 195.0,226.0 196.0,226.0 197.0,226.0 198.0,225.0 199.0,225.0 200.0,225.0 201.0,225.0 202.0,225.0 203.0,224.0 204.0,223.0 205.0,223.0 206.0,222.0 207.0,222.0 208.0,221.0 209.0,221.0 210.0,220.0 211.0,219.0 212.0,219.0 213.0,219.0 214.0,218.0 215.0,218.0 216.0,218.0 217.0,217.0 218.0,217.0 219.0,217.0 220.0,217.0 221.0,216.0 222.0,216.0 223.0,215.0 224.0,215.0 225.0,214.0 226.0,214.0 227.0,213.0 228.0,213.0 229.0,212.0 230.0,212.0 231.0,211.0 232.0,211.0 233.0,211.0 234.0,210.0 235.0,210.0 236.0,209.0 237.0,209.0 238.0,208.0 239.0,208.0 240.0,208.0 241.0,207.0 242.0,207.0 243.0,206.0 244.0,206.0 245.0,206.0 246.0,204.0 247.0,204.0 248.0,203.0 249.0,203.0 250.0,203.0 251.0,203.0 252.0,202.0 253.0,202.0 254.0,201.0 255.0,201.0 256.0,200.0 257.0,199.0 258.0,199.0 259.0,198.0 260.0,197.0 261.0,197.0 262.0,196.0 263.0,195.0 264.0,195.0 265.0,194.0 266.0,194.0 267.0,194.0 268.0,193.0 269.0,193.0 270.0,193.0 271.0,193.0 272.0,192.0 273.0,192.0 274.0,191.0 275.0,190.0 276.0,189.0 277.0,189.0 278.0,189.0 279.0,188.0 280.0,188.0 281.0,188.0 282.0,188.0 283.0,187.0 284.0,187.0 285.0,187.0 286.0,186.0 287.0,186.0 288.0,186.0 289.0,185.0 290.0,184.0 291.0,184.0 292.0,183.0 293.0,183.0 294.0,182.0 295.0,181.0 296.0,181.0 297.0,180.0 298.0,180.0 299.0,179.0 300.0,179.0 301.0,178.0 302.0,178.0 303.0,178.0 304.0,177.0 305.0,176.0 306.0,176.0 307.0,175.0 308.0,174.0 309.0,174.0 310.0,174.0 311.0,173.0 312.0,173.0 313.0,173.0 314.0,172.0 315.0,171.0 316.0,171.0 317.0,171.0 318.0,170.0 319.0,170.0 320.0,169.0 321.0,169.0 322.0,169.0 323.0,168.0 324.0,168.0 325.0,167.0 326.0,167.0 327.0,166.0 328.0,166.0 329.0,165.0 330.0,165.0 331.0,164.0 332.0,164.0 333.0,164.0 334.0,163.0 335.0,163.0 336.0,162.0 337.0,161.0 338.0,161.0 339.0,160.0 340.0,160.0 341.0,159.0 342.0,158.0 343.0,157.0 344.0,157.0 345.0,157.0 346.0,157.0 347.0,157.0 348.0,157.0 349.0,156.0 350.0,156.0 351.0,155.0 352.0,155.0 353.0,155.0 354.0,155.0 355.0,154.0 356.0,154.0 357.0,154.0 358.0,153.0 359.0,153.0 360.0,152.0 361.0,152.0 362.0,150.0 363.0,150.0 364.0,150.0 365.0,149.0 366.0,148.0 367.0,148.0 368.0,147.0 369.0,147.0 370.0,146.0 371.0,146.0 372.0,145.0 373.0,145.0 374.0,145.0 375.0,144.0 376.0,144.0 377.0,144.0 378.0,143.0 379.0,142.0 380.0,142.0 381.0,141.0 382.0,141.0 383.0,140.0 384.0,140.0 385.0,139.0 386.0,139.0 387.0,139.0 388.0,138.0 389.0,138.0 390.0,138.0 391.0,137.0 392.0,137.0 393.0,137.0 394.0,136.0 395.0,136.0 396.0,136.0 397.0,135.0 398.0,134.0 399.0,134.0 400.0,133.0 401.0,133.0 402.0,132.0 403.0,132.0 404.0,131.0 405.0,130.0 406.0,129.0 407.0,129.0 408.0,129.0 409.0,128.0 410.0,128.0 411.0,127.0 412.0,127.0 413.0,127.0 414.0,126.0 415.0,126.0 416.0,125.0 417.0,124.0 418.0,124.0 419.0,123.0 420.0,123.0 421.0,122.0 422.0,122.0 423.0,122.0 424.0,121.0 425.0,121.0 426.0,121.0 427.0,121.0 428.0,120.0 429.0,120.0 430.0,120.0 431.0,120.0 432.0,119.0 433.0,119.0 434.0,118.0 435.0,117.0 436.0,117.0 437.0,116.0 438.0,116.0 439.0,114.0 440.0,113.0 441.0,113.0 442.0,113.0 443.0,112.0 444.0,112.0 445.0,112.0 446.0,112.0 447.0,111.0 448.0,111.0 449.0,110.0 450.0,110.0 451.0,109.0 452.0,109.0 453.0,108.0 454.0,107.0 455.0,107.0 456.0,107.0 457.0,107.0 458.0,107.0 459.0,106.0 460.0,106.0 461.0,105.0 462.0,105.0 463.0,104.0 464.0,104.0 465.0,103.0 466.0,102.0 467.0,102.0 468.0,101.0 469.0,101.0 470.0,100.0 471.0,99.0 472.0,99.0 473.0,99.0 474.0,98.0 475.0,98.0 476.0,97.0 477.0,96.0 478.0,96.0 479.0,96.0 480.0,96.0 481.0,95.0 482.0,95.0 483.0,94.0 484.0,94.0 485.0,94.0 486.0,93.0 487.0,93.0 488.0,92.0 489.0,92.0 490.0,91.0 491.0,91.0 492.0,90.0 493.0,90.0 494.0,90.0 495.0,89.0 496.0,88.0 497.0,88.0 498.0,88.0 499.0,88.0 500.0,87.0 501.0,87.0 502.0,87.0 503.0,86.0 504.0,85.0 505.0,85.0 506.0,85.0 507.0,85.0 508.0,84.0 509.0,83.0 510.0,82.0 511.0,81.0 512.0,81.0 513.0,80.0 514.0,80.0 515.0,79.0 516.0,79.0 517.0,78.0 518.0,78.0 519.0,77.0 520.0,76.0 521.0,76.0 522.0,76.0 523.0,76.0 524.0,75.0 525.0,75.0 526.0,75.0 527.0,74.0 528.0,74.0 529.0,74.0 530.0,74.0 531.0,73.0 532.0,73.0 533.0,73.0 534.0,72.0 535.0,72.0 536.0,72.0 537.0,71.0 538.0,70.0 539.0,70.0 540.0,70.0 541.0,68.0 542.0,68.0 543.0,66.0 544.0,66.0 545.0,65.0 546.0,65.0 547.0,64.0 548.0,63.0 549.0,63.0 550.0,62.0 551.0,62.0 552.0,62.0 553.0,61.0 554.0,60.0 555.0,60.0 556.0,59.0 557.0,59.0 558.0,58.0 559.0,58.0 560.0,58.0 561.0,57.0 562.0,57.0 563.0,57.0 564.0,56.0 565.0,56.0 566.0,56.0 567.0,56.0 568.0,55.0 569.0,55.0 570.0,54.0 571.0,54.0 572.0,54.0 573.0,53.0 574.0,53.0 575.0,52.0 576.0,51.0 577.0,51.0 578.0,51.0 579.0,51.0 580.0,50.0 581.0,49.0 582.0,49.0 583.0,48.0 584.0,48.0 585.0,47.0 586.0,47.0 587.0,47.0 588.0,47.0 589.0,46.0 590.0,46.0 591.0,46.0 592.0,45.0 593.0,45.0 594.0,45.0 595.0,44.0 596.0,43.0 597.0,43.0 598.0,42.0 599.0,42.0 600.0,42.0 601.0,41.0 602.0,41.0 603.0,40.0 604.0,40.0 605.0,39.0 606.0,39.0 607.0,38.0 608.0,38.0 609.0,38.0 610.0,37.0 611.0,37.0 612.0,36.0 613.0,36.0 614.0,35.0 615.0,35.0 616.0,34.0 617.0,33.0 618.0,33.0 619.0,32.0 620.0,32.0 621.0,31.0 622.0,30.0 623.0,30.0 624.0,29.0 625.0,28.0 626.0,28.0 627.0,28.0 628.0,27.0 629.0,27.0 630.0,26.0 631.0,26.0 632.0,25.0 633.0,25.0 634.0,24.0 635.0,23.0 636.0,23.0 637.0,23.0 638.0,22.0 639.0,22.0 640.0,21.0 641.0,21.0 642.0,21.0 643.0,20.0 644.0,20.0 645.0,20.0 646.0,20.0 647.0,19.0 648.0,18.0 649.0,18.0 650.0,17.0 651.0,17.0 652.0,16.0 653.0,16.0 654.0,15.0" fill="none" stroke="#008000" />
	<polyline points="55.0,303.0 56.0,302.0 57.0,302.0 58.0,302.0 59.0,301.0 60.0,301.0 61.0,301.0 62.0,301.0 63.0,300.0 64.0,300.0 65.0,299.0 66.0,299.0 67.0,298.0 68.0,297.0 69.0,297.0 70.0,296.0 71.0,296.0 72.0,295.0 73.0,295.0 74.0,294.0 75.0,294.0 76.0,293.0 77.0,293.0 78.0,292.0 79.0,292.0 80.0,292.0 81.0,291.0 82.0,290.0 83.0,290.0 84.0,289.0 85.0,289.0 86.0,288.0 87.0,288.0 88.0,288.0 89.0,288.0 90.0,287.0 91.0,287.0 92.0,287.0 93.0,286.0 94.0,285.0 95.0,285.0 96.0,285.0 97.0,285.0 98.0,284.0 99.0,283.0 100.0,283.0 101.0,283.0 102.0,283.0 103.0,282.0 104.0,282.0 105.0,281.0 106.0,281.0 107.0,280.0 108.0,280.0 109.0,280.0 110.0,279.0 111.0,278.0 112.0,278.0 113.0,277.0 114.0,277.0 115.0,277.0 116.0,277.0 117.0,276.0 118.0,275.0 119.0,275.0 120.0,274.0 121.0,273.0 122.0,273.0 123.0,273.0 124.0,273.0 125.0,272.0 126.0,272.0 127.0,271.0 128.0,271.0 129.0,270.0 130.0,270.0 131.0,268.0 132.0,268.0 133.0,267.0 134.0,267.0 135.0,266.0 136.0,266.0 137.0,265.0 138.0,266.0 139.0,265.0 140.0,265.0 141.0,264.0 142.0,264.0 143.0,264.0 144.0,264.0 145.0,263.0 146.0,263.0 147.0,262.0 148.0,262.0 149.0,261.0 150.0,261.0 151.0,260.0 152.0,260.0 153.0,259.0 154.0,260.0 155.0,258.0 156.0,259.0 157.0,258.0 158.0,259.0 159.0,257.0 160.0,258.0 161.0,257.0 162.0,258.0 163.0,257.0 164.0,257.0 165.0,257.0 166.0,257.0 167.0,257.0 168.0,256.0 169.0,256.0 170.0,255.0 171.0,255.0 172.0,254.0 173.0,254.0 174.0,253.0 175.0,254.0 176.0,253.0 177.0,252.0 178.0,249.0 179.0,248.0 180.0,246.0 181.0,247.0 182.0,246.0 183.0,246.0 184.0,246.0 185.0,245.0 186.0,244.0 187.0,245.0 188.0,244.0 189.0,245.0 190.0,244.0 191.0,243.0 192.0,242.0 193.0,242.0 194.0,241.0 195.0,242.0 196.0,241.0 197.0,241.0 198.0,240.0 199.0,238.0 200.0,238.0 201.0,237.0 202.0,238.0 203.0,237.0 204.0,237.0 205.0,237.0 206.0,237.0 207.0,236.0 208.0,236.0 209.0,235.0 210.0,235.0 211.0,234.0 212.0,234.0 213.0,233.0 214.0,233.0 215.0,233.0 216.0,232.0 217.0,231.0 218.0,230.0 219.0,230.0 220.0,230.0 221.0,230.0 222.0,230.0 223.0,229.0 224.0,229.0 225.0,228.0 226.0,228.0 227.0,227.0 228.0,227.0 229.0,226.0 230.0,226.0 231.0,225.0 232.0,225.0 233.0,224.0 234.0,225.0 235.0,224.0 236.0,224.0 237.0,223.0 238.0,224.0 239.0,223.0 240.0,222.0 241.0,221.0 242.0,221.0 243.0,220.0 244.0,220.0 245.0,219.0 246.0,219.0 247.0,219.0 248.0,218.0 249.0,216.0 250.0,215.0 251.0,215.0 252.0,215.0 253.0,216.0 254.0,215.0 255.0,215.0 256.0,214.0 257.0,214.0 258.0,212.0 259.0,213.0 260.0,211.0 261.0,211.0 262.0,210.0 263.0,211.0 264.0,210.0 265.0,210.0 266.0,209.0 267.0,209.0 268.0,208.0 269.0,209.0 270.0,207.0 271.0,208.0 272.0,206.0 273.0,208.0 274.0,206.0 275.0,207.0 276.0,205.0 277.0,206.0 278.0,204.0 279.0,205.0 280.0,203.0 281.0,204.0 282.0,202.0 283.0,203.0 284.0,202.0 285.0,203.0 286.0,198.0 287.0,199.0 288.0,196.0 289.0,198.0 290.0,195.0 291.0,198.0 292.0,195.0 293.0,197.0 294.0,194.0 295.0,197.0 296.0,194.0 297.0,197.0 298.0,194.0 299.0,196.0 300.0,193.0 301.0,194.0 302.0,191.0 303.0,193.0 304.0,189.0 305.0,191.0 306.0,188.0 307.0,190.0 308.0,186.0 309.0,189.0 310.0,185.0 311.0,188.0 312.0,185.0 313.0,189.0 314.0,185.0 315.0,188.0 316.0,183.0 317.0,187.0 318.0,183.0 319.0,186.0 320.0,182.0 321.0,186.0 322.0,182.0 323.0,186.0 324.0,182.0 325.0,185.0 326.0,180.0 327.0,184.0 328.0,179.0 329.0,183.0 330.0,178.0 331.0,183.0 332.0,177.0 333.0,181.0 334.0,175.0 335.0,181.0 336.0,175.0 337.0,181.0 338.0,174.0 339.0,180.0 340.0,173.0 341.0,180.0 342.0,173.0 343.0,179.0 344.0,170.0 345.0,175.0 346.0,168.0 347.0,176.0 348.0,168.0 349.0,175.0 350.0,167.0 351.0,175.0 352.0,167.0 353.0,175.0 354.0,167.0 355.0,174.0 356.0,166.0 357.0,173.0 358.0,166.0 359.0,171.0 360.0,165.0 361.0,170.0 362.0,165.0 363.0,169.0 364.0,163.0 365.0,167.0 366.0,163.0 367.0,166.0 368.0,162.0 369.0,165.0 370.0,162.0 371.0,164.0 372.0,161.0 373.0,163.0 374.0,160.0 375.0,162.0 376.0,159.0 377.0,160.0 378.0,158.0 379.0,159.0 380.0,157.0 381.0,159.0 382.0,156.0 383.0,157.0 384.0,155.0 385.0,156.0 386.0,154.0 387.0,154.0 388.0,152.0 389.0,153.0 390.0,150.0 391.0,152.0 392.0,150.0 393.0,151.0 394.0,148.0 395.0,149.0 396.0,147.0 397.0,148.0 398.0,145.0 399.0,146.0 400.0,144.0 401.0,145.0 402.0,143.0 403.0,144.0 404.0,143.0 405.0,144.0 406.0,143.0 407.0,143.0 408.0,143.0 409.0,143.0 410.0,142.0 411.0,142.0 412.0,140.0 413.0,140.0 414.0,139.0 415.0,141.0 416.0,139.0 417.0,140.0 418.0,137.0 419.0,138.0 420.0,136.0 421.0,138.0 422.0,136.0 423.0,137.0 424.0,135.0 425.0,136.0 426.0,134.0 427.0,135.0 428.0,133.0 429.0,135.0 430.0,132.0 431.0,134.0 432.0,130.0 433.0,133.0 434.0,130.0 435.0,134.0 436.0,130.0 437.0,133.0 438.0,129.0 439.0,133.0 440.0,128.0 441.0,132.0 442.0,128.0 443.0,132.0 444.0,127.0 445.0,131.0 446.0,126.0 447.0,129.0 448.0,125.0 449.0,127.0 450.0,123.0 451.0,125.0 452.0,121.0 453.0,122.0 454.0,119.0 455.0,121.0 456.0,119.0 457.0,120.0 458.0,118.0 459.0,119.0 460.0,118.0 461.0,119.0 462.0,117.0 463.0,118.0 464.0,116.0 465.0,117.0 466.0,115.0 467.0,115.0 468.0,114.0 469.0,115.0 470.0,113.0 471.0,113.0 472.0,111.0 473.0,112.0 474.0,111.0 475.0,112.0 476.0,110.0 477.0,111.0 478.0,109.0 479.0,110.0 480.0,108.0 481.0,108.0 482.0,106.0 483.0,107.0 484.0,105.0 485.0,107.0 486.0,105.0 487.0,107.0 488.0,104.0 489.0,106.0 490.0,103.0 491.0,105.0 492.0,102.0 493.0,104.0 494.0,100.0 495.0,103.0 496.0,99.0 497.0,103.0 498.0,99.0 499.0,102.0 500.0,97.0 501.0,101.0 502.0,95.0 503.0,100.0 504.0,94.0 505.0,100.0 506.0,93.0 507.0,100.0 508.0,93.0 509.0,100.0 510.0,91.0 511.0,100.0 512.0,89.0 513.0,100.0 514.0,88.0 515.0,101.0 516.0,87.0 517.0,101.0 518.0,85.0 519.0,102.0 520.0,85.0 521.0,102.0 522.0,85.0 523.0,100.0 524.0,87.0 525.0,94.0 526.0,86.0 527.0,91.0 528.0,85.0 529.0,89.0 530.0,84.0 531.0,87.0 532.0,83.0 533.0,86.0 534.0,83.0 535.0,84.0 536.0,81.0 537.0,83.0 538.0,80.0 539.0,82.0 540.0,79.0 541.0,81.0 542.0,78.0 543.0,79.0 544.0,77.0 545.0,79.0 546.0,77.0 547.0,78.0 548.0,76.0 549.0,76.0 550.0,74.0 551.0,76.0 552.0,74.0 553.0,75.0 554.0,74.0 555.0,75.0 556.0,73.0 557.0,73.0 558.0,72.0 559.0,72.0 560.0,71.0 561.0,72.0 562.0,70.0 563.0,70.0 564.0,69.0 565.0,69.0 566.0,67.0 567.0,68.0 568.0,67.0 569.0,68.0 570.0,67.0 571.0,67.0 572.0,65.0 573.0,65.0 574.0,65.0 575.0,65.0 576.0,64.0 577.0,65.0 578.0,64.0 579.0,63.0 580.0,63.0 581.0,62.0 582.0,62.0 583.0,62.0 584.0,62.0 585.0,62.0 586.0,62.0 587.0,61.0 588.0,61.0 589.0,60.0 590.0,61.0 591.0,59.0 592.0,60.0 593.0,59.0 594.0,60.0 595.0,58.0 596.0,59.0 597.0,57.0 598.0,58.0 599.0,55.0 600.0,57.0 601.0,55.0 602.0,56.0 603.0,54.0 604.0,55.0 605.0,52.0 606.0,54.0 607.0,51.0 608.0,54.0 609.0,50.0 610.0,53.0 611.0,47.0 612.0,50.0 613.0,45.0 614.0,49.0 615.0,44.0 616.0,49.0 617.0,43.0 618.0,49.0 619.0,41.0 620.0,48.0 621.0,40.0 622.0,48.0 623.0,39.0 624.0,48.0 625.0,37.0 626.0,49.0 627.0,36.0 628.0,48.0 629.0,35.0 630.0,47.0 631.0,34.0 632.0,44.0 633.0,35.0 634.0,42.0 635.0,35.0 636.0,40.0 637.0,35.0 638.0,37.0 639.0,33.0 640.0,35.0 641.0,32.0 642.0,33.0 643.0,31.0 644.0,32.0 645.0,30.0 646.0,31.0 647.0,29.0 648.0,31.0 649.0,29.0 650.0,29.0 651.0,27.0 652.0,29.0 653.0,26.0 654.0,27.0" fill="none" stroke="#d0d000" />
	<polyline points="55.0,290.0 56.0,290.0 57.0,289.0 58.0,289.0 59.0,288.0 60.0,287.0 61.0,287.0 62.0,287.0 63.0,286.0 64.0,286.0 65.0,285.0 66.0,284.0 67.0,284.0 68.0,284.0 69.0,284.0 70.0,283.0 71.0,282.0 72.0,282.0 73.0,281.0 74.0,281.0 75.0,281.0 76.0,280.0 77.0,280.0 78.0,280.0 79.0,279.0 80.0,279.0 81.0,278.0 82.0,277.0 83.0,277.0 84.0,277.0 85.0,276.0 86.0,276.0 87.0,275.0 88.0,275.0 89.0,274.0 90.0,274.0 91.0,273.0 92.0,273.0 93.0,272.0 94.0,272.0 95.0,272.0 96.0,272.0 97.0,271.0 98.0,271.0 99.0,270.0 100.0,270.0 101.0,270.0 102.0,269.0 103.0,269.0 104.0,268.0 105.0,268.0 106.0,267.0 107.0,266.0 108.0,266.0 109.0,265.0 110.0,265.0 111.0,265.0 112.0,264.0 113.0,263.0 114.0,263.0 115.0,262.0 116.0,262.0 117.0,261.0 118.0,261.0 119.0,261.0 120.0,260.0 121.0,260.0 122.0,260.0 123.0,260.0 124.0,259.0 125.0,259.0 126.0,258.0 127.0,258.0 128.0,257.0 129.0,256.0 130.0,256.0 131.0,256.0 132.0,255.0 133.0,255.0 134.0,254.0 135.0,254.0 136.0,253.0 137.0,253.0 138.0,252.0 139.0,252.0 140.0,251.0 141.0,250.0 142.0,250.0 143.0,249.0 144.0,249.0 145.0,249.0 146.0,248.0 147.0,248.0 148.0,247.0 149.0,247.0 150.0,247.0 151.0,247.0 152.0,246.0 153.0,245.0 154.0,244.0 155.0,244.0 156.0,244.0 157.0,243.0 158.0,243.0 159.0,243.0 160.0,242.0 161.0,241.0 162.0,241.0 163.0,241.0 164.0,241.0 165.0,240.0 166.0,239.0 167.0,239.0 168.0,239.0 169.0,239.0 170.0,238.0 171.0,237.0 172.0,236.0 173.0,236.0 174.0,236.0 175.0,235.0 176.0,234.0 177.0,234.0 178.0,234.0 179.0,234.0 180.0,233.0 181.0,233.0 182.0,233.0 183.0,232.0 184.0,232.0 185.0,231.0 186.0,231.0 187.0,230.0 188.0,230.0 189.0,230.0 190.0,229.0 191.0,229.0 192.0,229.0 193.0,227.0 194.0,227.0 195.0,226.0 196.0,226.0 197.0,225.0 198.0,225.0 199.0,225.0 200.0,225.0 201.0,225.0 202.0,224.0 203.0,223.0 204.0,223.0 205.0,222.0 206.0,222.0 207.0,221.0 208.0,221.0 209.0,220.0 210.0,220.0 211.0,220.0 212.0,219.0 213.0,219.0 214.0,218.0 215.0,217.0 216.0,216.0 217.0,216.0 218.0,215.0 219.0,215.0 220.0,215.0 221.0,215.0 222.0,214.0 223.0,214.0 224.0,213.0 225.0,213.0 226.0,212.0 227.0,212.0 228.0,211.0 229.0,211.0 230.0,210.0 231.0,210.0 232.0,209.0 233.0,209.0 234.0,209.0 235.0,208.0 236.0,208.0 237.0,208.0 238.0,208.0 239.0,207.0 240.0,207.0 241.0,206.0 242.0,206.0 243.0,205.0 244.0,205.0 245.0,205.0 246.0,205.0 247.0,204.0 248.0,204.0 249.0,204.0 250.0,203.0 251.0,203.0 252.0,202.0 253.0,202.0 254.0,201.0 255.0,201.0 256.0,200.0 257.0,200.0 258.0,200.0 259.0,199.0 260.0,199.0 261.0,199.0 262.0,198.0 263.0,198.0 264.0,197.0 265.0,197.0 266.0,197.0 267.0,194.0 268.0,194.0 269.0,193.0 270.0,193.0 271.0,192.0 272.0,192.0 273.0,192.0 274.0,191.0 275.0,191.0 276.0,190.0 277.0,190.0 278.0,189.0 279.0,189.0 280.0,188.0 281.0,187.0 282.0,187.0 283.0,187.0 284.0,186.0 285.0,186.0 286.0,185.0 287.0,185.0 288.0,184.0 289.0,184.0 290.0,184.0 291.0,183.0 292.0,182.0 293.0,182.0 294.0,182.0 295.0,181.0 296.0,181.0 297.0,180.0 298.0,179.0 299.0,178.0 300.0,178.0 301.0,178.0 302.0,177.0 303.0,177.0 304.0,176.0 305.0,176.0 306.0,176.0 307.0,175.0 308.0,174.0 309.0,174.0 310.0,174.0 311.0,174.0 312.0,173.0 313.0,172.0 314.0,172.0 315.0,171.0 316.0,171.0 317.0,170.0 318.0,170.0 319.0,170.0 320.0,169.0 321.0,169.0 322.0,169.0 323.0,168.0 324.0,168.0 325.0,168.0 326.0,167.0 327.0,167.0 328.0,166.0 329.0,166.0 330.0,166.0 331.0,165.0 332.0,164.0 333.0,164.0 334.0,164.0 335.0,164.0 336.0,164.0 337.0,163.0 338.0,163.0 339.0,163.0 340.0,162.0 341.0,162.0 342.0,161.0 343.0,161.0 344.0,160.0 345.0,160.0 346.0,159.0 347.0,159.0 348.0,158.0 349.0,158.0 350.0,157.0 351.0,157.0 352.0,156.0 353.0,156.0 354.0,155.0 355.0,155.0 356.0,154.0 357.0,154.0 358.0,154.0 359.0,153.0 360.0,153.0 361.0,152.0 362.0,152.0 363.0,152.0 364.0,151.0 365.0,151.0 366.0,150.0 367.0,150.0 368.0,150.0 369.0,149.0 370.0,149.0 371.0,148.0 372.0,148.0 373.0,147.0 374.0,147.0 375.0,146.0 376.0,146.0 377.0,146.0 378.0,145.0 379.0,144.0 380.0,143.0 381.0,143.0 382.0,142.0 383.0,142.0 384.0,141.0 385.0,141.0 386.0,141.0 387.0,140.0 388.0,140.0 389.0,140.0 390.0,139.0 391.0,138.0 392.0,138.0 393.0,137.0 394.0,137.0 395.0,137.0 396.0,136.0 397.0,136.0 398.0,136.0 399.0,135.0 400.0,135.0 401.0,135.0 402.0,134.0 403.0,134.0 404.0,133.0 405.0,133.0 406.0,133.0 407.0,132.0 408.0,132.0 409.0,130.0 410.0,129.0 411.0,128.0 412.0,128.0 413.0,127.0 414.0,127.0 415.0,127.0 416.0,126.0 417.0,126.0 418.0,126.0 419.0,126.0 420.0,125.0 421.0,125.0 422.0,124.0 423.0,124.0 424.0,123.0 425.0,123.0 426.0,122.0 427.0,122.0 428.0,121.0 429.0,120.0 430.0,120.0 431.0,119.0 432.0,119.0 433.0,119.0 434.0,118.0 435.0,118.0 436.0,117.0 437.0,117.0 438.0,117.0 439.0,116.0 440.0,116.0 441.0,115.0 442.0,114.0 443.0,113.0 444.0,113.0 445.0,112.0 446.0,111.0 447.0,109.0 448.0,109.0 449.0,108.0 450.0,108.0 451.0,108.0 452.0,107.0 453.0,107.0 454.0,107.0 455.0,106.0 456.0,105.0 457.0,105.0 458.0,104.0 459.0,104.0 460.0,103.0 461.0,102.0 462.0,102.0 463.0,101.0 464.0,100.0 465.0,100.0 466.0,99.0 467.0,99.0 468.0,99.0 469.0,98.0 470.0,98.0 471.0,97.0 472.0,97.0 473.0,96.0 474.0,96.0 475.0,95.0 476.0,95.0 477.0,95.0 478.0,95.0 479.0,94.0 480.0,94.0 481.0,93.0 482.0,92.0 483.0,92.0 484.0,92.0 485.0,91.0 486.0,91.0 487.0,91.0 488.0,91.0 489.0,91.0 490.0,91.0 491.0,90.0 492.0,90.0 493.0,90.0 494.0,90.0 495.0,89.0 496.0,88.0 497.0,88.0 498.0,88.0 499.0,88.0 500.0,88.0 501.0,87.0 502.0,86.0 503.0,85.0 504.0,85.0 505.0,84.0 506.0,84.0 507.0,83.0 508.0,83.0 509.0,82.0 510.0,82.0 511.0,81.0 512.0,80.0 513.0,79.0 514.0,79.0 515.0,78.0 516.0,78.0 517.0,78.0 518.0,77.0 519.0,76.0 520.0,76.0 521.0,75.0 522.0,75.0 523.0,74.0 524.0,73.0 525.0,73.0 526.0,72.0 527.0,71.0 528.0,71.0 529.0,70.0 530.0,69.0 531.0,69.0 532.0,68.0 533.0,67.0 534.0,67.0 535.0,67.0 536.0,66.0 537.0,66.0 538.0,65.0 539.0,64.0 540.0,64.0 541.0,64.0 542.0,63.0 543.0,63.0 544.0,62.0 545.0,62.0 546.0,61.0 547.0,60.0 548.0,60.0 549.0,60.0 550.0,59.0 551.0,59.0 552.0,59.0 553.0,58.0 554.0,58.0 555.0,57.0 556.0,57.0 557.0,57.0 558.0,57.0 559.0,56.0 560.0,56.0 561.0,56.0 562.0,55.0 563.0,55.0 564.0,55.0 565.0,54.0 566.0,54.0 567.0,54.0 568.0,53.0 569.0,53.0 570.0,52.0 571.0,51.0 572.0,50.0 573.0,50.0 574.0,49.0 575.0,48.0 576.0,47.0 577.0,46.0 578.0,46.0 579.0,46.0 580.0,45.0 581.0,45.0 582.0,44.0 583.0,43.0 584.0,43.0 585.0,42.0 586.0,42.0 587.0,42.0 588.0,41.0 589.0,41.0 590.0,41.0 591.0,40.0 592.0,40.0 593.0,39.0 594.0,38.0 595.0,38.0 596.0,37.0 597.0,37.0 598.0,36.0 599.0,36.0 600.0,35.0 601.0,35.0 602.0,35.0 603.0,34.0 604.0,34.0 605.0,34.0 606.0,33.0 607.0,32.0 608.0,32.0 609.0,32.0 610.0,31.0 611.0,31.0 612.0,31.0 613.0,30.0 614.0,30.0 615.0,29.0 616.0,28.0 617.0,28.0 618.0,27.0 619.0,27.0 620.0,27.0 621.0,26.0 622.0,26.0 623.0,26.0 624.0,25.0 625.0,24.0 626.0,24.0 627.0,24.0 628.0,23.0 629.0,23.0 630.0,23.0 631.0,23.0 632.0,23.0 633.0,22.0 634.0,21.0 635.0,21.0 636.0,21.0 637.0,20.0 638.0,20.0 639.0,19.0 640.0,19.0 641.0,19.0 642.0,18.0 643.0,18.0 644.0,17.0 645.0,17.0 646.0,16.0 647.0,16.0 648.0,15.0 649.0,15.0 650.0,14.0 651.0,14.0 652.0,13.0 653.0,12.0 654.0,12.0" fill="none" stroke="#fb46bc" />
	<polyline points="55.0,301.0 56.0,301.0 57.0,300.0 58.0,300.0 59.0,300.0 60.0,299.0 61.0,299.0 62.0,298.0 63.0,298.0 64.0,297.0 65.0,297.0 66.0,296.0 67.0,296.0 68.0,295.0 69.0,295.0 70.0,294.0 71.0,294.0 72.0,294.0 73.0,293.0 74.0,292.0 75.0,292.0 76.0,292.0 77.0,291.0 78.0,291.0 79.0,291.0 80.0,291.0 81.0,290.0 82.0,290.0 83.0,289.0 84.0,289.0 85.0,288.0 86.0,288.0 87.0,287.0 88.0,287.0 89.0,286.0 90.0,286.0 91.0,286.0 92.0,285.0 93.0,285.0 94.0,285.0 95.0,284.0 96.0,284.0 97.0,284.0 98.0,283.0 99.0,283.0 100.0,283.0 101.0,282.0 102.0,282.0 103.0,282.0 104.0,281.0 105.0,281.0 106.0,280.0 107.0,280.0 108.0,279.0 109.0,278.0 110.0,278.0 111.0,277.0 112.0,277.0 113.0,276.0 114.0,276.0 115.0,275.0 116.0,275.0 117.0,275.0 118.0,274.0 119.0,273.0 120.0,273.0 121.0,272.0 122.0,272.0 123.0,271.0 124.0,271.0 125.0,270.0 126.0,270.0 127.0,269.0 128.0,268.0 129.0,268.0 130.0,267.0 131.0,266.0 132.0,266.0 133.0,266.0 134.0,265.0 135.0,265.0 136.0,265.0 137.0,265.0 138.0,265.0 139.0,264.0 140.0,264.0 141.0,263.0 142.0,263.0 143.0,263.0 144.0,262.0 145.0,262.0 146.0,261.0 147.0,261.0 148.0,261.0 149.0,260.0 150.0,260.0 151.0,259.0 152.0,259.0 153.0,259.0 154.0,258.0 155.0,258.0 156.0,257.0 157.0,257.0 158.0,256.0 159.0,255.0 160.0,255.0 161.0,254.0 162.0,254.0 163.0,253.0 164.0,253.0 165.0,252.0 166.0,251.0 167.0,251.0 168.0,250.0 169.0,250.0 170.0,249.0 171.0,249.0 172.0,248.0 173.0,248.0 174.0,247.0 175.0,247.0 176.0,247.0 177.0,246.0 178.0,246.0 179.0,245.0 180.0,245.0 181.0,244.0 182.0,243.0 183.0,243.0 184.0,243.0 185.0,242.0 186.0,241.0 187.0,240.0 188.0,240.0 189.0,239.0 190.0,240.0 191.0,239.0 192.0,239.0 193.0,238.0 194.0,238.0 195.0,237.0 196.0,237.0 197.0,236.0 198.0,236.0 199.0,235.0 200.0,235.0 201.0,235.0 202.0,234.0 203.0,234.0 204.0,233.0 205.0,233.0 206.0,232.0 207.0,232.0 208.0,231.0 209.0,231.0 210.0,231.0 211.0,231.0 212.0,230.0 213.0,229.0 214.0,229.0 215.0,228.0 216.0,228.0 217.0,228.0 218.0,227.0 219.0,227.0 220.0,227.0 221.0,226.0 222.0,226.0 223.0,226.0 224.0,226.0 225.0,226.0 226.0,225.0 227.0,225.0 228.0,225.0 229.0,224.0 230.0,224.0 231.0,223.0 232.0,223.0 233.0,222.0 234.0,222.0 235.0,221.0 236.0,221.0 237.0,220.0 238.0,220.0 239.0,219.0 240.0,218.0 241.0,218.0 242.0,217.0 243.0,217.0 244.0,217.0 245.0,216.0 246.0,216.0 247.0,215.0 248.0,215.0 249.0,214.0 250.0,214.0 251.0,213.0 252.0,213.0 253.0,212.0 254.0,212.0 255.0,211.0 256.0,210.0 257.0,210.0 258.0,210.0 259.0,209.0 260.0,209.0 261.0,208.0 262.0,208.0 263.0,208.0 264.0,208.0 265.0,207.0 266.0,207.0 267.0,207.0 268.0,207.0 269.0,206.0 270.0,206.0 271.0,204.0 272.0,205.0 273.0,203.0 274.0,203.0 275.0,202.0 276.0,202.0 277.0,201.0 278.0,201.0 279.0,200.0 280.0,200.0 281.0,199.0 282.0,200.0 283.0,198.0 284.0,198.0 285.0,197.0 286.0,197.0 287.0,196.0 288.0,197.0 289.0,195.0 290.0,196.0 291.0,195.0 292.0,195.0 293.0,194.0 294.0,195.0 295.0,194.0 296.0,194.0 297.0,193.0 298.0,193.0 299.0,193.0 300.0,193.0 301.0,192.0 302.0,192.0 303.0,191.0 304.0,191.0 305.0,191.0 306.0,191.0 307.0,190.0 308.0,190.0 309.0,189.0 310.0,188.0 311.0,187.0 312.0,186.0 313.0,185.0 314.0,185.0 315.0,184.0 316.0,185.0 317.0,183.0 318.0,184.0 319.0,183.0 320.0,183.0 321.0,182.0 322.0,183.0 323.0,181.0 324.0,182.0 325.0,180.0 326.0,181.0 327.0,179.0 328.0,180.0 329.0,179.0 330.0,180.0 331.0,178.0 332.0,179.0 333.0,178.0 334.0,178.0 335.0,177.0 336.0,177.0 337.0,175.0 338.0,176.0 339.0,175.0 340.0,175.0 341.0,174.0 342.0,174.0 343.0,173.0 344.0,173.0 345.0,172.0 346.0,172.0 347.0,171.0 348.0,172.0 349.0,170.0 350.0,171.0 351.0,170.0 352.0,170.0 353.0,169.0 354.0,169.0 355.0,168.0 356.0,168.0 357.0,167.0 358.0,167.0 359.0,166.0 360.0,166.0 361.0,164.0 362.0,165.0 363.0,164.0 364.0,164.0 365.0,163.0 366.0,163.0 367.0,162.0 368.0,163.0 369.0,162.0 370.0,162.0 371.0,161.0 372.0,161.0 373.0,160.0 374.0,160.0 375.0,159.0 376.0,159.0 377.0,159.0 378.0,158.0 379.0,158.0 380.0,157.0 381.0,157.0 382.0,156.0 383.0,156.0 384.0,156.0 385.0,156.0 386.0,155.0 387.0,155.0 388.0,155.0 389.0,155.0 390.0,154.0 391.0,153.0 392.0,152.0 393.0,151.0 394.0,151.0 395.0,151.0 396.0,150.0 397.0,150.0 398.0,149.0 399.0,149.0 400.0,149.0 401.0,148.0 402.0,148.0 403.0,148.0 404.0,147.0 405.0,147.0 406.0,146.0 407.0,146.0 408.0,146.0 409.0,145.0 410.0,145.0 411.0,144.0 412.0,144.0 413.0,143.0 414.0,143.0 415.0,143.0 416.0,143.0 417.0,143.0 418.0,142.0 419.0,142.0 420.0,141.0 421.0,140.0 422.0,140.0 423.0,139.0 424.0,138.0 425.0,138.0 426.0,138.0 427.0,138.0 428.0,137.0 429.0,136.0 430.0,136.0 431.0,136.0 432.0,136.0 433.0,135.0 434.0,134.0 435.0,133.0 436.0,133.0 437.0,133.0 438.0,133.0 439.0,132.0 440.0,133.0 441.0,131.0 442.0,131.0 443.0,131.0 444.0,131.0 445.0,130.0 446.0,130.0 447.0,129.0 448.0,129.0 449.0,127.0 450.0,127.0 451.0,125.0 452.0,126.0 453.0,124.0 454.0,125.0 455.0,123.0 456.0,123.0 457.0,122.0 458.0,120.0 459.0,120.0 460.0,119.0 461.0,119.0 462.0,118.0 463.0,117.0 464.0,117.0 465.0,116.0 466.0,116.0 467.0,116.0 468.0,115.0 469.0,115.0 470.0,114.0 471.0,113.0 472.0,113.0 473.0,113.0 474.0,112.0 475.0,111.0 476.0,112.0 477.0,111.0 478.0,110.0 479.0,110.0 480.0,109.0 481.0,109.0 482.0,108.0 483.0,108.0 484.0,108.0 485.0,108.0 486.0,107.0 487.0,107.0 488.0,106.0 489.0,106.0 490.0,105.0 491.0,105.0 492.0,104.0 493.0,104.0 494.0,103.0 495.0,103.0 496.0,102.0 497.0,101.0 498.0,101.0 499.0,100.0 500.0,100.0 501.0,99.0 502.0,99.0 503.0,98.0 504.0,98.0 505.0,97.0 506.0,97.0 507.0,96.0 508.0,97.0 509.0,95.0 510.0,96.0 511.0,94.0 512.0,95.0 513.0,93.0 514.0,95.0 515.0,92.0 516.0,94.0 517.0,90.0 518.0,93.0 519.0,89.0 520.0,93.0 521.0,87.0 522.0,93.0 523.0,86.0 524.0,92.0 525.0,84.0 526.0,91.0 527.0,83.0 528.0,91.0 529.0,82.0 530.0,90.0 531.0,82.0 532.0,91.0 533.0,82.0 534.0,90.0 535.0,82.0 536.0,90.0 537.0,82.0 538.0,89.0 539.0,82.0 540.0,87.0 541.0,80.0 542.0,84.0 543.0,79.0 544.0,82.0 545.0,78.0 546.0,81.0 547.0,77.0 548.0,80.0 549.0,76.0 550.0,78.0 551.0,75.0 552.0,77.0 553.0,75.0 554.0,77.0 555.0,74.0 556.0,75.0 557.0,73.0 558.0,74.0 559.0,72.0 560.0,73.0 561.0,71.0 562.0,72.0 563.0,70.0 564.0,71.0 565.0,69.0 566.0,70.0 567.0,69.0 568.0,69.0 569.0,68.0 570.0,68.0 571.0,67.0 572.0,67.0 573.0,66.0 574.0,66.0 575.0,65.0 576.0,64.0 577.0,63.0 578.0,64.0 579.0,62.0 580.0,63.0 581.0,62.0 582.0,62.0 583.0,61.0 584.0,61.0 585.0,60.0 586.0,60.0 587.0,59.0 588.0,59.0 589.0,59.0 590.0,59.0 591.0,58.0 592.0,57.0 593.0,56.0 594.0,56.0 595.0,55.0 596.0,55.0 597.0,54.0 598.0,54.0 599.0,53.0 600.0,53.0 601.0,52.0 602.0,52.0 603.0,52.0 604.0,52.0 605.0,52.0 606.0,51.0 607.0,51.0 608.0,50.0 609.0,50.0 610.0,50.0 611.0,50.0 612.0,49.0 613.0,49.0 614.0,48.0 615.0,47.0 616.0,46.0 617.0,46.0 618.0,46.0 619.0,45.0 620.0,44.0 621.0,44.0 622.0,44.0 623.0,44.0 624.0,43.0 625.0,43.0 626.0,42.0 627.0,42.0 628.0,41.0 629.0,42.0 630.0,40.0 631.0,41.0 632.0,40.0 633.0,40.0 634.0,38.0 635.0,39.0 636.0,36.0 637.0,37.0 638.0,35.0 639.0,36.0 640.0,34.0 641.0,35.0 642.0,32.0 643.0,33.0 644.0,31.0 645.0,32.0 646.0,29.0 647.0,30.0 648.0,28.0 649.0,29.0 650.0,27.0 651.0,27.0 652.0,26.0 653.0,26.0 654.0,25.0" fill="none" stroke="#0000ff" />
	<polyline points="55.0,289.0 56.0,289.0 57.0,289.0 58.0,289.0 59.0,288.0 60.0,288.0 61.0,288.0 62.0,287.0 63.0,287.0 64.0,286.0 65.0,285.0 66.0,285.0 67.0,285.0 68.0,284.0 69.0,284.0 70.0,284.0 71.0,283.0 72.0,283.0 73.0,282.0 74.0,282.0 75.0,281.0 76.0,281.0 77.0,281.0 78.0,280.0 79.0,280.0 80.0,280.0 81.0,280.0 82.0,279.0 83.0,279.0 84.0,278.0 85.0,278.0 86.0,278.0 87.0,278.0 88.0,276.0 89.0,276.0 90.0,275.0 91.0,275.0 92.0,274.0 93.0,273.0 94.0,273.0 95.0,272.0 96.0,271.0 97.0,271.0 98.0,271.0 99.0,271.0 100.0,270.0 101.0,270.0 102.0,270.0 103.0,270.0 104.0,270.0 105.0,269.0 106.0,269.0 107.0,268.0 108.0,268.0 109.0,267.0 110.0,267.0 111.0,266.0 112.0,266.0 113.0,265.0 114.0,264.0 115.0,263.0 116.0,263.0 117.0,262.0 118.0,262.0 119.0,262.0 120.0,261.0 121.0,261.0 122.0,261.0 123.0,260.0 124.0,260.0 125.0,260.0 126.0,259.0 127.0,258.0 128.0,257.0 129.0,257.0 130.0,256.0 131.0,255.0 132.0,255.0 133.0,255.0 134.0,255.0 135.0,255.0 136.0,254.0 137.0,254.0 138.0,254.0 139.0,254.0 140.0,253.0 141.0,253.0 142.0,252.0 143.0,251.0 144.0,250.0 145.0,250.0 146.0,250.0 147.0,249.0 148.0,249.0 149.0,249.0 150.0,248.0 151.0,248.0 152.0,248.0 153.0,247.0 154.0,247.0 155.0,246.0 156.0,245.0 157.0,244.0 158.0,244.0 159.0,243.0 160.0,242.0 161.0,242.0 162.0,242.0 163.0,241.0 164.0,241.0 165.0,240.0 166.0,240.0 167.0,239.0 168.0,239.0 169.0,238.0 170.0,238.0 171.0,238.0 172.0,237.0 173.0,236.0 174.0,236.0 175.0,236.0 176.0,236.0 177.0,235.0 178.0,235.0 179.0,235.0 180.0,235.0 181.0,234.0 182.0,234.0 183.0,233.0 184.0,233.0 185.0,232.0 186.0,232.0 187.0,232.0 188.0,231.0 189.0,231.0 190.0,231.0 191.0,230.0 192.0,230.0 193.0,230.0 194.0,229.0 195.0,229.0 196.0,229.0 197.0,228.0 198.0,227.0 199.0,227.0 200.0,226.0 201.0,225.0 202.0,225.0 203.0,224.0 204.0,224.0 205.0,223.0 206.0,223.0 207.0,223.0 208.0,222.0 209.0,222.0 210.0,221.0 211.0,221.0 212.0,220.0 213.0,220.0 214.0,220.0 215.0,219.0 216.0,219.0 217.0,218.0 218.0,218.0 219.0,218.0 220.0,217.0 221.0,217.0 222.0,216.0 223.0,216.0 224.0,215.0 225.0,214.0 226.0,213.0 227.0,212.0 228.0,212.0 229.0,210.0 230.0,210.0 231.0,210.0 232.0,210.0 233.0,209.0 234.0,209.0 235.0,208.0 236.0,207.0 237.0,207.0 238.0,207.0 239.0,206.0 240.0,206.0 241.0,206.0 242.0,206.0 243.0,205.0 244.0,204.0 245.0,204.0 246.0,204.0 247.0,204.0 248.0,203.0 249.0,203.0 250.0,203.0 251.0,202.0 252.0,201.0 253.0,200.0 254.0,200.0 255.0,200.0 256.0,200.0 257.0,199.0 258.0,199.0 259.0,199.0 260.0,198.0 261.0,198.0 262.0,198.0 263.0,198.0 264.0,197.0 265.0,197.0 266.0,196.0 267.0,195.0 268.0,195.0 269.0,195.0 270.0,195.0 271.0,195.0 272.0,194.0 273.0,193.0 274.0,193.0 275.0,193.0 276.0,192.0 277.0,192.0 278.0,192.0 279.0,192.0 280.0,191.0 281.0,191.0 282.0,191.0 283.0,191.0 284.0,191.0 285.0,190.0 286.0,190.0 287.0,189.0 288.0,188.0 289.0,187.0 290.0,186.0 291.0,184.0 292.0,183.0 293.0,183.0 294.0,181.0 295.0,180.0 296.0,180.0 297.0,179.0 298.0,179.0 299.0,178.0 300.0,178.0 301.0,177.0 302.0,177.0 303.0,177.0 304.0,176.0 305.0,176.0 306.0,175.0 307.0,175.0 308.0,174.0 309.0,174.0 310.0,174.0 311.0,173.0 312.0,172.0 313.0,172.0 314.0,172.0 315.0,172.0 316.0,172.0 317.0,172.0 318.0,171.0 319.0,171.0 320.0,170.0 321.0,170.0 322.0,170.0 323.0,169.0 324.0,169.0 325.0,169.0 326.0,168.0 327.0,167.0 328.0,167.0 329.0,167.0 330.0,167.0 331.0,166.0 332.0,165.0 333.0,165.0 334.0,164.0 335.0,164.0 336.0,163.0 337.0,163.0 338.0,163.0 339.0,162.0 340.0,162.0 341.0,161.0 342.0,159.0 343.0,158.0 344.0,157.0 345.0,157.0 346.0,156.0 347.0,156.0 348.0,155.0 349.0,155.0 350.0,155.0 351.0,155.0 352.0,154.0 353.0,154.0 354.0,153.0 355.0,153.0 356.0,152.0 357.0,151.0 358.0,151.0 359.0,151.0 360.0,151.0 361.0,150.0 362.0,149.0 363.0,149.0 364.0,148.0 365.0,148.0 366.0,147.0 367.0,147.0 368.0,147.0 369.0,146.0 370.0,145.0 371.0,145.0 372.0,144.0 373.0,143.0 374.0,143.0 375.0,142.0 376.0,142.0 377.0,142.0 378.0,141.0 379.0,140.0 380.0,140.0 381.0,140.0 382.0,140.0 383.0,140.0 384.0,139.0 385.0,138.0 386.0,138.0 387.0,138.0 388.0,137.0 389.0,137.0 390.0,136.0 391.0,135.0 392.0,135.0 393.0,134.0 394.0,134.0 395.0,134.0 396.0,134.0 397.0,134.0 398.0,134.0 399.0,133.0 400.0,133.0 401.0,132.0 402.0,131.0 403.0,131.0 404.0,130.0 405.0,130.0 406.0,130.0 407.0,129.0 408.0,129.0 409.0,129.0 410.0,128.0 411.0,127.0 412.0,127.0 413.0,126.0 414.0,126.0 415.0,125.0 416.0,125.0 417.0,124.0 418.0,124.0 419.0,123.0 420.0,122.0 421.0,122.0 422.0,122.0 423.0,121.0 424.0,121.0 425.0,120.0 426.0,120.0 427.0,120.0 428.0,120.0 429.0,120.0 430.0,119.0 431.0,119.0 432.0,119.0 433.0,118.0 434.0,118.0 435.0,118.0 436.0,117.0 437.0,117.0 438.0,117.0 439.0,116.0 440.0,116.0 441.0,116.0 442.0,115.0 443.0,115.0 444.0,114.0 445.0,113.0 446.0,112.0 447.0,112.0 448.0,111.0 449.0,111.0 450.0,110.0 451.0,110.0 452.0,110.0 453.0,109.0 454.0,109.0 455.0,108.0 456.0,107.0 457.0,106.0 458.0,106.0 459.0,105.0 460.0,105.0 461.0,105.0 462.0,105.0 463.0,104.0 464.0,104.0 465.0,103.0 466.0,103.0 467.0,102.0 468.0,102.0 469.0,101.0 470.0,101.0 471.0,100.0 472.0,100.0 473.0,99.0 474.0,99.0 475.0,99.0 476.0,96.0 477.0,96.0 478.0,95.0 479.0,95.0 480.0,93.0 481.0,93.0 482.0,92.0 483.0,92.0 484.0,92.0 485.0,91.0 486.0,90.0 487.0,90.0 488.0,90.0 489.0,90.0 490.0,89.0 491.0,89.0 492.0,89.0 493.0,88.0 494.0,88.0 495.0,88.0 496.0,88.0 497.0,88.0 498.0,87.0 499.0,87.0 500.0,86.0 501.0,86.0 502.0,86.0 503.0,85.0 504.0,84.0 505.0,84.0 506.0,83.0 507.0,82.0 508.0,82.0 509.0,81.0 510.0,81.0 511.0,81.0 512.0,80.0 513.0,80.0 514.0,80.0 515.0,79.0 516.0,79.0 517.0,78.0 518.0,78.0 519.0,78.0 520.0,77.0 521.0,76.0 522.0,76.0 523.0,75.0 524.0,75.0 525.0,75.0 526.0,75.0 527.0,74.0 528.0,73.0 529.0,73.0 530.0,72.0 531.0,72.0 532.0,71.0 533.0,71.0 534.0,71.0 535.0,70.0 536.0,70.0 537.0,70.0 538.0,69.0 539.0,69.0 540.0,68.0 541.0,68.0 542.0,67.0 543.0,67.0 544.0,66.0 545.0,65.0 546.0,64.0 547.0,64.0 548.0,64.0 549.0,63.0 550.0,63.0 551.0,62.0 552.0,62.0 553.0,61.0 554.0,61.0 555.0,60.0 556.0,59.0 557.0,59.0 558.0,58.0 559.0,57.0 560.0,57.0 561.0,57.0 562.0,57.0 563.0,56.0 564.0,56.0 565.0,55.0 566.0,55.0 567.0,54.0 568.0,54.0 569.0,53.0 570.0,53.0 571.0,53.0 572.0,52.0 573.0,52.0 574.0,52.0 575.0,51.0 576.0,51.0 577.0,51.0 578.0,50.0 579.0,50.0 580.0,50.0 581.0,49.0 582.0,48.0 583.0,47.0 584.0,46.0 585.0,46.0 586.0,45.0 587.0,44.0 588.0,44.0 589.0,43.0 590.0,42.0 591.0,42.0 592.0,41.0 593.0,41.0 594.0,40.0 595.0,40.0 596.0,40.0 597.0,39.0 598.0,39.0 599.0,37.0 600.0,37.0 601.0,36.0 602.0,36.0 603.0,35.0 604.0,35.0 605.0,35.0 606.0,34.0 607.0,34.0 608.0,34.0 609.0,34.0 610.0,33.0 611.0,33.0 612.0,32.0 613.0,32.0 614.0,32.0 615.0,32.0 616.0,31.0 617.0,30.0 618.0,29.0 619.0,28.0 620.0,28.0 621.0,27.0 622.0,27.0 623.0,26.0 624.0,25.0 625.0,25.0 626.0,24.0 627.0,23.0 628.0,22.0 629.0,22.0 630.0,21.0 631.0,21.0 632.0,20.0 633.0,20.0 634.0,19.0 635.0,18.0 636.0,18.0 637.0,18.0 638.0,18.0 639.0,18.0 640.0,17.0 641.0,17.0 642.0,17.0 643.0,17.0 644.0,16.0 645.0,16.0 646.0,16.0 647.0,15.0 648.0,14.0 649.0,14.0 650.0,13.0 651.0,12.0 652.0,12.0 653.0,12.0 654.0,12.0" fill="none" stroke="#00bfff" />
	<polyline points="55.0,291.0 56.0,290.0 57.0,290.0 58.0,290.0 59.0,289.0 60.0,289.0 61.0,289.0 62.0,288.0 63.0,287.0 64.0,286.0 65.0,286.0 66.0,286.0 67.0,285.0 68.0,285.0 69.0,284.0 70.0,284.0 71.0,283.0 72.0,283.0 73.0,282.0 74.0,281.0 75.0,281.0 76.0,281.0 77.0,280.0 78.0,280.0 79.0,280.0 80.0,279.0 81.0,279.0 82.0,278.0 83.0,278.0 84.0,277.0 85.0,277.0 86.0,276.0 87.0,276.0 88.0,275.0 89.0,274.0 90.0,274.0 91.0,274.0 92.0,273.0 93.0,273.0 94.0,273.0 95.0,272.0 96.0,272.0 97.0,272.0 98.0,271.0 99.0,271.0 100.0,270.0 101.0,269.0 102.0,269.0 103.0,269.0 104.0,268.0 105.0,268.0 106.0,268.0 107.0,268.0 108.0,267.0 109.0,266.0 110.0,266.0 111.0,265.0 112.0,264.0 113.0,264.0 114.0,263.0 115.0,262.0 116.0,262.0 117.0,261.0 118.0,260.0 119.0,260.0 120.0,259.0 121.0,259.0 122.0,258.0 123.0,257.0 124.0,257.0 125.0,257.0 126.0,256.0 127.0,256.0 128.0,256.0 129.0,256.0 130.0,255.0 131.0,255.0 132.0,254.0 133.0,254.0 134.0,254.0 135.0,253.0 136.0,253.0 137.0,252.0 138.0,252.0 139.0,252.0 140.0,252.0 141.0,251.0 142.0,251.0 143.0,250.0 144.0,250.0 145.0,250.0 146.0,249.0 147.0,249.0 148.0,248.0 149.0,248.0 150.0,247.0 151.0,247.0 152.0,247.0 153.0,247.0 154.0,247.0 155.0,246.0 156.0,246.0 157.0,245.0 158.0,245.0 159.0,244.0 160.0,244.0 161.0,243.0 162.0,243.0 163.0,242.0 164.0,242.0 165.0,241.0 166.0,241.0 167.0,240.0 168.0,240.0 169.0,240.0 170.0,240.0 171.0,239.0 172.0,238.0 173.0,236.0 174.0,235.0 175.0,235.0 176.0,235.0 177.0,234.0 178.0,234.0 179.0,234.0 180.0,233.0 181.0,233.0 182.0,233.0 183.0,232.0 184.0,232.0 185.0,231.0 186.0,230.0 187.0,230.0 188.0,230.0 189.0,230.0 190.0,229.0 191.0,229.0 192.0,228.0 193.0,228.0 194.0,227.0 195.0,227.0 196.0,227.0 197.0,226.0 198.0,225.0 199.0,225.0 200.0,225.0 201.0,224.0 202.0,223.0 203.0,223.0 204.0,222.0 205.0,222.0 206.0,221.0 207.0,220.0 208.0,220.0 209.0,219.0 210.0,219.0 211.0,219.0 212.0,218.0 213.0,218.0 214.0,217.0 215.0,217.0 216.0,217.0 217.0,217.0 218.0,217.0 219.0,217.0 220.0,216.0 221.0,215.0 222.0,215.0 223.0,214.0 224.0,213.0 225.0,213.0 226.0,213.0 227.0,212.0 228.0,212.0 229.0,212.0 230.0,212.0 231.0,212.0 232.0,212.0 233.0,211.0 234.0,210.0 235.0,210.0 236.0,209.0 237.0,209.0 238.0,209.0 239.0,209.0 240.0,209.0 241.0,208.0 242.0,207.0 243.0,206.0 244.0,205.0 245.0,204.0 246.0,203.0 247.0,203.0 248.0,203.0 249.0,202.0 250.0,202.0 251.0,202.0 252.0,201.0 253.0,201.0 254.0,201.0 255.0,200.0 256.0,198.0 257.0,197.0 258.0,196.0 259.0,196.0 260.0,195.0 261.0,195.0 262.0,195.0 263.0,194.0 264.0,193.0 265.0,193.0 266.0,193.0 267.0,192.0 268.0,192.0 269.0,192.0 270.0,191.0 271.0,191.0 272.0,191.0 273.0,191.0 274.0,191.0 275.0,191.0 276.0,190.0 277.0,190.0 278.0,190.0 279.0,189.0 280.0,189.0 281.0,188.0 282.0,187.0 283.0,187.0 284.0,187.0 285.0,187.0 286.0,187.0 287.0,186.0 288.0,186.0 289.0,186.0 290.0,186.0 291.0,185.0 292.0,185.0 293.0,184.0 294.0,183.0 295.0,183.0 296.0,182.0 297.0,180.0 298.0,179.0 299.0,179.0 300.0,178.0 301.0,178.0 302.0,177.0 303.0,176.0 304.0,176.0 305.0,176.0 306.0,176.0 307.0,175.0 308.0,175.0 309.0,175.0 310.0,174.0 311.0,173.0 312.0,173.0 313.0,172.0 314.0,172.0 315.0,171.0 316.0,170.0 317.0,169.0 318.0,169.0 319.0,169.0 320.0,169.0 321.0,168.0 322.0,168.0 323.0,167.0 324.0,166.0 325.0,166.0 326.0,165.0 327.0,164.0 328.0,163.0 329.0,163.0 330.0,163.0 331.0,162.0 332.0,161.0 333.0,161.0 334.0,161.0 335.0,160.0 336.0,160.0 337.0,160.0 338.0,160.0 339.0,159.0 340.0,159.0 341.0,158.0 342.0,158.0 343.0,158.0 344.0,158.0 345.0,158.0 346.0,157.0 347.0,156.0 348.0,156.0 349.0,155.0 350.0,155.0 351.0,154.0 352.0,154.0 353.0,154.0 354.0,153.0 355.0,153.0 356.0,152.0 357.0,151.0 358.0,151.0 359.0,150.0 360.0,150.0 361.0,150.0 362.0,149.0 363.0,149.0 364.0,149.0 365.0,148.0 366.0,148.0 367.0,148.0 368.0,148.0 369.0,148.0 370.0,147.0 371.0,147.0 372.0,147.0 373.0,146.0 374.0,146.0 375.0,145.0 376.0,144.0 377.0,144.0 378.0,143.0 379.0,143.0 380.0,143.0 381.0,142.0 382.0,141.0 383.0,141.0 384.0,141.0 385.0,141.0 386.0,141.0 387.0,140.0 388.0,139.0 389.0,139.0 390.0,139.0 391.0,139.0 392.0,139.0 393.0,138.0 394.0,138.0 395.0,137.0 396.0,137.0 397.0,137.0 398.0,137.0 399.0,135.0 400.0,134.0 401.0,134.0 402.0,134.0 403.0,133.0 404.0,132.0 405.0,132.0 406.0,131.0 407.0,131.0 408.0,131.0 409.0,130.0 410.0,130.0 411.0,129.0 412.0,127.0 413.0,126.0 414.0,125.0 415.0,125.0 416.0,125.0 417.0,125.0 418.0,125.0 419.0,124.0 420.0,123.0 421.0,123.0 422.0,123.0 423.0,123.0 424.0,122.0 425.0,122.0 426.0,121.0 427.0,121.0 428.0,121.0 429.0,120.0 430.0,120.0 431.0,119.0 432.0,118.0 433.0,118.0 434.0,117.0 435.0,116.0 436.0,114.0 437.0,113.0 438.0,112.0 439.0,112.0 440.0,111.0 441.0,111.0 442.0,110.0 443.0,110.0 444.0,109.0 445.0,109.0 446.0,108.0 447.0,108.0 448.0,108.0 449.0,107.0 450.0,107.0 451.0,107.0 452.0,107.0 453.0,106.0 454.0,106.0 455.0,105.0 456.0,105.0 457.0,104.0 458.0,104.0 459.0,103.0 460.0,102.0 461.0,102.0 462.0,101.0 463.0,101.0 464.0,101.0 465.0,100.0 466.0,99.0 467.0,99.0 468.0,99.0 469.0,99.0 470.0,99.0 471.0,98.0 472.0,98.0 473.0,97.0 474.0,96.0 475.0,96.0 476.0,95.0 477.0,94.0 478.0,94.0 479.0,93.0 480.0,92.0 481.0,91.0 482.0,91.0 483.0,91.0 484.0,90.0 485.0,89.0 486.0,89.0 487.0,88.0 488.0,88.0 489.0,87.0 490.0,87.0 491.0,87.0 492.0,86.0 493.0,86.0 494.0,85.0 495.0,85.0 496.0,85.0 497.0,84.0 498.0,83.0 499.0,83.0 500.0,83.0 501.0,82.0 502.0,82.0 503.0,82.0 504.0,82.0 505.0,81.0 506.0,81.0 507.0,81.0 508.0,81.0 509.0,80.0 510.0,80.0 511.0,79.0 512.0,79.0 513.0,78.0 514.0,78.0 515.0,77.0 516.0,77.0 517.0,76.0 518.0,76.0 519.0,75.0 520.0,75.0 521.0,75.0 522.0,74.0 523.0,73.0 524.0,73.0 525.0,73.0 526.0,72.0 527.0,72.0 528.0,72.0 529.0,72.0 530.0,72.0 531.0,71.0 532.0,71.0 533.0,70.0 534.0,70.0 535.0,69.0 536.0,69.0 537.0,69.0 538.0,68.0 539.0,68.0 540.0,67.0 541.0,67.0 542.0,66.0 543.0,66.0 544.0,66.0 545.0,65.0 546.0,65.0 547.0,64.0 548.0,63.0 549.0,62.0 550.0,62.0 551.0,61.0 552.0,61.0 553.0,60.0 554.0,60.0 555.0,60.0 556.0,60.0 557.0,59.0 558.0,59.0 559.0,58.0 560.0,58.0 561.0,58.0 562.0,57.0 563.0,56.0 564.0,56.0 565.0,55.0 566.0,55.0 567.0,55.0 568.0,54.0 569.0,54.0 570.0,53.0 571.0,53.0 572.0,53.0 573.0,52.0 574.0,52.0 575.0,51.0 576.0,51.0 577.0,50.0 578.0,50.0 579.0,50.0 580.0,50.0 581.0,50.0 582.0,50.0 583.0,50.0 584.0,46.0 585.0,45.0 586.0,45.0 587.0,44.0 588.0,43.0 589.0,42.0 590.0,42.0 591.0,41.0 592.0,41.0 593.0,41.0 594.0,41.0 595.0,41.0 596.0,41.0 597.0,41.0 598.0,40.0 599.0,40.0 600.0,40.0 601.0,39.0 602.0,39.0 603.0,38.0 604.0,38.0 605.0,37.0 606.0,36.0 607.0,36.0 608.0,35.0 609.0,34.0 610.0,33.0 611.0,33.0 612.0,32.0 613.0,32.0 614.0,32.0 615.0,31.0 616.0,31.0 617.0,30.0 618.0,30.0 619.0,29.0 620.0,28.0 621.0,27.0 622.0,27.0 623.0,26.0 624.0,26.0 625.0,25.0 626.0,25.0 627.0,24.0 628.0,24.0 629.0,24.0 630.0,23.0 631.0,22.0 632.0,22.0 633.0,22.0 634.0,21.0 635.0,21.0 636.0,20.0 637.0,20.0 638.0,19.0 639.0,18.0 640.0,17.0 641.0,17.0 642.0,17.0 643.0,16.0 644.0,16.0 645.0,15.0 646.0,15.0 647.0,15.0 648.0,14.0 649.0,14.0 650.0,13.0 651.0,13.0 652.0,12.0 653.0,12.0 654.0,12.0" fill="none" stroke="#4876ff" />
	<polyline points="55.0,302.0 56.0,301.0 57.0,301.0 58.0,300.0 59.0,300.0 60.0,300.0 61.0,299.0 62.0,299.0 63.0,298.0 64.0,298.0 65.0,298.0 66.0,297.0 67.0,297.0 68.0,297.0 69.0,296.0 70.0,296.0 71.0,296.0 72.0,295.0 73.0,295.0 74.0,295.0 75.0,294.0 76.0,294.0 77.0,293.0 78.0,293.0 79.0,292.0 80.0,292.0 81.0,292.0 82.0,291.0 83.0,291.0 84.0,290.0 85.0,289.0 86.0,289.0 87.0,289.0 88.0,288.0 89.0,288.0 90.0,287.0 91.0,287.0 92.0,286.0 93.0,285.0 94.0,285.0 95.0,284.0 96.0,284.0 97.0,283.0 98.0,283.0 99.0,282.0 100.0,282.0 101.0,282.0 102.0,281.0 103.0,281.0 104.0,280.0 105.0,280.0 106.0,279.0 107.0,278.0 108.0,278.0 109.0,277.0 110.0,277.0 111.0,276.0 112.0,276.0 113.0,275.0 114.0,275.0 115.0,274.0 116.0,274.0 117.0,273.0 118.0,273.0 119.0,273.0 120.0,272.0 121.0,272.0 122.0,271.0 123.0,271.0 124.0,271.0 125.0,271.0 126.0,270.0 127.0,270.0 128.0,270.0 129.0,269.0 130.0,268.0 131.0,268.0 132.0,267.0 133.0,267.0 134.0,266.0 135.0,266.0 136.0,265.0 137.0,265.0 138.0,264.0 139.0,263.0 140.0,263.0 141.0,263.0 142.0,262.0 143.0,262.0 144.0,262.0 145.0,261.0 146.0,261.0 147.0,260.0 148.0,259.0 149.0,259.0 150.0,258.0 151.0,258.0 152.0,257.0 153.0,257.0 154.0,256.0 155.0,256.0 156.0,255.0 157.0,255.0 158.0,254.0 159.0,254.0 160.0,253.0 161.0,253.0 162.0,252.0 163.0,252.0 164.0,252.0 165.0,251.0 166.0,250.0 167.0,250.0 168.0,249.0 169.0,249.0 170.0,248.0 171.0,248.0 172.0,247.0 173.0,247.0 174.0,246.0 175.0,246.0 176.0,246.0 177.0,245.0 178.0,245.0 179.0,244.0 180.0,244.0 181.0,244.0 182.0,244.0 183.0,243.0 184.0,243.0 185.0,243.0 186.0,242.0 187.0,242.0 188.0,241.0 189.0,241.0 190.0,241.0 191.0,240.0 192.0,240.0 193.0,239.0 194.0,239.0 195.0,238.0 196.0,238.0 197.0,238.0 198.0,237.0 199.0,237.0 200.0,237.0 201.0,236.0 202.0,235.0 203.0,235.0 204.0,235.0 205.0,234.0 206.0,234.0 207.0,234.0 208.0,233.0 209.0,233.0 210.0,233.0 211.0,232.0 212.0,232.0 213.0,232.0 214.0,232.0 215.0,231.0 216.0,231.0 217.0,230.0 218.0,230.0 219.0,229.0 220.0,228.0 221.0,228.0 222.0,228.0 223.0,227.0 224.0,227.0 225.0,226.0 226.0,225.0 227.0,225.0 228.0,224.0 229.0,224.0 230.0,223.0 231.0,223.0 232.0,222.0 233.0,223.0 234.0,221.0 235.0,220.0 236.0,219.0 237.0,219.0 238.0,219.0 239.0,219.0 240.0,218.0 241.0,218.0 242.0,217.0 243.0,217.0 244.0,216.0 245.0,215.0 246.0,215.0 247.0,214.0 248.0,214.0 249.0,213.0 250.0,213.0 251.0,213.0 252.0,212.0 253.0,212.0 254.0,212.0 255.0,211.0 256.0,211.0 257.0,210.0 258.0,210.0 259.0,210.0 260.0,210.0 261.0,209.0 262.0,209.0 263.0,208.0 264.0,208.0 265.0,208.0 266.0,207.0 267.0,207.0 268.0,206.0 269.0,206.0 270.0,206.0 271.0,205.0 272.0,205.0 273.0,205.0 274.0,204.0 275.0,204.0 276.0,203.0 277.0,203.0 278.0,202.0 279.0,202.0 280.0,201.0 281.0,201.0 282.0,201.0 283.0,201.0 284.0,200.0 285.0,200.0 286.0,200.0 287.0,200.0 288.0,199.0 289.0,198.0 290.0,198.0 291.0,198.0 292.0,198.0 293.0,198.0 294.0,197.0 295.0,197.0 296.0,196.0 297.0,195.0 298.0,195.0 299.0,194.0 300.0,194.0 301.0,192.0 302.0,192.0 303.0,190.0 304.0,190.0 305.0,189.0 306.0,188.0 307.0,187.0 308.0,188.0 309.0,186.0 310.0,187.0 311.0,185.0 312.0,186.0 313.0,184.0 314.0,185.0 315.0,184.0 316.0,184.0 317.0,183.0 318.0,183.0 319.0,182.0 320.0,182.0 321.0,182.0 322.0,182.0 323.0,181.0 324.0,181.0 325.0,180.0 326.0,180.0 327.0,179.0 328.0,180.0 329.0,178.0 330.0,179.0 331.0,178.0 332.0,178.0 333.0,177.0 334.0,177.0 335.0,176.0 336.0,176.0 337.0,175.0 338.0,176.0 339.0,175.0 340.0,175.0 341.0,174.0 342.0,174.0 343.0,173.0 344.0,174.0 345.0,172.0 346.0,173.0 347.0,171.0 348.0,172.0 349.0,170.0 350.0,171.0 351.0,169.0 352.0,170.0 353.0,168.0 354.0,170.0 355.0,168.0 356.0,169.0 357.0,167.0 358.0,168.0 359.0,166.0 360.0,167.0 361.0,165.0 362.0,165.0 363.0,164.0 364.0,165.0 365.0,163.0 366.0,164.0 367.0,162.0 368.0,162.0 369.0,161.0 370.0,161.0 371.0,160.0 372.0,160.0 373.0,158.0 374.0,159.0 375.0,157.0 376.0,157.0 377.0,156.0 378.0,156.0 379.0,155.0 380.0,155.0 381.0,154.0 382.0,154.0 383.0,153.0 384.0,154.0 385.0,152.0 386.0,153.0 387.0,151.0 388.0,152.0 389.0,150.0 390.0,150.0 391.0,149.0 392.0,149.0 393.0,148.0 394.0,148.0 395.0,146.0 396.0,148.0 397.0,145.0 398.0,147.0 399.0,145.0 400.0,146.0 401.0,144.0 402.0,145.0 403.0,143.0 404.0,144.0 405.0,142.0 406.0,142.0 407.0,140.0 408.0,141.0 409.0,139.0 410.0,140.0 411.0,139.0 412.0,141.0 413.0,140.0 414.0,140.0 415.0,139.0 416.0,140.0 417.0,139.0 418.0,140.0 419.0,139.0 420.0,139.0 421.0,138.0 422.0,138.0 423.0,137.0 424.0,138.0 425.0,136.0 426.0,137.0 427.0,135.0 428.0,136.0 429.0,133.0 430.0,135.0 431.0,132.0 432.0,134.0 433.0,131.0 434.0,133.0 435.0,131.0 436.0,133.0 437.0,130.0 438.0,132.0 439.0,129.0 440.0,131.0 441.0,127.0 442.0,129.0 443.0,126.0 444.0,129.0 445.0,126.0 446.0,128.0 447.0,125.0 448.0,126.0 449.0,123.0 450.0,124.0 451.0,121.0 452.0,122.0 453.0,119.0 454.0,121.0 455.0,119.0 456.0,121.0 457.0,119.0 458.0,120.0 459.0,118.0 460.0,119.0 461.0,117.0 462.0,119.0 463.0,117.0 464.0,118.0 465.0,116.0 466.0,117.0 467.0,115.0 468.0,116.0 469.0,114.0 470.0,114.0 471.0,113.0 472.0,113.0 473.0,113.0 474.0,113.0 475.0,112.0 476.0,112.0 477.0,111.0 478.0,111.0 479.0,111.0 480.0,112.0 481.0,110.0 482.0,110.0 483.0,108.0 484.0,108.0 485.0,107.0 486.0,108.0 487.0,106.0 488.0,108.0 489.0,106.0 490.0,106.0 491.0,104.0 492.0,104.0 493.0,102.0 494.0,103.0 495.0,101.0 496.0,102.0 497.0,99.0 498.0,102.0 499.0,98.0 500.0,101.0 501.0,97.0 502.0,101.0 503.0,96.0 504.0,101.0 505.0,96.0 506.0,101.0 507.0,94.0 508.0,100.0 509.0,93.0 510.0,99.0 511.0,92.0 512.0,99.0 513.0,91.0 514.0,98.0 515.0,89.0 516.0,97.0 517.0,89.0 518.0,97.0 519.0,88.0 520.0,97.0 521.0,87.0 522.0,94.0 523.0,87.0 524.0,93.0 525.0,88.0 526.0,91.0 527.0,88.0 528.0,90.0 529.0,88.0 530.0,88.0 531.0,86.0 532.0,86.0 533.0,85.0 534.0,84.0 535.0,84.0 536.0,83.0 537.0,84.0 538.0,83.0 539.0,84.0 540.0,82.0 541.0,84.0 542.0,81.0 543.0,82.0 544.0,80.0 545.0,81.0 546.0,78.0 547.0,79.0 548.0,77.0 549.0,78.0 550.0,77.0 551.0,78.0 552.0,77.0 553.0,77.0 554.0,76.0 555.0,76.0 556.0,75.0 557.0,75.0 558.0,74.0 559.0,74.0 560.0,73.0 561.0,73.0 562.0,73.0 563.0,73.0 564.0,71.0 565.0,72.0 566.0,70.0 567.0,71.0 568.0,70.0 569.0,70.0 570.0,69.0 571.0,69.0 572.0,68.0 573.0,68.0 574.0,67.0 575.0,67.0 576.0,67.0 577.0,67.0 578.0,67.0 579.0,66.0 580.0,66.0 581.0,65.0 582.0,64.0 583.0,64.0 584.0,63.0 585.0,63.0 586.0,62.0 587.0,61.0 588.0,61.0 589.0,60.0 590.0,59.0 591.0,60.0 592.0,59.0 593.0,59.0 594.0,58.0 595.0,58.0 596.0,57.0 597.0,57.0 598.0,56.0 599.0,57.0 600.0,55.0 601.0,54.0 602.0,52.0 603.0,52.0 604.0,50.0 605.0,52.0 606.0,50.0 607.0,52.0 608.0,49.0 609.0,51.0 610.0,48.0 611.0,51.0 612.0,47.0 613.0,50.0 614.0,45.0 615.0,48.0 616.0,43.0 617.0,47.0 618.0,41.0 619.0,48.0 620.0,40.0 621.0,48.0 622.0,39.0 623.0,48.0 624.0,38.0 625.0,48.0 626.0,36.0 627.0,48.0 628.0,35.0 629.0,48.0 630.0,35.0 631.0,46.0 632.0,36.0 633.0,43.0 634.0,36.0 635.0,40.0 636.0,36.0 637.0,38.0 638.0,35.0 639.0,36.0 640.0,34.0 641.0,35.0 642.0,34.0 643.0,34.0 644.0,32.0 645.0,32.0 646.0,31.0 647.0,31.0 648.0,30.0 649.0,30.0 650.0,29.0 651.0,29.0 652.0,28.0 653.0,29.0 654.0,28.0" fill="none" stroke="#aeeeee" />
	<polyline points="55.0,291.0 56.0,291.0 57.0,291.0 58.0,290.0 59.0,289.0 60.0,289.0 61.0,288.0 62.0,288.0 63.0,288.0 64.0,287.0 65.0,287.0 66.0,286.0 67.0,286.0 68.0,285.0 69.0,285.0 70.0,284.0 71.0,283.0 72.0,282.0 73.0,282.0 74.0,282.0 75.0,281.0 76.0,281.0 77.0,280.0 78.0,280.0 79.0,280.0 80.0,279.0 81.0,279.0 82.0,278.0 83.0,278.0 84.0,277.0 85.0,276.0 86.0,276.0 87.0,275.0 88.0,275.0 89.0,275.0 90.0,274.0 91.0,273.0 92.0,273.0 93.0,273.0 94.0,272.0 95.0,272.0 96.0,271.0 97.0,271.0 98.0,271.0 99.0,270.0 100.0,270.0 101.0,269.0 102.0,269.0 103.0,269.0 104.0,268.0 105.0,268.0 106.0,267.0 107.0,267.0 108.0,266.0 109.0,266.0 110.0,265.0 111.0,265.0 112.0,264.0 113.0,263.0 114.0,263.0 115.0,263.0 116.0,263.0 117.0,262.0 118.0,262.0 119.0,261.0 120.0,261.0 121.0,261.0 122.0,260.0 123.0,260.0 124.0,260.0 125.0,260.0 126.0,260.0 127.0,259.0 128.0,258.0 129.0,258.0 130.0,258.0 131.0,257.0 132.0,256.0 133.0,255.0 134.0,255.0 135.0,255.0 136.0,254.0 137.0,254.0 138.0,253.0 139.0,253.0 140.0,253.0 141.0,252.0 142.0,252.0 143.0,251.0 144.0,251.0 145.0,251.0 146.0,251.0 147.0,250.0 148.0,250.0 149.0,250.0 150.0,249.0 151.0,249.0 152.0,249.0 153.0,248.0 154.0,248.0 155.0,248.0 156.0,247.0 157.0,246.0 158.0,245.0 159.0,245.0 160.0,245.0 161.0,244.0 162.0,244.0 163.0,244.0 164.0,243.0 165.0,243.0 166.0,242.0 167.0,242.0 168.0,240.0 169.0,239.0 170.0,239.0 171.0,238.0 172.0,238.0 173.0,238.0 174.0,238.0 175.0,237.0 176.0,236.0 177.0,236.0 178.0,235.0 179.0,235.0 180.0,234.0 181.0,234.0 182.0,234.0 183.0,234.0 184.0,234.0 185.0,233.0 186.0,233.0 187.0,233.0 188.0,233.0 189.0,232.0 190.0,232.0 191.0,231.0 192.0,231.0 193.0,231.0 194.0,230.0 195.0,230.0 196.0,230.0 197.0,229.0 198.0,229.0 199.0,228.0 200.0,228.0 201.0,227.0 202.0,227.0 203.0,226.0 204.0,226.0 205.0,225.0 206.0,224.0 207.0,224.0 208.0,223.0 209.0,222.0 210.0,222.0 211.0,221.0 212.0,221.0 213.0,220.0 214.0,220.0 215.0,219.0 216.0,218.0 217.0,218.0 218.0,217.0 219.0,216.0 220.0,216.0 221.0,215.0 222.0,215.0 223.0,215.0 224.0,214.0 225.0,214.0 226.0,214.0 227.0,213.0 228.0,213.0 229.0,213.0 230.0,212.0 231.0,212.0 232.0,212.0 233.0,211.0 234.0,211.0 235.0,210.0 236.0,210.0 237.0,210.0 238.0,209.0 239.0,208.0 240.0,208.0 241.0,207.0 242.0,207.0 243.0,206.0 244.0,206.0 245.0,206.0 246.0,205.0 247.0,204.0 248.0,204.0 249.0,203.0 250.0,202.0 251.0,202.0 252.0,202.0 253.0,201.0 254.0,200.0 255.0,200.0 256.0,200.0 257.0,200.0 258.0,199.0 259.0,199.0 260.0,198.0 261.0,198.0 262.0,197.0 263.0,197.0 264.0,197.0 265.0,196.0 266.0,195.0 267.0,195.0 268.0,194.0 269.0,193.0 270.0,193.0 271.0,192.0 272.0,192.0 273.0,191.0 274.0,191.0 275.0,190.0 276.0,189.0 277.0,189.0 278.0,188.0 279.0,188.0 280.0,187.0 281.0,187.0 282.0,186.0 283.0,186.0 284.0,186.0 285.0,185.0 286.0,185.0 287.0,184.0 288.0,184.0 289.0,183.0 290.0,183.0 291.0,182.0 292.0,182.0 293.0,181.0 294.0,181.0 295.0,180.0 296.0,179.0 297.0,179.0 298.0,179.0 299.0,178.0 300.0,177.0 301.0,177.0 302.0,177.0 303.0,176.0 304.0,176.0 305.0,176.0 306.0,175.0 307.0,174.0 308.0,173.0 309.0,173.0 310.0,173.0 311.0,173.0 312.0,172.0 313.0,172.0 314.0,171.0 315.0,171.0 316.0,171.0 317.0,171.0 318.0,170.0 319.0,170.0 320.0,170.0 321.0,170.0 322.0,169.0 323.0,169.0 324.0,168.0 325.0,167.0 326.0,167.0 327.0,167.0 328.0,166.0 329.0,166.0 330.0,166.0 331.0,166.0 332.0,165.0 333.0,165.0 334.0,164.0 335.0,163.0 336.0,163.0 337.0,162.0 338.0,161.0 339.0,161.0 340.0,160.0 341.0,160.0 342.0,159.0 343.0,158.0 344.0,158.0 345.0,158.0 346.0,158.0 347.0,157.0 348.0,157.0 349.0,157.0 350.0,157.0 351.0,156.0 352.0,156.0 353.0,156.0 354.0,156.0 355.0,156.0 356.0,155.0 357.0,155.0 358.0,155.0 359.0,154.0 360.0,154.0 361.0,153.0 362.0,153.0 363.0,152.0 364.0,151.0 365.0,151.0 366.0,150.0 367.0,150.0 368.0,149.0 369.0,149.0 370.0,148.0 371.0,148.0 372.0,147.0 373.0,147.0 374.0,145.0 375.0,145.0 376.0,145.0 377.0,144.0 378.0,144.0 379.0,144.0 380.0,142.0 381.0,142.0 382.0,141.0 383.0,140.0 384.0,140.0 385.0,139.0 386.0,139.0 387.0,139.0 388.0,139.0 389.0,138.0 390.0,138.0 391.0,137.0 392.0,136.0 393.0,136.0 394.0,136.0 395.0,135.0 396.0,134.0 397.0,132.0 398.0,132.0 399.0,132.0 400.0,131.0 401.0,131.0 402.0,131.0 403.0,131.0 404.0,131.0 405.0,130.0 406.0,129.0 407.0,128.0 408.0,127.0 409.0,127.0 410.0,127.0 411.0,127.0 412.0,127.0 413.0,127.0 414.0,126.0 415.0,125.0 416.0,125.0 417.0,125.0 418.0,124.0 419.0,124.0 420.0,123.0 421.0,123.0 422.0,122.0 423.0,122.0 424.0,121.0 425.0,121.0 426.0,120.0 427.0,120.0 428.0,119.0 429.0,119.0 430.0,118.0 431.0,118.0 432.0,117.0 433.0,117.0 434.0,117.0 435.0,117.0 436.0,116.0 437.0,116.0 438.0,115.0 439.0,115.0 440.0,114.0 441.0,114.0 442.0,114.0 443.0,113.0 444.0,112.0 445.0,112.0 446.0,111.0 447.0,111.0 448.0,110.0 449.0,110.0 450.0,109.0 451.0,109.0 452.0,108.0 453.0,107.0 454.0,107.0 455.0,107.0 456.0,106.0 457.0,105.0 458.0,105.0 459.0,105.0 460.0,104.0 461.0,104.0 462.0,104.0 463.0,103.0 464.0,103.0 465.0,102.0 466.0,102.0 467.0,100.0 468.0,99.0 469.0,98.0 470.0,98.0 471.0,98.0 472.0,98.0 473.0,97.0 474.0,97.0 475.0,97.0 476.0,97.0 477.0,97.0 478.0,97.0 479.0,97.0 480.0,96.0 481.0,96.0 482.0,95.0 483.0,94.0 484.0,93.0 485.0,92.0 486.0,91.0 487.0,91.0 488.0,90.0 489.0,90.0 490.0,89.0 491.0,88.0 492.0,88.0 493.0,88.0 494.0,87.0 495.0,86.0 496.0,86.0 497.0,85.0 498.0,85.0 499.0,85.0 500.0,84.0 501.0,83.0 502.0,82.0 503.0,82.0 504.0,82.0 505.0,81.0 506.0,81.0 507.0,81.0 508.0,80.0 509.0,80.0 510.0,80.0 511.0,80.0 512.0,79.0 513.0,79.0 514.0,79.0 515.0,79.0 516.0,79.0 517.0,79.0 518.0,78.0 519.0,77.0 520.0,77.0 521.0,76.0 522.0,76.0 523.0,76.0 524.0,75.0 525.0,75.0 526.0,74.0 527.0,73.0 528.0,72.0 529.0,72.0 530.0,71.0 531.0,71.0 532.0,70.0 533.0,69.0 534.0,69.0 535.0,68.0 536.0,67.0 537.0,67.0 538.0,66.0 539.0,66.0 540.0,66.0 541.0,65.0 542.0,65.0 543.0,65.0 544.0,65.0 545.0,64.0 546.0,64.0 547.0,63.0 548.0,63.0 549.0,63.0 550.0,62.0 551.0,62.0 552.0,62.0 553.0,61.0 554.0,60.0 555.0,60.0 556.0,60.0 557.0,59.0 558.0,59.0 559.0,58.0 560.0,58.0 561.0,57.0 562.0,57.0 563.0,56.0 564.0,56.0 565.0,56.0 566.0,55.0 567.0,55.0 568.0,54.0 569.0,54.0 570.0,54.0 571.0,53.0 572.0,52.0 573.0,52.0 574.0,52.0 575.0,52.0 576.0,51.0 577.0,51.0 578.0,51.0 579.0,51.0 580.0,50.0 581.0,50.0 582.0,49.0 583.0,47.0 584.0,47.0 585.0,46.0 586.0,46.0 587.0,45.0 588.0,45.0 589.0,45.0 590.0,44.0 591.0,44.0 592.0,41.0 593.0,39.0 594.0,39.0 595.0,38.0 596.0,38.0 597.0,38.0 598.0,37.0 599.0,37.0 600.0,36.0 601.0,35.0 602.0,35.0 603.0,35.0 604.0,34.0 605.0,33.0 606.0,33.0 607.0,33.0 608.0,32.0 609.0,32.0 610.0,32.0 611.0,31.0 612.0,30.0 613.0,30.0 614.0,29.0 615.0,29.0 616.0,28.0 617.0,28.0 618.0,28.0 619.0,27.0 620.0,26.0 621.0,26.0 622.0,25.0 623.0,25.0 624.0,24.0 625.0,24.0 626.0,24.0 627.0,23.0 628.0,23.0 629.0,22.0 630.0,22.0 631.0,22.0 632.0,22.0 633.0,22.0 634.0,21.0 635.0,21.0 636.0,20.0 637.0,19.0 638.0,19.0 639.0,18.0 640.0,18.0 641.0,18.0 642.0,18.0 643.0,17.0 644.0,17.0 645.0,16.0 646.0,15.0 647.0,15.0 648.0,14.0 649.0,14.0 650.0,13.0 651.0,13.0 652.0,13.0 653.0,13.0 654.0,12.0" fill="none" stroke="#00ffff" />
	<polyline points="55.0,5.0 655.0,5.0" fill="none" stroke="#6d6d6d" />
	<polyline points="55.0,305.0 655.0,305.0" fill="none" stroke="#6d6d6d" />
	<polyline points="55.0,305.0 55.0,310.0" fill="none" stroke="#6d6d6d" />
	<polyline points="205.0,305.0 205.0,310.0" fill="none" stroke="#6d6d6d" />
	<polyline points="355.0,305.0 355.0,310.0" fill="none" stroke="#6d6d6d" />
	<polyline points="505.0,305.0 505.0,310.0" fill="none" stroke="#6d6d6d" />
	<polyline points="655.0,305.0 655.0,310.0" fill="none" stroke="#6d6d6d" />
	<polyline points="55.0,5.0 55.0,305.0" fill="none" stroke="#6d6d6d" />
	<polyline points="655.0,5.0 655.0,305.0" fill="none" stroke="#6d6d6d" />
	<polyline points="50.0,5.0 55.0,5.0" fill="none" stroke="#6d6d6d" />
	<polyline points="50.0,80.0 55.0,80.0" fill="none" stroke="#6d6d6d" />
	<polyline points="50.0,155.0 55.0,155.0" fill="none" stroke="#6d6d6d" />
	<polyline points="50.0,230.0 55.0,230.0" fill="none" stroke="#6d6d6d" />
	<polyline points="50.0,305.0 55.0,305.0" fill="none" stroke="#6d6d6d" />
	<text x="55.0" y="323.0" fill="#6d6d6d" font-family="Arial" font-size="9pt" text-anchor="middle">1</text>
	<text x="205.0" y="323.0" fill="#6d6d6d" font-family="Arial" font-size="9pt" text-anchor="middle">150</text>
	<text x="355.0" y="323.0" fill="#6d6d6d" font-family="Arial" font-size="9pt" text-anchor="middle">300</text>
	<text x="505.0" y="323.0" fill="#6d6d6d" font-family="Arial" font-size="9pt" text-anchor="middle">450</text>
	<text x="655.0" y="323.0" fill="#6d6d6d" font-family="Arial" font-size="9pt" text-anchor="middle">600</text>
	<text x="45.0" y="9.0" fill="#6d6d6d" font-family="Arial" font-size="9pt" text-anchor="end">69.5</text>
	<text x="45.0" y="84.0" fill="#6d6d6d" font-family="Arial" font-size="9pt" text-anchor="end">60.2</text>
	<text x="45.0" y="159.0" fill="#6d6d6d" font-family="Arial" font-size="9pt" text-anchor="end">50.9</text>
	<text x="45.0" y="234.0" fill="#6d6d6d" font-family="Arial" font-size="9pt" text-anchor="end">41.5</text>
	<text x="45.0" y="309.0" fill="#6d6d6d" font-family="Arial" font-size="9pt" text-anchor="end">32.2</text>
</svg>
